  0
SECTION
  2
HEADER
  9
$ACADVER
  1
AC1015
  9
$ACADMAINTVER
 70
     6
  9
$DWGCODEPAGE
  3
ANSI_1252
  9
$INSBASE
 10
0.0
 20
0.0
 30
0.0
  9
$EXTMIN
 10
0.0
 20
0.0
 30
0.0
  9
$EXTMAX
 10
386.582825
 20
836.070679
 30
2.0
  9
$LIMMIN
 10
0.0
 20
0.0
  9
$LIMMAX
 10
420.0
 20
297.0
  9
$ORTHOMODE
 70
     0
  9
$REGENMODE
 70
     1
  9
$FILLMODE
 70
     1
  9
$QTEXTMODE
 70
     0
  9
$MIRRTEXT
 70
     1
  9
$LTSCALE
 40
1.0
  9
$ATTMODE
 70
     1
  9
$TEXTSIZE
 40
2.5
  9
$TRACEWID
 40
1.0
  9
$TEXTSTYLE
  7
Standard
  9
$CLAYER
  8
0
  9
$CELTYPE
  6
ByLayer
  9
$CECOLOR
 62
   256
  9
$CELTSCALE
 40
1.0
  9
$DISPSILH
 70
     0
  9
$DIMSCALE
 40
1.0
  9
$DIMASZ
 40
2.5
  9
$DIMEXO
 40
0.625
  9
$DIMDLI
 40
3.75
  9
$DIMRND
 40
0.0
  9
$DIMDLE
 40
0.0
  9
$DIMEXE
 40
1.25
  9
$DIMTP
 40
0.0
  9
$DIMTM
 40
0.0
  9
$DIMTXT
 40
2.5
  9
$DIMCEN
 40
2.5
  9
$DIMTSZ
 40
0.0
  9
$DIMTOL
 70
     0
  9
$DIMLIM
 70
     0
  9
$DIMTIH
 70
     0
  9
$DIMTOH
 70
     0
  9
$DIMSE1
 70
     0
  9
$DIMSE2
 70
     0
  9
$DIMTAD
 70
     1
  9
$DIMZIN
 70
     8
  9
$DIMBLK
  1

  9
$DIMASO
 70
     1
  9
$DIMSHO
 70
     1
  9
$DIMPOST
  1

  9
$DIMAPOST
  1

  9
$DIMALT
 70
     0
  9
$DIMALTD
 70
     3
  9
$DIMALTF
 40
0.03937
  9
$DIMLFAC
 40
1.0
  9
$DIMTOFL
 70
     1
  9
$DIMTVP
 40
0.0
  9
$DIMTIX
 70
     0
  9
$DIMSOXD
 70
     0
  9
$DIMSAH
 70
     0
  9
$DIMBLK1
  1

  9
$DIMBLK2
  1

  9
$DIMSTYLE
  2

  9
$DIMCLRD
 70
     0
  9
$DIMCLRE
 70
     0
  9
$DIMCLRT
 70
     0
  9
$DIMTFAC
 40
1.0
  9
$DIMGAP
 40
0.625
  9
$DIMJUST
 70
     0
  9
$DIMSD1
 70
     0
  9
$DIMSD2
 70
     0
  9
$DIMTOLJ
 70
     0
  9
$DIMTZIN
 70
     8
  9
$DIMALTZ
 70
     0
  9
$DIMALTTZ
 70
     0
  9
$DIMUPT
 70
     0
  9
$DIMDEC
 70
     2
  9
$DIMTDEC
 70
     2
  9
$DIMALTU
 70
     2
  9
$DIMALTTD
 70
     3
  9
$DIMTXSTY
  7
Standard
  9
$DIMAUNIT
 70
     0
  9
$DIMADEC
 70
     0
  9
$DIMALTRND
 40
0.0
  9
$DIMAZIN
 70
     0
  9
$DIMDSEP
 70
    44
  9
$DIMATFIT
 70
     0
  9
$DIMFRAC
 70
     0
  9
$DIMLDRBLK
  1

  9
$DIMLUNIT
 70
     2
  9
$DIMLWD
 70
    -2
  9
$DIMLWE
 70
    -2
  9
$DIMTMOVE
 70
     0
  9
$LUNITS
 70
     2
  9
$LUPREC
 70
     4
  9
$SKETCHINC
 40
1.0
  9
$FILLETRAD
 40
2.5
  9
$AUNITS
 70
     0
  9
$AUPREC
 70
     0
  9
$MENU
  1
.
  9
$ELEVATION
 40
0.0
  9
$PELEVATION
 40
0.0
  9
$THICKNESS
 40
0.0
  9
$LIMCHECK
 70
     0
  9
$CHAMFERA
 40
2.5
  9
$CHAMFERB
 40
2.5
  9
$CHAMFERC
 40
0.0
  9
$CHAMFERD
 40
0.0
  9
$SKPOLY
 70
     0
  9
$TDCREATE
 40
0.000000000
  9
$TDUCREATE
 40
0.000000000
  9
$TDUPDATE
 40
0.000000000
  9
$TDUUPDATE
 40
0.000000000
  9
$TDINDWG
 40
0.0000000000
  9
$TDUSRTIMER
 40
0.0000000000
  9
$USRTIMER
 70
     1
  9
$ANGBASE
 50
0.0
  9
$ANGDIR
 70
     0
  9
$PDMODE
 70
     0
  9
$PDSIZE
 40
0.0
  9
$PLINEWID
 40
0.0
  9
$SPLFRAME
 70
     0
  9
$SPLINETYPE
 70
     6
  9
$SPLINESEGS
 70
     8
  9
$HANDSEED
  5
14F
  9
$SURFTAB1
 70
     6
  9
$SURFTAB2
 70
     6
  9
$SURFTYPE
 70
     6
  9
$SURFU
 70
     6
  9
$SURFV
 70
     6
  9
$UCSBASE
  2

  9
$UCSNAME
  2

  9
$UCSORG
 10
0.0
 20
0.0
 30
0.0
  9
$UCSXDIR
 10
1.0
 20
0.0
 30
0.0
  9
$UCSYDIR
 10
0.0
 20
1.0
 30
0.0
  9
$UCSORTHOREF
  2

  9
$UCSORTHOVIEW
 70
     1
  9
$UCSORGTOP
 10
0.0
 20
0.0
 30
0.0
  9
$UCSORGBOTTOM
 10
0.0
 20
0.0
 30
0.0
  9
$UCSORGLEFT
 10
0.0
 20
0.0
 30
0.0
  9
$UCSORGRIGHT
 10
0.0
 20
0.0
 30
0.0
  9
$UCSORGFRONT
 10
0.0
 20
0.0
 30
0.0
  9
$UCSORGBACK
 10
0.0
 20
0.0
 30
0.0
  9
$PUCSBASE
  2

  9
$PUCSNAME
  2

  9
$PUCSORG
 10
0.0
 20
0.0
 30
0.0
  9
$PUCSXDIR
 10
1.0
 20
0.0
 30
0.0
  9
$PUCSYDIR
 10
0.0
 20
1.0
 30
0.0
  9
$PUCSORTHOREF
  2

  9
$PUCSORTHOVIEW
 70
     0
  9
$PUCSORGTOP
 10
0.0
 20
0.0
 30
0.0
  9
$PUCSORGBOTTOM
 10
0.0
 20
0.0
 30
0.0
  9
$PUCSORGLEFT
 10
0.0
 20
0.0
 30
0.0
  9
$PUCSORGRIGHT
 10
0.0
 20
0.0
 30
0.0
  9
$PUCSORGFRONT
 10
0.0
 20
0.0
 30
0.0
  9
$PUCSORGBACK
 10
0.0
 20
0.0
 30
0.0
  9
$USERI1
 70
     0
  9
$USERI2
 70
     0
  9
$USERI3
 70
     0
  9
$USERI4
 70
     0
  9
$USERI5
 70
     0
  9
$USERR1
 40
0.0
  9
$USERR2
 40
0.0
  9
$USERR3
 40
0.0
  9
$USERR4
 40
0.0
  9
$USERR5
 40
0.0
  9
$WORLDVIEW
 70
     1
  9
$SHADEDGE
 70
     3
  9
$SHADEDIF
 70
    70
  9
$TILEMODE
 70
     1
  9
$MAXACTVP
 70
    48
  9
$PINSBASE
 10
0.0
 20
0.0
 30
0.0
  9
$PLIMCHECK
 70
     0
  9
$PEXTMIN
 10
0.0
 20
0.0
 30
0.0
  9
$PEXTMAX
 10
386.582825
 20
836.070679
 30
2.0
  9
$PLIMMIN
 10
0.0
 20
0.0
  9
$PLIMMAX
 10
420.0
 20
297.0
  9
$UNITMODE
 70
     0
  9
$VISRETAIN
 70
     0
  9
$PLINEGEN
 70
     0
  9
$PSLTSCALE
 70
     1
  9
$TREEDEPTH
 70
  3020
  9
$CMLSTYLE
  2
Standard
  9
$CMLJUST
 70
     0
  9
$CMLSCALE
 40
20.0
  9
$PROXYGRAPHICS
 70
     1
  9
$MEASUREMENT
 70
     1
  9
$CELWEIGHT
370
    -1
  9
$ENDCAPS
280
     0
  9
$JOINSTYLE
280
     0
  9
$LWDISPLAY
290
     0
  9
$INSUNITS
 70
     0
  9
$HYPERLINKBASE
  1

  9
$STYLESHEET
  1

  9
$XEDIT
290
     1
  9
$CEPSNTYPE
380
     0
  9
$PSTYLEMODE
290
     0
  9
$FINGERPRINTGUID
  2

  9
$VERSIONGUID
  2

  9
$EXTNAMES
290
     0
  9
$PSVPSCALE
 40
0.0
  0
ENDSEC
  0
SECTION
  2
CLASSES
  0
CLASS
  1
LWPOLYLINE
  2
AcDbPolyline
  3
AutoCAD 2000
 90
        0
280
     0
281
     1
  0
CLASS
  1
IMAGE
  2
AcDbRasterImage
  3
ISM
 90
      127
280
     0
281
     1
  0
CLASS
  1
OLE2FRAME
  2
AcDbOle2Frame
  3
AutoCAD 2000
 90
        0
280
     0
281
     1
  0
CLASS
  1
HATCH
  2
AcDbHatch
  3
AutoCAD 2000
 90
        0
280
     0
281
     1
  0
CLASS
  1
DICTIONARYVAR
  2
AcDbDictionaryVar
  3
AutoCAD 2000
 90
        0
280
     0
281
     0
  0
CLASS
  1
RASTERVARIABLES
  2
AcDbRasterVariables
  3
ISM
 90
        0
280
     0
281
     0
  0
CLASS
  1
IMAGEDEF
  2
AcDbRasterImageDef
  3
ISM
 90
        0
280
     0
281
     0
  0
CLASS
  1
IMAGEDEF_REACTOR
  2
AcDbRasterImageDefReactor
  3
ISM
 90
        1
280
     0
281
     0
  0
CLASS
  1
IDBUFFER
  2
AcDbIdBuffer
  3
AutoCAD 2000
 90
        0
280
     0
281
     0
  0
CLASS
  1
SPATIAL_FILTER
  2
AcDbSpatialFilter
  3
AutoCAD 2000
 90
        0
280
     0
281
     0
  0
CLASS
  1
XRECORD
  2
AcDbXrecord
  3
AutoCAD 2000
 90
        0
280
     0
281
     0
  0
CLASS
  1
SORTENTSTABLE
  2
AcDbSortentsTable
  3
AutoCAD 2000
 90
        0
280
     0
281
     0
  0
CLASS
  1
LAYER_INDEX
  2
AcDbLayerIndex
  3
AutoCAD 2000
 90
        0
280
     0
281
     0
  0
CLASS
  1
SPATIAL_INDEX
  2
AcDbSpatialIndex
  3
AutoCAD 2000
 90
        0
280
     0
281
     0
  0
CLASS
  1
OBJECT_PTR
  2
CAseDLPNTableRecord
  3
"ASE-LPNTableRecord"
 90
        1
280
     0
281
     0
  0
CLASS
  1
LAYOUT
  2
AcDbLayout
  3
AutoCAD 2000
 90
        0
280
     0
281
     0
  0
CLASS
  1
PLOTSETTINGS
  2
AcDbPlotSettings
  3
AutoCAD 2000
 90
        0
280
     0
281
     0
  0
CLASS
  1
ACDBDICTIONARYWDFLT
  2
AcDbDictionaryWithDefault
  3
AutoCAD 2000
 90
        0
280
     0
281
     0
  0
CLASS
  1
ACDBPLACEHOLDER
  2
AcDbPlaceHolder
  3
AutoCAD 2000
 90
        0
280
     0
281
     0
  0
CLASS
  1
VBA_PROJECT
  2
AcDbVbaProject
  3
acadvba
 90
        0
280
     0
281
     0
  0
CLASS
  1
WIPEOUT
  2
AcDbWipeout
  3
WipeOut|AutoCAD Express Tool|expresstools@autodesk.com
 90
      127
280
     0
281
     1
  0
CLASS
  1
WIPEOUTVARIABLES
  2
AcDbWipeoutVariables
  3
WipeOut|AutoCAD Express Tool|expresstools@autodesk.com
 90
        0
280
     0
281
     0
  0
CLASS
  1
RTEXT
  2
RText
  3
RText|AutoCAD Express Tool|expresstools@autodesk.com
 90
        0
280
     0
281
     1
  0
CLASS
  1
ARCALIGNEDTEXT
  2
AcDbArcAlignedText
  3
ATEXT|AutoCAD Express Tool|expresstools@autodesk.com
 90
        0
280
     0
281
     1
  0
ENDSEC
  0
SECTION
  2
TABLES
  0
TABLE
  2
VPORT
  5
7
100
AcDbSymbolTable
 70
     1
  0
VPORT
  5
15
100
AcDbSymbolTableRecord
100
AcDbViewportTableRecord
  2
*ACTIVE
 70
     0
 10
0.0
 20
0.0
 11
1.0
 21
1.0
 12
6.591288
 22
4.579184
 13
0.0
 23
0.0
 14
1.0
 24
1.0
 15
0.0
 25
0.0
 16
0.0
 26
0.0
 36
1.0
 17
0.0
 27
0.0
 37
0.0
 40
9.158369
 41
0.688564
 42
50.0
 43
0.0
 44
0.0
 50
0.0
 51
0.0
 71
     0
 72
   100
 73
     1
 74
     1
 75
     0
 76
     0
 77
     0
 78
     0
281
     0
 65
     0
110
0.0
120
0.0
130
0.0
111
1.0
121
0.0
131
0.0
112
0.0
122
1.0
132
0.0
345
0
346
0
 79
     0
146
0.0
  0
ENDTAB
  0
TABLE
  2
LTYPE
  5
4
100
AcDbSymbolTable
 70
     3
  0
LTYPE
  5
11
100
AcDbSymbolTableRecord
100
AcDbLinetypeTableRecord
  2
ByBlock
 70
    64
  3

 72
    65
 73
     0
 40
0.0
  0
LTYPE
  5
12
100
AcDbSymbolTableRecord
100
AcDbLinetypeTableRecord
  2
ByLayer
 70
    64
  3

 72
    65
 73
     0
 40
0.0
  0
LTYPE
  5
13
100
AcDbSymbolTableRecord
100
AcDbLinetypeTableRecord
  2
Continuous
 70
    64
  3
Solid line
 72
    65
 73
     0
 40
0.0
  0
ENDTAB
  0
TABLE
  2
LAYER
  5
2
100
AcDbSymbolTable
 70
     1
  0
LAYER
  5
14
100
AcDbSymbolTableRecord
100
AcDbLayerTableRecord
  2
0
 70
     0
 62
     7
  6
Continuous
290
     1
370
    -3
390
1D
  0
ENDTAB
  0
TABLE
  2
STYLE
  5
3
100
AcDbSymbolTable
 70
     1
  0
STYLE
  5
17
100
AcDbSymbolTableRecord
100
AcDbTextStyleTableRecord
  2
Standard
 70
     0
 40
0.0
 41
1.0
 50
0.0
 71
     0
 42
0.0
  3
txt
  4

  0
ENDTAB
  0
TABLE
  2
VIEW
  5
5
100
AcDbSymbolTable
 70
     0
  0
ENDTAB
  0
TABLE
  2
UCS
  5
6
100
AcDbSymbolTable
 70
     0
  0
ENDTAB
  0
TABLE
  2
APPID
  5
8
100
AcDbSymbolTable
 70
     1
  0
APPID
  5
16
100
AcDbSymbolTableRecord
100
AcDbRegAppTableRecord
  2
ACAD
 70
     0
  0
ENDTAB
  0
TABLE
  2
DIMSTYLE
  5
9
100
AcDbSymbolTable
 70
     1
100
AcDbDimStyleTable
 71
     0
  0
DIMSTYLE
105
18
100
AcDbSymbolTableRecord
100
AcDbDimStyleTableRecord
  2
Standard
 70
     0
  3

  4

 40
1.0
 41
0.18
 42
0.0625
 43
0.38
 44
0.18
 45
0.0
 46
0.0
 47
0.0
 48
0.0
 71
     0
 72
     0
 73
     1
 74
     1
 75
     0
 76
     0
 77
     0
 78
     0
 79
     0
140
0.18
141
0.09
142
0.0
143
25.4
144
1.0
145
0.0
146
1.0
147
0.09
148
0.0
170
     0
171
     2
172
     0
173
     0
174
     0
175
     0
176
     0
177
     0
178
     0
179
     0
271
     4
272
     4
273
     2
274
     2
275
     0
276
     0
277
     2
278
    46
279
     0
280
     0
281
     0
282
     0
283
     1
284
     0
285
     0
286
     0
288
     0
289
     3
340
17
341
0
342
0
343
0
344
0
371
    -2
372
    -2
  0
ENDTAB
  0
TABLE
  2
BLOCK_RECORD
  5
1
100
AcDbSymbolTable
 70
     0
  0
BLOCK_RECORD
  5
A
100
AcDbSymbolTableRecord
100
AcDbBlockTableRecord
  2
*MODEL_SPACE
340
20
  0
BLOCK_RECORD
  5
B
100
AcDbSymbolTableRecord
100
AcDbBlockTableRecord
  2
*PAPER_SPACE
340
21
  0
ENDTAB
  0
ENDSEC
  0
SECTION
  2
BLOCKS
  0
BLOCK
  5
D
100
AcDbEntity
  8
0
390
0
100
AcDbBlockBegin
  2
*MODEL_SPACE
 70
     0
 10
0.0
 20
0.0
 30
0.0
  3
*MODEL_SPACE
  1

  0
ENDBLK
  5
E
100
AcDbEntity
  8
0
390
0
100
AcDbBlockEnd
  0
BLOCK
  5
F
100
AcDbEntity
 67
     1
  8
0
390
0
100
AcDbBlockBegin
  2
*PAPER_SPACE
 70
     0
 10
0.0
 20
0.0
 30
0.0
  3
*PAPER_SPACE
  1

  0
ENDBLK
  5
10
100
AcDbEntity
 67
     1
  8
0
390
0
100
AcDbBlockEnd
  0
ENDSEC
  0
SECTION
  2
ENTITIES
  0
VIEWPORT
  5
14E
100
AcDbEntity
 67
     1
  8
0
370
     0
390
0
 62
     0
 48
0.0
100
AcDbViewport
 10
0.0
 20
0.0
 30
0.0
 40
1000.0
 41
1000.0
 68
     1
 69
     1
 12
0.0
 22
0.0
 13
0.0
 23
0.0
 14
1.0
 24
1.0
 15
1.0
 25
1.0
 16
0.0
 26
0.0
 36
1.0
 17
0.0
 27
0.0
 37
0.0
 42
50.0
 43
0.0
 44
0.0
 45
1000.0
 50
0.0
 51
0.0
 72
   100
 90
        0
340
0
  1

281
     0
 71
     0
 74
     1
110
0.0
120
0.0
130
0.0
111
1.0
121
0.0
131
0.0
112
0.0
122
1.0
132
0.0
345
0
346
0
 79
     0
146
0.0
  0
LINE
  5
24
100
AcDbEntity
  8
0
370
    35
390
0
 62
     7
100
AcDbLine
 10
145.855957
 20
566.476196
 30
0.0
 11
203.766525
 21
566.476196
 31
0.0
210
0.0
220
0.0
230
1.0
  0
ARC
  5
25
100
AcDbEntity
  8
0
370
    35
390
0
 62
     7
100
AcDbCircle
 10
145.855957
 20
698.976196
 30
0.0
 40
144.602503
210
0.0
220
0.0
230
1.0
100
AcDbArc
 50
293.608259
 51
336.391741
  0
LINE
  5
26
100
AcDbEntity
  8
0
370
    35
390
0
 62
     7
100
AcDbLine
 10
278.355957
 20
698.976196
 30
0.0
 11
278.355957
 21
641.065613
 31
0.0
210
0.0
220
0.0
230
1.0
  0
LINE
  5
27
100
AcDbEntity
  8
0
370
    35
390
0
 62
     7
100
AcDbLine
 10
278.355957
 20
698.976196
 30
0.0
 11
278.355957
 21
756.88678
 31
0.0
210
0.0
220
0.0
230
1.0
  0
ARC
  5
28
100
AcDbEntity
  8
0
370
    35
390
0
 62
     7
100
AcDbCircle
 10
145.855957
 20
698.976196
 30
0.0
 40
144.602503
210
0.0
220
0.0
230
1.0
100
AcDbArc
 50
23.608259
 51
66.391741
  0
LINE
  5
29
100
AcDbEntity
  8
0
370
    35
390
0
 62
     7
100
AcDbLine
 10
145.855957
 20
831.476196
 30
0.0
 11
203.766525
 21
831.476196
 31
0.0
210
0.0
220
0.0
230
1.0
  0
LINE
  5
2A
100
AcDbEntity
  8
0
370
    35
390
0
 62
     7
100
AcDbLine
 10
145.855957
 20
831.476196
 30
0.0
 11
87.945389
 21
831.476196
 31
0.0
210
0.0
220
0.0
230
1.0
  0
ARC
  5
2B
100
AcDbEntity
  8
0
370
    35
390
0
 62
     7
100
AcDbCircle
 10
145.855957
 20
698.976196
 30
0.0
 40
144.602503
210
0.0
220
0.0
230
1.0
100
AcDbArc
 50
113.608258
 51
156.391743
  0
LINE
  5
2C
100
AcDbEntity
  8
0
370
    35
390
0
 62
     7
100
AcDbLine
 10
13.355957
 20
698.976196
 30
0.0
 11
13.355957
 21
756.88678
 31
0.0
210
0.0
220
0.0
230
1.0
  0
LINE
  5
2D
100
AcDbEntity
  8
0
370
    35
390
0
 62
     7
100
AcDbLine
 10
13.355957
 20
698.976196
 30
0.0
 11
13.355957
 21
641.065613
 31
0.0
210
0.0
220
0.0
230
1.0
  0
ARC
  5
2E
100
AcDbEntity
  8
0
370
    35
390
0
 62
     7
100
AcDbCircle
 10
145.855957
 20
698.976196
 30
0.0
 40
144.602503
210
0.0
220
0.0
230
1.0
100
AcDbArc
 50
203.608257
 51
246.391742
  0
LINE
  5
2F
100
AcDbEntity
  8
0
370
    35
390
0
 62
     7
100
AcDbLine
 10
145.855957
 20
566.476196
 30
0.0
 11
87.945389
 21
566.476196
 31
0.0
210
0.0
220
0.0
230
1.0
  0
CIRCLE
  5
30
100
AcDbEntity
  8
0
370
    35
390
0
 62
     7
100
AcDbCircle
 10
145.855957
 20
817.476196
 30
0.0
 40
4.0
210
0.0
220
0.0
230
1.0
  0
CIRCLE
  5
31
100
AcDbEntity
  8
0
370
    35
390
0
 62
     7
100
AcDbCircle
 10
145.855957
 20
580.476196
 30
0.0
 40
4.0
210
0.0
220
0.0
230
1.0
  0
LINE
  5
32
100
AcDbEntity
  8
0
370
    35
390
0
 62
     7
100
AcDbLine
 10
23.355957
 20
698.976196
 30
0.0
 11
23.355957
 21
734.976196
 31
0.0
210
0.0
220
0.0
230
1.0
  0
LINE
  5
33
100
AcDbEntity
  8
0
370
    35
390
0
 62
     7
 48
0.3
100
AcDbLine
 10
23.355957
 20
734.976196
 30
0.0
 11
35.355957
 21
734.976196
 31
0.0
210
0.0
220
0.0
230
1.0
  0
LINE
  5
34
100
AcDbEntity
  8
0
370
    35
390
0
 62
     7
100
AcDbLine
 10
35.355957
 20
734.976196
 30
0.0
 11
35.355957
 21
698.976196
 31
0.0
210
0.0
220
0.0
230
1.0
  0
LINE
  5
35
100
AcDbEntity
  8
0
370
    35
390
0
 62
     7
100
AcDbLine
 10
35.355957
 20
662.976196
 30
0.0
 11
35.355957
 21
698.976196
 31
0.0
210
0.0
220
0.0
230
1.0
  0
LINE
  5
36
100
AcDbEntity
  8
0
370
    35
390
0
 62
     7
 48
0.3
100
AcDbLine
 10
23.355957
 20
662.976196
 30
0.0
 11
35.355957
 21
662.976196
 31
0.0
210
0.0
220
0.0
230
1.0
  0
LINE
  5
37
100
AcDbEntity
  8
0
370
    35
390
0
 62
     7
100
AcDbLine
 10
23.355957
 20
698.976196
 30
0.0
 11
23.355957
 21
662.976196
 31
0.0
210
0.0
220
0.0
230
1.0
  0
LINE
  5
38
100
AcDbEntity
  8
0
370
    35
390
0
 62
     7
100
AcDbLine
 10
268.355957
 20
698.976196
 30
0.0
 11
268.355957
 21
734.976196
 31
0.0
210
0.0
220
0.0
230
1.0
  0
LINE
  5
39
100
AcDbEntity
  8
0
370
    35
390
0
 62
     7
100
AcDbLine
 10
268.355957
 20
698.976196
 30
0.0
 11
268.355957
 21
662.976196
 31
0.0
210
0.0
220
0.0
230
1.0
  0
LINE
  5
3A
100
AcDbEntity
  8
0
370
    35
390
0
 62
     7
 48
0.3
100
AcDbLine
 10
268.355957
 20
662.976196
 30
0.0
 11
256.355957
 21
662.976196
 31
0.0
210
0.0
220
0.0
230
1.0
  0
LINE
  5
3B
100
AcDbEntity
  8
0
370
    35
390
0
 62
     7
100
AcDbLine
 10
256.355957
 20
662.976196
 30
0.0
 11
256.355957
 21
698.976196
 31
0.0
210
0.0
220
0.0
230
1.0
  0
LINE
  5
3C
100
AcDbEntity
  8
0
370
    35
390
0
 62
     7
100
AcDbLine
 10
256.355957
 20
734.976196
 30
0.0
 11
256.355957
 21
698.976196
 31
0.0
210
0.0
220
0.0
230
1.0
  0
LINE
  5
3D
100
AcDbEntity
  8
0
370
    35
390
0
 62
     7
 48
0.3
100
AcDbLine
 10
268.355957
 20
734.976196
 30
0.0
 11
256.355957
 21
734.976196
 31
0.0
210
0.0
220
0.0
230
1.0
  0
LINE
  5
3E
100
AcDbEntity
  8
0
370
    35
390
0
 62
     7
 48
0.375
100
AcDbLine
 10
244.355957
 20
698.976196
 30
0.0
 11
244.355957
 21
683.976196
 31
0.0
210
0.0
220
0.0
230
1.0
  0
LINE
  5
3F
100
AcDbEntity
  8
0
370
    35
390
0
 62
     7
 48
0.3375
100
AcDbLine
 10
244.355957
 20
683.976196
 30
0.0
 11
230.855957
 21
683.976196
 31
0.0
210
0.0
220
0.0
230
1.0
  0
LINE
  5
40
100
AcDbEntity
  8
0
370
    35
390
0
 62
     7
 48
0.375
100
AcDbLine
 10
230.855957
 20
683.976196
 30
0.0
 11
230.855957
 21
698.976196
 31
0.0
210
0.0
220
0.0
230
1.0
  0
LINE
  5
41
100
AcDbEntity
  8
0
370
    35
390
0
 62
     7
 48
0.375
100
AcDbLine
 10
230.855957
 20
713.976196
 30
0.0
 11
230.855957
 21
698.976196
 31
0.0
210
0.0
220
0.0
230
1.0
  0
LINE
  5
42
100
AcDbEntity
  8
0
370
    35
390
0
 62
     7
 48
0.3375
100
AcDbLine
 10
244.355957
 20
713.976196
 30
0.0
 11
230.855957
 21
713.976196
 31
0.0
210
0.0
220
0.0
230
1.0
  0
LINE
  5
43
100
AcDbEntity
  8
0
370
    35
390
0
 62
     7
 48
0.375
100
AcDbLine
 10
244.355957
 20
698.976196
 30
0.0
 11
244.355957
 21
713.976196
 31
0.0
210
0.0
220
0.0
230
1.0
  0
LINE
  5
44
100
AcDbEntity
  8
0
370
    35
390
0
 62
     7
 48
0.375
100
AcDbLine
 10
47.355957
 20
698.976196
 30
0.0
 11
47.355957
 21
713.976196
 31
0.0
210
0.0
220
0.0
230
1.0
  0
LINE
  5
45
100
AcDbEntity
  8
0
370
    35
390
0
 62
     7
 48
0.3375
100
AcDbLine
 10
47.355957
 20
713.976196
 30
0.0
 11
60.855957
 21
713.976196
 31
0.0
210
0.0
220
0.0
230
1.0
  0
LINE
  5
46
100
AcDbEntity
  8
0
370
    35
390
0
 62
     7
 48
0.375
100
AcDbLine
 10
60.855957
 20
713.976196
 30
0.0
 11
60.855957
 21
698.976196
 31
0.0
210
0.0
220
0.0
230
1.0
  0
LINE
  5
47
100
AcDbEntity
  8
0
370
    35
390
0
 62
     7
 48
0.375
100
AcDbLine
 10
60.855957
 20
683.976196
 30
0.0
 11
60.855957
 21
698.976196
 31
0.0
210
0.0
220
0.0
230
1.0
  0
LINE
  5
48
100
AcDbEntity
  8
0
370
    35
390
0
 62
     7
 48
0.3375
100
AcDbLine
 10
47.355957
 20
683.976196
 30
0.0
 11
60.855957
 21
683.976196
 31
0.0
210
0.0
220
0.0
230
1.0
  0
LINE
  5
49
100
AcDbEntity
  8
0
370
    35
390
0
 62
     7
 48
0.375
100
AcDbLine
 10
47.355957
 20
698.976196
 30
0.0
 11
47.355957
 21
683.976196
 31
0.0
210
0.0
220
0.0
230
1.0
  0
LINE
  5
4A
100
AcDbEntity
  8
0
370
    35
390
0
 62
     7
 48
0.45
100
AcDbLine
 10
62.880203
 20
636.45929
 30
0.0
 11
80.880203
 21
636.45929
 31
0.0
210
0.0
220
0.0
230
1.0
  0
LINE
  5
4B
100
AcDbEntity
  8
0
370
    35
390
0
 62
     7
 48
0.375
100
AcDbLine
 10
80.880203
 20
621.45929
 30
0.0
 11
80.880203
 21
636.45929
 31
0.0
210
0.0
220
0.0
230
1.0
  0
LINE
  5
4C
100
AcDbEntity
  8
0
370
    35
390
0
 62
     7
 48
0.45
100
AcDbLine
 10
80.880203
 20
621.45929
 30
0.0
 11
62.880203
 21
621.45929
 31
0.0
210
0.0
220
0.0
230
1.0
  0
LINE
  5
4D
100
AcDbEntity
  8
0
370
    35
390
0
 62
     7
 48
0.375
100
AcDbLine
 10
62.880203
 20
636.45929
 30
0.0
 11
62.880203
 21
621.45929
 31
0.0
210
0.0
220
0.0
230
1.0
  0
LINE
  5
4E
100
AcDbEntity
  8
0
370
    35
390
0
 62
     7
 48
0.375
100
AcDbLine
 10
228.831711
 20
636.45929
 30
0.0
 11
228.831711
 21
621.45929
 31
0.0
210
0.0
220
0.0
230
1.0
  0
LINE
  5
4F
100
AcDbEntity
  8
0
370
    35
390
0
 62
     7
 48
0.45
100
AcDbLine
 10
210.831711
 20
621.45929
 30
0.0
 11
228.831711
 21
621.45929
 31
0.0
210
0.0
220
0.0
230
1.0
  0
LINE
  5
50
100
AcDbEntity
  8
0
370
    35
390
0
 62
     7
 48
0.375
100
AcDbLine
 10
210.831711
 20
621.45929
 30
0.0
 11
210.831711
 21
636.45929
 31
0.0
210
0.0
220
0.0
230
1.0
  0
LINE
  5
51
100
AcDbEntity
  8
0
370
    35
390
0
 62
     7
 48
0.45
100
AcDbLine
 10
228.831711
 20
636.45929
 30
0.0
 11
210.831711
 21
636.45929
 31
0.0
210
0.0
220
0.0
230
1.0
  0
LINE
  5
52
100
AcDbEntity
  8
0
370
    35
390
0
 62
     7
 48
0.45
100
AcDbLine
 10
274.687439
 20
817.697571
 30
0.0
 11
274.687439
 21
835.697571
 31
0.0
210
0.0
220
0.0
230
1.0
  0
LINE
  5
53
100
AcDbEntity
  8
0
370
    35
390
0
 62
     7
100
AcDbLine
 10
274.687439
 20
835.697571
 30
0.0
 11
304.687439
 21
835.697571
 31
0.0
210
0.0
220
0.0
230
1.0
  0
LINE
  5
54
100
AcDbEntity
  8
0
370
    35
390
0
 62
     7
 48
0.45
100
AcDbLine
 10
304.687439
 20
835.697571
 30
0.0
 11
304.687439
 21
817.697571
 31
0.0
210
0.0
220
0.0
230
1.0
  0
LINE
  5
55
100
AcDbEntity
  8
0
370
    35
390
0
 62
     7
100
AcDbLine
 10
304.687439
 20
817.697571
 30
0.0
 11
304.687439
 21
787.697571
 31
0.0
210
0.0
220
0.0
230
1.0
  0
LINE
  5
56
100
AcDbEntity
  8
0
370
    35
390
0
 62
     7
100
AcDbLine
 10
304.687439
 20
787.697571
 30
0.0
 11
274.687439
 21
787.697571
 31
0.0
210
0.0
220
0.0
230
1.0
  0
LINE
  5
57
100
AcDbEntity
  8
0
370
    35
390
0
 62
     7
100
AcDbLine
 10
274.687439
 20
787.697571
 30
0.0
 11
274.687439
 21
817.697571
 31
0.0
210
0.0
220
0.0
230
1.0
  0
CIRCLE
  5
58
100
AcDbEntity
  8
0
370
    35
390
0
 62
     7
100
AcDbCircle
 10
289.687439
 20
802.697571
 30
0.0
 40
11.0
210
0.0
220
0.0
230
1.0
  0
LINE
  5
59
100
AcDbEntity
  8
0
370
    35
390
0
 62
     7
 48
0.1125
100
AcDbLine
 10
297.687439
 20
827.197571
 30
0.0
 11
297.687439
 21
822.697571
 31
0.0
210
0.0
220
0.0
230
1.0
  0
LINE
  5
5A
100
AcDbEntity
  8
0
370
    35
390
0
 62
     7
 48
0.4
100
AcDbLine
 10
281.687439
 20
827.197571
 30
0.0
 11
297.687439
 21
827.197571
 31
0.0
210
0.0
220
0.0
230
1.0
  0
LINE
  5
5B
100
AcDbEntity
  8
0
370
    35
390
0
 62
     7
 48
0.1125
100
AcDbLine
 10
281.687439
 20
822.697571
 30
0.0
 11
281.687439
 21
827.197571
 31
0.0
210
0.0
220
0.0
230
1.0
  0
LINE
  5
5C
100
AcDbEntity
  8
0
370
    35
390
0
 62
     7
 48
0.4
100
AcDbLine
 10
297.687439
 20
822.697571
 30
0.0
 11
281.687439
 21
822.697571
 31
0.0
210
0.0
220
0.0
230
1.0
  0
LINE
  5
5D
100
AcDbEntity
  8
0
370
    35
390
0
 62
     7
 48
0.45
100
AcDbLine
 10
308.434326
 20
817.957214
 30
0.0
 11
308.434326
 21
835.957214
 31
0.0
210
0.0
220
0.0
230
1.0
  0
LINE
  5
5E
100
AcDbEntity
  8
0
370
    35
390
0
 62
     7
100
AcDbLine
 10
308.434326
 20
835.957214
 30
0.0
 11
338.434326
 21
835.957214
 31
0.0
210
0.0
220
0.0
230
1.0
  0
LINE
  5
5F
100
AcDbEntity
  8
0
370
    35
390
0
 62
     7
 48
0.45
100
AcDbLine
 10
338.434326
 20
835.957214
 30
0.0
 11
338.434326
 21
817.957214
 31
0.0
210
0.0
220
0.0
230
1.0
  0
LINE
  5
60
100
AcDbEntity
  8
0
370
    35
390
0
 62
     7
100
AcDbLine
 10
338.434326
 20
817.957214
 30
0.0
 11
338.434326
 21
787.957214
 31
0.0
210
0.0
220
0.0
230
1.0
  0
LINE
  5
61
100
AcDbEntity
  8
0
370
    35
390
0
 62
     7
100
AcDbLine
 10
338.434326
 20
787.957214
 30
0.0
 11
308.434326
 21
787.957214
 31
0.0
210
0.0
220
0.0
230
1.0
  0
LINE
  5
62
100
AcDbEntity
  8
0
370
    35
390
0
 62
     7
100
AcDbLine
 10
308.434326
 20
787.957214
 30
0.0
 11
308.434326
 21
817.957214
 31
0.0
210
0.0
220
0.0
230
1.0
  0
CIRCLE
  5
63
100
AcDbEntity
  8
0
370
    35
390
0
 62
     7
100
AcDbCircle
 10
323.434326
 20
802.957214
 30
0.0
 40
11.0
210
0.0
220
0.0
230
1.0
  0
LINE
  5
64
100
AcDbEntity
  8
0
370
    35
390
0
 62
     7
 48
0.1125
100
AcDbLine
 10
331.434326
 20
827.457214
 30
0.0
 11
331.434326
 21
822.957214
 31
0.0
210
0.0
220
0.0
230
1.0
  0
LINE
  5
65
100
AcDbEntity
  8
0
370
    35
390
0
 62
     7
 48
0.4
100
AcDbLine
 10
315.434326
 20
827.457214
 30
0.0
 11
331.434326
 21
827.457214
 31
0.0
210
0.0
220
0.0
230
1.0
  0
LINE
  5
66
100
AcDbEntity
  8
0
370
    35
390
0
 62
     7
 48
0.1125
100
AcDbLine
 10
315.434326
 20
822.957214
 30
0.0
 11
315.434326
 21
827.457214
 31
0.0
210
0.0
220
0.0
230
1.0
  0
LINE
  5
67
100
AcDbEntity
  8
0
370
    35
390
0
 62
     7
 48
0.4
100
AcDbLine
 10
331.434326
 20
822.957214
 30
0.0
 11
315.434326
 21
822.957214
 31
0.0
210
0.0
220
0.0
230
1.0
  0
LINE
  5
68
100
AcDbEntity
  8
0
370
    35
390
0
 62
     7
 48
0.45
100
AcDbLine
 10
344.138214
 20
818.070679
 30
0.0
 11
344.138214
 21
836.070679
 31
0.0
210
0.0
220
0.0
230
1.0
  0
LINE
  5
69
100
AcDbEntity
  8
0
370
    35
390
0
 62
     7
100
AcDbLine
 10
344.138214
 20
836.070679
 30
0.0
 11
374.138214
 21
836.070679
 31
0.0
210
0.0
220
0.0
230
1.0
  0
LINE
  5
6A
100
AcDbEntity
  8
0
370
    35
390
0
 62
     7
 48
0.45
100
AcDbLine
 10
374.138214
 20
836.070679
 30
0.0
 11
374.138214
 21
818.070679
 31
0.0
210
0.0
220
0.0
230
1.0
  0
LINE
  5
6B
100
AcDbEntity
  8
0
370
    35
390
0
 62
     7
100
AcDbLine
 10
374.138214
 20
818.070679
 30
0.0
 11
374.138214
 21
788.070679
 31
0.0
210
0.0
220
0.0
230
1.0
  0
LINE
  5
6C
100
AcDbEntity
  8
0
370
    35
390
0
 62
     7
100
AcDbLine
 10
374.138214
 20
788.070679
 30
0.0
 11
344.138214
 21
788.070679
 31
0.0
210
0.0
220
0.0
230
1.0
  0
LINE
  5
6D
100
AcDbEntity
  8
0
370
    35
390
0
 62
     7
100
AcDbLine
 10
344.138214
 20
788.070679
 30
0.0
 11
344.138214
 21
818.070679
 31
0.0
210
0.0
220
0.0
230
1.0
  0
CIRCLE
  5
6E
100
AcDbEntity
  8
0
370
    35
390
0
 62
     7
100
AcDbCircle
 10
359.138214
 20
803.070679
 30
0.0
 40
11.0
210
0.0
220
0.0
230
1.0
  0
LINE
  5
6F
100
AcDbEntity
  8
0
370
    35
390
0
 62
     7
 48
0.1125
100
AcDbLine
 10
367.138214
 20
827.570679
 30
0.0
 11
367.138214
 21
823.070679
 31
0.0
210
0.0
220
0.0
230
1.0
  0
LINE
  5
70
100
AcDbEntity
  8
0
370
    35
390
0
 62
     7
 48
0.4
100
AcDbLine
 10
351.138214
 20
827.570679
 30
0.0
 11
367.138214
 21
827.570679
 31
0.0
210
0.0
220
0.0
230
1.0
  0
LINE
  5
71
100
AcDbEntity
  8
0
370
    35
390
0
 62
     7
 48
0.1125
100
AcDbLine
 10
351.138214
 20
823.070679
 30
0.0
 11
351.138214
 21
827.570679
 31
0.0
210
0.0
220
0.0
230
1.0
  0
LINE
  5
72
100
AcDbEntity
  8
0
370
    35
390
0
 62
     7
 48
0.4
100
AcDbLine
 10
367.138214
 20
823.070679
 30
0.0
 11
351.138214
 21
823.070679
 31
0.0
210
0.0
220
0.0
230
1.0
  0
LINE
  5
73
100
AcDbEntity
  8
0
370
    35
390
0
 62
     7
 48
0.45
100
AcDbLine
 10
283.77002
 20
765.458923
 30
0.0
 11
283.77002
 21
783.458923
 31
0.0
210
0.0
220
0.0
230
1.0
  0
LINE
  5
74
100
AcDbEntity
  8
0
370
    35
390
0
 62
     7
100
AcDbLine
 10
283.77002
 20
783.458923
 30
0.0
 11
313.77002
 21
783.458923
 31
0.0
210
0.0
220
0.0
230
1.0
  0
LINE
  5
75
100
AcDbEntity
  8
0
370
    35
390
0
 62
     7
 48
0.45
100
AcDbLine
 10
313.77002
 20
783.458923
 30
0.0
 11
313.77002
 21
765.458923
 31
0.0
210
0.0
220
0.0
230
1.0
  0
LINE
  5
76
100
AcDbEntity
  8
0
370
    35
390
0
 62
     7
100
AcDbLine
 10
313.77002
 20
765.458923
 30
0.0
 11
313.77002
 21
735.458923
 31
0.0
210
0.0
220
0.0
230
1.0
  0
LINE
  5
77
100
AcDbEntity
  8
0
370
    35
390
0
 62
     7
100
AcDbLine
 10
313.77002
 20
735.458923
 30
0.0
 11
283.77002
 21
735.458923
 31
0.0
210
0.0
220
0.0
230
1.0
  0
LINE
  5
78
100
AcDbEntity
  8
0
370
    35
390
0
 62
     7
100
AcDbLine
 10
283.77002
 20
735.458923
 30
0.0
 11
283.77002
 21
765.458923
 31
0.0
210
0.0
220
0.0
230
1.0
  0
CIRCLE
  5
79
100
AcDbEntity
  8
0
370
    35
390
0
 62
     7
100
AcDbCircle
 10
298.77002
 20
750.458923
 30
0.0
 40
11.0
210
0.0
220
0.0
230
1.0
  0
LINE
  5
7A
100
AcDbEntity
  8
0
370
    35
390
0
 62
     7
 48
0.1125
100
AcDbLine
 10
306.77002
 20
774.958923
 30
0.0
 11
306.77002
 21
770.458923
 31
0.0
210
0.0
220
0.0
230
1.0
  0
LINE
  5
7B
100
AcDbEntity
  8
0
370
    35
390
0
 62
     7
 48
0.4
100
AcDbLine
 10
290.77002
 20
774.958923
 30
0.0
 11
306.77002
 21
774.958923
 31
0.0
210
0.0
220
0.0
230
1.0
  0
LINE
  5
7C
100
AcDbEntity
  8
0
370
    35
390
0
 62
     7
 48
0.1125
100
AcDbLine
 10
290.77002
 20
770.458923
 30
0.0
 11
290.77002
 21
774.958923
 31
0.0
210
0.0
220
0.0
230
1.0
  0
LINE
  5
7D
100
AcDbEntity
  8
0
370
    35
390
0
 62
     7
 48
0.4
100
AcDbLine
 10
306.77002
 20
770.458923
 30
0.0
 11
290.77002
 21
770.458923
 31
0.0
210
0.0
220
0.0
230
1.0
  0
LINE
  5
7E
100
AcDbEntity
  8
0
370
    35
390
0
 62
     7
 48
0.45
100
AcDbLine
 10
319.040894
 20
766.552979
 30
0.0
 11
319.040894
 21
784.552979
 31
0.0
210
0.0
220
0.0
230
1.0
  0
LINE
  5
7F
100
AcDbEntity
  8
0
370
    35
390
0
 62
     7
100
AcDbLine
 10
319.040894
 20
784.552979
 30
0.0
 11
349.040894
 21
784.552979
 31
0.0
210
0.0
220
0.0
230
1.0
  0
LINE
  5
80
100
AcDbEntity
  8
0
370
    35
390
0
 62
     7
 48
0.45
100
AcDbLine
 10
349.040894
 20
784.552979
 30
0.0
 11
349.040894
 21
766.552979
 31
0.0
210
0.0
220
0.0
230
1.0
  0
LINE
  5
81
100
AcDbEntity
  8
0
370
    35
390
0
 62
     7
100
AcDbLine
 10
349.040894
 20
766.552979
 30
0.0
 11
349.040894
 21
736.552979
 31
0.0
210
0.0
220
0.0
230
1.0
  0
LINE
  5
82
100
AcDbEntity
  8
0
370
    35
390
0
 62
     7
100
AcDbLine
 10
349.040894
 20
736.552979
 30
0.0
 11
319.040894
 21
736.552979
 31
0.0
210
0.0
220
0.0
230
1.0
  0
LINE
  5
83
100
AcDbEntity
  8
0
370
    35
390
0
 62
     7
100
AcDbLine
 10
319.040894
 20
736.552979
 30
0.0
 11
319.040894
 21
766.552979
 31
0.0
210
0.0
220
0.0
230
1.0
  0
CIRCLE
  5
84
100
AcDbEntity
  8
0
370
    35
390
0
 62
     7
100
AcDbCircle
 10
334.040894
 20
751.552979
 30
0.0
 40
11.0
210
0.0
220
0.0
230
1.0
  0
LINE
  5
85
100
AcDbEntity
  8
0
370
    35
390
0
 62
     7
 48
0.1125
100
AcDbLine
 10
342.040894
 20
776.052979
 30
0.0
 11
342.040894
 21
771.552979
 31
0.0
210
0.0
220
0.0
230
1.0
  0
LINE
  5
86
100
AcDbEntity
  8
0
370
    35
390
0
 62
     7
 48
0.4
100
AcDbLine
 10
326.040894
 20
776.052979
 30
0.0
 11
342.040894
 21
776.052979
 31
0.0
210
0.0
220
0.0
230
1.0
  0
LINE
  5
87
100
AcDbEntity
  8
0
370
    35
390
0
 62
     7
 48
0.1125
100
AcDbLine
 10
326.040894
 20
771.552979
 30
0.0
 11
326.040894
 21
776.052979
 31
0.0
210
0.0
220
0.0
230
1.0
  0
LINE
  5
88
100
AcDbEntity
  8
0
370
    35
390
0
 62
     7
 48
0.4
100
AcDbLine
 10
342.040894
 20
771.552979
 30
0.0
 11
326.040894
 21
771.552979
 31
0.0
210
0.0
220
0.0
230
1.0
  0
LINE
  5
89
100
AcDbEntity
  8
0
370
    35
390
0
 62
     7
 48
0.45
100
AcDbLine
 10
355.030945
 20
766.119019
 30
0.0
 11
355.030945
 21
784.119019
 31
0.0
210
0.0
220
0.0
230
1.0
  0
LINE
  5
8A
100
AcDbEntity
  8
0
370
    35
390
0
 62
     7
100
AcDbLine
 10
355.030945
 20
784.119019
 30
0.0
 11
385.030945
 21
784.119019
 31
0.0
210
0.0
220
0.0
230
1.0
  0
LINE
  5
8B
100
AcDbEntity
  8
0
370
    35
390
0
 62
     7
 48
0.45
100
AcDbLine
 10
385.030945
 20
784.119019
 30
0.0
 11
385.030945
 21
766.119019
 31
0.0
210
0.0
220
0.0
230
1.0
  0
LINE
  5
8C
100
AcDbEntity
  8
0
370
    35
390
0
 62
     7
100
AcDbLine
 10
385.030945
 20
766.119019
 30
0.0
 11
385.030945
 21
736.119019
 31
0.0
210
0.0
220
0.0
230
1.0
  0
LINE
  5
8D
100
AcDbEntity
  8
0
370
    35
390
0
 62
     7
100
AcDbLine
 10
385.030945
 20
736.119019
 30
0.0
 11
355.030945
 21
736.119019
 31
0.0
210
0.0
220
0.0
230
1.0
  0
LINE
  5
8E
100
AcDbEntity
  8
0
370
    35
390
0
 62
     7
100
AcDbLine
 10
355.030945
 20
736.119019
 30
0.0
 11
355.030945
 21
766.119019
 31
0.0
210
0.0
220
0.0
230
1.0
  0
CIRCLE
  5
8F
100
AcDbEntity
  8
0
370
    35
390
0
 62
     7
100
AcDbCircle
 10
370.030945
 20
751.119019
 30
0.0
 40
11.0
210
0.0
220
0.0
230
1.0
  0
LINE
  5
90
100
AcDbEntity
  8
0
370
    35
390
0
 62
     7
 48
0.1125
100
AcDbLine
 10
378.030945
 20
775.619019
 30
0.0
 11
378.030945
 21
771.119019
 31
0.0
210
0.0
220
0.0
230
1.0
  0
LINE
  5
91
100
AcDbEntity
  8
0
370
    35
390
0
 62
     7
 48
0.4
100
AcDbLine
 10
362.030945
 20
775.619019
 30
0.0
 11
378.030945
 21
775.619019
 31
0.0
210
0.0
220
0.0
230
1.0
  0
LINE
  5
92
100
AcDbEntity
  8
0
370
    35
390
0
 62
     7
 48
0.1125
100
AcDbLine
 10
362.030945
 20
771.119019
 30
0.0
 11
362.030945
 21
775.619019
 31
0.0
210
0.0
220
0.0
230
1.0
  0
LINE
  5
93
100
AcDbEntity
  8
0
370
    35
390
0
 62
     7
 48
0.4
100
AcDbLine
 10
378.030945
 20
771.119019
 30
0.0
 11
362.030945
 21
771.119019
 31
0.0
210
0.0
220
0.0
230
1.0
  0
LINE
  5
94
100
AcDbEntity
  8
0
370
    35
390
0
 62
     7
 48
0.125
100
AcDbLine
 10
332.443237
 20
692.800964
 30
0.0
 11
327.443237
 21
692.800964
 31
0.0
210
0.0
220
0.0
230
1.0
  0
LINE
  5
95
100
AcDbEntity
  8
0
370
    35
390
0
 62
     7
 48
0.207823
100
AcDbLine
 10
327.443237
 20
684.488037
 30
0.0
 11
327.443237
 21
692.800964
 31
0.0
210
0.0
220
0.0
230
1.0
  0
LINE
  5
96
100
AcDbEntity
  8
0
370
    35
390
0
 62
     7
100
AcDbLine
 10
327.443237
 20
684.488037
 30
0.0
 11
287.255554
 21
684.488037
 31
0.0
210
0.0
220
0.0
230
1.0
  0
LINE
  5
97
100
AcDbEntity
  8
0
370
    35
390
0
 62
     7
 48
0.207823
100
AcDbLine
 10
287.255554
 20
684.488037
 30
0.0
 11
287.255554
 21
692.800964
 31
0.0
210
0.0
220
0.0
230
1.0
  0
LINE
  5
98
100
AcDbEntity
  8
0
370
    35
390
0
 62
     7
 48
0.125
100
AcDbLine
 10
282.255554
 20
692.800964
 30
0.0
 11
287.255554
 21
692.800964
 31
0.0
210
0.0
220
0.0
230
1.0
  0
LINE
  5
99
100
AcDbEntity
  8
0
370
    35
390
0
 62
     7
 48
0.175
100
AcDbLine
 10
282.255554
 20
692.800964
 30
0.0
 11
282.255554
 21
699.800964
 31
0.0
210
0.0
220
0.0
230
1.0
  0
LINE
  5
9A
100
AcDbEntity
  8
0
370
    35
390
0
 62
     7
 48
0.125
100
AcDbLine
 10
282.255554
 20
699.800964
 30
0.0
 11
287.255554
 21
699.800964
 31
0.0
210
0.0
220
0.0
230
1.0
  0
LINE
  5
9B
100
AcDbEntity
  8
0
370
    35
390
0
 62
     7
 48
0.242177
100
AcDbLine
 10
287.255554
 20
699.800964
 30
0.0
 11
287.255554
 21
709.488037
 31
0.0
210
0.0
220
0.0
230
1.0
  0
LINE
  5
9C
100
AcDbEntity
  8
0
370
    35
390
0
 62
     7
 48
0.125
100
AcDbLine
 10
282.255554
 20
709.488037
 30
0.0
 11
287.255554
 21
709.488037
 31
0.0
210
0.0
220
0.0
230
1.0
  0
LINE
  5
9D
100
AcDbEntity
  8
0
370
    35
390
0
 62
     7
 48
0.175
100
AcDbLine
 10
282.255554
 20
709.488037
 30
0.0
 11
282.255554
 21
716.488037
 31
0.0
210
0.0
220
0.0
230
1.0
  0
LINE
  5
9E
100
AcDbEntity
  8
0
370
    35
390
0
 62
     7
 48
0.125
100
AcDbLine
 10
282.255554
 20
716.488037
 30
0.0
 11
287.255554
 21
716.488037
 31
0.0
210
0.0
220
0.0
230
1.0
  0
LINE
  5
9F
100
AcDbEntity
  8
0
370
    35
390
0
 62
     7
 48
0.2
100
AcDbLine
 10
287.255554
 20
716.488037
 30
0.0
 11
287.255554
 21
724.488037
 31
0.0
210
0.0
220
0.0
230
1.0
  0
LINE
  5
A0
100
AcDbEntity
  8
0
370
    35
390
0
 62
     7
 48
0.125
100
AcDbLine
 10
287.255554
 20
724.488037
 30
0.0
 11
287.255554
 21
729.488037
 31
0.0
210
0.0
220
0.0
230
1.0
  0
LINE
  5
A1
100
AcDbEntity
  8
0
370
    35
390
0
 62
     7
 48
0.225
100
AcDbLine
 10
287.255554
 20
729.488037
 30
0.0
 11
296.255554
 21
729.488037
 31
0.0
210
0.0
220
0.0
230
1.0
  0
LINE
  5
A2
100
AcDbEntity
  8
0
370
    35
390
0
 62
     7
 48
0.125
100
AcDbLine
 10
296.255554
 20
729.488037
 30
0.0
 11
296.255554
 21
724.488037
 31
0.0
210
0.0
220
0.0
230
1.0
  0
LINE
  5
A3
100
AcDbEntity
  8
0
370
    35
390
0
 62
     7
 48
0.175
100
AcDbLine
 10
296.255554
 20
724.488037
 30
0.0
 11
303.255554
 21
724.488037
 31
0.0
210
0.0
220
0.0
230
1.0
  0
LINE
  5
A4
100
AcDbEntity
  8
0
370
    35
390
0
 62
     7
 48
0.125
100
AcDbLine
 10
303.255554
 20
724.488037
 30
0.0
 11
303.255554
 21
729.488037
 31
0.0
210
0.0
220
0.0
230
1.0
  0
LINE
  5
A5
100
AcDbEntity
  8
0
370
    35
390
0
 62
     7
 48
0.204692
100
AcDbLine
 10
303.255554
 20
729.488037
 30
0.0
 11
311.443237
 21
729.488037
 31
0.0
210
0.0
220
0.0
230
1.0
  0
LINE
  5
A6
100
AcDbEntity
  8
0
370
    35
390
0
 62
     7
 48
0.125
100
AcDbLine
 10
311.443237
 20
729.488037
 30
0.0
 11
311.443237
 21
724.488037
 31
0.0
210
0.0
220
0.0
230
1.0
  0
LINE
  5
A7
100
AcDbEntity
  8
0
370
    35
390
0
 62
     7
 48
0.175
100
AcDbLine
 10
311.443237
 20
724.488037
 30
0.0
 11
318.443237
 21
724.488037
 31
0.0
210
0.0
220
0.0
230
1.0
  0
LINE
  5
A8
100
AcDbEntity
  8
0
370
    35
390
0
 62
     7
 48
0.125
100
AcDbLine
 10
318.443237
 20
724.488037
 30
0.0
 11
318.443237
 21
729.488037
 31
0.0
210
0.0
220
0.0
230
1.0
  0
LINE
  5
A9
100
AcDbEntity
  8
0
370
    35
390
0
 62
     7
 48
0.225
100
AcDbLine
 10
318.443237
 20
729.488037
 30
0.0
 11
327.443237
 21
729.488037
 31
0.0
210
0.0
220
0.0
230
1.0
  0
LINE
  5
AA
100
AcDbEntity
  8
0
370
    35
390
0
 62
     7
 48
0.125
100
AcDbLine
 10
327.443237
 20
729.488037
 30
0.0
 11
327.443237
 21
724.488037
 31
0.0
210
0.0
220
0.0
230
1.0
  0
LINE
  5
AB
100
AcDbEntity
  8
0
370
    35
390
0
 62
     7
 48
0.2
100
AcDbLine
 10
327.443237
 20
716.488037
 30
0.0
 11
327.443237
 21
724.488037
 31
0.0
210
0.0
220
0.0
230
1.0
  0
LINE
  5
AC
100
AcDbEntity
  8
0
370
    35
390
0
 62
     7
 48
0.125
100
AcDbLine
 10
332.443237
 20
716.488037
 30
0.0
 11
327.443237
 21
716.488037
 31
0.0
210
0.0
220
0.0
230
1.0
  0
LINE
  5
AD
100
AcDbEntity
  8
0
370
    35
390
0
 62
     7
 48
0.175
100
AcDbLine
 10
332.443237
 20
709.488037
 30
0.0
 11
332.443237
 21
716.488037
 31
0.0
210
0.0
220
0.0
230
1.0
  0
LINE
  5
AE
100
AcDbEntity
  8
0
370
    35
390
0
 62
     7
 48
0.125
100
AcDbLine
 10
332.443237
 20
709.488037
 30
0.0
 11
327.443237
 21
709.488037
 31
0.0
210
0.0
220
0.0
230
1.0
  0
LINE
  5
AF
100
AcDbEntity
  8
0
370
    35
390
0
 62
     7
 48
0.242177
100
AcDbLine
 10
327.443237
 20
699.800964
 30
0.0
 11
327.443237
 21
709.488037
 31
0.0
210
0.0
220
0.0
230
1.0
  0
LINE
  5
B0
100
AcDbEntity
  8
0
370
    35
390
0
 62
     7
 48
0.125
100
AcDbLine
 10
332.443237
 20
699.800964
 30
0.0
 11
327.443237
 21
699.800964
 31
0.0
210
0.0
220
0.0
230
1.0
  0
LINE
  5
B1
100
AcDbEntity
  8
0
370
    35
390
0
 62
     7
 48
0.175
100
AcDbLine
 10
332.443237
 20
692.800964
 30
0.0
 11
332.443237
 21
699.800964
 31
0.0
210
0.0
220
0.0
230
1.0
  0
CIRCLE
  5
B2
100
AcDbEntity
  8
0
370
    35
390
0
 62
     7
100
AcDbCircle
 10
307.349396
 20
704.488037
 30
0.0
 40
3.0
210
0.0
220
0.0
230
1.0
  0
LINE
  5
B3
100
AcDbEntity
  8
0
370
    35
390
0
 62
     7
 48
0.125
100
AcDbLine
 10
386.269226
 20
696.309448
 30
0.0
 11
381.269226
 21
696.309448
 31
0.0
210
0.0
220
0.0
230
1.0
  0
LINE
  5
B4
100
AcDbEntity
  8
0
370
    35
390
0
 62
     7
 48
0.207823
100
AcDbLine
 10
381.269226
 20
687.996521
 30
0.0
 11
381.269226
 21
696.309448
 31
0.0
210
0.0
220
0.0
230
1.0
  0
LINE
  5
B5
100
AcDbEntity
  8
0
370
    35
390
0
 62
     7
100
AcDbLine
 10
381.269226
 20
687.996521
 30
0.0
 11
341.081543
 21
687.996521
 31
0.0
210
0.0
220
0.0
230
1.0
  0
LINE
  5
B6
100
AcDbEntity
  8
0
370
    35
390
0
 62
     7
 48
0.207823
100
AcDbLine
 10
341.081543
 20
687.996521
 30
0.0
 11
341.081543
 21
696.309448
 31
0.0
210
0.0
220
0.0
230
1.0
  0
LINE
  5
B7
100
AcDbEntity
  8
0
370
    35
390
0
 62
     7
 48
0.125
100
AcDbLine
 10
336.081543
 20
696.309448
 30
0.0
 11
341.081543
 21
696.309448
 31
0.0
210
0.0
220
0.0
230
1.0
  0
LINE
  5
B8
100
AcDbEntity
  8
0
370
    35
390
0
 62
     7
 48
0.175
100
AcDbLine
 10
336.081543
 20
696.309448
 30
0.0
 11
336.081543
 21
703.309448
 31
0.0
210
0.0
220
0.0
230
1.0
  0
LINE
  5
B9
100
AcDbEntity
  8
0
370
    35
390
0
 62
     7
 48
0.125
100
AcDbLine
 10
336.081543
 20
703.309448
 30
0.0
 11
341.081543
 21
703.309448
 31
0.0
210
0.0
220
0.0
230
1.0
  0
LINE
  5
BA
100
AcDbEntity
  8
0
370
    35
390
0
 62
     7
 48
0.242177
100
AcDbLine
 10
341.081543
 20
703.309448
 30
0.0
 11
341.081543
 21
712.996521
 31
0.0
210
0.0
220
0.0
230
1.0
  0
LINE
  5
BB
100
AcDbEntity
  8
0
370
    35
390
0
 62
     7
 48
0.125
100
AcDbLine
 10
336.081543
 20
712.996521
 30
0.0
 11
341.081543
 21
712.996521
 31
0.0
210
0.0
220
0.0
230
1.0
  0
LINE
  5
BC
100
AcDbEntity
  8
0
370
    35
390
0
 62
     7
 48
0.175
100
AcDbLine
 10
336.081543
 20
712.996521
 30
0.0
 11
336.081543
 21
719.996521
 31
0.0
210
0.0
220
0.0
230
1.0
  0
LINE
  5
BD
100
AcDbEntity
  8
0
370
    35
390
0
 62
     7
 48
0.125
100
AcDbLine
 10
336.081543
 20
719.996521
 30
0.0
 11
341.081543
 21
719.996521
 31
0.0
210
0.0
220
0.0
230
1.0
  0
LINE
  5
BE
100
AcDbEntity
  8
0
370
    35
390
0
 62
     7
 48
0.2
100
AcDbLine
 10
341.081543
 20
719.996521
 30
0.0
 11
341.081543
 21
727.996521
 31
0.0
210
0.0
220
0.0
230
1.0
  0
LINE
  5
BF
100
AcDbEntity
  8
0
370
    35
390
0
 62
     7
 48
0.125
100
AcDbLine
 10
341.081543
 20
727.996521
 30
0.0
 11
341.081543
 21
732.996521
 31
0.0
210
0.0
220
0.0
230
1.0
  0
LINE
  5
C0
100
AcDbEntity
  8
0
370
    35
390
0
 62
     7
 48
0.225
100
AcDbLine
 10
341.081543
 20
732.996521
 30
0.0
 11
350.081543
 21
732.996521
 31
0.0
210
0.0
220
0.0
230
1.0
  0
LINE
  5
C1
100
AcDbEntity
  8
0
370
    35
390
0
 62
     7
 48
0.125
100
AcDbLine
 10
350.081543
 20
732.996521
 30
0.0
 11
350.081543
 21
727.996521
 31
0.0
210
0.0
220
0.0
230
1.0
  0
LINE
  5
C2
100
AcDbEntity
  8
0
370
    35
390
0
 62
     7
 48
0.175
100
AcDbLine
 10
350.081543
 20
727.996521
 30
0.0
 11
357.081543
 21
727.996521
 31
0.0
210
0.0
220
0.0
230
1.0
  0
LINE
  5
C3
100
AcDbEntity
  8
0
370
    35
390
0
 62
     7
 48
0.125
100
AcDbLine
 10
357.081543
 20
727.996521
 30
0.0
 11
357.081543
 21
732.996521
 31
0.0
210
0.0
220
0.0
230
1.0
  0
LINE
  5
C4
100
AcDbEntity
  8
0
370
    35
390
0
 62
     7
 48
0.204692
100
AcDbLine
 10
357.081543
 20
732.996521
 30
0.0
 11
365.269226
 21
732.996521
 31
0.0
210
0.0
220
0.0
230
1.0
  0
LINE
  5
C5
100
AcDbEntity
  8
0
370
    35
390
0
 62
     7
 48
0.125
100
AcDbLine
 10
365.269226
 20
732.996521
 30
0.0
 11
365.269226
 21
727.996521
 31
0.0
210
0.0
220
0.0
230
1.0
  0
LINE
  5
C6
100
AcDbEntity
  8
0
370
    35
390
0
 62
     7
 48
0.175
100
AcDbLine
 10
365.269226
 20
727.996521
 30
0.0
 11
372.269226
 21
727.996521
 31
0.0
210
0.0
220
0.0
230
1.0
  0
LINE
  5
C7
100
AcDbEntity
  8
0
370
    35
390
0
 62
     7
 48
0.125
100
AcDbLine
 10
372.269226
 20
727.996521
 30
0.0
 11
372.269226
 21
732.996521
 31
0.0
210
0.0
220
0.0
230
1.0
  0
LINE
  5
C8
100
AcDbEntity
  8
0
370
    35
390
0
 62
     7
 48
0.225
100
AcDbLine
 10
372.269226
 20
732.996521
 30
0.0
 11
381.269226
 21
732.996521
 31
0.0
210
0.0
220
0.0
230
1.0
  0
LINE
  5
C9
100
AcDbEntity
  8
0
370
    35
390
0
 62
     7
 48
0.125
100
AcDbLine
 10
381.269226
 20
732.996521
 30
0.0
 11
381.269226
 21
727.996521
 31
0.0
210
0.0
220
0.0
230
1.0
  0
LINE
  5
CA
100
AcDbEntity
  8
0
370
    35
390
0
 62
     7
 48
0.2
100
AcDbLine
 10
381.269226
 20
719.996521
 30
0.0
 11
381.269226
 21
727.996521
 31
0.0
210
0.0
220
0.0
230
1.0
  0
LINE
  5
CB
100
AcDbEntity
  8
0
370
    35
390
0
 62
     7
 48
0.125
100
AcDbLine
 10
386.269226
 20
719.996521
 30
0.0
 11
381.269226
 21
719.996521
 31
0.0
210
0.0
220
0.0
230
1.0
  0
LINE
  5
CC
100
AcDbEntity
  8
0
370
    35
390
0
 62
     7
 48
0.175
100
AcDbLine
 10
386.269226
 20
712.996521
 30
0.0
 11
386.269226
 21
719.996521
 31
0.0
210
0.0
220
0.0
230
1.0
  0
LINE
  5
CD
100
AcDbEntity
  8
0
370
    35
390
0
 62
     7
 48
0.125
100
AcDbLine
 10
386.269226
 20
712.996521
 30
0.0
 11
381.269226
 21
712.996521
 31
0.0
210
0.0
220
0.0
230
1.0
  0
LINE
  5
CE
100
AcDbEntity
  8
0
370
    35
390
0
 62
     7
 48
0.242177
100
AcDbLine
 10
381.269226
 20
703.309448
 30
0.0
 11
381.269226
 21
712.996521
 31
0.0
210
0.0
220
0.0
230
1.0
  0
LINE
  5
CF
100
AcDbEntity
  8
0
370
    35
390
0
 62
     7
 48
0.125
100
AcDbLine
 10
386.269226
 20
703.309448
 30
0.0
 11
381.269226
 21
703.309448
 31
0.0
210
0.0
220
0.0
230
1.0
  0
LINE
  5
D0
100
AcDbEntity
  8
0
370
    35
390
0
 62
     7
 48
0.175
100
AcDbLine
 10
386.269226
 20
696.309448
 30
0.0
 11
386.269226
 21
703.309448
 31
0.0
210
0.0
220
0.0
230
1.0
  0
CIRCLE
  5
D1
100
AcDbEntity
  8
0
370
    35
390
0
 62
     7
100
AcDbCircle
 10
361.175385
 20
707.996521
 30
0.0
 40
3.0
210
0.0
220
0.0
230
1.0
  0
LINE
  5
D2
100
AcDbEntity
  8
0
370
    35
390
0
 62
     7
 48
0.125
100
AcDbLine
 10
299.998901
 20
635.541443
 30
0.0
 11
299.998901
 21
640.541443
 31
0.0
210
0.0
220
0.0
230
1.0
  0
LINE
  5
D3
100
AcDbEntity
  8
0
370
    35
390
0
 62
     7
 48
0.1
100
AcDbLine
 10
299.998901
 20
640.541443
 30
0.0
 11
295.998901
 21
640.541443
 31
0.0
210
0.0
220
0.0
230
1.0
  0
LINE
  5
D4
100
AcDbEntity
  8
0
370
    35
390
0
 62
     7
 48
0.125
100
AcDbLine
 10
295.998901
 20
635.541443
 30
0.0
 11
295.998901
 21
640.541443
 31
0.0
210
0.0
220
0.0
230
1.0
  0
LINE
  5
D5
100
AcDbEntity
  8
0
370
    35
390
0
 62
     7
 48
0.125
100
AcDbLine
 10
290.998901
 20
635.541443
 30
0.0
 11
295.998901
 21
635.541443
 31
0.0
210
0.0
220
0.0
230
1.0
  0
LINE
  5
D6
100
AcDbEntity
  8
0
370
    35
390
0
 62
     7
 48
0.125
100
AcDbLine
 10
290.998901
 20
635.541443
 30
0.0
 11
290.998901
 21
640.541443
 31
0.0
210
0.0
220
0.0
230
1.0
  0
LINE
  5
D7
100
AcDbEntity
  8
0
370
    35
390
0
 62
     7
 48
0.1
100
AcDbLine
 10
290.998901
 20
640.541443
 30
0.0
 11
286.998901
 21
640.541443
 31
0.0
210
0.0
220
0.0
230
1.0
  0
LINE
  5
D8
100
AcDbEntity
  8
0
370
    35
390
0
 62
     7
100
AcDbLine
 10
286.998901
 20
640.541443
 30
0.0
 11
286.998901
 21
680.541443
 31
0.0
210
0.0
220
0.0
230
1.0
  0
LINE
  5
D9
100
AcDbEntity
  8
0
370
    35
390
0
 62
     7
100
AcDbLine
 10
286.998901
 20
680.541443
 30
0.0
 11
308.998901
 21
680.541443
 31
0.0
210
0.0
220
0.0
230
1.0
  0
LINE
  5
DA
100
AcDbEntity
  8
0
370
    35
390
0
 62
     7
100
AcDbLine
 10
308.998901
 20
680.541443
 30
0.0
 11
308.998901
 21
640.541443
 31
0.0
210
0.0
220
0.0
230
1.0
  0
LINE
  5
DB
100
AcDbEntity
  8
0
370
    35
390
0
 62
     7
 48
0.1
100
AcDbLine
 10
304.998901
 20
640.541443
 30
0.0
 11
308.998901
 21
640.541443
 31
0.0
210
0.0
220
0.0
230
1.0
  0
LINE
  5
DC
100
AcDbEntity
  8
0
370
    35
390
0
 62
     7
 48
0.125
100
AcDbLine
 10
304.998901
 20
635.541443
 30
0.0
 11
304.998901
 21
640.541443
 31
0.0
210
0.0
220
0.0
230
1.0
  0
LINE
  5
DD
100
AcDbEntity
  8
0
370
    35
390
0
 62
     7
 48
0.125
100
AcDbLine
 10
299.998901
 20
635.541443
 30
0.0
 11
304.998901
 21
635.541443
 31
0.0
210
0.0
220
0.0
230
1.0
  0
LINE
  5
DE
100
AcDbEntity
  8
0
370
    35
390
0
 62
     7
 48
0.125
100
AcDbLine
 10
294.998901
 20
672.541443
 30
0.0
 11
289.998901
 21
672.541443
 31
0.0
210
0.0
220
0.0
230
1.0
  0
LINE
  5
DF
100
AcDbEntity
  8
0
370
    35
390
0
 62
     7
 48
0.175
100
AcDbLine
 10
289.998901
 20
665.541443
 30
0.0
 11
289.998901
 21
672.541443
 31
0.0
210
0.0
220
0.0
230
1.0
  0
LINE
  5
E0
100
AcDbEntity
  8
0
370
    35
390
0
 62
     7
 48
0.125
100
AcDbLine
 10
289.998901
 20
665.541443
 30
0.0
 11
294.998901
 21
665.541443
 31
0.0
210
0.0
220
0.0
230
1.0
  0
LINE
  5
E1
100
AcDbEntity
  8
0
370
    35
390
0
 62
     7
 48
0.175
100
AcDbLine
 10
294.998901
 20
672.541443
 30
0.0
 11
294.998901
 21
665.541443
 31
0.0
210
0.0
220
0.0
230
1.0
  0
LINE
  5
E2
100
AcDbEntity
  8
0
370
    35
390
0
 62
     7
 48
0.175
100
AcDbLine
 10
289.998901
 20
648.85437
 30
0.0
 11
289.998901
 21
655.85437
 31
0.0
210
0.0
220
0.0
230
1.0
  0
LINE
  5
E3
100
AcDbEntity
  8
0
370
    35
390
0
 62
     7
 48
0.125
100
AcDbLine
 10
289.998901
 20
648.85437
 30
0.0
 11
294.998901
 21
648.85437
 31
0.0
210
0.0
220
0.0
230
1.0
  0
LINE
  5
E4
100
AcDbEntity
  8
0
370
    35
390
0
 62
     7
 48
0.175
100
AcDbLine
 10
294.998901
 20
655.85437
 30
0.0
 11
294.998901
 21
648.85437
 31
0.0
210
0.0
220
0.0
230
1.0
  0
LINE
  5
E5
100
AcDbEntity
  8
0
370
    35
390
0
 62
     7
 48
0.125
100
AcDbLine
 10
294.998901
 20
655.85437
 30
0.0
 11
289.998901
 21
655.85437
 31
0.0
210
0.0
220
0.0
230
1.0
  0
LINE
  5
E6
100
AcDbEntity
  8
0
370
    35
390
0
 62
     7
 48
0.125
100
AcDbLine
 10
324.796967
 20
635.305847
 30
0.0
 11
324.796967
 21
640.305847
 31
0.0
210
0.0
220
0.0
230
1.0
  0
LINE
  5
E7
100
AcDbEntity
  8
0
370
    35
390
0
 62
     7
 48
0.1
100
AcDbLine
 10
324.796967
 20
640.305847
 30
0.0
 11
320.796967
 21
640.305847
 31
0.0
210
0.0
220
0.0
230
1.0
  0
LINE
  5
E8
100
AcDbEntity
  8
0
370
    35
390
0
 62
     7
 48
0.125
100
AcDbLine
 10
320.796967
 20
635.305847
 30
0.0
 11
320.796967
 21
640.305847
 31
0.0
210
0.0
220
0.0
230
1.0
  0
LINE
  5
E9
100
AcDbEntity
  8
0
370
    35
390
0
 62
     7
 48
0.125
100
AcDbLine
 10
315.796967
 20
635.305847
 30
0.0
 11
320.796967
 21
635.305847
 31
0.0
210
0.0
220
0.0
230
1.0
  0
LINE
  5
EA
100
AcDbEntity
  8
0
370
    35
390
0
 62
     7
 48
0.125
100
AcDbLine
 10
315.796967
 20
635.305847
 30
0.0
 11
315.796967
 21
640.305847
 31
0.0
210
0.0
220
0.0
230
1.0
  0
LINE
  5
EB
100
AcDbEntity
  8
0
370
    35
390
0
 62
     7
 48
0.1
100
AcDbLine
 10
315.796967
 20
640.305847
 30
0.0
 11
311.796967
 21
640.305847
 31
0.0
210
0.0
220
0.0
230
1.0
  0
LINE
  5
EC
100
AcDbEntity
  8
0
370
    35
390
0
 62
     7
100
AcDbLine
 10
311.796967
 20
640.305847
 30
0.0
 11
311.796967
 21
680.305847
 31
0.0
210
0.0
220
0.0
230
1.0
  0
LINE
  5
ED
100
AcDbEntity
  8
0
370
    35
390
0
 62
     7
100
AcDbLine
 10
311.796967
 20
680.305847
 30
0.0
 11
333.796967
 21
680.305847
 31
0.0
210
0.0
220
0.0
230
1.0
  0
LINE
  5
EE
100
AcDbEntity
  8
0
370
    35
390
0
 62
     7
100
AcDbLine
 10
333.796967
 20
680.305847
 30
0.0
 11
333.796967
 21
640.305847
 31
0.0
210
0.0
220
0.0
230
1.0
  0
LINE
  5
EF
100
AcDbEntity
  8
0
370
    35
390
0
 62
     7
 48
0.1
100
AcDbLine
 10
329.796967
 20
640.305847
 30
0.0
 11
333.796967
 21
640.305847
 31
0.0
210
0.0
220
0.0
230
1.0
  0
LINE
  5
F0
100
AcDbEntity
  8
0
370
    35
390
0
 62
     7
 48
0.125
100
AcDbLine
 10
329.796967
 20
635.305847
 30
0.0
 11
329.796967
 21
640.305847
 31
0.0
210
0.0
220
0.0
230
1.0
  0
LINE
  5
F1
100
AcDbEntity
  8
0
370
    35
390
0
 62
     7
 48
0.125
100
AcDbLine
 10
324.796967
 20
635.305847
 30
0.0
 11
329.796967
 21
635.305847
 31
0.0
210
0.0
220
0.0
230
1.0
  0
LINE
  5
F2
100
AcDbEntity
  8
0
370
    35
390
0
 62
     7
 48
0.125
100
AcDbLine
 10
319.796967
 20
672.305847
 30
0.0
 11
314.796967
 21
672.305847
 31
0.0
210
0.0
220
0.0
230
1.0
  0
LINE
  5
F3
100
AcDbEntity
  8
0
370
    35
390
0
 62
     7
 48
0.175
100
AcDbLine
 10
314.796967
 20
665.305847
 30
0.0
 11
314.796967
 21
672.305847
 31
0.0
210
0.0
220
0.0
230
1.0
  0
LINE
  5
F4
100
AcDbEntity
  8
0
370
    35
390
0
 62
     7
 48
0.125
100
AcDbLine
 10
314.796967
 20
665.305847
 30
0.0
 11
319.796967
 21
665.305847
 31
0.0
210
0.0
220
0.0
230
1.0
  0
LINE
  5
F5
100
AcDbEntity
  8
0
370
    35
390
0
 62
     7
 48
0.175
100
AcDbLine
 10
319.796967
 20
672.305847
 30
0.0
 11
319.796967
 21
665.305847
 31
0.0
210
0.0
220
0.0
230
1.0
  0
LINE
  5
F6
100
AcDbEntity
  8
0
370
    35
390
0
 62
     7
 48
0.175
100
AcDbLine
 10
314.796967
 20
648.618774
 30
0.0
 11
314.796967
 21
655.618774
 31
0.0
210
0.0
220
0.0
230
1.0
  0
LINE
  5
F7
100
AcDbEntity
  8
0
370
    35
390
0
 62
     7
 48
0.125
100
AcDbLine
 10
314.796967
 20
648.618774
 30
0.0
 11
319.796967
 21
648.618774
 31
0.0
210
0.0
220
0.0
230
1.0
  0
LINE
  5
F8
100
AcDbEntity
  8
0
370
    35
390
0
 62
     7
 48
0.175
100
AcDbLine
 10
319.796967
 20
655.618774
 30
0.0
 11
319.796967
 21
648.618774
 31
0.0
210
0.0
220
0.0
230
1.0
  0
LINE
  5
F9
100
AcDbEntity
  8
0
370
    35
390
0
 62
     7
 48
0.125
100
AcDbLine
 10
319.796967
 20
655.618774
 30
0.0
 11
314.796967
 21
655.618774
 31
0.0
210
0.0
220
0.0
230
1.0
  0
LINE
  5
FA
100
AcDbEntity
  8
0
370
    35
390
0
 62
     7
 48
0.125
100
AcDbLine
 10
350.246277
 20
635.936035
 30
0.0
 11
350.246277
 21
640.936035
 31
0.0
210
0.0
220
0.0
230
1.0
  0
LINE
  5
FB
100
AcDbEntity
  8
0
370
    35
390
0
 62
     7
 48
0.1
100
AcDbLine
 10
350.246277
 20
640.936035
 30
0.0
 11
346.246277
 21
640.936035
 31
0.0
210
0.0
220
0.0
230
1.0
  0
LINE
  5
FC
100
AcDbEntity
  8
0
370
    35
390
0
 62
     7
 48
0.125
100
AcDbLine
 10
346.246277
 20
635.936035
 30
0.0
 11
346.246277
 21
640.936035
 31
0.0
210
0.0
220
0.0
230
1.0
  0
LINE
  5
FD
100
AcDbEntity
  8
0
370
    35
390
0
 62
     7
 48
0.125
100
AcDbLine
 10
341.246277
 20
635.936035
 30
0.0
 11
346.246277
 21
635.936035
 31
0.0
210
0.0
220
0.0
230
1.0
  0
LINE
  5
FE
100
AcDbEntity
  8
0
370
    35
390
0
 62
     7
 48
0.125
100
AcDbLine
 10
341.246277
 20
635.936035
 30
0.0
 11
341.246277
 21
640.936035
 31
0.0
210
0.0
220
0.0
230
1.0
  0
LINE
  5
FF
100
AcDbEntity
  8
0
370
    35
390
0
 62
     7
 48
0.1
100
AcDbLine
 10
341.246277
 20
640.936035
 30
0.0
 11
337.246277
 21
640.936035
 31
0.0
210
0.0
220
0.0
230
1.0
  0
LINE
  5
100
100
AcDbEntity
  8
0
370
    35
390
0
 62
     7
100
AcDbLine
 10
337.246277
 20
640.936035
 30
0.0
 11
337.246277
 21
680.936035
 31
0.0
210
0.0
220
0.0
230
1.0
  0
LINE
  5
101
100
AcDbEntity
  8
0
370
    35
390
0
 62
     7
100
AcDbLine
 10
337.246277
 20
680.936035
 30
0.0
 11
359.246277
 21
680.936035
 31
0.0
210
0.0
220
0.0
230
1.0
  0
LINE
  5
102
100
AcDbEntity
  8
0
370
    35
390
0
 62
     7
100
AcDbLine
 10
359.246277
 20
680.936035
 30
0.0
 11
359.246277
 21
640.936035
 31
0.0
210
0.0
220
0.0
230
1.0
  0
LINE
  5
103
100
AcDbEntity
  8
0
370
    35
390
0
 62
     7
 48
0.1
100
AcDbLine
 10
355.246277
 20
640.936035
 30
0.0
 11
359.246277
 21
640.936035
 31
0.0
210
0.0
220
0.0
230
1.0
  0
LINE
  5
104
100
AcDbEntity
  8
0
370
    35
390
0
 62
     7
 48
0.125
100
AcDbLine
 10
355.246277
 20
635.936035
 30
0.0
 11
355.246277
 21
640.936035
 31
0.0
210
0.0
220
0.0
230
1.0
  0
LINE
  5
105
100
AcDbEntity
  8
0
370
    35
390
0
 62
     7
 48
0.125
100
AcDbLine
 10
350.246277
 20
635.936035
 30
0.0
 11
355.246277
 21
635.936035
 31
0.0
210
0.0
220
0.0
230
1.0
  0
LINE
  5
106
100
AcDbEntity
  8
0
370
    35
390
0
 62
     7
 48
0.125
100
AcDbLine
 10
345.246277
 20
672.936035
 30
0.0
 11
340.246277
 21
672.936035
 31
0.0
210
0.0
220
0.0
230
1.0
  0
LINE
  5
107
100
AcDbEntity
  8
0
370
    35
390
0
 62
     7
 48
0.175
100
AcDbLine
 10
340.246277
 20
665.936035
 30
0.0
 11
340.246277
 21
672.936035
 31
0.0
210
0.0
220
0.0
230
1.0
  0
LINE
  5
108
100
AcDbEntity
  8
0
370
    35
390
0
 62
     7
 48
0.125
100
AcDbLine
 10
340.246277
 20
665.936035
 30
0.0
 11
345.246277
 21
665.936035
 31
0.0
210
0.0
220
0.0
230
1.0
  0
LINE
  5
109
100
AcDbEntity
  8
0
370
    35
390
0
 62
     7
 48
0.175
100
AcDbLine
 10
345.246277
 20
672.936035
 30
0.0
 11
345.246277
 21
665.936035
 31
0.0
210
0.0
220
0.0
230
1.0
  0
LINE
  5
10A
100
AcDbEntity
  8
0
370
    35
390
0
 62
     7
 48
0.175
100
AcDbLine
 10
340.246277
 20
649.248962
 30
0.0
 11
340.246277
 21
656.248962
 31
0.0
210
0.0
220
0.0
230
1.0
  0
LINE
  5
10B
100
AcDbEntity
  8
0
370
    35
390
0
 62
     7
 48
0.125
100
AcDbLine
 10
340.246277
 20
649.248962
 30
0.0
 11
345.246277
 21
649.248962
 31
0.0
210
0.0
220
0.0
230
1.0
  0
LINE
  5
10C
100
AcDbEntity
  8
0
370
    35
390
0
 62
     7
 48
0.175
100
AcDbLine
 10
345.246277
 20
656.248962
 30
0.0
 11
345.246277
 21
649.248962
 31
0.0
210
0.0
220
0.0
230
1.0
  0
LINE
  5
10D
100
AcDbEntity
  8
0
370
    35
390
0
 62
     7
 48
0.125
100
AcDbLine
 10
345.246277
 20
656.248962
 30
0.0
 11
340.246277
 21
656.248962
 31
0.0
210
0.0
220
0.0
230
1.0
  0
LINE
  5
10E
100
AcDbEntity
  8
0
370
    35
390
0
 62
     7
 48
0.125
100
AcDbLine
 10
377.582825
 20
634.942322
 30
0.0
 11
377.582825
 21
639.942322
 31
0.0
210
0.0
220
0.0
230
1.0
  0
LINE
  5
10F
100
AcDbEntity
  8
0
370
    35
390
0
 62
     7
 48
0.1
100
AcDbLine
 10
377.582825
 20
639.942322
 30
0.0
 11
373.582825
 21
639.942322
 31
0.0
210
0.0
220
0.0
230
1.0
  0
LINE
  5
110
100
AcDbEntity
  8
0
370
    35
390
0
 62
     7
 48
0.125
100
AcDbLine
 10
373.582825
 20
634.942322
 30
0.0
 11
373.582825
 21
639.942322
 31
0.0
210
0.0
220
0.0
230
1.0
  0
LINE
  5
111
100
AcDbEntity
  8
0
370
    35
390
0
 62
     7
 48
0.125
100
AcDbLine
 10
368.582825
 20
634.942322
 30
0.0
 11
373.582825
 21
634.942322
 31
0.0
210
0.0
220
0.0
230
1.0
  0
LINE
  5
112
100
AcDbEntity
  8
0
370
    35
390
0
 62
     7
 48
0.125
100
AcDbLine
 10
368.582825
 20
634.942322
 30
0.0
 11
368.582825
 21
639.942322
 31
0.0
210
0.0
220
0.0
230
1.0
  0
LINE
  5
113
100
AcDbEntity
  8
0
370
    35
390
0
 62
     7
 48
0.1
100
AcDbLine
 10
368.582825
 20
639.942322
 30
0.0
 11
364.582825
 21
639.942322
 31
0.0
210
0.0
220
0.0
230
1.0
  0
LINE
  5
114
100
AcDbEntity
  8
0
370
    35
390
0
 62
     7
100
AcDbLine
 10
364.582825
 20
639.942322
 30
0.0
 11
364.582825
 21
679.942322
 31
0.0
210
0.0
220
0.0
230
1.0
  0
LINE
  5
115
100
AcDbEntity
  8
0
370
    35
390
0
 62
     7
100
AcDbLine
 10
364.582825
 20
679.942322
 30
0.0
 11
386.582825
 21
679.942322
 31
0.0
210
0.0
220
0.0
230
1.0
  0
LINE
  5
116
100
AcDbEntity
  8
0
370
    35
390
0
 62
     7
100
AcDbLine
 10
386.582825
 20
679.942322
 30
0.0
 11
386.582825
 21
639.942322
 31
0.0
210
0.0
220
0.0
230
1.0
  0
LINE
  5
117
100
AcDbEntity
  8
0
370
    35
390
0
 62
     7
 48
0.1
100
AcDbLine
 10
382.582825
 20
639.942322
 30
0.0
 11
386.582825
 21
639.942322
 31
0.0
210
0.0
220
0.0
230
1.0
  0
LINE
  5
118
100
AcDbEntity
  8
0
370
    35
390
0
 62
     7
 48
0.125
100
AcDbLine
 10
382.582825
 20
634.942322
 30
0.0
 11
382.582825
 21
639.942322
 31
0.0
210
0.0
220
0.0
230
1.0
  0
LINE
  5
119
100
AcDbEntity
  8
0
370
    35
390
0
 62
     7
 48
0.125
100
AcDbLine
 10
377.582825
 20
634.942322
 30
0.0
 11
382.582825
 21
634.942322
 31
0.0
210
0.0
220
0.0
230
1.0
  0
LINE
  5
11A
100
AcDbEntity
  8
0
370
    35
390
0
 62
     7
 48
0.125
100
AcDbLine
 10
372.582825
 20
671.942322
 30
0.0
 11
367.582825
 21
671.942322
 31
0.0
210
0.0
220
0.0
230
1.0
  0
LINE
  5
11B
100
AcDbEntity
  8
0
370
    35
390
0
 62
     7
 48
0.175
100
AcDbLine
 10
367.582825
 20
664.942322
 30
0.0
 11
367.582825
 21
671.942322
 31
0.0
210
0.0
220
0.0
230
1.0
  0
LINE
  5
11C
100
AcDbEntity
  8
0
370
    35
390
0
 62
     7
 48
0.125
100
AcDbLine
 10
367.582825
 20
664.942322
 30
0.0
 11
372.582825
 21
664.942322
 31
0.0
210
0.0
220
0.0
230
1.0
  0
LINE
  5
11D
100
AcDbEntity
  8
0
370
    35
390
0
 62
     7
 48
0.175
100
AcDbLine
 10
372.582825
 20
671.942322
 30
0.0
 11
372.582825
 21
664.942322
 31
0.0
210
0.0
220
0.0
230
1.0
  0
LINE
  5
11E
100
AcDbEntity
  8
0
370
    35
390
0
 62
     7
 48
0.175
100
AcDbLine
 10
367.582825
 20
648.255249
 30
0.0
 11
367.582825
 21
655.255249
 31
0.0
210
0.0
220
0.0
230
1.0
  0
LINE
  5
11F
100
AcDbEntity
  8
0
370
    35
390
0
 62
     7
 48
0.125
100
AcDbLine
 10
367.582825
 20
648.255249
 30
0.0
 11
372.582825
 21
648.255249
 31
0.0
210
0.0
220
0.0
230
1.0
  0
LINE
  5
120
100
AcDbEntity
  8
0
370
    35
390
0
 62
     7
 48
0.175
100
AcDbLine
 10
372.582825
 20
655.255249
 30
0.0
 11
372.582825
 21
648.255249
 31
0.0
210
0.0
220
0.0
230
1.0
  0
LINE
  5
121
100
AcDbEntity
  8
0
370
    35
390
0
 62
     7
 48
0.125
100
AcDbLine
 10
372.582825
 20
655.255249
 30
0.0
 11
367.582825
 21
655.255249
 31
0.0
210
0.0
220
0.0
230
1.0
  0
LINE
  5
122
100
AcDbEntity
  8
0
370
    35
390
0
 62
     7
100
AcDbLine
 10
276.560272
 20
570.382568
 30
0.0
 11
298.560272
 21
570.382568
 31
0.0
210
0.0
220
0.0
230
1.0
  0
LINE
  5
123
100
AcDbEntity
  8
0
370
    35
390
0
 62
     7
100
AcDbLine
 10
298.560272
 20
570.382568
 30
0.0
 11
298.560272
 21
630.382568
 31
0.0
210
0.0
220
0.0
230
1.0
  0
LINE
  5
124
100
AcDbEntity
  8
0
370
    35
390
0
 62
     7
100
AcDbLine
 10
298.560272
 20
630.382568
 30
0.0
 11
276.560272
 21
630.382568
 31
0.0
210
0.0
220
0.0
230
1.0
  0
LINE
  5
125
100
AcDbEntity
  8
0
370
    35
390
0
 62
     7
100
AcDbLine
 10
276.560272
 20
630.382568
 30
0.0
 11
276.560272
 21
570.382568
 31
0.0
210
0.0
220
0.0
230
1.0
  0
CIRCLE
  5
126
100
AcDbEntity
  8
0
370
    35
390
0
 62
     7
100
AcDbCircle
 10
283.560272
 20
590.382568
 30
0.0
 40
2.5
210
0.0
220
0.0
230
1.0
  0
CIRCLE
  5
127
100
AcDbEntity
  8
0
370
    35
390
0
 62
     7
100
AcDbCircle
 10
283.560272
 20
610.382568
 30
0.0
 40
2.5
210
0.0
220
0.0
230
1.0
  0
LINE
  5
128
100
AcDbEntity
  8
0
370
    35
390
0
 62
     7
 48
0.125
100
AcDbLine
 10
280.560272
 20
625.476379
 30
0.0
 11
285.560272
 21
625.476379
 31
0.0
210
0.0
220
0.0
230
1.0
  0
LINE
  5
129
100
AcDbEntity
  8
0
370
    35
390
0
 62
     7
 48
0.125
100
AcDbLine
 10
285.560272
 20
620.476379
 30
0.0
 11
285.560272
 21
625.476379
 31
0.0
210
0.0
220
0.0
230
1.0
  0
LINE
  5
12A
100
AcDbEntity
  8
0
370
    35
390
0
 62
     7
 48
0.125
100
AcDbLine
 10
285.560272
 20
620.476379
 30
0.0
 11
280.560272
 21
620.476379
 31
0.0
210
0.0
220
0.0
230
1.0
  0
LINE
  5
12B
100
AcDbEntity
  8
0
370
    35
390
0
 62
     7
 48
0.125
100
AcDbLine
 10
280.560272
 20
625.476379
 30
0.0
 11
280.560272
 21
620.476379
 31
0.0
210
0.0
220
0.0
230
1.0
  0
LINE
  5
12C
100
AcDbEntity
  8
0
370
    35
390
0
 62
     7
 48
0.125
100
AcDbLine
 10
289.560272
 20
625.476379
 30
0.0
 11
289.560272
 21
620.476379
 31
0.0
210
0.0
220
0.0
230
1.0
  0
LINE
  5
12D
100
AcDbEntity
  8
0
370
    35
390
0
 62
     7
 48
0.125
100
AcDbLine
 10
289.560272
 20
625.476379
 30
0.0
 11
294.560272
 21
625.476379
 31
0.0
210
0.0
220
0.0
230
1.0
  0
LINE
  5
12E
100
AcDbEntity
  8
0
370
    35
390
0
 62
     7
 48
0.125
100
AcDbLine
 10
294.560272
 20
620.476379
 30
0.0
 11
294.560272
 21
625.476379
 31
0.0
210
0.0
220
0.0
230
1.0
  0
LINE
  5
12F
100
AcDbEntity
  8
0
370
    35
390
0
 62
     7
 48
0.125
100
AcDbLine
 10
294.560272
 20
620.476379
 30
0.0
 11
289.560272
 21
620.476379
 31
0.0
210
0.0
220
0.0
230
1.0
  0
LINE
  5
130
100
AcDbEntity
  8
0
370
    35
390
0
 62
     7
 48
0.125
100
AcDbLine
 10
280.560272
 20
575.288757
 30
0.0
 11
280.560272
 21
580.288757
 31
0.0
210
0.0
220
0.0
230
1.0
  0
LINE
  5
131
100
AcDbEntity
  8
0
370
    35
390
0
 62
     7
 48
0.125
100
AcDbLine
 10
285.560272
 20
580.288757
 30
0.0
 11
280.560272
 21
580.288757
 31
0.0
210
0.0
220
0.0
230
1.0
  0
LINE
  5
132
100
AcDbEntity
  8
0
370
    35
390
0
 62
     7
 48
0.125
100
AcDbLine
 10
285.560272
 20
580.288757
 30
0.0
 11
285.560272
 21
575.288757
 31
0.0
210
0.0
220
0.0
230
1.0
  0
LINE
  5
133
100
AcDbEntity
  8
0
370
    35
390
0
 62
     7
 48
0.125
100
AcDbLine
 10
280.560272
 20
575.288757
 30
0.0
 11
285.560272
 21
575.288757
 31
0.0
210
0.0
220
0.0
230
1.0
  0
LINE
  5
134
100
AcDbEntity
  8
0
370
    35
390
0
 62
     7
 48
0.125
100
AcDbLine
 10
294.560272
 20
580.288757
 30
0.0
 11
289.560272
 21
580.288757
 31
0.0
210
0.0
220
0.0
230
1.0
  0
LINE
  5
135
100
AcDbEntity
  8
0
370
    35
390
0
 62
     7
 48
0.125
100
AcDbLine
 10
294.560272
 20
580.288757
 30
0.0
 11
294.560272
 21
575.288757
 31
0.0
210
0.0
220
0.0
230
1.0
  0
LINE
  5
136
100
AcDbEntity
  8
0
370
    35
390
0
 62
     7
 48
0.125
100
AcDbLine
 10
289.560272
 20
575.288757
 30
0.0
 11
294.560272
 21
575.288757
 31
0.0
210
0.0
220
0.0
230
1.0
  0
LINE
  5
137
100
AcDbEntity
  8
0
370
    35
390
0
 62
     7
 48
0.125
100
AcDbLine
 10
289.560272
 20
575.288757
 30
0.0
 11
289.560272
 21
580.288757
 31
0.0
210
0.0
220
0.0
230
1.0
  0
LINE
  5
138
100
AcDbEntity
  8
0
370
    35
390
0
 62
     7
100
AcDbLine
 10
304.563782
 20
570.481201
 30
0.0
 11
326.563782
 21
570.481201
 31
0.0
210
0.0
220
0.0
230
1.0
  0
LINE
  5
139
100
AcDbEntity
  8
0
370
    35
390
0
 62
     7
100
AcDbLine
 10
326.563782
 20
570.481201
 30
0.0
 11
326.563782
 21
630.481201
 31
0.0
210
0.0
220
0.0
230
1.0
  0
LINE
  5
13A
100
AcDbEntity
  8
0
370
    35
390
0
 62
     7
100
AcDbLine
 10
326.563782
 20
630.481201
 30
0.0
 11
304.563782
 21
630.481201
 31
0.0
210
0.0
220
0.0
230
1.0
  0
LINE
  5
13B
100
AcDbEntity
  8
0
370
    35
390
0
 62
     7
100
AcDbLine
 10
304.563782
 20
630.481201
 30
0.0
 11
304.563782
 21
570.481201
 31
0.0
210
0.0
220
0.0
230
1.0
  0
CIRCLE
  5
13C
100
AcDbEntity
  8
0
370
    35
390
0
 62
     7
100
AcDbCircle
 10
311.563782
 20
590.481201
 30
0.0
 40
2.5
210
0.0
220
0.0
230
1.0
  0
CIRCLE
  5
13D
100
AcDbEntity
  8
0
370
    35
390
0
 62
     7
100
AcDbCircle
 10
311.563782
 20
610.481201
 30
0.0
 40
2.5
210
0.0
220
0.0
230
1.0
  0
LINE
  5
13E
100
AcDbEntity
  8
0
370
    35
390
0
 62
     7
 48
0.125
100
AcDbLine
 10
308.563782
 20
625.575012
 30
0.0
 11
313.563782
 21
625.575012
 31
0.0
210
0.0
220
0.0
230
1.0
  0
LINE
  5
13F
100
AcDbEntity
  8
0
370
    35
390
0
 62
     7
 48
0.125
100
AcDbLine
 10
313.563782
 20
620.575012
 30
0.0
 11
313.563782
 21
625.575012
 31
0.0
210
0.0
220
0.0
230
1.0
  0
LINE
  5
140
100
AcDbEntity
  8
0
370
    35
390
0
 62
     7
 48
0.125
100
AcDbLine
 10
313.563782
 20
620.575012
 30
0.0
 11
308.563782
 21
620.575012
 31
0.0
210
0.0
220
0.0
230
1.0
  0
LINE
  5
141
100
AcDbEntity
  8
0
370
    35
390
0
 62
     7
 48
0.125
100
AcDbLine
 10
308.563782
 20
625.575012
 30
0.0
 11
308.563782
 21
620.575012
 31
0.0
210
0.0
220
0.0
230
1.0
  0
LINE
  5
142
100
AcDbEntity
  8
0
370
    35
390
0
 62
     7
 48
0.125
100
AcDbLine
 10
317.563782
 20
625.575012
 30
0.0
 11
317.563782
 21
620.575012
 31
0.0
210
0.0
220
0.0
230
1.0
  0
LINE
  5
143
100
AcDbEntity
  8
0
370
    35
390
0
 62
     7
 48
0.125
100
AcDbLine
 10
317.563782
 20
625.575012
 30
0.0
 11
322.563782
 21
625.575012
 31
0.0
210
0.0
220
0.0
230
1.0
  0
LINE
  5
144
100
AcDbEntity
  8
0
370
    35
390
0
 62
     7
 48
0.125
100
AcDbLine
 10
322.563782
 20
620.575012
 30
0.0
 11
322.563782
 21
625.575012
 31
0.0
210
0.0
220
0.0
230
1.0
  0
LINE
  5
145
100
AcDbEntity
  8
0
370
    35
390
0
 62
     7
 48
0.125
100
AcDbLine
 10
322.563782
 20
620.575012
 30
0.0
 11
317.563782
 21
620.575012
 31
0.0
210
0.0
220
0.0
230
1.0
  0
LINE
  5
146
100
AcDbEntity
  8
0
370
    35
390
0
 62
     7
 48
0.125
100
AcDbLine
 10
308.563782
 20
575.38739
 30
0.0
 11
308.563782
 21
580.38739
 31
0.0
210
0.0
220
0.0
230
1.0
  0
LINE
  5
147
100
AcDbEntity
  8
0
370
    35
390
0
 62
     7
 48
0.125
100
AcDbLine
 10
313.563782
 20
580.38739
 30
0.0
 11
308.563782
 21
580.38739
 31
0.0
210
0.0
220
0.0
230
1.0
  0
LINE
  5
148
100
AcDbEntity
  8
0
370
    35
390
0
 62
     7
 48
0.125
100
AcDbLine
 10
313.563782
 20
580.38739
 30
0.0
 11
313.563782
 21
575.38739
 31
0.0
210
0.0
220
0.0
230
1.0
  0
LINE
  5
149
100
AcDbEntity
  8
0
370
    35
390
0
 62
     7
 48
0.125
100
AcDbLine
 10
308.563782
 20
575.38739
 30
0.0
 11
313.563782
 21
575.38739
 31
0.0
210
0.0
220
0.0
230
1.0
  0
LINE
  5
14A
100
AcDbEntity
  8
0
370
    35
390
0
 62
     7
 48
0.125
100
AcDbLine
 10
322.563782
 20
580.38739
 30
0.0
 11
317.563782
 21
580.38739
 31
0.0
210
0.0
220
0.0
230
1.0
  0
LINE
  5
14B
100
AcDbEntity
  8
0
370
    35
390
0
 62
     7
 48
0.125
100
AcDbLine
 10
322.563782
 20
580.38739
 30
0.0
 11
322.563782
 21
575.38739
 31
0.0
210
0.0
220
0.0
230
1.0
  0
LINE
  5
14C
100
AcDbEntity
  8
0
370
    35
390
0
 62
     7
 48
0.125
100
AcDbLine
 10
317.563782
 20
575.38739
 30
0.0
 11
322.563782
 21
575.38739
 31
0.0
210
0.0
220
0.0
230
1.0
  0
LINE
  5
14D
100
AcDbEntity
  8
0
370
    35
390
0
 62
     7
 48
0.125
100
AcDbLine
 10
317.563782
 20
575.38739
 30
0.0
 11
317.563782
 21
580.38739
 31
0.0
210
0.0
220
0.0
230
1.0
  0
ENDSEC
  0
SECTION
  2
OBJECTS
  0
DICTIONARY
  5
19
100
AcDbDictionary
280
     0
281
     1
  3
ACAD_GROUP
350
1A
  3
ACAD_MLINESTYLE
350
1B
  3
ACAD_LAYOUT
350
1E
  3
ACAD_PLOTSETTINGS
350
22
  3
ACAD_PLOTSTYLENAME
350
1F
  3
ACAD_WIPEOUT_VARS
350
23
  0
DICTIONARY
  5
1A
102
{ACAD_REACTORS
330
19
102
}
100
AcDbDictionary
280
     0
281
     1
  0
DICTIONARY
  5
1B
102
{ACAD_REACTORS
330
19
102
}
100
AcDbDictionary
280
     0
281
     1
  3
Standard
350
1C
  0
MLINESTYLE
  5
1C
102
{ACAD_REACTORS
330
1B
102
}
100
AcDbMlineStyle
  2
Standard
 70
     0
  3

 62
     0
 51
90.0
 52
90.0
 71
     2
 49
0.5
 62
   256
  6
ByLayer
 49
-0.5
 62
   256
  6
ByLayer
  0
ACDBDICTIONARYWDFLT
  5
1F
102
{ACAD_REACTORS
330
19
102
}
100
AcDbDictionary
281
     1
  3
Normal
350
1D
100
AcDbDictionaryWithDefault
340
1D
  0
ACDBPLACEHOLDER
  5
1D
102
{ACAD_REACTORS
330
1F
102
}
  0
LAYOUT
  5
20
102
{ACAD_REACTORS
330
1E
102
}
100
AcDbPlotSettings
  1

  2

  4

  6

 40
0.0
 41
0.0
 42
0.0
 43
0.0
 44
0.0
 45
0.0
 46
0.0
 47
0.0
 48
0.0
 49
0.0
140
0.0
141
0.0
142
1.0
143
1.0
 70
  1024
 72
     0
 73
     0
 74
     0
  7

 75
     0
147
1.0
148
0.0
149
0.0
100
AcDbLayout
  1
Model
 70
     0
 71
     0
 10
0.0
 20
0.0
 11
0.0
 21
0.0
 12
0.0
 22
0.0
 32
0.0
 14
0.0
 24
0.0
 34
0.0
 15
0.0
 25
0.0
 35
0.0
146
0.0
 13
0.0
 23
0.0
 33
0.0
 16
0.0
 26
0.0
 36
0.0
 17
0.0
 27
0.0
 37
0.0
 76
     0
330
A
331
0
345
0
346
0
  0
LAYOUT
  5
21
102
{ACAD_REACTORS
330
1E
102
}
100
AcDbPlotSettings
  1

  2

  4

  6

 40
0.0
 41
0.0
 42
0.0
 43
0.0
 44
0.0
 45
0.0
 46
0.0
 47
0.0
 48
0.0
 49
0.0
140
0.0
141
0.0
142
1.0
143
1.0
 70
     0
 72
     0
 73
     0
 74
     0
  7

 75
     0
147
1.0
148
0.0
149
0.0
100
AcDbLayout
  1
Layout1
 70
     0
 71
     0
 10
0.0
 20
0.0
 11
0.0
 21
0.0
 12
0.0
 22
0.0
 32
0.0
 14
0.0
 24
0.0
 34
0.0
 15
0.0
 25
0.0
 35
0.0
146
0.0
 13
0.0
 23
0.0
 33
0.0
 16
0.0
 26
0.0
 36
0.0
 17
0.0
 27
0.0
 37
0.0
 76
     0
330
B
331
0
345
0
346
0
  0
DICTIONARY
  5
1E
102
{ACAD_REACTORS
330
19
102
}
100
AcDbDictionary
280
     0
281
     1
  3
Layout1
350
21
  3
Model
350
20
  0
DICTIONARY
  5
22
102
{ACAD_REACTORS
330
19
102
}
100
AcDbDictionary
280
     0
281
     1
  0
WIPEOUTVARIABLES
  5
23
100
AcDbWipeoutVariables
 70
     1
  0
ENDSEC
  0
EOF
