solid CATIA STL
  facet normal  3.362220e-001 -7.867675e-001  5.176404e-001
    outer loop
      vertex -3.751254e+001 -5.467347e+001  4.250000e+001
      vertex -4.211030e+001 -5.663831e+001  4.250000e+001
      vertex -3.097450e+001 -6.997263e+001  1.500000e+001
    endloop
  endfacet
  facet normal  3.362222e-001 -7.867675e-001  5.176405e-001
    outer loop
      vertex -3.097450e+001 -6.997263e+001  1.500000e+001
      vertex -4.211030e+001 -5.663831e+001  4.250000e+001
      vertex -3.557226e+001 -7.193746e+001  1.500000e+001
    endloop
  endfacet
  facet normal -9.195523e-001 -3.929676e-001  0.000000e+000
    outer loop
      vertex -5.329908e+001 -3.045630e+001  4.250000e+001
      vertex -5.329908e+001 -3.045630e+001  1.250000e+001
      vertex -4.736128e+001 -4.435089e+001  1.250000e+001
    endloop
  endfacet
  facet normal -9.195523e-001 -3.929676e-001  0.000000e+000
    outer loop
      vertex -5.329908e+001 -3.045630e+001  4.250000e+001
      vertex -4.736128e+001 -4.435089e+001  1.250000e+001
      vertex -4.736128e+001 -4.435089e+001  1.500000e+001
    endloop
  endfacet
  facet normal -9.195526e-001 -3.929670e-001 -3.665862e-007
    outer loop
      vertex -5.329908e+001 -3.045630e+001  4.250000e+001
      vertex -4.736128e+001 -4.435089e+001  1.500000e+001
      vertex -4.520515e+001 -4.939629e+001  1.500000e+001
    endloop
  endfacet
  facet normal -9.195522e-001 -3.929678e-001  3.329189e-007
    outer loop
      vertex -5.329908e+001 -3.045630e+001  4.250000e+001
      vertex -4.520515e+001 -4.939629e+001  1.500000e+001
      vertex -4.324031e+001 -5.399405e+001  1.500000e+001
    endloop
  endfacet
  facet normal -9.195524e-001 -3.929672e-001 -2.766213e-007
    outer loop
      vertex -5.329908e+001 -3.045630e+001  4.250000e+001
      vertex -4.324031e+001 -5.399405e+001  1.500000e+001
      vertex -3.969323e+001 -6.229430e+001  1.500000e+001
    endloop
  endfacet
  facet normal -9.195525e-001 -3.929672e-001 -3.329190e-007
    outer loop
      vertex -5.329908e+001 -3.045630e+001  4.250000e+001
      vertex -3.969323e+001 -6.229430e+001  1.500000e+001
      vertex -3.772839e+001 -6.689206e+001  1.500000e+001
    endloop
  endfacet
  facet normal -9.195523e-001 -3.929676e-001  2.528180e-007
    outer loop
      vertex -5.329908e+001 -3.045630e+001  4.250000e+001
      vertex -3.772839e+001 -6.689206e+001  1.500000e+001
      vertex -3.557226e+001 -7.193746e+001  1.500000e+001
    endloop
  endfacet
  facet normal -9.195524e-001 -3.929674e-001 -3.897543e-008
    outer loop
      vertex -5.329908e+001 -3.045630e+001  4.250000e+001
      vertex -3.557226e+001 -7.193746e+001  1.500000e+001
      vertex -4.211030e+001 -5.663831e+001  4.250000e+001
    endloop
  endfacet
  facet normal -9.195525e-001 -3.929672e-001  -0.000000e+000
    outer loop
      vertex -3.772839e+001 -6.689206e+001  1.000000e+001
      vertex -3.772839e+001 -6.689206e+001  1.500000e+001
      vertex -3.969323e+001 -6.229430e+001  1.000000e+001
    endloop
  endfacet
  facet normal -9.195525e-001 -3.929672e-001  0.000000e+000
    outer loop
      vertex -3.969323e+001 -6.229430e+001  1.000000e+001
      vertex -3.772839e+001 -6.689206e+001  1.500000e+001
      vertex -3.969323e+001 -6.229430e+001  1.500000e+001
    endloop
  endfacet
  facet normal -9.195521e-001 -3.929678e-001  -0.000000e+000
    outer loop
      vertex -4.324031e+001 -5.399405e+001  1.000000e+001
      vertex -4.324031e+001 -5.399405e+001  1.500000e+001
      vertex -4.520515e+001 -4.939629e+001  1.000000e+001
    endloop
  endfacet
  facet normal -9.195521e-001 -3.929678e-001  0.000000e+000
    outer loop
      vertex -4.520515e+001 -4.939629e+001  1.000000e+001
      vertex -4.324031e+001 -5.399405e+001  1.500000e+001
      vertex -4.520515e+001 -4.939629e+001  1.500000e+001
    endloop
  endfacet
  facet normal  -0.000000e+000  0.000000e+000  1.000000e+000
    outer loop
      vertex -6.638485e+001  1.288840e+001  4.250000e+001
      vertex -7.098261e+001  1.092356e+001  4.250000e+001
      vertex -6.209471e+001 -3.421473e+001  4.250000e+001
    endloop
  endfacet
  facet normal  0.000000e+000  -0.000000e+000  1.000000e+000
    outer loop
      vertex -6.638485e+001  1.288840e+001  4.250000e+001
      vertex -6.209471e+001 -3.421473e+001  4.250000e+001
      vertex -5.329908e+001 -3.045630e+001  4.250000e+001
    endloop
  endfacet
  facet normal  0.000000e+000  -0.000000e+000  1.000000e+000
    outer loop
      vertex -6.638485e+001  1.288840e+001  4.250000e+001
      vertex -5.329908e+001 -3.045630e+001  4.250000e+001
      vertex -4.870132e+001 -2.849146e+001  4.250000e+001
    endloop
  endfacet
  facet normal  0.000000e+000  -0.000000e+000  1.000000e+000
    outer loop
      vertex -6.638485e+001  1.288840e+001  4.250000e+001
      vertex -4.870132e+001 -2.849146e+001  4.250000e+001
      vertex -3.990576e+001 -2.473271e+001  4.250000e+001
    endloop
  endfacet
  facet normal  0.000000e+000  0.000000e+000  1.000000e+000
    outer loop
      vertex -4.211030e+001 -5.663831e+001  4.250000e+001
      vertex -3.751254e+001 -5.467347e+001  4.250000e+001
      vertex -5.329908e+001 -3.045630e+001  4.250000e+001
    endloop
  endfacet
  facet normal  -0.000000e+000  0.000000e+000  1.000000e+000
    outer loop
      vertex -5.329908e+001 -3.045630e+001  4.250000e+001
      vertex -3.751254e+001 -5.467347e+001  4.250000e+001
      vertex -4.870132e+001 -2.849146e+001  4.250000e+001
    endloop
  endfacet
  facet normal  9.195524e-001  3.929673e-001  0.000000e+000
    outer loop
      vertex -4.870132e+001 -2.849146e+001  4.250000e+001
      vertex -3.751254e+001 -5.467347e+001  4.250000e+001
      vertex -3.097450e+001 -6.997263e+001  1.500000e+001
    endloop
  endfacet
  facet normal  9.195525e-001  3.929673e-001  2.022545e-007
    outer loop
      vertex -4.870132e+001 -2.849146e+001  4.250000e+001
      vertex -3.097450e+001 -6.997263e+001  1.500000e+001
      vertex -3.313063e+001 -6.492722e+001  1.500000e+001
    endloop
  endfacet
  facet normal  9.195525e-001  3.929672e-001  3.329190e-007
    outer loop
      vertex -4.870132e+001 -2.849146e+001  4.250000e+001
      vertex -3.313063e+001 -6.492722e+001  1.500000e+001
      vertex -3.509547e+001 -6.032946e+001  1.500000e+001
    endloop
  endfacet
  facet normal  9.195523e-001  3.929676e-001 -2.458855e-007
    outer loop
      vertex -4.870132e+001 -2.849146e+001  4.250000e+001
      vertex -3.509547e+001 -6.032946e+001  1.500000e+001
      vertex -3.864255e+001 -5.202922e+001  1.500000e+001
    endloop
  endfacet
  facet normal  9.195525e-001  3.929672e-001  1.664595e-007
    outer loop
      vertex -4.870132e+001 -2.849146e+001  4.250000e+001
      vertex -3.864255e+001 -5.202922e+001  1.500000e+001
      vertex -4.060738e+001 -4.743145e+001  1.500000e+001
    endloop
  endfacet
  facet normal  9.195523e-001  3.929676e-001 -1.516908e-007
    outer loop
      vertex -4.870132e+001 -2.849146e+001  4.250000e+001
      vertex -4.060738e+001 -4.743145e+001  1.500000e+001
      vertex -4.276352e+001 -4.238605e+001  1.500000e+001
    endloop
  endfacet
  facet normal  9.195524e-001  3.929673e-001  0.000000e+000
    outer loop
      vertex -4.870132e+001 -2.849146e+001  4.250000e+001
      vertex -4.276352e+001 -4.238605e+001  1.500000e+001
      vertex -4.276352e+001 -4.238605e+001  1.250000e+001
    endloop
  endfacet
  facet normal  9.195524e-001  3.929673e-001  0.000000e+000
    outer loop
      vertex -4.870132e+001 -2.849146e+001  4.250000e+001
      vertex -4.276352e+001 -4.238605e+001  1.250000e+001
      vertex -4.870132e+001 -2.849146e+001  1.250000e+001
    endloop
  endfacet
  facet normal  9.195525e-001  3.929672e-001  0.000000e+000
    outer loop
      vertex -3.313063e+001 -6.492722e+001  1.000000e+001
      vertex -3.509547e+001 -6.032946e+001  1.000000e+001
      vertex -3.313063e+001 -6.492722e+001  1.500000e+001
    endloop
  endfacet
  facet normal  9.195525e-001  3.929672e-001  0.000000e+000
    outer loop
      vertex -3.313063e+001 -6.492722e+001  1.500000e+001
      vertex -3.509547e+001 -6.032946e+001  1.000000e+001
      vertex -3.509547e+001 -6.032946e+001  1.500000e+001
    endloop
  endfacet
  facet normal  9.195525e-001  3.929672e-001  0.000000e+000
    outer loop
      vertex -3.864255e+001 -5.202922e+001  1.000000e+001
      vertex -4.060738e+001 -4.743145e+001  1.000000e+001
      vertex -3.864255e+001 -5.202922e+001  1.500000e+001
    endloop
  endfacet
  facet normal  9.195525e-001  3.929672e-001  0.000000e+000
    outer loop
      vertex -3.864255e+001 -5.202922e+001  1.500000e+001
      vertex -4.060738e+001 -4.743145e+001  1.000000e+001
      vertex -4.060738e+001 -4.743145e+001  1.500000e+001
    endloop
  endfacet
  facet normal  0.000000e+000  0.000000e+000 -1.000000e+000
    outer loop
      vertex -3.557226e+001 -7.193746e+001  1.500000e+001
      vertex -3.772839e+001 -6.689206e+001  1.500000e+001
      vertex -3.097450e+001 -6.997263e+001  1.500000e+001
    endloop
  endfacet
  facet normal  0.000000e+000  0.000000e+000 -1.000000e+000
    outer loop
      vertex -3.097450e+001 -6.997263e+001  1.500000e+001
      vertex -3.772839e+001 -6.689206e+001  1.500000e+001
      vertex -3.313063e+001 -6.492722e+001  1.500000e+001
    endloop
  endfacet
  facet normal  1.931944e-001 -9.811605e-001  0.000000e+000
    outer loop
      vertex -6.209471e+001 -3.421473e+001  4.250000e+001
      vertex -7.488513e+001 -3.673322e+001  2.007960e+001
      vertex -6.209471e+001 -3.421473e+001  1.250000e+001
    endloop
  endfacet
  facet normal -8.482054e-001 -1.670149e-001  5.026465e-001
    outer loop
      vertex -7.098261e+001  1.092356e+001  4.250000e+001
      vertex -8.377304e+001  8.405075e+000  2.007960e+001
      vertex -6.209471e+001 -3.421473e+001  4.250000e+001
    endloop
  endfacet
  facet normal -8.482055e-001 -1.670150e-001  5.026464e-001
    outer loop
      vertex -6.209471e+001 -3.421473e+001  4.250000e+001
      vertex -8.377304e+001  8.405075e+000  2.007960e+001
      vertex -7.488513e+001 -3.673322e+001  2.007960e+001
    endloop
  endfacet
  facet normal -1.931943e-001  9.811605e-001  0.000000e+000
    outer loop
      vertex -7.098261e+001  1.092356e+001  1.250000e+001
      vertex -8.377304e+001  8.405075e+000  2.007960e+001
      vertex -7.098261e+001  1.092356e+001  4.250000e+001
    endloop
  endfacet
  facet normal -4.931767e-001 -9.710841e-002 -8.644921e-001
    outer loop
      vertex -7.098261e+001  1.092356e+001  1.250000e+001
      vertex -6.209471e+001 -3.421473e+001  1.250000e+001
      vertex -8.377304e+001  8.405075e+000  2.007960e+001
    endloop
  endfacet
  facet normal -4.931769e-001 -9.710848e-002 -8.644921e-001
    outer loop
      vertex -8.377304e+001  8.405075e+000  2.007960e+001
      vertex -6.209471e+001 -3.421473e+001  1.250000e+001
      vertex -7.488513e+001 -3.673322e+001  2.007960e+001
    endloop
  endfacet
  facet normal  -0.000000e+000  0.000000e+000 -1.000000e+000
    outer loop
      vertex -6.638485e+001  1.288840e+001  1.250000e+001
      vertex -3.990576e+001 -2.473271e+001  1.250000e+001
      vertex -4.870132e+001 -2.849146e+001  1.250000e+001
    endloop
  endfacet
  facet normal  -0.000000e+000  0.000000e+000 -1.000000e+000
    outer loop
      vertex -6.638485e+001  1.288840e+001  1.250000e+001
      vertex -4.870132e+001 -2.849146e+001  1.250000e+001
      vertex -5.329908e+001 -3.045630e+001  1.250000e+001
    endloop
  endfacet
  facet normal  -0.000000e+000  0.000000e+000 -1.000000e+000
    outer loop
      vertex -6.638485e+001  1.288840e+001  1.250000e+001
      vertex -5.329908e+001 -3.045630e+001  1.250000e+001
      vertex -6.209471e+001 -3.421473e+001  1.250000e+001
    endloop
  endfacet
  facet normal  0.000000e+000  0.000000e+000 -1.000000e+000
    outer loop
      vertex -6.638485e+001  1.288840e+001  1.250000e+001
      vertex -6.209471e+001 -3.421473e+001  1.250000e+001
      vertex -7.098261e+001  1.092356e+001  1.250000e+001
    endloop
  endfacet
  facet normal  0.000000e+000  0.000000e+000 -1.000000e+000
    outer loop
      vertex -4.736128e+001 -4.435089e+001  1.250000e+001
      vertex -5.329908e+001 -3.045630e+001  1.250000e+001
      vertex -4.276352e+001 -4.238605e+001  1.250000e+001
    endloop
  endfacet
  facet normal  0.000000e+000  0.000000e+000 -1.000000e+000
    outer loop
      vertex -4.276352e+001 -4.238605e+001  1.250000e+001
      vertex -5.329908e+001 -3.045630e+001  1.250000e+001
      vertex -4.870132e+001 -2.849146e+001  1.250000e+001
    endloop
  endfacet
  facet normal -3.929673e-001  9.195524e-001  0.000000e+000
    outer loop
      vertex -7.098261e+001  1.092356e+001  4.250000e+001
      vertex -6.638485e+001  1.288840e+001  4.250000e+001
      vertex -7.098261e+001  1.092356e+001  1.250000e+001
    endloop
  endfacet
  facet normal -3.929673e-001  9.195524e-001  0.000000e+000
    outer loop
      vertex -7.098261e+001  1.092356e+001  1.250000e+001
      vertex -6.638485e+001  1.288840e+001  4.250000e+001
      vertex -6.638485e+001  1.288840e+001  1.250000e+001
    endloop
  endfacet
  facet normal  3.929367e-001 -9.195656e-001  0.000000e+000
    outer loop
      vertex -5.329908e+001 -3.045630e+001  4.250000e+001
      vertex -6.209471e+001 -3.421473e+001  4.250000e+001
      vertex -5.329908e+001 -3.045630e+001  1.250000e+001
    endloop
  endfacet
  facet normal  3.929367e-001 -9.195656e-001  0.000000e+000
    outer loop
      vertex -5.329908e+001 -3.045630e+001  1.250000e+001
      vertex -6.209471e+001 -3.421473e+001  4.250000e+001
      vertex -6.209471e+001 -3.421473e+001  1.250000e+001
    endloop
  endfacet
  facet normal  8.177555e-001  5.755657e-001  0.000000e+000
    outer loop
      vertex -3.990576e+001 -2.473271e+001  1.250000e+001
      vertex -6.638485e+001  1.288840e+001  1.250000e+001
      vertex -3.990576e+001 -2.473271e+001  4.250000e+001
    endloop
  endfacet
  facet normal  8.177555e-001  5.755657e-001  0.000000e+000
    outer loop
      vertex -3.990576e+001 -2.473271e+001  4.250000e+001
      vertex -6.638485e+001  1.288840e+001  1.250000e+001
      vertex -6.638485e+001  1.288840e+001  4.250000e+001
    endloop
  endfacet
  facet normal  3.929674e-001 -9.195523e-001  0.000000e+000
    outer loop
      vertex -3.990576e+001 -2.473271e+001  4.250000e+001
      vertex -4.870132e+001 -2.849146e+001  4.250000e+001
      vertex -3.990576e+001 -2.473271e+001  1.250000e+001
    endloop
  endfacet
  facet normal  3.929674e-001 -9.195523e-001  0.000000e+000
    outer loop
      vertex -3.990576e+001 -2.473271e+001  1.250000e+001
      vertex -4.870132e+001 -2.849146e+001  4.250000e+001
      vertex -4.870132e+001 -2.849146e+001  1.250000e+001
    endloop
  endfacet
  facet normal  3.929672e-001 -9.195525e-001  0.000000e+000
    outer loop
      vertex -3.313063e+001 -6.492722e+001  1.000000e+001
      vertex -3.313063e+001 -6.492722e+001  1.500000e+001
      vertex -3.772839e+001 -6.689206e+001  1.000000e+001
    endloop
  endfacet
  facet normal  3.929672e-001 -9.195525e-001  0.000000e+000
    outer loop
      vertex -3.772839e+001 -6.689206e+001  1.000000e+001
      vertex -3.313063e+001 -6.492722e+001  1.500000e+001
      vertex -3.772839e+001 -6.689206e+001  1.500000e+001
    endloop
  endfacet
  facet normal  3.929675e-001 -9.195524e-001  0.000000e+000
    outer loop
      vertex -4.276352e+001 -4.238605e+001  1.250000e+001
      vertex -4.276352e+001 -4.238605e+001  1.500000e+001
      vertex -4.736128e+001 -4.435089e+001  1.250000e+001
    endloop
  endfacet
  facet normal  3.929675e-001 -9.195524e-001  0.000000e+000
    outer loop
      vertex -4.736128e+001 -4.435089e+001  1.250000e+001
      vertex -4.276352e+001 -4.238605e+001  1.500000e+001
      vertex -4.736128e+001 -4.435089e+001  1.500000e+001
    endloop
  endfacet
  facet normal  0.000000e+000  0.000000e+000 -1.000000e+000
    outer loop
      vertex -4.520515e+001 -4.939629e+001  1.500000e+001
      vertex -4.736128e+001 -4.435089e+001  1.500000e+001
      vertex -4.060738e+001 -4.743145e+001  1.500000e+001
    endloop
  endfacet
  facet normal  0.000000e+000  0.000000e+000 -1.000000e+000
    outer loop
      vertex -4.060738e+001 -4.743145e+001  1.500000e+001
      vertex -4.736128e+001 -4.435089e+001  1.500000e+001
      vertex -4.276352e+001 -4.238605e+001  1.500000e+001
    endloop
  endfacet
  facet normal -3.929672e-001  9.195525e-001  0.000000e+000
    outer loop
      vertex -4.060738e+001 -4.743145e+001  1.000000e+001
      vertex -4.520515e+001 -4.939629e+001  1.000000e+001
      vertex -4.060738e+001 -4.743145e+001  1.500000e+001
    endloop
  endfacet
  facet normal -3.929672e-001  9.195525e-001  0.000000e+000
    outer loop
      vertex -4.060738e+001 -4.743145e+001  1.500000e+001
      vertex -4.520515e+001 -4.939629e+001  1.000000e+001
      vertex -4.520515e+001 -4.939629e+001  1.500000e+001
    endloop
  endfacet
  facet normal  0.000000e+000  0.000000e+000 -1.000000e+000
    outer loop
      vertex -4.520515e+001 -4.939629e+001  1.000000e+001
      vertex -4.060738e+001 -4.743145e+001  1.000000e+001
      vertex -4.324031e+001 -5.399405e+001  1.000000e+001
    endloop
  endfacet
  facet normal  0.000000e+000  0.000000e+000 -1.000000e+000
    outer loop
      vertex -4.324031e+001 -5.399405e+001  1.000000e+001
      vertex -4.060738e+001 -4.743145e+001  1.000000e+001
      vertex -3.864255e+001 -5.202922e+001  1.000000e+001
    endloop
  endfacet
  facet normal  3.929675e-001 -9.195524e-001  0.000000e+000
    outer loop
      vertex -3.864255e+001 -5.202922e+001  1.000000e+001
      vertex -3.864255e+001 -5.202922e+001  1.500000e+001
      vertex -4.324031e+001 -5.399405e+001  1.000000e+001
    endloop
  endfacet
  facet normal  3.929675e-001 -9.195524e-001  0.000000e+000
    outer loop
      vertex -4.324031e+001 -5.399405e+001  1.000000e+001
      vertex -3.864255e+001 -5.202922e+001  1.500000e+001
      vertex -4.324031e+001 -5.399405e+001  1.500000e+001
    endloop
  endfacet
  facet normal  0.000000e+000  0.000000e+000 -1.000000e+000
    outer loop
      vertex -3.969323e+001 -6.229430e+001  1.500000e+001
      vertex -4.324031e+001 -5.399405e+001  1.500000e+001
      vertex -3.509547e+001 -6.032946e+001  1.500000e+001
    endloop
  endfacet
  facet normal  0.000000e+000  0.000000e+000 -1.000000e+000
    outer loop
      vertex -3.509547e+001 -6.032946e+001  1.500000e+001
      vertex -4.324031e+001 -5.399405e+001  1.500000e+001
      vertex -3.864255e+001 -5.202922e+001  1.500000e+001
    endloop
  endfacet
  facet normal -3.929672e-001  9.195525e-001  0.000000e+000
    outer loop
      vertex -3.509547e+001 -6.032946e+001  1.000000e+001
      vertex -3.969323e+001 -6.229430e+001  1.000000e+001
      vertex -3.509547e+001 -6.032946e+001  1.500000e+001
    endloop
  endfacet
  facet normal -3.929672e-001  9.195525e-001  0.000000e+000
    outer loop
      vertex -3.509547e+001 -6.032946e+001  1.500000e+001
      vertex -3.969323e+001 -6.229430e+001  1.000000e+001
      vertex -3.969323e+001 -6.229430e+001  1.500000e+001
    endloop
  endfacet
  facet normal  0.000000e+000  0.000000e+000 -1.000000e+000
    outer loop
      vertex -3.969323e+001 -6.229430e+001  1.000000e+001
      vertex -3.509547e+001 -6.032946e+001  1.000000e+001
      vertex -3.772839e+001 -6.689206e+001  1.000000e+001
    endloop
  endfacet
  facet normal  0.000000e+000  0.000000e+000 -1.000000e+000
    outer loop
      vertex -3.772839e+001 -6.689206e+001  1.000000e+001
      vertex -3.509547e+001 -6.032946e+001  1.000000e+001
      vertex -3.313063e+001 -6.492722e+001  1.000000e+001
    endloop
  endfacet
endsolid CATIA STL
