  0
SECTION
  2
HEADER
  9
$ACADVER
  1
AC1015
  9
$ACADMAINTVER
 70
     6
  9
$DWGCODEPAGE
  3
ANSI_1252
  9
$INSBASE
 10
0.0
 20
0.0
 30
0.0
  9
$EXTMIN
 10
0.0
 20
0.0
 30
0.0
  9
$EXTMAX
 10
594.143127
 20
835.597412
 30
2.0
  9
$LIMMIN
 10
0.0
 20
0.0
  9
$LIMMAX
 10
420.0
 20
297.0
  9
$ORTHOMODE
 70
     0
  9
$REGENMODE
 70
     1
  9
$FILLMODE
 70
     1
  9
$QTEXTMODE
 70
     0
  9
$MIRRTEXT
 70
     1
  9
$LTSCALE
 40
1.0
  9
$ATTMODE
 70
     1
  9
$TEXTSIZE
 40
2.5
  9
$TRACEWID
 40
1.0
  9
$TEXTSTYLE
  7
Standard
  9
$CLAYER
  8
0
  9
$CELTYPE
  6
ByLayer
  9
$CECOLOR
 62
   256
  9
$CELTSCALE
 40
1.0
  9
$DISPSILH
 70
     0
  9
$DIMSCALE
 40
1.0
  9
$DIMASZ
 40
2.5
  9
$DIMEXO
 40
0.625
  9
$DIMDLI
 40
3.75
  9
$DIMRND
 40
0.0
  9
$DIMDLE
 40
0.0
  9
$DIMEXE
 40
1.25
  9
$DIMTP
 40
0.0
  9
$DIMTM
 40
0.0
  9
$DIMTXT
 40
2.5
  9
$DIMCEN
 40
2.5
  9
$DIMTSZ
 40
0.0
  9
$DIMTOL
 70
     0
  9
$DIMLIM
 70
     0
  9
$DIMTIH
 70
     0
  9
$DIMTOH
 70
     0
  9
$DIMSE1
 70
     0
  9
$DIMSE2
 70
     0
  9
$DIMTAD
 70
     1
  9
$DIMZIN
 70
     8
  9
$DIMBLK
  1

  9
$DIMASO
 70
     1
  9
$DIMSHO
 70
     1
  9
$DIMPOST
  1

  9
$DIMAPOST
  1

  9
$DIMALT
 70
     0
  9
$DIMALTD
 70
     3
  9
$DIMALTF
 40
0.03937
  9
$DIMLFAC
 40
1.0
  9
$DIMTOFL
 70
     1
  9
$DIMTVP
 40
0.0
  9
$DIMTIX
 70
     0
  9
$DIMSOXD
 70
     0
  9
$DIMSAH
 70
     0
  9
$DIMBLK1
  1

  9
$DIMBLK2
  1

  9
$DIMSTYLE
  2

  9
$DIMCLRD
 70
     0
  9
$DIMCLRE
 70
     0
  9
$DIMCLRT
 70
     0
  9
$DIMTFAC
 40
1.0
  9
$DIMGAP
 40
0.625
  9
$DIMJUST
 70
     0
  9
$DIMSD1
 70
     0
  9
$DIMSD2
 70
     0
  9
$DIMTOLJ
 70
     0
  9
$DIMTZIN
 70
     8
  9
$DIMALTZ
 70
     0
  9
$DIMALTTZ
 70
     0
  9
$DIMUPT
 70
     0
  9
$DIMDEC
 70
     2
  9
$DIMTDEC
 70
     2
  9
$DIMALTU
 70
     2
  9
$DIMALTTD
 70
     3
  9
$DIMTXSTY
  7
Standard
  9
$DIMAUNIT
 70
     0
  9
$DIMADEC
 70
     0
  9
$DIMALTRND
 40
0.0
  9
$DIMAZIN
 70
     0
  9
$DIMDSEP
 70
    44
  9
$DIMATFIT
 70
     0
  9
$DIMFRAC
 70
     0
  9
$DIMLDRBLK
  1

  9
$DIMLUNIT
 70
     2
  9
$DIMLWD
 70
    -2
  9
$DIMLWE
 70
    -2
  9
$DIMTMOVE
 70
     0
  9
$LUNITS
 70
     2
  9
$LUPREC
 70
     4
  9
$SKETCHINC
 40
1.0
  9
$FILLETRAD
 40
2.5
  9
$AUNITS
 70
     0
  9
$AUPREC
 70
     0
  9
$MENU
  1
.
  9
$ELEVATION
 40
0.0
  9
$PELEVATION
 40
0.0
  9
$THICKNESS
 40
0.0
  9
$LIMCHECK
 70
     0
  9
$CHAMFERA
 40
2.5
  9
$CHAMFERB
 40
2.5
  9
$CHAMFERC
 40
0.0
  9
$CHAMFERD
 40
0.0
  9
$SKPOLY
 70
     0
  9
$TDCREATE
 40
0.000000000
  9
$TDUCREATE
 40
0.000000000
  9
$TDUPDATE
 40
0.000000000
  9
$TDUUPDATE
 40
0.000000000
  9
$TDINDWG
 40
0.0000000000
  9
$TDUSRTIMER
 40
0.0000000000
  9
$USRTIMER
 70
     1
  9
$ANGBASE
 50
0.0
  9
$ANGDIR
 70
     0
  9
$PDMODE
 70
     0
  9
$PDSIZE
 40
0.0
  9
$PLINEWID
 40
0.0
  9
$SPLFRAME
 70
     0
  9
$SPLINETYPE
 70
     6
  9
$SPLINESEGS
 70
     8
  9
$HANDSEED
  5
1CA
  9
$SURFTAB1
 70
     6
  9
$SURFTAB2
 70
     6
  9
$SURFTYPE
 70
     6
  9
$SURFU
 70
     6
  9
$SURFV
 70
     6
  9
$UCSBASE
  2

  9
$UCSNAME
  2

  9
$UCSORG
 10
0.0
 20
0.0
 30
0.0
  9
$UCSXDIR
 10
1.0
 20
0.0
 30
0.0
  9
$UCSYDIR
 10
0.0
 20
1.0
 30
0.0
  9
$UCSORTHOREF
  2

  9
$UCSORTHOVIEW
 70
     1
  9
$UCSORGTOP
 10
0.0
 20
0.0
 30
0.0
  9
$UCSORGBOTTOM
 10
0.0
 20
0.0
 30
0.0
  9
$UCSORGLEFT
 10
0.0
 20
0.0
 30
0.0
  9
$UCSORGRIGHT
 10
0.0
 20
0.0
 30
0.0
  9
$UCSORGFRONT
 10
0.0
 20
0.0
 30
0.0
  9
$UCSORGBACK
 10
0.0
 20
0.0
 30
0.0
  9
$PUCSBASE
  2

  9
$PUCSNAME
  2

  9
$PUCSORG
 10
0.0
 20
0.0
 30
0.0
  9
$PUCSXDIR
 10
1.0
 20
0.0
 30
0.0
  9
$PUCSYDIR
 10
0.0
 20
1.0
 30
0.0
  9
$PUCSORTHOREF
  2

  9
$PUCSORTHOVIEW
 70
     0
  9
$PUCSORGTOP
 10
0.0
 20
0.0
 30
0.0
  9
$PUCSORGBOTTOM
 10
0.0
 20
0.0
 30
0.0
  9
$PUCSORGLEFT
 10
0.0
 20
0.0
 30
0.0
  9
$PUCSORGRIGHT
 10
0.0
 20
0.0
 30
0.0
  9
$PUCSORGFRONT
 10
0.0
 20
0.0
 30
0.0
  9
$PUCSORGBACK
 10
0.0
 20
0.0
 30
0.0
  9
$USERI1
 70
     0
  9
$USERI2
 70
     0
  9
$USERI3
 70
     0
  9
$USERI4
 70
     0
  9
$USERI5
 70
     0
  9
$USERR1
 40
0.0
  9
$USERR2
 40
0.0
  9
$USERR3
 40
0.0
  9
$USERR4
 40
0.0
  9
$USERR5
 40
0.0
  9
$WORLDVIEW
 70
     1
  9
$SHADEDGE
 70
     3
  9
$SHADEDIF
 70
    70
  9
$TILEMODE
 70
     1
  9
$MAXACTVP
 70
    48
  9
$PINSBASE
 10
0.0
 20
0.0
 30
0.0
  9
$PLIMCHECK
 70
     0
  9
$PEXTMIN
 10
0.0
 20
0.0
 30
0.0
  9
$PEXTMAX
 10
594.143127
 20
835.597412
 30
2.0
  9
$PLIMMIN
 10
0.0
 20
0.0
  9
$PLIMMAX
 10
420.0
 20
297.0
  9
$UNITMODE
 70
     0
  9
$VISRETAIN
 70
     0
  9
$PLINEGEN
 70
     0
  9
$PSLTSCALE
 70
     1
  9
$TREEDEPTH
 70
  3020
  9
$CMLSTYLE
  2
Standard
  9
$CMLJUST
 70
     0
  9
$CMLSCALE
 40
20.0
  9
$PROXYGRAPHICS
 70
     1
  9
$MEASUREMENT
 70
     1
  9
$CELWEIGHT
370
    -1
  9
$ENDCAPS
280
     0
  9
$JOINSTYLE
280
     0
  9
$LWDISPLAY
290
     0
  9
$INSUNITS
 70
     0
  9
$HYPERLINKBASE
  1

  9
$STYLESHEET
  1

  9
$XEDIT
290
     1
  9
$CEPSNTYPE
380
     0
  9
$PSTYLEMODE
290
     0
  9
$FINGERPRINTGUID
  2

  9
$VERSIONGUID
  2

  9
$EXTNAMES
290
     0
  9
$PSVPSCALE
 40
0.0
  0
ENDSEC
  0
SECTION
  2
CLASSES
  0
CLASS
  1
LWPOLYLINE
  2
AcDbPolyline
  3
AutoCAD 2000
 90
        0
280
     0
281
     1
  0
CLASS
  1
IMAGE
  2
AcDbRasterImage
  3
ISM
 90
      127
280
     0
281
     1
  0
CLASS
  1
OLE2FRAME
  2
AcDbOle2Frame
  3
AutoCAD 2000
 90
        0
280
     0
281
     1
  0
CLASS
  1
HATCH
  2
AcDbHatch
  3
AutoCAD 2000
 90
        0
280
     0
281
     1
  0
CLASS
  1
DICTIONARYVAR
  2
AcDbDictionaryVar
  3
AutoCAD 2000
 90
        0
280
     0
281
     0
  0
CLASS
  1
RASTERVARIABLES
  2
AcDbRasterVariables
  3
ISM
 90
        0
280
     0
281
     0
  0
CLASS
  1
IMAGEDEF
  2
AcDbRasterImageDef
  3
ISM
 90
        0
280
     0
281
     0
  0
CLASS
  1
IMAGEDEF_REACTOR
  2
AcDbRasterImageDefReactor
  3
ISM
 90
        1
280
     0
281
     0
  0
CLASS
  1
IDBUFFER
  2
AcDbIdBuffer
  3
AutoCAD 2000
 90
        0
280
     0
281
     0
  0
CLASS
  1
SPATIAL_FILTER
  2
AcDbSpatialFilter
  3
AutoCAD 2000
 90
        0
280
     0
281
     0
  0
CLASS
  1
XRECORD
  2
AcDbXrecord
  3
AutoCAD 2000
 90
        0
280
     0
281
     0
  0
CLASS
  1
SORTENTSTABLE
  2
AcDbSortentsTable
  3
AutoCAD 2000
 90
        0
280
     0
281
     0
  0
CLASS
  1
LAYER_INDEX
  2
AcDbLayerIndex
  3
AutoCAD 2000
 90
        0
280
     0
281
     0
  0
CLASS
  1
SPATIAL_INDEX
  2
AcDbSpatialIndex
  3
AutoCAD 2000
 90
        0
280
     0
281
     0
  0
CLASS
  1
OBJECT_PTR
  2
CAseDLPNTableRecord
  3
"ASE-LPNTableRecord"
 90
        1
280
     0
281
     0
  0
CLASS
  1
LAYOUT
  2
AcDbLayout
  3
AutoCAD 2000
 90
        0
280
     0
281
     0
  0
CLASS
  1
PLOTSETTINGS
  2
AcDbPlotSettings
  3
AutoCAD 2000
 90
        0
280
     0
281
     0
  0
CLASS
  1
ACDBDICTIONARYWDFLT
  2
AcDbDictionaryWithDefault
  3
AutoCAD 2000
 90
        0
280
     0
281
     0
  0
CLASS
  1
ACDBPLACEHOLDER
  2
AcDbPlaceHolder
  3
AutoCAD 2000
 90
        0
280
     0
281
     0
  0
CLASS
  1
VBA_PROJECT
  2
AcDbVbaProject
  3
acadvba
 90
        0
280
     0
281
     0
  0
CLASS
  1
WIPEOUT
  2
AcDbWipeout
  3
WipeOut|AutoCAD Express Tool|expresstools@autodesk.com
 90
      127
280
     0
281
     1
  0
CLASS
  1
WIPEOUTVARIABLES
  2
AcDbWipeoutVariables
  3
WipeOut|AutoCAD Express Tool|expresstools@autodesk.com
 90
        0
280
     0
281
     0
  0
CLASS
  1
RTEXT
  2
RText
  3
RText|AutoCAD Express Tool|expresstools@autodesk.com
 90
        0
280
     0
281
     1
  0
CLASS
  1
ARCALIGNEDTEXT
  2
AcDbArcAlignedText
  3
ATEXT|AutoCAD Express Tool|expresstools@autodesk.com
 90
        0
280
     0
281
     1
  0
ENDSEC
  0
SECTION
  2
TABLES
  0
TABLE
  2
VPORT
  5
7
100
AcDbSymbolTable
 70
     1
  0
VPORT
  5
15
100
AcDbSymbolTableRecord
100
AcDbViewportTableRecord
  2
*ACTIVE
 70
     0
 10
0.0
 20
0.0
 11
1.0
 21
1.0
 12
6.591288
 22
4.579184
 13
0.0
 23
0.0
 14
1.0
 24
1.0
 15
0.0
 25
0.0
 16
0.0
 26
0.0
 36
1.0
 17
0.0
 27
0.0
 37
0.0
 40
9.158369
 41
0.688564
 42
50.0
 43
0.0
 44
0.0
 50
0.0
 51
0.0
 71
     0
 72
   100
 73
     1
 74
     1
 75
     0
 76
     0
 77
     0
 78
     0
281
     0
 65
     0
110
0.0
120
0.0
130
0.0
111
1.0
121
0.0
131
0.0
112
0.0
122
1.0
132
0.0
345
0
346
0
 79
     0
146
0.0
  0
ENDTAB
  0
TABLE
  2
LTYPE
  5
4
100
AcDbSymbolTable
 70
     3
  0
LTYPE
  5
11
100
AcDbSymbolTableRecord
100
AcDbLinetypeTableRecord
  2
ByBlock
 70
    64
  3

 72
    65
 73
     0
 40
0.0
  0
LTYPE
  5
12
100
AcDbSymbolTableRecord
100
AcDbLinetypeTableRecord
  2
ByLayer
 70
    64
  3

 72
    65
 73
     0
 40
0.0
  0
LTYPE
  5
13
100
AcDbSymbolTableRecord
100
AcDbLinetypeTableRecord
  2
Continuous
 70
    64
  3
Solid line
 72
    65
 73
     0
 40
0.0
  0
ENDTAB
  0
TABLE
  2
LAYER
  5
2
100
AcDbSymbolTable
 70
     1
  0
LAYER
  5
14
100
AcDbSymbolTableRecord
100
AcDbLayerTableRecord
  2
0
 70
     0
 62
     7
  6
Continuous
290
     1
370
    -3
390
1D
  0
ENDTAB
  0
TABLE
  2
STYLE
  5
3
100
AcDbSymbolTable
 70
     1
  0
STYLE
  5
17
100
AcDbSymbolTableRecord
100
AcDbTextStyleTableRecord
  2
Standard
 70
     0
 40
0.0
 41
1.0
 50
0.0
 71
     0
 42
0.0
  3
txt
  4

  0
ENDTAB
  0
TABLE
  2
VIEW
  5
5
100
AcDbSymbolTable
 70
     0
  0
ENDTAB
  0
TABLE
  2
UCS
  5
6
100
AcDbSymbolTable
 70
     0
  0
ENDTAB
  0
TABLE
  2
APPID
  5
8
100
AcDbSymbolTable
 70
     1
  0
APPID
  5
16
100
AcDbSymbolTableRecord
100
AcDbRegAppTableRecord
  2
ACAD
 70
     0
  0
ENDTAB
  0
TABLE
  2
DIMSTYLE
  5
9
100
AcDbSymbolTable
 70
     1
100
AcDbDimStyleTable
 71
     0
  0
DIMSTYLE
105
18
100
AcDbSymbolTableRecord
100
AcDbDimStyleTableRecord
  2
Standard
 70
     0
  3

  4

 40
1.0
 41
0.18
 42
0.0625
 43
0.38
 44
0.18
 45
0.0
 46
0.0
 47
0.0
 48
0.0
 71
     0
 72
     0
 73
     1
 74
     1
 75
     0
 76
     0
 77
     0
 78
     0
 79
     0
140
0.18
141
0.09
142
0.0
143
25.4
144
1.0
145
0.0
146
1.0
147
0.09
148
0.0
170
     0
171
     2
172
     0
173
     0
174
     0
175
     0
176
     0
177
     0
178
     0
179
     0
271
     4
272
     4
273
     2
274
     2
275
     0
276
     0
277
     2
278
    46
279
     0
280
     0
281
     0
282
     0
283
     1
284
     0
285
     0
286
     0
288
     0
289
     3
340
17
341
0
342
0
343
0
344
0
371
    -2
372
    -2
  0
ENDTAB
  0
TABLE
  2
BLOCK_RECORD
  5
1
100
AcDbSymbolTable
 70
     0
  0
BLOCK_RECORD
  5
A
100
AcDbSymbolTableRecord
100
AcDbBlockTableRecord
  2
*MODEL_SPACE
340
20
  0
BLOCK_RECORD
  5
B
100
AcDbSymbolTableRecord
100
AcDbBlockTableRecord
  2
*PAPER_SPACE
340
21
  0
ENDTAB
  0
ENDSEC
  0
SECTION
  2
BLOCKS
  0
BLOCK
  5
D
100
AcDbEntity
  8
0
390
0
100
AcDbBlockBegin
  2
*MODEL_SPACE
 70
     0
 10
0.0
 20
0.0
 30
0.0
  3
*MODEL_SPACE
  1

  0
ENDBLK
  5
E
100
AcDbEntity
  8
0
390
0
100
AcDbBlockEnd
  0
BLOCK
  5
F
100
AcDbEntity
 67
     1
  8
0
390
0
100
AcDbBlockBegin
  2
*PAPER_SPACE
 70
     0
 10
0.0
 20
0.0
 30
0.0
  3
*PAPER_SPACE
  1

  0
ENDBLK
  5
10
100
AcDbEntity
 67
     1
  8
0
390
0
100
AcDbBlockEnd
  0
ENDSEC
  0
SECTION
  2
ENTITIES
  0
VIEWPORT
  5
1C9
100
AcDbEntity
 67
     1
  8
0
370
     0
390
0
 62
     0
 48
0.0
100
AcDbViewport
 10
0.0
 20
0.0
 30
0.0
 40
1000.0
 41
1000.0
 68
     1
 69
     1
 12
0.0
 22
0.0
 13
0.0
 23
0.0
 14
1.0
 24
1.0
 15
1.0
 25
1.0
 16
0.0
 26
0.0
 36
1.0
 17
0.0
 27
0.0
 37
0.0
 42
50.0
 43
0.0
 44
0.0
 45
1000.0
 50
0.0
 51
0.0
 72
   100
 90
        0
340
0
  1

281
     0
 71
     0
 74
     1
110
0.0
120
0.0
130
0.0
111
1.0
121
0.0
131
0.0
112
0.0
122
1.0
132
0.0
345
0
346
0
 79
     0
146
0.0
  0
ARC
  5
24
100
AcDbEntity
  8
0
370
    35
390
0
 62
     7
100
AcDbCircle
 10
150.301422
 20
697.870911
 30
0.0
 40
152.5
210
0.0
220
0.0
230
1.0
100
AcDbArc
 50
198.043866
 51
240.325564
  0
LINE
  5
25
100
AcDbEntity
  8
0
370
    35
390
0
 62
     7
100
AcDbLine
 10
225.799759
 20
565.370911
 30
0.0
 11
74.803078
 21
565.370911
 31
0.0
210
0.0
220
0.0
230
1.0
  0
ARC
  5
26
100
AcDbEntity
  8
0
370
    35
390
0
 62
     7
100
AcDbCircle
 10
150.301422
 20
697.870911
 30
0.0
 40
152.5
210
0.0
220
0.0
230
1.0
100
AcDbArc
 50
299.674437
 51
341.956138
  0
LINE
  5
27
100
AcDbEntity
  8
0
370
    35
390
0
 62
     7
100
AcDbLine
 10
295.301422
 20
745.107056
 30
0.0
 11
295.301422
 21
650.634827
 31
0.0
210
0.0
220
0.0
230
1.0
  0
ARC
  5
28
100
AcDbEntity
  8
0
370
    35
390
0
 62
     7
100
AcDbCircle
 10
150.301422
 20
697.870911
 30
0.0
 40
152.5
210
0.0
220
0.0
230
1.0
100
AcDbArc
 50
18.043862
 51
60.325563
  0
LINE
  5
29
100
AcDbEntity
  8
0
370
    35
390
0
 62
     7
100
AcDbLine
 10
74.803078
 20
830.370911
 30
0.0
 11
225.799759
 21
830.370911
 31
0.0
210
0.0
220
0.0
230
1.0
  0
ARC
  5
2A
100
AcDbEntity
  8
0
370
    35
390
0
 62
     7
100
AcDbCircle
 10
150.301422
 20
697.870911
 30
0.0
 40
152.5
210
0.0
220
0.0
230
1.0
100
AcDbArc
 50
119.674436
 51
161.956134
  0
LINE
  5
2B
100
AcDbEntity
  8
0
370
    35
390
0
 62
     7
100
AcDbLine
 10
5.301419
 20
650.634827
 30
0.0
 11
5.301419
 21
745.107056
 31
0.0
210
0.0
220
0.0
230
1.0
  0
CIRCLE
  5
2C
100
AcDbEntity
  8
0
370
    35
390
0
 62
     7
100
AcDbCircle
 10
75.301422
 20
805.370911
 30
0.0
 40
1.5
210
0.0
220
0.0
230
1.0
  0
CIRCLE
  5
2D
100
AcDbEntity
  8
0
370
    35
390
0
 62
     7
100
AcDbCircle
 10
75.301422
 20
590.370911
 30
0.0
 40
1.5
210
0.0
220
0.0
230
1.0
  0
CIRCLE
  5
2E
100
AcDbEntity
  8
0
370
    35
390
0
 62
     7
100
AcDbCircle
 10
150.301422
 20
800.370911
 30
0.0
 40
3.5
210
0.0
220
0.0
230
1.0
  0
CIRCLE
  5
2F
100
AcDbEntity
  8
0
370
    35
390
0
 62
     7
100
AcDbCircle
 10
150.301422
 20
595.370911
 30
0.0
 40
3.5
210
0.0
220
0.0
230
1.0
  0
CIRCLE
  5
30
100
AcDbEntity
  8
0
370
    35
390
0
 62
     7
100
AcDbCircle
 10
225.301422
 20
805.370911
 30
0.0
 40
1.5
210
0.0
220
0.0
230
1.0
  0
CIRCLE
  5
31
100
AcDbEntity
  8
0
370
    35
390
0
 62
     7
100
AcDbCircle
 10
225.301422
 20
590.370911
 30
0.0
 40
1.5
210
0.0
220
0.0
230
1.0
  0
CIRCLE
  5
32
100
AcDbEntity
  8
0
370
    35
390
0
 62
     7
100
AcDbCircle
 10
122.803078
 20
578.520203
 30
0.0
 40
1.5
210
0.0
220
0.0
230
1.0
  0
CIRCLE
  5
33
100
AcDbEntity
  8
0
370
    35
390
0
 62
     7
100
AcDbCircle
 10
122.803078
 20
571.004211
 30
0.0
 40
1.5
210
0.0
220
0.0
230
1.0
  0
CIRCLE
  5
34
100
AcDbEntity
  8
0
370
    35
390
0
 62
     7
100
AcDbCircle
 10
177.803085
 20
578.520203
 30
0.0
 40
1.5
210
0.0
220
0.0
230
1.0
  0
CIRCLE
  5
35
100
AcDbEntity
  8
0
370
    35
390
0
 62
     7
100
AcDbCircle
 10
177.803085
 20
571.004211
 30
0.0
 40
1.5
210
0.0
220
0.0
230
1.0
  0
CIRCLE
  5
36
100
AcDbEntity
  8
0
370
    35
390
0
 62
     7
100
AcDbCircle
 10
270.301422
 20
643.55658
 30
0.0
 40
1.5
210
0.0
220
0.0
230
1.0
  0
CIRCLE
  5
37
100
AcDbEntity
  8
0
370
    35
390
0
 62
     7
100
AcDbCircle
 10
30.301418
 20
643.55658
 30
0.0
 40
1.5
210
0.0
220
0.0
230
1.0
  0
CIRCLE
  5
38
100
AcDbEntity
  8
0
370
    35
390
0
 62
     7
100
AcDbCircle
 10
30.301418
 20
752.185242
 30
0.0
 40
1.5
210
0.0
220
0.0
230
1.0
  0
CIRCLE
  5
39
100
AcDbEntity
  8
0
370
    35
390
0
 62
     7
100
AcDbCircle
 10
270.301422
 20
752.185242
 30
0.0
 40
1.5
210
0.0
220
0.0
230
1.0
  0
LINE
  5
3A
100
AcDbEntity
  8
0
370
    35
390
0
 62
     7
100
AcDbLine
 10
15.301419
 20
697.870911
 30
0.0
 11
15.301419
 21
733.870911
 31
0.0
210
0.0
220
0.0
230
1.0
  0
LINE
  5
3B
100
AcDbEntity
  8
0
370
    35
390
0
 62
     7
 48
0.3
100
AcDbLine
 10
15.301419
 20
733.870911
 30
0.0
 11
27.301418
 21
733.870911
 31
0.0
210
0.0
220
0.0
230
1.0
  0
LINE
  5
3C
100
AcDbEntity
  8
0
370
    35
390
0
 62
     7
100
AcDbLine
 10
27.301418
 20
733.870911
 30
0.0
 11
27.301418
 21
697.870911
 31
0.0
210
0.0
220
0.0
230
1.0
  0
LINE
  5
3D
100
AcDbEntity
  8
0
370
    35
390
0
 62
     7
100
AcDbLine
 10
27.301418
 20
661.870911
 30
0.0
 11
27.301418
 21
697.870911
 31
0.0
210
0.0
220
0.0
230
1.0
  0
LINE
  5
3E
100
AcDbEntity
  8
0
370
    35
390
0
 62
     7
 48
0.3
100
AcDbLine
 10
15.301419
 20
661.870911
 30
0.0
 11
27.301418
 21
661.870911
 31
0.0
210
0.0
220
0.0
230
1.0
  0
LINE
  5
3F
100
AcDbEntity
  8
0
370
    35
390
0
 62
     7
100
AcDbLine
 10
15.301419
 20
697.870911
 30
0.0
 11
15.301419
 21
661.870911
 31
0.0
210
0.0
220
0.0
230
1.0
  0
LINE
  5
40
100
AcDbEntity
  8
0
370
    35
390
0
 62
     7
 48
0.375
100
AcDbLine
 10
39.301418
 20
697.870911
 30
0.0
 11
39.301418
 21
712.870911
 31
0.0
210
0.0
220
0.0
230
1.0
  0
LINE
  5
41
100
AcDbEntity
  8
0
370
    35
390
0
 62
     7
 48
0.3375
100
AcDbLine
 10
39.301418
 20
712.870911
 30
0.0
 11
52.801418
 21
712.870911
 31
0.0
210
0.0
220
0.0
230
1.0
  0
LINE
  5
42
100
AcDbEntity
  8
0
370
    35
390
0
 62
     7
 48
0.375
100
AcDbLine
 10
52.801418
 20
712.870911
 30
0.0
 11
52.801418
 21
697.870911
 31
0.0
210
0.0
220
0.0
230
1.0
  0
LINE
  5
43
100
AcDbEntity
  8
0
370
    35
390
0
 62
     7
 48
0.375
100
AcDbLine
 10
52.801418
 20
682.870911
 30
0.0
 11
52.801418
 21
697.870911
 31
0.0
210
0.0
220
0.0
230
1.0
  0
LINE
  5
44
100
AcDbEntity
  8
0
370
    35
390
0
 62
     7
 48
0.3375
100
AcDbLine
 10
39.301418
 20
682.870911
 30
0.0
 11
52.801418
 21
682.870911
 31
0.0
210
0.0
220
0.0
230
1.0
  0
LINE
  5
45
100
AcDbEntity
  8
0
370
    35
390
0
 62
     7
 48
0.375
100
AcDbLine
 10
39.301418
 20
697.870911
 30
0.0
 11
39.301418
 21
682.870911
 31
0.0
210
0.0
220
0.0
230
1.0
  0
LINE
  5
46
100
AcDbEntity
  8
0
370
    35
390
0
 62
     7
100
AcDbLine
 10
285.301422
 20
697.870911
 30
0.0
 11
285.301422
 21
661.870911
 31
0.0
210
0.0
220
0.0
230
1.0
  0
LINE
  5
47
100
AcDbEntity
  8
0
370
    35
390
0
 62
     7
 48
0.3
100
AcDbLine
 10
285.301422
 20
661.870911
 30
0.0
 11
273.301422
 21
661.870911
 31
0.0
210
0.0
220
0.0
230
1.0
  0
LINE
  5
48
100
AcDbEntity
  8
0
370
    35
390
0
 62
     7
100
AcDbLine
 10
273.301422
 20
661.870911
 30
0.0
 11
273.301422
 21
697.870911
 31
0.0
210
0.0
220
0.0
230
1.0
  0
LINE
  5
49
100
AcDbEntity
  8
0
370
    35
390
0
 62
     7
100
AcDbLine
 10
273.301422
 20
733.870911
 30
0.0
 11
273.301422
 21
697.870911
 31
0.0
210
0.0
220
0.0
230
1.0
  0
LINE
  5
4A
100
AcDbEntity
  8
0
370
    35
390
0
 62
     7
 48
0.3
100
AcDbLine
 10
285.301422
 20
733.870911
 30
0.0
 11
273.301422
 21
733.870911
 31
0.0
210
0.0
220
0.0
230
1.0
  0
LINE
  5
4B
100
AcDbEntity
  8
0
370
    35
390
0
 62
     7
100
AcDbLine
 10
285.301422
 20
697.870911
 30
0.0
 11
285.301422
 21
733.870911
 31
0.0
210
0.0
220
0.0
230
1.0
  0
LINE
  5
4C
100
AcDbEntity
  8
0
370
    35
390
0
 62
     7
 48
0.3375
100
AcDbLine
 10
261.301422
 20
682.870911
 30
0.0
 11
247.801422
 21
682.870911
 31
0.0
210
0.0
220
0.0
230
1.0
  0
LINE
  5
4D
100
AcDbEntity
  8
0
370
    35
390
0
 62
     7
 48
0.375
100
AcDbLine
 10
247.801422
 20
682.870911
 30
0.0
 11
247.801422
 21
697.870911
 31
0.0
210
0.0
220
0.0
230
1.0
  0
LINE
  5
4E
100
AcDbEntity
  8
0
370
    35
390
0
 62
     7
 48
0.375
100
AcDbLine
 10
247.801422
 20
712.870911
 30
0.0
 11
247.801422
 21
697.870911
 31
0.0
210
0.0
220
0.0
230
1.0
  0
LINE
  5
4F
100
AcDbEntity
  8
0
370
    35
390
0
 62
     7
 48
0.3375
100
AcDbLine
 10
261.301422
 20
712.870911
 30
0.0
 11
247.801422
 21
712.870911
 31
0.0
210
0.0
220
0.0
230
1.0
  0
LINE
  5
50
100
AcDbEntity
  8
0
370
    35
390
0
 62
     7
 48
0.375
100
AcDbLine
 10
261.301422
 20
697.870911
 30
0.0
 11
261.301422
 21
712.870911
 31
0.0
210
0.0
220
0.0
230
1.0
  0
LINE
  5
51
100
AcDbEntity
  8
0
370
    35
390
0
 62
     7
 48
0.375
100
AcDbLine
 10
261.301422
 20
697.870911
 30
0.0
 11
261.301422
 21
682.870911
 31
0.0
210
0.0
220
0.0
230
1.0
  0
LINE
  5
52
100
AcDbEntity
  8
0
370
    35
390
0
 62
     7
 48
0.375
100
AcDbLine
 10
54.825665
 20
760.387817
 30
0.0
 11
54.825665
 21
775.387817
 31
0.0
210
0.0
220
0.0
230
1.0
  0
LINE
  5
53
100
AcDbEntity
  8
0
370
    35
390
0
 62
     7
 48
0.45
100
AcDbLine
 10
72.825668
 20
775.387817
 30
0.0
 11
54.825665
 21
775.387817
 31
0.0
210
0.0
220
0.0
230
1.0
  0
LINE
  5
54
100
AcDbEntity
  8
0
370
    35
390
0
 62
     7
 48
0.375
100
AcDbLine
 10
72.825668
 20
775.387817
 30
0.0
 11
72.825668
 21
760.387817
 31
0.0
210
0.0
220
0.0
230
1.0
  0
LINE
  5
55
100
AcDbEntity
  8
0
370
    35
390
0
 62
     7
 48
0.45
100
AcDbLine
 10
54.825665
 20
760.387817
 30
0.0
 11
72.825668
 21
760.387817
 31
0.0
210
0.0
220
0.0
230
1.0
  0
LINE
  5
56
100
AcDbEntity
  8
0
370
    35
390
0
 62
     7
 48
0.45
100
AcDbLine
 10
245.777176
 20
760.387817
 30
0.0
 11
227.777176
 21
760.387817
 31
0.0
210
0.0
220
0.0
230
1.0
  0
LINE
  5
57
100
AcDbEntity
  8
0
370
    35
390
0
 62
     7
 48
0.375
100
AcDbLine
 10
227.777176
 20
775.387817
 30
0.0
 11
227.777176
 21
760.387817
 31
0.0
210
0.0
220
0.0
230
1.0
  0
LINE
  5
58
100
AcDbEntity
  8
0
370
    35
390
0
 62
     7
 48
0.45
100
AcDbLine
 10
227.777176
 20
775.387817
 30
0.0
 11
245.777176
 21
775.387817
 31
0.0
210
0.0
220
0.0
230
1.0
  0
LINE
  5
59
100
AcDbEntity
  8
0
370
    35
390
0
 62
     7
 48
0.375
100
AcDbLine
 10
245.777176
 20
760.387817
 30
0.0
 11
245.777176
 21
775.387817
 31
0.0
210
0.0
220
0.0
230
1.0
  0
LINE
  5
5A
100
AcDbEntity
  8
0
370
    35
390
0
 62
     7
 48
0.2
100
AcDbLine
 10
201.735886
 20
600.604309
 30
0.0
 11
194.634705
 21
596.920166
 31
0.0
210
0.0
220
0.0
230
1.0
  0
LINE
  5
5B
100
AcDbEntity
  8
0
370
    35
390
0
 62
     7
 48
0.125
100
AcDbLine
 10
204.038498
 20
596.166077
 30
0.0
 11
201.735886
 21
600.604309
 31
0.0
210
0.0
220
0.0
230
1.0
  0
LINE
  5
5C
100
AcDbEntity
  8
0
370
    35
390
0
 62
     7
 48
0.2
100
AcDbLine
 10
196.937317
 20
592.481873
 30
0.0
 11
204.038498
 21
596.166077
 31
0.0
210
0.0
220
0.0
230
1.0
  0
LINE
  5
5D
100
AcDbEntity
  8
0
370
    35
390
0
 62
     7
 48
0.125001
100
AcDbLine
 10
194.634705
 20
596.920166
 30
0.0
 11
196.937317
 21
592.481873
 31
0.0
210
0.0
220
0.0
230
1.0
  0
LINE
  5
5E
100
AcDbEntity
  8
0
370
    35
390
0
 62
     7
 48
0.125
100
AcDbLine
 10
224.014725
 20
606.408325
 30
0.0
 11
221.712112
 21
610.846558
 31
0.0
210
0.0
220
0.0
230
1.0
  0
LINE
  5
5F
100
AcDbEntity
  8
0
370
    35
390
0
 62
     7
 48
0.200001
100
AcDbLine
 10
216.913528
 20
602.724121
 30
0.0
 11
224.014725
 21
606.408325
 31
0.0
210
0.0
220
0.0
230
1.0
  0
LINE
  5
60
100
AcDbEntity
  8
0
370
    35
390
0
 62
     7
 48
0.125001
100
AcDbLine
 10
214.610916
 20
607.162415
 30
0.0
 11
216.913528
 21
602.724121
 31
0.0
210
0.0
220
0.0
230
1.0
  0
LINE
  5
61
100
AcDbEntity
  8
0
370
    35
390
0
 62
     7
 48
0.2
100
AcDbLine
 10
221.712112
 20
610.846558
 30
0.0
 11
214.610916
 21
607.162415
 31
0.0
210
0.0
220
0.0
230
1.0
  0
LINE
  5
62
100
AcDbEntity
  8
0
370
    35
390
0
 62
     7
 48
0.125
100
AcDbLine
 10
269.822876
 20
629.895203
 30
0.0
 11
267.520264
 21
634.333435
 31
0.0
210
0.0
220
0.0
230
1.0
  0
LINE
  5
63
100
AcDbEntity
  8
0
370
    35
390
0
 62
     7
 48
0.200001
100
AcDbLine
 10
262.72168
 20
626.210999
 30
0.0
 11
269.822876
 21
629.895203
 31
0.0
210
0.0
220
0.0
230
1.0
  0
LINE
  5
64
100
AcDbEntity
  8
0
370
    35
390
0
 62
     7
 48
0.125001
100
AcDbLine
 10
260.419067
 20
630.649292
 30
0.0
 11
262.72168
 21
626.210999
 31
0.0
210
0.0
220
0.0
230
1.0
  0
LINE
  5
65
100
AcDbEntity
  8
0
370
    35
390
0
 62
     7
 48
0.2
100
AcDbLine
 10
267.520264
 20
634.333435
 30
0.0
 11
260.419067
 21
630.649292
 31
0.0
210
0.0
220
0.0
230
1.0
  0
LINE
  5
66
100
AcDbEntity
  8
0
370
    35
390
0
 62
     7
 48
0.125
100
AcDbLine
 10
249.846664
 20
619.652954
 30
0.0
 11
247.544052
 21
624.091187
 31
0.0
210
0.0
220
0.0
230
1.0
  0
LINE
  5
67
100
AcDbEntity
  8
0
370
    35
390
0
 62
     7
 48
0.200001
100
AcDbLine
 10
242.745468
 20
615.96875
 30
0.0
 11
249.846664
 21
619.652954
 31
0.0
210
0.0
220
0.0
230
1.0
  0
LINE
  5
68
100
AcDbEntity
  8
0
370
    35
390
0
 62
     7
 48
0.125
100
AcDbLine
 10
240.442871
 20
620.406982
 30
0.0
 11
242.745468
 21
615.96875
 31
0.0
210
0.0
220
0.0
230
1.0
  0
LINE
  5
69
100
AcDbEntity
  8
0
370
    35
390
0
 62
     7
 48
0.2
100
AcDbLine
 10
247.544052
 20
624.091187
 30
0.0
 11
240.442871
 21
620.406982
 31
0.0
210
0.0
220
0.0
230
1.0
  0
LINE
  5
6A
100
AcDbEntity
  8
0
370
    35
390
0
 62
     7
 48
0.125001
100
AcDbLine
 10
85.99192
 20
607.162415
 30
0.0
 11
83.689316
 21
602.724121
 31
0.0
210
0.0
220
0.0
230
1.0
  0
LINE
  5
6B
100
AcDbEntity
  8
0
370
    35
390
0
 62
     7
 48
0.2
100
AcDbLine
 10
83.689316
 20
602.724121
 30
0.0
 11
76.588127
 21
606.408325
 31
0.0
210
0.0
220
0.0
230
1.0
  0
LINE
  5
6C
100
AcDbEntity
  8
0
370
    35
390
0
 62
     7
 48
0.125
100
AcDbLine
 10
76.588127
 20
606.408325
 30
0.0
 11
78.890739
 21
610.846558
 31
0.0
210
0.0
220
0.0
230
1.0
  0
LINE
  5
6D
100
AcDbEntity
  8
0
370
    35
390
0
 62
     7
 48
0.2
100
AcDbLine
 10
78.890739
 20
610.846558
 30
0.0
 11
85.99192
 21
607.162415
 31
0.0
210
0.0
220
0.0
230
1.0
  0
LINE
  5
6E
100
AcDbEntity
  8
0
370
    35
390
0
 62
     7
 48
0.125
100
AcDbLine
 10
96.564339
 20
596.166077
 30
0.0
 11
98.866951
 21
600.604309
 31
0.0
210
0.0
220
0.0
230
1.0
  0
LINE
  5
6F
100
AcDbEntity
  8
0
370
    35
390
0
 62
     7
 48
0.2
100
AcDbLine
 10
98.866951
 20
600.604309
 30
0.0
 11
105.96814
 21
596.920166
 31
0.0
210
0.0
220
0.0
230
1.0
  0
LINE
  5
70
100
AcDbEntity
  8
0
370
    35
390
0
 62
     7
 48
0.125001
100
AcDbLine
 10
105.96814
 20
596.920166
 30
0.0
 11
103.665527
 21
592.481873
 31
0.0
210
0.0
220
0.0
230
1.0
  0
LINE
  5
71
100
AcDbEntity
  8
0
370
    35
390
0
 62
     7
 48
0.2
100
AcDbLine
 10
103.665527
 20
592.481873
 30
0.0
 11
96.564339
 21
596.166077
 31
0.0
210
0.0
220
0.0
230
1.0
  0
LINE
  5
72
100
AcDbEntity
  8
0
370
    35
390
0
 62
     7
 48
0.2
100
AcDbLine
 10
53.058788
 20
624.091187
 30
0.0
 11
60.159973
 21
620.406982
 31
0.0
210
0.0
220
0.0
230
1.0
  0
LINE
  5
73
100
AcDbEntity
  8
0
370
    35
390
0
 62
     7
 48
0.125
100
AcDbLine
 10
60.159973
 20
620.406982
 30
0.0
 11
57.857365
 21
615.96875
 31
0.0
210
0.0
220
0.0
230
1.0
  0
LINE
  5
74
100
AcDbEntity
  8
0
370
    35
390
0
 62
     7
 48
0.2
100
AcDbLine
 10
57.857365
 20
615.96875
 30
0.0
 11
50.75618
 21
619.652954
 31
0.0
210
0.0
220
0.0
230
1.0
  0
LINE
  5
75
100
AcDbEntity
  8
0
370
    35
390
0
 62
     7
 48
0.125
100
AcDbLine
 10
50.75618
 20
619.652954
 30
0.0
 11
53.058788
 21
624.091187
 31
0.0
210
0.0
220
0.0
230
1.0
  0
LINE
  5
76
100
AcDbEntity
  8
0
370
    35
390
0
 62
     7
 48
0.2
100
AcDbLine
 10
33.082573
 20
634.333435
 30
0.0
 11
40.183758
 21
630.649292
 31
0.0
210
0.0
220
0.0
230
1.0
  0
LINE
  5
77
100
AcDbEntity
  8
0
370
    35
390
0
 62
     7
 48
0.125001
100
AcDbLine
 10
40.183758
 20
630.649292
 30
0.0
 11
37.881149
 21
626.210999
 31
0.0
210
0.0
220
0.0
230
1.0
  0
LINE
  5
78
100
AcDbEntity
  8
0
370
    35
390
0
 62
     7
 48
0.2
100
AcDbLine
 10
37.881149
 20
626.210999
 30
0.0
 11
30.779964
 21
629.895203
 31
0.0
210
0.0
220
0.0
230
1.0
  0
LINE
  5
79
100
AcDbEntity
  8
0
370
    35
390
0
 62
     7
 48
0.125
100
AcDbLine
 10
30.779964
 20
629.895203
 30
0.0
 11
33.082573
 21
634.333435
 31
0.0
210
0.0
220
0.0
230
1.0
  0
LINE
  5
7A
100
AcDbEntity
  8
0
370
    35
390
0
 62
     7
 48
0.125
100
AcDbLine
 10
221.036331
 20
635.849365
 30
0.0
 11
225.474564
 21
638.151978
 31
0.0
210
0.0
220
0.0
230
1.0
  0
LINE
  5
7B
100
AcDbEntity
  8
0
370
    35
390
0
 62
     7
 48
0.125
100
AcDbLine
 10
225.474564
 20
638.151978
 30
0.0
 11
227.777176
 21
633.713745
 31
0.0
210
0.0
220
0.0
230
1.0
  0
LINE
  5
7C
100
AcDbEntity
  8
0
370
    35
390
0
 62
     7
 48
0.125
100
AcDbLine
 10
227.777176
 20
633.713745
 30
0.0
 11
223.338928
 21
631.411133
 31
0.0
210
0.0
220
0.0
230
1.0
  0
LINE
  5
7D
100
AcDbEntity
  8
0
370
    35
390
0
 62
     7
 48
0.125
100
AcDbLine
 10
223.338928
 20
631.411133
 30
0.0
 11
221.036331
 21
635.849365
 31
0.0
210
0.0
220
0.0
230
1.0
  0
LINE
  5
7E
100
AcDbEntity
  8
0
370
    35
390
0
 62
     7
 48
0.125001
100
AcDbLine
 10
230.066055
 20
629.302002
 30
0.0
 11
232.368668
 21
624.863708
 31
0.0
210
0.0
220
0.0
230
1.0
  0
LINE
  5
7F
100
AcDbEntity
  8
0
370
    35
390
0
 62
     7
 48
0.124999
100
AcDbLine
 10
232.368668
 20
624.863708
 30
0.0
 11
227.930435
 21
622.561157
 31
0.0
210
0.0
220
0.0
230
1.0
  0
LINE
  5
80
100
AcDbEntity
  8
0
370
    35
390
0
 62
     7
 48
0.125
100
AcDbLine
 10
227.930435
 20
622.561157
 30
0.0
 11
225.627823
 21
626.99939
 31
0.0
210
0.0
220
0.0
230
1.0
  0
LINE
  5
81
100
AcDbEntity
  8
0
370
    35
390
0
 62
     7
 48
0.125
100
AcDbLine
 10
225.627823
 20
626.99939
 30
0.0
 11
230.066055
 21
629.302002
 31
0.0
210
0.0
220
0.0
230
1.0
  0
LINE
  5
82
100
AcDbEntity
  8
0
370
    35
390
0
 62
     7
 48
0.125
100
AcDbLine
 10
77.263908
 20
631.411133
 30
0.0
 11
79.566521
 21
635.849365
 31
0.0
210
0.0
220
0.0
230
1.0
  0
LINE
  5
83
100
AcDbEntity
  8
0
370
    35
390
0
 62
     7
 48
0.125
100
AcDbLine
 10
72.825668
 20
633.713745
 30
0.0
 11
77.263908
 21
631.411133
 31
0.0
210
0.0
220
0.0
230
1.0
  0
LINE
  5
84
100
AcDbEntity
  8
0
370
    35
390
0
 62
     7
 48
0.125
100
AcDbLine
 10
75.128281
 20
638.151978
 30
0.0
 11
72.825668
 21
633.713745
 31
0.0
210
0.0
220
0.0
230
1.0
  0
LINE
  5
85
100
AcDbEntity
  8
0
370
    35
390
0
 62
     7
 48
0.125
100
AcDbLine
 10
79.566521
 20
635.849365
 30
0.0
 11
75.128281
 21
638.151978
 31
0.0
210
0.0
220
0.0
230
1.0
  0
LINE
  5
86
100
AcDbEntity
  8
0
370
    35
390
0
 62
     7
 48
0.125
100
AcDbLine
 10
72.672417
 20
622.561157
 30
0.0
 11
74.975021
 21
626.99939
 31
0.0
210
0.0
220
0.0
230
1.0
  0
LINE
  5
87
100
AcDbEntity
  8
0
370
    35
390
0
 62
     7
 48
0.124999
100
AcDbLine
 10
68.234169
 20
624.863708
 30
0.0
 11
72.672417
 21
622.561157
 31
0.0
210
0.0
220
0.0
230
1.0
  0
LINE
  5
88
100
AcDbEntity
  8
0
370
    35
390
0
 62
     7
 48
0.125001
100
AcDbLine
 10
70.536781
 20
629.302002
 30
0.0
 11
68.234169
 21
624.863708
 31
0.0
210
0.0
220
0.0
230
1.0
  0
LINE
  5
89
100
AcDbEntity
  8
0
370
    35
390
0
 62
     7
 48
0.125
100
AcDbLine
 10
74.975021
 20
626.99939
 30
0.0
 11
70.536781
 21
629.302002
 31
0.0
210
0.0
220
0.0
230
1.0
  0
ARC
  5
8A
100
AcDbEntity
  8
0
370
    35
390
0
 62
     7
100
AcDbCircle
 10
446.97995
 20
696.6604
 30
0.0
 40
152.5
210
0.0
220
0.0
230
1.0
100
AcDbArc
 50
119.674436
 51
161.956134
  0
LINE
  5
8B
100
AcDbEntity
  8
0
370
    35
390
0
 62
     7
100
AcDbLine
 10
301.97995
 20
649.424316
 30
0.0
 11
301.97995
 21
743.896484
 31
0.0
210
0.0
220
0.0
230
1.0
  0
ARC
  5
8C
100
AcDbEntity
  8
0
370
    35
390
0
 62
     7
100
AcDbCircle
 10
446.97995
 20
696.6604
 30
0.0
 40
152.5
210
0.0
220
0.0
230
1.0
100
AcDbArc
 50
198.043866
 51
240.325564
  0
LINE
  5
8D
100
AcDbEntity
  8
0
370
    35
390
0
 62
     7
100
AcDbLine
 10
418.679749
 20
564.1604
 30
0.0
 11
371.481598
 21
564.1604
 31
0.0
210
0.0
220
0.0
230
1.0
  0
LINE
  5
8E
100
AcDbEntity
  8
0
370
    35
390
0
 62
     7
100
AcDbLine
 10
418.679749
 20
618.607788
 30
0.0
 11
418.679749
 21
564.1604
 31
0.0
210
0.0
220
0.0
230
1.0
  0
LINE
  5
8F
100
AcDbEntity
  8
0
370
    35
390
0
 62
     7
 48
0.357394
100
AcDbLine
 10
418.679749
 20
618.607788
 30
0.0
 11
432.975494
 21
618.607788
 31
0.0
210
0.0
220
0.0
230
1.0
  0
LINE
  5
90
100
AcDbEntity
  8
0
370
    35
390
0
 62
     7
 48
0.348239
100
AcDbLine
 10
432.975494
 20
618.607788
 30
0.0
 11
432.975494
 21
632.537354
 31
0.0
210
0.0
220
0.0
230
1.0
  0
LINE
  5
91
100
AcDbEntity
  8
0
370
    35
390
0
 62
     7
100
AcDbLine
 10
432.975494
 20
632.537354
 30
0.0
 11
432.97995
 21
674.075989
 31
0.0
210
0.0
220
0.0
230
1.0
  0
LINE
  5
92
100
AcDbEntity
  8
0
370
    35
390
0
 62
     7
100
AcDbLine
 10
432.97995
 20
674.075989
 30
0.0
 11
455.702057
 21
674.075989
 31
0.0
210
0.0
220
0.0
230
1.0
  0
LINE
  5
93
100
AcDbEntity
  8
0
370
    35
390
0
 62
     7
100
AcDbLine
 10
455.702057
 20
674.075989
 30
0.0
 11
455.702057
 21
632.537354
 31
0.0
210
0.0
220
0.0
230
1.0
  0
LINE
  5
94
100
AcDbEntity
  8
0
370
    35
390
0
 62
     7
100
AcDbLine
 10
455.702057
 20
632.537354
 30
0.0
 11
455.702057
 21
578.325745
 31
0.0
210
0.0
220
0.0
230
1.0
  0
LINE
  5
95
100
AcDbEntity
  8
0
370
    35
390
0
 62
     7
 48
0.354134
100
AcDbLine
 10
455.702057
 20
578.325745
 30
0.0
 11
455.702057
 21
564.1604
 31
0.0
210
0.0
220
0.0
230
1.0
  0
LINE
  5
96
100
AcDbEntity
  8
0
370
    35
390
0
 62
     7
100
AcDbLine
 10
522.478271
 20
564.1604
 30
0.0
 11
455.702057
 21
564.1604
 31
0.0
210
0.0
220
0.0
230
1.0
  0
ARC
  5
97
100
AcDbEntity
  8
0
370
    35
390
0
 62
     7
100
AcDbCircle
 10
446.97995
 20
696.6604
 30
0.0
 40
152.5
210
0.0
220
0.0
230
1.0
100
AcDbArc
 50
299.674437
 51
341.956138
  0
LINE
  5
98
100
AcDbEntity
  8
0
370
    35
390
0
 62
     7
100
AcDbLine
 10
591.97998
 20
743.896484
 30
0.0
 11
591.97998
 21
649.424316
 31
0.0
210
0.0
220
0.0
230
1.0
  0
ARC
  5
99
100
AcDbEntity
  8
0
370
    35
390
0
 62
     7
100
AcDbCircle
 10
446.97995
 20
696.6604
 30
0.0
 40
152.5
210
0.0
220
0.0
230
1.0
100
AcDbArc
 50
18.043862
 51
60.325563
  0
LINE
  5
9A
100
AcDbEntity
  8
0
370
    35
390
0
 62
     7
100
AcDbLine
 10
371.481598
 20
829.1604
 30
0.0
 11
522.478271
 21
829.1604
 31
0.0
210
0.0
220
0.0
230
1.0
  0
CIRCLE
  5
9B
100
AcDbEntity
  8
0
370
    35
390
0
 62
     7
100
AcDbCircle
 10
371.97995
 20
804.1604
 30
0.0
 40
1.5
210
0.0
220
0.0
230
1.0
  0
CIRCLE
  5
9C
100
AcDbEntity
  8
0
370
    35
390
0
 62
     7
100
AcDbCircle
 10
521.97998
 20
804.1604
 30
0.0
 40
1.5
210
0.0
220
0.0
230
1.0
  0
CIRCLE
  5
9D
100
AcDbEntity
  8
0
370
    35
390
0
 62
     7
100
AcDbCircle
 10
521.97998
 20
589.1604
 30
0.0
 40
1.5
210
0.0
220
0.0
230
1.0
  0
CIRCLE
  5
9E
100
AcDbEntity
  8
0
370
    35
390
0
 62
     7
100
AcDbCircle
 10
371.97995
 20
589.1604
 30
0.0
 40
1.5
210
0.0
220
0.0
230
1.0
  0
CIRCLE
  5
9F
100
AcDbEntity
  8
0
370
    35
390
0
 62
     7
100
AcDbCircle
 10
566.97998
 20
750.974731
 30
0.0
 40
1.5
210
0.0
220
0.0
230
1.0
  0
CIRCLE
  5
A0
100
AcDbEntity
  8
0
370
    35
390
0
 62
     7
100
AcDbCircle
 10
326.97995
 20
750.974731
 30
0.0
 40
1.5
210
0.0
220
0.0
230
1.0
  0
CIRCLE
  5
A1
100
AcDbEntity
  8
0
370
    35
390
0
 62
     7
100
AcDbCircle
 10
326.97995
 20
642.346069
 30
0.0
 40
1.5
210
0.0
220
0.0
230
1.0
  0
CIRCLE
  5
A2
100
AcDbEntity
  8
0
370
    35
390
0
 62
     7
100
AcDbCircle
 10
566.97998
 20
642.346069
 30
0.0
 40
1.5
210
0.0
220
0.0
230
1.0
  0
LINE
  5
A3
100
AcDbEntity
  8
0
370
    35
390
0
 62
     7
 48
0.125
100
AcDbLine
 10
406.748413
 20
577.331177
 30
0.0
 11
411.748413
 21
577.331177
 31
0.0
210
0.0
220
0.0
230
1.0
  0
LINE
  5
A4
100
AcDbEntity
  8
0
370
    35
390
0
 62
     7
 48
0.144165
100
AcDbLine
 10
411.748413
 20
577.331177
 30
0.0
 11
411.748413
 21
571.564575
 31
0.0
210
0.0
220
0.0
230
1.0
  0
LINE
  5
A5
100
AcDbEntity
  8
0
370
    35
390
0
 62
     7
 48
0.125
100
AcDbLine
 10
411.748413
 20
571.564575
 30
0.0
 11
406.748413
 21
571.564575
 31
0.0
210
0.0
220
0.0
230
1.0
  0
LINE
  5
A6
100
AcDbEntity
  8
0
370
    35
390
0
 62
     7
 48
0.144165
100
AcDbLine
 10
406.748413
 20
571.564575
 30
0.0
 11
406.748413
 21
577.331177
 31
0.0
210
0.0
220
0.0
230
1.0
  0
CIRCLE
  5
A7
100
AcDbEntity
  8
0
370
    35
390
0
 62
     7
100
AcDbCircle
 10
551.99176
 20
778.950256
 30
0.0
 40
1.5
210
0.0
220
0.0
230
1.0
  0
CIRCLE
  5
A8
100
AcDbEntity
  8
0
370
    35
390
0
 62
     7
100
AcDbCircle
 10
551.99176
 20
621.517212
 30
0.0
 40
1.5
210
0.0
220
0.0
230
1.0
  0
CIRCLE
  5
A9
100
AcDbEntity
  8
0
370
    35
390
0
 62
     7
100
AcDbCircle
 10
341.968109
 20
621.517212
 30
0.0
 40
1.5
210
0.0
220
0.0
230
1.0
  0
CIRCLE
  5
AA
100
AcDbEntity
  8
0
370
    35
390
0
 62
     7
100
AcDbCircle
 10
341.968109
 20
778.950256
 30
0.0
 40
1.5
210
0.0
220
0.0
230
1.0
  0
CIRCLE
  5
AB
100
AcDbEntity
  8
0
370
    35
390
0
 62
     7
100
AcDbCircle
 10
446.97995
 20
738.542358
 30
0.0
 40
1.5
210
0.0
220
0.0
230
1.0
  0
LINE
  5
AC
100
AcDbEntity
  8
0
370
    35
390
0
 62
     7
 48
0.125
100
AcDbLine
 10
367.786865
 20
597.669556
 30
0.0
 11
367.786865
 21
602.669556
 31
0.0
210
0.0
220
0.0
230
1.0
  0
LINE
  5
AD
100
AcDbEntity
  8
0
370
    35
390
0
 62
     7
 48
0.186061
100
AcDbLine
 10
367.786865
 20
602.669556
 30
0.0
 11
375.229309
 21
602.669556
 31
0.0
210
0.0
220
0.0
230
1.0
  0
LINE
  5
AE
100
AcDbEntity
  8
0
370
    35
390
0
 62
     7
 48
0.125
100
AcDbLine
 10
375.229309
 20
602.669556
 30
0.0
 11
375.229309
 21
597.669556
 31
0.0
210
0.0
220
0.0
230
1.0
  0
LINE
  5
AF
100
AcDbEntity
  8
0
370
    35
390
0
 62
     7
 48
0.186061
100
AcDbLine
 10
375.229309
 20
597.669556
 30
0.0
 11
367.786865
 21
597.669556
 31
0.0
210
0.0
220
0.0
230
1.0
  0
CIRCLE
  5
B0
100
AcDbEntity
  8
0
370
    35
390
0
 62
     7
100
AcDbCircle
 10
468.710022
 20
707.937134
 30
0.0
 40
1.5
210
0.0
220
0.0
230
1.0
  0
CIRCLE
  5
B1
100
AcDbEntity
  8
0
370
    35
390
0
 62
     7
100
AcDbCircle
 10
468.710022
 20
687.669861
 30
0.0
 40
1.5
210
0.0
220
0.0
230
1.0
  0
CIRCLE
  5
B2
100
AcDbEntity
  8
0
370
    35
390
0
 62
     7
100
AcDbCircle
 10
418.568237
 20
687.669861
 30
0.0
 40
1.5
210
0.0
220
0.0
230
1.0
  0
CIRCLE
  5
B3
100
AcDbEntity
  8
0
370
    35
390
0
 62
     7
100
AcDbCircle
 10
418.568237
 20
707.937134
 30
0.0
 40
1.5
210
0.0
220
0.0
230
1.0
  0
LINE
  5
B4
100
AcDbEntity
  8
0
370
    35
390
0
 62
     7
 48
0.2
100
AcDbLine
 10
137.026794
 20
558.208435
 30
0.0
 11
145.026794
 21
558.208435
 31
0.0
210
0.0
220
0.0
230
1.0
  0
LINE
  5
B5
100
AcDbEntity
  8
0
370
    35
390
0
 62
     7
 48
0.1125
100
AcDbLine
 10
145.026794
 20
553.708435
 30
0.0
 11
145.026794
 21
558.208435
 31
0.0
210
0.0
220
0.0
230
1.0
  0
LINE
  5
B6
100
AcDbEntity
  8
0
370
    35
390
0
 62
     7
100
AcDbLine
 10
145.026794
 20
553.708435
 30
0.0
 11
173.491821
 21
553.708435
 31
0.0
210
0.0
220
0.0
230
1.0
  0
LINE
  5
B7
100
AcDbEntity
  8
0
370
    35
390
0
 62
     7
100
AcDbLine
 10
173.491821
 20
553.708435
 30
0.0
 11
173.491821
 21
508.708435
 31
0.0
210
0.0
220
0.0
230
1.0
  0
LINE
  5
B8
100
AcDbEntity
  8
0
370
    35
390
0
 62
     7
100
AcDbLine
 10
173.491821
 20
508.708435
 30
0.0
 11
26.534584
 21
508.708435
 31
0.0
210
0.0
220
0.0
230
1.0
  0
LINE
  5
B9
100
AcDbEntity
  8
0
370
    35
390
0
 62
     7
 48
0.246181
100
AcDbLine
 10
26.534584
 20
508.708435
 30
0.0
 11
16.687347
 21
508.708435
 31
0.0
210
0.0
220
0.0
230
1.0
  0
LINE
  5
BA
100
AcDbEntity
  8
0
370
    35
390
0
 62
     7
100
AcDbLine
 10
16.687347
 20
508.708435
 30
0.0
 11
16.687347
 21
549.208435
 31
0.0
210
0.0
220
0.0
230
1.0
  0
LINE
  5
BB
100
AcDbEntity
  8
0
370
    35
390
0
 62
     7
100
AcDbLine
 10
43.442078
 20
549.208435
 30
0.0
 11
16.687347
 21
549.208435
 31
0.0
210
0.0
220
0.0
230
1.0
  0
LINE
  5
BC
100
AcDbEntity
  8
0
370
    35
390
0
 62
     7
 48
0.287826
100
AcDbLine
 10
54.955124
 20
549.208435
 30
0.0
 11
43.442078
 21
549.208435
 31
0.0
210
0.0
220
0.0
230
1.0
  0
LINE
  5
BD
100
AcDbEntity
  8
0
370
    35
390
0
 62
     7
 48
0.1125
100
AcDbLine
 10
54.955124
 20
549.208435
 30
0.0
 11
54.955124
 21
553.708435
 31
0.0
210
0.0
220
0.0
230
1.0
  0
LINE
  5
BE
100
AcDbEntity
  8
0
370
    35
390
0
 62
     7
 48
0.203632
100
AcDbLine
 10
63.100403
 20
553.708435
 30
0.0
 11
54.955124
 21
553.708435
 31
0.0
210
0.0
220
0.0
230
1.0
  0
LINE
  5
BF
100
AcDbEntity
  8
0
370
    35
390
0
 62
     7
 48
0.1125
100
AcDbLine
 10
63.100403
 20
553.708435
 30
0.0
 11
63.100403
 21
558.208435
 31
0.0
210
0.0
220
0.0
230
1.0
  0
LINE
  5
C0
100
AcDbEntity
  8
0
370
    35
390
0
 62
     7
 48
0.2
100
AcDbLine
 10
63.100403
 20
558.208435
 30
0.0
 11
71.100403
 21
558.208435
 31
0.0
210
0.0
220
0.0
230
1.0
  0
LINE
  5
C1
100
AcDbEntity
  8
0
370
    35
390
0
 62
     7
 48
0.1125
100
AcDbLine
 10
71.100403
 20
553.708435
 30
0.0
 11
71.100403
 21
558.208435
 31
0.0
210
0.0
220
0.0
230
1.0
  0
LINE
  5
C2
100
AcDbEntity
  8
0
370
    35
390
0
 62
     7
 48
0.361216
100
AcDbLine
 10
85.549042
 20
553.708435
 30
0.0
 11
71.100403
 21
553.708435
 31
0.0
210
0.0
220
0.0
230
1.0
  0
LINE
  5
C3
100
AcDbEntity
  8
0
370
    35
390
0
 62
     7
 48
0.1125
100
AcDbLine
 10
85.549042
 20
553.708435
 30
0.0
 11
85.549042
 21
558.208435
 31
0.0
210
0.0
220
0.0
230
1.0
  0
LINE
  5
C4
100
AcDbEntity
  8
0
370
    35
390
0
 62
     7
 48
0.2
100
AcDbLine
 10
85.549042
 20
558.208435
 30
0.0
 11
93.549042
 21
558.208435
 31
0.0
210
0.0
220
0.0
230
1.0
  0
LINE
  5
C5
100
AcDbEntity
  8
0
370
    35
390
0
 62
     7
 48
0.1125
100
AcDbLine
 10
93.549042
 20
553.708435
 30
0.0
 11
93.549042
 21
558.208435
 31
0.0
210
0.0
220
0.0
230
1.0
  0
LINE
  5
C6
100
AcDbEntity
  8
0
370
    35
390
0
 62
     7
100
AcDbLine
 10
114.578156
 20
553.708435
 30
0.0
 11
93.549042
 21
553.708435
 31
0.0
210
0.0
220
0.0
230
1.0
  0
LINE
  5
C7
100
AcDbEntity
  8
0
370
    35
390
0
 62
     7
 48
0.1125
100
AcDbLine
 10
114.578156
 20
553.708435
 30
0.0
 11
114.578156
 21
558.208435
 31
0.0
210
0.0
220
0.0
230
1.0
  0
LINE
  5
C8
100
AcDbEntity
  8
0
370
    35
390
0
 62
     7
 48
0.2
100
AcDbLine
 10
114.578156
 20
558.208435
 30
0.0
 11
122.578156
 21
558.208435
 31
0.0
210
0.0
220
0.0
230
1.0
  0
LINE
  5
C9
100
AcDbEntity
  8
0
370
    35
390
0
 62
     7
 48
0.1125
100
AcDbLine
 10
122.578156
 20
553.708435
 30
0.0
 11
122.578156
 21
558.208435
 31
0.0
210
0.0
220
0.0
230
1.0
  0
LINE
  5
CA
100
AcDbEntity
  8
0
370
    35
390
0
 62
     7
 48
0.361216
100
AcDbLine
 10
137.026794
 20
553.708435
 30
0.0
 11
122.578156
 21
553.708435
 31
0.0
210
0.0
220
0.0
230
1.0
  0
LINE
  5
CB
100
AcDbEntity
  8
0
370
    35
390
0
 62
     7
 48
0.1125
100
AcDbLine
 10
137.026794
 20
553.708435
 30
0.0
 11
137.026794
 21
558.208435
 31
0.0
210
0.0
220
0.0
230
1.0
  0
LINE
  5
CC
100
AcDbEntity
  8
0
370
    35
390
0
 62
     7
 48
0.125
100
AcDbLine
 10
109.463531
 20
546.060303
 30
0.0
 11
104.463531
 21
546.060303
 31
0.0
210
0.0
220
0.0
230
1.0
  0
LINE
  5
CD
100
AcDbEntity
  8
0
370
    35
390
0
 62
     7
 48
0.180101
100
AcDbLine
 10
104.463531
 20
546.060303
 30
0.0
 11
104.463531
 21
538.856262
 31
0.0
210
0.0
220
0.0
230
1.0
  0
LINE
  5
CE
100
AcDbEntity
  8
0
370
    35
390
0
 62
     7
 48
0.125
100
AcDbLine
 10
104.463531
 20
538.856262
 30
0.0
 11
109.463531
 21
538.856262
 31
0.0
210
0.0
220
0.0
230
1.0
  0
LINE
  5
CF
100
AcDbEntity
  8
0
370
    35
390
0
 62
     7
 48
0.180101
100
AcDbLine
 10
109.463531
 20
538.856262
 30
0.0
 11
109.463531
 21
546.060303
 31
0.0
210
0.0
220
0.0
230
1.0
  0
LINE
  5
D0
100
AcDbEntity
  8
0
370
    35
390
0
 62
     7
 48
0.125
100
AcDbLine
 10
109.463531
 20
530.025574
 30
0.0
 11
104.463531
 21
530.025574
 31
0.0
210
0.0
220
0.0
230
1.0
  0
LINE
  5
D1
100
AcDbEntity
  8
0
370
    35
390
0
 62
     7
 48
0.180099
100
AcDbLine
 10
104.463531
 20
530.025574
 30
0.0
 11
104.463531
 21
522.821594
 31
0.0
210
0.0
220
0.0
230
1.0
  0
LINE
  5
D2
100
AcDbEntity
  8
0
370
    35
390
0
 62
     7
 48
0.125
100
AcDbLine
 10
104.463531
 20
522.821594
 30
0.0
 11
109.463531
 21
522.821594
 31
0.0
210
0.0
220
0.0
230
1.0
  0
LINE
  5
D3
100
AcDbEntity
  8
0
370
    35
390
0
 62
     7
 48
0.180099
100
AcDbLine
 10
109.463531
 20
522.821594
 30
0.0
 11
109.463531
 21
530.025574
 31
0.0
210
0.0
220
0.0
230
1.0
  0
LINE
  5
D4
100
AcDbEntity
  8
0
370
    35
390
0
 62
     7
 48
0.2
100
AcDbLine
 10
303.594696
 20
558.171814
 30
0.0
 11
311.594696
 21
558.171814
 31
0.0
210
0.0
220
0.0
230
1.0
  0
LINE
  5
D5
100
AcDbEntity
  8
0
370
    35
390
0
 62
     7
 48
0.1125
100
AcDbLine
 10
311.594696
 20
553.671814
 30
0.0
 11
311.594696
 21
558.171814
 31
0.0
210
0.0
220
0.0
230
1.0
  0
LINE
  5
D6
100
AcDbEntity
  8
0
370
    35
390
0
 62
     7
100
AcDbLine
 10
311.594696
 20
553.671814
 30
0.0
 11
340.059723
 21
553.671814
 31
0.0
210
0.0
220
0.0
230
1.0
  0
LINE
  5
D7
100
AcDbEntity
  8
0
370
    35
390
0
 62
     7
100
AcDbLine
 10
340.059723
 20
553.671814
 30
0.0
 11
340.059723
 21
508.671814
 31
0.0
210
0.0
220
0.0
230
1.0
  0
LINE
  5
D8
100
AcDbEntity
  8
0
370
    35
390
0
 62
     7
100
AcDbLine
 10
340.059723
 20
508.671814
 30
0.0
 11
193.102478
 21
508.671814
 31
0.0
210
0.0
220
0.0
230
1.0
  0
LINE
  5
D9
100
AcDbEntity
  8
0
370
    35
390
0
 62
     7
 48
0.246181
100
AcDbLine
 10
193.102478
 20
508.671814
 30
0.0
 11
183.255249
 21
508.671814
 31
0.0
210
0.0
220
0.0
230
1.0
  0
LINE
  5
DA
100
AcDbEntity
  8
0
370
    35
390
0
 62
     7
100
AcDbLine
 10
183.255249
 20
508.671814
 30
0.0
 11
183.255249
 21
549.171814
 31
0.0
210
0.0
220
0.0
230
1.0
  0
LINE
  5
DB
100
AcDbEntity
  8
0
370
    35
390
0
 62
     7
100
AcDbLine
 10
210.009979
 20
549.171814
 30
0.0
 11
183.255249
 21
549.171814
 31
0.0
210
0.0
220
0.0
230
1.0
  0
LINE
  5
DC
100
AcDbEntity
  8
0
370
    35
390
0
 62
     7
 48
0.287826
100
AcDbLine
 10
221.523026
 20
549.171814
 30
0.0
 11
210.009979
 21
549.171814
 31
0.0
210
0.0
220
0.0
230
1.0
  0
LINE
  5
DD
100
AcDbEntity
  8
0
370
    35
390
0
 62
     7
 48
0.1125
100
AcDbLine
 10
221.523026
 20
549.171814
 30
0.0
 11
221.523026
 21
553.671814
 31
0.0
210
0.0
220
0.0
230
1.0
  0
LINE
  5
DE
100
AcDbEntity
  8
0
370
    35
390
0
 62
     7
 48
0.203632
100
AcDbLine
 10
229.668304
 20
553.671814
 30
0.0
 11
221.523026
 21
553.671814
 31
0.0
210
0.0
220
0.0
230
1.0
  0
LINE
  5
DF
100
AcDbEntity
  8
0
370
    35
390
0
 62
     7
 48
0.1125
100
AcDbLine
 10
229.668304
 20
553.671814
 30
0.0
 11
229.668304
 21
558.171814
 31
0.0
210
0.0
220
0.0
230
1.0
  0
LINE
  5
E0
100
AcDbEntity
  8
0
370
    35
390
0
 62
     7
 48
0.2
100
AcDbLine
 10
229.668304
 20
558.171814
 30
0.0
 11
237.668304
 21
558.171814
 31
0.0
210
0.0
220
0.0
230
1.0
  0
LINE
  5
E1
100
AcDbEntity
  8
0
370
    35
390
0
 62
     7
 48
0.1125
100
AcDbLine
 10
237.668304
 20
553.671814
 30
0.0
 11
237.668304
 21
558.171814
 31
0.0
210
0.0
220
0.0
230
1.0
  0
LINE
  5
E2
100
AcDbEntity
  8
0
370
    35
390
0
 62
     7
 48
0.361216
100
AcDbLine
 10
252.116943
 20
553.671814
 30
0.0
 11
237.668304
 21
553.671814
 31
0.0
210
0.0
220
0.0
230
1.0
  0
LINE
  5
E3
100
AcDbEntity
  8
0
370
    35
390
0
 62
     7
 48
0.1125
100
AcDbLine
 10
252.116943
 20
553.671814
 30
0.0
 11
252.116943
 21
558.171814
 31
0.0
210
0.0
220
0.0
230
1.0
  0
LINE
  5
E4
100
AcDbEntity
  8
0
370
    35
390
0
 62
     7
 48
0.2
100
AcDbLine
 10
252.116943
 20
558.171814
 30
0.0
 11
260.116943
 21
558.171814
 31
0.0
210
0.0
220
0.0
230
1.0
  0
LINE
  5
E5
100
AcDbEntity
  8
0
370
    35
390
0
 62
     7
 48
0.1125
100
AcDbLine
 10
260.116943
 20
553.671814
 30
0.0
 11
260.116943
 21
558.171814
 31
0.0
210
0.0
220
0.0
230
1.0
  0
LINE
  5
E6
100
AcDbEntity
  8
0
370
    35
390
0
 62
     7
100
AcDbLine
 10
281.146057
 20
553.671814
 30
0.0
 11
260.116943
 21
553.671814
 31
0.0
210
0.0
220
0.0
230
1.0
  0
LINE
  5
E7
100
AcDbEntity
  8
0
370
    35
390
0
 62
     7
 48
0.1125
100
AcDbLine
 10
281.146057
 20
553.671814
 30
0.0
 11
281.146057
 21
558.171814
 31
0.0
210
0.0
220
0.0
230
1.0
  0
LINE
  5
E8
100
AcDbEntity
  8
0
370
    35
390
0
 62
     7
 48
0.2
100
AcDbLine
 10
281.146057
 20
558.171814
 30
0.0
 11
289.146057
 21
558.171814
 31
0.0
210
0.0
220
0.0
230
1.0
  0
LINE
  5
E9
100
AcDbEntity
  8
0
370
    35
390
0
 62
     7
 48
0.1125
100
AcDbLine
 10
289.146057
 20
553.671814
 30
0.0
 11
289.146057
 21
558.171814
 31
0.0
210
0.0
220
0.0
230
1.0
  0
LINE
  5
EA
100
AcDbEntity
  8
0
370
    35
390
0
 62
     7
 48
0.361216
100
AcDbLine
 10
303.594696
 20
553.671814
 30
0.0
 11
289.146057
 21
553.671814
 31
0.0
210
0.0
220
0.0
230
1.0
  0
LINE
  5
EB
100
AcDbEntity
  8
0
370
    35
390
0
 62
     7
 48
0.1125
100
AcDbLine
 10
303.594696
 20
553.671814
 30
0.0
 11
303.594696
 21
558.171814
 31
0.0
210
0.0
220
0.0
230
1.0
  0
LINE
  5
EC
100
AcDbEntity
  8
0
370
    35
390
0
 62
     7
 48
0.125
100
AcDbLine
 10
276.031433
 20
546.023682
 30
0.0
 11
271.031433
 21
546.023682
 31
0.0
210
0.0
220
0.0
230
1.0
  0
LINE
  5
ED
100
AcDbEntity
  8
0
370
    35
390
0
 62
     7
 48
0.180101
100
AcDbLine
 10
271.031433
 20
546.023682
 30
0.0
 11
271.031433
 21
538.819641
 31
0.0
210
0.0
220
0.0
230
1.0
  0
LINE
  5
EE
100
AcDbEntity
  8
0
370
    35
390
0
 62
     7
 48
0.125
100
AcDbLine
 10
271.031433
 20
538.819641
 30
0.0
 11
276.031433
 21
538.819641
 31
0.0
210
0.0
220
0.0
230
1.0
  0
LINE
  5
EF
100
AcDbEntity
  8
0
370
    35
390
0
 62
     7
 48
0.180101
100
AcDbLine
 10
276.031433
 20
538.819641
 30
0.0
 11
276.031433
 21
546.023682
 31
0.0
210
0.0
220
0.0
230
1.0
  0
LINE
  5
F0
100
AcDbEntity
  8
0
370
    35
390
0
 62
     7
 48
0.125
100
AcDbLine
 10
276.031433
 20
529.988953
 30
0.0
 11
271.031433
 21
529.988953
 31
0.0
210
0.0
220
0.0
230
1.0
  0
LINE
  5
F1
100
AcDbEntity
  8
0
370
    35
390
0
 62
     7
 48
0.180099
100
AcDbLine
 10
271.031433
 20
529.988953
 30
0.0
 11
271.031433
 21
522.784973
 31
0.0
210
0.0
220
0.0
230
1.0
  0
LINE
  5
F2
100
AcDbEntity
  8
0
370
    35
390
0
 62
     7
 48
0.125
100
AcDbLine
 10
271.031433
 20
522.784973
 30
0.0
 11
276.031433
 21
522.784973
 31
0.0
210
0.0
220
0.0
230
1.0
  0
LINE
  5
F3
100
AcDbEntity
  8
0
370
    35
390
0
 62
     7
 48
0.180099
100
AcDbLine
 10
276.031433
 20
522.784973
 30
0.0
 11
276.031433
 21
529.988953
 31
0.0
210
0.0
220
0.0
230
1.0
  0
LINE
  5
F4
100
AcDbEntity
  8
0
370
    35
390
0
 62
     7
 48
0.1125
100
AcDbLine
 10
357.14505
 20
549.297913
 30
0.0
 11
357.14505
 21
553.797913
 31
0.0
210
0.0
220
0.0
230
1.0
  0
LINE
  5
F5
100
AcDbEntity
  8
0
370
    35
390
0
 62
     7
 48
0.191859
100
AcDbLine
 10
349.470703
 20
549.297913
 30
0.0
 11
357.14505
 21
549.297913
 31
0.0
210
0.0
220
0.0
230
1.0
  0
LINE
  5
F6
100
AcDbEntity
  8
0
370
    35
390
0
 62
     7
 48
0.191203
100
AcDbLine
 10
349.470703
 20
541.64978
 30
0.0
 11
349.470703
 21
549.297913
 31
0.0
210
0.0
220
0.0
230
1.0
  0
LINE
  5
F7
100
AcDbEntity
  8
0
370
    35
390
0
 62
     7
 48
0.125
100
AcDbLine
 10
349.470703
 20
541.64978
 30
0.0
 11
344.470703
 21
541.64978
 31
0.0
210
0.0
220
0.0
230
1.0
  0
LINE
  5
F8
100
AcDbEntity
  8
0
370
    35
390
0
 62
     7
 48
0.180101
100
AcDbLine
 10
344.470703
 20
534.44574
 30
0.0
 11
344.470703
 21
541.64978
 31
0.0
210
0.0
220
0.0
230
1.0
  0
LINE
  5
F9
100
AcDbEntity
  8
0
370
    35
390
0
 62
     7
 48
0.125
100
AcDbLine
 10
349.470703
 20
534.44574
 30
0.0
 11
344.470703
 21
534.44574
 31
0.0
210
0.0
220
0.0
230
1.0
  0
LINE
  5
FA
100
AcDbEntity
  8
0
370
    35
390
0
 62
     7
 48
0.220767
100
AcDbLine
 10
349.470703
 20
534.44574
 30
0.0
 11
349.470703
 21
525.615051
 31
0.0
210
0.0
220
0.0
230
1.0
  0
LINE
  5
FB
100
AcDbEntity
  8
0
370
    35
390
0
 62
     7
 48
0.125
100
AcDbLine
 10
349.470703
 20
525.615051
 30
0.0
 11
344.470703
 21
525.615051
 31
0.0
210
0.0
220
0.0
230
1.0
  0
LINE
  5
FC
100
AcDbEntity
  8
0
370
    35
390
0
 62
     7
 48
0.180099
100
AcDbLine
 10
344.470703
 20
518.411072
 30
0.0
 11
344.470703
 21
525.615051
 31
0.0
210
0.0
220
0.0
230
1.0
  0
LINE
  5
FD
100
AcDbEntity
  8
0
370
    35
390
0
 62
     7
 48
0.125
100
AcDbLine
 10
349.470703
 20
518.411072
 30
0.0
 11
344.470703
 21
518.411072
 31
0.0
210
0.0
220
0.0
230
1.0
  0
LINE
  5
FE
100
AcDbEntity
  8
0
370
    35
390
0
 62
     7
 48
0.156749
100
AcDbLine
 10
349.470703
 20
512.141113
 30
0.0
 11
349.470703
 21
518.411072
 31
0.0
210
0.0
220
0.0
230
1.0
  0
LINE
  5
FF
100
AcDbEntity
  8
0
370
    35
390
0
 62
     7
100
AcDbLine
 10
379.187714
 20
549.297913
 30
0.0
 11
349.470703
 21
512.141113
 31
0.0
210
0.0
220
0.0
230
1.0
  0
LINE
  5
100
100
AcDbEntity
  8
0
370
    35
390
0
 62
     7
 48
0.176812
100
AcDbLine
 10
372.115234
 20
549.297913
 30
0.0
 11
379.187714
 21
549.297913
 31
0.0
210
0.0
220
0.0
230
1.0
  0
LINE
  5
101
100
AcDbEntity
  8
0
370
    35
390
0
 62
     7
 48
0.1125
100
AcDbLine
 10
372.115234
 20
549.297913
 30
0.0
 11
372.115234
 21
553.797913
 31
0.0
210
0.0
220
0.0
230
1.0
  0
LINE
  5
102
100
AcDbEntity
  8
0
370
    35
390
0
 62
     7
 48
0.125
100
AcDbLine
 10
367.115234
 20
553.797913
 30
0.0
 11
372.115234
 21
553.797913
 31
0.0
210
0.0
220
0.0
230
1.0
  0
LINE
  5
103
100
AcDbEntity
  8
0
370
    35
390
0
 62
     7
 48
0.1125
100
AcDbLine
 10
367.115234
 20
549.297913
 30
0.0
 11
367.115234
 21
553.797913
 31
0.0
210
0.0
220
0.0
230
1.0
  0
LINE
  5
104
100
AcDbEntity
  8
0
370
    35
390
0
 62
     7
 48
0.124255
100
AcDbLine
 10
367.115234
 20
549.297913
 30
0.0
 11
362.14505
 21
549.297913
 31
0.0
210
0.0
220
0.0
230
1.0
  0
LINE
  5
105
100
AcDbEntity
  8
0
370
    35
390
0
 62
     7
 48
0.1125
100
AcDbLine
 10
362.14505
 20
549.297913
 30
0.0
 11
362.14505
 21
553.797913
 31
0.0
210
0.0
220
0.0
230
1.0
  0
LINE
  5
106
100
AcDbEntity
  8
0
370
    35
390
0
 62
     7
 48
0.125
100
AcDbLine
 10
357.14505
 20
553.797913
 30
0.0
 11
362.14505
 21
553.797913
 31
0.0
210
0.0
220
0.0
230
1.0
  0
LINE
  5
107
100
AcDbEntity
  8
0
370
    35
390
0
 62
     7
 48
0.1125
100
AcDbLine
 10
392.752045
 20
548.716492
 30
0.0
 11
392.752045
 21
553.216492
 31
0.0
210
0.0
220
0.0
230
1.0
  0
LINE
  5
108
100
AcDbEntity
  8
0
370
    35
390
0
 62
     7
 48
0.191859
100
AcDbLine
 10
385.077698
 20
548.716492
 30
0.0
 11
392.752045
 21
548.716492
 31
0.0
210
0.0
220
0.0
230
1.0
  0
LINE
  5
109
100
AcDbEntity
  8
0
370
    35
390
0
 62
     7
 48
0.191203
100
AcDbLine
 10
385.077698
 20
541.068359
 30
0.0
 11
385.077698
 21
548.716492
 31
0.0
210
0.0
220
0.0
230
1.0
  0
LINE
  5
10A
100
AcDbEntity
  8
0
370
    35
390
0
 62
     7
 48
0.125
100
AcDbLine
 10
385.077698
 20
541.068359
 30
0.0
 11
380.077698
 21
541.068359
 31
0.0
210
0.0
220
0.0
230
1.0
  0
LINE
  5
10B
100
AcDbEntity
  8
0
370
    35
390
0
 62
     7
 48
0.180101
100
AcDbLine
 10
380.077698
 20
533.864319
 30
0.0
 11
380.077698
 21
541.068359
 31
0.0
210
0.0
220
0.0
230
1.0
  0
LINE
  5
10C
100
AcDbEntity
  8
0
370
    35
390
0
 62
     7
 48
0.125
100
AcDbLine
 10
385.077698
 20
533.864319
 30
0.0
 11
380.077698
 21
533.864319
 31
0.0
210
0.0
220
0.0
230
1.0
  0
LINE
  5
10D
100
AcDbEntity
  8
0
370
    35
390
0
 62
     7
 48
0.220767
100
AcDbLine
 10
385.077698
 20
533.864319
 30
0.0
 11
385.077698
 21
525.03363
 31
0.0
210
0.0
220
0.0
230
1.0
  0
LINE
  5
10E
100
AcDbEntity
  8
0
370
    35
390
0
 62
     7
 48
0.125
100
AcDbLine
 10
385.077698
 20
525.03363
 30
0.0
 11
380.077698
 21
525.03363
 31
0.0
210
0.0
220
0.0
230
1.0
  0
LINE
  5
10F
100
AcDbEntity
  8
0
370
    35
390
0
 62
     7
 48
0.180099
100
AcDbLine
 10
380.077698
 20
517.829651
 30
0.0
 11
380.077698
 21
525.03363
 31
0.0
210
0.0
220
0.0
230
1.0
  0
LINE
  5
110
100
AcDbEntity
  8
0
370
    35
390
0
 62
     7
 48
0.125
100
AcDbLine
 10
385.077698
 20
517.829651
 30
0.0
 11
380.077698
 21
517.829651
 31
0.0
210
0.0
220
0.0
230
1.0
  0
LINE
  5
111
100
AcDbEntity
  8
0
370
    35
390
0
 62
     7
 48
0.15675
100
AcDbLine
 10
385.077698
 20
511.559662
 30
0.0
 11
385.077698
 21
517.829651
 31
0.0
210
0.0
220
0.0
230
1.0
  0
LINE
  5
112
100
AcDbEntity
  8
0
370
    35
390
0
 62
     7
100
AcDbLine
 10
414.794708
 20
548.716492
 30
0.0
 11
385.077698
 21
511.559662
 31
0.0
210
0.0
220
0.0
230
1.0
  0
LINE
  5
113
100
AcDbEntity
  8
0
370
    35
390
0
 62
     7
 48
0.176812
100
AcDbLine
 10
407.722229
 20
548.716492
 30
0.0
 11
414.794708
 21
548.716492
 31
0.0
210
0.0
220
0.0
230
1.0
  0
LINE
  5
114
100
AcDbEntity
  8
0
370
    35
390
0
 62
     7
 48
0.1125
100
AcDbLine
 10
407.722229
 20
548.716492
 30
0.0
 11
407.722229
 21
553.216492
 31
0.0
210
0.0
220
0.0
230
1.0
  0
LINE
  5
115
100
AcDbEntity
  8
0
370
    35
390
0
 62
     7
 48
0.125
100
AcDbLine
 10
402.722229
 20
553.216492
 30
0.0
 11
407.722229
 21
553.216492
 31
0.0
210
0.0
220
0.0
230
1.0
  0
LINE
  5
116
100
AcDbEntity
  8
0
370
    35
390
0
 62
     7
 48
0.1125
100
AcDbLine
 10
402.722229
 20
548.716492
 30
0.0
 11
402.722229
 21
553.216492
 31
0.0
210
0.0
220
0.0
230
1.0
  0
LINE
  5
117
100
AcDbEntity
  8
0
370
    35
390
0
 62
     7
 48
0.124255
100
AcDbLine
 10
402.722229
 20
548.716492
 30
0.0
 11
397.752045
 21
548.716492
 31
0.0
210
0.0
220
0.0
230
1.0
  0
LINE
  5
118
100
AcDbEntity
  8
0
370
    35
390
0
 62
     7
 48
0.1125
100
AcDbLine
 10
397.752045
 20
548.716492
 30
0.0
 11
397.752045
 21
553.216492
 31
0.0
210
0.0
220
0.0
230
1.0
  0
LINE
  5
119
100
AcDbEntity
  8
0
370
    35
390
0
 62
     7
 48
0.125
100
AcDbLine
 10
392.752045
 20
553.216492
 30
0.0
 11
397.752045
 21
553.216492
 31
0.0
210
0.0
220
0.0
230
1.0
  0
LINE
  5
11A
100
AcDbEntity
  8
0
370
    35
390
0
 62
     7
 48
0.475
100
AcDbLine
 10
554.683838
 20
563.38031
 30
0.0
 11
573.683838
 21
563.38031
 31
0.0
210
0.0
220
0.0
230
1.0
  0
LINE
  5
11B
100
AcDbEntity
  8
0
370
    35
390
0
 62
     7
 48
0.341443
100
AcDbLine
 10
573.683838
 20
563.38031
 30
0.0
 11
587.341553
 21
563.38031
 31
0.0
210
0.0
220
0.0
230
1.0
  0
LINE
  5
11C
100
AcDbEntity
  8
0
370
    35
390
0
 62
     7
 48
0.2
100
AcDbLine
 10
587.341553
 20
563.38031
 30
0.0
 11
587.341553
 21
555.38031
 31
0.0
210
0.0
220
0.0
230
1.0
  0
LINE
  5
11D
100
AcDbEntity
  8
0
370
    35
390
0
 62
     7
 48
0.125
100
AcDbLine
 10
587.341553
 20
555.38031
 30
0.0
 11
582.341553
 21
555.38031
 31
0.0
210
0.0
220
0.0
230
1.0
  0
LINE
  5
11E
100
AcDbEntity
  8
0
370
    35
390
0
 62
     7
 48
0.125
100
AcDbLine
 10
582.341553
 20
555.38031
 30
0.0
 11
582.341553
 21
550.38031
 31
0.0
210
0.0
220
0.0
230
1.0
  0
LINE
  5
11F
100
AcDbEntity
  8
0
370
    35
390
0
 62
     7
 48
0.125
100
AcDbLine
 10
582.341553
 20
550.38031
 30
0.0
 11
587.341553
 21
550.38031
 31
0.0
210
0.0
220
0.0
230
1.0
  0
LINE
  5
120
100
AcDbEntity
  8
0
370
    35
390
0
 62
     7
 48
0.118877
100
AcDbLine
 10
587.341553
 20
550.38031
 30
0.0
 11
587.341553
 21
545.625244
 31
0.0
210
0.0
220
0.0
230
1.0
  0
LINE
  5
121
100
AcDbEntity
  8
0
370
    35
390
0
 62
     7
 48
0.125
100
AcDbLine
 10
587.341553
 20
545.625244
 30
0.0
 11
582.341553
 21
545.625244
 31
0.0
210
0.0
220
0.0
230
1.0
  0
LINE
  5
122
100
AcDbEntity
  8
0
370
    35
390
0
 62
     7
 48
0.125
100
AcDbLine
 10
582.341553
 20
545.625244
 30
0.0
 11
582.341553
 21
540.625244
 31
0.0
210
0.0
220
0.0
230
1.0
  0
LINE
  5
123
100
AcDbEntity
  8
0
370
    35
390
0
 62
     7
 48
0.125
100
AcDbLine
 10
582.341553
 20
540.625244
 30
0.0
 11
587.341553
 21
540.625244
 31
0.0
210
0.0
220
0.0
230
1.0
  0
LINE
  5
124
100
AcDbEntity
  8
0
370
    35
390
0
 62
     7
 48
0.156123
100
AcDbLine
 10
587.341553
 20
540.625244
 30
0.0
 11
587.341553
 21
534.38031
 31
0.0
210
0.0
220
0.0
230
1.0
  0
LINE
  5
125
100
AcDbEntity
  8
0
370
    35
390
0
 62
     7
 48
0.341443
100
AcDbLine
 10
573.683838
 20
534.38031
 30
0.0
 11
587.341553
 21
534.38031
 31
0.0
210
0.0
220
0.0
230
1.0
  0
LINE
  5
126
100
AcDbEntity
  8
0
370
    35
390
0
 62
     7
100
AcDbLine
 10
573.683838
 20
534.38031
 30
0.0
 11
573.683838
 21
555.38031
 31
0.0
210
0.0
220
0.0
230
1.0
  0
LINE
  5
127
100
AcDbEntity
  8
0
370
    35
390
0
 62
     7
 48
0.475
100
AcDbLine
 10
554.683838
 20
555.38031
 30
0.0
 11
573.683838
 21
555.38031
 31
0.0
210
0.0
220
0.0
230
1.0
  0
LINE
  5
128
100
AcDbEntity
  8
0
370
    35
390
0
 62
     7
100
AcDbLine
 10
554.683838
 20
534.38031
 30
0.0
 11
554.683838
 21
555.38031
 31
0.0
210
0.0
220
0.0
230
1.0
  0
LINE
  5
129
100
AcDbEntity
  8
0
370
    35
390
0
 62
     7
 48
0.1625
100
AcDbLine
 10
548.183838
 20
534.38031
 30
0.0
 11
554.683838
 21
534.38031
 31
0.0
210
0.0
220
0.0
230
1.0
  0
LINE
  5
12A
100
AcDbEntity
  8
0
370
    35
390
0
 62
     7
100
AcDbLine
 10
548.183838
 20
563.38031
 30
0.0
 11
548.183838
 21
534.38031
 31
0.0
210
0.0
220
0.0
230
1.0
  0
LINE
  5
12B
100
AcDbEntity
  8
0
370
    35
390
0
 62
     7
 48
0.1625
100
AcDbLine
 10
554.683838
 20
563.38031
 30
0.0
 11
548.183838
 21
563.38031
 31
0.0
210
0.0
220
0.0
230
1.0
  0
CIRCLE
  5
12C
100
AcDbEntity
  8
0
370
    35
390
0
 62
     7
100
AcDbCircle
 10
558.683838
 20
559.38031
 30
0.0
 40
1.5
210
0.0
220
0.0
230
1.0
  0
CIRCLE
  5
12D
100
AcDbEntity
  8
0
370
    35
390
0
 62
     7
100
AcDbCircle
 10
569.683838
 20
559.38031
 30
0.0
 40
1.5
210
0.0
220
0.0
230
1.0
  0
LINE
  5
12E
100
AcDbEntity
  8
0
370
    35
390
0
 62
     7
 48
0.1625
100
AcDbLine
 10
548.183838
 20
529.38031
 30
0.0
 11
554.683838
 21
529.38031
 31
0.0
210
0.0
220
0.0
230
1.0
  0
LINE
  5
12F
100
AcDbEntity
  8
0
370
    35
390
0
 62
     7
 48
0.35
100
AcDbLine
 10
554.683838
 20
529.38031
 30
0.0
 11
554.683838
 21
515.38031
 31
0.0
210
0.0
220
0.0
230
1.0
  0
LINE
  5
130
100
AcDbEntity
  8
0
370
    35
390
0
 62
     7
 48
0.475
100
AcDbLine
 10
554.683838
 20
515.38031
 30
0.0
 11
573.683838
 21
515.38031
 31
0.0
210
0.0
220
0.0
230
1.0
  0
LINE
  5
131
100
AcDbEntity
  8
0
370
    35
390
0
 62
     7
 48
0.35
100
AcDbLine
 10
573.683838
 20
515.38031
 30
0.0
 11
573.683838
 21
529.38031
 31
0.0
210
0.0
220
0.0
230
1.0
  0
LINE
  5
132
100
AcDbEntity
  8
0
370
    35
390
0
 62
     7
100
AcDbLine
 10
573.683838
 20
529.38031
 30
0.0
 11
594.143127
 21
529.38031
 31
0.0
210
0.0
220
0.0
230
1.0
  0
LINE
  5
133
100
AcDbEntity
  8
0
370
    35
390
0
 62
     7
100
AcDbLine
 10
594.143127
 20
529.38031
 30
0.0
 11
594.143127
 21
507.38031
 31
0.0
210
0.0
220
0.0
230
1.0
  0
LINE
  5
134
100
AcDbEntity
  8
0
370
    35
390
0
 62
     7
100
AcDbLine
 10
594.143127
 20
507.38031
 30
0.0
 11
548.183838
 21
507.38031
 31
0.0
210
0.0
220
0.0
230
1.0
  0
LINE
  5
135
100
AcDbEntity
  8
0
370
    35
390
0
 62
     7
100
AcDbLine
 10
548.183838
 20
507.38031
 30
0.0
 11
548.183838
 21
529.38031
 31
0.0
210
0.0
220
0.0
230
1.0
  0
CIRCLE
  5
136
100
AcDbEntity
  8
0
370
    35
390
0
 62
     7
100
AcDbCircle
 10
558.683838
 20
511.38031
 30
0.0
 40
1.5
210
0.0
220
0.0
230
1.0
  0
CIRCLE
  5
137
100
AcDbEntity
  8
0
370
    35
390
0
 62
     7
100
AcDbCircle
 10
569.683838
 20
511.38031
 30
0.0
 40
1.5
210
0.0
220
0.0
230
1.0
  0
LINE
  5
138
100
AcDbEntity
  8
0
370
    35
390
0
 62
     7
 48
0.125
100
AcDbLine
 10
582.341553
 20
524.013733
 30
0.0
 11
582.341553
 21
519.013733
 31
0.0
210
0.0
220
0.0
230
1.0
  0
LINE
  5
139
100
AcDbEntity
  8
0
370
    35
390
0
 62
     7
 48
0.125
100
AcDbLine
 10
582.341553
 20
519.013733
 30
0.0
 11
587.341553
 21
519.013733
 31
0.0
210
0.0
220
0.0
230
1.0
  0
LINE
  5
13A
100
AcDbEntity
  8
0
370
    35
390
0
 62
     7
 48
0.125
100
AcDbLine
 10
587.341553
 20
519.013733
 30
0.0
 11
587.341553
 21
524.013733
 31
0.0
210
0.0
220
0.0
230
1.0
  0
LINE
  5
13B
100
AcDbEntity
  8
0
370
    35
390
0
 62
     7
 48
0.125
100
AcDbLine
 10
587.341553
 20
524.013733
 30
0.0
 11
582.341553
 21
524.013733
 31
0.0
210
0.0
220
0.0
230
1.0
  0
LINE
  5
13C
100
AcDbEntity
  8
0
370
    35
390
0
 62
     7
 48
0.125
100
AcDbLine
 10
520.56958
 20
551.227417
 30
0.0
 11
515.56958
 21
551.227417
 31
0.0
210
0.0
220
0.0
230
1.0
  0
LINE
  5
13D
100
AcDbEntity
  8
0
370
    35
390
0
 62
     7
 48
0.146457
100
AcDbLine
 10
520.56958
 20
551.227417
 30
0.0
 11
520.56958
 21
557.085693
 31
0.0
210
0.0
220
0.0
230
1.0
  0
LINE
  5
13E
100
AcDbEntity
  8
0
370
    35
390
0
 62
     7
 48
0.175592
100
AcDbLine
 10
520.56958
 20
557.085693
 30
0.0
 11
527.593262
 21
557.085693
 31
0.0
210
0.0
220
0.0
230
1.0
  0
LINE
  5
13F
100
AcDbEntity
  8
0
370
    35
390
0
 62
     7
 48
0.153731
100
AcDbLine
 10
527.593262
 20
557.085693
 30
0.0
 11
529.462463
 21
551.227417
 31
0.0
210
0.0
220
0.0
230
1.0
  0
LINE
  5
140
100
AcDbEntity
  8
0
370
    35
390
0
 62
     7
100
AcDbLine
 10
529.462463
 20
551.227417
 30
0.0
 11
536.162964
 21
530.227417
 31
0.0
210
0.0
220
0.0
230
1.0
  0
LINE
  5
141
100
AcDbEntity
  8
0
370
    35
390
0
 62
     7
 48
0.13208
100
AcDbLine
 10
536.162964
 20
530.227417
 30
0.0
 11
530.879761
 21
530.227417
 31
0.0
210
0.0
220
0.0
230
1.0
  0
LINE
  5
142
100
AcDbEntity
  8
0
370
    35
390
0
 62
     7
 48
0.125
100
AcDbLine
 10
530.879761
 20
525.227417
 30
0.0
 11
530.879761
 21
530.227417
 31
0.0
210
0.0
220
0.0
230
1.0
  0
LINE
  5
143
100
AcDbEntity
  8
0
370
    35
390
0
 62
     7
 48
0.125
100
AcDbLine
 10
525.879761
 20
525.227417
 30
0.0
 11
530.879761
 21
525.227417
 31
0.0
210
0.0
220
0.0
230
1.0
  0
LINE
  5
144
100
AcDbEntity
  8
0
370
    35
390
0
 62
     7
 48
0.125
100
AcDbLine
 10
525.879761
 20
525.227417
 30
0.0
 11
525.879761
 21
530.227417
 31
0.0
210
0.0
220
0.0
230
1.0
  0
LINE
  5
145
100
AcDbEntity
  8
0
370
    35
390
0
 62
     7
 48
0.132755
100
AcDbLine
 10
525.879761
 20
530.227417
 30
0.0
 11
520.56958
 21
530.227417
 31
0.0
210
0.0
220
0.0
230
1.0
  0
LINE
  5
146
100
AcDbEntity
  8
0
370
    35
390
0
 62
     7
 48
0.156123
100
AcDbLine
 10
520.56958
 20
530.227417
 30
0.0
 11
520.56958
 21
536.472351
 31
0.0
210
0.0
220
0.0
230
1.0
  0
LINE
  5
147
100
AcDbEntity
  8
0
370
    35
390
0
 62
     7
 48
0.125
100
AcDbLine
 10
520.56958
 20
536.472351
 30
0.0
 11
515.56958
 21
536.472351
 31
0.0
210
0.0
220
0.0
230
1.0
  0
LINE
  5
148
100
AcDbEntity
  8
0
370
    35
390
0
 62
     7
 48
0.125
100
AcDbLine
 10
515.56958
 20
541.472351
 30
0.0
 11
515.56958
 21
536.472351
 31
0.0
210
0.0
220
0.0
230
1.0
  0
LINE
  5
149
100
AcDbEntity
  8
0
370
    35
390
0
 62
     7
 48
0.125
100
AcDbLine
 10
520.56958
 20
541.472351
 30
0.0
 11
515.56958
 21
541.472351
 31
0.0
210
0.0
220
0.0
230
1.0
  0
LINE
  5
14A
100
AcDbEntity
  8
0
370
    35
390
0
 62
     7
 48
0.118877
100
AcDbLine
 10
520.56958
 20
546.227417
 30
0.0
 11
520.56958
 21
541.472351
 31
0.0
210
0.0
220
0.0
230
1.0
  0
LINE
  5
14B
100
AcDbEntity
  8
0
370
    35
390
0
 62
     7
 48
0.125
100
AcDbLine
 10
520.56958
 20
546.227417
 30
0.0
 11
515.56958
 21
546.227417
 31
0.0
210
0.0
220
0.0
230
1.0
  0
LINE
  5
14C
100
AcDbEntity
  8
0
370
    35
390
0
 62
     7
 48
0.125
100
AcDbLine
 10
515.56958
 20
551.227417
 30
0.0
 11
515.56958
 21
546.227417
 31
0.0
210
0.0
220
0.0
230
1.0
  0
LINE
  5
14D
100
AcDbEntity
  8
0
370
    35
390
0
 62
     7
 48
0.125
100
AcDbLine
 10
530.84668
 20
515.764099
 30
0.0
 11
525.84668
 21
515.764099
 31
0.0
210
0.0
220
0.0
230
1.0
  0
LINE
  5
14E
100
AcDbEntity
  8
0
370
    35
390
0
 62
     7
 48
0.134164
100
AcDbLine
 10
525.84668
 20
521.130676
 30
0.0
 11
525.84668
 21
515.764099
 31
0.0
210
0.0
220
0.0
230
1.0
  0
LINE
  5
14F
100
AcDbEntity
  8
0
370
    35
390
0
 62
     7
 48
0.132755
100
AcDbLine
 10
520.536499
 20
521.130676
 30
0.0
 11
525.84668
 21
521.130676
 31
0.0
210
0.0
220
0.0
230
1.0
  0
LINE
  5
150
100
AcDbEntity
  8
0
370
    35
390
0
 62
     7
 48
0.125
100
AcDbLine
 10
520.536499
 20
521.130676
 30
0.0
 11
520.536499
 21
526.130676
 31
0.0
210
0.0
220
0.0
230
1.0
  0
LINE
  5
151
100
AcDbEntity
  8
0
370
    35
390
0
 62
     7
 48
0.125
100
AcDbLine
 10
515.536499
 20
526.130676
 30
0.0
 11
520.536499
 21
526.130676
 31
0.0
210
0.0
220
0.0
230
1.0
  0
LINE
  5
152
100
AcDbEntity
  8
0
370
    35
390
0
 62
     7
 48
0.125
100
AcDbLine
 10
515.536499
 20
521.130676
 30
0.0
 11
515.536499
 21
526.130676
 31
0.0
210
0.0
220
0.0
230
1.0
  0
LINE
  5
153
100
AcDbEntity
  8
0
370
    35
390
0
 62
     7
 48
0.174892
100
AcDbLine
 10
508.540802
 20
521.130676
 30
0.0
 11
515.536499
 21
521.130676
 31
0.0
210
0.0
220
0.0
230
1.0
  0
LINE
  5
154
100
AcDbEntity
  8
0
370
    35
390
0
 62
     7
100
AcDbLine
 10
515.252747
 20
501.376007
 30
0.0
 11
508.540802
 21
521.130676
 31
0.0
210
0.0
220
0.0
230
1.0
  0
LINE
  5
155
100
AcDbEntity
  8
0
370
    35
390
0
 62
     7
 48
0.264848
100
AcDbLine
 10
525.84668
 20
501.376007
 30
0.0
 11
515.252747
 21
501.376007
 31
0.0
210
0.0
220
0.0
230
1.0
  0
LINE
  5
156
100
AcDbEntity
  8
0
370
    35
390
0
 62
     7
 48
0.234702
100
AcDbLine
 10
525.84668
 20
510.764099
 30
0.0
 11
525.84668
 21
501.376007
 31
0.0
210
0.0
220
0.0
230
1.0
  0
LINE
  5
157
100
AcDbEntity
  8
0
370
    35
390
0
 62
     7
 48
0.125
100
AcDbLine
 10
530.84668
 20
510.764099
 30
0.0
 11
525.84668
 21
510.764099
 31
0.0
210
0.0
220
0.0
230
1.0
  0
LINE
  5
158
100
AcDbEntity
  8
0
370
    35
390
0
 62
     7
 48
0.125
100
AcDbLine
 10
530.84668
 20
515.764099
 30
0.0
 11
530.84668
 21
510.764099
 31
0.0
210
0.0
220
0.0
230
1.0
  0
LINE
  5
159
100
AcDbEntity
  8
0
370
    35
390
0
 62
     7
 48
0.422282
100
AcDbLine
 10
504.040161
 20
560.937317
 30
0.0
 11
504.040161
 21
544.046021
 31
0.0
210
0.0
220
0.0
230
1.0
  0
LINE
  5
15A
100
AcDbEntity
  8
0
370
    35
390
0
 62
     7
100
AcDbLine
 10
444.789886
 20
560.937317
 30
0.0
 11
504.040161
 21
560.937317
 31
0.0
210
0.0
220
0.0
230
1.0
  0
LINE
  5
15B
100
AcDbEntity
  8
0
370
    35
390
0
 62
     7
100
AcDbLine
 10
444.789886
 20
536.995605
 30
0.0
 11
444.789886
 21
560.937317
 31
0.0
210
0.0
220
0.0
230
1.0
  0
LINE
  5
15C
100
AcDbEntity
  8
0
370
    35
390
0
 62
     7
100
AcDbLine
 10
484.604828
 20
536.995605
 30
0.0
 11
444.789886
 21
536.995605
 31
0.0
210
0.0
220
0.0
230
1.0
  0
LINE
  5
15D
100
AcDbEntity
  8
0
370
    35
390
0
 62
     7
100
AcDbLine
 10
484.604828
 20
536.995605
 30
0.0
 11
484.604828
 21
513.995605
 31
0.0
210
0.0
220
0.0
230
1.0
  0
LINE
  5
15E
100
AcDbEntity
  8
0
370
    35
390
0
 62
     7
 48
0.292461
100
AcDbLine
 10
496.303284
 20
513.995605
 30
0.0
 11
484.604828
 21
513.995605
 31
0.0
210
0.0
220
0.0
230
1.0
  0
LINE
  5
15F
100
AcDbEntity
  8
0
370
    35
390
0
 62
     7
 48
0.125001
100
AcDbLine
 10
496.303284
 20
508.995575
 30
0.0
 11
496.303284
 21
513.995605
 31
0.0
210
0.0
220
0.0
230
1.0
  0
LINE
  5
160
100
AcDbEntity
  8
0
370
    35
390
0
 62
     7
 48
0.461739
100
AcDbLine
 10
477.83374
 20
508.995575
 30
0.0
 11
496.303284
 21
508.995575
 31
0.0
210
0.0
220
0.0
230
1.0
  0
LINE
  5
161
100
AcDbEntity
  8
0
370
    35
390
0
 62
     7
 48
0.206207
100
AcDbLine
 10
477.83374
 20
500.747314
 30
0.0
 11
477.83374
 21
508.995575
 31
0.0
210
0.0
220
0.0
230
1.0
  0
LINE
  5
162
100
AcDbEntity
  8
0
370
    35
390
0
 62
     7
100
AcDbLine
 10
504.040161
 20
500.747314
 30
0.0
 11
477.83374
 21
500.747314
 31
0.0
210
0.0
220
0.0
230
1.0
  0
LINE
  5
163
100
AcDbEntity
  8
0
370
    35
390
0
 62
     7
100
AcDbLine
 10
504.040161
 20
544.046021
 30
0.0
 11
504.040161
 21
500.747314
 31
0.0
210
0.0
220
0.0
230
1.0
  0
CIRCLE
  5
164
100
AcDbEntity
  8
0
370
    35
390
0
 62
     7
100
AcDbCircle
 10
490.604828
 20
532.995605
 30
0.0
 40
1.5
210
0.0
220
0.0
230
1.0
  0
CIRCLE
  5
165
100
AcDbEntity
  8
0
370
    35
390
0
 62
     7
100
AcDbCircle
 10
490.604828
 20
517.995605
 30
0.0
 40
1.5
210
0.0
220
0.0
230
1.0
  0
LINE
  5
166
100
AcDbEntity
  8
0
370
    35
390
0
 62
     7
 48
0.125
100
AcDbLine
 10
462.794128
 20
555.73761
 30
0.0
 11
462.794128
 21
550.73761
 31
0.0
210
0.0
220
0.0
230
1.0
  0
LINE
  5
167
100
AcDbEntity
  8
0
370
    35
390
0
 62
     7
 48
0.125
100
AcDbLine
 10
462.794128
 20
550.73761
 30
0.0
 11
457.794128
 21
550.73761
 31
0.0
210
0.0
220
0.0
230
1.0
  0
LINE
  5
168
100
AcDbEntity
  8
0
370
    35
390
0
 62
     7
 48
0.125
100
AcDbLine
 10
457.794128
 20
550.73761
 30
0.0
 11
457.794128
 21
555.73761
 31
0.0
210
0.0
220
0.0
230
1.0
  0
LINE
  5
169
100
AcDbEntity
  8
0
370
    35
390
0
 62
     7
 48
0.125
100
AcDbLine
 10
457.794128
 20
555.73761
 30
0.0
 11
462.794128
 21
555.73761
 31
0.0
210
0.0
220
0.0
230
1.0
  0
LINE
  5
16A
100
AcDbEntity
  8
0
370
    35
390
0
 62
     7
 48
0.125
100
AcDbLine
 10
462.794128
 20
541.217896
 30
0.0
 11
457.794128
 21
541.217896
 31
0.0
210
0.0
220
0.0
230
1.0
  0
LINE
  5
16B
100
AcDbEntity
  8
0
370
    35
390
0
 62
     7
 48
0.125
100
AcDbLine
 10
457.794128
 20
541.217896
 30
0.0
 11
457.794128
 21
546.217896
 31
0.0
210
0.0
220
0.0
230
1.0
  0
LINE
  5
16C
100
AcDbEntity
  8
0
370
    35
390
0
 62
     7
 48
0.125
100
AcDbLine
 10
457.794128
 20
546.217896
 30
0.0
 11
462.794128
 21
546.217896
 31
0.0
210
0.0
220
0.0
230
1.0
  0
LINE
  5
16D
100
AcDbEntity
  8
0
370
    35
390
0
 62
     7
 48
0.125
100
AcDbLine
 10
462.794128
 20
546.217896
 30
0.0
 11
462.794128
 21
541.217896
 31
0.0
210
0.0
220
0.0
230
1.0
  0
LINE
  5
16E
100
AcDbEntity
  8
0
370
    35
390
0
 62
     7
 48
0.125
100
AcDbLine
 10
271.353912
 20
825.132874
 30
0.0
 11
271.353912
 21
820.132874
 31
0.0
210
0.0
220
0.0
230
1.0
  0
LINE
  5
16F
100
AcDbEntity
  8
0
370
    35
390
0
 62
     7
 48
0.125
100
AcDbLine
 10
271.353912
 20
825.132874
 30
0.0
 11
276.353912
 21
825.132874
 31
0.0
210
0.0
220
0.0
230
1.0
  0
LINE
  5
170
100
AcDbEntity
  8
0
370
    35
390
0
 62
     7
 48
0.112993
100
AcDbLine
 10
276.353912
 20
829.652588
 30
0.0
 11
276.353912
 21
825.132874
 31
0.0
210
0.0
220
0.0
230
1.0
  0
LINE
  5
171
100
AcDbEntity
  8
0
370
    35
390
0
 62
     7
 48
0.125
100
AcDbLine
 10
271.353912
 20
829.652588
 30
0.0
 11
276.353912
 21
829.652588
 31
0.0
210
0.0
220
0.0
230
1.0
  0
LINE
  5
172
100
AcDbEntity
  8
0
370
    35
390
0
 62
     7
 48
0.125
100
AcDbLine
 10
271.353912
 20
834.652588
 30
0.0
 11
271.353912
 21
829.652588
 31
0.0
210
0.0
220
0.0
230
1.0
  0
LINE
  5
173
100
AcDbEntity
  8
0
370
    35
390
0
 62
     7
 48
0.125
100
AcDbLine
 10
271.353912
 20
834.652588
 30
0.0
 11
276.353912
 21
834.652588
 31
0.0
210
0.0
220
0.0
230
1.0
  0
LINE
  5
174
100
AcDbEntity
  8
0
370
    35
390
0
 62
     7
100
AcDbLine
 10
320.147003
 20
834.652588
 30
0.0
 11
276.353912
 21
834.652588
 31
0.0
210
0.0
220
0.0
230
1.0
  0
LINE
  5
175
100
AcDbEntity
  8
0
370
    35
390
0
 62
     7
100
AcDbLine
 10
320.147003
 20
792.910522
 30
0.0
 11
320.147003
 21
834.652588
 31
0.0
210
0.0
220
0.0
230
1.0
  0
LINE
  5
176
100
AcDbEntity
  8
0
370
    35
390
0
 62
     7
 48
0.120789
100
AcDbLine
 10
315.31543
 20
792.910522
 30
0.0
 11
320.147003
 21
792.910522
 31
0.0
210
0.0
220
0.0
230
1.0
  0
LINE
  5
177
100
AcDbEntity
  8
0
370
    35
390
0
 62
     7
 48
0.125
100
AcDbLine
 10
315.31543
 20
787.910522
 30
0.0
 11
315.31543
 21
792.910522
 31
0.0
210
0.0
220
0.0
230
1.0
  0
LINE
  5
178
100
AcDbEntity
  8
0
370
    35
390
0
 62
     7
 48
0.18606
100
AcDbLine
 10
307.873047
 20
787.910522
 30
0.0
 11
315.31543
 21
787.910522
 31
0.0
210
0.0
220
0.0
230
1.0
  0
LINE
  5
179
100
AcDbEntity
  8
0
370
    35
390
0
 62
     7
 48
0.125
100
AcDbLine
 10
307.873047
 20
792.910522
 30
0.0
 11
307.873047
 21
787.910522
 31
0.0
210
0.0
220
0.0
230
1.0
  0
LINE
  5
17A
100
AcDbEntity
  8
0
370
    35
390
0
 62
     7
 48
0.162978
100
AcDbLine
 10
301.353912
 20
792.910522
 30
0.0
 11
307.873047
 21
792.910522
 31
0.0
210
0.0
220
0.0
230
1.0
  0
LINE
  5
17B
100
AcDbEntity
  8
0
370
    35
390
0
 62
     7
100
AcDbLine
 10
301.353912
 20
815.910522
 30
0.0
 11
301.353912
 21
792.910522
 31
0.0
210
0.0
220
0.0
230
1.0
  0
LINE
  5
17C
100
AcDbEntity
  8
0
370
    35
390
0
 62
     7
100
AcDbLine
 10
276.353912
 20
815.910522
 30
0.0
 11
301.353912
 21
815.910522
 31
0.0
210
0.0
220
0.0
230
1.0
  0
LINE
  5
17D
100
AcDbEntity
  8
0
370
    35
390
0
 62
     7
 48
0.105559
100
AcDbLine
 10
276.353912
 20
820.132874
 30
0.0
 11
276.353912
 21
815.910522
 31
0.0
210
0.0
220
0.0
230
1.0
  0
LINE
  5
17E
100
AcDbEntity
  8
0
370
    35
390
0
 62
     7
 48
0.125
100
AcDbLine
 10
271.353912
 20
820.132874
 30
0.0
 11
276.353912
 21
820.132874
 31
0.0
210
0.0
220
0.0
230
1.0
  0
CIRCLE
  5
17F
100
AcDbEntity
  8
0
370
    35
390
0
 62
     7
100
AcDbCircle
 10
581.158386
 20
830.534668
 30
0.0
 40
2.1
210
0.0
220
0.0
230
1.0
  0
LINE
  5
180
100
AcDbEntity
  8
0
370
    35
390
0
 62
     7
 48
0.125
100
AcDbLine
 10
593.936157
 20
818.287415
 30
0.0
 11
588.936157
 21
818.287415
 31
0.0
210
0.0
220
0.0
230
1.0
  0
LINE
  5
181
100
AcDbEntity
  8
0
370
    35
390
0
 62
     7
 48
0.43275
100
AcDbLine
 10
588.936157
 20
818.287415
 30
0.0
 11
588.936157
 21
835.597412
 31
0.0
210
0.0
220
0.0
230
1.0
  0
LINE
  5
182
100
AcDbEntity
  8
0
370
    35
390
0
 62
     7
 48
0.375
100
AcDbLine
 10
588.936157
 20
835.597412
 30
0.0
 11
573.936157
 21
835.597412
 31
0.0
210
0.0
220
0.0
230
1.0
  0
LINE
  5
183
100
AcDbEntity
  8
0
370
    35
390
0
 62
     7
100
AcDbLine
 10
573.936157
 20
835.597412
 30
0.0
 11
573.936157
 21
788.287415
 31
0.0
210
0.0
220
0.0
230
1.0
  0
LINE
  5
184
100
AcDbEntity
  8
0
370
    35
390
0
 62
     7
 48
0.375
100
AcDbLine
 10
573.936157
 20
788.287415
 30
0.0
 11
588.936157
 21
788.287415
 31
0.0
210
0.0
220
0.0
230
1.0
  0
LINE
  5
185
100
AcDbEntity
  8
0
370
    35
390
0
 62
     7
 48
0.125
100
AcDbLine
 10
588.936157
 20
788.287415
 30
0.0
 11
588.936157
 21
793.287415
 31
0.0
210
0.0
220
0.0
230
1.0
  0
LINE
  5
186
100
AcDbEntity
  8
0
370
    35
390
0
 62
     7
 48
0.125
100
AcDbLine
 10
588.936157
 20
793.287415
 30
0.0
 11
593.936157
 21
793.287415
 31
0.0
210
0.0
220
0.0
230
1.0
  0
LINE
  5
187
100
AcDbEntity
  8
0
370
    35
390
0
 62
     7
 48
0.125
100
AcDbLine
 10
593.936157
 20
793.287415
 30
0.0
 11
593.936157
 21
798.287415
 31
0.0
210
0.0
220
0.0
230
1.0
  0
LINE
  5
188
100
AcDbEntity
  8
0
370
    35
390
0
 62
     7
 48
0.125
100
AcDbLine
 10
593.936157
 20
798.287415
 30
0.0
 11
588.936157
 21
798.287415
 31
0.0
210
0.0
220
0.0
230
1.0
  0
LINE
  5
189
100
AcDbEntity
  8
0
370
    35
390
0
 62
     7
 48
0.125
100
AcDbLine
 10
588.936157
 20
798.287415
 30
0.0
 11
588.936157
 21
803.287415
 31
0.0
210
0.0
220
0.0
230
1.0
  0
LINE
  5
18A
100
AcDbEntity
  8
0
370
    35
390
0
 62
     7
 48
0.125
100
AcDbLine
 10
588.936157
 20
803.287415
 30
0.0
 11
593.936157
 21
803.287415
 31
0.0
210
0.0
220
0.0
230
1.0
  0
LINE
  5
18B
100
AcDbEntity
  8
0
370
    35
390
0
 62
     7
 48
0.125
100
AcDbLine
 10
593.936157
 20
803.287415
 30
0.0
 11
593.936157
 21
808.287415
 31
0.0
210
0.0
220
0.0
230
1.0
  0
LINE
  5
18C
100
AcDbEntity
  8
0
370
    35
390
0
 62
     7
 48
0.125
100
AcDbLine
 10
593.936157
 20
808.287415
 30
0.0
 11
588.936157
 21
808.287415
 31
0.0
210
0.0
220
0.0
230
1.0
  0
LINE
  5
18D
100
AcDbEntity
  8
0
370
    35
390
0
 62
     7
 48
0.125
100
AcDbLine
 10
588.936157
 20
808.287415
 30
0.0
 11
588.936157
 21
813.287415
 31
0.0
210
0.0
220
0.0
230
1.0
  0
LINE
  5
18E
100
AcDbEntity
  8
0
370
    35
390
0
 62
     7
 48
0.125
100
AcDbLine
 10
588.936157
 20
813.287415
 30
0.0
 11
593.936157
 21
813.287415
 31
0.0
210
0.0
220
0.0
230
1.0
  0
LINE
  5
18F
100
AcDbEntity
  8
0
370
    35
390
0
 62
     7
 48
0.125
100
AcDbLine
 10
593.936157
 20
813.287415
 30
0.0
 11
593.936157
 21
818.287415
 31
0.0
210
0.0
220
0.0
230
1.0
  0
CIRCLE
  5
190
100
AcDbEntity
  8
0
370
    35
390
0
 62
     7
100
AcDbCircle
 10
435.269562
 20
608.761597
 30
0.0
 40
2.1
210
0.0
220
0.0
230
1.0
  0
LINE
  5
191
100
AcDbEntity
  8
0
370
    35
390
0
 62
     7
 48
0.125
100
AcDbLine
 10
448.047333
 20
596.514343
 30
0.0
 11
443.047333
 21
596.514343
 31
0.0
210
0.0
220
0.0
230
1.0
  0
LINE
  5
192
100
AcDbEntity
  8
0
370
    35
390
0
 62
     7
 48
0.43275
100
AcDbLine
 10
443.047333
 20
596.514343
 30
0.0
 11
443.047333
 21
613.824341
 31
0.0
210
0.0
220
0.0
230
1.0
  0
LINE
  5
193
100
AcDbEntity
  8
0
370
    35
390
0
 62
     7
 48
0.375
100
AcDbLine
 10
443.047333
 20
613.824341
 30
0.0
 11
428.047333
 21
613.824341
 31
0.0
210
0.0
220
0.0
230
1.0
  0
LINE
  5
194
100
AcDbEntity
  8
0
370
    35
390
0
 62
     7
100
AcDbLine
 10
428.047333
 20
613.824341
 30
0.0
 11
428.047333
 21
566.514343
 31
0.0
210
0.0
220
0.0
230
1.0
  0
LINE
  5
195
100
AcDbEntity
  8
0
370
    35
390
0
 62
     7
 48
0.375
100
AcDbLine
 10
428.047333
 20
566.514343
 30
0.0
 11
443.047333
 21
566.514343
 31
0.0
210
0.0
220
0.0
230
1.0
  0
LINE
  5
196
100
AcDbEntity
  8
0
370
    35
390
0
 62
     7
 48
0.125
100
AcDbLine
 10
443.047333
 20
566.514343
 30
0.0
 11
443.047333
 21
571.514343
 31
0.0
210
0.0
220
0.0
230
1.0
  0
LINE
  5
197
100
AcDbEntity
  8
0
370
    35
390
0
 62
     7
 48
0.125
100
AcDbLine
 10
443.047333
 20
571.514343
 30
0.0
 11
448.047333
 21
571.514343
 31
0.0
210
0.0
220
0.0
230
1.0
  0
LINE
  5
198
100
AcDbEntity
  8
0
370
    35
390
0
 62
     7
 48
0.125
100
AcDbLine
 10
448.047333
 20
571.514343
 30
0.0
 11
448.047333
 21
576.514343
 31
0.0
210
0.0
220
0.0
230
1.0
  0
LINE
  5
199
100
AcDbEntity
  8
0
370
    35
390
0
 62
     7
 48
0.125
100
AcDbLine
 10
448.047333
 20
576.514343
 30
0.0
 11
443.047333
 21
576.514343
 31
0.0
210
0.0
220
0.0
230
1.0
  0
LINE
  5
19A
100
AcDbEntity
  8
0
370
    35
390
0
 62
     7
 48
0.125
100
AcDbLine
 10
443.047333
 20
576.514343
 30
0.0
 11
443.047333
 21
581.514343
 31
0.0
210
0.0
220
0.0
230
1.0
  0
LINE
  5
19B
100
AcDbEntity
  8
0
370
    35
390
0
 62
     7
 48
0.125
100
AcDbLine
 10
443.047333
 20
581.514343
 30
0.0
 11
448.047333
 21
581.514343
 31
0.0
210
0.0
220
0.0
230
1.0
  0
LINE
  5
19C
100
AcDbEntity
  8
0
370
    35
390
0
 62
     7
 48
0.125
100
AcDbLine
 10
448.047333
 20
581.514343
 30
0.0
 11
448.047333
 21
586.514343
 31
0.0
210
0.0
220
0.0
230
1.0
  0
LINE
  5
19D
100
AcDbEntity
  8
0
370
    35
390
0
 62
     7
 48
0.125
100
AcDbLine
 10
448.047333
 20
586.514343
 30
0.0
 11
443.047333
 21
586.514343
 31
0.0
210
0.0
220
0.0
230
1.0
  0
LINE
  5
19E
100
AcDbEntity
  8
0
370
    35
390
0
 62
     7
 48
0.125
100
AcDbLine
 10
443.047333
 20
586.514343
 30
0.0
 11
443.047333
 21
591.514343
 31
0.0
210
0.0
220
0.0
230
1.0
  0
LINE
  5
19F
100
AcDbEntity
  8
0
370
    35
390
0
 62
     7
 48
0.125
100
AcDbLine
 10
443.047333
 20
591.514343
 30
0.0
 11
448.047333
 21
591.514343
 31
0.0
210
0.0
220
0.0
230
1.0
  0
LINE
  5
1A0
100
AcDbEntity
  8
0
370
    35
390
0
 62
     7
 48
0.125
100
AcDbLine
 10
448.047333
 20
591.514343
 30
0.0
 11
448.047333
 21
596.514343
 31
0.0
210
0.0
220
0.0
230
1.0
  0
LINE
  5
1A1
100
AcDbEntity
  8
0
370
    35
390
0
 62
     7
100
AcDbLine
 10
400.978821
 20
527.787415
 30
0.0
 11
424.339203
 21
499.493561
 31
0.0
210
0.0
220
0.0
230
1.0
  0
LINE
  5
1A2
100
AcDbEntity
  8
0
370
    35
390
0
 62
     7
 48
0.318476
100
AcDbLine
 10
424.339203
 20
499.493561
 30
0.0
 11
434.162689
 21
507.604156
 31
0.0
210
0.0
220
0.0
230
1.0
  0
LINE
  5
1A3
100
AcDbEntity
  8
0
370
    35
390
0
 62
     7
 48
0.125
100
AcDbLine
 10
434.162689
 20
507.604156
 30
0.0
 11
437.346039
 21
503.748474
 31
0.0
210
0.0
220
0.0
230
1.0
  0
LINE
  5
1A4
100
AcDbEntity
  8
0
370
    35
390
0
 62
     7
 48
0.125
100
AcDbLine
 10
437.346039
 20
503.748474
 30
0.0
 11
441.175049
 21
506.963867
 31
0.0
210
0.0
220
0.0
230
1.0
  0
LINE
  5
1A5
100
AcDbEntity
  8
0
370
    35
390
0
 62
     7
 48
0.125
100
AcDbLine
 10
441.175049
 20
506.963867
 30
0.0
 11
437.959686
 21
510.792877
 31
0.0
210
0.0
220
0.0
230
1.0
  0
LINE
  5
1A6
100
AcDbEntity
  8
0
370
    35
390
0
 62
     7
 48
0.375
100
AcDbLine
 10
437.959686
 20
510.792877
 30
0.0
 11
449.446716
 21
520.439026
 31
0.0
210
0.0
220
0.0
230
1.0
  0
LINE
  5
1A7
100
AcDbEntity
  8
0
370
    35
390
0
 62
     7
 48
0.125001
100
AcDbLine
 10
449.446716
 20
520.439026
 30
0.0
 11
452.662109
 21
516.609985
 31
0.0
210
0.0
220
0.0
230
1.0
  0
LINE
  5
1A8
100
AcDbEntity
  8
0
370
    35
390
0
 62
     7
 48
0.125
100
AcDbLine
 10
452.662109
 20
516.609985
 30
0.0
 11
456.491119
 21
519.825378
 31
0.0
210
0.0
220
0.0
230
1.0
  0
LINE
  5
1A9
100
AcDbEntity
  8
0
370
    35
390
0
 62
     7
 48
0.124999
100
AcDbLine
 10
456.491119
 20
519.825378
 30
0.0
 11
453.275757
 21
523.654358
 31
0.0
210
0.0
220
0.0
230
1.0
  0
LINE
  5
1AA
100
AcDbEntity
  8
0
370
    35
390
0
 62
     7
 48
0.1266
100
AcDbLine
 10
453.275757
 20
523.654358
 30
0.0
 11
457.153778
 21
526.910889
 31
0.0
210
0.0
220
0.0
230
1.0
  0
LINE
  5
1AB
100
AcDbEntity
  8
0
370
    35
390
0
 62
     7
 48
0.030001
100
AcDbLine
 10
457.153778
 20
526.910889
 30
0.0
 11
456.334167
 21
527.787415
 31
0.0
210
0.0
220
0.0
230
1.0
  0
LINE
  5
1AC
100
AcDbEntity
  8
0
370
    35
390
0
 62
     7
 48
0.133884
100
AcDbLine
 10
456.334167
 20
527.787415
 30
0.0
 11
450.978821
 21
527.787415
 31
0.0
210
0.0
220
0.0
230
1.0
  0
LINE
  5
1AD
100
AcDbEntity
  8
0
370
    35
390
0
 62
     7
 48
0.125
100
AcDbLine
 10
450.978821
 20
527.787415
 30
0.0
 11
450.978821
 21
532.787415
 31
0.0
210
0.0
220
0.0
230
1.0
  0
LINE
  5
1AE
100
AcDbEntity
  8
0
370
    35
390
0
 62
     7
 48
0.125
100
AcDbLine
 10
450.978821
 20
532.787415
 30
0.0
 11
445.978821
 21
532.787415
 31
0.0
210
0.0
220
0.0
230
1.0
  0
LINE
  5
1AF
100
AcDbEntity
  8
0
370
    35
390
0
 62
     7
 48
0.125
100
AcDbLine
 10
445.978821
 20
532.787415
 30
0.0
 11
445.978821
 21
527.787415
 31
0.0
210
0.0
220
0.0
230
1.0
  0
LINE
  5
1B0
100
AcDbEntity
  8
0
370
    35
390
0
 62
     7
 48
0.375
100
AcDbLine
 10
445.978821
 20
527.787415
 30
0.0
 11
430.978821
 21
527.787415
 31
0.0
210
0.0
220
0.0
230
1.0
  0
LINE
  5
1B1
100
AcDbEntity
  8
0
370
    35
390
0
 62
     7
 48
0.125
100
AcDbLine
 10
430.978821
 20
527.787415
 30
0.0
 11
430.978821
 21
532.787415
 31
0.0
210
0.0
220
0.0
230
1.0
  0
LINE
  5
1B2
100
AcDbEntity
  8
0
370
    35
390
0
 62
     7
 48
0.125
100
AcDbLine
 10
430.978821
 20
532.787415
 30
0.0
 11
425.978821
 21
532.787415
 31
0.0
210
0.0
220
0.0
230
1.0
  0
LINE
  5
1B3
100
AcDbEntity
  8
0
370
    35
390
0
 62
     7
 48
0.125
100
AcDbLine
 10
425.978821
 20
532.787415
 30
0.0
 11
425.978821
 21
527.787415
 31
0.0
210
0.0
220
0.0
230
1.0
  0
LINE
  5
1B4
100
AcDbEntity
  8
0
370
    35
390
0
 62
     7
100
AcDbLine
 10
425.978821
 20
527.787415
 30
0.0
 11
400.978821
 21
527.787415
 31
0.0
210
0.0
220
0.0
230
1.0
  0
LINE
  5
1B5
100
AcDbEntity
  8
0
370
    35
390
0
 62
     7
100
AcDbLine
 10
269.884216
 20
595.114502
 30
0.0
 11
293.244598
 21
566.820618
 31
0.0
210
0.0
220
0.0
230
1.0
  0
LINE
  5
1B6
100
AcDbEntity
  8
0
370
    35
390
0
 62
     7
 48
0.318476
100
AcDbLine
 10
293.244598
 20
566.820618
 30
0.0
 11
303.068085
 21
574.931213
 31
0.0
210
0.0
220
0.0
230
1.0
  0
LINE
  5
1B7
100
AcDbEntity
  8
0
370
    35
390
0
 62
     7
 48
0.124999
100
AcDbLine
 10
303.068085
 20
574.931213
 30
0.0
 11
306.251434
 21
571.075562
 31
0.0
210
0.0
220
0.0
230
1.0
  0
LINE
  5
1B8
100
AcDbEntity
  8
0
370
    35
390
0
 62
     7
 48
0.125
100
AcDbLine
 10
306.251434
 20
571.075562
 30
0.0
 11
310.080444
 21
574.290955
 31
0.0
210
0.0
220
0.0
230
1.0
  0
LINE
  5
1B9
100
AcDbEntity
  8
0
370
    35
390
0
 62
     7
 48
0.125
100
AcDbLine
 10
310.080444
 20
574.290955
 30
0.0
 11
306.865082
 21
578.119995
 31
0.0
210
0.0
220
0.0
230
1.0
  0
LINE
  5
1BA
100
AcDbEntity
  8
0
370
    35
390
0
 62
     7
 48
0.375
100
AcDbLine
 10
306.865082
 20
578.119995
 30
0.0
 11
318.352112
 21
587.766113
 31
0.0
210
0.0
220
0.0
230
1.0
  0
LINE
  5
1BB
100
AcDbEntity
  8
0
370
    35
390
0
 62
     7
 48
0.125001
100
AcDbLine
 10
318.352112
 20
587.766113
 30
0.0
 11
321.567505
 21
583.937073
 31
0.0
210
0.0
220
0.0
230
1.0
  0
LINE
  5
1BC
100
AcDbEntity
  8
0
370
    35
390
0
 62
     7
 48
0.125
100
AcDbLine
 10
321.567505
 20
583.937073
 30
0.0
 11
325.396515
 21
587.152466
 31
0.0
210
0.0
220
0.0
230
1.0
  0
LINE
  5
1BD
100
AcDbEntity
  8
0
370
    35
390
0
 62
     7
 48
0.124999
100
AcDbLine
 10
325.396515
 20
587.152466
 30
0.0
 11
322.181152
 21
590.981445
 31
0.0
210
0.0
220
0.0
230
1.0
  0
LINE
  5
1BE
100
AcDbEntity
  8
0
370
    35
390
0
 62
     7
 48
0.1266
100
AcDbLine
 10
322.181152
 20
590.981445
 30
0.0
 11
326.059174
 21
594.237976
 31
0.0
210
0.0
220
0.0
230
1.0
  0
LINE
  5
1BF
100
AcDbEntity
  8
0
370
    35
390
0
 62
     7
 48
0.030001
100
AcDbLine
 10
326.059174
 20
594.237976
 30
0.0
 11
325.239563
 21
595.114502
 31
0.0
210
0.0
220
0.0
230
1.0
  0
LINE
  5
1C0
100
AcDbEntity
  8
0
370
    35
390
0
 62
     7
 48
0.133884
100
AcDbLine
 10
325.239563
 20
595.114502
 30
0.0
 11
319.884216
 21
595.114502
 31
0.0
210
0.0
220
0.0
230
1.0
  0
LINE
  5
1C1
100
AcDbEntity
  8
0
370
    35
390
0
 62
     7
 48
0.125
100
AcDbLine
 10
319.884216
 20
595.114502
 30
0.0
 11
319.884216
 21
600.114502
 31
0.0
210
0.0
220
0.0
230
1.0
  0
LINE
  5
1C2
100
AcDbEntity
  8
0
370
    35
390
0
 62
     7
 48
0.125
100
AcDbLine
 10
319.884216
 20
600.114502
 30
0.0
 11
314.884216
 21
600.114502
 31
0.0
210
0.0
220
0.0
230
1.0
  0
LINE
  5
1C3
100
AcDbEntity
  8
0
370
    35
390
0
 62
     7
 48
0.125
100
AcDbLine
 10
314.884216
 20
600.114502
 30
0.0
 11
314.884216
 21
595.114502
 31
0.0
210
0.0
220
0.0
230
1.0
  0
LINE
  5
1C4
100
AcDbEntity
  8
0
370
    35
390
0
 62
     7
 48
0.375
100
AcDbLine
 10
314.884216
 20
595.114502
 30
0.0
 11
299.884216
 21
595.114502
 31
0.0
210
0.0
220
0.0
230
1.0
  0
LINE
  5
1C5
100
AcDbEntity
  8
0
370
    35
390
0
 62
     7
 48
0.125
100
AcDbLine
 10
299.884216
 20
595.114502
 30
0.0
 11
299.884216
 21
600.114502
 31
0.0
210
0.0
220
0.0
230
1.0
  0
LINE
  5
1C6
100
AcDbEntity
  8
0
370
    35
390
0
 62
     7
 48
0.125
100
AcDbLine
 10
299.884216
 20
600.114502
 30
0.0
 11
294.884216
 21
600.114502
 31
0.0
210
0.0
220
0.0
230
1.0
  0
LINE
  5
1C7
100
AcDbEntity
  8
0
370
    35
390
0
 62
     7
 48
0.125
100
AcDbLine
 10
294.884216
 20
600.114502
 30
0.0
 11
294.884216
 21
595.114502
 31
0.0
210
0.0
220
0.0
230
1.0
  0
LINE
  5
1C8
100
AcDbEntity
  8
0
370
    35
390
0
 62
     7
100
AcDbLine
 10
294.884216
 20
595.114502
 30
0.0
 11
269.884216
 21
595.114502
 31
0.0
210
0.0
220
0.0
230
1.0
  0
ENDSEC
  0
SECTION
  2
OBJECTS
  0
DICTIONARY
  5
19
100
AcDbDictionary
280
     0
281
     1
  3
ACAD_GROUP
350
1A
  3
ACAD_MLINESTYLE
350
1B
  3
ACAD_LAYOUT
350
1E
  3
ACAD_PLOTSETTINGS
350
22
  3
ACAD_PLOTSTYLENAME
350
1F
  3
ACAD_WIPEOUT_VARS
350
23
  0
DICTIONARY
  5
1A
102
{ACAD_REACTORS
330
19
102
}
100
AcDbDictionary
280
     0
281
     1
  0
DICTIONARY
  5
1B
102
{ACAD_REACTORS
330
19
102
}
100
AcDbDictionary
280
     0
281
     1
  3
Standard
350
1C
  0
MLINESTYLE
  5
1C
102
{ACAD_REACTORS
330
1B
102
}
100
AcDbMlineStyle
  2
Standard
 70
     0
  3

 62
     0
 51
90.0
 52
90.0
 71
     2
 49
0.5
 62
   256
  6
ByLayer
 49
-0.5
 62
   256
  6
ByLayer
  0
ACDBDICTIONARYWDFLT
  5
1F
102
{ACAD_REACTORS
330
19
102
}
100
AcDbDictionary
281
     1
  3
Normal
350
1D
100
AcDbDictionaryWithDefault
340
1D
  0
ACDBPLACEHOLDER
  5
1D
102
{ACAD_REACTORS
330
1F
102
}
  0
LAYOUT
  5
20
102
{ACAD_REACTORS
330
1E
102
}
100
AcDbPlotSettings
  1

  2

  4

  6

 40
0.0
 41
0.0
 42
0.0
 43
0.0
 44
0.0
 45
0.0
 46
0.0
 47
0.0
 48
0.0
 49
0.0
140
0.0
141
0.0
142
1.0
143
1.0
 70
  1024
 72
     0
 73
     0
 74
     0
  7

 75
     0
147
1.0
148
0.0
149
0.0
100
AcDbLayout
  1
Model
 70
     0
 71
     0
 10
0.0
 20
0.0
 11
0.0
 21
0.0
 12
0.0
 22
0.0
 32
0.0
 14
0.0
 24
0.0
 34
0.0
 15
0.0
 25
0.0
 35
0.0
146
0.0
 13
0.0
 23
0.0
 33
0.0
 16
0.0
 26
0.0
 36
0.0
 17
0.0
 27
0.0
 37
0.0
 76
     0
330
A
331
0
345
0
346
0
  0
LAYOUT
  5
21
102
{ACAD_REACTORS
330
1E
102
}
100
AcDbPlotSettings
  1

  2

  4

  6

 40
0.0
 41
0.0
 42
0.0
 43
0.0
 44
0.0
 45
0.0
 46
0.0
 47
0.0
 48
0.0
 49
0.0
140
0.0
141
0.0
142
1.0
143
1.0
 70
     0
 72
     0
 73
     0
 74
     0
  7

 75
     0
147
1.0
148
0.0
149
0.0
100
AcDbLayout
  1
Layout1
 70
     0
 71
     0
 10
0.0
 20
0.0
 11
0.0
 21
0.0
 12
0.0
 22
0.0
 32
0.0
 14
0.0
 24
0.0
 34
0.0
 15
0.0
 25
0.0
 35
0.0
146
0.0
 13
0.0
 23
0.0
 33
0.0
 16
0.0
 26
0.0
 36
0.0
 17
0.0
 27
0.0
 37
0.0
 76
     0
330
B
331
0
345
0
346
0
  0
DICTIONARY
  5
1E
102
{ACAD_REACTORS
330
19
102
}
100
AcDbDictionary
280
     0
281
     1
  3
Layout1
350
21
  3
Model
350
20
  0
DICTIONARY
  5
22
102
{ACAD_REACTORS
330
19
102
}
100
AcDbDictionary
280
     0
281
     1
  0
WIPEOUTVARIABLES
  5
23
100
AcDbWipeoutVariables
 70
     1
  0
ENDSEC
  0
EOF
