  0
SECTION
  2
HEADER
  9
$ACADVER
  1
AC1015
  9
$ACADMAINTVER
 70
     6
  9
$DWGCODEPAGE
  3
ANSI_1252
  9
$INSBASE
 10
0.0
 20
0.0
 30
0.0
  9
$EXTMIN
 10
0.0
 20
0.0
 30
0.0
  9
$EXTMAX
 10
590.540588
 20
837.448914
 30
2.0
  9
$LIMMIN
 10
0.0
 20
0.0
  9
$LIMMAX
 10
420.0
 20
297.0
  9
$ORTHOMODE
 70
     0
  9
$REGENMODE
 70
     1
  9
$FILLMODE
 70
     1
  9
$QTEXTMODE
 70
     0
  9
$MIRRTEXT
 70
     1
  9
$LTSCALE
 40
1.0
  9
$ATTMODE
 70
     1
  9
$TEXTSIZE
 40
2.5
  9
$TRACEWID
 40
1.0
  9
$TEXTSTYLE
  7
Standard
  9
$CLAYER
  8
0
  9
$CELTYPE
  6
ByLayer
  9
$CECOLOR
 62
   256
  9
$CELTSCALE
 40
1.0
  9
$DISPSILH
 70
     0
  9
$DIMSCALE
 40
1.0
  9
$DIMASZ
 40
2.5
  9
$DIMEXO
 40
0.625
  9
$DIMDLI
 40
3.75
  9
$DIMRND
 40
0.0
  9
$DIMDLE
 40
0.0
  9
$DIMEXE
 40
1.25
  9
$DIMTP
 40
0.0
  9
$DIMTM
 40
0.0
  9
$DIMTXT
 40
2.5
  9
$DIMCEN
 40
2.5
  9
$DIMTSZ
 40
0.0
  9
$DIMTOL
 70
     0
  9
$DIMLIM
 70
     0
  9
$DIMTIH
 70
     0
  9
$DIMTOH
 70
     0
  9
$DIMSE1
 70
     0
  9
$DIMSE2
 70
     0
  9
$DIMTAD
 70
     1
  9
$DIMZIN
 70
     8
  9
$DIMBLK
  1

  9
$DIMASO
 70
     1
  9
$DIMSHO
 70
     1
  9
$DIMPOST
  1

  9
$DIMAPOST
  1

  9
$DIMALT
 70
     0
  9
$DIMALTD
 70
     3
  9
$DIMALTF
 40
0.03937
  9
$DIMLFAC
 40
1.0
  9
$DIMTOFL
 70
     1
  9
$DIMTVP
 40
0.0
  9
$DIMTIX
 70
     0
  9
$DIMSOXD
 70
     0
  9
$DIMSAH
 70
     0
  9
$DIMBLK1
  1

  9
$DIMBLK2
  1

  9
$DIMSTYLE
  2

  9
$DIMCLRD
 70
     0
  9
$DIMCLRE
 70
     0
  9
$DIMCLRT
 70
     0
  9
$DIMTFAC
 40
1.0
  9
$DIMGAP
 40
0.625
  9
$DIMJUST
 70
     0
  9
$DIMSD1
 70
     0
  9
$DIMSD2
 70
     0
  9
$DIMTOLJ
 70
     0
  9
$DIMTZIN
 70
     8
  9
$DIMALTZ
 70
     0
  9
$DIMALTTZ
 70
     0
  9
$DIMUPT
 70
     0
  9
$DIMDEC
 70
     2
  9
$DIMTDEC
 70
     2
  9
$DIMALTU
 70
     2
  9
$DIMALTTD
 70
     3
  9
$DIMTXSTY
  7
Standard
  9
$DIMAUNIT
 70
     0
  9
$DIMADEC
 70
     0
  9
$DIMALTRND
 40
0.0
  9
$DIMAZIN
 70
     0
  9
$DIMDSEP
 70
    44
  9
$DIMATFIT
 70
     0
  9
$DIMFRAC
 70
     0
  9
$DIMLDRBLK
  1

  9
$DIMLUNIT
 70
     2
  9
$DIMLWD
 70
    -2
  9
$DIMLWE
 70
    -2
  9
$DIMTMOVE
 70
     0
  9
$LUNITS
 70
     2
  9
$LUPREC
 70
     4
  9
$SKETCHINC
 40
1.0
  9
$FILLETRAD
 40
2.5
  9
$AUNITS
 70
     0
  9
$AUPREC
 70
     0
  9
$MENU
  1
.
  9
$ELEVATION
 40
0.0
  9
$PELEVATION
 40
0.0
  9
$THICKNESS
 40
0.0
  9
$LIMCHECK
 70
     0
  9
$CHAMFERA
 40
2.5
  9
$CHAMFERB
 40
2.5
  9
$CHAMFERC
 40
0.0
  9
$CHAMFERD
 40
0.0
  9
$SKPOLY
 70
     0
  9
$TDCREATE
 40
0.000000000
  9
$TDUCREATE
 40
0.000000000
  9
$TDUPDATE
 40
0.000000000
  9
$TDUUPDATE
 40
0.000000000
  9
$TDINDWG
 40
0.0000000000
  9
$TDUSRTIMER
 40
0.0000000000
  9
$USRTIMER
 70
     1
  9
$ANGBASE
 50
0.0
  9
$ANGDIR
 70
     0
  9
$PDMODE
 70
     0
  9
$PDSIZE
 40
0.0
  9
$PLINEWID
 40
0.0
  9
$SPLFRAME
 70
     0
  9
$SPLINETYPE
 70
     6
  9
$SPLINESEGS
 70
     8
  9
$HANDSEED
  5
4AC
  9
$SURFTAB1
 70
     6
  9
$SURFTAB2
 70
     6
  9
$SURFTYPE
 70
     6
  9
$SURFU
 70
     6
  9
$SURFV
 70
     6
  9
$UCSBASE
  2

  9
$UCSNAME
  2

  9
$UCSORG
 10
0.0
 20
0.0
 30
0.0
  9
$UCSXDIR
 10
1.0
 20
0.0
 30
0.0
  9
$UCSYDIR
 10
0.0
 20
1.0
 30
0.0
  9
$UCSORTHOREF
  2

  9
$UCSORTHOVIEW
 70
     1
  9
$UCSORGTOP
 10
0.0
 20
0.0
 30
0.0
  9
$UCSORGBOTTOM
 10
0.0
 20
0.0
 30
0.0
  9
$UCSORGLEFT
 10
0.0
 20
0.0
 30
0.0
  9
$UCSORGRIGHT
 10
0.0
 20
0.0
 30
0.0
  9
$UCSORGFRONT
 10
0.0
 20
0.0
 30
0.0
  9
$UCSORGBACK
 10
0.0
 20
0.0
 30
0.0
  9
$PUCSBASE
  2

  9
$PUCSNAME
  2

  9
$PUCSORG
 10
0.0
 20
0.0
 30
0.0
  9
$PUCSXDIR
 10
1.0
 20
0.0
 30
0.0
  9
$PUCSYDIR
 10
0.0
 20
1.0
 30
0.0
  9
$PUCSORTHOREF
  2

  9
$PUCSORTHOVIEW
 70
     0
  9
$PUCSORGTOP
 10
0.0
 20
0.0
 30
0.0
  9
$PUCSORGBOTTOM
 10
0.0
 20
0.0
 30
0.0
  9
$PUCSORGLEFT
 10
0.0
 20
0.0
 30
0.0
  9
$PUCSORGRIGHT
 10
0.0
 20
0.0
 30
0.0
  9
$PUCSORGFRONT
 10
0.0
 20
0.0
 30
0.0
  9
$PUCSORGBACK
 10
0.0
 20
0.0
 30
0.0
  9
$USERI1
 70
     0
  9
$USERI2
 70
     0
  9
$USERI3
 70
     0
  9
$USERI4
 70
     0
  9
$USERI5
 70
     0
  9
$USERR1
 40
0.0
  9
$USERR2
 40
0.0
  9
$USERR3
 40
0.0
  9
$USERR4
 40
0.0
  9
$USERR5
 40
0.0
  9
$WORLDVIEW
 70
     1
  9
$SHADEDGE
 70
     3
  9
$SHADEDIF
 70
    70
  9
$TILEMODE
 70
     1
  9
$MAXACTVP
 70
    48
  9
$PINSBASE
 10
0.0
 20
0.0
 30
0.0
  9
$PLIMCHECK
 70
     0
  9
$PEXTMIN
 10
0.0
 20
0.0
 30
0.0
  9
$PEXTMAX
 10
590.540588
 20
837.448914
 30
2.0
  9
$PLIMMIN
 10
0.0
 20
0.0
  9
$PLIMMAX
 10
420.0
 20
297.0
  9
$UNITMODE
 70
     0
  9
$VISRETAIN
 70
     0
  9
$PLINEGEN
 70
     0
  9
$PSLTSCALE
 70
     1
  9
$TREEDEPTH
 70
  3020
  9
$CMLSTYLE
  2
Standard
  9
$CMLJUST
 70
     0
  9
$CMLSCALE
 40
20.0
  9
$PROXYGRAPHICS
 70
     1
  9
$MEASUREMENT
 70
     1
  9
$CELWEIGHT
370
    -1
  9
$ENDCAPS
280
     0
  9
$JOINSTYLE
280
     0
  9
$LWDISPLAY
290
     0
  9
$INSUNITS
 70
     0
  9
$HYPERLINKBASE
  1

  9
$STYLESHEET
  1

  9
$XEDIT
290
     1
  9
$CEPSNTYPE
380
     0
  9
$PSTYLEMODE
290
     0
  9
$FINGERPRINTGUID
  2

  9
$VERSIONGUID
  2

  9
$EXTNAMES
290
     0
  9
$PSVPSCALE
 40
0.0
  0
ENDSEC
  0
SECTION
  2
CLASSES
  0
CLASS
  1
LWPOLYLINE
  2
AcDbPolyline
  3
AutoCAD 2000
 90
        0
280
     0
281
     1
  0
CLASS
  1
IMAGE
  2
AcDbRasterImage
  3
ISM
 90
      127
280
     0
281
     1
  0
CLASS
  1
OLE2FRAME
  2
AcDbOle2Frame
  3
AutoCAD 2000
 90
        0
280
     0
281
     1
  0
CLASS
  1
HATCH
  2
AcDbHatch
  3
AutoCAD 2000
 90
        0
280
     0
281
     1
  0
CLASS
  1
DICTIONARYVAR
  2
AcDbDictionaryVar
  3
AutoCAD 2000
 90
        0
280
     0
281
     0
  0
CLASS
  1
RASTERVARIABLES
  2
AcDbRasterVariables
  3
ISM
 90
        0
280
     0
281
     0
  0
CLASS
  1
IMAGEDEF
  2
AcDbRasterImageDef
  3
ISM
 90
        0
280
     0
281
     0
  0
CLASS
  1
IMAGEDEF_REACTOR
  2
AcDbRasterImageDefReactor
  3
ISM
 90
        1
280
     0
281
     0
  0
CLASS
  1
IDBUFFER
  2
AcDbIdBuffer
  3
AutoCAD 2000
 90
        0
280
     0
281
     0
  0
CLASS
  1
SPATIAL_FILTER
  2
AcDbSpatialFilter
  3
AutoCAD 2000
 90
        0
280
     0
281
     0
  0
CLASS
  1
XRECORD
  2
AcDbXrecord
  3
AutoCAD 2000
 90
        0
280
     0
281
     0
  0
CLASS
  1
SORTENTSTABLE
  2
AcDbSortentsTable
  3
AutoCAD 2000
 90
        0
280
     0
281
     0
  0
CLASS
  1
LAYER_INDEX
  2
AcDbLayerIndex
  3
AutoCAD 2000
 90
        0
280
     0
281
     0
  0
CLASS
  1
SPATIAL_INDEX
  2
AcDbSpatialIndex
  3
AutoCAD 2000
 90
        0
280
     0
281
     0
  0
CLASS
  1
OBJECT_PTR
  2
CAseDLPNTableRecord
  3
"ASE-LPNTableRecord"
 90
        1
280
     0
281
     0
  0
CLASS
  1
LAYOUT
  2
AcDbLayout
  3
AutoCAD 2000
 90
        0
280
     0
281
     0
  0
CLASS
  1
PLOTSETTINGS
  2
AcDbPlotSettings
  3
AutoCAD 2000
 90
        0
280
     0
281
     0
  0
CLASS
  1
ACDBDICTIONARYWDFLT
  2
AcDbDictionaryWithDefault
  3
AutoCAD 2000
 90
        0
280
     0
281
     0
  0
CLASS
  1
ACDBPLACEHOLDER
  2
AcDbPlaceHolder
  3
AutoCAD 2000
 90
        0
280
     0
281
     0
  0
CLASS
  1
VBA_PROJECT
  2
AcDbVbaProject
  3
acadvba
 90
        0
280
     0
281
     0
  0
CLASS
  1
WIPEOUT
  2
AcDbWipeout
  3
WipeOut|AutoCAD Express Tool|expresstools@autodesk.com
 90
      127
280
     0
281
     1
  0
CLASS
  1
WIPEOUTVARIABLES
  2
AcDbWipeoutVariables
  3
WipeOut|AutoCAD Express Tool|expresstools@autodesk.com
 90
        0
280
     0
281
     0
  0
CLASS
  1
RTEXT
  2
RText
  3
RText|AutoCAD Express Tool|expresstools@autodesk.com
 90
        0
280
     0
281
     1
  0
CLASS
  1
ARCALIGNEDTEXT
  2
AcDbArcAlignedText
  3
ATEXT|AutoCAD Express Tool|expresstools@autodesk.com
 90
        0
280
     0
281
     1
  0
ENDSEC
  0
SECTION
  2
TABLES
  0
TABLE
  2
VPORT
  5
7
100
AcDbSymbolTable
 70
     1
  0
VPORT
  5
15
100
AcDbSymbolTableRecord
100
AcDbViewportTableRecord
  2
*ACTIVE
 70
     0
 10
0.0
 20
0.0
 11
1.0
 21
1.0
 12
6.591288
 22
4.579184
 13
0.0
 23
0.0
 14
1.0
 24
1.0
 15
0.0
 25
0.0
 16
0.0
 26
0.0
 36
1.0
 17
0.0
 27
0.0
 37
0.0
 40
9.158369
 41
0.688564
 42
50.0
 43
0.0
 44
0.0
 50
0.0
 51
0.0
 71
     0
 72
   100
 73
     1
 74
     1
 75
     0
 76
     0
 77
     0
 78
     0
281
     0
 65
     0
110
0.0
120
0.0
130
0.0
111
1.0
121
0.0
131
0.0
112
0.0
122
1.0
132
0.0
345
0
346
0
 79
     0
146
0.0
  0
ENDTAB
  0
TABLE
  2
LTYPE
  5
4
100
AcDbSymbolTable
 70
     3
  0
LTYPE
  5
11
100
AcDbSymbolTableRecord
100
AcDbLinetypeTableRecord
  2
ByBlock
 70
    64
  3

 72
    65
 73
     0
 40
0.0
  0
LTYPE
  5
12
100
AcDbSymbolTableRecord
100
AcDbLinetypeTableRecord
  2
ByLayer
 70
    64
  3

 72
    65
 73
     0
 40
0.0
  0
LTYPE
  5
13
100
AcDbSymbolTableRecord
100
AcDbLinetypeTableRecord
  2
Continuous
 70
    64
  3
Solid line
 72
    65
 73
     0
 40
0.0
  0
ENDTAB
  0
TABLE
  2
LAYER
  5
2
100
AcDbSymbolTable
 70
     1
  0
LAYER
  5
14
100
AcDbSymbolTableRecord
100
AcDbLayerTableRecord
  2
0
 70
     0
 62
     7
  6
Continuous
290
     1
370
    -3
390
1D
  0
ENDTAB
  0
TABLE
  2
STYLE
  5
3
100
AcDbSymbolTable
 70
     1
  0
STYLE
  5
17
100
AcDbSymbolTableRecord
100
AcDbTextStyleTableRecord
  2
Standard
 70
     0
 40
0.0
 41
1.0
 50
0.0
 71
     0
 42
0.0
  3
txt
  4

  0
ENDTAB
  0
TABLE
  2
VIEW
  5
5
100
AcDbSymbolTable
 70
     0
  0
ENDTAB
  0
TABLE
  2
UCS
  5
6
100
AcDbSymbolTable
 70
     0
  0
ENDTAB
  0
TABLE
  2
APPID
  5
8
100
AcDbSymbolTable
 70
     1
  0
APPID
  5
16
100
AcDbSymbolTableRecord
100
AcDbRegAppTableRecord
  2
ACAD
 70
     0
  0
ENDTAB
  0
TABLE
  2
DIMSTYLE
  5
9
100
AcDbSymbolTable
 70
     1
100
AcDbDimStyleTable
 71
     0
  0
DIMSTYLE
105
18
100
AcDbSymbolTableRecord
100
AcDbDimStyleTableRecord
  2
Standard
 70
     0
  3

  4

 40
1.0
 41
0.18
 42
0.0625
 43
0.38
 44
0.18
 45
0.0
 46
0.0
 47
0.0
 48
0.0
 71
     0
 72
     0
 73
     1
 74
     1
 75
     0
 76
     0
 77
     0
 78
     0
 79
     0
140
0.18
141
0.09
142
0.0
143
25.4
144
1.0
145
0.0
146
1.0
147
0.09
148
0.0
170
     0
171
     2
172
     0
173
     0
174
     0
175
     0
176
     0
177
     0
178
     0
179
     0
271
     4
272
     4
273
     2
274
     2
275
     0
276
     0
277
     2
278
    46
279
     0
280
     0
281
     0
282
     0
283
     1
284
     0
285
     0
286
     0
288
     0
289
     3
340
17
341
0
342
0
343
0
344
0
371
    -2
372
    -2
  0
ENDTAB
  0
TABLE
  2
BLOCK_RECORD
  5
1
100
AcDbSymbolTable
 70
     0
  0
BLOCK_RECORD
  5
A
100
AcDbSymbolTableRecord
100
AcDbBlockTableRecord
  2
*MODEL_SPACE
340
20
  0
BLOCK_RECORD
  5
B
100
AcDbSymbolTableRecord
100
AcDbBlockTableRecord
  2
*PAPER_SPACE
340
21
  0
ENDTAB
  0
ENDSEC
  0
SECTION
  2
BLOCKS
  0
BLOCK
  5
D
100
AcDbEntity
  8
0
390
0
100
AcDbBlockBegin
  2
*MODEL_SPACE
 70
     0
 10
0.0
 20
0.0
 30
0.0
  3
*MODEL_SPACE
  1

  0
ENDBLK
  5
E
100
AcDbEntity
  8
0
390
0
100
AcDbBlockEnd
  0
BLOCK
  5
F
100
AcDbEntity
 67
     1
  8
0
390
0
100
AcDbBlockBegin
  2
*PAPER_SPACE
 70
     0
 10
0.0
 20
0.0
 30
0.0
  3
*PAPER_SPACE
  1

  0
ENDBLK
  5
10
100
AcDbEntity
 67
     1
  8
0
390
0
100
AcDbBlockEnd
  0
ENDSEC
  0
SECTION
  2
ENTITIES
  0
VIEWPORT
  5
4AB
100
AcDbEntity
 67
     1
  8
0
370
     0
390
0
 62
     0
 48
0.0
100
AcDbViewport
 10
0.0
 20
0.0
 30
0.0
 40
1000.0
 41
1000.0
 68
     1
 69
     1
 12
0.0
 22
0.0
 13
0.0
 23
0.0
 14
1.0
 24
1.0
 15
1.0
 25
1.0
 16
0.0
 26
0.0
 36
1.0
 17
0.0
 27
0.0
 37
0.0
 42
50.0
 43
0.0
 44
0.0
 45
1000.0
 50
0.0
 51
0.0
 72
   100
 90
        0
340
0
  1

281
     0
 71
     0
 74
     1
110
0.0
120
0.0
130
0.0
111
1.0
121
0.0
131
0.0
112
0.0
122
1.0
132
0.0
345
0
346
0
 79
     0
146
0.0
  0
ARC
  5
24
100
AcDbEntity
  8
0
370
    35
390
0
 62
     7
100
AcDbCircle
 10
149.720459
 20
703.674805
 30
0.0
 40
152.5
210
0.0
220
0.0
230
1.0
100
AcDbArc
 50
198.043866
 51
240.325564
  0
LINE
  5
25
100
AcDbEntity
  8
0
370
    35
390
0
 62
     7
100
AcDbLine
 10
74.222115
 20
571.174805
 30
0.0
 11
122.220459
 21
571.174805
 31
0.0
210
0.0
220
0.0
230
1.0
  0
LINE
  5
26
100
AcDbEntity
  8
0
370
    35
390
0
 62
     7
100
AcDbLine
 10
122.220459
 20
571.174805
 30
0.0
 11
122.220459
 21
591.174805
 31
0.0
210
0.0
220
0.0
230
1.0
  0
LINE
  5
27
100
AcDbEntity
  8
0
370
    35
390
0
 62
     7
 48
0.32276
100
AcDbLine
 10
122.220459
 20
591.174805
 30
0.0
 11
122.220459
 21
604.085205
 31
0.0
210
0.0
220
0.0
230
1.0
  0
LINE
  5
28
100
AcDbEntity
  8
0
370
    35
390
0
 62
     7
100
AcDbLine
 10
122.220459
 20
604.085205
 30
0.0
 11
177.220459
 21
604.085205
 31
0.0
210
0.0
220
0.0
230
1.0
  0
LINE
  5
29
100
AcDbEntity
  8
0
370
    35
390
0
 62
     7
 48
0.04776
100
AcDbLine
 10
177.220459
 20
602.174805
 30
0.0
 11
177.220459
 21
604.085205
 31
0.0
210
0.0
220
0.0
230
1.0
  0
LINE
  5
2A
100
AcDbEntity
  8
0
370
    35
390
0
 62
     7
 48
0.25
100
AcDbLine
 10
187.220459
 20
602.174805
 30
0.0
 11
177.220459
 21
602.174805
 31
0.0
210
0.0
220
0.0
230
1.0
  0
LINE
  5
2B
100
AcDbEntity
  8
0
370
    35
390
0
 62
     7
 48
0.1375
100
AcDbLine
 10
187.220459
 20
596.674805
 30
0.0
 11
187.220459
 21
602.174805
 31
0.0
210
0.0
220
0.0
230
1.0
  0
LINE
  5
2C
100
AcDbEntity
  8
0
370
    35
390
0
 62
     7
 48
0.25
100
AcDbLine
 10
187.220459
 20
596.674805
 30
0.0
 11
197.220459
 21
596.674805
 31
0.0
210
0.0
220
0.0
230
1.0
  0
LINE
  5
2D
100
AcDbEntity
  8
0
370
    35
390
0
 62
     7
100
AcDbLine
 10
223.220459
 20
596.674805
 30
0.0
 11
197.220459
 21
596.674805
 31
0.0
210
0.0
220
0.0
230
1.0
  0
LINE
  5
2E
100
AcDbEntity
  8
0
370
    35
390
0
 62
     7
 48
0.475
100
AcDbLine
 10
223.220459
 20
577.674805
 30
0.0
 11
223.220459
 21
596.674805
 31
0.0
210
0.0
220
0.0
230
1.0
  0
LINE
  5
2F
100
AcDbEntity
  8
0
370
    35
390
0
 62
     7
100
AcDbLine
 10
197.220459
 20
577.674805
 30
0.0
 11
223.220459
 21
577.674805
 31
0.0
210
0.0
220
0.0
230
1.0
  0
LINE
  5
30
100
AcDbEntity
  8
0
370
    35
390
0
 62
     7
 48
0.25
100
AcDbLine
 10
187.220459
 20
577.674805
 30
0.0
 11
197.220459
 21
577.674805
 31
0.0
210
0.0
220
0.0
230
1.0
  0
LINE
  5
31
100
AcDbEntity
  8
0
370
    35
390
0
 62
     7
 48
0.1375
100
AcDbLine
 10
187.220459
 20
572.174805
 30
0.0
 11
187.220459
 21
577.674805
 31
0.0
210
0.0
220
0.0
230
1.0
  0
LINE
  5
32
100
AcDbEntity
  8
0
370
    35
390
0
 62
     7
 48
0.025
100
AcDbLine
 10
187.220459
 20
572.174805
 30
0.0
 11
187.220459
 21
571.174805
 31
0.0
210
0.0
220
0.0
230
1.0
  0
LINE
  5
33
100
AcDbEntity
  8
0
370
    35
390
0
 62
     7
100
AcDbLine
 10
225.218796
 20
571.174805
 30
0.0
 11
187.220459
 21
571.174805
 31
0.0
210
0.0
220
0.0
230
1.0
  0
ARC
  5
34
100
AcDbEntity
  8
0
370
    35
390
0
 62
     7
100
AcDbCircle
 10
149.720459
 20
703.674805
 30
0.0
 40
152.5
210
0.0
220
0.0
230
1.0
100
AcDbArc
 50
299.674437
 51
341.956138
  0
LINE
  5
35
100
AcDbEntity
  8
0
370
    35
390
0
 62
     7
100
AcDbLine
 10
294.720459
 20
750.910889
 30
0.0
 11
294.720459
 21
656.438721
 31
0.0
210
0.0
220
0.0
230
1.0
  0
ARC
  5
36
100
AcDbEntity
  8
0
370
    35
390
0
 62
     7
100
AcDbCircle
 10
149.720459
 20
703.674805
 30
0.0
 40
152.5
210
0.0
220
0.0
230
1.0
100
AcDbArc
 50
18.043862
 51
60.325563
  0
LINE
  5
37
100
AcDbEntity
  8
0
370
    35
390
0
 62
     7
100
AcDbLine
 10
158.039993
 20
836.174805
 30
0.0
 11
225.218796
 21
836.174805
 31
0.0
210
0.0
220
0.0
230
1.0
  0
LINE
  5
38
100
AcDbEntity
  8
0
370
    35
390
0
 62
     7
100
AcDbLine
 10
158.039993
 20
813.085449
 30
0.0
 11
158.039993
 21
836.174805
 31
0.0
210
0.0
220
0.0
230
1.0
  0
LINE
  5
39
100
AcDbEntity
  8
0
370
    35
390
0
 62
     7
100
AcDbLine
 10
158.039993
 20
788.085449
 30
0.0
 11
158.039993
 21
813.085449
 31
0.0
210
0.0
220
0.0
230
1.0
  0
LINE
  5
3A
100
AcDbEntity
  8
0
370
    35
390
0
 62
     7
100
AcDbLine
 10
181.567871
 20
788.085449
 30
0.0
 11
158.039993
 21
788.085449
 31
0.0
210
0.0
220
0.0
230
1.0
  0
LINE
  5
3B
100
AcDbEntity
  8
0
370
    35
390
0
 62
     7
100
AcDbLine
 10
181.567871
 20
753.776978
 30
0.0
 11
181.567871
 21
788.085449
 31
0.0
210
0.0
220
0.0
230
1.0
  0
ARC
  5
3C
100
AcDbEntity
  8
0
370
    35
390
0
 62
     7
100
AcDbCircle
 10
140.288589
 20
736.238159
 30
0.0
 40
44.850745
210
0.0
220
0.0
230
1.0
100
AcDbArc
 50
336.980248
 51
23.019752
  0
LINE
  5
3D
100
AcDbEntity
  8
0
370
    35
390
0
 62
     7
100
AcDbLine
 10
181.567871
 20
668.200317
 30
0.0
 11
181.567871
 21
718.699341
 31
0.0
210
0.0
220
0.0
230
1.0
  0
LINE
  5
3E
100
AcDbEntity
  8
0
370
    35
390
0
 62
     7
100
AcDbLine
 10
111.191391
 20
668.200317
 30
0.0
 11
181.567871
 21
668.200317
 31
0.0
210
0.0
220
0.0
230
1.0
  0
LINE
  5
3F
100
AcDbEntity
  8
0
370
    35
390
0
 62
     7
 48
0.324211
100
AcDbLine
 10
111.191391
 20
668.200317
 30
0.0
 11
111.191391
 21
681.168762
 31
0.0
210
0.0
220
0.0
230
1.0
  0
ARC
  5
40
100
AcDbEntity
  8
0
370
    35
390
0
 62
     7
100
AcDbCircle
 10
97.85965
 20
696.058411
 30
0.0
 40
19.985911
210
0.0
220
0.0
230
1.0
100
AcDbArc
 50
48.159671
 51
311.840329
  0
LINE
  5
41
100
AcDbEntity
  8
0
370
    35
390
0
 62
     7
 48
0.193782
100
AcDbLine
 10
111.191391
 20
710.948059
 30
0.0
 11
111.191391
 21
718.699341
 31
0.0
210
0.0
220
0.0
230
1.0
  0
ARC
  5
42
100
AcDbEntity
  8
0
370
    35
390
0
 62
     7
100
AcDbCircle
 10
152.470673
 20
736.238159
 30
0.0
 40
44.850745
210
0.0
220
0.0
230
1.0
100
AcDbArc
 50
156.980246
 51
203.019754
  0
LINE
  5
43
100
AcDbEntity
  8
0
370
    35
390
0
 62
     7
100
AcDbLine
 10
111.191391
 20
753.776978
 30
0.0
 11
111.191391
 21
788.085449
 31
0.0
210
0.0
220
0.0
230
1.0
  0
LINE
  5
44
100
AcDbEntity
  8
0
370
    35
390
0
 62
     7
100
AcDbLine
 10
111.191391
 20
788.085449
 30
0.0
 11
134.719269
 21
788.085449
 31
0.0
210
0.0
220
0.0
230
1.0
  0
LINE
  5
45
100
AcDbEntity
  8
0
370
    35
390
0
 62
     7
100
AcDbLine
 10
134.719269
 20
788.085449
 30
0.0
 11
134.719269
 21
813.085449
 31
0.0
210
0.0
220
0.0
230
1.0
  0
LINE
  5
46
100
AcDbEntity
  8
0
370
    35
390
0
 62
     7
100
AcDbLine
 10
134.719269
 20
813.085449
 30
0.0
 11
134.719269
 21
836.174805
 31
0.0
210
0.0
220
0.0
230
1.0
  0
LINE
  5
47
100
AcDbEntity
  8
0
370
    35
390
0
 62
     7
100
AcDbLine
 10
74.222115
 20
836.174805
 30
0.0
 11
134.719269
 21
836.174805
 31
0.0
210
0.0
220
0.0
230
1.0
  0
ARC
  5
48
100
AcDbEntity
  8
0
370
    35
390
0
 62
     7
100
AcDbCircle
 10
149.720459
 20
703.674805
 30
0.0
 40
152.5
210
0.0
220
0.0
230
1.0
100
AcDbArc
 50
119.674436
 51
161.956134
  0
LINE
  5
49
100
AcDbEntity
  8
0
370
    35
390
0
 62
     7
100
AcDbLine
 10
4.720456
 20
656.438721
 30
0.0
 11
4.720456
 21
750.910889
 31
0.0
210
0.0
220
0.0
230
1.0
  0
LINE
  5
4A
100
AcDbEntity
  8
0
370
    35
390
0
 62
     7
 48
0.125
100
AcDbLine
 10
207.53067
 20
605.33252
 30
0.0
 11
207.53067
 21
610.33252
 31
0.0
210
0.0
220
0.0
230
1.0
  0
LINE
  5
4B
100
AcDbEntity
  8
0
370
    35
390
0
 62
     7
 48
0.125
100
AcDbLine
 10
207.53067
 20
610.33252
 30
0.0
 11
212.53067
 21
610.33252
 31
0.0
210
0.0
220
0.0
230
1.0
  0
LINE
  5
4C
100
AcDbEntity
  8
0
370
    35
390
0
 62
     7
 48
0.125
100
AcDbLine
 10
212.53067
 20
610.33252
 30
0.0
 11
212.53067
 21
605.33252
 31
0.0
210
0.0
220
0.0
230
1.0
  0
LINE
  5
4D
100
AcDbEntity
  8
0
370
    35
390
0
 62
     7
 48
0.125
100
AcDbLine
 10
212.53067
 20
605.33252
 30
0.0
 11
207.53067
 21
605.33252
 31
0.0
210
0.0
220
0.0
230
1.0
  0
LINE
  5
4E
100
AcDbEntity
  8
0
370
    35
390
0
 62
     7
 48
0.125
100
AcDbLine
 10
191.910248
 20
610.33252
 30
0.0
 11
186.910248
 21
610.33252
 31
0.0
210
0.0
220
0.0
230
1.0
  0
LINE
  5
4F
100
AcDbEntity
  8
0
370
    35
390
0
 62
     7
 48
0.125
100
AcDbLine
 10
191.910248
 20
605.33252
 30
0.0
 11
191.910248
 21
610.33252
 31
0.0
210
0.0
220
0.0
230
1.0
  0
LINE
  5
50
100
AcDbEntity
  8
0
370
    35
390
0
 62
     7
 48
0.125
100
AcDbLine
 10
186.910248
 20
605.33252
 30
0.0
 11
191.910248
 21
605.33252
 31
0.0
210
0.0
220
0.0
230
1.0
  0
LINE
  5
51
100
AcDbEntity
  8
0
370
    35
390
0
 62
     7
 48
0.125
100
AcDbLine
 10
186.910248
 20
610.33252
 30
0.0
 11
186.910248
 21
605.33252
 31
0.0
210
0.0
220
0.0
230
1.0
  0
CIRCLE
  5
52
100
AcDbEntity
  8
0
370
    35
390
0
 62
     7
100
AcDbCircle
 10
254.732285
 20
621.384949
 30
0.0
 40
1.5
210
0.0
220
0.0
230
1.0
  0
CIRCLE
  5
53
100
AcDbEntity
  8
0
370
    35
390
0
 62
     7
100
AcDbCircle
 10
44.708626
 20
621.384949
 30
0.0
 40
1.5
210
0.0
220
0.0
230
1.0
  0
CIRCLE
  5
54
100
AcDbEntity
  8
0
370
    35
390
0
 62
     7
100
AcDbCircle
 10
44.708626
 20
778.817993
 30
0.0
 40
1.5
210
0.0
220
0.0
230
1.0
  0
CIRCLE
  5
55
100
AcDbEntity
  8
0
370
    35
390
0
 62
     7
100
AcDbCircle
 10
254.732285
 20
778.817993
 30
0.0
 40
1.5
210
0.0
220
0.0
230
1.0
  0
CIRCLE
  5
56
100
AcDbEntity
  8
0
370
    35
390
0
 62
     7
100
AcDbCircle
 10
149.720459
 20
661.792847
 30
0.0
 40
1.5
210
0.0
220
0.0
230
1.0
  0
CIRCLE
  5
57
100
AcDbEntity
  8
0
370
    35
390
0
 62
     7
100
AcDbCircle
 10
49.843174
 20
706.13562
 30
0.0
 40
1.5
210
0.0
220
0.0
230
1.0
  0
CIRCLE
  5
58
100
AcDbEntity
  8
0
370
    35
390
0
 62
     7
100
AcDbCircle
 10
49.843174
 20
683.899414
 30
0.0
 40
1.5
210
0.0
220
0.0
230
1.0
  0
CIRCLE
  5
59
100
AcDbEntity
  8
0
370
    35
390
0
 62
     7
100
AcDbCircle
 10
249.597748
 20
706.13562
 30
0.0
 40
1.5
210
0.0
220
0.0
230
1.0
  0
CIRCLE
  5
5A
100
AcDbEntity
  8
0
370
    35
390
0
 62
     7
100
AcDbCircle
 10
249.597748
 20
683.899414
 30
0.0
 40
1.5
210
0.0
220
0.0
230
1.0
  0
CIRCLE
  5
5B
100
AcDbEntity
  8
0
370
    35
390
0
 62
     7
100
AcDbCircle
 10
202.584946
 20
696.058411
 30
0.0
 40
19.382043
210
0.0
220
0.0
230
1.0
  0
LINE
  5
5C
100
AcDbEntity
  8
0
370
    35
390
0
 62
     7
100
AcDbLine
 10
373.161102
 20
819.678345
 30
0.0
 11
373.161102
 21
796.220093
 31
0.0
210
0.0
220
0.0
230
1.0
  0
POLYLINE
  5
5D
100
AcDbEntity
  8
0
370
    35
390
0
 62
     7
100
AcDb2dPolyline
 66
     1
 10
0.0
 20
0.0
 30
0.0
 71
    25
  0
VERTEX
  5
5E
100
AcDbEntity
  8
0
370
     0
390
0
100
AcDbVertex
100
AcDb2dVertex
 10
373.161102
 20
819.678345
 30
0.0
  0
VERTEX
  5
5F
100
AcDbEntity
  8
0
370
     0
390
0
100
AcDbVertex
100
AcDb2dVertex
 10
373.600128
 20
821.149475
 30
0.0
  0
VERTEX
  5
60
100
AcDbEntity
  8
0
370
     0
390
0
100
AcDbVertex
100
AcDb2dVertex
 10
373.754425
 20
821.867004
 30
0.0
  0
VERTEX
  5
61
100
AcDbEntity
  8
0
370
     0
390
0
100
AcDbVertex
100
AcDb2dVertex
 10
373.86322
 20
822.566528
 30
0.0
  0
VERTEX
  5
62
100
AcDbEntity
  8
0
370
     0
390
0
100
AcDbVertex
100
AcDb2dVertex
 10
373.92572
 20
823.232666
 30
0.0
  0
VERTEX
  5
63
100
AcDbEntity
  8
0
370
     0
390
0
100
AcDbVertex
100
AcDb2dVertex
 10
373.945099
 20
823.881653
 30
0.0
  0
VERTEX
  5
64
100
AcDbEntity
  8
0
370
     0
390
0
100
AcDbVertex
100
AcDb2dVertex
 10
373.892792
 20
824.834167
 30
0.0
  0
VERTEX
  5
65
100
AcDbEntity
  8
0
370
     0
390
0
100
AcDbVertex
100
AcDb2dVertex
 10
373.743164
 20
825.747498
 30
0.0
  0
VERTEX
  5
66
100
AcDbEntity
  8
0
370
     0
390
0
100
AcDbVertex
100
AcDb2dVertex
 10
373.498291
 20
826.621887
 30
0.0
  0
VERTEX
  5
67
100
AcDbEntity
  8
0
370
     0
390
0
100
AcDbVertex
100
AcDb2dVertex
 10
373.161102
 20
827.45752
 30
0.0
  0
VERTEX
  5
68
100
AcDbEntity
  8
0
370
     0
390
0
100
AcDbVertex
100
AcDb2dVertex
 10
372.726196
 20
828.270081
 30
0.0
  0
VERTEX
  5
69
100
AcDbEntity
  8
0
370
     0
390
0
100
AcDbVertex
100
AcDb2dVertex
 10
372.204376
 20
829.043213
 30
0.0
  0
VERTEX
  5
6A
100
AcDbEntity
  8
0
370
     0
390
0
100
AcDbVertex
100
AcDb2dVertex
 10
371.601746
 20
829.777527
 30
0.0
  0
VERTEX
  5
6B
100
AcDbEntity
  8
0
370
     0
390
0
100
AcDbVertex
100
AcDb2dVertex
 10
371.100922
 20
830.303223
 30
0.0
  0
VERTEX
  5
6C
100
AcDbEntity
  8
0
370
     0
390
0
100
AcDbVertex
100
AcDb2dVertex
 10
370.561676
 20
830.807678
 30
0.0
  0
VERTEX
  5
6D
100
AcDbEntity
  8
0
370
     0
390
0
100
AcDbVertex
100
AcDb2dVertex
 10
369.381378
 20
831.754333
 30
0.0
  0
VERTEX
  5
6E
100
AcDbEntity
  8
0
370
     0
390
0
100
AcDbVertex
100
AcDb2dVertex
 10
368.088562
 20
832.620117
 30
0.0
  0
VERTEX
  5
6F
100
AcDbEntity
  8
0
370
     0
390
0
100
AcDbVertex
100
AcDb2dVertex
 10
366.711334
 20
833.407532
 30
0.0
  0
VERTEX
  5
70
100
AcDbEntity
  8
0
370
     0
390
0
100
AcDbVertex
100
AcDb2dVertex
 10
365.701569
 20
833.918457
 30
0.0
  0
VERTEX
  5
71
100
AcDbEntity
  8
0
370
     0
390
0
100
AcDbVertex
100
AcDb2dVertex
 10
364.672302
 20
834.392273
 30
0.0
  0
VERTEX
  5
72
100
AcDbEntity
  8
0
370
     0
390
0
100
AcDbVertex
100
AcDb2dVertex
 10
363.504974
 20
834.880554
 30
0.0
  0
VERTEX
  5
73
100
AcDbEntity
  8
0
370
     0
390
0
100
AcDbVertex
100
AcDb2dVertex
 10
362.333496
 20
835.324097
 30
0.0
  0
VERTEX
  5
74
100
AcDbEntity
  8
0
370
     0
390
0
100
AcDbVertex
100
AcDb2dVertex
 10
360.215607
 20
836.018799
 30
0.0
  0
VERTEX
  5
75
100
AcDbEntity
  8
0
370
     0
390
0
100
AcDbVertex
100
AcDb2dVertex
 10
358.138336
 20
836.570496
 30
0.0
  0
VERTEX
  5
76
100
AcDbEntity
  8
0
370
     0
390
0
100
AcDbVertex
100
AcDb2dVertex
 10
356.113098
 20
836.980225
 30
0.0
  0
SEQEND
  5
77
100
AcDbEntity
  8
0
370
     0
390
0
  0
LINE
  5
78
100
AcDbEntity
  8
0
370
    35
390
0
 62
     7
 48
0.494482
100
AcDbLine
 10
356.113098
 20
836.980225
 30
0.0
 11
336.333801
 21
836.980225
 31
0.0
210
0.0
220
0.0
230
1.0
  0
LINE
  5
79
100
AcDbEntity
  8
0
370
    35
390
0
 62
     7
 48
0.494483
100
AcDbLine
 10
316.554474
 20
836.980225
 30
0.0
 11
336.333801
 21
836.980225
 31
0.0
210
0.0
220
0.0
230
1.0
  0
POLYLINE
  5
7A
100
AcDbEntity
  8
0
370
    35
390
0
 62
     7
100
AcDb2dPolyline
 66
     1
 10
0.0
 20
0.0
 30
0.0
 71
    25
  0
VERTEX
  5
7B
100
AcDbEntity
  8
0
370
     0
390
0
100
AcDbVertex
100
AcDb2dVertex
 10
299.5065
 20
819.678345
 30
0.0
  0
VERTEX
  5
7C
100
AcDbEntity
  8
0
370
     0
390
0
100
AcDbVertex
100
AcDb2dVertex
 10
299.067474
 20
821.149475
 30
0.0
  0
VERTEX
  5
7D
100
AcDbEntity
  8
0
370
     0
390
0
100
AcDbVertex
100
AcDb2dVertex
 10
298.913177
 20
821.867004
 30
0.0
  0
VERTEX
  5
7E
100
AcDbEntity
  8
0
370
     0
390
0
100
AcDbVertex
100
AcDb2dVertex
 10
298.804352
 20
822.566528
 30
0.0
  0
VERTEX
  5
7F
100
AcDbEntity
  8
0
370
     0
390
0
100
AcDbVertex
100
AcDb2dVertex
 10
298.741882
 20
823.232666
 30
0.0
  0
VERTEX
  5
80
100
AcDbEntity
  8
0
370
     0
390
0
100
AcDbVertex
100
AcDb2dVertex
 10
298.722473
 20
823.881653
 30
0.0
  0
VERTEX
  5
81
100
AcDbEntity
  8
0
370
     0
390
0
100
AcDbVertex
100
AcDb2dVertex
 10
298.774811
 20
824.834167
 30
0.0
  0
VERTEX
  5
82
100
AcDbEntity
  8
0
370
     0
390
0
100
AcDbVertex
100
AcDb2dVertex
 10
298.924438
 20
825.747498
 30
0.0
  0
VERTEX
  5
83
100
AcDbEntity
  8
0
370
     0
390
0
100
AcDbVertex
100
AcDb2dVertex
 10
299.169281
 20
826.621887
 30
0.0
  0
VERTEX
  5
84
100
AcDbEntity
  8
0
370
     0
390
0
100
AcDbVertex
100
AcDb2dVertex
 10
299.5065
 20
827.45752
 30
0.0
  0
VERTEX
  5
85
100
AcDbEntity
  8
0
370
     0
390
0
100
AcDbVertex
100
AcDb2dVertex
 10
299.941406
 20
828.270081
 30
0.0
  0
VERTEX
  5
86
100
AcDbEntity
  8
0
370
     0
390
0
100
AcDbVertex
100
AcDb2dVertex
 10
300.463226
 20
829.043213
 30
0.0
  0
VERTEX
  5
87
100
AcDbEntity
  8
0
370
     0
390
0
100
AcDbVertex
100
AcDb2dVertex
 10
301.065826
 20
829.777527
 30
0.0
  0
VERTEX
  5
88
100
AcDbEntity
  8
0
370
     0
390
0
100
AcDbVertex
100
AcDb2dVertex
 10
301.56665
 20
830.303223
 30
0.0
  0
VERTEX
  5
89
100
AcDbEntity
  8
0
370
     0
390
0
100
AcDbVertex
100
AcDb2dVertex
 10
302.105896
 20
830.807678
 30
0.0
  0
VERTEX
  5
8A
100
AcDbEntity
  8
0
370
     0
390
0
100
AcDbVertex
100
AcDb2dVertex
 10
303.286194
 20
831.754333
 30
0.0
  0
VERTEX
  5
8B
100
AcDbEntity
  8
0
370
     0
390
0
100
AcDbVertex
100
AcDb2dVertex
 10
304.579041
 20
832.620117
 30
0.0
  0
VERTEX
  5
8C
100
AcDbEntity
  8
0
370
     0
390
0
100
AcDbVertex
100
AcDb2dVertex
 10
305.956268
 20
833.407532
 30
0.0
  0
VERTEX
  5
8D
100
AcDbEntity
  8
0
370
     0
390
0
100
AcDbVertex
100
AcDb2dVertex
 10
306.966034
 20
833.918457
 30
0.0
  0
VERTEX
  5
8E
100
AcDbEntity
  8
0
370
     0
390
0
100
AcDbVertex
100
AcDb2dVertex
 10
307.99527
 20
834.392273
 30
0.0
  0
VERTEX
  5
8F
100
AcDbEntity
  8
0
370
     0
390
0
100
AcDbVertex
100
AcDb2dVertex
 10
309.162598
 20
834.880554
 30
0.0
  0
VERTEX
  5
90
100
AcDbEntity
  8
0
370
     0
390
0
100
AcDbVertex
100
AcDb2dVertex
 10
310.334106
 20
835.324097
 30
0.0
  0
VERTEX
  5
91
100
AcDbEntity
  8
0
370
     0
390
0
100
AcDbVertex
100
AcDb2dVertex
 10
312.451996
 20
836.018799
 30
0.0
  0
VERTEX
  5
92
100
AcDbEntity
  8
0
370
     0
390
0
100
AcDbVertex
100
AcDb2dVertex
 10
314.529266
 20
836.570496
 30
0.0
  0
VERTEX
  5
93
100
AcDbEntity
  8
0
370
     0
390
0
100
AcDbVertex
100
AcDb2dVertex
 10
316.554474
 20
836.980225
 30
0.0
  0
SEQEND
  5
94
100
AcDbEntity
  8
0
370
     0
390
0
  0
LINE
  5
95
100
AcDbEntity
  8
0
370
    35
390
0
 62
     7
100
AcDbLine
 10
299.5065
 20
819.678345
 30
0.0
 11
299.5065
 21
796.220093
 31
0.0
210
0.0
220
0.0
230
1.0
  0
LINE
  5
96
100
AcDbEntity
  8
0
370
    35
390
0
 62
     7
100
AcDbLine
 10
299.5065
 20
796.220093
 30
0.0
 11
299.5065
 21
736.220093
 31
0.0
210
0.0
220
0.0
230
1.0
  0
LINE
  5
97
100
AcDbEntity
  8
0
370
    35
390
0
 62
     7
 48
0.172906
100
AcDbLine
 10
299.5065
 20
736.220093
 30
0.0
 11
299.5065
 21
729.303833
 31
0.0
210
0.0
220
0.0
230
1.0
  0
LINE
  5
98
100
AcDbEntity
  8
0
370
    35
390
0
 62
     7
 48
0.124661
100
AcDbLine
 10
299.5065
 20
729.303833
 30
0.0
 11
299.5065
 21
724.317383
 31
0.0
210
0.0
220
0.0
230
1.0
  0
POLYLINE
  5
99
100
AcDbEntity
  8
0
370
    35
390
0
 62
     7
100
AcDb2dPolyline
 66
     1
 10
0.0
 20
0.0
 30
0.0
 71
    47
  0
VERTEX
  5
9A
100
AcDbEntity
  8
0
370
     0
390
0
100
AcDbVertex
100
AcDb2dVertex
 10
299.5065
 20
724.317383
 30
0.0
  0
VERTEX
  5
9B
100
AcDbEntity
  8
0
370
     0
390
0
100
AcDbVertex
100
AcDb2dVertex
 10
299.242706
 20
722.526489
 30
0.0
  0
VERTEX
  5
9C
100
AcDbEntity
  8
0
370
     0
390
0
100
AcDbVertex
100
AcDb2dVertex
 10
299.171509
 20
721.665283
 30
0.0
  0
VERTEX
  5
9D
100
AcDbEntity
  8
0
370
     0
390
0
100
AcDbVertex
100
AcDb2dVertex
 10
299.145813
 20
720.854065
 30
0.0
  0
VERTEX
  5
9E
100
AcDbEntity
  8
0
370
     0
390
0
100
AcDbVertex
100
AcDb2dVertex
 10
299.16214
 20
720.154053
 30
0.0
  0
VERTEX
  5
9F
100
AcDbEntity
  8
0
370
     0
390
0
100
AcDbVertex
100
AcDb2dVertex
 10
299.216553
 20
719.495911
 30
0.0
  0
VERTEX
  5
A0
100
AcDbEntity
  8
0
370
     0
390
0
100
AcDbVertex
100
AcDb2dVertex
 10
299.378143
 20
718.547729
 30
0.0
  0
VERTEX
  5
A1
100
AcDbEntity
  8
0
370
     0
390
0
100
AcDbVertex
100
AcDb2dVertex
 10
299.63208
 20
717.700867
 30
0.0
  0
VERTEX
  5
A2
100
AcDbEntity
  8
0
370
     0
390
0
100
AcDbVertex
100
AcDb2dVertex
 10
299.977051
 20
716.953613
 30
0.0
  0
VERTEX
  5
A3
100
AcDbEntity
  8
0
370
     0
390
0
100
AcDbVertex
100
AcDb2dVertex
 10
300.411316
 20
716.303833
 30
0.0
  0
VERTEX
  5
A4
100
AcDbEntity
  8
0
370
     0
390
0
100
AcDbVertex
100
AcDb2dVertex
 10
300.944153
 20
715.737976
 30
0.0
  0
VERTEX
  5
A5
100
AcDbEntity
  8
0
370
     0
390
0
100
AcDbVertex
100
AcDb2dVertex
 10
301.564209
 20
715.266479
 30
0.0
  0
VERTEX
  5
A6
100
AcDbEntity
  8
0
370
     0
390
0
100
AcDbVertex
100
AcDb2dVertex
 10
302.26767
 20
714.884583
 30
0.0
  0
VERTEX
  5
A7
100
AcDbEntity
  8
0
370
     0
390
0
100
AcDbVertex
100
AcDb2dVertex
 10
302.844849
 20
714.654358
 30
0.0
  0
VERTEX
  5
A8
100
AcDbEntity
  8
0
370
     0
390
0
100
AcDbVertex
100
AcDb2dVertex
 10
303.463959
 20
714.468384
 30
0.0
  0
VERTEX
  5
A9
100
AcDbEntity
  8
0
370
     0
390
0
100
AcDbVertex
100
AcDb2dVertex
 10
304.128204
 20
714.322937
 30
0.0
  0
VERTEX
  5
AA
100
AcDbEntity
  8
0
370
     0
390
0
100
AcDbVertex
100
AcDb2dVertex
 10
304.830353
 20
714.216614
 30
0.0
  0
VERTEX
  5
AB
100
AcDbEntity
  8
0
370
     0
390
0
100
AcDbVertex
100
AcDb2dVertex
 10
305.927307
 20
714.124634
 30
0.0
  0
VERTEX
  5
AC
100
AcDbEntity
  8
0
370
     0
390
0
100
AcDbVertex
100
AcDb2dVertex
 10
307.092285
 20
714.099915
 30
0.0
  0
VERTEX
  5
AD
100
AcDbEntity
  8
0
370
     0
390
0
100
AcDbVertex
100
AcDb2dVertex
 10
308.489441
 20
714.139526
 30
0.0
  0
VERTEX
  5
AE
100
AcDbEntity
  8
0
370
     0
390
0
100
AcDbVertex
100
AcDb2dVertex
 10
309.456696
 20
714.197998
 30
0.0
  0
VERTEX
  5
AF
100
AcDbEntity
  8
0
370
     0
390
0
100
AcDbVertex
100
AcDb2dVertex
 10
311.458618
 20
714.368896
 30
0.0
  0
VERTEX
  5
B0
100
AcDbEntity
  8
0
370
     0
390
0
100
AcDbVertex
100
AcDb2dVertex
 10
313.783783
 20
714.60437
 30
0.0
  0
VERTEX
  5
B1
100
AcDbEntity
  8
0
370
     0
390
0
100
AcDbVertex
100
AcDb2dVertex
 10
316.141846
 20
714.830444
 30
0.0
  0
VERTEX
  5
B2
100
AcDbEntity
  8
0
370
     0
390
0
100
AcDbVertex
100
AcDb2dVertex
 10
317.520874
 20
714.936523
 30
0.0
  0
VERTEX
  5
B3
100
AcDbEntity
  8
0
370
     0
390
0
100
AcDbVertex
100
AcDb2dVertex
 10
318.887909
 20
715.010498
 30
0.0
  0
VERTEX
  5
B4
100
AcDbEntity
  8
0
370
     0
390
0
100
AcDbVertex
100
AcDb2dVertex
 10
320.168915
 20
715.042297
 30
0.0
  0
VERTEX
  5
B5
100
AcDbEntity
  8
0
370
     0
390
0
100
AcDbVertex
100
AcDb2dVertex
 10
321.426239
 20
715.029114
 30
0.0
  0
VERTEX
  5
B6
100
AcDbEntity
  8
0
370
     0
390
0
100
AcDbVertex
100
AcDb2dVertex
 10
323.05658
 20
714.929932
 30
0.0
  0
VERTEX
  5
B7
100
AcDbEntity
  8
0
370
     0
390
0
100
AcDbVertex
100
AcDb2dVertex
 10
324.623749
 20
714.724487
 30
0.0
  0
VERTEX
  5
B8
100
AcDbEntity
  8
0
370
     0
390
0
100
AcDbVertex
100
AcDb2dVertex
 10
326.117828
 20
714.400513
 30
0.0
  0
VERTEX
  5
B9
100
AcDbEntity
  8
0
370
     0
390
0
100
AcDbVertex
100
AcDb2dVertex
 10
326.834747
 20
714.190674
 30
0.0
  0
VERTEX
  5
BA
100
AcDbEntity
  8
0
370
     0
390
0
100
AcDbVertex
100
AcDb2dVertex
 10
327.530304
 20
713.947327
 30
0.0
  0
VERTEX
  5
BB
100
AcDbEntity
  8
0
370
     0
390
0
100
AcDbVertex
100
AcDb2dVertex
 10
328.422974
 20
713.56897
 30
0.0
  0
VERTEX
  5
BC
100
AcDbEntity
  8
0
370
     0
390
0
100
AcDbVertex
100
AcDb2dVertex
 10
329.274353
 20
713.126892
 30
0.0
  0
VERTEX
  5
BD
100
AcDbEntity
  8
0
370
     0
390
0
100
AcDbVertex
100
AcDb2dVertex
 10
330.082733
 20
712.61908
 30
0.0
  0
VERTEX
  5
BE
100
AcDbEntity
  8
0
370
     0
390
0
100
AcDbVertex
100
AcDb2dVertex
 10
331.030701
 20
711.889282
 30
0.0
  0
VERTEX
  5
BF
100
AcDbEntity
  8
0
370
     0
390
0
100
AcDbVertex
100
AcDb2dVertex
 10
331.907013
 20
711.051208
 30
0.0
  0
VERTEX
  5
C0
100
AcDbEntity
  8
0
370
     0
390
0
100
AcDbVertex
100
AcDb2dVertex
 10
332.709808
 20
710.102478
 30
0.0
  0
VERTEX
  5
C1
100
AcDbEntity
  8
0
370
     0
390
0
100
AcDbVertex
100
AcDb2dVertex
 10
333.437561
 20
709.041199
 30
0.0
  0
VERTEX
  5
C2
100
AcDbEntity
  8
0
370
     0
390
0
100
AcDbVertex
100
AcDb2dVertex
 10
334.089111
 20
707.865967
 30
0.0
  0
VERTEX
  5
C3
100
AcDbEntity
  8
0
370
     0
390
0
100
AcDbVertex
100
AcDb2dVertex
 10
334.663544
 20
706.575623
 30
0.0
  0
VERTEX
  5
C4
100
AcDbEntity
  8
0
370
     0
390
0
100
AcDbVertex
100
AcDb2dVertex
 10
334.970947
 20
705.74585
 30
0.0
  0
VERTEX
  5
C5
100
AcDbEntity
  8
0
370
     0
390
0
100
AcDbVertex
100
AcDb2dVertex
 10
335.250275
 20
704.874268
 30
0.0
  0
VERTEX
  5
C6
100
AcDbEntity
  8
0
370
     0
390
0
100
AcDbVertex
100
AcDb2dVertex
 10
335.724426
 20
703.005249
 30
0.0
  0
VERTEX
  5
C7
100
AcDbEntity
  8
0
370
     0
390
0
100
AcDbVertex
100
AcDb2dVertex
 10
336.085632
 20
700.96814
 30
0.0
  0
VERTEX
  5
C8
100
AcDbEntity
  8
0
370
     0
390
0
100
AcDbVertex
100
AcDb2dVertex
 10
336.333801
 20
698.762756
 30
0.0
  0
SEQEND
  5
C9
100
AcDbEntity
  8
0
370
     0
390
0
  0
POLYLINE
  5
CA
100
AcDbEntity
  8
0
370
    35
390
0
 62
     7
100
AcDb2dPolyline
 66
     1
 10
0.0
 20
0.0
 30
0.0
 71
    47
  0
VERTEX
  5
CB
100
AcDbEntity
  8
0
370
     0
390
0
100
AcDbVertex
100
AcDb2dVertex
 10
373.161102
 20
724.317383
 30
0.0
  0
VERTEX
  5
CC
100
AcDbEntity
  8
0
370
     0
390
0
100
AcDbVertex
100
AcDb2dVertex
 10
373.424896
 20
722.526489
 30
0.0
  0
VERTEX
  5
CD
100
AcDbEntity
  8
0
370
     0
390
0
100
AcDbVertex
100
AcDb2dVertex
 10
373.496094
 20
721.665283
 30
0.0
  0
VERTEX
  5
CE
100
AcDbEntity
  8
0
370
     0
390
0
100
AcDbVertex
100
AcDb2dVertex
 10
373.52179
 20
720.854065
 30
0.0
  0
VERTEX
  5
CF
100
AcDbEntity
  8
0
370
     0
390
0
100
AcDbVertex
100
AcDb2dVertex
 10
373.505463
 20
720.154053
 30
0.0
  0
VERTEX
  5
D0
100
AcDbEntity
  8
0
370
     0
390
0
100
AcDbVertex
100
AcDb2dVertex
 10
373.45105
 20
719.495911
 30
0.0
  0
VERTEX
  5
D1
100
AcDbEntity
  8
0
370
     0
390
0
100
AcDbVertex
100
AcDb2dVertex
 10
373.289459
 20
718.547729
 30
0.0
  0
VERTEX
  5
D2
100
AcDbEntity
  8
0
370
     0
390
0
100
AcDbVertex
100
AcDb2dVertex
 10
373.035522
 20
717.700867
 30
0.0
  0
VERTEX
  5
D3
100
AcDbEntity
  8
0
370
     0
390
0
100
AcDbVertex
100
AcDb2dVertex
 10
372.690521
 20
716.953613
 30
0.0
  0
VERTEX
  5
D4
100
AcDbEntity
  8
0
370
     0
390
0
100
AcDbVertex
100
AcDb2dVertex
 10
372.256287
 20
716.303833
 30
0.0
  0
VERTEX
  5
D5
100
AcDbEntity
  8
0
370
     0
390
0
100
AcDbVertex
100
AcDb2dVertex
 10
371.72345
 20
715.737976
 30
0.0
  0
VERTEX
  5
D6
100
AcDbEntity
  8
0
370
     0
390
0
100
AcDbVertex
100
AcDb2dVertex
 10
371.103363
 20
715.266479
 30
0.0
  0
VERTEX
  5
D7
100
AcDbEntity
  8
0
370
     0
390
0
100
AcDbVertex
100
AcDb2dVertex
 10
370.399933
 20
714.884583
 30
0.0
  0
VERTEX
  5
D8
100
AcDbEntity
  8
0
370
     0
390
0
100
AcDbVertex
100
AcDb2dVertex
 10
369.822723
 20
714.654358
 30
0.0
  0
VERTEX
  5
D9
100
AcDbEntity
  8
0
370
     0
390
0
100
AcDbVertex
100
AcDb2dVertex
 10
369.203613
 20
714.468384
 30
0.0
  0
VERTEX
  5
DA
100
AcDbEntity
  8
0
370
     0
390
0
100
AcDbVertex
100
AcDb2dVertex
 10
368.539368
 20
714.322937
 30
0.0
  0
VERTEX
  5
DB
100
AcDbEntity
  8
0
370
     0
390
0
100
AcDbVertex
100
AcDb2dVertex
 10
367.837219
 20
714.216614
 30
0.0
  0
VERTEX
  5
DC
100
AcDbEntity
  8
0
370
     0
390
0
100
AcDbVertex
100
AcDb2dVertex
 10
366.740265
 20
714.124634
 30
0.0
  0
VERTEX
  5
DD
100
AcDbEntity
  8
0
370
     0
390
0
100
AcDbVertex
100
AcDb2dVertex
 10
365.575287
 20
714.099915
 30
0.0
  0
VERTEX
  5
DE
100
AcDbEntity
  8
0
370
     0
390
0
100
AcDbVertex
100
AcDb2dVertex
 10
364.178131
 20
714.139526
 30
0.0
  0
VERTEX
  5
DF
100
AcDbEntity
  8
0
370
     0
390
0
100
AcDbVertex
100
AcDb2dVertex
 10
363.210907
 20
714.197998
 30
0.0
  0
VERTEX
  5
E0
100
AcDbEntity
  8
0
370
     0
390
0
100
AcDbVertex
100
AcDb2dVertex
 10
361.208984
 20
714.368896
 30
0.0
  0
VERTEX
  5
E1
100
AcDbEntity
  8
0
370
     0
390
0
100
AcDbVertex
100
AcDb2dVertex
 10
358.88382
 20
714.60437
 30
0.0
  0
VERTEX
  5
E2
100
AcDbEntity
  8
0
370
     0
390
0
100
AcDbVertex
100
AcDb2dVertex
 10
356.525757
 20
714.830444
 30
0.0
  0
VERTEX
  5
E3
100
AcDbEntity
  8
0
370
     0
390
0
100
AcDbVertex
100
AcDb2dVertex
 10
355.146729
 20
714.936523
 30
0.0
  0
VERTEX
  5
E4
100
AcDbEntity
  8
0
370
     0
390
0
100
AcDbVertex
100
AcDb2dVertex
 10
353.779694
 20
715.010498
 30
0.0
  0
VERTEX
  5
E5
100
AcDbEntity
  8
0
370
     0
390
0
100
AcDbVertex
100
AcDb2dVertex
 10
352.498688
 20
715.042297
 30
0.0
  0
VERTEX
  5
E6
100
AcDbEntity
  8
0
370
     0
390
0
100
AcDbVertex
100
AcDb2dVertex
 10
351.241333
 20
715.029114
 30
0.0
  0
VERTEX
  5
E7
100
AcDbEntity
  8
0
370
     0
390
0
100
AcDbVertex
100
AcDb2dVertex
 10
349.611023
 20
714.929932
 30
0.0
  0
VERTEX
  5
E8
100
AcDbEntity
  8
0
370
     0
390
0
100
AcDbVertex
100
AcDb2dVertex
 10
348.043854
 20
714.724487
 30
0.0
  0
VERTEX
  5
E9
100
AcDbEntity
  8
0
370
     0
390
0
100
AcDbVertex
100
AcDb2dVertex
 10
346.549774
 20
714.400513
 30
0.0
  0
VERTEX
  5
EA
100
AcDbEntity
  8
0
370
     0
390
0
100
AcDbVertex
100
AcDb2dVertex
 10
345.832855
 20
714.190674
 30
0.0
  0
VERTEX
  5
EB
100
AcDbEntity
  8
0
370
     0
390
0
100
AcDbVertex
100
AcDb2dVertex
 10
345.137299
 20
713.947327
 30
0.0
  0
VERTEX
  5
EC
100
AcDbEntity
  8
0
370
     0
390
0
100
AcDbVertex
100
AcDb2dVertex
 10
344.244598
 20
713.56897
 30
0.0
  0
VERTEX
  5
ED
100
AcDbEntity
  8
0
370
     0
390
0
100
AcDbVertex
100
AcDb2dVertex
 10
343.39325
 20
713.126892
 30
0.0
  0
VERTEX
  5
EE
100
AcDbEntity
  8
0
370
     0
390
0
100
AcDbVertex
100
AcDb2dVertex
 10
342.584839
 20
712.61908
 30
0.0
  0
VERTEX
  5
EF
100
AcDbEntity
  8
0
370
     0
390
0
100
AcDbVertex
100
AcDb2dVertex
 10
341.636902
 20
711.889282
 30
0.0
  0
VERTEX
  5
F0
100
AcDbEntity
  8
0
370
     0
390
0
100
AcDbVertex
100
AcDb2dVertex
 10
340.760559
 20
711.051208
 30
0.0
  0
VERTEX
  5
F1
100
AcDbEntity
  8
0
370
     0
390
0
100
AcDbVertex
100
AcDb2dVertex
 10
339.957764
 20
710.102478
 30
0.0
  0
VERTEX
  5
F2
100
AcDbEntity
  8
0
370
     0
390
0
100
AcDbVertex
100
AcDb2dVertex
 10
339.230011
 20
709.041199
 30
0.0
  0
VERTEX
  5
F3
100
AcDbEntity
  8
0
370
     0
390
0
100
AcDbVertex
100
AcDb2dVertex
 10
338.578491
 20
707.865967
 30
0.0
  0
VERTEX
  5
F4
100
AcDbEntity
  8
0
370
     0
390
0
100
AcDbVertex
100
AcDb2dVertex
 10
338.004028
 20
706.575623
 30
0.0
  0
VERTEX
  5
F5
100
AcDbEntity
  8
0
370
     0
390
0
100
AcDbVertex
100
AcDb2dVertex
 10
337.696625
 20
705.74585
 30
0.0
  0
VERTEX
  5
F6
100
AcDbEntity
  8
0
370
     0
390
0
100
AcDbVertex
100
AcDb2dVertex
 10
337.417297
 20
704.874268
 30
0.0
  0
VERTEX
  5
F7
100
AcDbEntity
  8
0
370
     0
390
0
100
AcDbVertex
100
AcDb2dVertex
 10
336.943176
 20
703.005249
 30
0.0
  0
VERTEX
  5
F8
100
AcDbEntity
  8
0
370
     0
390
0
100
AcDbVertex
100
AcDb2dVertex
 10
336.58194
 20
700.96814
 30
0.0
  0
VERTEX
  5
F9
100
AcDbEntity
  8
0
370
     0
390
0
100
AcDbVertex
100
AcDb2dVertex
 10
336.333801
 20
698.762756
 30
0.0
  0
SEQEND
  5
FA
100
AcDbEntity
  8
0
370
     0
390
0
  0
LINE
  5
FB
100
AcDbEntity
  8
0
370
    35
390
0
 62
     7
 48
0.124661
100
AcDbLine
 10
373.161102
 20
729.303833
 30
0.0
 11
373.161102
 21
724.317383
 31
0.0
210
0.0
220
0.0
230
1.0
  0
LINE
  5
FC
100
AcDbEntity
  8
0
370
    35
390
0
 62
     7
 48
0.172906
100
AcDbLine
 10
373.161102
 20
736.220093
 30
0.0
 11
373.161102
 21
729.303833
 31
0.0
210
0.0
220
0.0
230
1.0
  0
LINE
  5
FD
100
AcDbEntity
  8
0
370
    35
390
0
 62
     7
100
AcDbLine
 10
373.161102
 20
796.220093
 30
0.0
 11
373.161102
 21
736.220093
 31
0.0
210
0.0
220
0.0
230
1.0
  0
CIRCLE
  5
FE
100
AcDbEntity
  8
0
370
    35
390
0
 62
     7
100
AcDbCircle
 10
336.333801
 20
766.220093
 30
0.0
 40
1.0
210
0.0
220
0.0
230
1.0
  0
LINE
  5
FF
100
AcDbEntity
  8
0
370
    35
390
0
 62
     7
 48
0.125
100
AcDbLine
 10
322.441681
 20
816.305481
 30
0.0
 11
322.441681
 21
821.305481
 31
0.0
210
0.0
220
0.0
230
1.0
  0
LINE
  5
100
100
AcDbEntity
  8
0
370
    35
390
0
 62
     7
 48
0.125
100
AcDbLine
 10
322.441681
 20
821.305481
 30
0.0
 11
327.441681
 21
821.305481
 31
0.0
210
0.0
220
0.0
230
1.0
  0
LINE
  5
101
100
AcDbEntity
  8
0
370
    35
390
0
 62
     7
 48
0.125
100
AcDbLine
 10
327.441681
 20
821.305481
 30
0.0
 11
327.441681
 21
816.305481
 31
0.0
210
0.0
220
0.0
230
1.0
  0
LINE
  5
102
100
AcDbEntity
  8
0
370
    35
390
0
 62
     7
 48
0.125
100
AcDbLine
 10
327.441681
 20
816.305481
 30
0.0
 11
322.441681
 21
816.305481
 31
0.0
210
0.0
220
0.0
230
1.0
  0
LINE
  5
103
100
AcDbEntity
  8
0
370
    35
390
0
 62
     7
 48
0.125
100
AcDbLine
 10
333.833801
 20
816.305481
 30
0.0
 11
333.833801
 21
821.305481
 31
0.0
210
0.0
220
0.0
230
1.0
  0
LINE
  5
104
100
AcDbEntity
  8
0
370
    35
390
0
 62
     7
 48
0.125
100
AcDbLine
 10
333.833801
 20
821.305481
 30
0.0
 11
338.833801
 21
821.305481
 31
0.0
210
0.0
220
0.0
230
1.0
  0
LINE
  5
105
100
AcDbEntity
  8
0
370
    35
390
0
 62
     7
 48
0.125
100
AcDbLine
 10
338.833801
 20
821.305481
 30
0.0
 11
338.833801
 21
816.305481
 31
0.0
210
0.0
220
0.0
230
1.0
  0
LINE
  5
106
100
AcDbEntity
  8
0
370
    35
390
0
 62
     7
 48
0.125
100
AcDbLine
 10
338.833801
 20
816.305481
 30
0.0
 11
333.833801
 21
816.305481
 31
0.0
210
0.0
220
0.0
230
1.0
  0
LINE
  5
107
100
AcDbEntity
  8
0
370
    35
390
0
 62
     7
 48
0.125
100
AcDbLine
 10
345.225922
 20
816.305481
 30
0.0
 11
345.225922
 21
821.305481
 31
0.0
210
0.0
220
0.0
230
1.0
  0
LINE
  5
108
100
AcDbEntity
  8
0
370
    35
390
0
 62
     7
 48
0.125
100
AcDbLine
 10
345.225922
 20
821.305481
 30
0.0
 11
350.225922
 21
821.305481
 31
0.0
210
0.0
220
0.0
230
1.0
  0
LINE
  5
109
100
AcDbEntity
  8
0
370
    35
390
0
 62
     7
 48
0.125
100
AcDbLine
 10
350.225922
 20
821.305481
 30
0.0
 11
350.225922
 21
816.305481
 31
0.0
210
0.0
220
0.0
230
1.0
  0
LINE
  5
10A
100
AcDbEntity
  8
0
370
    35
390
0
 62
     7
 48
0.125
100
AcDbLine
 10
350.225922
 20
816.305481
 30
0.0
 11
345.225922
 21
816.305481
 31
0.0
210
0.0
220
0.0
230
1.0
  0
LINE
  5
10B
100
AcDbEntity
  8
0
370
    35
390
0
 62
     7
 48
0.125
100
AcDbLine
 10
310.334106
 20
777.313904
 30
0.0
 11
305.334106
 21
777.313904
 31
0.0
210
0.0
220
0.0
230
1.0
  0
LINE
  5
10C
100
AcDbEntity
  8
0
370
    35
390
0
 62
     7
 48
0.225
100
AcDbLine
 10
305.334106
 20
777.313904
 30
0.0
 11
305.334106
 21
786.313904
 31
0.0
210
0.0
220
0.0
230
1.0
  0
LINE
  5
10D
100
AcDbEntity
  8
0
370
    35
390
0
 62
     7
 48
0.125
100
AcDbLine
 10
310.334106
 20
786.313904
 30
0.0
 11
305.334106
 21
786.313904
 31
0.0
210
0.0
220
0.0
230
1.0
  0
LINE
  5
10E
100
AcDbEntity
  8
0
370
    35
390
0
 62
     7
 48
0.225
100
AcDbLine
 10
310.334106
 20
786.313904
 30
0.0
 11
310.334106
 21
777.313904
 31
0.0
210
0.0
220
0.0
230
1.0
  0
LINE
  5
10F
100
AcDbEntity
  8
0
370
    35
390
0
 62
     7
 48
0.204691
100
AcDbLine
 10
310.334106
 20
770.313904
 30
0.0
 11
310.334106
 21
762.126282
 31
0.0
210
0.0
220
0.0
230
1.0
  0
LINE
  5
110
100
AcDbEntity
  8
0
370
    35
390
0
 62
     7
 48
0.125
100
AcDbLine
 10
310.334106
 20
762.126282
 30
0.0
 11
305.334106
 21
762.126282
 31
0.0
210
0.0
220
0.0
230
1.0
  0
LINE
  5
111
100
AcDbEntity
  8
0
370
    35
390
0
 62
     7
 48
0.204691
100
AcDbLine
 10
305.334106
 20
770.313904
 30
0.0
 11
305.334106
 21
762.126282
 31
0.0
210
0.0
220
0.0
230
1.0
  0
LINE
  5
112
100
AcDbEntity
  8
0
370
    35
390
0
 62
     7
 48
0.125
100
AcDbLine
 10
310.334106
 20
770.313904
 30
0.0
 11
305.334106
 21
770.313904
 31
0.0
210
0.0
220
0.0
230
1.0
  0
LINE
  5
113
100
AcDbEntity
  8
0
370
    35
390
0
 62
     7
 48
0.225
100
AcDbLine
 10
310.334106
 20
755.126282
 30
0.0
 11
310.334106
 21
746.126282
 31
0.0
210
0.0
220
0.0
230
1.0
  0
LINE
  5
114
100
AcDbEntity
  8
0
370
    35
390
0
 62
     7
 48
0.125
100
AcDbLine
 10
310.334106
 20
746.126282
 30
0.0
 11
305.334106
 21
746.126282
 31
0.0
210
0.0
220
0.0
230
1.0
  0
LINE
  5
115
100
AcDbEntity
  8
0
370
    35
390
0
 62
     7
 48
0.225
100
AcDbLine
 10
305.334106
 20
755.126282
 30
0.0
 11
305.334106
 21
746.126282
 31
0.0
210
0.0
220
0.0
230
1.0
  0
LINE
  5
116
100
AcDbEntity
  8
0
370
    35
390
0
 62
     7
 48
0.125
100
AcDbLine
 10
310.334106
 20
755.126282
 30
0.0
 11
305.334106
 21
755.126282
 31
0.0
210
0.0
220
0.0
230
1.0
  0
LINE
  5
117
100
AcDbEntity
  8
0
370
    35
390
0
 62
     7
 48
0.125
100
AcDbLine
 10
362.333496
 20
786.313904
 30
0.0
 11
367.333496
 21
786.313904
 31
0.0
210
0.0
220
0.0
230
1.0
  0
LINE
  5
118
100
AcDbEntity
  8
0
370
    35
390
0
 62
     7
 48
0.225
100
AcDbLine
 10
367.333496
 20
786.313904
 30
0.0
 11
367.333496
 21
777.313904
 31
0.0
210
0.0
220
0.0
230
1.0
  0
LINE
  5
119
100
AcDbEntity
  8
0
370
    35
390
0
 62
     7
 48
0.125
100
AcDbLine
 10
362.333496
 20
777.313904
 30
0.0
 11
367.333496
 21
777.313904
 31
0.0
210
0.0
220
0.0
230
1.0
  0
LINE
  5
11A
100
AcDbEntity
  8
0
370
    35
390
0
 62
     7
 48
0.225
100
AcDbLine
 10
362.333496
 20
786.313904
 30
0.0
 11
362.333496
 21
777.313904
 31
0.0
210
0.0
220
0.0
230
1.0
  0
LINE
  5
11B
100
AcDbEntity
  8
0
370
    35
390
0
 62
     7
 48
0.125
100
AcDbLine
 10
362.333496
 20
770.313904
 30
0.0
 11
367.333496
 21
770.313904
 31
0.0
210
0.0
220
0.0
230
1.0
  0
LINE
  5
11C
100
AcDbEntity
  8
0
370
    35
390
0
 62
     7
 48
0.204691
100
AcDbLine
 10
367.333496
 20
770.313904
 30
0.0
 11
367.333496
 21
762.126282
 31
0.0
210
0.0
220
0.0
230
1.0
  0
LINE
  5
11D
100
AcDbEntity
  8
0
370
    35
390
0
 62
     7
 48
0.125
100
AcDbLine
 10
362.333496
 20
762.126282
 30
0.0
 11
367.333496
 21
762.126282
 31
0.0
210
0.0
220
0.0
230
1.0
  0
LINE
  5
11E
100
AcDbEntity
  8
0
370
    35
390
0
 62
     7
 48
0.204691
100
AcDbLine
 10
362.333496
 20
770.313904
 30
0.0
 11
362.333496
 21
762.126282
 31
0.0
210
0.0
220
0.0
230
1.0
  0
LINE
  5
11F
100
AcDbEntity
  8
0
370
    35
390
0
 62
     7
 48
0.125
100
AcDbLine
 10
362.333496
 20
755.126282
 30
0.0
 11
367.333496
 21
755.126282
 31
0.0
210
0.0
220
0.0
230
1.0
  0
LINE
  5
120
100
AcDbEntity
  8
0
370
    35
390
0
 62
     7
 48
0.225
100
AcDbLine
 10
367.333496
 20
755.126282
 30
0.0
 11
367.333496
 21
746.126282
 31
0.0
210
0.0
220
0.0
230
1.0
  0
LINE
  5
121
100
AcDbEntity
  8
0
370
    35
390
0
 62
     7
 48
0.125
100
AcDbLine
 10
362.333496
 20
746.126282
 30
0.0
 11
367.333496
 21
746.126282
 31
0.0
210
0.0
220
0.0
230
1.0
  0
LINE
  5
122
100
AcDbEntity
  8
0
370
    35
390
0
 62
     7
 48
0.225
100
AcDbLine
 10
362.333496
 20
755.126282
 30
0.0
 11
362.333496
 21
746.126282
 31
0.0
210
0.0
220
0.0
230
1.0
  0
LINE
  5
123
100
AcDbEntity
  8
0
370
    35
390
0
 62
     7
 48
0.125
100
AcDbLine
 10
333.833801
 20
811.305481
 30
0.0
 11
338.833801
 21
811.305481
 31
0.0
210
0.0
220
0.0
230
1.0
  0
LINE
  5
124
100
AcDbEntity
  8
0
370
    35
390
0
 62
     7
 48
0.125
100
AcDbLine
 10
338.833801
 20
811.305481
 30
0.0
 11
338.833801
 21
806.305481
 31
0.0
210
0.0
220
0.0
230
1.0
  0
LINE
  5
125
100
AcDbEntity
  8
0
370
    35
390
0
 62
     7
 48
0.125
100
AcDbLine
 10
333.833801
 20
806.305481
 30
0.0
 11
338.833801
 21
806.305481
 31
0.0
210
0.0
220
0.0
230
1.0
  0
LINE
  5
126
100
AcDbEntity
  8
0
370
    35
390
0
 62
     7
 48
0.125
100
AcDbLine
 10
333.833801
 20
811.305481
 30
0.0
 11
333.833801
 21
806.305481
 31
0.0
210
0.0
220
0.0
230
1.0
  0
POLYLINE
  5
127
100
AcDbEntity
  8
0
370
    35
390
0
 62
     7
100
AcDb2dPolyline
 66
     1
 10
0.0
 20
0.0
 30
0.0
 71
    30
  0
VERTEX
  5
128
100
AcDbEntity
  8
0
370
     0
390
0
100
AcDbVertex
100
AcDb2dVertex
 10
506.88031
 20
808.075928
 30
0.0
  0
VERTEX
  5
129
100
AcDbEntity
  8
0
370
     0
390
0
100
AcDbVertex
100
AcDb2dVertex
 10
510.751862
 20
806.860718
 30
0.0
  0
VERTEX
  5
12A
100
AcDbEntity
  8
0
370
     0
390
0
100
AcDbVertex
100
AcDb2dVertex
 10
512.547913
 20
806.239258
 30
0.0
  0
VERTEX
  5
12B
100
AcDbEntity
  8
0
370
     0
390
0
100
AcDbVertex
100
AcDb2dVertex
 10
514.203247
 20
805.622742
 30
0.0
  0
VERTEX
  5
12C
100
AcDbEntity
  8
0
370
     0
390
0
100
AcDbVertex
100
AcDb2dVertex
 10
515.621155
 20
805.051758
 30
0.0
  0
VERTEX
  5
12D
100
AcDbEntity
  8
0
370
     0
390
0
100
AcDbVertex
100
AcDb2dVertex
 10
516.916443
 20
804.484985
 30
0.0
  0
VERTEX
  5
12E
100
AcDbEntity
  8
0
370
     0
390
0
100
AcDbVertex
100
AcDb2dVertex
 10
518.50354
 20
803.70929
 30
0.0
  0
VERTEX
  5
12F
100
AcDbEntity
  8
0
370
     0
390
0
100
AcDbVertex
100
AcDb2dVertex
 10
519.856873
 20
802.94165
 30
0.0
  0
VERTEX
  5
130
100
AcDbEntity
  8
0
370
     0
390
0
100
AcDbVertex
100
AcDb2dVertex
 10
520.976257
 20
802.18219
 30
0.0
  0
VERTEX
  5
131
100
AcDbEntity
  8
0
370
     0
390
0
100
AcDbVertex
100
AcDb2dVertex
 10
521.783813
 20
801.505554
 30
0.0
  0
VERTEX
  5
132
100
AcDbEntity
  8
0
370
     0
390
0
100
AcDbVertex
100
AcDb2dVertex
 10
522.401855
 20
800.83551
 30
0.0
  0
VERTEX
  5
133
100
AcDbEntity
  8
0
370
     0
390
0
100
AcDbVertex
100
AcDb2dVertex
 10
522.639893
 20
800.50293
 30
0.0
  0
VERTEX
  5
134
100
AcDbEntity
  8
0
370
     0
390
0
100
AcDbVertex
100
AcDb2dVertex
 10
522.830566
 20
800.171997
 30
0.0
  0
VERTEX
  5
135
100
AcDbEntity
  8
0
370
     0
390
0
100
AcDbVertex
100
AcDb2dVertex
 10
523.011108
 20
799.733337
 30
0.0
  0
VERTEX
  5
136
100
AcDbEntity
  8
0
370
     0
390
0
100
AcDbVertex
100
AcDb2dVertex
 10
523.107422
 20
799.297546
 30
0.0
  0
VERTEX
  5
137
100
AcDbEntity
  8
0
370
     0
390
0
100
AcDbVertex
100
AcDb2dVertex
 10
523.119629
 20
798.864685
 30
0.0
  0
VERTEX
  5
138
100
AcDbEntity
  8
0
370
     0
390
0
100
AcDbVertex
100
AcDb2dVertex
 10
523.022339
 20
798.346741
 30
0.0
  0
VERTEX
  5
139
100
AcDbEntity
  8
0
370
     0
390
0
100
AcDbVertex
100
AcDb2dVertex
 10
522.802734
 20
797.833069
 30
0.0
  0
VERTEX
  5
13A
100
AcDbEntity
  8
0
370
     0
390
0
100
AcDbVertex
100
AcDb2dVertex
 10
522.460754
 20
797.323608
 30
0.0
  0
VERTEX
  5
13B
100
AcDbEntity
  8
0
370
     0
390
0
100
AcDbVertex
100
AcDb2dVertex
 10
522.127747
 20
796.94812
 30
0.0
  0
VERTEX
  5
13C
100
AcDbEntity
  8
0
370
     0
390
0
100
AcDbVertex
100
AcDb2dVertex
 10
521.727295
 20
796.574951
 30
0.0
  0
VERTEX
  5
13D
100
AcDbEntity
  8
0
370
     0
390
0
100
AcDbVertex
100
AcDb2dVertex
 10
521.249084
 20
796.196594
 30
0.0
  0
VERTEX
  5
13E
100
AcDbEntity
  8
0
370
     0
390
0
100
AcDbVertex
100
AcDb2dVertex
 10
520.700684
 20
795.820618
 30
0.0
  0
VERTEX
  5
13F
100
AcDbEntity
  8
0
370
     0
390
0
100
AcDbVertex
100
AcDb2dVertex
 10
519.407654
 20
795.083435
 30
0.0
  0
VERTEX
  5
140
100
AcDbEntity
  8
0
370
     0
390
0
100
AcDbVertex
100
AcDb2dVertex
 10
517.839355
 20
794.355774
 30
0.0
  0
VERTEX
  5
141
100
AcDbEntity
  8
0
370
     0
390
0
100
AcDbVertex
100
AcDb2dVertex
 10
515.995728
 20
793.637695
 30
0.0
  0
VERTEX
  5
142
100
AcDbEntity
  8
0
370
     0
390
0
100
AcDbVertex
100
AcDb2dVertex
 10
513.87677
 20
792.929138
 30
0.0
  0
VERTEX
  5
143
100
AcDbEntity
  8
0
370
     0
390
0
100
AcDbVertex
100
AcDb2dVertex
 10
512.311157
 20
792.462036
 30
0.0
  0
VERTEX
  5
144
100
AcDbEntity
  8
0
370
     0
390
0
100
AcDbVertex
100
AcDb2dVertex
 10
510.62326
 20
791.999207
 30
0.0
  0
VERTEX
  5
145
100
AcDbEntity
  8
0
370
     0
390
0
100
AcDbVertex
100
AcDb2dVertex
 10
506.88031
 20
791.086304
 30
0.0
  0
SEQEND
  5
146
100
AcDbEntity
  8
0
370
     0
390
0
  0
POLYLINE
  5
147
100
AcDbEntity
  8
0
370
    35
390
0
 62
     7
100
AcDb2dPolyline
 66
     1
 10
0.0
 20
0.0
 30
0.0
 71
    16
  0
VERTEX
  5
148
100
AcDbEntity
  8
0
370
     0
390
0
100
AcDbVertex
100
AcDb2dVertex
 10
522.986206
 20
819.085693
 30
0.0
  0
VERTEX
  5
149
100
AcDbEntity
  8
0
370
     0
390
0
100
AcDbVertex
100
AcDb2dVertex
 10
522.470642
 20
817.655884
 30
0.0
  0
VERTEX
  5
14A
100
AcDbEntity
  8
0
370
     0
390
0
100
AcDbVertex
100
AcDb2dVertex
 10
521.845215
 20
816.324219
 30
0.0
  0
VERTEX
  5
14B
100
AcDbEntity
  8
0
370
     0
390
0
100
AcDbVertex
100
AcDb2dVertex
 10
521.146912
 20
815.146301
 30
0.0
  0
VERTEX
  5
14C
100
AcDbEntity
  8
0
370
     0
390
0
100
AcDbVertex
100
AcDb2dVertex
 10
520.348816
 20
814.057617
 30
0.0
  0
VERTEX
  5
14D
100
AcDbEntity
  8
0
370
     0
390
0
100
AcDbVertex
100
AcDb2dVertex
 10
519.450928
 20
813.058105
 30
0.0
  0
VERTEX
  5
14E
100
AcDbEntity
  8
0
370
     0
390
0
100
AcDbVertex
100
AcDb2dVertex
 10
518.453308
 20
812.147766
 30
0.0
  0
VERTEX
  5
14F
100
AcDbEntity
  8
0
370
     0
390
0
100
AcDbVertex
100
AcDb2dVertex
 10
517.355896
 20
811.32666
 30
0.0
  0
VERTEX
  5
150
100
AcDbEntity
  8
0
370
     0
390
0
100
AcDbVertex
100
AcDb2dVertex
 10
516.158691
 20
810.594666
 30
0.0
  0
VERTEX
  5
151
100
AcDbEntity
  8
0
370
     0
390
0
100
AcDbVertex
100
AcDb2dVertex
 10
515.12915
 20
810.073364
 30
0.0
  0
VERTEX
  5
152
100
AcDbEntity
  8
0
370
     0
390
0
100
AcDbVertex
100
AcDb2dVertex
 10
514.035645
 20
809.60907
 30
0.0
  0
VERTEX
  5
153
100
AcDbEntity
  8
0
370
     0
390
0
100
AcDbVertex
100
AcDb2dVertex
 10
512.878357
 20
809.201904
 30
0.0
  0
VERTEX
  5
154
100
AcDbEntity
  8
0
370
     0
390
0
100
AcDbVertex
100
AcDb2dVertex
 10
511.968506
 20
808.93396
 30
0.0
  0
VERTEX
  5
155
100
AcDbEntity
  8
0
370
     0
390
0
100
AcDbVertex
100
AcDb2dVertex
 10
511.022705
 20
808.69812
 30
0.0
  0
VERTEX
  5
156
100
AcDbEntity
  8
0
370
     0
390
0
100
AcDbVertex
100
AcDb2dVertex
 10
509.023346
 20
808.322815
 30
0.0
  0
VERTEX
  5
157
100
AcDbEntity
  8
0
370
     0
390
0
100
AcDbVertex
100
AcDb2dVertex
 10
506.88031
 20
808.075928
 30
0.0
  0
SEQEND
  5
158
100
AcDbEntity
  8
0
370
     0
390
0
  0
POLYLINE
  5
159
100
AcDbEntity
  8
0
370
    35
390
0
 62
     7
100
AcDb2dPolyline
 66
     1
 10
0.0
 20
0.0
 30
0.0
 71
    59
  0
VERTEX
  5
15A
100
AcDbEntity
  8
0
370
     0
390
0
100
AcDbVertex
100
AcDb2dVertex
 10
522.986206
 20
819.085693
 30
0.0
  0
VERTEX
  5
15B
100
AcDbEntity
  8
0
370
     0
390
0
100
AcDbVertex
100
AcDb2dVertex
 10
522.92981
 20
820.987427
 30
0.0
  0
VERTEX
  5
15C
100
AcDbEntity
  8
0
370
     0
390
0
100
AcDbVertex
100
AcDb2dVertex
 10
522.741333
 20
822.785828
 30
0.0
  0
VERTEX
  5
15D
100
AcDbEntity
  8
0
370
     0
390
0
100
AcDbVertex
100
AcDb2dVertex
 10
522.421021
 20
824.480896
 30
0.0
  0
VERTEX
  5
15E
100
AcDbEntity
  8
0
370
     0
390
0
100
AcDbVertex
100
AcDb2dVertex
 10
521.969421
 20
826.07251
 30
0.0
  0
VERTEX
  5
15F
100
AcDbEntity
  8
0
370
     0
390
0
100
AcDbVertex
100
AcDb2dVertex
 10
521.387512
 20
827.560791
 30
0.0
  0
VERTEX
  5
160
100
AcDbEntity
  8
0
370
     0
390
0
100
AcDbVertex
100
AcDb2dVertex
 10
521.048096
 20
828.266113
 30
0.0
  0
VERTEX
  5
161
100
AcDbEntity
  8
0
370
     0
390
0
100
AcDbVertex
100
AcDb2dVertex
 10
520.67688
 20
828.945557
 30
0.0
  0
VERTEX
  5
162
100
AcDbEntity
  8
0
370
     0
390
0
100
AcDbVertex
100
AcDb2dVertex
 10
520.273987
 20
829.59906
 30
0.0
  0
VERTEX
  5
163
100
AcDbEntity
  8
0
370
     0
390
0
100
AcDbVertex
100
AcDb2dVertex
 10
519.839966
 20
830.226685
 30
0.0
  0
VERTEX
  5
164
100
AcDbEntity
  8
0
370
     0
390
0
100
AcDbVertex
100
AcDb2dVertex
 10
519.375183
 20
830.828369
 30
0.0
  0
VERTEX
  5
165
100
AcDbEntity
  8
0
370
     0
390
0
100
AcDbVertex
100
AcDb2dVertex
 10
518.880188
 20
831.404053
 30
0.0
  0
VERTEX
  5
166
100
AcDbEntity
  8
0
370
     0
390
0
100
AcDbVertex
100
AcDb2dVertex
 10
517.841614
 20
832.441772
 30
0.0
  0
VERTEX
  5
167
100
AcDbEntity
  8
0
370
     0
390
0
100
AcDbVertex
100
AcDb2dVertex
 10
516.697815
 20
833.382385
 30
0.0
  0
VERTEX
  5
168
100
AcDbEntity
  8
0
370
     0
390
0
100
AcDbVertex
100
AcDb2dVertex
 10
515.455017
 20
834.225708
 30
0.0
  0
VERTEX
  5
169
100
AcDbEntity
  8
0
370
     0
390
0
100
AcDbVertex
100
AcDb2dVertex
 10
514.120117
 20
834.971375
 30
0.0
  0
VERTEX
  5
16A
100
AcDbEntity
  8
0
370
     0
390
0
100
AcDbVertex
100
AcDb2dVertex
 10
512.700867
 20
835.619263
 30
0.0
  0
VERTEX
  5
16B
100
AcDbEntity
  8
0
370
     0
390
0
100
AcDbVertex
100
AcDb2dVertex
 10
511.205627
 20
836.169312
 30
0.0
  0
VERTEX
  5
16C
100
AcDbEntity
  8
0
370
     0
390
0
100
AcDbVertex
100
AcDb2dVertex
 10
510.275696
 20
836.452271
 30
0.0
  0
VERTEX
  5
16D
100
AcDbEntity
  8
0
370
     0
390
0
100
AcDbVertex
100
AcDb2dVertex
 10
509.323608
 20
836.699951
 30
0.0
  0
VERTEX
  5
16E
100
AcDbEntity
  8
0
370
     0
390
0
100
AcDbVertex
100
AcDb2dVertex
 10
507.361145
 20
837.089722
 30
0.0
  0
VERTEX
  5
16F
100
AcDbEntity
  8
0
370
     0
390
0
100
AcDbVertex
100
AcDb2dVertex
 10
505.334961
 20
837.33905
 30
0.0
  0
VERTEX
  5
170
100
AcDbEntity
  8
0
370
     0
390
0
100
AcDbVertex
100
AcDb2dVertex
 10
503.262054
 20
837.448914
 30
0.0
  0
VERTEX
  5
171
100
AcDbEntity
  8
0
370
     0
390
0
100
AcDbVertex
100
AcDb2dVertex
 10
501.370453
 20
837.429688
 30
0.0
  0
VERTEX
  5
172
100
AcDbEntity
  8
0
370
     0
390
0
100
AcDbVertex
100
AcDb2dVertex
 10
499.466858
 20
837.300049
 30
0.0
  0
VERTEX
  5
173
100
AcDbEntity
  8
0
370
     0
390
0
100
AcDbVertex
100
AcDb2dVertex
 10
497.56311
 20
837.061768
 30
0.0
  0
VERTEX
  5
174
100
AcDbEntity
  8
0
370
     0
390
0
100
AcDbVertex
100
AcDb2dVertex
 10
495.670441
 20
836.717163
 30
0.0
  0
VERTEX
  5
175
100
AcDbEntity
  8
0
370
     0
390
0
100
AcDbVertex
100
AcDb2dVertex
 10
493.799377
 20
836.268982
 30
0.0
  0
VERTEX
  5
176
100
AcDbEntity
  8
0
370
     0
390
0
100
AcDbVertex
100
AcDb2dVertex
 10
492.647522
 20
835.938416
 30
0.0
  0
VERTEX
  5
177
100
AcDbEntity
  8
0
370
     0
390
0
100
AcDbVertex
100
AcDb2dVertex
 10
491.51001
 20
835.569702
 30
0.0
  0
VERTEX
  5
178
100
AcDbEntity
  8
0
370
     0
390
0
100
AcDbVertex
100
AcDb2dVertex
 10
490.384399
 20
835.162231
 30
0.0
  0
VERTEX
  5
179
100
AcDbEntity
  8
0
370
     0
390
0
100
AcDbVertex
100
AcDb2dVertex
 10
489.277039
 20
834.718567
 30
0.0
  0
VERTEX
  5
17A
100
AcDbEntity
  8
0
370
     0
390
0
100
AcDbVertex
100
AcDb2dVertex
 10
487.127289
 20
833.72937
 30
0.0
  0
VERTEX
  5
17B
100
AcDbEntity
  8
0
370
     0
390
0
100
AcDbVertex
100
AcDb2dVertex
 10
485.066071
 20
832.611755
 30
0.0
  0
VERTEX
  5
17C
100
AcDbEntity
  8
0
370
     0
390
0
100
AcDbVertex
100
AcDb2dVertex
 10
483.999664
 20
831.96405
 30
0.0
  0
VERTEX
  5
17D
100
AcDbEntity
  8
0
370
     0
390
0
100
AcDbVertex
100
AcDb2dVertex
 10
482.960785
 20
831.285278
 30
0.0
  0
VERTEX
  5
17E
100
AcDbEntity
  8
0
370
     0
390
0
100
AcDbVertex
100
AcDb2dVertex
 10
481.873169
 20
830.522583
 30
0.0
  0
VERTEX
  5
17F
100
AcDbEntity
  8
0
370
     0
390
0
100
AcDbVertex
100
AcDb2dVertex
 10
480.816986
 20
829.729736
 30
0.0
  0
VERTEX
  5
180
100
AcDbEntity
  8
0
370
     0
390
0
100
AcDbVertex
100
AcDb2dVertex
 10
478.864868
 20
828.127441
 30
0.0
  0
VERTEX
  5
181
100
AcDbEntity
  8
0
370
     0
390
0
100
AcDbVertex
100
AcDb2dVertex
 10
477.580658
 20
826.978149
 30
0.0
  0
VERTEX
  5
182
100
AcDbEntity
  8
0
370
     0
390
0
100
AcDbVertex
100
AcDb2dVertex
 10
476.34082
 20
825.801758
 30
0.0
  0
VERTEX
  5
183
100
AcDbEntity
  8
0
370
     0
390
0
100
AcDbVertex
100
AcDb2dVertex
 10
474.747162
 20
824.206238
 30
0.0
  0
VERTEX
  5
184
100
AcDbEntity
  8
0
370
     0
390
0
100
AcDbVertex
100
AcDb2dVertex
 10
473.715668
 20
823.134949
 30
0.0
  0
VERTEX
  5
185
100
AcDbEntity
  8
0
370
     0
390
0
100
AcDbVertex
100
AcDb2dVertex
 10
471.704437
 20
821.002686
 30
0.0
  0
VERTEX
  5
186
100
AcDbEntity
  8
0
370
     0
390
0
100
AcDbVertex
100
AcDb2dVertex
 10
469.726135
 20
818.926025
 30
0.0
  0
VERTEX
  5
187
100
AcDbEntity
  8
0
370
     0
390
0
100
AcDbVertex
100
AcDb2dVertex
 10
468.735291
 20
817.923828
 30
0.0
  0
VERTEX
  5
188
100
AcDbEntity
  8
0
370
     0
390
0
100
AcDbVertex
100
AcDb2dVertex
 10
467.230957
 20
816.482239
 30
0.0
  0
VERTEX
  5
189
100
AcDbEntity
  8
0
370
     0
390
0
100
AcDbVertex
100
AcDb2dVertex
 10
466.078522
 20
815.459351
 30
0.0
  0
VERTEX
  5
18A
100
AcDbEntity
  8
0
370
     0
390
0
100
AcDbVertex
100
AcDb2dVertex
 10
464.896942
 20
814.49469
 30
0.0
  0
VERTEX
  5
18B
100
AcDbEntity
  8
0
370
     0
390
0
100
AcDbVertex
100
AcDb2dVertex
 10
464.017181
 20
813.8349
 30
0.0
  0
VERTEX
  5
18C
100
AcDbEntity
  8
0
370
     0
390
0
100
AcDbVertex
100
AcDb2dVertex
 10
463.115723
 20
813.211609
 30
0.0
  0
VERTEX
  5
18D
100
AcDbEntity
  8
0
370
     0
390
0
100
AcDbVertex
100
AcDb2dVertex
 10
461.876038
 20
812.44104
 30
0.0
  0
VERTEX
  5
18E
100
AcDbEntity
  8
0
370
     0
390
0
100
AcDbVertex
100
AcDb2dVertex
 10
460.588654
 20
811.743713
 30
0.0
  0
VERTEX
  5
18F
100
AcDbEntity
  8
0
370
     0
390
0
100
AcDbVertex
100
AcDb2dVertex
 10
459.24939
 20
811.123291
 30
0.0
  0
VERTEX
  5
190
100
AcDbEntity
  8
0
370
     0
390
0
100
AcDbVertex
100
AcDb2dVertex
 10
457.684052
 20
810.523499
 30
0.0
  0
VERTEX
  5
191
100
AcDbEntity
  8
0
370
     0
390
0
100
AcDbVertex
100
AcDb2dVertex
 10
456.046265
 20
810.026672
 30
0.0
  0
VERTEX
  5
192
100
AcDbEntity
  8
0
370
     0
390
0
100
AcDbVertex
100
AcDb2dVertex
 10
454.334045
 20
809.634583
 30
0.0
  0
VERTEX
  5
193
100
AcDbEntity
  8
0
370
     0
390
0
100
AcDbVertex
100
AcDb2dVertex
 10
452.546326
 20
809.348083
 30
0.0
  0
VERTEX
  5
194
100
AcDbEntity
  8
0
370
     0
390
0
100
AcDbVertex
100
AcDb2dVertex
 10
450.682739
 20
809.167664
 30
0.0
  0
SEQEND
  5
195
100
AcDbEntity
  8
0
370
     0
390
0
  0
POLYLINE
  5
196
100
AcDbEntity
  8
0
370
    35
390
0
 62
     7
100
AcDb2dPolyline
 66
     1
 10
0.0
 20
0.0
 30
0.0
 71
    59
  0
VERTEX
  5
197
100
AcDbEntity
  8
0
370
     0
390
0
100
AcDbVertex
100
AcDb2dVertex
 10
378.379303
 20
819.085693
 30
0.0
  0
VERTEX
  5
198
100
AcDbEntity
  8
0
370
     0
390
0
100
AcDbVertex
100
AcDb2dVertex
 10
378.435699
 20
820.987427
 30
0.0
  0
VERTEX
  5
199
100
AcDbEntity
  8
0
370
     0
390
0
100
AcDbVertex
100
AcDb2dVertex
 10
378.624146
 20
822.785828
 30
0.0
  0
VERTEX
  5
19A
100
AcDbEntity
  8
0
370
     0
390
0
100
AcDbVertex
100
AcDb2dVertex
 10
378.944458
 20
824.480896
 30
0.0
  0
VERTEX
  5
19B
100
AcDbEntity
  8
0
370
     0
390
0
100
AcDbVertex
100
AcDb2dVertex
 10
379.396057
 20
826.07251
 30
0.0
  0
VERTEX
  5
19C
100
AcDbEntity
  8
0
370
     0
390
0
100
AcDbVertex
100
AcDb2dVertex
 10
379.977997
 20
827.560791
 30
0.0
  0
VERTEX
  5
19D
100
AcDbEntity
  8
0
370
     0
390
0
100
AcDbVertex
100
AcDb2dVertex
 10
380.317352
 20
828.266113
 30
0.0
  0
VERTEX
  5
19E
100
AcDbEntity
  8
0
370
     0
390
0
100
AcDbVertex
100
AcDb2dVertex
 10
380.688629
 20
828.945557
 30
0.0
  0
VERTEX
  5
19F
100
AcDbEntity
  8
0
370
     0
390
0
100
AcDbVertex
100
AcDb2dVertex
 10
381.091492
 20
829.59906
 30
0.0
  0
VERTEX
  5
1A0
100
AcDbEntity
  8
0
370
     0
390
0
100
AcDbVertex
100
AcDb2dVertex
 10
381.525543
 20
830.226685
 30
0.0
  0
VERTEX
  5
1A1
100
AcDbEntity
  8
0
370
     0
390
0
100
AcDbVertex
100
AcDb2dVertex
 10
381.990295
 20
830.828369
 30
0.0
  0
VERTEX
  5
1A2
100
AcDbEntity
  8
0
370
     0
390
0
100
AcDbVertex
100
AcDb2dVertex
 10
382.485291
 20
831.404053
 30
0.0
  0
VERTEX
  5
1A3
100
AcDbEntity
  8
0
370
     0
390
0
100
AcDbVertex
100
AcDb2dVertex
 10
383.523895
 20
832.441772
 30
0.0
  0
VERTEX
  5
1A4
100
AcDbEntity
  8
0
370
     0
390
0
100
AcDbVertex
100
AcDb2dVertex
 10
384.667664
 20
833.382385
 30
0.0
  0
VERTEX
  5
1A5
100
AcDbEntity
  8
0
370
     0
390
0
100
AcDbVertex
100
AcDb2dVertex
 10
385.910492
 20
834.225708
 30
0.0
  0
VERTEX
  5
1A6
100
AcDbEntity
  8
0
370
     0
390
0
100
AcDbVertex
100
AcDb2dVertex
 10
387.245392
 20
834.971375
 30
0.0
  0
VERTEX
  5
1A7
100
AcDbEntity
  8
0
370
     0
390
0
100
AcDbVertex
100
AcDb2dVertex
 10
388.664642
 20
835.619263
 30
0.0
  0
VERTEX
  5
1A8
100
AcDbEntity
  8
0
370
     0
390
0
100
AcDbVertex
100
AcDb2dVertex
 10
390.159882
 20
836.169312
 30
0.0
  0
VERTEX
  5
1A9
100
AcDbEntity
  8
0
370
     0
390
0
100
AcDbVertex
100
AcDb2dVertex
 10
391.089813
 20
836.452271
 30
0.0
  0
VERTEX
  5
1AA
100
AcDbEntity
  8
0
370
     0
390
0
100
AcDbVertex
100
AcDb2dVertex
 10
392.041901
 20
836.699951
 30
0.0
  0
VERTEX
  5
1AB
100
AcDbEntity
  8
0
370
     0
390
0
100
AcDbVertex
100
AcDb2dVertex
 10
394.004333
 20
837.089722
 30
0.0
  0
VERTEX
  5
1AC
100
AcDbEntity
  8
0
370
     0
390
0
100
AcDbVertex
100
AcDb2dVertex
 10
396.030518
 20
837.33905
 30
0.0
  0
VERTEX
  5
1AD
100
AcDbEntity
  8
0
370
     0
390
0
100
AcDbVertex
100
AcDb2dVertex
 10
398.103455
 20
837.448914
 30
0.0
  0
VERTEX
  5
1AE
100
AcDbEntity
  8
0
370
     0
390
0
100
AcDbVertex
100
AcDb2dVertex
 10
399.995056
 20
837.429688
 30
0.0
  0
VERTEX
  5
1AF
100
AcDbEntity
  8
0
370
     0
390
0
100
AcDbVertex
100
AcDb2dVertex
 10
401.898621
 20
837.300049
 30
0.0
  0
VERTEX
  5
1B0
100
AcDbEntity
  8
0
370
     0
390
0
100
AcDbVertex
100
AcDb2dVertex
 10
403.802368
 20
837.061768
 30
0.0
  0
VERTEX
  5
1B1
100
AcDbEntity
  8
0
370
     0
390
0
100
AcDbVertex
100
AcDb2dVertex
 10
405.695068
 20
836.717163
 30
0.0
  0
VERTEX
  5
1B2
100
AcDbEntity
  8
0
370
     0
390
0
100
AcDbVertex
100
AcDb2dVertex
 10
407.566132
 20
836.268982
 30
0.0
  0
VERTEX
  5
1B3
100
AcDbEntity
  8
0
370
     0
390
0
100
AcDbVertex
100
AcDb2dVertex
 10
408.717987
 20
835.938416
 30
0.0
  0
VERTEX
  5
1B4
100
AcDbEntity
  8
0
370
     0
390
0
100
AcDbVertex
100
AcDb2dVertex
 10
409.855499
 20
835.569702
 30
0.0
  0
VERTEX
  5
1B5
100
AcDbEntity
  8
0
370
     0
390
0
100
AcDbVertex
100
AcDb2dVertex
 10
410.981079
 20
835.162231
 30
0.0
  0
VERTEX
  5
1B6
100
AcDbEntity
  8
0
370
     0
390
0
100
AcDbVertex
100
AcDb2dVertex
 10
412.08844
 20
834.718567
 30
0.0
  0
VERTEX
  5
1B7
100
AcDbEntity
  8
0
370
     0
390
0
100
AcDbVertex
100
AcDb2dVertex
 10
414.23822
 20
833.72937
 30
0.0
  0
VERTEX
  5
1B8
100
AcDbEntity
  8
0
370
     0
390
0
100
AcDbVertex
100
AcDb2dVertex
 10
416.299438
 20
832.611755
 30
0.0
  0
VERTEX
  5
1B9
100
AcDbEntity
  8
0
370
     0
390
0
100
AcDbVertex
100
AcDb2dVertex
 10
417.365845
 20
831.96405
 30
0.0
  0
VERTEX
  5
1BA
100
AcDbEntity
  8
0
370
     0
390
0
100
AcDbVertex
100
AcDb2dVertex
 10
418.404724
 20
831.285278
 30
0.0
  0
VERTEX
  5
1BB
100
AcDbEntity
  8
0
370
     0
390
0
100
AcDbVertex
100
AcDb2dVertex
 10
419.49234
 20
830.522583
 30
0.0
  0
VERTEX
  5
1BC
100
AcDbEntity
  8
0
370
     0
390
0
100
AcDbVertex
100
AcDb2dVertex
 10
420.548523
 20
829.729736
 30
0.0
  0
VERTEX
  5
1BD
100
AcDbEntity
  8
0
370
     0
390
0
100
AcDbVertex
100
AcDb2dVertex
 10
422.50061
 20
828.127441
 30
0.0
  0
VERTEX
  5
1BE
100
AcDbEntity
  8
0
370
     0
390
0
100
AcDbVertex
100
AcDb2dVertex
 10
423.784851
 20
826.978149
 30
0.0
  0
VERTEX
  5
1BF
100
AcDbEntity
  8
0
370
     0
390
0
100
AcDbVertex
100
AcDb2dVertex
 10
425.024658
 20
825.801758
 30
0.0
  0
VERTEX
  5
1C0
100
AcDbEntity
  8
0
370
     0
390
0
100
AcDbVertex
100
AcDb2dVertex
 10
426.618317
 20
824.206238
 30
0.0
  0
VERTEX
  5
1C1
100
AcDbEntity
  8
0
370
     0
390
0
100
AcDbVertex
100
AcDb2dVertex
 10
427.649841
 20
823.134949
 30
0.0
  0
VERTEX
  5
1C2
100
AcDbEntity
  8
0
370
     0
390
0
100
AcDbVertex
100
AcDb2dVertex
 10
429.661072
 20
821.002686
 30
0.0
  0
VERTEX
  5
1C3
100
AcDbEntity
  8
0
370
     0
390
0
100
AcDbVertex
100
AcDb2dVertex
 10
431.639343
 20
818.926025
 30
0.0
  0
VERTEX
  5
1C4
100
AcDbEntity
  8
0
370
     0
390
0
100
AcDbVertex
100
AcDb2dVertex
 10
432.630188
 20
817.923828
 30
0.0
  0
VERTEX
  5
1C5
100
AcDbEntity
  8
0
370
     0
390
0
100
AcDbVertex
100
AcDb2dVertex
 10
434.134552
 20
816.482239
 30
0.0
  0
VERTEX
  5
1C6
100
AcDbEntity
  8
0
370
     0
390
0
100
AcDbVertex
100
AcDb2dVertex
 10
435.286957
 20
815.459351
 30
0.0
  0
VERTEX
  5
1C7
100
AcDbEntity
  8
0
370
     0
390
0
100
AcDbVertex
100
AcDb2dVertex
 10
436.468536
 20
814.49469
 30
0.0
  0
VERTEX
  5
1C8
100
AcDbEntity
  8
0
370
     0
390
0
100
AcDbVertex
100
AcDb2dVertex
 10
437.348328
 20
813.8349
 30
0.0
  0
VERTEX
  5
1C9
100
AcDbEntity
  8
0
370
     0
390
0
100
AcDbVertex
100
AcDb2dVertex
 10
438.249756
 20
813.211609
 30
0.0
  0
VERTEX
  5
1CA
100
AcDbEntity
  8
0
370
     0
390
0
100
AcDbVertex
100
AcDb2dVertex
 10
439.489471
 20
812.44104
 30
0.0
  0
VERTEX
  5
1CB
100
AcDbEntity
  8
0
370
     0
390
0
100
AcDbVertex
100
AcDb2dVertex
 10
440.776825
 20
811.743713
 30
0.0
  0
VERTEX
  5
1CC
100
AcDbEntity
  8
0
370
     0
390
0
100
AcDbVertex
100
AcDb2dVertex
 10
442.116119
 20
811.123291
 30
0.0
  0
VERTEX
  5
1CD
100
AcDbEntity
  8
0
370
     0
390
0
100
AcDbVertex
100
AcDb2dVertex
 10
443.681458
 20
810.523499
 30
0.0
  0
VERTEX
  5
1CE
100
AcDbEntity
  8
0
370
     0
390
0
100
AcDbVertex
100
AcDb2dVertex
 10
445.319244
 20
810.026672
 30
0.0
  0
VERTEX
  5
1CF
100
AcDbEntity
  8
0
370
     0
390
0
100
AcDbVertex
100
AcDb2dVertex
 10
447.031464
 20
809.634583
 30
0.0
  0
VERTEX
  5
1D0
100
AcDbEntity
  8
0
370
     0
390
0
100
AcDbVertex
100
AcDb2dVertex
 10
448.819153
 20
809.348083
 30
0.0
  0
VERTEX
  5
1D1
100
AcDbEntity
  8
0
370
     0
390
0
100
AcDbVertex
100
AcDb2dVertex
 10
450.682739
 20
809.167664
 30
0.0
  0
SEQEND
  5
1D2
100
AcDbEntity
  8
0
370
     0
390
0
  0
POLYLINE
  5
1D3
100
AcDbEntity
  8
0
370
    35
390
0
 62
     7
100
AcDb2dPolyline
 66
     1
 10
0.0
 20
0.0
 30
0.0
 71
    16
  0
VERTEX
  5
1D4
100
AcDbEntity
  8
0
370
     0
390
0
100
AcDbVertex
100
AcDb2dVertex
 10
378.379303
 20
819.085693
 30
0.0
  0
VERTEX
  5
1D5
100
AcDbEntity
  8
0
370
     0
390
0
100
AcDbVertex
100
AcDb2dVertex
 10
378.894867
 20
817.655884
 30
0.0
  0
VERTEX
  5
1D6
100
AcDbEntity
  8
0
370
     0
390
0
100
AcDbVertex
100
AcDb2dVertex
 10
379.520264
 20
816.324219
 30
0.0
  0
VERTEX
  5
1D7
100
AcDbEntity
  8
0
370
     0
390
0
100
AcDbVertex
100
AcDb2dVertex
 10
380.218567
 20
815.146301
 30
0.0
  0
VERTEX
  5
1D8
100
AcDbEntity
  8
0
370
     0
390
0
100
AcDbVertex
100
AcDb2dVertex
 10
381.016663
 20
814.057617
 30
0.0
  0
VERTEX
  5
1D9
100
AcDbEntity
  8
0
370
     0
390
0
100
AcDbVertex
100
AcDb2dVertex
 10
381.91452
 20
813.058105
 30
0.0
  0
VERTEX
  5
1DA
100
AcDbEntity
  8
0
370
     0
390
0
100
AcDbVertex
100
AcDb2dVertex
 10
382.91217
 20
812.147766
 30
0.0
  0
VERTEX
  5
1DB
100
AcDbEntity
  8
0
370
     0
390
0
100
AcDbVertex
100
AcDb2dVertex
 10
384.009583
 20
811.32666
 30
0.0
  0
VERTEX
  5
1DC
100
AcDbEntity
  8
0
370
     0
390
0
100
AcDbVertex
100
AcDb2dVertex
 10
385.206787
 20
810.594666
 30
0.0
  0
VERTEX
  5
1DD
100
AcDbEntity
  8
0
370
     0
390
0
100
AcDbVertex
100
AcDb2dVertex
 10
386.236359
 20
810.073364
 30
0.0
  0
VERTEX
  5
1DE
100
AcDbEntity
  8
0
370
     0
390
0
100
AcDbVertex
100
AcDb2dVertex
 10
387.329834
 20
809.60907
 30
0.0
  0
VERTEX
  5
1DF
100
AcDbEntity
  8
0
370
     0
390
0
100
AcDbVertex
100
AcDb2dVertex
 10
388.487122
 20
809.201904
 30
0.0
  0
VERTEX
  5
1E0
100
AcDbEntity
  8
0
370
     0
390
0
100
AcDbVertex
100
AcDb2dVertex
 10
389.397003
 20
808.93396
 30
0.0
  0
VERTEX
  5
1E1
100
AcDbEntity
  8
0
370
     0
390
0
100
AcDbVertex
100
AcDb2dVertex
 10
390.342804
 20
808.69812
 30
0.0
  0
VERTEX
  5
1E2
100
AcDbEntity
  8
0
370
     0
390
0
100
AcDbVertex
100
AcDb2dVertex
 10
392.342163
 20
808.322815
 30
0.0
  0
VERTEX
  5
1E3
100
AcDbEntity
  8
0
370
     0
390
0
100
AcDbVertex
100
AcDb2dVertex
 10
394.485199
 20
808.075928
 30
0.0
  0
SEQEND
  5
1E4
100
AcDbEntity
  8
0
370
     0
390
0
  0
POLYLINE
  5
1E5
100
AcDbEntity
  8
0
370
    35
390
0
 62
     7
100
AcDb2dPolyline
 66
     1
 10
0.0
 20
0.0
 30
0.0
 71
    30
  0
VERTEX
  5
1E6
100
AcDbEntity
  8
0
370
     0
390
0
100
AcDbVertex
100
AcDb2dVertex
 10
394.485199
 20
808.075928
 30
0.0
  0
VERTEX
  5
1E7
100
AcDbEntity
  8
0
370
     0
390
0
100
AcDbVertex
100
AcDb2dVertex
 10
390.613647
 20
806.860718
 30
0.0
  0
VERTEX
  5
1E8
100
AcDbEntity
  8
0
370
     0
390
0
100
AcDbVertex
100
AcDb2dVertex
 10
388.817566
 20
806.239258
 30
0.0
  0
VERTEX
  5
1E9
100
AcDbEntity
  8
0
370
     0
390
0
100
AcDbVertex
100
AcDb2dVertex
 10
387.162262
 20
805.622742
 30
0.0
  0
VERTEX
  5
1EA
100
AcDbEntity
  8
0
370
     0
390
0
100
AcDbVertex
100
AcDb2dVertex
 10
385.744354
 20
805.051758
 30
0.0
  0
VERTEX
  5
1EB
100
AcDbEntity
  8
0
370
     0
390
0
100
AcDbVertex
100
AcDb2dVertex
 10
384.449066
 20
804.484985
 30
0.0
  0
VERTEX
  5
1EC
100
AcDbEntity
  8
0
370
     0
390
0
100
AcDbVertex
100
AcDb2dVertex
 10
382.861938
 20
803.70929
 30
0.0
  0
VERTEX
  5
1ED
100
AcDbEntity
  8
0
370
     0
390
0
100
AcDbVertex
100
AcDb2dVertex
 10
381.508636
 20
802.94165
 30
0.0
  0
VERTEX
  5
1EE
100
AcDbEntity
  8
0
370
     0
390
0
100
AcDbVertex
100
AcDb2dVertex
 10
380.389221
 20
802.18219
 30
0.0
  0
VERTEX
  5
1EF
100
AcDbEntity
  8
0
370
     0
390
0
100
AcDbVertex
100
AcDb2dVertex
 10
379.581696
 20
801.505554
 30
0.0
  0
VERTEX
  5
1F0
100
AcDbEntity
  8
0
370
     0
390
0
100
AcDbVertex
100
AcDb2dVertex
 10
378.963623
 20
800.83551
 30
0.0
  0
VERTEX
  5
1F1
100
AcDbEntity
  8
0
370
     0
390
0
100
AcDbVertex
100
AcDb2dVertex
 10
378.725586
 20
800.50293
 30
0.0
  0
VERTEX
  5
1F2
100
AcDbEntity
  8
0
370
     0
390
0
100
AcDbVertex
100
AcDb2dVertex
 10
378.534943
 20
800.171997
 30
0.0
  0
VERTEX
  5
1F3
100
AcDbEntity
  8
0
370
     0
390
0
100
AcDbVertex
100
AcDb2dVertex
 10
378.354401
 20
799.733337
 30
0.0
  0
VERTEX
  5
1F4
100
AcDbEntity
  8
0
370
     0
390
0
100
AcDbVertex
100
AcDb2dVertex
 10
378.258026
 20
799.297546
 30
0.0
  0
VERTEX
  5
1F5
100
AcDbEntity
  8
0
370
     0
390
0
100
AcDbVertex
100
AcDb2dVertex
 10
378.24588
 20
798.864685
 30
0.0
  0
VERTEX
  5
1F6
100
AcDbEntity
  8
0
370
     0
390
0
100
AcDbVertex
100
AcDb2dVertex
 10
378.34314
 20
798.346741
 30
0.0
  0
VERTEX
  5
1F7
100
AcDbEntity
  8
0
370
     0
390
0
100
AcDbVertex
100
AcDb2dVertex
 10
378.562744
 20
797.833069
 30
0.0
  0
VERTEX
  5
1F8
100
AcDbEntity
  8
0
370
     0
390
0
100
AcDbVertex
100
AcDb2dVertex
 10
378.904724
 20
797.323608
 30
0.0
  0
VERTEX
  5
1F9
100
AcDbEntity
  8
0
370
     0
390
0
100
AcDbVertex
100
AcDb2dVertex
 10
379.237732
 20
796.94812
 30
0.0
  0
VERTEX
  5
1FA
100
AcDbEntity
  8
0
370
     0
390
0
100
AcDbVertex
100
AcDb2dVertex
 10
379.638184
 20
796.574951
 30
0.0
  0
VERTEX
  5
1FB
100
AcDbEntity
  8
0
370
     0
390
0
100
AcDbVertex
100
AcDb2dVertex
 10
380.116394
 20
796.196594
 30
0.0
  0
VERTEX
  5
1FC
100
AcDbEntity
  8
0
370
     0
390
0
100
AcDbVertex
100
AcDb2dVertex
 10
380.664825
 20
795.820618
 30
0.0
  0
VERTEX
  5
1FD
100
AcDbEntity
  8
0
370
     0
390
0
100
AcDbVertex
100
AcDb2dVertex
 10
381.957855
 20
795.083435
 30
0.0
  0
VERTEX
  5
1FE
100
AcDbEntity
  8
0
370
     0
390
0
100
AcDbVertex
100
AcDb2dVertex
 10
383.526184
 20
794.355774
 30
0.0
  0
VERTEX
  5
1FF
100
AcDbEntity
  8
0
370
     0
390
0
100
AcDbVertex
100
AcDb2dVertex
 10
385.369812
 20
793.637695
 30
0.0
  0
VERTEX
  5
200
100
AcDbEntity
  8
0
370
     0
390
0
100
AcDbVertex
100
AcDb2dVertex
 10
387.488739
 20
792.929138
 30
0.0
  0
VERTEX
  5
201
100
AcDbEntity
  8
0
370
     0
390
0
100
AcDbVertex
100
AcDb2dVertex
 10
389.054321
 20
792.462036
 30
0.0
  0
VERTEX
  5
202
100
AcDbEntity
  8
0
370
     0
390
0
100
AcDbVertex
100
AcDb2dVertex
 10
390.742249
 20
791.999207
 30
0.0
  0
VERTEX
  5
203
100
AcDbEntity
  8
0
370
     0
390
0
100
AcDbVertex
100
AcDb2dVertex
 10
394.485199
 20
791.086304
 30
0.0
  0
SEQEND
  5
204
100
AcDbEntity
  8
0
370
     0
390
0
  0
POLYLINE
  5
205
100
AcDbEntity
  8
0
370
    35
390
0
 62
     7
100
AcDb2dPolyline
 66
     1
 10
0.0
 20
0.0
 30
0.0
 71
    29
  0
VERTEX
  5
206
100
AcDbEntity
  8
0
370
     0
390
0
100
AcDbVertex
100
AcDb2dVertex
 10
394.485199
 20
791.086304
 30
0.0
  0
VERTEX
  5
207
100
AcDbEntity
  8
0
370
     0
390
0
100
AcDbVertex
100
AcDb2dVertex
 10
392.268677
 20
790.73822
 30
0.0
  0
VERTEX
  5
208
100
AcDbEntity
  8
0
370
     0
390
0
100
AcDbVertex
100
AcDb2dVertex
 10
390.217041
 20
790.374084
 30
0.0
  0
VERTEX
  5
209
100
AcDbEntity
  8
0
370
     0
390
0
100
AcDbVertex
100
AcDb2dVertex
 10
388.455994
 20
790.020874
 30
0.0
  0
VERTEX
  5
20A
100
AcDbEntity
  8
0
370
     0
390
0
100
AcDbVertex
100
AcDb2dVertex
 10
386.837708
 20
789.653687
 30
0.0
  0
VERTEX
  5
20B
100
AcDbEntity
  8
0
370
     0
390
0
100
AcDbVertex
100
AcDb2dVertex
 10
384.834747
 20
789.123047
 30
0.0
  0
VERTEX
  5
20C
100
AcDbEntity
  8
0
370
     0
390
0
100
AcDbVertex
100
AcDb2dVertex
 10
383.104919
 20
788.565735
 30
0.0
  0
VERTEX
  5
20D
100
AcDbEntity
  8
0
370
     0
390
0
100
AcDbVertex
100
AcDb2dVertex
 10
381.648193
 20
787.981873
 30
0.0
  0
VERTEX
  5
20E
100
AcDbEntity
  8
0
370
     0
390
0
100
AcDbVertex
100
AcDb2dVertex
 10
380.570679
 20
787.433716
 30
0.0
  0
VERTEX
  5
20F
100
AcDbEntity
  8
0
370
     0
390
0
100
AcDbVertex
100
AcDb2dVertex
 10
379.714355
 20
786.863953
 30
0.0
  0
VERTEX
  5
210
100
AcDbEntity
  8
0
370
     0
390
0
100
AcDbVertex
100
AcDb2dVertex
 10
379.369171
 20
786.571045
 30
0.0
  0
VERTEX
  5
211
100
AcDbEntity
  8
0
370
     0
390
0
100
AcDbVertex
100
AcDb2dVertex
 10
379.079285
 20
786.272705
 30
0.0
  0
VERTEX
  5
212
100
AcDbEntity
  8
0
370
     0
390
0
100
AcDbVertex
100
AcDb2dVertex
 10
378.778778
 20
785.866577
 30
0.0
  0
VERTEX
  5
213
100
AcDbEntity
  8
0
370
     0
390
0
100
AcDbVertex
100
AcDb2dVertex
 10
378.576599
 20
785.450867
 30
0.0
  0
VERTEX
  5
214
100
AcDbEntity
  8
0
370
     0
390
0
100
AcDbVertex
100
AcDb2dVertex
 10
378.472748
 20
785.025574
 30
0.0
  0
VERTEX
  5
215
100
AcDbEntity
  8
0
370
     0
390
0
100
AcDbVertex
100
AcDb2dVertex
 10
378.475372
 20
784.521057
 30
0.0
  0
VERTEX
  5
216
100
AcDbEntity
  8
0
370
     0
390
0
100
AcDbVertex
100
AcDb2dVertex
 10
378.609863
 20
784.003662
 30
0.0
  0
VERTEX
  5
217
100
AcDbEntity
  8
0
370
     0
390
0
100
AcDbVertex
100
AcDb2dVertex
 10
378.876282
 20
783.473511
 30
0.0
  0
VERTEX
  5
218
100
AcDbEntity
  8
0
370
     0
390
0
100
AcDbVertex
100
AcDb2dVertex
 10
379.274597
 20
782.93042
 30
0.0
  0
VERTEX
  5
219
100
AcDbEntity
  8
0
370
     0
390
0
100
AcDbVertex
100
AcDb2dVertex
 10
379.613403
 20
782.561279
 30
0.0
  0
VERTEX
  5
21A
100
AcDbEntity
  8
0
370
     0
390
0
100
AcDbVertex
100
AcDb2dVertex
 10
380.010834
 20
782.186401
 30
0.0
  0
VERTEX
  5
21B
100
AcDbEntity
  8
0
370
     0
390
0
100
AcDbVertex
100
AcDb2dVertex
 10
380.981598
 20
781.419556
 30
0.0
  0
VERTEX
  5
21C
100
AcDbEntity
  8
0
370
     0
390
0
100
AcDbVertex
100
AcDb2dVertex
 10
382.335205
 20
780.54071
 30
0.0
  0
VERTEX
  5
21D
100
AcDbEntity
  8
0
370
     0
390
0
100
AcDbVertex
100
AcDb2dVertex
 10
383.978333
 20
779.633728
 30
0.0
  0
VERTEX
  5
21E
100
AcDbEntity
  8
0
370
     0
390
0
100
AcDbVertex
100
AcDb2dVertex
 10
385.91095
 20
778.698486
 30
0.0
  0
VERTEX
  5
21F
100
AcDbEntity
  8
0
370
     0
390
0
100
AcDbVertex
100
AcDb2dVertex
 10
387.527771
 20
777.98822
 30
0.0
  0
VERTEX
  5
220
100
AcDbEntity
  8
0
370
     0
390
0
100
AcDbVertex
100
AcDb2dVertex
 10
389.303162
 20
777.262451
 30
0.0
  0
VERTEX
  5
221
100
AcDbEntity
  8
0
370
     0
390
0
100
AcDbVertex
100
AcDb2dVertex
 10
391.290894
 20
776.501343
 30
0.0
  0
VERTEX
  5
222
100
AcDbEntity
  8
0
370
     0
390
0
100
AcDbVertex
100
AcDb2dVertex
 10
393.445801
 20
775.723877
 30
0.0
  0
SEQEND
  5
223
100
AcDbEntity
  8
0
370
     0
390
0
  0
POLYLINE
  5
224
100
AcDbEntity
  8
0
370
    35
390
0
 62
     7
100
AcDb2dPolyline
 66
     1
 10
0.0
 20
0.0
 30
0.0
 71
    27
  0
VERTEX
  5
225
100
AcDbEntity
  8
0
370
     0
390
0
100
AcDbVertex
100
AcDb2dVertex
 10
393.445801
 20
775.723877
 30
0.0
  0
VERTEX
  5
226
100
AcDbEntity
  8
0
370
     0
390
0
100
AcDbVertex
100
AcDb2dVertex
 10
391.575043
 20
775.668579
 30
0.0
  0
VERTEX
  5
227
100
AcDbEntity
  8
0
370
     0
390
0
100
AcDbVertex
100
AcDb2dVertex
 10
389.825439
 20
775.575562
 30
0.0
  0
VERTEX
  5
228
100
AcDbEntity
  8
0
370
     0
390
0
100
AcDbVertex
100
AcDb2dVertex
 10
388.243073
 20
775.449158
 30
0.0
  0
VERTEX
  5
229
100
AcDbEntity
  8
0
370
     0
390
0
100
AcDbVertex
100
AcDb2dVertex
 10
386.774811
 20
775.287231
 30
0.0
  0
VERTEX
  5
22A
100
AcDbEntity
  8
0
370
     0
390
0
100
AcDbVertex
100
AcDb2dVertex
 10
384.96933
 20
775.011475
 30
0.0
  0
VERTEX
  5
22B
100
AcDbEntity
  8
0
370
     0
390
0
100
AcDbVertex
100
AcDb2dVertex
 10
383.372955
 20
774.670654
 30
0.0
  0
VERTEX
  5
22C
100
AcDbEntity
  8
0
370
     0
390
0
100
AcDbVertex
100
AcDb2dVertex
 10
381.985687
 20
774.264648
 30
0.0
  0
VERTEX
  5
22D
100
AcDbEntity
  8
0
370
     0
390
0
100
AcDbVertex
100
AcDb2dVertex
 10
380.807495
 20
773.793579
 30
0.0
  0
VERTEX
  5
22E
100
AcDbEntity
  8
0
370
     0
390
0
100
AcDbVertex
100
AcDb2dVertex
 10
380.27713
 20
773.522705
 30
0.0
  0
VERTEX
  5
22F
100
AcDbEntity
  8
0
370
     0
390
0
100
AcDbVertex
100
AcDb2dVertex
 10
379.803406
 20
773.234253
 30
0.0
  0
VERTEX
  5
230
100
AcDbEntity
  8
0
370
     0
390
0
100
AcDbVertex
100
AcDb2dVertex
 10
379.41684
 20
772.952698
 30
0.0
  0
VERTEX
  5
231
100
AcDbEntity
  8
0
370
     0
390
0
100
AcDbVertex
100
AcDb2dVertex
 10
379.078369
 20
772.656128
 30
0.0
  0
VERTEX
  5
232
100
AcDbEntity
  8
0
370
     0
390
0
100
AcDbVertex
100
AcDb2dVertex
 10
378.804596
 20
772.364319
 30
0.0
  0
VERTEX
  5
233
100
AcDbEntity
  8
0
370
     0
390
0
100
AcDbVertex
100
AcDb2dVertex
 10
378.573151
 20
772.059326
 30
0.0
  0
VERTEX
  5
234
100
AcDbEntity
  8
0
370
     0
390
0
100
AcDbVertex
100
AcDb2dVertex
 10
378.330414
 20
771.632141
 30
0.0
  0
VERTEX
  5
235
100
AcDbEntity
  8
0
370
     0
390
0
100
AcDbVertex
100
AcDb2dVertex
 10
378.162964
 20
771.181519
 30
0.0
  0
VERTEX
  5
236
100
AcDbEntity
  8
0
370
     0
390
0
100
AcDbVertex
100
AcDb2dVertex
 10
378.070801
 20
770.707458
 30
0.0
  0
VERTEX
  5
237
100
AcDbEntity
  8
0
370
     0
390
0
100
AcDbVertex
100
AcDb2dVertex
 10
378.051056
 20
770.336548
 30
0.0
  0
VERTEX
  5
238
100
AcDbEntity
  8
0
370
     0
390
0
100
AcDbVertex
100
AcDb2dVertex
 10
378.073669
 20
769.952454
 30
0.0
  0
VERTEX
  5
239
100
AcDbEntity
  8
0
370
     0
390
0
100
AcDbVertex
100
AcDb2dVertex
 10
378.138611
 20
769.555176
 30
0.0
  0
VERTEX
  5
23A
100
AcDbEntity
  8
0
370
     0
390
0
100
AcDbVertex
100
AcDb2dVertex
 10
378.24588
 20
769.144653
 30
0.0
  0
VERTEX
  5
23B
100
AcDbEntity
  8
0
370
     0
390
0
100
AcDbVertex
100
AcDb2dVertex
 10
378.53006
 20
768.406494
 30
0.0
  0
VERTEX
  5
23C
100
AcDbEntity
  8
0
370
     0
390
0
100
AcDbVertex
100
AcDb2dVertex
 10
378.939941
 20
767.629211
 30
0.0
  0
VERTEX
  5
23D
100
AcDbEntity
  8
0
370
     0
390
0
100
AcDbVertex
100
AcDb2dVertex
 10
379.475525
 20
766.812805
 30
0.0
  0
VERTEX
  5
23E
100
AcDbEntity
  8
0
370
     0
390
0
100
AcDbVertex
100
AcDb2dVertex
 10
379.959686
 20
766.174744
 30
0.0
  0
VERTEX
  5
23F
100
AcDbEntity
  8
0
370
     0
390
0
100
AcDbVertex
100
AcDb2dVertex
 10
380.514557
 20
765.514771
 30
0.0
  0
SEQEND
  5
240
100
AcDbEntity
  8
0
370
     0
390
0
  0
POLYLINE
  5
241
100
AcDbEntity
  8
0
370
    35
390
0
 62
     7
100
AcDb2dPolyline
 66
     1
 10
0.0
 20
0.0
 30
0.0
 71
    11
  0
VERTEX
  5
242
100
AcDbEntity
  8
0
370
     0
390
0
100
AcDbVertex
100
AcDb2dVertex
 10
380.514557
 20
765.514771
 30
0.0
  0
VERTEX
  5
243
100
AcDbEntity
  8
0
370
     0
390
0
100
AcDbVertex
100
AcDb2dVertex
 10
383.56424
 20
764.331543
 30
0.0
  0
VERTEX
  5
244
100
AcDbEntity
  8
0
370
     0
390
0
100
AcDbVertex
100
AcDb2dVertex
 10
386.639893
 20
763.246033
 30
0.0
  0
VERTEX
  5
245
100
AcDbEntity
  8
0
370
     0
390
0
100
AcDbVertex
100
AcDb2dVertex
 10
390.095184
 20
762.152344
 30
0.0
  0
VERTEX
  5
246
100
AcDbEntity
  8
0
370
     0
390
0
100
AcDbVertex
100
AcDb2dVertex
 10
393.582642
 20
761.17981
 30
0.0
  0
VERTEX
  5
247
100
AcDbEntity
  8
0
370
     0
390
0
100
AcDbVertex
100
AcDb2dVertex
 10
397.102264
 20
760.328491
 30
0.0
  0
VERTEX
  5
248
100
AcDbEntity
  8
0
370
     0
390
0
100
AcDbVertex
100
AcDb2dVertex
 10
400.654022
 20
759.598328
 30
0.0
  0
VERTEX
  5
249
100
AcDbEntity
  8
0
370
     0
390
0
100
AcDbVertex
100
AcDb2dVertex
 10
404.237976
 20
758.98938
 30
0.0
  0
VERTEX
  5
24A
100
AcDbEntity
  8
0
370
     0
390
0
100
AcDbVertex
100
AcDb2dVertex
 10
407.854065
 20
758.501587
 30
0.0
  0
VERTEX
  5
24B
100
AcDbEntity
  8
0
370
     0
390
0
100
AcDbVertex
100
AcDb2dVertex
 10
411.502319
 20
758.134949
 30
0.0
  0
VERTEX
  5
24C
100
AcDbEntity
  8
0
370
     0
390
0
100
AcDbVertex
100
AcDb2dVertex
 10
415.182739
 20
757.889526
 30
0.0
  0
SEQEND
  5
24D
100
AcDbEntity
  8
0
370
     0
390
0
  0
LINE
  5
24E
100
AcDbEntity
  8
0
370
    35
390
0
 62
     7
 48
0.363538
100
AcDbLine
 10
415.182739
 20
772.43103
 30
0.0
 11
415.182739
 21
757.889526
 31
0.0
210
0.0
220
0.0
230
1.0
  0
LINE
  5
24F
100
AcDbEntity
  8
0
370
    35
390
0
 62
     7
100
AcDbLine
 10
486.182739
 20
772.43103
 30
0.0
 11
415.182739
 21
772.43103
 31
0.0
210
0.0
220
0.0
230
1.0
  0
LINE
  5
250
100
AcDbEntity
  8
0
370
    35
390
0
 62
     7
 48
0.363017
100
AcDbLine
 10
487.071472
 20
757.937561
 30
0.0
 11
486.182739
 21
772.43103
 31
0.0
210
0.0
220
0.0
230
1.0
  0
POLYLINE
  5
251
100
AcDbEntity
  8
0
370
    35
390
0
 62
     7
100
AcDb2dPolyline
 66
     1
 10
0.0
 20
0.0
 30
0.0
 71
    10
  0
VERTEX
  5
252
100
AcDbEntity
  8
0
370
     0
390
0
100
AcDbVertex
100
AcDb2dVertex
 10
520.850952
 20
765.514771
 30
0.0
  0
VERTEX
  5
253
100
AcDbEntity
  8
0
370
     0
390
0
100
AcDbVertex
100
AcDb2dVertex
 10
517.80127
 20
764.331543
 30
0.0
  0
VERTEX
  5
254
100
AcDbEntity
  8
0
370
     0
390
0
100
AcDbVertex
100
AcDb2dVertex
 10
514.725586
 20
763.246033
 30
0.0
  0
VERTEX
  5
255
100
AcDbEntity
  8
0
370
     0
390
0
100
AcDbVertex
100
AcDb2dVertex
 10
510.893555
 20
762.040955
 30
0.0
  0
VERTEX
  5
256
100
AcDbEntity
  8
0
370
     0
390
0
100
AcDbVertex
100
AcDb2dVertex
 10
507.022003
 20
760.984802
 30
0.0
  0
VERTEX
  5
257
100
AcDbEntity
  8
0
370
     0
390
0
100
AcDbVertex
100
AcDb2dVertex
 10
503.110931
 20
760.077576
 30
0.0
  0
VERTEX
  5
258
100
AcDbEntity
  8
0
370
     0
390
0
100
AcDbVertex
100
AcDb2dVertex
 10
499.160339
 20
759.319214
 30
0.0
  0
VERTEX
  5
259
100
AcDbEntity
  8
0
370
     0
390
0
100
AcDbVertex
100
AcDb2dVertex
 10
495.170258
 20
758.709778
 30
0.0
  0
VERTEX
  5
25A
100
AcDbEntity
  8
0
370
     0
390
0
100
AcDbVertex
100
AcDb2dVertex
 10
491.140625
 20
758.249207
 30
0.0
  0
VERTEX
  5
25B
100
AcDbEntity
  8
0
370
     0
390
0
100
AcDbVertex
100
AcDb2dVertex
 10
487.071472
 20
757.937561
 30
0.0
  0
SEQEND
  5
25C
100
AcDbEntity
  8
0
370
     0
390
0
  0
POLYLINE
  5
25D
100
AcDbEntity
  8
0
370
    35
390
0
 62
     7
100
AcDb2dPolyline
 66
     1
 10
0.0
 20
0.0
 30
0.0
 71
    27
  0
VERTEX
  5
25E
100
AcDbEntity
  8
0
370
     0
390
0
100
AcDbVertex
100
AcDb2dVertex
 10
507.919708
 20
775.723877
 30
0.0
  0
VERTEX
  5
25F
100
AcDbEntity
  8
0
370
     0
390
0
100
AcDbVertex
100
AcDb2dVertex
 10
509.790436
 20
775.668579
 30
0.0
  0
VERTEX
  5
260
100
AcDbEntity
  8
0
370
     0
390
0
100
AcDbVertex
100
AcDb2dVertex
 10
511.540039
 20
775.575562
 30
0.0
  0
VERTEX
  5
261
100
AcDbEntity
  8
0
370
     0
390
0
100
AcDbVertex
100
AcDb2dVertex
 10
513.122437
 20
775.449158
 30
0.0
  0
VERTEX
  5
262
100
AcDbEntity
  8
0
370
     0
390
0
100
AcDbVertex
100
AcDb2dVertex
 10
514.590698
 20
775.287231
 30
0.0
  0
VERTEX
  5
263
100
AcDbEntity
  8
0
370
     0
390
0
100
AcDbVertex
100
AcDb2dVertex
 10
516.396179
 20
775.011475
 30
0.0
  0
VERTEX
  5
264
100
AcDbEntity
  8
0
370
     0
390
0
100
AcDbVertex
100
AcDb2dVertex
 10
517.992554
 20
774.670654
 30
0.0
  0
VERTEX
  5
265
100
AcDbEntity
  8
0
370
     0
390
0
100
AcDbVertex
100
AcDb2dVertex
 10
519.379822
 20
774.264648
 30
0.0
  0
VERTEX
  5
266
100
AcDbEntity
  8
0
370
     0
390
0
100
AcDbVertex
100
AcDb2dVertex
 10
520.557983
 20
773.793579
 30
0.0
  0
VERTEX
  5
267
100
AcDbEntity
  8
0
370
     0
390
0
100
AcDbVertex
100
AcDb2dVertex
 10
521.088379
 20
773.522705
 30
0.0
  0
VERTEX
  5
268
100
AcDbEntity
  8
0
370
     0
390
0
100
AcDbVertex
100
AcDb2dVertex
 10
521.562073
 20
773.234253
 30
0.0
  0
VERTEX
  5
269
100
AcDbEntity
  8
0
370
     0
390
0
100
AcDbVertex
100
AcDb2dVertex
 10
521.948669
 20
772.952698
 30
0.0
  0
VERTEX
  5
26A
100
AcDbEntity
  8
0
370
     0
390
0
100
AcDbVertex
100
AcDb2dVertex
 10
522.287109
 20
772.656128
 30
0.0
  0
VERTEX
  5
26B
100
AcDbEntity
  8
0
370
     0
390
0
100
AcDbVertex
100
AcDb2dVertex
 10
522.560913
 20
772.364319
 30
0.0
  0
VERTEX
  5
26C
100
AcDbEntity
  8
0
370
     0
390
0
100
AcDbVertex
100
AcDb2dVertex
 10
522.792358
 20
772.059326
 30
0.0
  0
VERTEX
  5
26D
100
AcDbEntity
  8
0
370
     0
390
0
100
AcDbVertex
100
AcDb2dVertex
 10
523.035095
 20
771.632141
 30
0.0
  0
VERTEX
  5
26E
100
AcDbEntity
  8
0
370
     0
390
0
100
AcDbVertex
100
AcDb2dVertex
 10
523.202515
 20
771.181519
 30
0.0
  0
VERTEX
  5
26F
100
AcDbEntity
  8
0
370
     0
390
0
100
AcDbVertex
100
AcDb2dVertex
 10
523.294678
 20
770.707458
 30
0.0
  0
VERTEX
  5
270
100
AcDbEntity
  8
0
370
     0
390
0
100
AcDbVertex
100
AcDb2dVertex
 10
523.314453
 20
770.336548
 30
0.0
  0
VERTEX
  5
271
100
AcDbEntity
  8
0
370
     0
390
0
100
AcDbVertex
100
AcDb2dVertex
 10
523.29187
 20
769.952454
 30
0.0
  0
VERTEX
  5
272
100
AcDbEntity
  8
0
370
     0
390
0
100
AcDbVertex
100
AcDb2dVertex
 10
523.226868
 20
769.555176
 30
0.0
  0
VERTEX
  5
273
100
AcDbEntity
  8
0
370
     0
390
0
100
AcDbVertex
100
AcDb2dVertex
 10
523.119629
 20
769.144653
 30
0.0
  0
VERTEX
  5
274
100
AcDbEntity
  8
0
370
     0
390
0
100
AcDbVertex
100
AcDb2dVertex
 10
522.835449
 20
768.406494
 30
0.0
  0
VERTEX
  5
275
100
AcDbEntity
  8
0
370
     0
390
0
100
AcDbVertex
100
AcDb2dVertex
 10
522.425537
 20
767.629211
 30
0.0
  0
VERTEX
  5
276
100
AcDbEntity
  8
0
370
     0
390
0
100
AcDbVertex
100
AcDb2dVertex
 10
521.890015
 20
766.812805
 30
0.0
  0
VERTEX
  5
277
100
AcDbEntity
  8
0
370
     0
390
0
100
AcDbVertex
100
AcDb2dVertex
 10
521.405823
 20
766.174744
 30
0.0
  0
VERTEX
  5
278
100
AcDbEntity
  8
0
370
     0
390
0
100
AcDbVertex
100
AcDb2dVertex
 10
520.850952
 20
765.514771
 30
0.0
  0
SEQEND
  5
279
100
AcDbEntity
  8
0
370
     0
390
0
  0
POLYLINE
  5
27A
100
AcDbEntity
  8
0
370
    35
390
0
 62
     7
100
AcDb2dPolyline
 66
     1
 10
0.0
 20
0.0
 30
0.0
 71
    29
  0
VERTEX
  5
27B
100
AcDbEntity
  8
0
370
     0
390
0
100
AcDbVertex
100
AcDb2dVertex
 10
506.88031
 20
791.086304
 30
0.0
  0
VERTEX
  5
27C
100
AcDbEntity
  8
0
370
     0
390
0
100
AcDbVertex
100
AcDb2dVertex
 10
509.096802
 20
790.73822
 30
0.0
  0
VERTEX
  5
27D
100
AcDbEntity
  8
0
370
     0
390
0
100
AcDbVertex
100
AcDb2dVertex
 10
511.148468
 20
790.374084
 30
0.0
  0
VERTEX
  5
27E
100
AcDbEntity
  8
0
370
     0
390
0
100
AcDbVertex
100
AcDb2dVertex
 10
512.909546
 20
790.020874
 30
0.0
  0
VERTEX
  5
27F
100
AcDbEntity
  8
0
370
     0
390
0
100
AcDbVertex
100
AcDb2dVertex
 10
514.527832
 20
789.653687
 30
0.0
  0
VERTEX
  5
280
100
AcDbEntity
  8
0
370
     0
390
0
100
AcDbVertex
100
AcDb2dVertex
 10
516.530762
 20
789.123047
 30
0.0
  0
VERTEX
  5
281
100
AcDbEntity
  8
0
370
     0
390
0
100
AcDbVertex
100
AcDb2dVertex
 10
518.260559
 20
788.565735
 30
0.0
  0
VERTEX
  5
282
100
AcDbEntity
  8
0
370
     0
390
0
100
AcDbVertex
100
AcDb2dVertex
 10
519.717285
 20
787.981873
 30
0.0
  0
VERTEX
  5
283
100
AcDbEntity
  8
0
370
     0
390
0
100
AcDbVertex
100
AcDb2dVertex
 10
520.7948
 20
787.433716
 30
0.0
  0
VERTEX
  5
284
100
AcDbEntity
  8
0
370
     0
390
0
100
AcDbVertex
100
AcDb2dVertex
 10
521.651123
 20
786.863953
 30
0.0
  0
VERTEX
  5
285
100
AcDbEntity
  8
0
370
     0
390
0
100
AcDbVertex
100
AcDb2dVertex
 10
521.996338
 20
786.571045
 30
0.0
  0
VERTEX
  5
286
100
AcDbEntity
  8
0
370
     0
390
0
100
AcDbVertex
100
AcDb2dVertex
 10
522.286255
 20
786.272705
 30
0.0
  0
VERTEX
  5
287
100
AcDbEntity
  8
0
370
     0
390
0
100
AcDbVertex
100
AcDb2dVertex
 10
522.586731
 20
785.866577
 30
0.0
  0
VERTEX
  5
288
100
AcDbEntity
  8
0
370
     0
390
0
100
AcDbVertex
100
AcDb2dVertex
 10
522.788879
 20
785.450867
 30
0.0
  0
VERTEX
  5
289
100
AcDbEntity
  8
0
370
     0
390
0
100
AcDbVertex
100
AcDb2dVertex
 10
522.892761
 20
785.025574
 30
0.0
  0
VERTEX
  5
28A
100
AcDbEntity
  8
0
370
     0
390
0
100
AcDbVertex
100
AcDb2dVertex
 10
522.890137
 20
784.521057
 30
0.0
  0
VERTEX
  5
28B
100
AcDbEntity
  8
0
370
     0
390
0
100
AcDbVertex
100
AcDb2dVertex
 10
522.755615
 20
784.003662
 30
0.0
  0
VERTEX
  5
28C
100
AcDbEntity
  8
0
370
     0
390
0
100
AcDbVertex
100
AcDb2dVertex
 10
522.489197
 20
783.473511
 30
0.0
  0
VERTEX
  5
28D
100
AcDbEntity
  8
0
370
     0
390
0
100
AcDbVertex
100
AcDb2dVertex
 10
522.090942
 20
782.93042
 30
0.0
  0
VERTEX
  5
28E
100
AcDbEntity
  8
0
370
     0
390
0
100
AcDbVertex
100
AcDb2dVertex
 10
521.752075
 20
782.561279
 30
0.0
  0
VERTEX
  5
28F
100
AcDbEntity
  8
0
370
     0
390
0
100
AcDbVertex
100
AcDb2dVertex
 10
521.354675
 20
782.186401
 30
0.0
  0
VERTEX
  5
290
100
AcDbEntity
  8
0
370
     0
390
0
100
AcDbVertex
100
AcDb2dVertex
 10
520.383911
 20
781.419556
 30
0.0
  0
VERTEX
  5
291
100
AcDbEntity
  8
0
370
     0
390
0
100
AcDbVertex
100
AcDb2dVertex
 10
519.030273
 20
780.54071
 30
0.0
  0
VERTEX
  5
292
100
AcDbEntity
  8
0
370
     0
390
0
100
AcDbVertex
100
AcDb2dVertex
 10
517.387146
 20
779.633728
 30
0.0
  0
VERTEX
  5
293
100
AcDbEntity
  8
0
370
     0
390
0
100
AcDbVertex
100
AcDb2dVertex
 10
515.454529
 20
778.698486
 30
0.0
  0
VERTEX
  5
294
100
AcDbEntity
  8
0
370
     0
390
0
100
AcDbVertex
100
AcDb2dVertex
 10
513.837708
 20
777.98822
 30
0.0
  0
VERTEX
  5
295
100
AcDbEntity
  8
0
370
     0
390
0
100
AcDbVertex
100
AcDb2dVertex
 10
512.062317
 20
777.262451
 30
0.0
  0
VERTEX
  5
296
100
AcDbEntity
  8
0
370
     0
390
0
100
AcDbVertex
100
AcDb2dVertex
 10
510.074585
 20
776.501343
 30
0.0
  0
VERTEX
  5
297
100
AcDbEntity
  8
0
370
     0
390
0
100
AcDbVertex
100
AcDb2dVertex
 10
507.919708
 20
775.723877
 30
0.0
  0
SEQEND
  5
298
100
AcDbEntity
  8
0
370
     0
390
0
  0
LINE
  5
299
100
AcDbEntity
  8
0
370
    35
390
0
 62
     7
 48
0.125
100
AcDbLine
 10
448.182739
 20
790.256409
 30
0.0
 11
453.182739
 21
790.256409
 31
0.0
210
0.0
220
0.0
230
1.0
  0
LINE
  5
29A
100
AcDbEntity
  8
0
370
    35
390
0
 62
     7
 48
0.125
100
AcDbLine
 10
453.182739
 20
785.256409
 30
0.0
 11
453.182739
 21
790.256409
 31
0.0
210
0.0
220
0.0
230
1.0
  0
LINE
  5
29B
100
AcDbEntity
  8
0
370
    35
390
0
 62
     7
 48
0.125
100
AcDbLine
 10
453.182739
 20
785.256409
 30
0.0
 11
448.182739
 21
785.256409
 31
0.0
210
0.0
220
0.0
230
1.0
  0
LINE
  5
29C
100
AcDbEntity
  8
0
370
    35
390
0
 62
     7
 48
0.125
100
AcDbLine
 10
448.182739
 20
790.256409
 30
0.0
 11
448.182739
 21
785.256409
 31
0.0
210
0.0
220
0.0
230
1.0
  0
LINE
  5
29D
100
AcDbEntity
  8
0
370
    35
390
0
 62
     7
 48
0.125
100
AcDbLine
 10
453.182739
 20
797.489136
 30
0.0
 11
453.182739
 21
802.489136
 31
0.0
210
0.0
220
0.0
230
1.0
  0
LINE
  5
29E
100
AcDbEntity
  8
0
370
    35
390
0
 62
     7
 48
0.125
100
AcDbLine
 10
453.182739
 20
797.489136
 30
0.0
 11
448.182739
 21
797.489136
 31
0.0
210
0.0
220
0.0
230
1.0
  0
LINE
  5
29F
100
AcDbEntity
  8
0
370
    35
390
0
 62
     7
 48
0.125
100
AcDbLine
 10
448.182739
 20
802.489136
 30
0.0
 11
448.182739
 21
797.489136
 31
0.0
210
0.0
220
0.0
230
1.0
  0
LINE
  5
2A0
100
AcDbEntity
  8
0
370
    35
390
0
 62
     7
 48
0.125
100
AcDbLine
 10
448.182739
 20
802.489136
 30
0.0
 11
453.182739
 21
802.489136
 31
0.0
210
0.0
220
0.0
230
1.0
  0
LINE
  5
2A1
100
AcDbEntity
  8
0
370
    35
390
0
 62
     7
 48
0.320634
100
AcDbLine
 10
534.424683
 20
810.248352
 30
0.0
 11
534.424683
 21
797.422974
 31
0.0
210
0.0
220
0.0
230
1.0
  0
LINE
  5
2A2
100
AcDbEntity
  8
0
370
    35
390
0
 62
     7
 48
0.125
100
AcDbLine
 10
529.424683
 20
810.248352
 30
0.0
 11
534.424683
 21
810.248352
 31
0.0
210
0.0
220
0.0
230
1.0
  0
LINE
  5
2A3
100
AcDbEntity
  8
0
370
    35
390
0
 62
     7
 48
0.125
100
AcDbLine
 10
529.424683
 20
815.248352
 30
0.0
 11
529.424683
 21
810.248352
 31
0.0
210
0.0
220
0.0
230
1.0
  0
LINE
  5
2A4
100
AcDbEntity
  8
0
370
    35
390
0
 62
     7
 48
0.125
100
AcDbLine
 10
534.424683
 20
815.248352
 30
0.0
 11
529.424683
 21
815.248352
 31
0.0
210
0.0
220
0.0
230
1.0
  0
LINE
  5
2A5
100
AcDbEntity
  8
0
370
    35
390
0
 62
     7
 48
0.180818
100
AcDbLine
 10
534.424683
 20
822.481079
 30
0.0
 11
534.424683
 21
815.248352
 31
0.0
210
0.0
220
0.0
230
1.0
  0
LINE
  5
2A6
100
AcDbEntity
  8
0
370
    35
390
0
 62
     7
 48
0.125
100
AcDbLine
 10
529.424683
 20
822.481079
 30
0.0
 11
534.424683
 21
822.481079
 31
0.0
210
0.0
220
0.0
230
1.0
  0
LINE
  5
2A7
100
AcDbEntity
  8
0
370
    35
390
0
 62
     7
 48
0.125
100
AcDbLine
 10
529.424683
 20
827.481079
 30
0.0
 11
529.424683
 21
822.481079
 31
0.0
210
0.0
220
0.0
230
1.0
  0
LINE
  5
2A8
100
AcDbEntity
  8
0
370
    35
390
0
 62
     7
 48
0.125
100
AcDbLine
 10
534.424683
 20
827.481079
 30
0.0
 11
529.424683
 21
827.481079
 31
0.0
210
0.0
220
0.0
230
1.0
  0
LINE
  5
2A9
100
AcDbEntity
  8
0
370
    35
390
0
 62
     7
 48
0.154265
100
AcDbLine
 10
534.424683
 20
833.651672
 30
0.0
 11
534.424683
 21
827.481079
 31
0.0
210
0.0
220
0.0
230
1.0
  0
POLYLINE
  5
2AA
100
AcDbEntity
  8
0
370
    35
390
0
 62
     7
100
AcDb2dPolyline
 66
     1
 10
0.0
 20
0.0
 30
0.0
 71
    45
  0
VERTEX
  5
2AB
100
AcDbEntity
  8
0
370
     0
390
0
100
AcDbVertex
100
AcDb2dVertex
 10
534.424683
 20
833.651672
 30
0.0
  0
VERTEX
  5
2AC
100
AcDbEntity
  8
0
370
     0
390
0
100
AcDbVertex
100
AcDb2dVertex
 10
536.157043
 20
833.40863
 30
0.0
  0
VERTEX
  5
2AD
100
AcDbEntity
  8
0
370
     0
390
0
100
AcDbVertex
100
AcDb2dVertex
 10
537.964294
 20
833.268555
 30
0.0
  0
VERTEX
  5
2AE
100
AcDbEntity
  8
0
370
     0
390
0
100
AcDbVertex
100
AcDb2dVertex
 10
539.845215
 20
833.229797
 30
0.0
  0
VERTEX
  5
2AF
100
AcDbEntity
  8
0
370
     0
390
0
100
AcDbVertex
100
AcDb2dVertex
 10
541.302612
 20
833.264526
 30
0.0
  0
VERTEX
  5
2B0
100
AcDbEntity
  8
0
370
     0
390
0
100
AcDbVertex
100
AcDb2dVertex
 10
542.797668
 20
833.35022
 30
0.0
  0
VERTEX
  5
2B1
100
AcDbEntity
  8
0
370
     0
390
0
100
AcDbVertex
100
AcDb2dVertex
 10
544.327148
 20
833.481689
 30
0.0
  0
VERTEX
  5
2B2
100
AcDbEntity
  8
0
370
     0
390
0
100
AcDbVertex
100
AcDb2dVertex
 10
545.886536
 20
833.651672
 30
0.0
  0
VERTEX
  5
2B3
100
AcDbEntity
  8
0
370
     0
390
0
100
AcDbVertex
100
AcDb2dVertex
 10
549.829163
 20
834.170471
 30
0.0
  0
VERTEX
  5
2B4
100
AcDbEntity
  8
0
370
     0
390
0
100
AcDbVertex
100
AcDb2dVertex
 10
552.209839
 20
834.48175
 30
0.0
  0
VERTEX
  5
2B5
100
AcDbEntity
  8
0
370
     0
390
0
100
AcDbVertex
100
AcDb2dVertex
 10
553.391724
 20
834.616638
 30
0.0
  0
VERTEX
  5
2B6
100
AcDbEntity
  8
0
370
     0
390
0
100
AcDbVertex
100
AcDb2dVertex
 10
555.035156
 20
834.765747
 30
0.0
  0
VERTEX
  5
2B7
100
AcDbEntity
  8
0
370
     0
390
0
100
AcDbVertex
100
AcDb2dVertex
 10
556.643188
 20
834.849121
 30
0.0
  0
VERTEX
  5
2B8
100
AcDbEntity
  8
0
370
     0
390
0
100
AcDbVertex
100
AcDb2dVertex
 10
558.203552
 20
834.8479
 30
0.0
  0
VERTEX
  5
2B9
100
AcDbEntity
  8
0
370
     0
390
0
100
AcDbVertex
100
AcDb2dVertex
 10
559.335632
 20
834.780579
 30
0.0
  0
VERTEX
  5
2BA
100
AcDbEntity
  8
0
370
     0
390
0
100
AcDbVertex
100
AcDb2dVertex
 10
560.429993
 20
834.648743
 30
0.0
  0
VERTEX
  5
2BB
100
AcDbEntity
  8
0
370
     0
390
0
100
AcDbVertex
100
AcDb2dVertex
 10
561.687927
 20
834.397034
 30
0.0
  0
VERTEX
  5
2BC
100
AcDbEntity
  8
0
370
     0
390
0
100
AcDbVertex
100
AcDb2dVertex
 10
562.880188
 20
834.035339
 30
0.0
  0
VERTEX
  5
2BD
100
AcDbEntity
  8
0
370
     0
390
0
100
AcDbVertex
100
AcDb2dVertex
 10
564.00238
 20
833.557617
 30
0.0
  0
VERTEX
  5
2BE
100
AcDbEntity
  8
0
370
     0
390
0
100
AcDbVertex
100
AcDb2dVertex
 10
565.05188
 20
832.96051
 30
0.0
  0
VERTEX
  5
2BF
100
AcDbEntity
  8
0
370
     0
390
0
100
AcDbVertex
100
AcDb2dVertex
 10
566.028076
 20
832.244019
 30
0.0
  0
VERTEX
  5
2C0
100
AcDbEntity
  8
0
370
     0
390
0
100
AcDbVertex
100
AcDb2dVertex
 10
566.882141
 20
831.46283
 30
0.0
  0
VERTEX
  5
2C1
100
AcDbEntity
  8
0
370
     0
390
0
100
AcDbVertex
100
AcDb2dVertex
 10
567.675476
 20
830.5849
 30
0.0
  0
VERTEX
  5
2C2
100
AcDbEntity
  8
0
370
     0
390
0
100
AcDbVertex
100
AcDb2dVertex
 10
568.412781
 20
829.618835
 30
0.0
  0
VERTEX
  5
2C3
100
AcDbEntity
  8
0
370
     0
390
0
100
AcDbVertex
100
AcDb2dVertex
 10
568.932556
 20
828.842957
 30
0.0
  0
VERTEX
  5
2C4
100
AcDbEntity
  8
0
370
     0
390
0
100
AcDbVertex
100
AcDb2dVertex
 10
569.427002
 20
828.028687
 30
0.0
  0
VERTEX
  5
2C5
100
AcDbEntity
  8
0
370
     0
390
0
100
AcDbVertex
100
AcDb2dVertex
 10
570.044373
 20
826.907593
 30
0.0
  0
VERTEX
  5
2C6
100
AcDbEntity
  8
0
370
     0
390
0
100
AcDbVertex
100
AcDb2dVertex
 10
570.630432
 20
825.742371
 30
0.0
  0
VERTEX
  5
2C7
100
AcDbEntity
  8
0
370
     0
390
0
100
AcDbVertex
100
AcDb2dVertex
 10
571.375854
 20
824.142639
 30
0.0
  0
VERTEX
  5
2C8
100
AcDbEntity
  8
0
370
     0
390
0
100
AcDbVertex
100
AcDb2dVertex
 10
572.802979
 20
820.891235
 30
0.0
  0
VERTEX
  5
2C9
100
AcDbEntity
  8
0
370
     0
390
0
100
AcDbVertex
100
AcDb2dVertex
 10
574.481201
 20
817.155762
 30
0.0
  0
VERTEX
  5
2CA
100
AcDbEntity
  8
0
370
     0
390
0
100
AcDbVertex
100
AcDb2dVertex
 10
576.202148
 20
813.623535
 30
0.0
  0
VERTEX
  5
2CB
100
AcDbEntity
  8
0
370
     0
390
0
100
AcDbVertex
100
AcDb2dVertex
 10
577.929932
 20
810.248352
 30
0.0
  0
VERTEX
  5
2CC
100
AcDbEntity
  8
0
370
     0
390
0
100
AcDbVertex
100
AcDb2dVertex
 10
579.439758
 20
807.236267
 30
0.0
  0
VERTEX
  5
2CD
100
AcDbEntity
  8
0
370
     0
390
0
100
AcDbVertex
100
AcDb2dVertex
 10
580.15863
 20
805.720215
 30
0.0
  0
VERTEX
  5
2CE
100
AcDbEntity
  8
0
370
     0
390
0
100
AcDbVertex
100
AcDb2dVertex
 10
581.17749
 20
803.411316
 30
0.0
  0
VERTEX
  5
2CF
100
AcDbEntity
  8
0
370
     0
390
0
100
AcDbVertex
100
AcDb2dVertex
 10
581.776917
 20
801.927612
 30
0.0
  0
VERTEX
  5
2D0
100
AcDbEntity
  8
0
370
     0
390
0
100
AcDbVertex
100
AcDb2dVertex
 10
582.340271
 20
800.415344
 30
0.0
  0
VERTEX
  5
2D1
100
AcDbEntity
  8
0
370
     0
390
0
100
AcDbVertex
100
AcDb2dVertex
 10
582.817932
 20
799.016479
 30
0.0
  0
VERTEX
  5
2D2
100
AcDbEntity
  8
0
370
     0
390
0
100
AcDbVertex
100
AcDb2dVertex
 10
583.262512
 20
797.588867
 30
0.0
  0
VERTEX
  5
2D3
100
AcDbEntity
  8
0
370
     0
390
0
100
AcDbVertex
100
AcDb2dVertex
 10
584.009033
 20
794.802429
 30
0.0
  0
VERTEX
  5
2D4
100
AcDbEntity
  8
0
370
     0
390
0
100
AcDbVertex
100
AcDb2dVertex
 10
584.626892
 20
791.897095
 30
0.0
  0
VERTEX
  5
2D5
100
AcDbEntity
  8
0
370
     0
390
0
100
AcDbVertex
100
AcDb2dVertex
 10
585.112244
 20
788.867065
 30
0.0
  0
VERTEX
  5
2D6
100
AcDbEntity
  8
0
370
     0
390
0
100
AcDbVertex
100
AcDb2dVertex
 10
585.463257
 20
785.709412
 30
0.0
  0
VERTEX
  5
2D7
100
AcDbEntity
  8
0
370
     0
390
0
100
AcDbVertex
100
AcDb2dVertex
 10
585.679138
 20
782.422974
 30
0.0
  0
SEQEND
  5
2D8
100
AcDbEntity
  8
0
370
     0
390
0
  0
LINE
  5
2D9
100
AcDbEntity
  8
0
370
    35
390
0
 62
     7
 48
0.286772
100
AcDbLine
 10
585.679138
 20
782.422974
 30
0.0
 11
574.208252
 21
782.422974
 31
0.0
210
0.0
220
0.0
230
1.0
  0
LINE
  5
2DA
100
AcDbEntity
  8
0
370
    35
390
0
 62
     7
 48
0.375
100
AcDbLine
 10
574.208252
 20
782.422974
 30
0.0
 11
574.208252
 21
797.422974
 31
0.0
210
0.0
220
0.0
230
1.0
  0
LINE
  5
2DB
100
AcDbEntity
  8
0
370
    35
390
0
 62
     7
 48
0.169589
100
AcDbLine
 10
574.208252
 20
797.422974
 30
0.0
 11
567.424683
 21
797.422974
 31
0.0
210
0.0
220
0.0
230
1.0
  0
LINE
  5
2DC
100
AcDbEntity
  8
0
370
    35
390
0
 62
     7
100
AcDbLine
 10
534.424683
 20
797.422974
 30
0.0
 11
567.424683
 21
797.422974
 31
0.0
210
0.0
220
0.0
230
1.0
  0
ARC
  5
2DD
100
AcDbEntity
  8
0
370
    35
390
0
 62
     7
100
AcDbCircle
 10
523.398071
 20
737.519348
 30
0.0
 40
16.0
210
0.0
220
0.0
230
1.0
100
AcDbArc
 50
269.999997
 51
90.000003
  0
LINE
  5
2DE
100
AcDbEntity
  8
0
370
    35
390
0
 62
     7
 48
0.491499
100
AcDbLine
 10
523.398071
 20
721.519348
 30
0.0
 11
503.738098
 21
721.519348
 31
0.0
210
0.0
220
0.0
230
1.0
  0
LINE
  5
2DF
100
AcDbEntity
  8
0
370
    35
390
0
 62
     7
 48
0.125
100
AcDbLine
 10
503.738098
 20
721.519348
 30
0.0
 11
503.738098
 21
726.519348
 31
0.0
210
0.0
220
0.0
230
1.0
  0
LINE
  5
2E0
100
AcDbEntity
  8
0
370
    35
390
0
 62
     7
100
AcDbLine
 10
503.738098
 20
726.519348
 30
0.0
 11
482.513428
 21
726.519348
 31
0.0
210
0.0
220
0.0
230
1.0
  0
LINE
  5
2E1
100
AcDbEntity
  8
0
370
    35
390
0
 62
     7
 48
0.125
100
AcDbLine
 10
482.513428
 20
726.519348
 30
0.0
 11
482.513428
 21
721.519348
 31
0.0
210
0.0
220
0.0
230
1.0
  0
LINE
  5
2E2
100
AcDbEntity
  8
0
370
    35
390
0
 62
     7
 48
0.417418
100
AcDbLine
 10
482.513428
 20
721.519348
 30
0.0
 11
465.816711
 21
721.519348
 31
0.0
210
0.0
220
0.0
230
1.0
  0
LINE
  5
2E3
100
AcDbEntity
  8
0
370
    35
390
0
 62
     7
 48
0.125
100
AcDbLine
 10
465.816711
 20
721.519348
 30
0.0
 11
465.816711
 21
726.519348
 31
0.0
210
0.0
220
0.0
230
1.0
  0
LINE
  5
2E4
100
AcDbEntity
  8
0
370
    35
390
0
 62
     7
100
AcDbLine
 10
465.816711
 20
726.519348
 30
0.0
 11
443.4151
 21
726.519348
 31
0.0
210
0.0
220
0.0
230
1.0
  0
LINE
  5
2E5
100
AcDbEntity
  8
0
370
    35
390
0
 62
     7
 48
0.125
100
AcDbLine
 10
443.4151
 20
726.519348
 30
0.0
 11
443.4151
 21
721.519348
 31
0.0
210
0.0
220
0.0
230
1.0
  0
LINE
  5
2E6
100
AcDbEntity
  8
0
370
    35
390
0
 62
     7
100
AcDbLine
 10
443.4151
 20
721.519348
 30
0.0
 11
422.47345
 21
721.519348
 31
0.0
210
0.0
220
0.0
230
1.0
  0
LINE
  5
2E7
100
AcDbEntity
  8
0
370
    35
390
0
 62
     7
 48
0.125
100
AcDbLine
 10
422.47345
 20
721.519348
 30
0.0
 11
422.47345
 21
726.519348
 31
0.0
210
0.0
220
0.0
230
1.0
  0
LINE
  5
2E8
100
AcDbEntity
  8
0
370
    35
390
0
 62
     7
100
AcDbLine
 10
422.47345
 20
726.519348
 30
0.0
 11
387.947998
 21
726.519348
 31
0.0
210
0.0
220
0.0
230
1.0
  0
LINE
  5
2E9
100
AcDbEntity
  8
0
370
    35
390
0
 62
     7
 48
0.125
100
AcDbLine
 10
387.947998
 20
726.519348
 30
0.0
 11
387.947998
 21
721.519348
 31
0.0
210
0.0
220
0.0
230
1.0
  0
LINE
  5
2EA
100
AcDbEntity
  8
0
370
    35
390
0
 62
     7
 48
0.229499
100
AcDbLine
 10
387.947998
 20
721.519348
 30
0.0
 11
378.768036
 21
721.519348
 31
0.0
210
0.0
220
0.0
230
1.0
  0
LINE
  5
2EB
100
AcDbEntity
  8
0
370
    35
390
0
 62
     7
100
AcDbLine
 10
378.768036
 20
721.519348
 30
0.0
 11
378.768036
 21
753.519348
 31
0.0
210
0.0
220
0.0
230
1.0
  0
LINE
  5
2EC
100
AcDbEntity
  8
0
370
    35
390
0
 62
     7
100
AcDbLine
 10
378.768036
 20
753.519348
 30
0.0
 11
523.398071
 21
753.519348
 31
0.0
210
0.0
220
0.0
230
1.0
  0
CIRCLE
  5
2ED
100
AcDbEntity
  8
0
370
    35
390
0
 62
     7
100
AcDbCircle
 10
523.398071
 20
737.519348
 30
0.0
 40
3.0
210
0.0
220
0.0
230
1.0
  0
ARC
  5
2EE
100
AcDbEntity
  8
0
370
    35
390
0
 62
     7
100
AcDbCircle
 10
523.682739
 20
702.580933
 30
0.0
 40
16.0
210
0.0
220
0.0
230
1.0
100
AcDbArc
 50
269.999997
 51
90.000003
  0
LINE
  5
2EF
100
AcDbEntity
  8
0
370
    35
390
0
 62
     7
 48
0.491499
100
AcDbLine
 10
523.682739
 20
686.580933
 30
0.0
 11
504.022766
 21
686.580933
 31
0.0
210
0.0
220
0.0
230
1.0
  0
LINE
  5
2F0
100
AcDbEntity
  8
0
370
    35
390
0
 62
     7
 48
0.125
100
AcDbLine
 10
504.022766
 20
686.580933
 30
0.0
 11
504.022766
 21
691.580933
 31
0.0
210
0.0
220
0.0
230
1.0
  0
LINE
  5
2F1
100
AcDbEntity
  8
0
370
    35
390
0
 62
     7
100
AcDbLine
 10
504.022766
 20
691.580933
 30
0.0
 11
482.798096
 21
691.580933
 31
0.0
210
0.0
220
0.0
230
1.0
  0
LINE
  5
2F2
100
AcDbEntity
  8
0
370
    35
390
0
 62
     7
 48
0.125
100
AcDbLine
 10
482.798096
 20
691.580933
 30
0.0
 11
482.798096
 21
686.580933
 31
0.0
210
0.0
220
0.0
230
1.0
  0
LINE
  5
2F3
100
AcDbEntity
  8
0
370
    35
390
0
 62
     7
 48
0.417418
100
AcDbLine
 10
482.798096
 20
686.580933
 30
0.0
 11
466.101379
 21
686.580933
 31
0.0
210
0.0
220
0.0
230
1.0
  0
LINE
  5
2F4
100
AcDbEntity
  8
0
370
    35
390
0
 62
     7
 48
0.125
100
AcDbLine
 10
466.101379
 20
686.580933
 30
0.0
 11
466.101379
 21
691.580933
 31
0.0
210
0.0
220
0.0
230
1.0
  0
LINE
  5
2F5
100
AcDbEntity
  8
0
370
    35
390
0
 62
     7
100
AcDbLine
 10
466.101379
 20
691.580933
 30
0.0
 11
443.699768
 21
691.580933
 31
0.0
210
0.0
220
0.0
230
1.0
  0
LINE
  5
2F6
100
AcDbEntity
  8
0
370
    35
390
0
 62
     7
 48
0.125
100
AcDbLine
 10
443.699768
 20
691.580933
 30
0.0
 11
443.699768
 21
686.580933
 31
0.0
210
0.0
220
0.0
230
1.0
  0
LINE
  5
2F7
100
AcDbEntity
  8
0
370
    35
390
0
 62
     7
100
AcDbLine
 10
443.699768
 20
686.580933
 30
0.0
 11
422.758118
 21
686.580933
 31
0.0
210
0.0
220
0.0
230
1.0
  0
LINE
  5
2F8
100
AcDbEntity
  8
0
370
    35
390
0
 62
     7
 48
0.125
100
AcDbLine
 10
422.758118
 20
686.580933
 30
0.0
 11
422.758118
 21
691.580933
 31
0.0
210
0.0
220
0.0
230
1.0
  0
LINE
  5
2F9
100
AcDbEntity
  8
0
370
    35
390
0
 62
     7
100
AcDbLine
 10
422.758118
 20
691.580933
 30
0.0
 11
388.232666
 21
691.580933
 31
0.0
210
0.0
220
0.0
230
1.0
  0
LINE
  5
2FA
100
AcDbEntity
  8
0
370
    35
390
0
 62
     7
 48
0.125
100
AcDbLine
 10
388.232666
 20
691.580933
 30
0.0
 11
388.232666
 21
686.580933
 31
0.0
210
0.0
220
0.0
230
1.0
  0
LINE
  5
2FB
100
AcDbEntity
  8
0
370
    35
390
0
 62
     7
 48
0.229499
100
AcDbLine
 10
388.232666
 20
686.580933
 30
0.0
 11
379.052704
 21
686.580933
 31
0.0
210
0.0
220
0.0
230
1.0
  0
LINE
  5
2FC
100
AcDbEntity
  8
0
370
    35
390
0
 62
     7
100
AcDbLine
 10
379.052704
 20
686.580933
 30
0.0
 11
379.052704
 21
718.580933
 31
0.0
210
0.0
220
0.0
230
1.0
  0
LINE
  5
2FD
100
AcDbEntity
  8
0
370
    35
390
0
 62
     7
100
AcDbLine
 10
379.052704
 20
718.580933
 30
0.0
 11
523.682739
 21
718.580933
 31
0.0
210
0.0
220
0.0
230
1.0
  0
CIRCLE
  5
2FE
100
AcDbEntity
  8
0
370
    35
390
0
 62
     7
100
AcDbCircle
 10
523.682739
 20
702.580933
 30
0.0
 40
3.0
210
0.0
220
0.0
230
1.0
  0
LINE
  5
2FF
100
AcDbEntity
  8
0
370
    35
390
0
 62
     7
 48
0.417418
100
AcDbLine
 10
347.955658
 20
605.237
 30
0.0
 11
347.955658
 21
621.933716
 31
0.0
210
0.0
220
0.0
230
1.0
  0
LINE
  5
300
100
AcDbEntity
  8
0
370
    35
390
0
 62
     7
 48
0.125
100
AcDbLine
 10
347.955658
 20
605.237
 30
0.0
 11
352.955658
 21
605.237
 31
0.0
210
0.0
220
0.0
230
1.0
  0
LINE
  5
301
100
AcDbEntity
  8
0
370
    35
390
0
 62
     7
100
AcDbLine
 10
352.955658
 20
584.012329
 30
0.0
 11
352.955658
 21
605.237
 31
0.0
210
0.0
220
0.0
230
1.0
  0
LINE
  5
302
100
AcDbEntity
  8
0
370
    35
390
0
 62
     7
 48
0.125
100
AcDbLine
 10
347.955658
 20
584.012329
 30
0.0
 11
352.955658
 21
584.012329
 31
0.0
210
0.0
220
0.0
230
1.0
  0
LINE
  5
303
100
AcDbEntity
  8
0
370
    35
390
0
 62
     7
 48
0.491499
100
AcDbLine
 10
347.955658
 20
564.352356
 30
0.0
 11
347.955658
 21
584.012329
 31
0.0
210
0.0
220
0.0
230
1.0
  0
LINE
  5
304
100
AcDbEntity
  8
0
370
    35
390
0
 62
     7
 48
0.348924
100
AcDbLine
 10
347.955658
 20
564.352356
 30
0.0
 11
347.955658
 21
550.395386
 31
0.0
210
0.0
220
0.0
230
1.0
  0
LINE
  5
305
100
AcDbEntity
  8
0
370
    35
390
0
 62
     7
100
AcDbLine
 10
347.955658
 20
550.395386
 30
0.0
 11
302.955658
 21
550.395386
 31
0.0
210
0.0
220
0.0
230
1.0
  0
LINE
  5
306
100
AcDbEntity
  8
0
370
    35
390
0
 62
     7
 48
0.348924
100
AcDbLine
 10
302.955658
 20
550.395386
 30
0.0
 11
302.955658
 21
564.352356
 31
0.0
210
0.0
220
0.0
230
1.0
  0
LINE
  5
307
100
AcDbEntity
  8
0
370
    35
390
0
 62
     7
 48
0.491499
100
AcDbLine
 10
302.955658
 20
564.352356
 30
0.0
 11
302.955658
 21
584.012329
 31
0.0
210
0.0
220
0.0
230
1.0
  0
LINE
  5
308
100
AcDbEntity
  8
0
370
    35
390
0
 62
     7
 48
0.125
100
AcDbLine
 10
297.955658
 20
584.012329
 30
0.0
 11
302.955658
 21
584.012329
 31
0.0
210
0.0
220
0.0
230
1.0
  0
LINE
  5
309
100
AcDbEntity
  8
0
370
    35
390
0
 62
     7
100
AcDbLine
 10
297.955658
 20
584.012329
 30
0.0
 11
297.955658
 21
605.237
 31
0.0
210
0.0
220
0.0
230
1.0
  0
LINE
  5
30A
100
AcDbEntity
  8
0
370
    35
390
0
 62
     7
 48
0.125
100
AcDbLine
 10
297.955658
 20
605.237
 30
0.0
 11
302.955658
 21
605.237
 31
0.0
210
0.0
220
0.0
230
1.0
  0
LINE
  5
30B
100
AcDbEntity
  8
0
370
    35
390
0
 62
     7
 48
0.417418
100
AcDbLine
 10
302.955658
 20
605.237
 30
0.0
 11
302.955658
 21
621.933716
 31
0.0
210
0.0
220
0.0
230
1.0
  0
LINE
  5
30C
100
AcDbEntity
  8
0
370
    35
390
0
 62
     7
 48
0.125
100
AcDbLine
 10
297.955658
 20
621.933716
 30
0.0
 11
302.955658
 21
621.933716
 31
0.0
210
0.0
220
0.0
230
1.0
  0
LINE
  5
30D
100
AcDbEntity
  8
0
370
    35
390
0
 62
     7
100
AcDbLine
 10
297.955658
 20
644.335327
 30
0.0
 11
297.955658
 21
621.933716
 31
0.0
210
0.0
220
0.0
230
1.0
  0
LINE
  5
30E
100
AcDbEntity
  8
0
370
    35
390
0
 62
     7
 48
0.125
100
AcDbLine
 10
297.955658
 20
644.335327
 30
0.0
 11
302.955658
 21
644.335327
 31
0.0
210
0.0
220
0.0
230
1.0
  0
LINE
  5
30F
100
AcDbEntity
  8
0
370
    35
390
0
 62
     7
100
AcDbLine
 10
302.955658
 20
665.276978
 30
0.0
 11
302.955658
 21
644.335327
 31
0.0
210
0.0
220
0.0
230
1.0
  0
LINE
  5
310
100
AcDbEntity
  8
0
370
    35
390
0
 62
     7
 48
0.125
100
AcDbLine
 10
297.955658
 20
665.276978
 30
0.0
 11
302.955658
 21
665.276978
 31
0.0
210
0.0
220
0.0
230
1.0
  0
LINE
  5
311
100
AcDbEntity
  8
0
370
    35
390
0
 62
     7
100
AcDbLine
 10
297.955658
 20
699.802429
 30
0.0
 11
297.955658
 21
665.276978
 31
0.0
210
0.0
220
0.0
230
1.0
  0
LINE
  5
312
100
AcDbEntity
  8
0
370
    35
390
0
 62
     7
 48
0.125
100
AcDbLine
 10
297.955658
 20
699.802429
 30
0.0
 11
302.955658
 21
699.802429
 31
0.0
210
0.0
220
0.0
230
1.0
  0
LINE
  5
313
100
AcDbEntity
  8
0
370
    35
390
0
 62
     7
 48
0.034248
100
AcDbLine
 10
302.955658
 20
701.172363
 30
0.0
 11
302.955658
 21
699.802429
 31
0.0
210
0.0
220
0.0
230
1.0
  0
LINE
  5
314
100
AcDbEntity
  8
0
370
    35
390
0
 62
     7
 48
0.195251
100
AcDbLine
 10
302.955658
 20
701.172363
 30
0.0
 11
302.955658
 21
708.982422
 31
0.0
210
0.0
220
0.0
230
1.0
  0
LINE
  5
315
100
AcDbEntity
  8
0
370
    35
390
0
 62
     7
100
AcDbLine
 10
302.955658
 20
708.982422
 30
0.0
 11
330.899963
 21
708.982422
 31
0.0
210
0.0
220
0.0
230
1.0
  0
LINE
  5
316
100
AcDbEntity
  8
0
370
    35
390
0
 62
     7
100
AcDbLine
 10
330.899963
 20
708.982422
 30
0.0
 11
330.899963
 21
672.646973
 31
0.0
210
0.0
220
0.0
230
1.0
  0
LINE
  5
317
100
AcDbEntity
  8
0
370
    35
390
0
 62
     7
100
AcDbLine
 10
330.899963
 20
672.646973
 30
0.0
 11
352.955658
 21
672.646973
 31
0.0
210
0.0
220
0.0
230
1.0
  0
LINE
  5
318
100
AcDbEntity
  8
0
370
    35
390
0
 62
     7
 48
0.15
100
AcDbLine
 10
352.955658
 20
666.646973
 30
0.0
 11
352.955658
 21
672.646973
 31
0.0
210
0.0
220
0.0
230
1.0
  0
LINE
  5
319
100
AcDbEntity
  8
0
370
    35
390
0
 62
     7
 48
0.03425
100
AcDbLine
 10
352.955658
 20
665.276978
 30
0.0
 11
352.955658
 21
666.646973
 31
0.0
210
0.0
220
0.0
230
1.0
  0
LINE
  5
31A
100
AcDbEntity
  8
0
370
    35
390
0
 62
     7
 48
0.125
100
AcDbLine
 10
347.955658
 20
665.276978
 30
0.0
 11
352.955658
 21
665.276978
 31
0.0
210
0.0
220
0.0
230
1.0
  0
LINE
  5
31B
100
AcDbEntity
  8
0
370
    35
390
0
 62
     7
100
AcDbLine
 10
347.955658
 20
644.335327
 30
0.0
 11
347.955658
 21
665.276978
 31
0.0
210
0.0
220
0.0
230
1.0
  0
LINE
  5
31C
100
AcDbEntity
  8
0
370
    35
390
0
 62
     7
 48
0.125
100
AcDbLine
 10
347.955658
 20
644.335327
 30
0.0
 11
352.955658
 21
644.335327
 31
0.0
210
0.0
220
0.0
230
1.0
  0
LINE
  5
31D
100
AcDbEntity
  8
0
370
    35
390
0
 62
     7
100
AcDbLine
 10
352.955658
 20
621.933716
 30
0.0
 11
352.955658
 21
644.335327
 31
0.0
210
0.0
220
0.0
230
1.0
  0
LINE
  5
31E
100
AcDbEntity
  8
0
370
    35
390
0
 62
     7
 48
0.125
100
AcDbLine
 10
347.955658
 20
621.933716
 30
0.0
 11
352.955658
 21
621.933716
 31
0.0
210
0.0
220
0.0
230
1.0
  0
LINE
  5
31F
100
AcDbEntity
  8
0
370
    35
390
0
 62
     7
100
AcDbLine
 10
360.988434
 20
572.712769
 30
0.0
 11
406.988434
 21
572.712769
 31
0.0
210
0.0
220
0.0
230
1.0
  0
LINE
  5
320
100
AcDbEntity
  8
0
370
    35
390
0
 62
     7
 48
0.125
100
AcDbLine
 10
406.988434
 20
572.712769
 30
0.0
 11
406.988434
 21
577.712769
 31
0.0
210
0.0
220
0.0
230
1.0
  0
LINE
  5
321
100
AcDbEntity
  8
0
370
    35
390
0
 62
     7
 48
0.125
100
AcDbLine
 10
411.988434
 20
577.712769
 30
0.0
 11
406.988434
 21
577.712769
 31
0.0
210
0.0
220
0.0
230
1.0
  0
LINE
  5
322
100
AcDbEntity
  8
0
370
    35
390
0
 62
     7
 48
0.125
100
AcDbLine
 10
411.988434
 20
577.712769
 30
0.0
 11
411.988434
 21
582.712769
 31
0.0
210
0.0
220
0.0
230
1.0
  0
LINE
  5
323
100
AcDbEntity
  8
0
370
    35
390
0
 62
     7
 48
0.125
100
AcDbLine
 10
411.988434
 20
582.712769
 30
0.0
 11
406.988434
 21
582.712769
 31
0.0
210
0.0
220
0.0
230
1.0
  0
LINE
  5
324
100
AcDbEntity
  8
0
370
    35
390
0
 62
     7
 48
0.125
100
AcDbLine
 10
406.988434
 20
582.712769
 30
0.0
 11
406.988434
 21
587.712769
 31
0.0
210
0.0
220
0.0
230
1.0
  0
LINE
  5
325
100
AcDbEntity
  8
0
370
    35
390
0
 62
     7
 48
0.125
100
AcDbLine
 10
411.988434
 20
587.712769
 30
0.0
 11
406.988434
 21
587.712769
 31
0.0
210
0.0
220
0.0
230
1.0
  0
LINE
  5
326
100
AcDbEntity
  8
0
370
    35
390
0
 62
     7
 48
0.125
100
AcDbLine
 10
411.988434
 20
587.712769
 30
0.0
 11
411.988434
 21
592.712769
 31
0.0
210
0.0
220
0.0
230
1.0
  0
LINE
  5
327
100
AcDbEntity
  8
0
370
    35
390
0
 62
     7
 48
0.125
100
AcDbLine
 10
411.988434
 20
592.712769
 30
0.0
 11
406.988434
 21
592.712769
 31
0.0
210
0.0
220
0.0
230
1.0
  0
LINE
  5
328
100
AcDbEntity
  8
0
370
    35
390
0
 62
     7
 48
0.125
100
AcDbLine
 10
406.988434
 20
592.712769
 30
0.0
 11
406.988434
 21
597.712769
 31
0.0
210
0.0
220
0.0
230
1.0
  0
LINE
  5
329
100
AcDbEntity
  8
0
370
    35
390
0
 62
     7
 48
0.125
100
AcDbLine
 10
411.988434
 20
597.712769
 30
0.0
 11
406.988434
 21
597.712769
 31
0.0
210
0.0
220
0.0
230
1.0
  0
LINE
  5
32A
100
AcDbEntity
  8
0
370
    35
390
0
 62
     7
 48
0.125
100
AcDbLine
 10
411.988434
 20
597.712769
 30
0.0
 11
411.988434
 21
602.712769
 31
0.0
210
0.0
220
0.0
230
1.0
  0
LINE
  5
32B
100
AcDbEntity
  8
0
370
    35
390
0
 62
     7
 48
0.125
100
AcDbLine
 10
411.988434
 20
602.712769
 30
0.0
 11
406.988434
 21
602.712769
 31
0.0
210
0.0
220
0.0
230
1.0
  0
LINE
  5
32C
100
AcDbEntity
  8
0
370
    35
390
0
 62
     7
 48
0.125
100
AcDbLine
 10
406.988434
 20
602.712769
 30
0.0
 11
406.988434
 21
607.712769
 31
0.0
210
0.0
220
0.0
230
1.0
  0
LINE
  5
32D
100
AcDbEntity
  8
0
370
    35
390
0
 62
     7
 48
0.125
100
AcDbLine
 10
406.988434
 20
607.712769
 30
0.0
 11
411.988434
 21
607.712769
 31
0.0
210
0.0
220
0.0
230
1.0
  0
LINE
  5
32E
100
AcDbEntity
  8
0
370
    35
390
0
 62
     7
 48
0.125
100
AcDbLine
 10
411.988434
 20
607.712769
 30
0.0
 11
411.988434
 21
612.712769
 31
0.0
210
0.0
220
0.0
230
1.0
  0
LINE
  5
32F
100
AcDbEntity
  8
0
370
    35
390
0
 62
     7
 48
0.125
100
AcDbLine
 10
411.988434
 20
612.712769
 30
0.0
 11
406.988434
 21
612.712769
 31
0.0
210
0.0
220
0.0
230
1.0
  0
LINE
  5
330
100
AcDbEntity
  8
0
370
    35
390
0
 62
     7
 48
0.498755
100
AcDbLine
 10
406.988434
 20
612.712769
 30
0.0
 11
406.988434
 21
632.662964
 31
0.0
210
0.0
220
0.0
230
1.0
  0
LINE
  5
331
100
AcDbEntity
  8
0
370
    35
390
0
 62
     7
 48
0.471624
100
AcDbLine
 10
395.613434
 20
647.712769
 30
0.0
 11
406.988434
 21
632.662964
 31
0.0
210
0.0
220
0.0
230
1.0
  0
LINE
  5
332
100
AcDbEntity
  8
0
370
    35
390
0
 62
     7
 48
0.090625
100
AcDbLine
 10
395.613434
 20
647.712769
 30
0.0
 11
391.988434
 21
647.712769
 31
0.0
210
0.0
220
0.0
230
1.0
  0
LINE
  5
333
100
AcDbEntity
  8
0
370
    35
390
0
 62
     7
100
AcDbLine
 10
391.988434
 20
647.712769
 30
0.0
 11
391.988434
 21
682.712769
 31
0.0
210
0.0
220
0.0
230
1.0
  0
LINE
  5
334
100
AcDbEntity
  8
0
370
    35
390
0
 62
     7
 48
0.4
100
AcDbLine
 10
375.988434
 20
682.712769
 30
0.0
 11
391.988434
 21
682.712769
 31
0.0
210
0.0
220
0.0
230
1.0
  0
LINE
  5
335
100
AcDbEntity
  8
0
370
    35
390
0
 62
     7
100
AcDbLine
 10
375.988434
 20
647.712769
 30
0.0
 11
375.988434
 21
682.712769
 31
0.0
210
0.0
220
0.0
230
1.0
  0
LINE
  5
336
100
AcDbEntity
  8
0
370
    35
390
0
 62
     7
 48
0.090625
100
AcDbLine
 10
372.363434
 20
647.712769
 30
0.0
 11
375.988434
 21
647.712769
 31
0.0
210
0.0
220
0.0
230
1.0
  0
LINE
  5
337
100
AcDbEntity
  8
0
370
    35
390
0
 62
     7
 48
0.471624
100
AcDbLine
 10
372.363434
 20
647.712769
 30
0.0
 11
360.988434
 21
632.662964
 31
0.0
210
0.0
220
0.0
230
1.0
  0
LINE
  5
338
100
AcDbEntity
  8
0
370
    35
390
0
 62
     7
 48
0.498755
100
AcDbLine
 10
360.988434
 20
612.712769
 30
0.0
 11
360.988434
 21
632.662964
 31
0.0
210
0.0
220
0.0
230
1.0
  0
LINE
  5
339
100
AcDbEntity
  8
0
370
    35
390
0
 62
     7
 48
0.125
100
AcDbLine
 10
355.988434
 20
612.712769
 30
0.0
 11
360.988434
 21
612.712769
 31
0.0
210
0.0
220
0.0
230
1.0
  0
LINE
  5
33A
100
AcDbEntity
  8
0
370
    35
390
0
 62
     7
 48
0.125
100
AcDbLine
 10
355.988434
 20
607.712769
 30
0.0
 11
355.988434
 21
612.712769
 31
0.0
210
0.0
220
0.0
230
1.0
  0
LINE
  5
33B
100
AcDbEntity
  8
0
370
    35
390
0
 62
     7
 48
0.125
100
AcDbLine
 10
360.988434
 20
607.712769
 30
0.0
 11
355.988434
 21
607.712769
 31
0.0
210
0.0
220
0.0
230
1.0
  0
LINE
  5
33C
100
AcDbEntity
  8
0
370
    35
390
0
 62
     7
 48
0.125
100
AcDbLine
 10
360.988434
 20
602.712769
 30
0.0
 11
360.988434
 21
607.712769
 31
0.0
210
0.0
220
0.0
230
1.0
  0
LINE
  5
33D
100
AcDbEntity
  8
0
370
    35
390
0
 62
     7
 48
0.125
100
AcDbLine
 10
355.988434
 20
602.712769
 30
0.0
 11
360.988434
 21
602.712769
 31
0.0
210
0.0
220
0.0
230
1.0
  0
LINE
  5
33E
100
AcDbEntity
  8
0
370
    35
390
0
 62
     7
 48
0.125
100
AcDbLine
 10
355.988434
 20
597.712769
 30
0.0
 11
355.988434
 21
602.712769
 31
0.0
210
0.0
220
0.0
230
1.0
  0
LINE
  5
33F
100
AcDbEntity
  8
0
370
    35
390
0
 62
     7
 48
0.125
100
AcDbLine
 10
355.988434
 20
597.712769
 30
0.0
 11
360.988434
 21
597.712769
 31
0.0
210
0.0
220
0.0
230
1.0
  0
LINE
  5
340
100
AcDbEntity
  8
0
370
    35
390
0
 62
     7
 48
0.125
100
AcDbLine
 10
360.988434
 20
592.712769
 30
0.0
 11
360.988434
 21
597.712769
 31
0.0
210
0.0
220
0.0
230
1.0
  0
LINE
  5
341
100
AcDbEntity
  8
0
370
    35
390
0
 62
     7
 48
0.125
100
AcDbLine
 10
355.988434
 20
592.712769
 30
0.0
 11
360.988434
 21
592.712769
 31
0.0
210
0.0
220
0.0
230
1.0
  0
LINE
  5
342
100
AcDbEntity
  8
0
370
    35
390
0
 62
     7
 48
0.125
100
AcDbLine
 10
355.988434
 20
587.712769
 30
0.0
 11
355.988434
 21
592.712769
 31
0.0
210
0.0
220
0.0
230
1.0
  0
LINE
  5
343
100
AcDbEntity
  8
0
370
    35
390
0
 62
     7
 48
0.125
100
AcDbLine
 10
355.988434
 20
587.712769
 30
0.0
 11
360.988434
 21
587.712769
 31
0.0
210
0.0
220
0.0
230
1.0
  0
LINE
  5
344
100
AcDbEntity
  8
0
370
    35
390
0
 62
     7
 48
0.125
100
AcDbLine
 10
360.988434
 20
582.712769
 30
0.0
 11
360.988434
 21
587.712769
 31
0.0
210
0.0
220
0.0
230
1.0
  0
LINE
  5
345
100
AcDbEntity
  8
0
370
    35
390
0
 62
     7
 48
0.125
100
AcDbLine
 10
355.988434
 20
582.712769
 30
0.0
 11
360.988434
 21
582.712769
 31
0.0
210
0.0
220
0.0
230
1.0
  0
LINE
  5
346
100
AcDbEntity
  8
0
370
    35
390
0
 62
     7
 48
0.125
100
AcDbLine
 10
355.988434
 20
577.712769
 30
0.0
 11
355.988434
 21
582.712769
 31
0.0
210
0.0
220
0.0
230
1.0
  0
LINE
  5
347
100
AcDbEntity
  8
0
370
    35
390
0
 62
     7
 48
0.125
100
AcDbLine
 10
355.988434
 20
577.712769
 30
0.0
 11
360.988434
 21
577.712769
 31
0.0
210
0.0
220
0.0
230
1.0
  0
LINE
  5
348
100
AcDbEntity
  8
0
370
    35
390
0
 62
     7
 48
0.125
100
AcDbLine
 10
360.988434
 20
572.712769
 30
0.0
 11
360.988434
 21
577.712769
 31
0.0
210
0.0
220
0.0
230
1.0
  0
CIRCLE
  5
349
100
AcDbEntity
  8
0
370
    35
390
0
 62
     7
100
AcDbCircle
 10
415.11203
 20
674.347107
 30
0.0
 40
2.1
210
0.0
220
0.0
230
1.0
  0
ARC
  5
34A
100
AcDbEntity
  8
0
370
    35
390
0
 62
     7
100
AcDbCircle
 10
415.11203
 20
674.347107
 30
0.0
 40
6.0
210
0.0
220
0.0
230
1.0
100
AcDbArc
 50
0.0
 51
225.572998
  0
LINE
  5
34B
100
AcDbEntity
  8
0
370
    35
390
0
 62
     7
 48
0.125024
100
AcDbLine
 10
410.912018
 20
670.062256
 30
0.0
 11
410.912018
 21
665.061279
 31
0.0
210
0.0
220
0.0
230
1.0
  0
LINE
  5
34C
100
AcDbEntity
  8
0
370
    35
390
0
 62
     7
 48
0.125
100
AcDbLine
 10
410.912018
 20
665.061279
 30
0.0
 11
415.912018
 21
665.061279
 31
0.0
210
0.0
220
0.0
230
1.0
  0
LINE
  5
34D
100
AcDbEntity
  8
0
370
    35
390
0
 62
     7
 48
0.125002
100
AcDbLine
 10
415.912018
 20
665.061279
 30
0.0
 11
415.912018
 21
660.061218
 31
0.0
210
0.0
220
0.0
230
1.0
  0
LINE
  5
34E
100
AcDbEntity
  8
0
370
    35
390
0
 62
     7
 48
0.125
100
AcDbLine
 10
415.912018
 20
660.061218
 30
0.0
 11
410.912018
 21
660.061218
 31
0.0
210
0.0
220
0.0
230
1.0
  0
LINE
  5
34F
100
AcDbEntity
  8
0
370
    35
390
0
 62
     7
 48
0.125
100
AcDbLine
 10
410.912018
 20
660.061218
 30
0.0
 11
410.912018
 21
655.061218
 31
0.0
210
0.0
220
0.0
230
1.0
  0
LINE
  5
350
100
AcDbEntity
  8
0
370
    35
390
0
 62
     7
 48
0.125
100
AcDbLine
 10
410.912018
 20
655.061218
 30
0.0
 11
415.912018
 21
655.061218
 31
0.0
210
0.0
220
0.0
230
1.0
  0
LINE
  5
351
100
AcDbEntity
  8
0
370
    35
390
0
 62
     7
 48
0.125
100
AcDbLine
 10
415.912018
 20
655.061218
 30
0.0
 11
415.912018
 21
650.061218
 31
0.0
210
0.0
220
0.0
230
1.0
  0
LINE
  5
352
100
AcDbEntity
  8
0
370
    35
390
0
 62
     7
 48
0.125
100
AcDbLine
 10
415.912018
 20
650.061218
 30
0.0
 11
410.912018
 21
650.061218
 31
0.0
210
0.0
220
0.0
230
1.0
  0
LINE
  5
353
100
AcDbEntity
  8
0
370
    35
390
0
 62
     7
 48
0.125
100
AcDbLine
 10
410.912018
 20
650.061218
 30
0.0
 11
410.912018
 21
645.061218
 31
0.0
210
0.0
220
0.0
230
1.0
  0
LINE
  5
354
100
AcDbEntity
  8
0
370
    35
390
0
 62
     7
 48
0.125
100
AcDbLine
 10
410.912018
 20
645.061218
 30
0.0
 11
415.912018
 21
645.061218
 31
0.0
210
0.0
220
0.0
230
1.0
  0
LINE
  5
355
100
AcDbEntity
  8
0
370
    35
390
0
 62
     7
 48
0.125
100
AcDbLine
 10
415.912018
 20
645.061218
 30
0.0
 11
415.912018
 21
640.061218
 31
0.0
210
0.0
220
0.0
230
1.0
  0
LINE
  5
356
100
AcDbEntity
  8
0
370
    35
390
0
 62
     7
 48
0.125
100
AcDbLine
 10
415.912018
 20
640.061218
 30
0.0
 11
410.912018
 21
640.061218
 31
0.0
210
0.0
220
0.0
230
1.0
  0
LINE
  5
357
100
AcDbEntity
  8
0
370
    35
390
0
 62
     7
 48
0.125
100
AcDbLine
 10
410.912018
 20
640.061218
 30
0.0
 11
410.912018
 21
635.061218
 31
0.0
210
0.0
220
0.0
230
1.0
  0
LINE
  5
358
100
AcDbEntity
  8
0
370
    35
390
0
 62
     7
 48
0.125
100
AcDbLine
 10
410.912018
 20
635.061218
 30
0.0
 11
415.912018
 21
635.061218
 31
0.0
210
0.0
220
0.0
230
1.0
  0
LINE
  5
359
100
AcDbEntity
  8
0
370
    35
390
0
 62
     7
 48
0.124998
100
AcDbLine
 10
415.912018
 20
635.061218
 30
0.0
 11
415.912018
 21
630.061279
 31
0.0
210
0.0
220
0.0
230
1.0
  0
LINE
  5
35A
100
AcDbEntity
  8
0
370
    35
390
0
 62
     7
 48
0.125
100
AcDbLine
 10
415.912018
 20
630.061279
 30
0.0
 11
410.912018
 21
630.061279
 31
0.0
210
0.0
220
0.0
230
1.0
  0
LINE
  5
35B
100
AcDbEntity
  8
0
370
    35
390
0
 62
     7
 48
0.25
100
AcDbLine
 10
410.912018
 20
630.061279
 30
0.0
 11
410.912018
 21
620.061279
 31
0.0
210
0.0
220
0.0
230
1.0
  0
LINE
  5
35C
100
AcDbEntity
  8
0
370
    35
390
0
 62
     7
 48
0.150768
100
AcDbLine
 10
410.912018
 20
620.061279
 30
0.0
 11
416.942749
 21
620.061279
 31
0.0
210
0.0
220
0.0
230
1.0
  0
ARC
  5
35D
100
AcDbEntity
  8
0
370
    35
390
0
 62
     7
100
AcDbCircle
 10
440.22998
 20
615.061279
 30
0.0
 40
23.817942
210
0.0
220
0.0
230
1.0
100
AcDbArc
 50
0.0
 51
167.881993
  0
LINE
  5
35E
100
AcDbEntity
  8
0
370
    35
390
0
 62
     7
100
AcDbLine
 10
464.047913
 20
615.061279
 30
0.0
 11
494.047913
 21
615.061279
 31
0.0
210
0.0
220
0.0
230
1.0
  0
LINE
  5
35F
100
AcDbEntity
  8
0
370
    35
390
0
 62
     7
100
AcDbLine
 10
494.047913
 20
615.061279
 30
0.0
 11
494.047913
 21
674.347107
 31
0.0
210
0.0
220
0.0
230
1.0
  0
LINE
  5
360
100
AcDbEntity
  8
0
370
    35
390
0
 62
     7
100
AcDbLine
 10
494.047913
 20
674.347107
 30
0.0
 11
421.11203
 21
674.347107
 31
0.0
210
0.0
220
0.0
230
1.0
  0
CIRCLE
  5
361
100
AcDbEntity
  8
0
370
    35
390
0
 62
     7
100
AcDbCircle
 10
505.071136
 20
670.790405
 30
0.0
 40
2.1
210
0.0
220
0.0
230
1.0
  0
ARC
  5
362
100
AcDbEntity
  8
0
370
    35
390
0
 62
     7
100
AcDbCircle
 10
505.071136
 20
670.790405
 30
0.0
 40
6.0
210
0.0
220
0.0
230
1.0
100
AcDbArc
 50
0.0
 51
225.572998
  0
LINE
  5
363
100
AcDbEntity
  8
0
370
    35
390
0
 62
     7
 48
0.125026
100
AcDbLine
 10
500.871124
 20
666.505554
 30
0.0
 11
500.871124
 21
661.504517
 31
0.0
210
0.0
220
0.0
230
1.0
  0
LINE
  5
364
100
AcDbEntity
  8
0
370
    35
390
0
 62
     7
 48
0.125
100
AcDbLine
 10
500.871124
 20
661.504517
 30
0.0
 11
505.871124
 21
661.504517
 31
0.0
210
0.0
220
0.0
230
1.0
  0
LINE
  5
365
100
AcDbEntity
  8
0
370
    35
390
0
 62
     7
 48
0.125
100
AcDbLine
 10
505.871124
 20
661.504517
 30
0.0
 11
505.871124
 21
656.504517
 31
0.0
210
0.0
220
0.0
230
1.0
  0
LINE
  5
366
100
AcDbEntity
  8
0
370
    35
390
0
 62
     7
 48
0.125
100
AcDbLine
 10
505.871124
 20
656.504517
 30
0.0
 11
500.871124
 21
656.504517
 31
0.0
210
0.0
220
0.0
230
1.0
  0
LINE
  5
367
100
AcDbEntity
  8
0
370
    35
390
0
 62
     7
 48
0.125
100
AcDbLine
 10
500.871124
 20
656.504517
 30
0.0
 11
500.871124
 21
651.504517
 31
0.0
210
0.0
220
0.0
230
1.0
  0
LINE
  5
368
100
AcDbEntity
  8
0
370
    35
390
0
 62
     7
 48
0.125
100
AcDbLine
 10
500.871124
 20
651.504517
 30
0.0
 11
505.871124
 21
651.504517
 31
0.0
210
0.0
220
0.0
230
1.0
  0
LINE
  5
369
100
AcDbEntity
  8
0
370
    35
390
0
 62
     7
 48
0.125
100
AcDbLine
 10
505.871124
 20
651.504517
 30
0.0
 11
505.871124
 21
646.504517
 31
0.0
210
0.0
220
0.0
230
1.0
  0
LINE
  5
36A
100
AcDbEntity
  8
0
370
    35
390
0
 62
     7
 48
0.125
100
AcDbLine
 10
505.871124
 20
646.504517
 30
0.0
 11
500.871124
 21
646.504517
 31
0.0
210
0.0
220
0.0
230
1.0
  0
LINE
  5
36B
100
AcDbEntity
  8
0
370
    35
390
0
 62
     7
 48
0.125
100
AcDbLine
 10
500.871124
 20
646.504517
 30
0.0
 11
500.871124
 21
641.504517
 31
0.0
210
0.0
220
0.0
230
1.0
  0
LINE
  5
36C
100
AcDbEntity
  8
0
370
    35
390
0
 62
     7
 48
0.125
100
AcDbLine
 10
500.871124
 20
641.504517
 30
0.0
 11
505.871124
 21
641.504517
 31
0.0
210
0.0
220
0.0
230
1.0
  0
LINE
  5
36D
100
AcDbEntity
  8
0
370
    35
390
0
 62
     7
 48
0.125
100
AcDbLine
 10
505.871124
 20
641.504517
 30
0.0
 11
505.871124
 21
636.504517
 31
0.0
210
0.0
220
0.0
230
1.0
  0
LINE
  5
36E
100
AcDbEntity
  8
0
370
    35
390
0
 62
     7
 48
0.125
100
AcDbLine
 10
505.871124
 20
636.504517
 30
0.0
 11
500.871124
 21
636.504517
 31
0.0
210
0.0
220
0.0
230
1.0
  0
LINE
  5
36F
100
AcDbEntity
  8
0
370
    35
390
0
 62
     7
 48
0.125
100
AcDbLine
 10
500.871124
 20
636.504517
 30
0.0
 11
500.871124
 21
631.504517
 31
0.0
210
0.0
220
0.0
230
1.0
  0
LINE
  5
370
100
AcDbEntity
  8
0
370
    35
390
0
 62
     7
 48
0.125
100
AcDbLine
 10
500.871124
 20
631.504517
 30
0.0
 11
505.871124
 21
631.504517
 31
0.0
210
0.0
220
0.0
230
1.0
  0
LINE
  5
371
100
AcDbEntity
  8
0
370
    35
390
0
 62
     7
 48
0.125
100
AcDbLine
 10
505.871124
 20
631.504517
 30
0.0
 11
505.871124
 21
626.504517
 31
0.0
210
0.0
220
0.0
230
1.0
  0
LINE
  5
372
100
AcDbEntity
  8
0
370
    35
390
0
 62
     7
 48
0.125
100
AcDbLine
 10
505.871124
 20
626.504517
 30
0.0
 11
500.871124
 21
626.504517
 31
0.0
210
0.0
220
0.0
230
1.0
  0
LINE
  5
373
100
AcDbEntity
  8
0
370
    35
390
0
 62
     7
 48
0.25
100
AcDbLine
 10
500.871124
 20
626.504517
 30
0.0
 11
500.871124
 21
616.504517
 31
0.0
210
0.0
220
0.0
230
1.0
  0
LINE
  5
374
100
AcDbEntity
  8
0
370
    35
390
0
 62
     7
 48
0.150768
100
AcDbLine
 10
500.871124
 20
616.504517
 30
0.0
 11
506.901855
 21
616.504517
 31
0.0
210
0.0
220
0.0
230
1.0
  0
ARC
  5
375
100
AcDbEntity
  8
0
370
    35
390
0
 62
     7
100
AcDbCircle
 10
530.189087
 20
611.504517
 30
0.0
 40
23.817942
210
0.0
220
0.0
230
1.0
100
AcDbArc
 50
0.0
 51
167.881993
  0
LINE
  5
376
100
AcDbEntity
  8
0
370
    35
390
0
 62
     7
100
AcDbLine
 10
554.007019
 20
611.504517
 30
0.0
 11
584.007019
 21
611.504517
 31
0.0
210
0.0
220
0.0
230
1.0
  0
LINE
  5
377
100
AcDbEntity
  8
0
370
    35
390
0
 62
     7
100
AcDbLine
 10
584.007019
 20
611.504517
 30
0.0
 11
584.007019
 21
670.790405
 31
0.0
210
0.0
220
0.0
230
1.0
  0
LINE
  5
378
100
AcDbEntity
  8
0
370
    35
390
0
 62
     7
100
AcDbLine
 10
584.007019
 20
670.790405
 30
0.0
 11
511.071136
 21
670.790405
 31
0.0
210
0.0
220
0.0
230
1.0
  0
LINE
  5
379
100
AcDbEntity
  8
0
370
    35
390
0
 62
     7
 48
0.125
100
AcDbLine
 10
23.284639
 20
493.539368
 30
0.0
 11
28.284639
 21
493.539368
 31
0.0
210
0.0
220
0.0
230
1.0
  0
LINE
  5
37A
100
AcDbEntity
  8
0
370
    35
390
0
 62
     7
 48
0.125
100
AcDbLine
 10
28.284639
 20
493.539368
 30
0.0
 11
28.284639
 21
488.539368
 31
0.0
210
0.0
220
0.0
230
1.0
  0
LINE
  5
37B
100
AcDbEntity
  8
0
370
    35
390
0
 62
     7
100
AcDbLine
 10
8.284641
 20
473.539368
 30
0.0
 11
76.284645
 21
473.539368
 31
0.0
210
0.0
220
0.0
230
1.0
  0
LINE
  5
37C
100
AcDbEntity
  8
0
370
    35
390
0
 62
     7
100
AcDbLine
 10
76.284645
 20
521.22937
 30
0.0
 11
76.284645
 21
473.539368
 31
0.0
210
0.0
220
0.0
230
1.0
  0
LINE
  5
37D
100
AcDbEntity
  8
0
370
    35
390
0
 62
     7
 48
0.125
100
AcDbLine
 10
71.284645
 20
521.22937
 30
0.0
 11
76.284645
 21
521.22937
 31
0.0
210
0.0
220
0.0
230
1.0
  0
LINE
  5
37E
100
AcDbEntity
  8
0
370
    35
390
0
 62
     7
 48
0.125
100
AcDbLine
 10
71.284645
 20
526.22937
 30
0.0
 11
71.284645
 21
521.22937
 31
0.0
210
0.0
220
0.0
230
1.0
  0
LINE
  5
37F
100
AcDbEntity
  8
0
370
    35
390
0
 62
     7
 48
0.125
100
AcDbLine
 10
76.284645
 20
526.22937
 30
0.0
 11
71.284645
 21
526.22937
 31
0.0
210
0.0
220
0.0
230
1.0
  0
LINE
  5
380
100
AcDbEntity
  8
0
370
    35
390
0
 62
     7
 48
0.125
100
AcDbLine
 10
76.284645
 20
531.22937
 30
0.0
 11
76.284645
 21
526.22937
 31
0.0
210
0.0
220
0.0
230
1.0
  0
LINE
  5
381
100
AcDbEntity
  8
0
370
    35
390
0
 62
     7
 48
0.125
100
AcDbLine
 10
71.284645
 20
531.22937
 30
0.0
 11
76.284645
 21
531.22937
 31
0.0
210
0.0
220
0.0
230
1.0
  0
LINE
  5
382
100
AcDbEntity
  8
0
370
    35
390
0
 62
     7
 48
0.125
100
AcDbLine
 10
71.284645
 20
536.22937
 30
0.0
 11
71.284645
 21
531.22937
 31
0.0
210
0.0
220
0.0
230
1.0
  0
LINE
  5
383
100
AcDbEntity
  8
0
370
    35
390
0
 62
     7
 48
0.125
100
AcDbLine
 10
76.284645
 20
536.22937
 30
0.0
 11
71.284645
 21
536.22937
 31
0.0
210
0.0
220
0.0
230
1.0
  0
LINE
  5
384
100
AcDbEntity
  8
0
370
    35
390
0
 62
     7
 48
0.125
100
AcDbLine
 10
76.284645
 20
541.22937
 30
0.0
 11
76.284645
 21
536.22937
 31
0.0
210
0.0
220
0.0
230
1.0
  0
LINE
  5
385
100
AcDbEntity
  8
0
370
    35
390
0
 62
     7
 48
0.125
100
AcDbLine
 10
71.284645
 20
541.22937
 30
0.0
 11
76.284645
 21
541.22937
 31
0.0
210
0.0
220
0.0
230
1.0
  0
LINE
  5
386
100
AcDbEntity
  8
0
370
    35
390
0
 62
     7
 48
0.125
100
AcDbLine
 10
71.284645
 20
546.22937
 30
0.0
 11
71.284645
 21
541.22937
 31
0.0
210
0.0
220
0.0
230
1.0
  0
LINE
  5
387
100
AcDbEntity
  8
0
370
    35
390
0
 62
     7
 48
0.125
100
AcDbLine
 10
76.284645
 20
546.22937
 30
0.0
 11
71.284645
 21
546.22937
 31
0.0
210
0.0
220
0.0
230
1.0
  0
LINE
  5
388
100
AcDbEntity
  8
0
370
    35
390
0
 62
     7
 48
0.43275
100
AcDbLine
 10
76.284645
 20
563.539368
 30
0.0
 11
76.284645
 21
546.22937
 31
0.0
210
0.0
220
0.0
230
1.0
  0
LINE
  5
389
100
AcDbEntity
  8
0
370
    35
390
0
 62
     7
100
AcDbLine
 10
52.284645
 20
563.539368
 30
0.0
 11
76.284645
 21
563.539368
 31
0.0
210
0.0
220
0.0
230
1.0
  0
LINE
  5
38A
100
AcDbEntity
  8
0
370
    35
390
0
 62
     7
 48
0.143639
100
AcDbLine
 10
52.284645
 20
557.793823
 30
0.0
 11
52.284645
 21
563.539368
 31
0.0
210
0.0
220
0.0
230
1.0
  0
LINE
  5
38B
100
AcDbEntity
  8
0
370
    35
390
0
 62
     7
100
AcDbLine
 10
52.284645
 20
557.793823
 30
0.0
 11
32.284637
 21
557.793823
 31
0.0
210
0.0
220
0.0
230
1.0
  0
LINE
  5
38C
100
AcDbEntity
  8
0
370
    35
390
0
 62
     7
 48
0.143639
100
AcDbLine
 10
32.284637
 20
557.793823
 30
0.0
 11
32.284637
 21
563.539368
 31
0.0
210
0.0
220
0.0
230
1.0
  0
LINE
  5
38D
100
AcDbEntity
  8
0
370
    35
390
0
 62
     7
100
AcDbLine
 10
32.284637
 20
563.539368
 30
0.0
 11
8.284641
 21
563.539368
 31
0.0
210
0.0
220
0.0
230
1.0
  0
LINE
  5
38E
100
AcDbEntity
  8
0
370
    35
390
0
 62
     7
 48
0.43275
100
AcDbLine
 10
8.284641
 20
563.539368
 30
0.0
 11
8.284641
 21
546.22937
 31
0.0
210
0.0
220
0.0
230
1.0
  0
LINE
  5
38F
100
AcDbEntity
  8
0
370
    35
390
0
 62
     7
 48
0.125
100
AcDbLine
 10
8.284641
 20
546.22937
 30
0.0
 11
13.284639
 21
546.22937
 31
0.0
210
0.0
220
0.0
230
1.0
  0
LINE
  5
390
100
AcDbEntity
  8
0
370
    35
390
0
 62
     7
 48
0.125
100
AcDbLine
 10
13.284639
 20
546.22937
 30
0.0
 11
13.284639
 21
541.22937
 31
0.0
210
0.0
220
0.0
230
1.0
  0
LINE
  5
391
100
AcDbEntity
  8
0
370
    35
390
0
 62
     7
 48
0.125
100
AcDbLine
 10
13.284639
 20
541.22937
 30
0.0
 11
8.284641
 21
541.22937
 31
0.0
210
0.0
220
0.0
230
1.0
  0
LINE
  5
392
100
AcDbEntity
  8
0
370
    35
390
0
 62
     7
 48
0.125
100
AcDbLine
 10
8.284641
 20
541.22937
 30
0.0
 11
8.284641
 21
536.22937
 31
0.0
210
0.0
220
0.0
230
1.0
  0
LINE
  5
393
100
AcDbEntity
  8
0
370
    35
390
0
 62
     7
 48
0.125
100
AcDbLine
 10
8.284641
 20
536.22937
 30
0.0
 11
13.284639
 21
536.22937
 31
0.0
210
0.0
220
0.0
230
1.0
  0
LINE
  5
394
100
AcDbEntity
  8
0
370
    35
390
0
 62
     7
 48
0.125
100
AcDbLine
 10
13.284639
 20
536.22937
 30
0.0
 11
13.284639
 21
531.22937
 31
0.0
210
0.0
220
0.0
230
1.0
  0
LINE
  5
395
100
AcDbEntity
  8
0
370
    35
390
0
 62
     7
 48
0.125
100
AcDbLine
 10
13.284639
 20
531.22937
 30
0.0
 11
8.284641
 21
531.22937
 31
0.0
210
0.0
220
0.0
230
1.0
  0
LINE
  5
396
100
AcDbEntity
  8
0
370
    35
390
0
 62
     7
 48
0.125
100
AcDbLine
 10
8.284641
 20
531.22937
 30
0.0
 11
8.284641
 21
526.22937
 31
0.0
210
0.0
220
0.0
230
1.0
  0
LINE
  5
397
100
AcDbEntity
  8
0
370
    35
390
0
 62
     7
 48
0.125
100
AcDbLine
 10
8.284641
 20
526.22937
 30
0.0
 11
13.284639
 21
526.22937
 31
0.0
210
0.0
220
0.0
230
1.0
  0
LINE
  5
398
100
AcDbEntity
  8
0
370
    35
390
0
 62
     7
 48
0.125
100
AcDbLine
 10
13.284639
 20
526.22937
 30
0.0
 11
13.284639
 21
521.22937
 31
0.0
210
0.0
220
0.0
230
1.0
  0
LINE
  5
399
100
AcDbEntity
  8
0
370
    35
390
0
 62
     7
 48
0.125
100
AcDbLine
 10
13.284639
 20
521.22937
 30
0.0
 11
8.284641
 21
521.22937
 31
0.0
210
0.0
220
0.0
230
1.0
  0
LINE
  5
39A
100
AcDbEntity
  8
0
370
    35
390
0
 62
     7
100
AcDbLine
 10
8.284641
 20
521.22937
 30
0.0
 11
8.284641
 21
473.539368
 31
0.0
210
0.0
220
0.0
230
1.0
  0
LINE
  5
39B
100
AcDbEntity
  8
0
370
    35
390
0
 62
     7
 48
0.125
100
AcDbLine
 10
61.284645
 20
513.539368
 30
0.0
 11
56.284645
 21
513.539368
 31
0.0
210
0.0
220
0.0
230
1.0
  0
LINE
  5
39C
100
AcDbEntity
  8
0
370
    35
390
0
 62
     7
 48
0.125
100
AcDbLine
 10
61.284645
 20
513.539368
 30
0.0
 11
61.284645
 21
508.539368
 31
0.0
210
0.0
220
0.0
230
1.0
  0
LINE
  5
39D
100
AcDbEntity
  8
0
370
    35
390
0
 62
     7
 48
0.125
100
AcDbLine
 10
61.284645
 20
508.539368
 30
0.0
 11
56.284645
 21
508.539368
 31
0.0
210
0.0
220
0.0
230
1.0
  0
LINE
  5
39E
100
AcDbEntity
  8
0
370
    35
390
0
 62
     7
 48
0.125
100
AcDbLine
 10
56.284645
 20
513.539368
 30
0.0
 11
56.284645
 21
508.539368
 31
0.0
210
0.0
220
0.0
230
1.0
  0
LINE
  5
39F
100
AcDbEntity
  8
0
370
    35
390
0
 62
     7
 48
0.125
100
AcDbLine
 10
61.284645
 20
493.539368
 30
0.0
 11
56.284645
 21
493.539368
 31
0.0
210
0.0
220
0.0
230
1.0
  0
LINE
  5
3A0
100
AcDbEntity
  8
0
370
    35
390
0
 62
     7
 48
0.125
100
AcDbLine
 10
61.284645
 20
493.539368
 30
0.0
 11
61.284645
 21
488.539368
 31
0.0
210
0.0
220
0.0
230
1.0
  0
LINE
  5
3A1
100
AcDbEntity
  8
0
370
    35
390
0
 62
     7
 48
0.125
100
AcDbLine
 10
61.284645
 20
488.539368
 30
0.0
 11
56.284645
 21
488.539368
 31
0.0
210
0.0
220
0.0
230
1.0
  0
LINE
  5
3A2
100
AcDbEntity
  8
0
370
    35
390
0
 62
     7
 48
0.125
100
AcDbLine
 10
56.284645
 20
493.539368
 30
0.0
 11
56.284645
 21
488.539368
 31
0.0
210
0.0
220
0.0
230
1.0
  0
LINE
  5
3A3
100
AcDbEntity
  8
0
370
    35
390
0
 62
     7
 48
0.125
100
AcDbLine
 10
23.284639
 20
513.539368
 30
0.0
 11
28.284639
 21
513.539368
 31
0.0
210
0.0
220
0.0
230
1.0
  0
LINE
  5
3A4
100
AcDbEntity
  8
0
370
    35
390
0
 62
     7
 48
0.125
100
AcDbLine
 10
28.284639
 20
513.539368
 30
0.0
 11
28.284639
 21
508.539368
 31
0.0
210
0.0
220
0.0
230
1.0
  0
LINE
  5
3A5
100
AcDbEntity
  8
0
370
    35
390
0
 62
     7
 48
0.125
100
AcDbLine
 10
23.284639
 20
508.539368
 30
0.0
 11
28.284639
 21
508.539368
 31
0.0
210
0.0
220
0.0
230
1.0
  0
LINE
  5
3A6
100
AcDbEntity
  8
0
370
    35
390
0
 62
     7
 48
0.125
100
AcDbLine
 10
23.284639
 20
513.539368
 30
0.0
 11
23.284639
 21
508.539368
 31
0.0
210
0.0
220
0.0
230
1.0
  0
LINE
  5
3A7
100
AcDbEntity
  8
0
370
    35
390
0
 62
     7
 48
0.125
100
AcDbLine
 10
23.284639
 20
488.539368
 30
0.0
 11
28.284639
 21
488.539368
 31
0.0
210
0.0
220
0.0
230
1.0
  0
LINE
  5
3A8
100
AcDbEntity
  8
0
370
    35
390
0
 62
     7
 48
0.125
100
AcDbLine
 10
23.284639
 20
493.539368
 30
0.0
 11
23.284639
 21
488.539368
 31
0.0
210
0.0
220
0.0
230
1.0
  0
LINE
  5
3A9
100
AcDbEntity
  8
0
370
    35
390
0
 62
     7
100
AcDbLine
 10
590.540588
 20
768.032532
 30
0.0
 11
545.540588
 21
768.032532
 31
0.0
210
0.0
220
0.0
230
1.0
  0
LINE
  5
3AA
100
AcDbEntity
  8
0
370
    35
390
0
 62
     7
100
AcDbLine
 10
545.540588
 20
768.032532
 30
0.0
 11
545.540588
 21
700.032532
 31
0.0
210
0.0
220
0.0
230
1.0
  0
LINE
  5
3AB
100
AcDbEntity
  8
0
370
    35
390
0
 62
     7
100
AcDbLine
 10
545.540588
 20
700.032532
 30
0.0
 11
590.540588
 21
700.032532
 31
0.0
210
0.0
220
0.0
230
1.0
  0
LINE
  5
3AC
100
AcDbEntity
  8
0
370
    35
390
0
 62
     7
100
AcDbLine
 10
590.540588
 20
700.032532
 30
0.0
 11
590.540588
 21
768.032532
 31
0.0
210
0.0
220
0.0
230
1.0
  0
LINE
  5
3AD
100
AcDbEntity
  8
0
370
    35
390
0
 62
     7
 48
0.125
100
AcDbLine
 10
580.540588
 20
753.032532
 30
0.0
 11
580.540588
 21
748.032532
 31
0.0
210
0.0
220
0.0
230
1.0
  0
LINE
  5
3AE
100
AcDbEntity
  8
0
370
    35
390
0
 62
     7
 48
0.125
100
AcDbLine
 10
585.540588
 20
753.032532
 30
0.0
 11
580.540588
 21
753.032532
 31
0.0
210
0.0
220
0.0
230
1.0
  0
LINE
  5
3AF
100
AcDbEntity
  8
0
370
    35
390
0
 62
     7
 48
0.125
100
AcDbLine
 10
585.540588
 20
748.032532
 30
0.0
 11
585.540588
 21
753.032532
 31
0.0
210
0.0
220
0.0
230
1.0
  0
LINE
  5
3B0
100
AcDbEntity
  8
0
370
    35
390
0
 62
     7
 48
0.125
100
AcDbLine
 10
580.540588
 20
748.032532
 30
0.0
 11
585.540588
 21
748.032532
 31
0.0
210
0.0
220
0.0
230
1.0
  0
LINE
  5
3B1
100
AcDbEntity
  8
0
370
    35
390
0
 62
     7
 48
0.125
100
AcDbLine
 10
560.683472
 20
753.032532
 30
0.0
 11
560.683472
 21
748.032532
 31
0.0
210
0.0
220
0.0
230
1.0
  0
LINE
  5
3B2
100
AcDbEntity
  8
0
370
    35
390
0
 62
     7
 48
0.121428
100
AcDbLine
 10
565.540588
 20
753.032532
 30
0.0
 11
560.683472
 21
753.032532
 31
0.0
210
0.0
220
0.0
230
1.0
  0
LINE
  5
3B3
100
AcDbEntity
  8
0
370
    35
390
0
 62
     7
 48
0.125
100
AcDbLine
 10
565.540588
 20
748.032532
 30
0.0
 11
565.540588
 21
753.032532
 31
0.0
210
0.0
220
0.0
230
1.0
  0
LINE
  5
3B4
100
AcDbEntity
  8
0
370
    35
390
0
 62
     7
 48
0.121428
100
AcDbLine
 10
560.683472
 20
748.032532
 30
0.0
 11
565.540588
 21
748.032532
 31
0.0
210
0.0
220
0.0
230
1.0
  0
LINE
  5
3B5
100
AcDbEntity
  8
0
370
    35
390
0
 62
     7
 48
0.121428
100
AcDbLine
 10
565.540588
 20
720.032532
 30
0.0
 11
560.683472
 21
720.032532
 31
0.0
210
0.0
220
0.0
230
1.0
  0
LINE
  5
3B6
100
AcDbEntity
  8
0
370
    35
390
0
 62
     7
 48
0.125
100
AcDbLine
 10
565.540588
 20
715.032532
 30
0.0
 11
565.540588
 21
720.032532
 31
0.0
210
0.0
220
0.0
230
1.0
  0
LINE
  5
3B7
100
AcDbEntity
  8
0
370
    35
390
0
 62
     7
 48
0.121428
100
AcDbLine
 10
560.683472
 20
715.032532
 30
0.0
 11
565.540588
 21
715.032532
 31
0.0
210
0.0
220
0.0
230
1.0
  0
LINE
  5
3B8
100
AcDbEntity
  8
0
370
    35
390
0
 62
     7
 48
0.125
100
AcDbLine
 10
560.683472
 20
720.032532
 30
0.0
 11
560.683472
 21
715.032532
 31
0.0
210
0.0
220
0.0
230
1.0
  0
LINE
  5
3B9
100
AcDbEntity
  8
0
370
    35
390
0
 62
     7
 48
0.125
100
AcDbLine
 10
585.540588
 20
720.032532
 30
0.0
 11
580.540588
 21
720.032532
 31
0.0
210
0.0
220
0.0
230
1.0
  0
LINE
  5
3BA
100
AcDbEntity
  8
0
370
    35
390
0
 62
     7
 48
0.125
100
AcDbLine
 10
585.540588
 20
715.032532
 30
0.0
 11
585.540588
 21
720.032532
 31
0.0
210
0.0
220
0.0
230
1.0
  0
LINE
  5
3BB
100
AcDbEntity
  8
0
370
    35
390
0
 62
     7
 48
0.125
100
AcDbLine
 10
580.540588
 20
715.032532
 30
0.0
 11
585.540588
 21
715.032532
 31
0.0
210
0.0
220
0.0
230
1.0
  0
LINE
  5
3BC
100
AcDbEntity
  8
0
370
    35
390
0
 62
     7
 48
0.125
100
AcDbLine
 10
580.540588
 20
720.032532
 30
0.0
 11
580.540588
 21
715.032532
 31
0.0
210
0.0
220
0.0
230
1.0
  0
CIRCLE
  5
3BD
100
AcDbEntity
  8
0
370
    35
390
0
 62
     7
100
AcDbCircle
 10
573.469238
 20
708.96167
 30
0.0
 40
1.5
210
0.0
220
0.0
230
1.0
  0
CIRCLE
  5
3BE
100
AcDbEntity
  8
0
370
    35
390
0
 62
     7
100
AcDbCircle
 10
553.201965
 20
708.96167
 30
0.0
 40
1.5
210
0.0
220
0.0
230
1.0
  0
CIRCLE
  5
3BF
100
AcDbEntity
  8
0
370
    35
390
0
 62
     7
100
AcDbCircle
 10
573.469238
 20
759.103455
 30
0.0
 40
1.5
210
0.0
220
0.0
230
1.0
  0
CIRCLE
  5
3C0
100
AcDbEntity
  8
0
370
    35
390
0
 62
     7
100
AcDbCircle
 10
553.201965
 20
759.103455
 30
0.0
 40
1.5
210
0.0
220
0.0
230
1.0
  0
LINE
  5
3C1
100
AcDbEntity
  8
0
370
    35
390
0
 62
     7
 48
0.125
100
AcDbLine
 10
271.804138
 20
586.505493
 30
0.0
 11
266.804138
 21
586.505493
 31
0.0
210
0.0
220
0.0
230
1.0
  0
LINE
  5
3C2
100
AcDbEntity
  8
0
370
    35
390
0
 62
     7
100
AcDbLine
 10
266.804138
 20
586.505493
 30
0.0
 11
266.804138
 21
556.505493
 31
0.0
210
0.0
220
0.0
230
1.0
  0
LINE
  5
3C3
100
AcDbEntity
  8
0
370
    35
390
0
 62
     7
 48
0.0875
100
AcDbLine
 10
266.804138
 20
556.505493
 30
0.0
 11
270.304138
 21
556.505493
 31
0.0
210
0.0
220
0.0
230
1.0
  0
LINE
  5
3C4
100
AcDbEntity
  8
0
370
    35
390
0
 62
     7
 48
0.125
100
AcDbLine
 10
270.304138
 20
556.505493
 30
0.0
 11
270.304138
 21
551.505493
 31
0.0
210
0.0
220
0.0
230
1.0
  0
LINE
  5
3C5
100
AcDbEntity
  8
0
370
    35
390
0
 62
     7
 48
0.125
100
AcDbLine
 10
270.304138
 20
551.505493
 30
0.0
 11
275.304138
 21
551.505493
 31
0.0
210
0.0
220
0.0
230
1.0
  0
LINE
  5
3C6
100
AcDbEntity
  8
0
370
    35
390
0
 62
     7
 48
0.125
100
AcDbLine
 10
275.304138
 20
551.505493
 30
0.0
 11
275.304138
 21
556.505493
 31
0.0
210
0.0
220
0.0
230
1.0
  0
LINE
  5
3C7
100
AcDbEntity
  8
0
370
    35
390
0
 62
     7
 48
0.25
100
AcDbLine
 10
275.304138
 20
556.505493
 30
0.0
 11
285.304138
 21
556.505493
 31
0.0
210
0.0
220
0.0
230
1.0
  0
LINE
  5
3C8
100
AcDbEntity
  8
0
370
    35
390
0
 62
     7
 48
0.125
100
AcDbLine
 10
285.304138
 20
556.505493
 30
0.0
 11
285.304138
 21
551.505493
 31
0.0
210
0.0
220
0.0
230
1.0
  0
LINE
  5
3C9
100
AcDbEntity
  8
0
370
    35
390
0
 62
     7
 48
0.125
100
AcDbLine
 10
285.304138
 20
551.505493
 30
0.0
 11
290.304138
 21
551.505493
 31
0.0
210
0.0
220
0.0
230
1.0
  0
LINE
  5
3CA
100
AcDbEntity
  8
0
370
    35
390
0
 62
     7
100
AcDbLine
 10
290.304138
 20
551.505493
 30
0.0
 11
290.304138
 21
606.505493
 31
0.0
210
0.0
220
0.0
230
1.0
  0
LINE
  5
3CB
100
AcDbEntity
  8
0
370
    35
390
0
 62
     7
 48
0.4625
100
AcDbLine
 10
290.304138
 20
606.505493
 30
0.0
 11
271.804138
 21
606.505493
 31
0.0
210
0.0
220
0.0
230
1.0
  0
LINE
  5
3CC
100
AcDbEntity
  8
0
370
    35
390
0
 62
     7
100
AcDbLine
 10
271.804138
 20
606.505493
 30
0.0
 11
271.804138
 21
586.505493
 31
0.0
210
0.0
220
0.0
230
1.0
  0
LINE
  5
3CD
100
AcDbEntity
  8
0
370
    35
390
0
 62
     7
 48
0.125
100
AcDbLine
 10
422.229919
 20
583.184814
 30
0.0
 11
417.229919
 21
583.184814
 31
0.0
210
0.0
220
0.0
230
1.0
  0
LINE
  5
3CE
100
AcDbEntity
  8
0
370
    35
390
0
 62
     7
100
AcDbLine
 10
417.229919
 20
583.184814
 30
0.0
 11
417.229919
 21
553.184814
 31
0.0
210
0.0
220
0.0
230
1.0
  0
LINE
  5
3CF
100
AcDbEntity
  8
0
370
    35
390
0
 62
     7
 48
0.0875
100
AcDbLine
 10
417.229919
 20
553.184814
 30
0.0
 11
420.729919
 21
553.184814
 31
0.0
210
0.0
220
0.0
230
1.0
  0
LINE
  5
3D0
100
AcDbEntity
  8
0
370
    35
390
0
 62
     7
 48
0.125
100
AcDbLine
 10
420.729919
 20
553.184814
 30
0.0
 11
420.729919
 21
548.184814
 31
0.0
210
0.0
220
0.0
230
1.0
  0
LINE
  5
3D1
100
AcDbEntity
  8
0
370
    35
390
0
 62
     7
 48
0.125
100
AcDbLine
 10
420.729919
 20
548.184814
 30
0.0
 11
425.729919
 21
548.184814
 31
0.0
210
0.0
220
0.0
230
1.0
  0
LINE
  5
3D2
100
AcDbEntity
  8
0
370
    35
390
0
 62
     7
 48
0.125
100
AcDbLine
 10
425.729919
 20
548.184814
 30
0.0
 11
425.729919
 21
553.184814
 31
0.0
210
0.0
220
0.0
230
1.0
  0
LINE
  5
3D3
100
AcDbEntity
  8
0
370
    35
390
0
 62
     7
 48
0.25
100
AcDbLine
 10
425.729919
 20
553.184814
 30
0.0
 11
435.729919
 21
553.184814
 31
0.0
210
0.0
220
0.0
230
1.0
  0
LINE
  5
3D4
100
AcDbEntity
  8
0
370
    35
390
0
 62
     7
 48
0.125
100
AcDbLine
 10
435.729919
 20
553.184814
 30
0.0
 11
435.729919
 21
548.184814
 31
0.0
210
0.0
220
0.0
230
1.0
  0
LINE
  5
3D5
100
AcDbEntity
  8
0
370
    35
390
0
 62
     7
 48
0.125
100
AcDbLine
 10
435.729919
 20
548.184814
 30
0.0
 11
440.729919
 21
548.184814
 31
0.0
210
0.0
220
0.0
230
1.0
  0
LINE
  5
3D6
100
AcDbEntity
  8
0
370
    35
390
0
 62
     7
100
AcDbLine
 10
440.729919
 20
548.184814
 30
0.0
 11
440.729919
 21
603.184814
 31
0.0
210
0.0
220
0.0
230
1.0
  0
LINE
  5
3D7
100
AcDbEntity
  8
0
370
    35
390
0
 62
     7
 48
0.4625
100
AcDbLine
 10
440.729919
 20
603.184814
 30
0.0
 11
422.229919
 21
603.184814
 31
0.0
210
0.0
220
0.0
230
1.0
  0
LINE
  5
3D8
100
AcDbEntity
  8
0
370
    35
390
0
 62
     7
100
AcDbLine
 10
422.229919
 20
603.184814
 30
0.0
 11
422.229919
 21
583.184814
 31
0.0
210
0.0
220
0.0
230
1.0
  0
LINE
  5
3D9
100
AcDbEntity
  8
0
370
    35
390
0
 62
     7
100
AcDbLine
 10
118.353386
 20
779.283386
 30
0.0
 11
118.353386
 21
749.283386
 31
0.0
210
0.0
220
0.0
230
1.0
  0
LINE
  5
3DA
100
AcDbEntity
  8
0
370
    35
390
0
 62
     7
 48
0.125
100
AcDbLine
 10
118.353386
 20
749.283386
 30
0.0
 11
123.353386
 21
749.283386
 31
0.0
210
0.0
220
0.0
230
1.0
  0
LINE
  5
3DB
100
AcDbEntity
  8
0
370
    35
390
0
 62
     7
 48
0.125
100
AcDbLine
 10
123.353386
 20
749.283386
 30
0.0
 11
123.353386
 21
744.283386
 31
0.0
210
0.0
220
0.0
230
1.0
  0
LINE
  5
3DC
100
AcDbEntity
  8
0
370
    35
390
0
 62
     7
 48
0.125
100
AcDbLine
 10
123.353386
 20
744.283386
 30
0.0
 11
128.353394
 21
744.283386
 31
0.0
210
0.0
220
0.0
230
1.0
  0
LINE
  5
3DD
100
AcDbEntity
  8
0
370
    35
390
0
 62
     7
 48
0.125
100
AcDbLine
 10
128.353394
 20
744.283386
 30
0.0
 11
128.353394
 21
749.283386
 31
0.0
210
0.0
220
0.0
230
1.0
  0
LINE
  5
3DE
100
AcDbEntity
  8
0
370
    35
390
0
 62
     7
 48
0.125
100
AcDbLine
 10
128.353394
 20
749.283386
 30
0.0
 11
133.353394
 21
749.283386
 31
0.0
210
0.0
220
0.0
230
1.0
  0
LINE
  5
3DF
100
AcDbEntity
  8
0
370
    35
390
0
 62
     7
 48
0.125
100
AcDbLine
 10
133.353394
 20
749.283386
 30
0.0
 11
133.353394
 21
744.283386
 31
0.0
210
0.0
220
0.0
230
1.0
  0
LINE
  5
3E0
100
AcDbEntity
  8
0
370
    35
390
0
 62
     7
 48
0.125
100
AcDbLine
 10
133.353394
 20
744.283386
 30
0.0
 11
138.353394
 21
744.283386
 31
0.0
210
0.0
220
0.0
230
1.0
  0
LINE
  5
3E1
100
AcDbEntity
  8
0
370
    35
390
0
 62
     7
 48
0.125
100
AcDbLine
 10
138.353394
 20
744.283386
 30
0.0
 11
138.353394
 21
749.283386
 31
0.0
210
0.0
220
0.0
230
1.0
  0
LINE
  5
3E2
100
AcDbEntity
  8
0
370
    35
390
0
 62
     7
 48
0.43225
100
AcDbLine
 10
138.353394
 20
749.283386
 30
0.0
 11
155.643387
 21
749.283386
 31
0.0
210
0.0
220
0.0
230
1.0
  0
LINE
  5
3E3
100
AcDbEntity
  8
0
370
    35
390
0
 62
     7
100
AcDbLine
 10
155.643387
 20
749.283386
 30
0.0
 11
155.643387
 21
779.283386
 31
0.0
210
0.0
220
0.0
230
1.0
  0
LINE
  5
3E4
100
AcDbEntity
  8
0
370
    35
390
0
 62
     7
100
AcDbLine
 10
155.643387
 20
779.283386
 30
0.0
 11
118.353386
 21
779.283386
 31
0.0
210
0.0
220
0.0
230
1.0
  0
LINE
  5
3E5
100
AcDbEntity
  8
0
370
    35
390
0
 62
     7
100
AcDbLine
 10
119.436211
 20
738.610413
 30
0.0
 11
119.436211
 21
708.610413
 31
0.0
210
0.0
220
0.0
230
1.0
  0
LINE
  5
3E6
100
AcDbEntity
  8
0
370
    35
390
0
 62
     7
 48
0.125
100
AcDbLine
 10
119.436211
 20
708.610413
 30
0.0
 11
124.436211
 21
708.610413
 31
0.0
210
0.0
220
0.0
230
1.0
  0
LINE
  5
3E7
100
AcDbEntity
  8
0
370
    35
390
0
 62
     7
 48
0.125
100
AcDbLine
 10
124.436211
 20
708.610413
 30
0.0
 11
124.436211
 21
703.610413
 31
0.0
210
0.0
220
0.0
230
1.0
  0
LINE
  5
3E8
100
AcDbEntity
  8
0
370
    35
390
0
 62
     7
 48
0.125
100
AcDbLine
 10
124.436211
 20
703.610413
 30
0.0
 11
129.436218
 21
703.610413
 31
0.0
210
0.0
220
0.0
230
1.0
  0
LINE
  5
3E9
100
AcDbEntity
  8
0
370
    35
390
0
 62
     7
 48
0.125
100
AcDbLine
 10
129.436218
 20
703.610413
 30
0.0
 11
129.436218
 21
708.610413
 31
0.0
210
0.0
220
0.0
230
1.0
  0
LINE
  5
3EA
100
AcDbEntity
  8
0
370
    35
390
0
 62
     7
 48
0.125
100
AcDbLine
 10
129.436218
 20
708.610413
 30
0.0
 11
134.436218
 21
708.610413
 31
0.0
210
0.0
220
0.0
230
1.0
  0
LINE
  5
3EB
100
AcDbEntity
  8
0
370
    35
390
0
 62
     7
 48
0.125
100
AcDbLine
 10
134.436218
 20
708.610413
 30
0.0
 11
134.436218
 21
703.610413
 31
0.0
210
0.0
220
0.0
230
1.0
  0
LINE
  5
3EC
100
AcDbEntity
  8
0
370
    35
390
0
 62
     7
 48
0.125
100
AcDbLine
 10
134.436218
 20
703.610413
 30
0.0
 11
139.436218
 21
703.610413
 31
0.0
210
0.0
220
0.0
230
1.0
  0
LINE
  5
3ED
100
AcDbEntity
  8
0
370
    35
390
0
 62
     7
 48
0.125
100
AcDbLine
 10
139.436218
 20
703.610413
 30
0.0
 11
139.436218
 21
708.610413
 31
0.0
210
0.0
220
0.0
230
1.0
  0
LINE
  5
3EE
100
AcDbEntity
  8
0
370
    35
390
0
 62
     7
 48
0.43225
100
AcDbLine
 10
139.436218
 20
708.610413
 30
0.0
 11
156.726212
 21
708.610413
 31
0.0
210
0.0
220
0.0
230
1.0
  0
LINE
  5
3EF
100
AcDbEntity
  8
0
370
    35
390
0
 62
     7
100
AcDbLine
 10
156.726212
 20
708.610413
 30
0.0
 11
156.726212
 21
738.610413
 31
0.0
210
0.0
220
0.0
230
1.0
  0
LINE
  5
3F0
100
AcDbEntity
  8
0
370
    35
390
0
 62
     7
100
AcDbLine
 10
156.726212
 20
738.610413
 30
0.0
 11
119.436211
 21
738.610413
 31
0.0
210
0.0
220
0.0
230
1.0
  0
LINE
  5
3F1
100
AcDbEntity
  8
0
370
    35
390
0
 62
     7
100
AcDbLine
 10
567.425598
 20
774.239685
 30
0.0
 11
527.425598
 21
797.333679
 31
0.0
210
0.0
220
0.0
230
1.0
  0
LINE
  5
3F2
100
AcDbEntity
  8
0
370
    35
390
0
 62
     7
100
AcDbLine
 10
527.425598
 20
797.333679
 30
0.0
 11
527.425598
 21
774.239685
 31
0.0
210
0.0
220
0.0
230
1.0
  0
LINE
  5
3F3
100
AcDbEntity
  8
0
370
    35
390
0
 62
     7
100
AcDbLine
 10
527.425598
 20
774.239685
 30
0.0
 11
567.425598
 21
774.239685
 31
0.0
210
0.0
220
0.0
230
1.0
  0
LINE
  5
3F4
100
AcDbEntity
  8
0
370
    35
390
0
 62
     7
100
AcDbLine
 10
484.599854
 20
598.345642
 30
0.0
 11
444.599854
 21
621.439636
 31
0.0
210
0.0
220
0.0
230
1.0
  0
LINE
  5
3F5
100
AcDbEntity
  8
0
370
    35
390
0
 62
     7
100
AcDbLine
 10
444.599854
 20
621.439636
 30
0.0
 11
444.599854
 21
598.345642
 31
0.0
210
0.0
220
0.0
230
1.0
  0
LINE
  5
3F6
100
AcDbEntity
  8
0
370
    35
390
0
 62
     7
100
AcDbLine
 10
444.599854
 20
598.345642
 30
0.0
 11
484.599854
 21
598.345642
 31
0.0
210
0.0
220
0.0
230
1.0
  0
LINE
  5
3F7
100
AcDbEntity
  8
0
370
    35
390
0
 62
     7
100
AcDbLine
 10
87.40464
 20
565.281006
 30
0.0
 11
87.40464
 21
535.281006
 31
0.0
210
0.0
220
0.0
230
1.0
  0
LINE
  5
3F8
100
AcDbEntity
  8
0
370
    35
390
0
 62
     7
 48
0.125
100
AcDbLine
 10
87.40464
 20
535.281006
 30
0.0
 11
92.40464
 21
535.281006
 31
0.0
210
0.0
220
0.0
230
1.0
  0
LINE
  5
3F9
100
AcDbEntity
  8
0
370
    35
390
0
 62
     7
 48
0.125
100
AcDbLine
 10
92.40464
 20
535.281006
 30
0.0
 11
92.40464
 21
530.281006
 31
0.0
210
0.0
220
0.0
230
1.0
  0
LINE
  5
3FA
100
AcDbEntity
  8
0
370
    35
390
0
 62
     7
 48
0.125
100
AcDbLine
 10
92.40464
 20
530.281006
 30
0.0
 11
97.40464
 21
530.281006
 31
0.0
210
0.0
220
0.0
230
1.0
  0
LINE
  5
3FB
100
AcDbEntity
  8
0
370
    35
390
0
 62
     7
 48
0.125
100
AcDbLine
 10
97.40464
 20
530.281006
 30
0.0
 11
97.40464
 21
535.281006
 31
0.0
210
0.0
220
0.0
230
1.0
  0
LINE
  5
3FC
100
AcDbEntity
  8
0
370
    35
390
0
 62
     7
 48
0.125
100
AcDbLine
 10
97.40464
 20
535.281006
 30
0.0
 11
102.40464
 21
535.281006
 31
0.0
210
0.0
220
0.0
230
1.0
  0
LINE
  5
3FD
100
AcDbEntity
  8
0
370
    35
390
0
 62
     7
 48
0.125
100
AcDbLine
 10
102.40464
 20
535.281006
 30
0.0
 11
102.40464
 21
530.281006
 31
0.0
210
0.0
220
0.0
230
1.0
  0
LINE
  5
3FE
100
AcDbEntity
  8
0
370
    35
390
0
 62
     7
 48
0.125
100
AcDbLine
 10
102.40464
 20
530.281006
 30
0.0
 11
107.40464
 21
530.281006
 31
0.0
210
0.0
220
0.0
230
1.0
  0
LINE
  5
3FF
100
AcDbEntity
  8
0
370
    35
390
0
 62
     7
 48
0.125
100
AcDbLine
 10
107.40464
 20
530.281006
 30
0.0
 11
107.40464
 21
535.281006
 31
0.0
210
0.0
220
0.0
230
1.0
  0
LINE
  5
400
100
AcDbEntity
  8
0
370
    35
390
0
 62
     7
 48
0.125
100
AcDbLine
 10
107.40464
 20
535.281006
 30
0.0
 11
112.40464
 21
535.281006
 31
0.0
210
0.0
220
0.0
230
1.0
  0
LINE
  5
401
100
AcDbEntity
  8
0
370
    35
390
0
 62
     7
 48
0.125
100
AcDbLine
 10
112.40464
 20
535.281006
 30
0.0
 11
112.40464
 21
530.281006
 31
0.0
210
0.0
220
0.0
230
1.0
  0
LINE
  5
402
100
AcDbEntity
  8
0
370
    35
390
0
 62
     7
100
AcDbLine
 10
112.40464
 20
530.281006
 30
0.0
 11
146.285645
 21
530.281006
 31
0.0
210
0.0
220
0.0
230
1.0
  0
LINE
  5
403
100
AcDbEntity
  8
0
370
    35
390
0
 62
     7
 48
0.125
100
AcDbLine
 10
146.285645
 20
530.281006
 30
0.0
 11
146.285645
 21
535.281006
 31
0.0
210
0.0
220
0.0
230
1.0
  0
LINE
  5
404
100
AcDbEntity
  8
0
370
    35
390
0
 62
     7
 48
0.125
100
AcDbLine
 10
146.285645
 20
535.281006
 30
0.0
 11
151.285645
 21
535.281006
 31
0.0
210
0.0
220
0.0
230
1.0
  0
LINE
  5
405
100
AcDbEntity
  8
0
370
    35
390
0
 62
     7
 48
0.125
100
AcDbLine
 10
151.285645
 20
535.281006
 30
0.0
 11
151.285645
 21
530.281006
 31
0.0
210
0.0
220
0.0
230
1.0
  0
LINE
  5
406
100
AcDbEntity
  8
0
370
    35
390
0
 62
     7
 48
0.125
100
AcDbLine
 10
151.285645
 20
530.281006
 30
0.0
 11
156.285645
 21
530.281006
 31
0.0
210
0.0
220
0.0
230
1.0
  0
LINE
  5
407
100
AcDbEntity
  8
0
370
    35
390
0
 62
     7
 48
0.125
100
AcDbLine
 10
156.285645
 20
530.281006
 30
0.0
 11
156.285645
 21
535.281006
 31
0.0
210
0.0
220
0.0
230
1.0
  0
LINE
  5
408
100
AcDbEntity
  8
0
370
    35
390
0
 62
     7
 48
0.125
100
AcDbLine
 10
156.285645
 20
535.281006
 30
0.0
 11
161.285645
 21
535.281006
 31
0.0
210
0.0
220
0.0
230
1.0
  0
LINE
  5
409
100
AcDbEntity
  8
0
370
    35
390
0
 62
     7
 48
0.125
100
AcDbLine
 10
161.285645
 20
535.281006
 30
0.0
 11
161.285645
 21
530.281006
 31
0.0
210
0.0
220
0.0
230
1.0
  0
LINE
  5
40A
100
AcDbEntity
  8
0
370
    35
390
0
 62
     7
 48
0.125
100
AcDbLine
 10
161.285645
 20
530.281006
 30
0.0
 11
166.285645
 21
530.281006
 31
0.0
210
0.0
220
0.0
230
1.0
  0
LINE
  5
40B
100
AcDbEntity
  8
0
370
    35
390
0
 62
     7
 48
0.125
100
AcDbLine
 10
166.285645
 20
530.281006
 30
0.0
 11
166.285645
 21
535.281006
 31
0.0
210
0.0
220
0.0
230
1.0
  0
LINE
  5
40C
100
AcDbEntity
  8
0
370
    35
390
0
 62
     7
 48
0.125
100
AcDbLine
 10
166.285645
 20
535.281006
 30
0.0
 11
171.285645
 21
535.281006
 31
0.0
210
0.0
220
0.0
230
1.0
  0
LINE
  5
40D
100
AcDbEntity
  8
0
370
    35
390
0
 62
     7
100
AcDbLine
 10
171.285645
 20
535.281006
 30
0.0
 11
171.285645
 21
565.281006
 31
0.0
210
0.0
220
0.0
230
1.0
  0
LINE
  5
40E
100
AcDbEntity
  8
0
370
    35
390
0
 62
     7
100
AcDbLine
 10
171.285645
 20
565.281006
 30
0.0
 11
87.40464
 21
565.281006
 31
0.0
210
0.0
220
0.0
230
1.0
  0
LINE
  5
40F
100
AcDbEntity
  8
0
370
    35
390
0
 62
     7
100
AcDbLine
 10
176.703003
 20
563.704346
 30
0.0
 11
176.703003
 21
533.704346
 31
0.0
210
0.0
220
0.0
230
1.0
  0
LINE
  5
410
100
AcDbEntity
  8
0
370
    35
390
0
 62
     7
 48
0.125
100
AcDbLine
 10
176.703003
 20
533.704346
 30
0.0
 11
181.703003
 21
533.704346
 31
0.0
210
0.0
220
0.0
230
1.0
  0
LINE
  5
411
100
AcDbEntity
  8
0
370
    35
390
0
 62
     7
 48
0.125
100
AcDbLine
 10
181.703003
 20
533.704346
 30
0.0
 11
181.703003
 21
528.704346
 31
0.0
210
0.0
220
0.0
230
1.0
  0
LINE
  5
412
100
AcDbEntity
  8
0
370
    35
390
0
 62
     7
 48
0.125
100
AcDbLine
 10
181.703003
 20
528.704346
 30
0.0
 11
186.703003
 21
528.704346
 31
0.0
210
0.0
220
0.0
230
1.0
  0
LINE
  5
413
100
AcDbEntity
  8
0
370
    35
390
0
 62
     7
 48
0.125
100
AcDbLine
 10
186.703003
 20
528.704346
 30
0.0
 11
186.703003
 21
533.704346
 31
0.0
210
0.0
220
0.0
230
1.0
  0
LINE
  5
414
100
AcDbEntity
  8
0
370
    35
390
0
 62
     7
 48
0.125
100
AcDbLine
 10
186.703003
 20
533.704346
 30
0.0
 11
191.703003
 21
533.704346
 31
0.0
210
0.0
220
0.0
230
1.0
  0
LINE
  5
415
100
AcDbEntity
  8
0
370
    35
390
0
 62
     7
 48
0.125
100
AcDbLine
 10
191.703003
 20
533.704346
 30
0.0
 11
191.703003
 21
528.704346
 31
0.0
210
0.0
220
0.0
230
1.0
  0
LINE
  5
416
100
AcDbEntity
  8
0
370
    35
390
0
 62
     7
 48
0.125
100
AcDbLine
 10
191.703003
 20
528.704346
 30
0.0
 11
196.703003
 21
528.704346
 31
0.0
210
0.0
220
0.0
230
1.0
  0
LINE
  5
417
100
AcDbEntity
  8
0
370
    35
390
0
 62
     7
 48
0.125
100
AcDbLine
 10
196.703003
 20
528.704346
 30
0.0
 11
196.703003
 21
533.704346
 31
0.0
210
0.0
220
0.0
230
1.0
  0
LINE
  5
418
100
AcDbEntity
  8
0
370
    35
390
0
 62
     7
 48
0.125
100
AcDbLine
 10
196.703003
 20
533.704346
 30
0.0
 11
201.703003
 21
533.704346
 31
0.0
210
0.0
220
0.0
230
1.0
  0
LINE
  5
419
100
AcDbEntity
  8
0
370
    35
390
0
 62
     7
 48
0.125
100
AcDbLine
 10
201.703003
 20
533.704346
 30
0.0
 11
201.703003
 21
528.704346
 31
0.0
210
0.0
220
0.0
230
1.0
  0
LINE
  5
41A
100
AcDbEntity
  8
0
370
    35
390
0
 62
     7
100
AcDbLine
 10
201.703003
 20
528.704346
 30
0.0
 11
235.584015
 21
528.704346
 31
0.0
210
0.0
220
0.0
230
1.0
  0
LINE
  5
41B
100
AcDbEntity
  8
0
370
    35
390
0
 62
     7
 48
0.125
100
AcDbLine
 10
235.584015
 20
528.704346
 30
0.0
 11
235.584015
 21
533.704346
 31
0.0
210
0.0
220
0.0
230
1.0
  0
LINE
  5
41C
100
AcDbEntity
  8
0
370
    35
390
0
 62
     7
 48
0.125
100
AcDbLine
 10
235.584015
 20
533.704346
 30
0.0
 11
240.584015
 21
533.704346
 31
0.0
210
0.0
220
0.0
230
1.0
  0
LINE
  5
41D
100
AcDbEntity
  8
0
370
    35
390
0
 62
     7
 48
0.125
100
AcDbLine
 10
240.584015
 20
533.704346
 30
0.0
 11
240.584015
 21
528.704346
 31
0.0
210
0.0
220
0.0
230
1.0
  0
LINE
  5
41E
100
AcDbEntity
  8
0
370
    35
390
0
 62
     7
 48
0.125
100
AcDbLine
 10
240.584015
 20
528.704346
 30
0.0
 11
245.584015
 21
528.704346
 31
0.0
210
0.0
220
0.0
230
1.0
  0
LINE
  5
41F
100
AcDbEntity
  8
0
370
    35
390
0
 62
     7
 48
0.125
100
AcDbLine
 10
245.584015
 20
528.704346
 30
0.0
 11
245.584015
 21
533.704346
 31
0.0
210
0.0
220
0.0
230
1.0
  0
LINE
  5
420
100
AcDbEntity
  8
0
370
    35
390
0
 62
     7
 48
0.125
100
AcDbLine
 10
245.584015
 20
533.704346
 30
0.0
 11
250.584015
 21
533.704346
 31
0.0
210
0.0
220
0.0
230
1.0
  0
LINE
  5
421
100
AcDbEntity
  8
0
370
    35
390
0
 62
     7
 48
0.125
100
AcDbLine
 10
250.584015
 20
533.704346
 30
0.0
 11
250.584015
 21
528.704346
 31
0.0
210
0.0
220
0.0
230
1.0
  0
LINE
  5
422
100
AcDbEntity
  8
0
370
    35
390
0
 62
     7
 48
0.125
100
AcDbLine
 10
250.584015
 20
528.704346
 30
0.0
 11
255.584015
 21
528.704346
 31
0.0
210
0.0
220
0.0
230
1.0
  0
LINE
  5
423
100
AcDbEntity
  8
0
370
    35
390
0
 62
     7
 48
0.125
100
AcDbLine
 10
255.584015
 20
528.704346
 30
0.0
 11
255.584015
 21
533.704346
 31
0.0
210
0.0
220
0.0
230
1.0
  0
LINE
  5
424
100
AcDbEntity
  8
0
370
    35
390
0
 62
     7
 48
0.125
100
AcDbLine
 10
255.584015
 20
533.704346
 30
0.0
 11
260.584015
 21
533.704346
 31
0.0
210
0.0
220
0.0
230
1.0
  0
LINE
  5
425
100
AcDbEntity
  8
0
370
    35
390
0
 62
     7
100
AcDbLine
 10
260.584015
 20
533.704346
 30
0.0
 11
260.584015
 21
563.704346
 31
0.0
210
0.0
220
0.0
230
1.0
  0
LINE
  5
426
100
AcDbEntity
  8
0
370
    35
390
0
 62
     7
100
AcDbLine
 10
260.584015
 20
563.704346
 30
0.0
 11
176.703003
 21
563.704346
 31
0.0
210
0.0
220
0.0
230
1.0
  0
LINE
  5
427
100
AcDbEntity
  8
0
370
    35
390
0
 62
     7
 48
0.186185
100
AcDbLine
 10
503.728485
 20
484.805786
 30
0.0
 11
508.245697
 21
478.884766
 31
0.0
210
0.0
220
0.0
230
1.0
  0
LINE
  5
428
100
AcDbEntity
  8
0
370
    35
390
0
 62
     7
100
AcDbLine
 10
508.245697
 20
478.884766
 30
0.0
 11
553.561096
 21
500.015686
 31
0.0
210
0.0
220
0.0
230
1.0
  0
LINE
  5
429
100
AcDbEntity
  8
0
370
    35
390
0
 62
     7
 48
0.125
100
AcDbLine
 10
507.703705
 20
487.838531
 30
0.0
 11
503.728485
 21
484.805786
 31
0.0
210
0.0
220
0.0
230
1.0
  0
LINE
  5
42A
100
AcDbEntity
  8
0
370
    35
390
0
 62
     7
 48
0.125
100
AcDbLine
 10
504.670929
 20
491.813751
 30
0.0
 11
507.703705
 21
487.838531
 31
0.0
210
0.0
220
0.0
230
1.0
  0
LINE
  5
42B
100
AcDbEntity
  8
0
370
    35
390
0
 62
     7
 48
0.125
100
AcDbLine
 10
500.695709
 20
488.781006
 30
0.0
 11
504.670929
 21
491.813751
 31
0.0
210
0.0
220
0.0
230
1.0
  0
LINE
  5
42C
100
AcDbEntity
  8
0
370
    35
390
0
 62
     7
 48
0.125
100
AcDbLine
 10
497.662964
 20
492.756226
 30
0.0
 11
500.695709
 21
488.781006
 31
0.0
210
0.0
220
0.0
230
1.0
  0
LINE
  5
42D
100
AcDbEntity
  8
0
370
    35
390
0
 62
     7
 48
0.125
100
AcDbLine
 10
501.638184
 20
495.788971
 30
0.0
 11
497.662964
 21
492.756226
 31
0.0
210
0.0
220
0.0
230
1.0
  0
LINE
  5
42E
100
AcDbEntity
  8
0
370
    35
390
0
 62
     7
 48
0.125
100
AcDbLine
 10
498.605438
 20
499.764191
 30
0.0
 11
501.638184
 21
495.788971
 31
0.0
210
0.0
220
0.0
230
1.0
  0
LINE
  5
42F
100
AcDbEntity
  8
0
370
    35
390
0
 62
     7
 48
0.125
100
AcDbLine
 10
494.630219
 20
496.731445
 30
0.0
 11
498.605438
 21
499.764191
 31
0.0
210
0.0
220
0.0
230
1.0
  0
LINE
  5
430
100
AcDbEntity
  8
0
370
    35
390
0
 62
     7
 48
0.432317
100
AcDbLine
 10
484.141327
 20
510.479889
 30
0.0
 11
494.630219
 21
496.731445
 31
0.0
210
0.0
220
0.0
230
1.0
  0
LINE
  5
431
100
AcDbEntity
  8
0
370
    35
390
0
 62
     7
 48
0.125
100
AcDbLine
 10
482.847229
 20
515.309509
 30
0.0
 11
484.141327
 21
510.479889
 31
0.0
210
0.0
220
0.0
230
1.0
  0
LINE
  5
432
100
AcDbEntity
  8
0
370
    35
390
0
 62
     7
 48
0.125
100
AcDbLine
 10
478.017609
 20
514.015442
 30
0.0
 11
482.847229
 21
515.309509
 31
0.0
210
0.0
220
0.0
230
1.0
  0
LINE
  5
433
100
AcDbEntity
  8
0
370
    35
390
0
 62
     7
 48
0.125001
100
AcDbLine
 10
479.311707
 20
509.185791
 30
0.0
 11
478.017609
 21
514.015442
 31
0.0
210
0.0
220
0.0
230
1.0
  0
LINE
  5
434
100
AcDbEntity
  8
0
370
    35
390
0
 62
     7
 48
0.25
100
AcDbLine
 10
469.652435
 20
506.597595
 30
0.0
 11
479.311707
 21
509.185791
 31
0.0
210
0.0
220
0.0
230
1.0
  0
LINE
  5
435
100
AcDbEntity
  8
0
370
    35
390
0
 62
     7
 48
0.125001
100
AcDbLine
 10
468.358337
 20
511.427246
 30
0.0
 11
469.652435
 21
506.597595
 31
0.0
210
0.0
220
0.0
230
1.0
  0
LINE
  5
436
100
AcDbEntity
  8
0
370
    35
390
0
 62
     7
 48
0.125
100
AcDbLine
 10
463.528717
 20
510.133148
 30
0.0
 11
468.358337
 21
511.427246
 31
0.0
210
0.0
220
0.0
230
1.0
  0
LINE
  5
437
100
AcDbEntity
  8
0
370
    35
390
0
 62
     7
 48
0.125
100
AcDbLine
 10
464.822815
 20
505.303528
 30
0.0
 11
463.528717
 21
510.133148
 31
0.0
210
0.0
220
0.0
230
1.0
  0
LINE
  5
438
100
AcDbEntity
  8
0
370
    35
390
0
 62
     7
 48
0.125001
100
AcDbLine
 10
459.993164
 20
504.009399
 30
0.0
 11
464.822815
 21
505.303528
 31
0.0
210
0.0
220
0.0
230
1.0
  0
LINE
  5
439
100
AcDbEntity
  8
0
370
    35
390
0
 62
     7
 48
0.125
100
AcDbLine
 10
454.993164
 20
504.009399
 30
0.0
 11
459.993164
 21
504.009399
 31
0.0
210
0.0
220
0.0
230
1.0
  0
LINE
  5
43A
100
AcDbEntity
  8
0
370
    35
390
0
 62
     7
 48
0.125
100
AcDbLine
 10
454.993164
 20
509.009399
 30
0.0
 11
454.993164
 21
504.009399
 31
0.0
210
0.0
220
0.0
230
1.0
  0
LINE
  5
43B
100
AcDbEntity
  8
0
370
    35
390
0
 62
     7
 48
0.125
100
AcDbLine
 10
459.993164
 20
509.009399
 30
0.0
 11
454.993164
 21
509.009399
 31
0.0
210
0.0
220
0.0
230
1.0
  0
LINE
  5
43C
100
AcDbEntity
  8
0
370
    35
390
0
 62
     7
 48
0.125
100
AcDbLine
 10
459.993164
 20
514.009399
 30
0.0
 11
459.993164
 21
509.009399
 31
0.0
210
0.0
220
0.0
230
1.0
  0
LINE
  5
43D
100
AcDbEntity
  8
0
370
    35
390
0
 62
     7
 48
0.125
100
AcDbLine
 10
454.993164
 20
514.009399
 30
0.0
 11
459.993164
 21
514.009399
 31
0.0
210
0.0
220
0.0
230
1.0
  0
LINE
  5
43E
100
AcDbEntity
  8
0
370
    35
390
0
 62
     7
 48
0.125
100
AcDbLine
 10
454.993164
 20
519.009399
 30
0.0
 11
454.993164
 21
514.009399
 31
0.0
210
0.0
220
0.0
230
1.0
  0
LINE
  5
43F
100
AcDbEntity
  8
0
370
    35
390
0
 62
     7
 48
0.125
100
AcDbLine
 10
459.993164
 20
519.009399
 30
0.0
 11
454.993164
 21
519.009399
 31
0.0
210
0.0
220
0.0
230
1.0
  0
LINE
  5
440
100
AcDbEntity
  8
0
370
    35
390
0
 62
     7
 48
0.125
100
AcDbLine
 10
459.993164
 20
524.009399
 30
0.0
 11
459.993164
 21
519.009399
 31
0.0
210
0.0
220
0.0
230
1.0
  0
LINE
  5
441
100
AcDbEntity
  8
0
370
    35
390
0
 62
     7
 48
0.125
100
AcDbLine
 10
454.993164
 20
524.009399
 30
0.0
 11
459.993164
 21
524.009399
 31
0.0
210
0.0
220
0.0
230
1.0
  0
LINE
  5
442
100
AcDbEntity
  8
0
370
    35
390
0
 62
     7
 48
0.125
100
AcDbLine
 10
454.993164
 20
529.009399
 30
0.0
 11
454.993164
 21
524.009399
 31
0.0
210
0.0
220
0.0
230
1.0
  0
LINE
  5
443
100
AcDbEntity
  8
0
370
    35
390
0
 62
     7
 48
0.125
100
AcDbLine
 10
459.993164
 20
529.009399
 30
0.0
 11
454.993164
 21
529.009399
 31
0.0
210
0.0
220
0.0
230
1.0
  0
LINE
  5
444
100
AcDbEntity
  8
0
370
    35
390
0
 62
     7
100
AcDbLine
 10
459.993164
 20
562.890442
 30
0.0
 11
459.993164
 21
529.009399
 31
0.0
210
0.0
220
0.0
230
1.0
  0
LINE
  5
445
100
AcDbEntity
  8
0
370
    35
390
0
 62
     7
 48
0.125
100
AcDbLine
 10
454.993164
 20
562.890442
 30
0.0
 11
459.993164
 21
562.890442
 31
0.0
210
0.0
220
0.0
230
1.0
  0
LINE
  5
446
100
AcDbEntity
  8
0
370
    35
390
0
 62
     7
 48
0.125
100
AcDbLine
 10
454.993164
 20
567.890442
 30
0.0
 11
454.993164
 21
562.890442
 31
0.0
210
0.0
220
0.0
230
1.0
  0
LINE
  5
447
100
AcDbEntity
  8
0
370
    35
390
0
 62
     7
 48
0.125
100
AcDbLine
 10
459.993164
 20
567.890442
 30
0.0
 11
454.993164
 21
567.890442
 31
0.0
210
0.0
220
0.0
230
1.0
  0
LINE
  5
448
100
AcDbEntity
  8
0
370
    35
390
0
 62
     7
 48
0.125
100
AcDbLine
 10
459.993164
 20
572.890442
 30
0.0
 11
459.993164
 21
567.890442
 31
0.0
210
0.0
220
0.0
230
1.0
  0
LINE
  5
449
100
AcDbEntity
  8
0
370
    35
390
0
 62
     7
 48
0.125
100
AcDbLine
 10
454.993164
 20
572.890442
 30
0.0
 11
459.993164
 21
572.890442
 31
0.0
210
0.0
220
0.0
230
1.0
  0
LINE
  5
44A
100
AcDbEntity
  8
0
370
    35
390
0
 62
     7
 48
0.125
100
AcDbLine
 10
454.993164
 20
577.890442
 30
0.0
 11
454.993164
 21
572.890442
 31
0.0
210
0.0
220
0.0
230
1.0
  0
LINE
  5
44B
100
AcDbEntity
  8
0
370
    35
390
0
 62
     7
 48
0.125
100
AcDbLine
 10
459.993164
 20
577.890442
 30
0.0
 11
454.993164
 21
577.890442
 31
0.0
210
0.0
220
0.0
230
1.0
  0
LINE
  5
44C
100
AcDbEntity
  8
0
370
    35
390
0
 62
     7
 48
0.125
100
AcDbLine
 10
459.993164
 20
582.890442
 30
0.0
 11
459.993164
 21
577.890442
 31
0.0
210
0.0
220
0.0
230
1.0
  0
LINE
  5
44D
100
AcDbEntity
  8
0
370
    35
390
0
 62
     7
 48
0.125
100
AcDbLine
 10
454.993164
 20
582.890442
 30
0.0
 11
459.993164
 21
582.890442
 31
0.0
210
0.0
220
0.0
230
1.0
  0
LINE
  5
44E
100
AcDbEntity
  8
0
370
    35
390
0
 62
     7
 48
0.125
100
AcDbLine
 10
454.993164
 20
587.890442
 30
0.0
 11
454.993164
 21
582.890442
 31
0.0
210
0.0
220
0.0
230
1.0
  0
LINE
  5
44F
100
AcDbEntity
  8
0
370
    35
390
0
 62
     7
 48
0.125
100
AcDbLine
 10
459.993164
 20
587.890442
 30
0.0
 11
454.993164
 21
587.890442
 31
0.0
210
0.0
220
0.0
230
1.0
  0
LINE
  5
450
100
AcDbEntity
  8
0
370
    35
390
0
 62
     7
 48
0.125001
100
AcDbLine
 10
464.822815
 20
586.596313
 30
0.0
 11
459.993164
 21
587.890442
 31
0.0
210
0.0
220
0.0
230
1.0
  0
LINE
  5
451
100
AcDbEntity
  8
0
370
    35
390
0
 62
     7
 48
0.124999
100
AcDbLine
 10
463.528717
 20
581.766724
 30
0.0
 11
464.822815
 21
586.596313
 31
0.0
210
0.0
220
0.0
230
1.0
  0
LINE
  5
452
100
AcDbEntity
  8
0
370
    35
390
0
 62
     7
 48
0.125
100
AcDbLine
 10
468.358337
 20
580.472595
 30
0.0
 11
463.528717
 21
581.766724
 31
0.0
210
0.0
220
0.0
230
1.0
  0
LINE
  5
453
100
AcDbEntity
  8
0
370
    35
390
0
 62
     7
 48
0.125001
100
AcDbLine
 10
469.652435
 20
585.302246
 30
0.0
 11
468.358337
 21
580.472595
 31
0.0
210
0.0
220
0.0
230
1.0
  0
LINE
  5
454
100
AcDbEntity
  8
0
370
    35
390
0
 62
     7
 48
0.25
100
AcDbLine
 10
479.311707
 20
582.71405
 30
0.0
 11
469.652435
 21
585.302246
 31
0.0
210
0.0
220
0.0
230
1.0
  0
LINE
  5
455
100
AcDbEntity
  8
0
370
    35
390
0
 62
     7
 48
0.125001
100
AcDbLine
 10
478.017609
 20
577.884399
 30
0.0
 11
479.311707
 21
582.71405
 31
0.0
210
0.0
220
0.0
230
1.0
  0
LINE
  5
456
100
AcDbEntity
  8
0
370
    35
390
0
 62
     7
 48
0.125
100
AcDbLine
 10
482.847229
 20
576.590332
 30
0.0
 11
478.017609
 21
577.884399
 31
0.0
210
0.0
220
0.0
230
1.0
  0
LINE
  5
457
100
AcDbEntity
  8
0
370
    35
390
0
 62
     7
 48
0.124999
100
AcDbLine
 10
484.141327
 20
581.419922
 30
0.0
 11
482.847229
 21
576.590332
 31
0.0
210
0.0
220
0.0
230
1.0
  0
LINE
  5
458
100
AcDbEntity
  8
0
370
    35
390
0
 62
     7
 48
0.432317
100
AcDbLine
 10
494.630219
 20
595.168396
 30
0.0
 11
484.141327
 21
581.419922
 31
0.0
210
0.0
220
0.0
230
1.0
  0
LINE
  5
459
100
AcDbEntity
  8
0
370
    35
390
0
 62
     7
 48
0.125
100
AcDbLine
 10
498.605438
 20
592.13562
 30
0.0
 11
494.630219
 21
595.168396
 31
0.0
210
0.0
220
0.0
230
1.0
  0
LINE
  5
45A
100
AcDbEntity
  8
0
370
    35
390
0
 62
     7
 48
0.125
100
AcDbLine
 10
501.638184
 20
596.11084
 30
0.0
 11
498.605438
 21
592.13562
 31
0.0
210
0.0
220
0.0
230
1.0
  0
LINE
  5
45B
100
AcDbEntity
  8
0
370
    35
390
0
 62
     7
 48
0.125
100
AcDbLine
 10
497.662964
 20
599.143616
 30
0.0
 11
501.638184
 21
596.11084
 31
0.0
210
0.0
220
0.0
230
1.0
  0
LINE
  5
45C
100
AcDbEntity
  8
0
370
    35
390
0
 62
     7
 48
0.125
100
AcDbLine
 10
500.695709
 20
603.118835
 30
0.0
 11
497.662964
 21
599.143616
 31
0.0
210
0.0
220
0.0
230
1.0
  0
LINE
  5
45D
100
AcDbEntity
  8
0
370
    35
390
0
 62
     7
 48
0.125
100
AcDbLine
 10
504.670929
 20
600.08606
 30
0.0
 11
500.695709
 21
603.118835
 31
0.0
210
0.0
220
0.0
230
1.0
  0
LINE
  5
45E
100
AcDbEntity
  8
0
370
    35
390
0
 62
     7
 48
0.125001
100
AcDbLine
 10
507.703705
 20
604.06134
 30
0.0
 11
504.670929
 21
600.08606
 31
0.0
210
0.0
220
0.0
230
1.0
  0
LINE
  5
45F
100
AcDbEntity
  8
0
370
    35
390
0
 62
     7
 48
0.124999
100
AcDbLine
 10
503.728485
 20
607.094055
 30
0.0
 11
507.703705
 21
604.06134
 31
0.0
210
0.0
220
0.0
230
1.0
  0
LINE
  5
460
100
AcDbEntity
  8
0
370
    35
390
0
 62
     7
 48
0.186185
100
AcDbLine
 10
508.245697
 20
613.015076
 30
0.0
 11
503.728485
 21
607.094055
 31
0.0
210
0.0
220
0.0
230
1.0
  0
LINE
  5
461
100
AcDbEntity
  8
0
370
    35
390
0
 62
     7
100
AcDbLine
 10
553.561096
 20
591.884155
 30
0.0
 11
508.245697
 21
613.015076
 31
0.0
210
0.0
220
0.0
230
1.0
  0
LINE
  5
462
100
AcDbEntity
  8
0
370
    35
390
0
 62
     7
100
AcDbLine
 10
553.561096
 20
551.949951
 30
0.0
 11
553.561096
 21
591.884155
 31
0.0
210
0.0
220
0.0
230
1.0
  0
LINE
  5
463
100
AcDbEntity
  8
0
370
    35
390
0
 62
     7
100
AcDbLine
 10
585.561096
 20
551.949951
 30
0.0
 11
553.561096
 21
551.949951
 31
0.0
210
0.0
220
0.0
230
1.0
  0
LINE
  5
464
100
AcDbEntity
  8
0
370
    35
390
0
 62
     7
 48
0.3
100
AcDbLine
 10
585.561096
 20
539.949951
 30
0.0
 11
585.561096
 21
551.949951
 31
0.0
210
0.0
220
0.0
230
1.0
  0
LINE
  5
465
100
AcDbEntity
  8
0
370
    35
390
0
 62
     7
100
AcDbLine
 10
553.561096
 20
539.949951
 30
0.0
 11
585.561096
 21
539.949951
 31
0.0
210
0.0
220
0.0
230
1.0
  0
LINE
  5
466
100
AcDbEntity
  8
0
370
    35
390
0
 62
     7
100
AcDbLine
 10
553.561096
 20
500.015686
 30
0.0
 11
553.561096
 21
539.949951
 31
0.0
210
0.0
220
0.0
230
1.0
  0
CIRCLE
  5
467
100
AcDbEntity
  8
0
370
    35
390
0
 62
     7
100
AcDbCircle
 10
555.96106
 20
546.049927
 30
0.0
 40
0.5
210
0.0
220
0.0
230
1.0
  0
CIRCLE
  5
468
100
AcDbEntity
  8
0
370
    35
390
0
 62
     7
100
AcDbCircle
 10
583.261108
 20
546.049927
 30
0.0
 40
0.5
210
0.0
220
0.0
230
1.0
  0
LINE
  5
469
100
AcDbEntity
  8
0
370
    35
390
0
 62
     7
100
AcDbLine
 10
128.451218
 20
481.763
 30
0.0
 11
128.451218
 21
521.763
 31
0.0
210
0.0
220
0.0
230
1.0
  0
LINE
  5
46A
100
AcDbEntity
  8
0
370
    35
390
0
 62
     7
100
AcDbLine
 10
84.570213
 20
521.763
 30
0.0
 11
128.451218
 21
521.763
 31
0.0
210
0.0
220
0.0
230
1.0
  0
LINE
  5
46B
100
AcDbEntity
  8
0
370
    35
390
0
 62
     7
100
AcDbLine
 10
84.570213
 20
481.763
 30
0.0
 11
84.570213
 21
521.763
 31
0.0
210
0.0
220
0.0
230
1.0
  0
LINE
  5
46C
100
AcDbEntity
  8
0
370
    35
390
0
 62
     7
100
AcDbLine
 10
128.451218
 20
481.763
 30
0.0
 11
84.570213
 21
481.763
 31
0.0
210
0.0
220
0.0
230
1.0
  0
CIRCLE
  5
46D
100
AcDbEntity
  8
0
370
    35
390
0
 62
     7
100
AcDbCircle
 10
117.628799
 20
491.763
 30
0.0
 40
1.5
210
0.0
220
0.0
230
1.0
  0
CIRCLE
  5
46E
100
AcDbEntity
  8
0
370
    35
390
0
 62
     7
100
AcDbCircle
 10
95.392632
 20
491.763
 30
0.0
 40
1.5
210
0.0
220
0.0
230
1.0
  0
CIRCLE
  5
46F
100
AcDbEntity
  8
0
370
    35
390
0
 62
     7
100
AcDbCircle
 10
153.055695
 20
504.236633
 30
0.0
 40
15.0
210
0.0
220
0.0
230
1.0
  0
CIRCLE
  5
470
100
AcDbEntity
  8
0
370
    35
390
0
 62
     7
100
AcDbCircle
 10
153.055695
 20
504.236633
 30
0.0
 40
1.5
210
0.0
220
0.0
230
1.0
  0
LINE
  5
471
100
AcDbEntity
  8
0
370
    35
390
0
 62
     7
 48
0.0625
100
AcDbLine
 10
151.616211
 20
513.966919
 30
0.0
 11
149.317322
 21
512.984497
 31
0.0
210
0.0
220
0.0
230
1.0
  0
LINE
  5
472
100
AcDbEntity
  8
0
370
    35
390
0
 62
     7
 48
0.125
100
AcDbLine
 10
153.581039
 20
509.369171
 30
0.0
 11
151.616211
 21
513.966919
 31
0.0
210
0.0
220
0.0
230
1.0
  0
LINE
  5
473
100
AcDbEntity
  8
0
370
    35
390
0
 62
     7
 48
0.125
100
AcDbLine
 10
148.983276
 20
507.404327
 30
0.0
 11
153.581039
 21
509.369171
 31
0.0
210
0.0
220
0.0
230
1.0
  0
LINE
  5
474
100
AcDbEntity
  8
0
370
    35
390
0
 62
     7
 48
0.125
100
AcDbLine
 10
147.018433
 20
512.002075
 30
0.0
 11
148.983276
 21
507.404327
 31
0.0
210
0.0
220
0.0
230
1.0
  0
LINE
  5
475
100
AcDbEntity
  8
0
370
    35
390
0
 62
     7
 48
0.0625
100
AcDbLine
 10
149.317322
 20
512.984497
 30
0.0
 11
147.018433
 21
512.002075
 31
0.0
210
0.0
220
0.0
230
1.0
  0
LINE
  5
476
100
AcDbEntity
  8
0
370
    35
390
0
 62
     7
 48
0.125
100
AcDbLine
 10
152.530365
 20
499.104065
 30
0.0
 11
157.128113
 21
501.068909
 31
0.0
210
0.0
220
0.0
230
1.0
  0
LINE
  5
477
100
AcDbEntity
  8
0
370
    35
390
0
 62
     7
 48
0.125
100
AcDbLine
 10
157.128113
 20
501.068909
 30
0.0
 11
159.092957
 21
496.471161
 31
0.0
210
0.0
220
0.0
230
1.0
  0
LINE
  5
478
100
AcDbEntity
  8
0
370
    35
390
0
 62
     7
 48
0.0625
100
AcDbLine
 10
159.092957
 20
496.471161
 30
0.0
 11
156.794067
 21
495.488739
 31
0.0
210
0.0
220
0.0
230
1.0
  0
LINE
  5
479
100
AcDbEntity
  8
0
370
    35
390
0
 62
     7
 48
0.0625
100
AcDbLine
 10
156.794067
 20
495.488739
 30
0.0
 11
154.495193
 21
494.506317
 31
0.0
210
0.0
220
0.0
230
1.0
  0
LINE
  5
47A
100
AcDbEntity
  8
0
370
    35
390
0
 62
     7
 48
0.125
100
AcDbLine
 10
154.495193
 20
494.506317
 30
0.0
 11
152.530365
 21
499.104065
 31
0.0
210
0.0
220
0.0
230
1.0
  0
LINE
  5
47B
100
AcDbEntity
  8
0
370
    35
390
0
 62
     7
100
AcDbLine
 10
205.900787
 20
477.663208
 30
0.0
 11
205.900787
 21
517.663208
 31
0.0
210
0.0
220
0.0
230
1.0
  0
LINE
  5
47C
100
AcDbEntity
  8
0
370
    35
390
0
 62
     7
100
AcDbLine
 10
182.384949
 20
477.663208
 30
0.0
 11
182.384949
 21
517.663208
 31
0.0
210
0.0
220
0.0
230
1.0
  0
LINE
  5
47D
100
AcDbEntity
  8
0
370
    35
390
0
 62
     7
100
AcDbLine
 10
205.900787
 20
477.663208
 30
0.0
 11
182.384949
 21
477.663208
 31
0.0
210
0.0
220
0.0
230
1.0
  0
LINE
  5
47E
100
AcDbEntity
  8
0
370
    35
390
0
 62
     7
100
AcDbLine
 10
205.900787
 20
517.663208
 30
0.0
 11
182.384949
 21
517.663208
 31
0.0
210
0.0
220
0.0
230
1.0
  0
LINE
  5
47F
100
AcDbEntity
  8
0
370
    35
390
0
 62
     7
100
AcDbLine
 10
235.938263
 20
477.907196
 30
0.0
 11
235.938263
 21
517.907227
 31
0.0
210
0.0
220
0.0
230
1.0
  0
LINE
  5
480
100
AcDbEntity
  8
0
370
    35
390
0
 62
     7
100
AcDbLine
 10
212.422424
 20
477.907196
 30
0.0
 11
212.422424
 21
517.907227
 31
0.0
210
0.0
220
0.0
230
1.0
  0
LINE
  5
481
100
AcDbEntity
  8
0
370
    35
390
0
 62
     7
100
AcDbLine
 10
235.938263
 20
477.907196
 30
0.0
 11
212.422424
 21
477.907196
 31
0.0
210
0.0
220
0.0
230
1.0
  0
LINE
  5
482
100
AcDbEntity
  8
0
370
    35
390
0
 62
     7
100
AcDbLine
 10
235.938263
 20
517.907227
 30
0.0
 11
212.422424
 21
517.907227
 31
0.0
210
0.0
220
0.0
230
1.0
  0
LINE
  5
483
100
AcDbEntity
  8
0
370
    35
390
0
 62
     7
100
AcDbLine
 10
267.771454
 20
480.832458
 30
0.0
 11
267.771454
 21
520.832458
 31
0.0
210
0.0
220
0.0
230
1.0
  0
LINE
  5
484
100
AcDbEntity
  8
0
370
    35
390
0
 62
     7
100
AcDbLine
 10
244.255615
 20
480.832458
 30
0.0
 11
244.255615
 21
520.832458
 31
0.0
210
0.0
220
0.0
230
1.0
  0
LINE
  5
485
100
AcDbEntity
  8
0
370
    35
390
0
 62
     7
100
AcDbLine
 10
267.771454
 20
480.832458
 30
0.0
 11
244.255615
 21
480.832458
 31
0.0
210
0.0
220
0.0
230
1.0
  0
LINE
  5
486
100
AcDbEntity
  8
0
370
    35
390
0
 62
     7
100
AcDbLine
 10
267.771454
 20
520.832458
 30
0.0
 11
244.255615
 21
520.832458
 31
0.0
210
0.0
220
0.0
230
1.0
  0
LINE
  5
487
100
AcDbEntity
  8
0
370
    35
390
0
 62
     7
100
AcDbLine
 10
297.491882
 20
498.032593
 30
0.0
 11
297.491882
 21
538.032593
 31
0.0
210
0.0
220
0.0
230
1.0
  0
LINE
  5
488
100
AcDbEntity
  8
0
370
    35
390
0
 62
     7
100
AcDbLine
 10
273.976044
 20
498.032593
 30
0.0
 11
273.976044
 21
538.032593
 31
0.0
210
0.0
220
0.0
230
1.0
  0
LINE
  5
489
100
AcDbEntity
  8
0
370
    35
390
0
 62
     7
100
AcDbLine
 10
297.491882
 20
498.032593
 30
0.0
 11
273.976044
 21
498.032593
 31
0.0
210
0.0
220
0.0
230
1.0
  0
LINE
  5
48A
100
AcDbEntity
  8
0
370
    35
390
0
 62
     7
100
AcDbLine
 10
297.491882
 20
538.032593
 30
0.0
 11
273.976044
 21
538.032593
 31
0.0
210
0.0
220
0.0
230
1.0
  0
LINE
  5
48B
100
AcDbEntity
  8
0
370
    35
390
0
 62
     7
100
AcDbLine
 10
581.8797
 20
564.734436
 30
0.0
 11
581.8797
 21
604.734436
 31
0.0
210
0.0
220
0.0
230
1.0
  0
LINE
  5
48C
100
AcDbEntity
  8
0
370
    35
390
0
 62
     7
100
AcDbLine
 10
558.363892
 20
564.734436
 30
0.0
 11
558.363892
 21
604.734436
 31
0.0
210
0.0
220
0.0
230
1.0
  0
LINE
  5
48D
100
AcDbEntity
  8
0
370
    35
390
0
 62
     7
100
AcDbLine
 10
581.8797
 20
564.734436
 30
0.0
 11
558.363892
 21
564.734436
 31
0.0
210
0.0
220
0.0
230
1.0
  0
LINE
  5
48E
100
AcDbEntity
  8
0
370
    35
390
0
 62
     7
100
AcDbLine
 10
581.8797
 20
604.734436
 30
0.0
 11
558.363892
 21
604.734436
 31
0.0
210
0.0
220
0.0
230
1.0
  0
LINE
  5
48F
100
AcDbEntity
  8
0
370
    35
390
0
 62
     7
100
AcDbLine
 10
326.680786
 20
504.789185
 30
0.0
 11
326.680786
 21
544.789185
 31
0.0
210
0.0
220
0.0
230
1.0
  0
LINE
  5
490
100
AcDbEntity
  8
0
370
    35
390
0
 62
     7
100
AcDbLine
 10
303.164948
 20
504.789185
 30
0.0
 11
303.164948
 21
544.789185
 31
0.0
210
0.0
220
0.0
230
1.0
  0
LINE
  5
491
100
AcDbEntity
  8
0
370
    35
390
0
 62
     7
100
AcDbLine
 10
326.680786
 20
504.789185
 30
0.0
 11
303.164948
 21
504.789185
 31
0.0
210
0.0
220
0.0
230
1.0
  0
LINE
  5
492
100
AcDbEntity
  8
0
370
    35
390
0
 62
     7
100
AcDbLine
 10
326.680786
 20
544.789185
 30
0.0
 11
303.164948
 21
544.789185
 31
0.0
210
0.0
220
0.0
230
1.0
  0
LINE
  5
493
100
AcDbEntity
  8
0
370
    35
390
0
 62
     7
100
AcDbLine
 10
357.655975
 20
507.00238
 30
0.0
 11
357.655975
 21
547.00238
 31
0.0
210
0.0
220
0.0
230
1.0
  0
LINE
  5
494
100
AcDbEntity
  8
0
370
    35
390
0
 62
     7
100
AcDbLine
 10
334.140137
 20
507.00238
 30
0.0
 11
334.140137
 21
547.00238
 31
0.0
210
0.0
220
0.0
230
1.0
  0
LINE
  5
495
100
AcDbEntity
  8
0
370
    35
390
0
 62
     7
100
AcDbLine
 10
357.655975
 20
507.00238
 30
0.0
 11
334.140137
 21
507.00238
 31
0.0
210
0.0
220
0.0
230
1.0
  0
LINE
  5
496
100
AcDbEntity
  8
0
370
    35
390
0
 62
     7
100
AcDbLine
 10
357.655975
 20
547.00238
 30
0.0
 11
334.140137
 21
547.00238
 31
0.0
210
0.0
220
0.0
230
1.0
  0
LINE
  5
497
100
AcDbEntity
  8
0
370
    35
390
0
 62
     7
100
AcDbLine
 10
386.747223
 20
526.761963
 30
0.0
 11
386.747223
 21
566.761963
 31
0.0
210
0.0
220
0.0
230
1.0
  0
LINE
  5
498
100
AcDbEntity
  8
0
370
    35
390
0
 62
     7
100
AcDbLine
 10
363.231384
 20
526.761963
 30
0.0
 11
363.231384
 21
566.761963
 31
0.0
210
0.0
220
0.0
230
1.0
  0
LINE
  5
499
100
AcDbEntity
  8
0
370
    35
390
0
 62
     7
100
AcDbLine
 10
386.747223
 20
526.761963
 30
0.0
 11
363.231384
 21
526.761963
 31
0.0
210
0.0
220
0.0
230
1.0
  0
LINE
  5
49A
100
AcDbEntity
  8
0
370
    35
390
0
 62
     7
100
AcDbLine
 10
386.747223
 20
566.761963
 30
0.0
 11
363.231384
 21
566.761963
 31
0.0
210
0.0
220
0.0
230
1.0
  0
LINE
  5
49B
100
AcDbEntity
  8
0
370
    35
390
0
 62
     7
100
AcDbLine
 10
418.288086
 20
505.468445
 30
0.0
 11
418.288086
 21
545.468445
 31
0.0
210
0.0
220
0.0
230
1.0
  0
LINE
  5
49C
100
AcDbEntity
  8
0
370
    35
390
0
 62
     7
100
AcDbLine
 10
394.772247
 20
505.468445
 30
0.0
 11
394.772247
 21
545.468445
 31
0.0
210
0.0
220
0.0
230
1.0
  0
LINE
  5
49D
100
AcDbEntity
  8
0
370
    35
390
0
 62
     7
100
AcDbLine
 10
418.288086
 20
505.468445
 30
0.0
 11
394.772247
 21
505.468445
 31
0.0
210
0.0
220
0.0
230
1.0
  0
LINE
  5
49E
100
AcDbEntity
  8
0
370
    35
390
0
 62
     7
100
AcDbLine
 10
418.288086
 20
545.468445
 30
0.0
 11
394.772247
 21
545.468445
 31
0.0
210
0.0
220
0.0
230
1.0
  0
LINE
  5
49F
100
AcDbEntity
  8
0
370
    35
390
0
 62
     7
100
AcDbLine
 10
387.892242
 20
480.44101
 30
0.0
 11
387.892242
 21
520.44104
 31
0.0
210
0.0
220
0.0
230
1.0
  0
LINE
  5
4A0
100
AcDbEntity
  8
0
370
    35
390
0
 62
     7
100
AcDbLine
 10
364.376404
 20
480.44101
 30
0.0
 11
364.376404
 21
520.44104
 31
0.0
210
0.0
220
0.0
230
1.0
  0
LINE
  5
4A1
100
AcDbEntity
  8
0
370
    35
390
0
 62
     7
100
AcDbLine
 10
387.892242
 20
480.44101
 30
0.0
 11
364.376404
 21
480.44101
 31
0.0
210
0.0
220
0.0
230
1.0
  0
LINE
  5
4A2
100
AcDbEntity
  8
0
370
    35
390
0
 62
     7
100
AcDbLine
 10
387.892242
 20
520.44104
 30
0.0
 11
364.376404
 21
520.44104
 31
0.0
210
0.0
220
0.0
230
1.0
  0
LINE
  5
4A3
100
AcDbEntity
  8
0
370
    35
390
0
 62
     7
100
AcDbLine
 10
581.800659
 20
494.851685
 30
0.0
 11
581.800659
 21
534.851685
 31
0.0
210
0.0
220
0.0
230
1.0
  0
LINE
  5
4A4
100
AcDbEntity
  8
0
370
    35
390
0
 62
     7
100
AcDbLine
 10
558.284851
 20
494.851685
 30
0.0
 11
558.284851
 21
534.851685
 31
0.0
210
0.0
220
0.0
230
1.0
  0
LINE
  5
4A5
100
AcDbEntity
  8
0
370
    35
390
0
 62
     7
100
AcDbLine
 10
581.800659
 20
494.851685
 30
0.0
 11
558.284851
 21
494.851685
 31
0.0
210
0.0
220
0.0
230
1.0
  0
LINE
  5
4A6
100
AcDbEntity
  8
0
370
    35
390
0
 62
     7
100
AcDbLine
 10
581.800659
 20
534.851685
 30
0.0
 11
558.284851
 21
534.851685
 31
0.0
210
0.0
220
0.0
230
1.0
  0
LINE
  5
4A7
100
AcDbEntity
  8
0
370
    35
390
0
 62
     7
100
AcDbLine
 10
447.02475
 20
499.56955
 30
0.0
 11
447.02475
 21
539.56958
 31
0.0
210
0.0
220
0.0
230
1.0
  0
LINE
  5
4A8
100
AcDbEntity
  8
0
370
    35
390
0
 62
     7
100
AcDbLine
 10
423.508911
 20
499.56955
 30
0.0
 11
423.508911
 21
539.56958
 31
0.0
210
0.0
220
0.0
230
1.0
  0
LINE
  5
4A9
100
AcDbEntity
  8
0
370
    35
390
0
 62
     7
100
AcDbLine
 10
447.02475
 20
499.56955
 30
0.0
 11
423.508911
 21
499.56955
 31
0.0
210
0.0
220
0.0
230
1.0
  0
LINE
  5
4AA
100
AcDbEntity
  8
0
370
    35
390
0
 62
     7
100
AcDbLine
 10
447.02475
 20
539.56958
 30
0.0
 11
423.508911
 21
539.56958
 31
0.0
210
0.0
220
0.0
230
1.0
  0
ENDSEC
  0
SECTION
  2
OBJECTS
  0
DICTIONARY
  5
19
100
AcDbDictionary
280
     0
281
     1
  3
ACAD_GROUP
350
1A
  3
ACAD_MLINESTYLE
350
1B
  3
ACAD_LAYOUT
350
1E
  3
ACAD_PLOTSETTINGS
350
22
  3
ACAD_PLOTSTYLENAME
350
1F
  3
ACAD_WIPEOUT_VARS
350
23
  0
DICTIONARY
  5
1A
102
{ACAD_REACTORS
330
19
102
}
100
AcDbDictionary
280
     0
281
     1
  0
DICTIONARY
  5
1B
102
{ACAD_REACTORS
330
19
102
}
100
AcDbDictionary
280
     0
281
     1
  3
Standard
350
1C
  0
MLINESTYLE
  5
1C
102
{ACAD_REACTORS
330
1B
102
}
100
AcDbMlineStyle
  2
Standard
 70
     0
  3

 62
     0
 51
90.0
 52
90.0
 71
     2
 49
0.5
 62
   256
  6
ByLayer
 49
-0.5
 62
   256
  6
ByLayer
  0
ACDBDICTIONARYWDFLT
  5
1F
102
{ACAD_REACTORS
330
19
102
}
100
AcDbDictionary
281
     1
  3
Normal
350
1D
100
AcDbDictionaryWithDefault
340
1D
  0
ACDBPLACEHOLDER
  5
1D
102
{ACAD_REACTORS
330
1F
102
}
  0
LAYOUT
  5
20
102
{ACAD_REACTORS
330
1E
102
}
100
AcDbPlotSettings
  1

  2

  4

  6

 40
0.0
 41
0.0
 42
0.0
 43
0.0
 44
0.0
 45
0.0
 46
0.0
 47
0.0
 48
0.0
 49
0.0
140
0.0
141
0.0
142
1.0
143
1.0
 70
  1024
 72
     0
 73
     0
 74
     0
  7

 75
     0
147
1.0
148
0.0
149
0.0
100
AcDbLayout
  1
Model
 70
     0
 71
     0
 10
0.0
 20
0.0
 11
0.0
 21
0.0
 12
0.0
 22
0.0
 32
0.0
 14
0.0
 24
0.0
 34
0.0
 15
0.0
 25
0.0
 35
0.0
146
0.0
 13
0.0
 23
0.0
 33
0.0
 16
0.0
 26
0.0
 36
0.0
 17
0.0
 27
0.0
 37
0.0
 76
     0
330
A
331
0
345
0
346
0
  0
LAYOUT
  5
21
102
{ACAD_REACTORS
330
1E
102
}
100
AcDbPlotSettings
  1

  2

  4

  6

 40
0.0
 41
0.0
 42
0.0
 43
0.0
 44
0.0
 45
0.0
 46
0.0
 47
0.0
 48
0.0
 49
0.0
140
0.0
141
0.0
142
1.0
143
1.0
 70
     0
 72
     0
 73
     0
 74
     0
  7

 75
     0
147
1.0
148
0.0
149
0.0
100
AcDbLayout
  1
Layout1
 70
     0
 71
     0
 10
0.0
 20
0.0
 11
0.0
 21
0.0
 12
0.0
 22
0.0
 32
0.0
 14
0.0
 24
0.0
 34
0.0
 15
0.0
 25
0.0
 35
0.0
146
0.0
 13
0.0
 23
0.0
 33
0.0
 16
0.0
 26
0.0
 36
0.0
 17
0.0
 27
0.0
 37
0.0
 76
     0
330
B
331
0
345
0
346
0
  0
DICTIONARY
  5
1E
102
{ACAD_REACTORS
330
19
102
}
100
AcDbDictionary
280
     0
281
     1
  3
Layout1
350
21
  3
Model
350
20
  0
DICTIONARY
  5
22
102
{ACAD_REACTORS
330
19
102
}
100
AcDbDictionary
280
     0
281
     1
  0
WIPEOUTVARIABLES
  5
23
100
AcDbWipeoutVariables
 70
     1
  0
ENDSEC
  0
EOF
