G04 #@! TF.FileFunction,Legend,Top*
%FSLAX46Y46*%
G04 Gerber Fmt 4.6, Leading zero omitted, Abs format (unit mm)*
G04 Created by KiCad (PCBNEW 4.0.7) date 03/11/18 20:05:57*
%MOMM*%
%LPD*%
G01*
G04 APERTURE LIST*
%ADD10C,0.100000*%
%ADD11C,0.200000*%
%ADD12C,0.300000*%
%ADD13C,0.010000*%
%ADD14C,0.150000*%
%ADD15C,0.120000*%
G04 APERTURE END LIST*
D10*
D11*
X96012000Y-114554000D02*
X70739000Y-114554000D01*
X70739000Y-120904000D02*
X96012000Y-120904000D01*
X70739000Y-114554000D02*
X70739000Y-120904000D01*
X96012000Y-114554000D02*
X96012000Y-120904000D01*
D12*
X132123571Y-140898285D02*
X130623571Y-140898285D01*
X130623571Y-140326857D01*
X130695000Y-140183999D01*
X130766429Y-140112571D01*
X130909286Y-140041142D01*
X131123571Y-140041142D01*
X131266429Y-140112571D01*
X131337857Y-140183999D01*
X131409286Y-140326857D01*
X131409286Y-140898285D01*
X132123571Y-139398285D02*
X131123571Y-139398285D01*
X131409286Y-139398285D02*
X131266429Y-139326857D01*
X131195000Y-139255428D01*
X131123571Y-139112571D01*
X131123571Y-138969714D01*
X132123571Y-138255428D02*
X132052143Y-138398286D01*
X131980714Y-138469714D01*
X131837857Y-138541143D01*
X131409286Y-138541143D01*
X131266429Y-138469714D01*
X131195000Y-138398286D01*
X131123571Y-138255428D01*
X131123571Y-138041143D01*
X131195000Y-137898286D01*
X131266429Y-137826857D01*
X131409286Y-137755428D01*
X131837857Y-137755428D01*
X131980714Y-137826857D01*
X132052143Y-137898286D01*
X132123571Y-138041143D01*
X132123571Y-138255428D01*
X131123571Y-136469714D02*
X132337857Y-136469714D01*
X132480714Y-136541143D01*
X132552143Y-136612571D01*
X132623571Y-136755428D01*
X132623571Y-136969714D01*
X132552143Y-137112571D01*
X132052143Y-136469714D02*
X132123571Y-136612571D01*
X132123571Y-136898285D01*
X132052143Y-137041143D01*
X131980714Y-137112571D01*
X131837857Y-137184000D01*
X131409286Y-137184000D01*
X131266429Y-137112571D01*
X131195000Y-137041143D01*
X131123571Y-136898285D01*
X131123571Y-136612571D01*
X131195000Y-136469714D01*
X131568000Y-147903143D02*
X131568000Y-147188857D01*
X131996571Y-148046000D02*
X130496571Y-147546000D01*
X131996571Y-147046000D01*
X131996571Y-146331714D02*
X131925143Y-146474572D01*
X131782286Y-146546000D01*
X130496571Y-146546000D01*
X131996571Y-145760286D02*
X130996571Y-145760286D01*
X130496571Y-145760286D02*
X130568000Y-145831715D01*
X130639429Y-145760286D01*
X130568000Y-145688858D01*
X130496571Y-145760286D01*
X130639429Y-145760286D01*
X131996571Y-145046000D02*
X130996571Y-145046000D01*
X131139429Y-145046000D02*
X131068000Y-144974572D01*
X130996571Y-144831714D01*
X130996571Y-144617429D01*
X131068000Y-144474572D01*
X131210857Y-144403143D01*
X131996571Y-144403143D01*
X131210857Y-144403143D02*
X131068000Y-144331714D01*
X130996571Y-144188857D01*
X130996571Y-143974572D01*
X131068000Y-143831714D01*
X131210857Y-143760286D01*
X131996571Y-143760286D01*
X47938429Y-137255287D02*
X47938429Y-136541001D01*
X47224143Y-136469572D01*
X47295571Y-136541001D01*
X47367000Y-136683858D01*
X47367000Y-137041001D01*
X47295571Y-137183858D01*
X47224143Y-137255287D01*
X47081286Y-137326715D01*
X46724143Y-137326715D01*
X46581286Y-137255287D01*
X46509857Y-137183858D01*
X46438429Y-137041001D01*
X46438429Y-136683858D01*
X46509857Y-136541001D01*
X46581286Y-136469572D01*
X47938429Y-137755286D02*
X46438429Y-138255286D01*
X47938429Y-138755286D01*
X72538144Y-117370714D02*
X72466715Y-117442143D01*
X72252429Y-117513571D01*
X72109572Y-117513571D01*
X71895287Y-117442143D01*
X71752429Y-117299286D01*
X71681001Y-117156429D01*
X71609572Y-116870714D01*
X71609572Y-116656429D01*
X71681001Y-116370714D01*
X71752429Y-116227857D01*
X71895287Y-116085000D01*
X72109572Y-116013571D01*
X72252429Y-116013571D01*
X72466715Y-116085000D01*
X72538144Y-116156429D01*
X73681001Y-116727857D02*
X73181001Y-116727857D01*
X73181001Y-117513571D02*
X73181001Y-116013571D01*
X73895287Y-116013571D01*
X75323858Y-117513571D02*
X74823858Y-116799286D01*
X74466715Y-117513571D02*
X74466715Y-116013571D01*
X75038143Y-116013571D01*
X75181001Y-116085000D01*
X75252429Y-116156429D01*
X75323858Y-116299286D01*
X75323858Y-116513571D01*
X75252429Y-116656429D01*
X75181001Y-116727857D01*
X75038143Y-116799286D01*
X74466715Y-116799286D01*
X75895286Y-116156429D02*
X75966715Y-116085000D01*
X76109572Y-116013571D01*
X76466715Y-116013571D01*
X76609572Y-116085000D01*
X76681001Y-116156429D01*
X76752429Y-116299286D01*
X76752429Y-116442143D01*
X76681001Y-116656429D01*
X75823858Y-117513571D01*
X76752429Y-117513571D01*
X77681000Y-116013571D02*
X77823857Y-116013571D01*
X77966714Y-116085000D01*
X78038143Y-116156429D01*
X78109572Y-116299286D01*
X78181000Y-116585000D01*
X78181000Y-116942143D01*
X78109572Y-117227857D01*
X78038143Y-117370714D01*
X77966714Y-117442143D01*
X77823857Y-117513571D01*
X77681000Y-117513571D01*
X77538143Y-117442143D01*
X77466714Y-117370714D01*
X77395286Y-117227857D01*
X77323857Y-116942143D01*
X77323857Y-116585000D01*
X77395286Y-116299286D01*
X77466714Y-116156429D01*
X77538143Y-116085000D01*
X77681000Y-116013571D01*
X79609571Y-117513571D02*
X78752428Y-117513571D01*
X79181000Y-117513571D02*
X79181000Y-116013571D01*
X79038143Y-116227857D01*
X78895285Y-116370714D01*
X78752428Y-116442143D01*
X80466714Y-116656429D02*
X80323856Y-116585000D01*
X80252428Y-116513571D01*
X80180999Y-116370714D01*
X80180999Y-116299286D01*
X80252428Y-116156429D01*
X80323856Y-116085000D01*
X80466714Y-116013571D01*
X80752428Y-116013571D01*
X80895285Y-116085000D01*
X80966714Y-116156429D01*
X81038142Y-116299286D01*
X81038142Y-116370714D01*
X80966714Y-116513571D01*
X80895285Y-116585000D01*
X80752428Y-116656429D01*
X80466714Y-116656429D01*
X80323856Y-116727857D01*
X80252428Y-116799286D01*
X80180999Y-116942143D01*
X80180999Y-117227857D01*
X80252428Y-117370714D01*
X80323856Y-117442143D01*
X80466714Y-117513571D01*
X80752428Y-117513571D01*
X80895285Y-117442143D01*
X80966714Y-117370714D01*
X81038142Y-117227857D01*
X81038142Y-116942143D01*
X80966714Y-116799286D01*
X80895285Y-116727857D01*
X80752428Y-116656429D01*
X82823856Y-116942143D02*
X83966713Y-116942143D01*
X85823856Y-116727857D02*
X86323856Y-116727857D01*
X86538142Y-117513571D02*
X85823856Y-117513571D01*
X85823856Y-116013571D01*
X86538142Y-116013571D01*
X87823856Y-116513571D02*
X87823856Y-117513571D01*
X87180999Y-116513571D02*
X87180999Y-117299286D01*
X87252427Y-117442143D01*
X87395285Y-117513571D01*
X87609570Y-117513571D01*
X87752427Y-117442143D01*
X87823856Y-117370714D01*
X89180999Y-117442143D02*
X89038142Y-117513571D01*
X88752428Y-117513571D01*
X88609570Y-117442143D01*
X88538142Y-117370714D01*
X88466713Y-117227857D01*
X88466713Y-116799286D01*
X88538142Y-116656429D01*
X88609570Y-116585000D01*
X88752428Y-116513571D01*
X89038142Y-116513571D01*
X89180999Y-116585000D01*
X90466713Y-116513571D02*
X90466713Y-117513571D01*
X89823856Y-116513571D02*
X89823856Y-117299286D01*
X89895284Y-117442143D01*
X90038142Y-117513571D01*
X90252427Y-117513571D01*
X90395284Y-117442143D01*
X90466713Y-117370714D01*
X91680999Y-116727857D02*
X91895285Y-116799286D01*
X91966713Y-116870714D01*
X92038142Y-117013571D01*
X92038142Y-117227857D01*
X91966713Y-117370714D01*
X91895285Y-117442143D01*
X91752427Y-117513571D01*
X91180999Y-117513571D01*
X91180999Y-116013571D01*
X91680999Y-116013571D01*
X91823856Y-116085000D01*
X91895285Y-116156429D01*
X91966713Y-116299286D01*
X91966713Y-116442143D01*
X91895285Y-116585000D01*
X91823856Y-116656429D01*
X91680999Y-116727857D01*
X91180999Y-116727857D01*
X92895285Y-117513571D02*
X92752427Y-117442143D01*
X92680999Y-117370714D01*
X92609570Y-117227857D01*
X92609570Y-116799286D01*
X92680999Y-116656429D01*
X92752427Y-116585000D01*
X92895285Y-116513571D01*
X93109570Y-116513571D01*
X93252427Y-116585000D01*
X93323856Y-116656429D01*
X93395285Y-116799286D01*
X93395285Y-117227857D01*
X93323856Y-117370714D01*
X93252427Y-117442143D01*
X93109570Y-117513571D01*
X92895285Y-117513571D01*
X93823856Y-116513571D02*
X94395285Y-116513571D01*
X94038142Y-116013571D02*
X94038142Y-117299286D01*
X94109570Y-117442143D01*
X94252428Y-117513571D01*
X94395285Y-117513571D01*
X77859573Y-119920714D02*
X77788144Y-119992143D01*
X77573858Y-120063571D01*
X77431001Y-120063571D01*
X77216716Y-119992143D01*
X77073858Y-119849286D01*
X77002430Y-119706429D01*
X76931001Y-119420714D01*
X76931001Y-119206429D01*
X77002430Y-118920714D01*
X77073858Y-118777857D01*
X77216716Y-118635000D01*
X77431001Y-118563571D01*
X77573858Y-118563571D01*
X77788144Y-118635000D01*
X77859573Y-118706429D01*
X79145287Y-120063571D02*
X79145287Y-119277857D01*
X79073858Y-119135000D01*
X78931001Y-119063571D01*
X78645287Y-119063571D01*
X78502430Y-119135000D01*
X79145287Y-119992143D02*
X79002430Y-120063571D01*
X78645287Y-120063571D01*
X78502430Y-119992143D01*
X78431001Y-119849286D01*
X78431001Y-119706429D01*
X78502430Y-119563571D01*
X78645287Y-119492143D01*
X79002430Y-119492143D01*
X79145287Y-119420714D01*
X79859573Y-120063571D02*
X79859573Y-119063571D01*
X79859573Y-119349286D02*
X79931001Y-119206429D01*
X80002430Y-119135000D01*
X80145287Y-119063571D01*
X80288144Y-119063571D01*
X80573858Y-119063571D02*
X81145287Y-119063571D01*
X80788144Y-118563571D02*
X80788144Y-119849286D01*
X80859572Y-119992143D01*
X81002430Y-120063571D01*
X81145287Y-120063571D01*
X82216715Y-119992143D02*
X82073858Y-120063571D01*
X81788144Y-120063571D01*
X81645287Y-119992143D01*
X81573858Y-119849286D01*
X81573858Y-119277857D01*
X81645287Y-119135000D01*
X81788144Y-119063571D01*
X82073858Y-119063571D01*
X82216715Y-119135000D01*
X82288144Y-119277857D01*
X82288144Y-119420714D01*
X81573858Y-119563571D01*
X84073858Y-120063571D02*
X84073858Y-119063571D01*
X84073858Y-119206429D02*
X84145286Y-119135000D01*
X84288144Y-119063571D01*
X84502429Y-119063571D01*
X84645286Y-119135000D01*
X84716715Y-119277857D01*
X84716715Y-120063571D01*
X84716715Y-119277857D02*
X84788144Y-119135000D01*
X84931001Y-119063571D01*
X85145286Y-119063571D01*
X85288144Y-119135000D01*
X85359572Y-119277857D01*
X85359572Y-120063571D01*
X86645286Y-119992143D02*
X86502429Y-120063571D01*
X86216715Y-120063571D01*
X86073858Y-119992143D01*
X86002429Y-119849286D01*
X86002429Y-119277857D01*
X86073858Y-119135000D01*
X86216715Y-119063571D01*
X86502429Y-119063571D01*
X86645286Y-119135000D01*
X86716715Y-119277857D01*
X86716715Y-119420714D01*
X86002429Y-119563571D01*
X86216715Y-118492143D02*
X86431001Y-118706429D01*
X87359572Y-120063571D02*
X87359572Y-119063571D01*
X87359572Y-119349286D02*
X87431000Y-119206429D01*
X87502429Y-119135000D01*
X87645286Y-119063571D01*
X87788143Y-119063571D01*
X88859571Y-119992143D02*
X88716714Y-120063571D01*
X88431000Y-120063571D01*
X88288143Y-119992143D01*
X88216714Y-119849286D01*
X88216714Y-119277857D01*
X88288143Y-119135000D01*
X88431000Y-119063571D01*
X88716714Y-119063571D01*
X88859571Y-119135000D01*
X88931000Y-119277857D01*
X88931000Y-119420714D01*
X88216714Y-119563571D01*
X92282000Y-132377571D02*
X92282000Y-130877571D01*
X92639143Y-130877571D01*
X92853428Y-130949000D01*
X92996286Y-131091857D01*
X93067714Y-131234714D01*
X93139143Y-131520429D01*
X93139143Y-131734714D01*
X93067714Y-132020429D01*
X92996286Y-132163286D01*
X92853428Y-132306143D01*
X92639143Y-132377571D01*
X92282000Y-132377571D01*
X93782000Y-132377571D02*
X93782000Y-131377571D01*
X93782000Y-130877571D02*
X93710571Y-130949000D01*
X93782000Y-131020429D01*
X93853428Y-130949000D01*
X93782000Y-130877571D01*
X93782000Y-131020429D01*
X95139143Y-131377571D02*
X95139143Y-132591857D01*
X95067714Y-132734714D01*
X94996286Y-132806143D01*
X94853429Y-132877571D01*
X94639143Y-132877571D01*
X94496286Y-132806143D01*
X95139143Y-132306143D02*
X94996286Y-132377571D01*
X94710572Y-132377571D01*
X94567714Y-132306143D01*
X94496286Y-132234714D01*
X94424857Y-132091857D01*
X94424857Y-131663286D01*
X94496286Y-131520429D01*
X94567714Y-131449000D01*
X94710572Y-131377571D01*
X94996286Y-131377571D01*
X95139143Y-131449000D01*
X95853429Y-132377571D02*
X95853429Y-131377571D01*
X95853429Y-130877571D02*
X95782000Y-130949000D01*
X95853429Y-131020429D01*
X95924857Y-130949000D01*
X95853429Y-130877571D01*
X95853429Y-131020429D01*
X96353429Y-131377571D02*
X96924858Y-131377571D01*
X96567715Y-130877571D02*
X96567715Y-132163286D01*
X96639143Y-132306143D01*
X96782001Y-132377571D01*
X96924858Y-132377571D01*
X98067715Y-132377571D02*
X98067715Y-131591857D01*
X97996286Y-131449000D01*
X97853429Y-131377571D01*
X97567715Y-131377571D01*
X97424858Y-131449000D01*
X98067715Y-132306143D02*
X97924858Y-132377571D01*
X97567715Y-132377571D01*
X97424858Y-132306143D01*
X97353429Y-132163286D01*
X97353429Y-132020429D01*
X97424858Y-131877571D01*
X97567715Y-131806143D01*
X97924858Y-131806143D01*
X98067715Y-131734714D01*
X98996287Y-132377571D02*
X98853429Y-132306143D01*
X98782001Y-132163286D01*
X98782001Y-130877571D01*
X100710572Y-132377571D02*
X100710572Y-130877571D01*
X101710572Y-130877571D02*
X101996286Y-130877571D01*
X102139144Y-130949000D01*
X102282001Y-131091857D01*
X102353429Y-131377571D01*
X102353429Y-131877571D01*
X102282001Y-132163286D01*
X102139144Y-132306143D01*
X101996286Y-132377571D01*
X101710572Y-132377571D01*
X101567715Y-132306143D01*
X101424858Y-132163286D01*
X101353429Y-131877571D01*
X101353429Y-131377571D01*
X101424858Y-131091857D01*
X101567715Y-130949000D01*
X101710572Y-130877571D01*
X92536000Y-148887571D02*
X92536000Y-147387571D01*
X92893143Y-147387571D01*
X93107428Y-147459000D01*
X93250286Y-147601857D01*
X93321714Y-147744714D01*
X93393143Y-148030429D01*
X93393143Y-148244714D01*
X93321714Y-148530429D01*
X93250286Y-148673286D01*
X93107428Y-148816143D01*
X92893143Y-148887571D01*
X92536000Y-148887571D01*
X94036000Y-148887571D02*
X94036000Y-147887571D01*
X94036000Y-147387571D02*
X93964571Y-147459000D01*
X94036000Y-147530429D01*
X94107428Y-147459000D01*
X94036000Y-147387571D01*
X94036000Y-147530429D01*
X95393143Y-147887571D02*
X95393143Y-149101857D01*
X95321714Y-149244714D01*
X95250286Y-149316143D01*
X95107429Y-149387571D01*
X94893143Y-149387571D01*
X94750286Y-149316143D01*
X95393143Y-148816143D02*
X95250286Y-148887571D01*
X94964572Y-148887571D01*
X94821714Y-148816143D01*
X94750286Y-148744714D01*
X94678857Y-148601857D01*
X94678857Y-148173286D01*
X94750286Y-148030429D01*
X94821714Y-147959000D01*
X94964572Y-147887571D01*
X95250286Y-147887571D01*
X95393143Y-147959000D01*
X96107429Y-148887571D02*
X96107429Y-147887571D01*
X96107429Y-147387571D02*
X96036000Y-147459000D01*
X96107429Y-147530429D01*
X96178857Y-147459000D01*
X96107429Y-147387571D01*
X96107429Y-147530429D01*
X96607429Y-147887571D02*
X97178858Y-147887571D01*
X96821715Y-147387571D02*
X96821715Y-148673286D01*
X96893143Y-148816143D01*
X97036001Y-148887571D01*
X97178858Y-148887571D01*
X98321715Y-148887571D02*
X98321715Y-148101857D01*
X98250286Y-147959000D01*
X98107429Y-147887571D01*
X97821715Y-147887571D01*
X97678858Y-147959000D01*
X98321715Y-148816143D02*
X98178858Y-148887571D01*
X97821715Y-148887571D01*
X97678858Y-148816143D01*
X97607429Y-148673286D01*
X97607429Y-148530429D01*
X97678858Y-148387571D01*
X97821715Y-148316143D01*
X98178858Y-148316143D01*
X98321715Y-148244714D01*
X99250287Y-148887571D02*
X99107429Y-148816143D01*
X99036001Y-148673286D01*
X99036001Y-147387571D01*
X100964572Y-148887571D02*
X100964572Y-147387571D01*
X101964572Y-147387571D02*
X102250286Y-147387571D01*
X102393144Y-147459000D01*
X102536001Y-147601857D01*
X102607429Y-147887571D01*
X102607429Y-148387571D01*
X102536001Y-148673286D01*
X102393144Y-148816143D01*
X102250286Y-148887571D01*
X101964572Y-148887571D01*
X101821715Y-148816143D01*
X101678858Y-148673286D01*
X101607429Y-148387571D01*
X101607429Y-147887571D01*
X101678858Y-147601857D01*
X101821715Y-147459000D01*
X101964572Y-147387571D01*
X120749143Y-129821428D02*
X120820571Y-129607142D01*
X120820571Y-129249999D01*
X120749143Y-129107142D01*
X120677714Y-129035713D01*
X120534857Y-128964285D01*
X120392000Y-128964285D01*
X120249143Y-129035713D01*
X120177714Y-129107142D01*
X120106286Y-129249999D01*
X120034857Y-129535713D01*
X119963429Y-129678571D01*
X119892000Y-129749999D01*
X119749143Y-129821428D01*
X119606286Y-129821428D01*
X119463429Y-129749999D01*
X119392000Y-129678571D01*
X119320571Y-129535713D01*
X119320571Y-129178571D01*
X119392000Y-128964285D01*
X120749143Y-127750000D02*
X120820571Y-127892857D01*
X120820571Y-128178571D01*
X120749143Y-128321428D01*
X120606286Y-128392857D01*
X120034857Y-128392857D01*
X119892000Y-128321428D01*
X119820571Y-128178571D01*
X119820571Y-127892857D01*
X119892000Y-127750000D01*
X120034857Y-127678571D01*
X120177714Y-127678571D01*
X120320571Y-128392857D01*
X120820571Y-127035714D02*
X119820571Y-127035714D01*
X120106286Y-127035714D02*
X119963429Y-126964286D01*
X119892000Y-126892857D01*
X119820571Y-126750000D01*
X119820571Y-126607143D01*
X119820571Y-126250000D02*
X120820571Y-125892857D01*
X119820571Y-125535715D01*
X119320571Y-124321429D02*
X119320571Y-124607143D01*
X119392000Y-124750000D01*
X119463429Y-124821429D01*
X119677714Y-124964286D01*
X119963429Y-125035715D01*
X120534857Y-125035715D01*
X120677714Y-124964286D01*
X120749143Y-124892858D01*
X120820571Y-124750000D01*
X120820571Y-124464286D01*
X120749143Y-124321429D01*
X120677714Y-124250000D01*
X120534857Y-124178572D01*
X120177714Y-124178572D01*
X120034857Y-124250000D01*
X119963429Y-124321429D01*
X119892000Y-124464286D01*
X119892000Y-124750000D01*
X119963429Y-124892858D01*
X120034857Y-124964286D01*
X120177714Y-125035715D01*
X121257143Y-117121428D02*
X121328571Y-116907142D01*
X121328571Y-116549999D01*
X121257143Y-116407142D01*
X121185714Y-116335713D01*
X121042857Y-116264285D01*
X120900000Y-116264285D01*
X120757143Y-116335713D01*
X120685714Y-116407142D01*
X120614286Y-116549999D01*
X120542857Y-116835713D01*
X120471429Y-116978571D01*
X120400000Y-117049999D01*
X120257143Y-117121428D01*
X120114286Y-117121428D01*
X119971429Y-117049999D01*
X119900000Y-116978571D01*
X119828571Y-116835713D01*
X119828571Y-116478571D01*
X119900000Y-116264285D01*
X121257143Y-115050000D02*
X121328571Y-115192857D01*
X121328571Y-115478571D01*
X121257143Y-115621428D01*
X121114286Y-115692857D01*
X120542857Y-115692857D01*
X120400000Y-115621428D01*
X120328571Y-115478571D01*
X120328571Y-115192857D01*
X120400000Y-115050000D01*
X120542857Y-114978571D01*
X120685714Y-114978571D01*
X120828571Y-115692857D01*
X121328571Y-114335714D02*
X120328571Y-114335714D01*
X120614286Y-114335714D02*
X120471429Y-114264286D01*
X120400000Y-114192857D01*
X120328571Y-114050000D01*
X120328571Y-113907143D01*
X120328571Y-113550000D02*
X121328571Y-113192857D01*
X120328571Y-112835715D01*
X119828571Y-111550000D02*
X119828571Y-112264286D01*
X120542857Y-112335715D01*
X120471429Y-112264286D01*
X120400000Y-112121429D01*
X120400000Y-111764286D01*
X120471429Y-111621429D01*
X120542857Y-111550000D01*
X120685714Y-111478572D01*
X121042857Y-111478572D01*
X121185714Y-111550000D01*
X121257143Y-111621429D01*
X121328571Y-111764286D01*
X121328571Y-112121429D01*
X121257143Y-112264286D01*
X121185714Y-112335715D01*
X121130143Y-103532428D02*
X121201571Y-103318142D01*
X121201571Y-102960999D01*
X121130143Y-102818142D01*
X121058714Y-102746713D01*
X120915857Y-102675285D01*
X120773000Y-102675285D01*
X120630143Y-102746713D01*
X120558714Y-102818142D01*
X120487286Y-102960999D01*
X120415857Y-103246713D01*
X120344429Y-103389571D01*
X120273000Y-103460999D01*
X120130143Y-103532428D01*
X119987286Y-103532428D01*
X119844429Y-103460999D01*
X119773000Y-103389571D01*
X119701571Y-103246713D01*
X119701571Y-102889571D01*
X119773000Y-102675285D01*
X121130143Y-101461000D02*
X121201571Y-101603857D01*
X121201571Y-101889571D01*
X121130143Y-102032428D01*
X120987286Y-102103857D01*
X120415857Y-102103857D01*
X120273000Y-102032428D01*
X120201571Y-101889571D01*
X120201571Y-101603857D01*
X120273000Y-101461000D01*
X120415857Y-101389571D01*
X120558714Y-101389571D01*
X120701571Y-102103857D01*
X121201571Y-100746714D02*
X120201571Y-100746714D01*
X120487286Y-100746714D02*
X120344429Y-100675286D01*
X120273000Y-100603857D01*
X120201571Y-100461000D01*
X120201571Y-100318143D01*
X120201571Y-99961000D02*
X121201571Y-99603857D01*
X120201571Y-99246715D01*
X120201571Y-98032429D02*
X121201571Y-98032429D01*
X119630143Y-98389572D02*
X120701571Y-98746715D01*
X120701571Y-97818143D01*
X121130143Y-90705428D02*
X121201571Y-90491142D01*
X121201571Y-90133999D01*
X121130143Y-89991142D01*
X121058714Y-89919713D01*
X120915857Y-89848285D01*
X120773000Y-89848285D01*
X120630143Y-89919713D01*
X120558714Y-89991142D01*
X120487286Y-90133999D01*
X120415857Y-90419713D01*
X120344429Y-90562571D01*
X120273000Y-90633999D01*
X120130143Y-90705428D01*
X119987286Y-90705428D01*
X119844429Y-90633999D01*
X119773000Y-90562571D01*
X119701571Y-90419713D01*
X119701571Y-90062571D01*
X119773000Y-89848285D01*
X121130143Y-88634000D02*
X121201571Y-88776857D01*
X121201571Y-89062571D01*
X121130143Y-89205428D01*
X120987286Y-89276857D01*
X120415857Y-89276857D01*
X120273000Y-89205428D01*
X120201571Y-89062571D01*
X120201571Y-88776857D01*
X120273000Y-88634000D01*
X120415857Y-88562571D01*
X120558714Y-88562571D01*
X120701571Y-89276857D01*
X121201571Y-87919714D02*
X120201571Y-87919714D01*
X120487286Y-87919714D02*
X120344429Y-87848286D01*
X120273000Y-87776857D01*
X120201571Y-87634000D01*
X120201571Y-87491143D01*
X120201571Y-87134000D02*
X121201571Y-86776857D01*
X120201571Y-86419715D01*
X119701571Y-85991143D02*
X119701571Y-85062572D01*
X120273000Y-85562572D01*
X120273000Y-85348286D01*
X120344429Y-85205429D01*
X120415857Y-85134000D01*
X120558714Y-85062572D01*
X120915857Y-85062572D01*
X121058714Y-85134000D01*
X121130143Y-85205429D01*
X121201571Y-85348286D01*
X121201571Y-85776858D01*
X121130143Y-85919715D01*
X121058714Y-85991143D01*
X121130143Y-77243428D02*
X121201571Y-77029142D01*
X121201571Y-76671999D01*
X121130143Y-76529142D01*
X121058714Y-76457713D01*
X120915857Y-76386285D01*
X120773000Y-76386285D01*
X120630143Y-76457713D01*
X120558714Y-76529142D01*
X120487286Y-76671999D01*
X120415857Y-76957713D01*
X120344429Y-77100571D01*
X120273000Y-77171999D01*
X120130143Y-77243428D01*
X119987286Y-77243428D01*
X119844429Y-77171999D01*
X119773000Y-77100571D01*
X119701571Y-76957713D01*
X119701571Y-76600571D01*
X119773000Y-76386285D01*
X121130143Y-75172000D02*
X121201571Y-75314857D01*
X121201571Y-75600571D01*
X121130143Y-75743428D01*
X120987286Y-75814857D01*
X120415857Y-75814857D01*
X120273000Y-75743428D01*
X120201571Y-75600571D01*
X120201571Y-75314857D01*
X120273000Y-75172000D01*
X120415857Y-75100571D01*
X120558714Y-75100571D01*
X120701571Y-75814857D01*
X121201571Y-74457714D02*
X120201571Y-74457714D01*
X120487286Y-74457714D02*
X120344429Y-74386286D01*
X120273000Y-74314857D01*
X120201571Y-74172000D01*
X120201571Y-74029143D01*
X120201571Y-73672000D02*
X121201571Y-73314857D01*
X120201571Y-72957715D01*
X119844429Y-72457715D02*
X119773000Y-72386286D01*
X119701571Y-72243429D01*
X119701571Y-71886286D01*
X119773000Y-71743429D01*
X119844429Y-71672000D01*
X119987286Y-71600572D01*
X120130143Y-71600572D01*
X120344429Y-71672000D01*
X121201571Y-72529143D01*
X121201571Y-71600572D01*
X124686143Y-59971428D02*
X124757571Y-59757142D01*
X124757571Y-59399999D01*
X124686143Y-59257142D01*
X124614714Y-59185713D01*
X124471857Y-59114285D01*
X124329000Y-59114285D01*
X124186143Y-59185713D01*
X124114714Y-59257142D01*
X124043286Y-59399999D01*
X123971857Y-59685713D01*
X123900429Y-59828571D01*
X123829000Y-59899999D01*
X123686143Y-59971428D01*
X123543286Y-59971428D01*
X123400429Y-59899999D01*
X123329000Y-59828571D01*
X123257571Y-59685713D01*
X123257571Y-59328571D01*
X123329000Y-59114285D01*
X124686143Y-57900000D02*
X124757571Y-58042857D01*
X124757571Y-58328571D01*
X124686143Y-58471428D01*
X124543286Y-58542857D01*
X123971857Y-58542857D01*
X123829000Y-58471428D01*
X123757571Y-58328571D01*
X123757571Y-58042857D01*
X123829000Y-57900000D01*
X123971857Y-57828571D01*
X124114714Y-57828571D01*
X124257571Y-58542857D01*
X124757571Y-57185714D02*
X123757571Y-57185714D01*
X124043286Y-57185714D02*
X123900429Y-57114286D01*
X123829000Y-57042857D01*
X123757571Y-56900000D01*
X123757571Y-56757143D01*
X123757571Y-56400000D02*
X124757571Y-56042857D01*
X123757571Y-55685715D01*
X124757571Y-54328572D02*
X124757571Y-55185715D01*
X124757571Y-54757143D02*
X123257571Y-54757143D01*
X123471857Y-54900000D01*
X123614714Y-55042858D01*
X123686143Y-55185715D01*
X52625858Y-150943571D02*
X52625858Y-152157857D01*
X52697286Y-152300714D01*
X52768715Y-152372143D01*
X52911572Y-152443571D01*
X53197286Y-152443571D01*
X53340144Y-152372143D01*
X53411572Y-152300714D01*
X53483001Y-152157857D01*
X53483001Y-150943571D01*
X54125858Y-152372143D02*
X54340144Y-152443571D01*
X54697287Y-152443571D01*
X54840144Y-152372143D01*
X54911573Y-152300714D01*
X54983001Y-152157857D01*
X54983001Y-152015000D01*
X54911573Y-151872143D01*
X54840144Y-151800714D01*
X54697287Y-151729286D01*
X54411573Y-151657857D01*
X54268715Y-151586429D01*
X54197287Y-151515000D01*
X54125858Y-151372143D01*
X54125858Y-151229286D01*
X54197287Y-151086429D01*
X54268715Y-151015000D01*
X54411573Y-150943571D01*
X54768715Y-150943571D01*
X54983001Y-151015000D01*
X56340144Y-150943571D02*
X55625858Y-150943571D01*
X55554429Y-151657857D01*
X55625858Y-151586429D01*
X55768715Y-151515000D01*
X56125858Y-151515000D01*
X56268715Y-151586429D01*
X56340144Y-151657857D01*
X56411572Y-151800714D01*
X56411572Y-152157857D01*
X56340144Y-152300714D01*
X56268715Y-152372143D01*
X56125858Y-152443571D01*
X55768715Y-152443571D01*
X55625858Y-152372143D01*
X55554429Y-152300714D01*
X70024858Y-151197571D02*
X70024858Y-152411857D01*
X70096286Y-152554714D01*
X70167715Y-152626143D01*
X70310572Y-152697571D01*
X70596286Y-152697571D01*
X70739144Y-152626143D01*
X70810572Y-152554714D01*
X70882001Y-152411857D01*
X70882001Y-151197571D01*
X71524858Y-152626143D02*
X71739144Y-152697571D01*
X72096287Y-152697571D01*
X72239144Y-152626143D01*
X72310573Y-152554714D01*
X72382001Y-152411857D01*
X72382001Y-152269000D01*
X72310573Y-152126143D01*
X72239144Y-152054714D01*
X72096287Y-151983286D01*
X71810573Y-151911857D01*
X71667715Y-151840429D01*
X71596287Y-151769000D01*
X71524858Y-151626143D01*
X71524858Y-151483286D01*
X71596287Y-151340429D01*
X71667715Y-151269000D01*
X71810573Y-151197571D01*
X72167715Y-151197571D01*
X72382001Y-151269000D01*
X73667715Y-151697571D02*
X73667715Y-152697571D01*
X73310572Y-151126143D02*
X72953429Y-152197571D01*
X73882001Y-152197571D01*
X87296858Y-151197571D02*
X87296858Y-152411857D01*
X87368286Y-152554714D01*
X87439715Y-152626143D01*
X87582572Y-152697571D01*
X87868286Y-152697571D01*
X88011144Y-152626143D01*
X88082572Y-152554714D01*
X88154001Y-152411857D01*
X88154001Y-151197571D01*
X88796858Y-152626143D02*
X89011144Y-152697571D01*
X89368287Y-152697571D01*
X89511144Y-152626143D01*
X89582573Y-152554714D01*
X89654001Y-152411857D01*
X89654001Y-152269000D01*
X89582573Y-152126143D01*
X89511144Y-152054714D01*
X89368287Y-151983286D01*
X89082573Y-151911857D01*
X88939715Y-151840429D01*
X88868287Y-151769000D01*
X88796858Y-151626143D01*
X88796858Y-151483286D01*
X88868287Y-151340429D01*
X88939715Y-151269000D01*
X89082573Y-151197571D01*
X89439715Y-151197571D01*
X89654001Y-151269000D01*
X90154001Y-151197571D02*
X91082572Y-151197571D01*
X90582572Y-151769000D01*
X90796858Y-151769000D01*
X90939715Y-151840429D01*
X91011144Y-151911857D01*
X91082572Y-152054714D01*
X91082572Y-152411857D01*
X91011144Y-152554714D01*
X90939715Y-152626143D01*
X90796858Y-152697571D01*
X90368286Y-152697571D01*
X90225429Y-152626143D01*
X90154001Y-152554714D01*
X104187858Y-151070571D02*
X104187858Y-152284857D01*
X104259286Y-152427714D01*
X104330715Y-152499143D01*
X104473572Y-152570571D01*
X104759286Y-152570571D01*
X104902144Y-152499143D01*
X104973572Y-152427714D01*
X105045001Y-152284857D01*
X105045001Y-151070571D01*
X105687858Y-152499143D02*
X105902144Y-152570571D01*
X106259287Y-152570571D01*
X106402144Y-152499143D01*
X106473573Y-152427714D01*
X106545001Y-152284857D01*
X106545001Y-152142000D01*
X106473573Y-151999143D01*
X106402144Y-151927714D01*
X106259287Y-151856286D01*
X105973573Y-151784857D01*
X105830715Y-151713429D01*
X105759287Y-151642000D01*
X105687858Y-151499143D01*
X105687858Y-151356286D01*
X105759287Y-151213429D01*
X105830715Y-151142000D01*
X105973573Y-151070571D01*
X106330715Y-151070571D01*
X106545001Y-151142000D01*
X107116429Y-151213429D02*
X107187858Y-151142000D01*
X107330715Y-151070571D01*
X107687858Y-151070571D01*
X107830715Y-151142000D01*
X107902144Y-151213429D01*
X107973572Y-151356286D01*
X107973572Y-151499143D01*
X107902144Y-151713429D01*
X107045001Y-152570571D01*
X107973572Y-152570571D01*
X122094858Y-151451571D02*
X122094858Y-152665857D01*
X122166286Y-152808714D01*
X122237715Y-152880143D01*
X122380572Y-152951571D01*
X122666286Y-152951571D01*
X122809144Y-152880143D01*
X122880572Y-152808714D01*
X122952001Y-152665857D01*
X122952001Y-151451571D01*
X123594858Y-152880143D02*
X123809144Y-152951571D01*
X124166287Y-152951571D01*
X124309144Y-152880143D01*
X124380573Y-152808714D01*
X124452001Y-152665857D01*
X124452001Y-152523000D01*
X124380573Y-152380143D01*
X124309144Y-152308714D01*
X124166287Y-152237286D01*
X123880573Y-152165857D01*
X123737715Y-152094429D01*
X123666287Y-152023000D01*
X123594858Y-151880143D01*
X123594858Y-151737286D01*
X123666287Y-151594429D01*
X123737715Y-151523000D01*
X123880573Y-151451571D01*
X124237715Y-151451571D01*
X124452001Y-151523000D01*
X125880572Y-152951571D02*
X125023429Y-152951571D01*
X125452001Y-152951571D02*
X125452001Y-151451571D01*
X125309144Y-151665857D01*
X125166286Y-151808714D01*
X125023429Y-151880143D01*
X64322286Y-122749571D02*
X64822286Y-124249571D01*
X65322286Y-122749571D01*
X66393714Y-124178143D02*
X66250857Y-124249571D01*
X65965143Y-124249571D01*
X65822286Y-124178143D01*
X65750857Y-124035286D01*
X65750857Y-123463857D01*
X65822286Y-123321000D01*
X65965143Y-123249571D01*
X66250857Y-123249571D01*
X66393714Y-123321000D01*
X66465143Y-123463857D01*
X66465143Y-123606714D01*
X65750857Y-123749571D01*
X67108000Y-124249571D02*
X67108000Y-123249571D01*
X67108000Y-123535286D02*
X67179428Y-123392429D01*
X67250857Y-123321000D01*
X67393714Y-123249571D01*
X67536571Y-123249571D01*
X67965142Y-124178143D02*
X68107999Y-124249571D01*
X68393714Y-124249571D01*
X68536571Y-124178143D01*
X68607999Y-124035286D01*
X68607999Y-123963857D01*
X68536571Y-123821000D01*
X68393714Y-123749571D01*
X68179428Y-123749571D01*
X68036571Y-123678143D01*
X67965142Y-123535286D01*
X67965142Y-123463857D01*
X68036571Y-123321000D01*
X68179428Y-123249571D01*
X68393714Y-123249571D01*
X68536571Y-123321000D01*
X70393714Y-124249571D02*
X70393714Y-122749571D01*
X70893714Y-123821000D01*
X71393714Y-122749571D01*
X71393714Y-124249571D01*
X72322286Y-124249571D02*
X72179428Y-124178143D01*
X72108000Y-124106714D01*
X72036571Y-123963857D01*
X72036571Y-123535286D01*
X72108000Y-123392429D01*
X72179428Y-123321000D01*
X72322286Y-123249571D01*
X72536571Y-123249571D01*
X72679428Y-123321000D01*
X72750857Y-123392429D01*
X72822286Y-123535286D01*
X72822286Y-123963857D01*
X72750857Y-124106714D01*
X72679428Y-124178143D01*
X72536571Y-124249571D01*
X72322286Y-124249571D01*
X73250857Y-123249571D02*
X73822286Y-123249571D01*
X73465143Y-122749571D02*
X73465143Y-124035286D01*
X73536571Y-124178143D01*
X73679429Y-124249571D01*
X73822286Y-124249571D01*
X75393714Y-122892429D02*
X75465143Y-122821000D01*
X75608000Y-122749571D01*
X75965143Y-122749571D01*
X76108000Y-122821000D01*
X76179429Y-122892429D01*
X76250857Y-123035286D01*
X76250857Y-123178143D01*
X76179429Y-123392429D01*
X75322286Y-124249571D01*
X76250857Y-124249571D01*
X90611286Y-123130571D02*
X91111286Y-124630571D01*
X91611286Y-123130571D01*
X92682714Y-124559143D02*
X92539857Y-124630571D01*
X92254143Y-124630571D01*
X92111286Y-124559143D01*
X92039857Y-124416286D01*
X92039857Y-123844857D01*
X92111286Y-123702000D01*
X92254143Y-123630571D01*
X92539857Y-123630571D01*
X92682714Y-123702000D01*
X92754143Y-123844857D01*
X92754143Y-123987714D01*
X92039857Y-124130571D01*
X93397000Y-124630571D02*
X93397000Y-123630571D01*
X93397000Y-123916286D02*
X93468428Y-123773429D01*
X93539857Y-123702000D01*
X93682714Y-123630571D01*
X93825571Y-123630571D01*
X94254142Y-124559143D02*
X94396999Y-124630571D01*
X94682714Y-124630571D01*
X94825571Y-124559143D01*
X94896999Y-124416286D01*
X94896999Y-124344857D01*
X94825571Y-124202000D01*
X94682714Y-124130571D01*
X94468428Y-124130571D01*
X94325571Y-124059143D01*
X94254142Y-123916286D01*
X94254142Y-123844857D01*
X94325571Y-123702000D01*
X94468428Y-123630571D01*
X94682714Y-123630571D01*
X94825571Y-123702000D01*
X96682714Y-124630571D02*
X96682714Y-123130571D01*
X97182714Y-124202000D01*
X97682714Y-123130571D01*
X97682714Y-124630571D01*
X98611286Y-124630571D02*
X98468428Y-124559143D01*
X98397000Y-124487714D01*
X98325571Y-124344857D01*
X98325571Y-123916286D01*
X98397000Y-123773429D01*
X98468428Y-123702000D01*
X98611286Y-123630571D01*
X98825571Y-123630571D01*
X98968428Y-123702000D01*
X99039857Y-123773429D01*
X99111286Y-123916286D01*
X99111286Y-124344857D01*
X99039857Y-124487714D01*
X98968428Y-124559143D01*
X98825571Y-124630571D01*
X98611286Y-124630571D01*
X99539857Y-123630571D02*
X100111286Y-123630571D01*
X99754143Y-123130571D02*
X99754143Y-124416286D01*
X99825571Y-124559143D01*
X99968429Y-124630571D01*
X100111286Y-124630571D01*
X102539857Y-124630571D02*
X101682714Y-124630571D01*
X102111286Y-124630571D02*
X102111286Y-123130571D01*
X101968429Y-123344857D01*
X101825571Y-123487714D01*
X101682714Y-123559143D01*
X118741000Y-54581571D02*
X118741000Y-53867285D01*
X119169571Y-54724428D02*
X117669571Y-54224428D01*
X119169571Y-53724428D01*
X119169571Y-53010142D02*
X119098143Y-53153000D01*
X118955286Y-53224428D01*
X117669571Y-53224428D01*
X119169571Y-52438714D02*
X118169571Y-52438714D01*
X117669571Y-52438714D02*
X117741000Y-52510143D01*
X117812429Y-52438714D01*
X117741000Y-52367286D01*
X117669571Y-52438714D01*
X117812429Y-52438714D01*
X119169571Y-51724428D02*
X118169571Y-51724428D01*
X118312429Y-51724428D02*
X118241000Y-51653000D01*
X118169571Y-51510142D01*
X118169571Y-51295857D01*
X118241000Y-51153000D01*
X118383857Y-51081571D01*
X119169571Y-51081571D01*
X118383857Y-51081571D02*
X118241000Y-51010142D01*
X118169571Y-50867285D01*
X118169571Y-50653000D01*
X118241000Y-50510142D01*
X118383857Y-50438714D01*
X119169571Y-50438714D01*
X117669571Y-48153000D02*
X118741000Y-48153000D01*
X118955286Y-48224428D01*
X119098143Y-48367285D01*
X119169571Y-48581571D01*
X119169571Y-48724428D01*
X119169571Y-46795857D02*
X118383857Y-46795857D01*
X118241000Y-46867286D01*
X118169571Y-47010143D01*
X118169571Y-47295857D01*
X118241000Y-47438714D01*
X119098143Y-46795857D02*
X119169571Y-46938714D01*
X119169571Y-47295857D01*
X119098143Y-47438714D01*
X118955286Y-47510143D01*
X118812429Y-47510143D01*
X118669571Y-47438714D01*
X118598143Y-47295857D01*
X118598143Y-46938714D01*
X118526714Y-46795857D01*
X119098143Y-45438714D02*
X119169571Y-45581571D01*
X119169571Y-45867285D01*
X119098143Y-46010143D01*
X119026714Y-46081571D01*
X118883857Y-46153000D01*
X118455286Y-46153000D01*
X118312429Y-46081571D01*
X118241000Y-46010143D01*
X118169571Y-45867285D01*
X118169571Y-45581571D01*
X118241000Y-45438714D01*
X119169571Y-44795857D02*
X117669571Y-44795857D01*
X118598143Y-44653000D02*
X119169571Y-44224429D01*
X118169571Y-44224429D02*
X118741000Y-44795857D01*
X128746000Y-34095429D02*
X128246000Y-32595429D01*
X127746000Y-34095429D01*
X126388857Y-32738286D02*
X126460286Y-32666857D01*
X126674572Y-32595429D01*
X126817429Y-32595429D01*
X127031714Y-32666857D01*
X127174572Y-32809714D01*
X127246000Y-32952571D01*
X127317429Y-33238286D01*
X127317429Y-33452571D01*
X127246000Y-33738286D01*
X127174572Y-33881143D01*
X127031714Y-34024000D01*
X126817429Y-34095429D01*
X126674572Y-34095429D01*
X126460286Y-34024000D01*
X126388857Y-33952571D01*
X124888857Y-32738286D02*
X124960286Y-32666857D01*
X125174572Y-32595429D01*
X125317429Y-32595429D01*
X125531714Y-32666857D01*
X125674572Y-32809714D01*
X125746000Y-32952571D01*
X125817429Y-33238286D01*
X125817429Y-33452571D01*
X125746000Y-33738286D01*
X125674572Y-33881143D01*
X125531714Y-34024000D01*
X125317429Y-34095429D01*
X125174572Y-34095429D01*
X124960286Y-34024000D01*
X124888857Y-33952571D01*
X127888857Y-39231000D02*
X128031714Y-39302429D01*
X128246000Y-39302429D01*
X128460285Y-39231000D01*
X128603143Y-39088143D01*
X128674571Y-38945286D01*
X128746000Y-38659571D01*
X128746000Y-38445286D01*
X128674571Y-38159571D01*
X128603143Y-38016714D01*
X128460285Y-37873857D01*
X128246000Y-37802429D01*
X128103143Y-37802429D01*
X127888857Y-37873857D01*
X127817428Y-37945286D01*
X127817428Y-38445286D01*
X128103143Y-38445286D01*
X127174571Y-37802429D02*
X127174571Y-39302429D01*
X126317428Y-37802429D01*
X126317428Y-39302429D01*
X125603142Y-37802429D02*
X125603142Y-39302429D01*
X125245999Y-39302429D01*
X125031714Y-39231000D01*
X124888856Y-39088143D01*
X124817428Y-38945286D01*
X124745999Y-38659571D01*
X124745999Y-38445286D01*
X124817428Y-38159571D01*
X124888856Y-38016714D01*
X125031714Y-37873857D01*
X125245999Y-37802429D01*
X125603142Y-37802429D01*
X44692000Y-53467143D02*
X44763429Y-53324286D01*
X44763429Y-53110000D01*
X44692000Y-52895715D01*
X44549143Y-52752857D01*
X44406286Y-52681429D01*
X44120571Y-52610000D01*
X43906286Y-52610000D01*
X43620571Y-52681429D01*
X43477714Y-52752857D01*
X43334857Y-52895715D01*
X43263429Y-53110000D01*
X43263429Y-53252857D01*
X43334857Y-53467143D01*
X43406286Y-53538572D01*
X43906286Y-53538572D01*
X43906286Y-53252857D01*
X43263429Y-54181429D02*
X44763429Y-54181429D01*
X43263429Y-55038572D01*
X44763429Y-55038572D01*
X43263429Y-55752858D02*
X44763429Y-55752858D01*
X44763429Y-56110001D01*
X44692000Y-56324286D01*
X44549143Y-56467144D01*
X44406286Y-56538572D01*
X44120571Y-56610001D01*
X43906286Y-56610001D01*
X43620571Y-56538572D01*
X43477714Y-56467144D01*
X43334857Y-56324286D01*
X43263429Y-56110001D01*
X43263429Y-55752858D01*
D13*
X58801000Y-58674000D02*
G75*
G03X58801000Y-58674000I-1524000J0D01*
G01*
X63881000Y-110744000D02*
G75*
G03X63881000Y-110744000I-1524000J0D01*
G01*
X58801000Y-141224000D02*
G75*
G03X58801000Y-141224000I-1524000J0D01*
G01*
X107061000Y-134874000D02*
G75*
G03X107061000Y-134874000I-1524000J0D01*
G01*
X91821000Y-110744000D02*
G75*
G03X91821000Y-110744000I-1524000J0D01*
G01*
X107061000Y-59944000D02*
G75*
G03X107061000Y-59944000I-1524000J0D01*
G01*
X85471000Y-116078000D02*
X85471000Y-121539000D01*
X85471000Y-121539000D02*
X79883000Y-121539000D01*
X79883000Y-121539000D02*
X79883000Y-116078000D01*
X79883000Y-116078000D02*
X85471000Y-116078000D01*
X84201000Y-118872000D02*
G75*
G03X84201000Y-118872000I-1524000J0D01*
G01*
X98552000Y-38354000D02*
X98552000Y-54229000D01*
X98552000Y-54229000D02*
X87122000Y-54229000D01*
X87122000Y-54229000D02*
X87122000Y-38354000D01*
X87122000Y-38354000D02*
X98552000Y-38354000D01*
X66802000Y-56134000D02*
X66802000Y-42799000D01*
X66802000Y-42799000D02*
X57912000Y-42799000D01*
X57912000Y-42799000D02*
X57912000Y-56134000D01*
X57912000Y-56134000D02*
X66802000Y-56134000D01*
X86487000Y-107061000D02*
X86487000Y-112141000D01*
X86487000Y-112141000D02*
X78867000Y-112141000D01*
X78867000Y-112141000D02*
X78867000Y-107061000D01*
X78867000Y-107061000D02*
X86487000Y-107061000D01*
D14*
X105537000Y-143764000D02*
X108077000Y-141224000D01*
X108077000Y-141224000D02*
X108077000Y-44704000D01*
X108077000Y-44704000D02*
X54737000Y-44704000D01*
X54737000Y-44704000D02*
X54737000Y-143764000D01*
X54737000Y-143764000D02*
X56007000Y-143764000D01*
X56007000Y-143764000D02*
X58547000Y-146304000D01*
X58547000Y-146304000D02*
X92837000Y-146304000D01*
X92837000Y-146304000D02*
X95377000Y-143764000D01*
X95377000Y-143764000D02*
X105537000Y-143764000D01*
X106807000Y-87630000D02*
X104267000Y-87630000D01*
X104267000Y-87630000D02*
X104267000Y-62230000D01*
X104267000Y-62230000D02*
X106807000Y-62230000D01*
X106807000Y-62230000D02*
X106807000Y-87630000D01*
D13*
X105537000Y-59309000D02*
X105537000Y-60579000D01*
X106172000Y-59944000D02*
X104902000Y-59944000D01*
X57277000Y-58039000D02*
X57277000Y-59309000D01*
X57912000Y-58674000D02*
X56642000Y-58674000D01*
X57277000Y-140589000D02*
X57277000Y-141859000D01*
X57912000Y-141224000D02*
X56642000Y-141224000D01*
X62357000Y-110109000D02*
X62357000Y-111379000D01*
X62992000Y-110744000D02*
X61722000Y-110744000D01*
X90297000Y-110109000D02*
X90297000Y-111379000D01*
X90932000Y-110744000D02*
X89662000Y-110744000D01*
X105537000Y-134239000D02*
X105537000Y-135509000D01*
X106172000Y-134874000D02*
X104902000Y-134874000D01*
D14*
X106807000Y-109474000D02*
X104267000Y-109474000D01*
X104267000Y-109474000D02*
X104267000Y-89154000D01*
X104267000Y-89154000D02*
X106807000Y-89154000D01*
X106807000Y-89154000D02*
X106807000Y-109474000D01*
X106807000Y-132334000D02*
X104267000Y-132334000D01*
X104267000Y-132334000D02*
X104267000Y-112014000D01*
X104267000Y-112014000D02*
X106807000Y-112014000D01*
X106807000Y-112014000D02*
X106807000Y-132334000D01*
X61087000Y-137414000D02*
X61087000Y-142494000D01*
X61087000Y-142494000D02*
X106807000Y-142494000D01*
X106807000Y-142494000D02*
X106807000Y-137414000D01*
X106807000Y-137414000D02*
X61087000Y-137414000D01*
X58547000Y-91694000D02*
X56007000Y-91694000D01*
X56007000Y-91694000D02*
X56007000Y-71374000D01*
X56007000Y-71374000D02*
X58547000Y-71374000D01*
X58547000Y-71374000D02*
X58547000Y-91694000D01*
X56007000Y-114554000D02*
X58547000Y-114554000D01*
X58547000Y-114554000D02*
X58547000Y-94234000D01*
X58547000Y-94234000D02*
X56007000Y-94234000D01*
X56007000Y-94234000D02*
X56007000Y-114554000D01*
X58547000Y-117094000D02*
X58547000Y-137414000D01*
X58547000Y-137414000D02*
X56007000Y-137414000D01*
X56007000Y-137414000D02*
X56007000Y-117094000D01*
X56007000Y-117094000D02*
X58547000Y-117094000D01*
D15*
X43247000Y-143697000D02*
X45907000Y-143697000D01*
X43247000Y-133477000D02*
X43247000Y-143697000D01*
X45907000Y-133477000D02*
X45907000Y-143697000D01*
X43247000Y-133477000D02*
X45907000Y-133477000D01*
X43247000Y-132207000D02*
X43247000Y-130877000D01*
X43247000Y-130877000D02*
X44577000Y-130877000D01*
X122002000Y-135833000D02*
X118282000Y-135833000D01*
X118282000Y-135833000D02*
X118282000Y-145853000D01*
X118282000Y-145853000D02*
X122002000Y-145853000D01*
X122002000Y-145853000D02*
X122002000Y-135833000D01*
X120142000Y-134603000D02*
X120142000Y-135833000D01*
X120142000Y-147083000D02*
X120142000Y-145853000D01*
X127555000Y-44676000D02*
X136355000Y-44676000D01*
X136355000Y-44676000D02*
X136355000Y-53876000D01*
X121655000Y-47376000D02*
X121655000Y-44676000D01*
X121655000Y-44676000D02*
X123555000Y-44676000D01*
X136355000Y-53876000D02*
X121655000Y-53876000D01*
X121655000Y-53876000D02*
X121655000Y-51276000D01*
X53273000Y-112014000D02*
X53273000Y-94174000D01*
X53273000Y-94174000D02*
X50613000Y-94174000D01*
X50613000Y-94174000D02*
X50613000Y-112014000D01*
X50613000Y-112014000D02*
X53273000Y-112014000D01*
X53273000Y-113284000D02*
X53273000Y-114614000D01*
X53273000Y-114614000D02*
X51943000Y-114614000D01*
X53273000Y-134874000D02*
X53273000Y-117034000D01*
X53273000Y-117034000D02*
X50613000Y-117034000D01*
X50613000Y-117034000D02*
X50613000Y-134874000D01*
X50613000Y-134874000D02*
X53273000Y-134874000D01*
X53273000Y-136144000D02*
X53273000Y-137474000D01*
X53273000Y-137474000D02*
X51943000Y-137474000D01*
X109541000Y-114554000D02*
X109541000Y-132394000D01*
X109541000Y-132394000D02*
X112201000Y-132394000D01*
X112201000Y-132394000D02*
X112201000Y-114554000D01*
X112201000Y-114554000D02*
X109541000Y-114554000D01*
X109541000Y-113284000D02*
X109541000Y-111954000D01*
X109541000Y-111954000D02*
X110871000Y-111954000D01*
X104267000Y-133798000D02*
X61027000Y-133798000D01*
X61027000Y-133798000D02*
X61027000Y-136458000D01*
X61027000Y-136458000D02*
X104267000Y-136458000D01*
X104267000Y-136458000D02*
X104267000Y-133798000D01*
X105537000Y-133798000D02*
X106867000Y-133798000D01*
X106867000Y-133798000D02*
X106867000Y-135128000D01*
X104267000Y-143196000D02*
X61027000Y-143196000D01*
X61027000Y-143196000D02*
X61027000Y-145856000D01*
X61027000Y-145856000D02*
X104267000Y-145856000D01*
X104267000Y-145856000D02*
X104267000Y-143196000D01*
X105537000Y-143196000D02*
X106867000Y-143196000D01*
X106867000Y-143196000D02*
X106867000Y-144526000D01*
X114875000Y-91694000D02*
X114875000Y-109534000D01*
X114875000Y-109534000D02*
X117535000Y-109534000D01*
X117535000Y-109534000D02*
X117535000Y-91694000D01*
X117535000Y-91694000D02*
X114875000Y-91694000D01*
X114875000Y-90424000D02*
X114875000Y-89094000D01*
X114875000Y-89094000D02*
X116205000Y-89094000D01*
X61354000Y-29887000D02*
X61354000Y-36407000D01*
X61354000Y-36407000D02*
X86474000Y-36407000D01*
X86474000Y-36407000D02*
X86474000Y-29887000D01*
X86474000Y-29887000D02*
X61354000Y-29887000D01*
X60054000Y-33147000D02*
X61354000Y-33147000D01*
X87774000Y-33147000D02*
X86474000Y-33147000D01*
X53273000Y-71314000D02*
X50613000Y-71314000D01*
X53273000Y-89154000D02*
X53273000Y-71314000D01*
X50613000Y-89154000D02*
X50613000Y-71314000D01*
X53273000Y-89154000D02*
X50613000Y-89154000D01*
X53273000Y-90424000D02*
X53273000Y-91754000D01*
X53273000Y-91754000D02*
X51943000Y-91754000D01*
X114875000Y-64770000D02*
X114875000Y-87690000D01*
X114875000Y-87690000D02*
X117535000Y-87690000D01*
X117535000Y-87690000D02*
X117535000Y-64770000D01*
X117535000Y-64770000D02*
X114875000Y-64770000D01*
X114875000Y-63500000D02*
X114875000Y-62170000D01*
X114875000Y-62170000D02*
X116205000Y-62170000D01*
X109541000Y-64770000D02*
X109541000Y-87690000D01*
X109541000Y-87690000D02*
X112201000Y-87690000D01*
X112201000Y-87690000D02*
X112201000Y-64770000D01*
X112201000Y-64770000D02*
X109541000Y-64770000D01*
X109541000Y-63500000D02*
X109541000Y-62170000D01*
X109541000Y-62170000D02*
X110871000Y-62170000D01*
X109541000Y-91694000D02*
X109541000Y-109534000D01*
X109541000Y-109534000D02*
X112201000Y-109534000D01*
X112201000Y-109534000D02*
X112201000Y-91694000D01*
X112201000Y-91694000D02*
X109541000Y-91694000D01*
X109541000Y-90424000D02*
X109541000Y-89094000D01*
X109541000Y-89094000D02*
X110871000Y-89094000D01*
X63915600Y-89154000D02*
X63915600Y-71314000D01*
X63915600Y-71314000D02*
X61255600Y-71314000D01*
X61255600Y-71314000D02*
X61255600Y-89154000D01*
X61255600Y-89154000D02*
X63915600Y-89154000D01*
X63915600Y-90424000D02*
X63915600Y-91754000D01*
X63915600Y-91754000D02*
X62585600Y-91754000D01*
X63941000Y-106934000D02*
X63941000Y-94174000D01*
X63941000Y-94174000D02*
X61281000Y-94174000D01*
X61281000Y-94174000D02*
X61281000Y-106934000D01*
X61281000Y-106934000D02*
X63941000Y-106934000D01*
X63941000Y-108204000D02*
X63941000Y-109534000D01*
X63941000Y-109534000D02*
X62611000Y-109534000D01*
X85896000Y-37167000D02*
X85896000Y-44287000D01*
X83776000Y-37167000D02*
X83776000Y-44287000D01*
X85896000Y-37167000D02*
X83776000Y-37167000D01*
X85896000Y-44287000D02*
X83776000Y-44287000D01*
X42612000Y-52003000D02*
X45272000Y-52003000D01*
X42612000Y-41783000D02*
X42612000Y-52003000D01*
X45272000Y-41783000D02*
X45272000Y-52003000D01*
X42612000Y-41783000D02*
X45272000Y-41783000D01*
X42612000Y-40513000D02*
X42612000Y-39183000D01*
X42612000Y-39183000D02*
X43942000Y-39183000D01*
X54804000Y-36770000D02*
X54804000Y-39430000D01*
X57404000Y-36770000D02*
X54804000Y-36770000D01*
X57404000Y-39430000D02*
X54804000Y-39430000D01*
X57404000Y-36770000D02*
X57404000Y-39430000D01*
X58674000Y-36770000D02*
X60004000Y-36770000D01*
X60004000Y-36770000D02*
X60004000Y-38100000D01*
X75957000Y-128568000D02*
X75957000Y-126448000D01*
X65897000Y-128568000D02*
X75957000Y-128568000D01*
X65897000Y-126448000D02*
X75957000Y-126448000D01*
X65897000Y-128568000D02*
X65897000Y-126448000D01*
X64897000Y-128568000D02*
X63837000Y-128568000D01*
X63837000Y-128568000D02*
X63837000Y-127508000D01*
X65465000Y-39430000D02*
X65465000Y-36770000D01*
X62865000Y-39430000D02*
X65465000Y-39430000D01*
X62865000Y-36770000D02*
X65465000Y-36770000D01*
X62865000Y-39430000D02*
X62865000Y-36770000D01*
X61595000Y-39430000D02*
X60265000Y-39430000D01*
X60265000Y-39430000D02*
X60265000Y-38100000D01*
X89778000Y-126448000D02*
X89778000Y-128568000D01*
X99838000Y-126448000D02*
X89778000Y-126448000D01*
X99838000Y-128568000D02*
X89778000Y-128568000D01*
X99838000Y-126448000D02*
X99838000Y-128568000D01*
X100838000Y-126448000D02*
X101898000Y-126448000D01*
X101898000Y-126448000D02*
X101898000Y-127508000D01*
D14*
X110490000Y-42418000D02*
X114427000Y-42418000D01*
X114427000Y-42418000D02*
X114427000Y-29464000D01*
X114427000Y-29464000D02*
X110490000Y-29464000D01*
X107696000Y-42418000D02*
X110490000Y-42418000D01*
X110490000Y-42418000D02*
X110490000Y-29464000D01*
X110490000Y-29464000D02*
X107696000Y-29464000D01*
X104394000Y-29464000D02*
X103251000Y-29464000D01*
X103251000Y-42418000D02*
X103251000Y-29464000D01*
X103251000Y-42418000D02*
X107696000Y-42418000D01*
X107696000Y-29464000D02*
X106426000Y-29464000D01*
X104394000Y-29464000D02*
X106426000Y-29464000D01*
X132588000Y-134493000D02*
X136525000Y-134493000D01*
X136525000Y-134493000D02*
X136525000Y-121539000D01*
X136525000Y-121539000D02*
X132588000Y-121539000D01*
X129794000Y-134493000D02*
X132588000Y-134493000D01*
X132588000Y-134493000D02*
X132588000Y-121539000D01*
X132588000Y-121539000D02*
X129794000Y-121539000D01*
X126492000Y-121539000D02*
X125349000Y-121539000D01*
X125349000Y-134493000D02*
X125349000Y-121539000D01*
X125349000Y-134493000D02*
X129794000Y-134493000D01*
X129794000Y-121539000D02*
X128524000Y-121539000D01*
X126492000Y-121539000D02*
X128524000Y-121539000D01*
X132588000Y-120904000D02*
X136525000Y-120904000D01*
X136525000Y-120904000D02*
X136525000Y-107950000D01*
X136525000Y-107950000D02*
X132588000Y-107950000D01*
X129794000Y-120904000D02*
X132588000Y-120904000D01*
X132588000Y-120904000D02*
X132588000Y-107950000D01*
X132588000Y-107950000D02*
X129794000Y-107950000D01*
X126492000Y-107950000D02*
X125349000Y-107950000D01*
X125349000Y-120904000D02*
X125349000Y-107950000D01*
X125349000Y-120904000D02*
X129794000Y-120904000D01*
X129794000Y-107950000D02*
X128524000Y-107950000D01*
X126492000Y-107950000D02*
X128524000Y-107950000D01*
X132588000Y-107442000D02*
X136525000Y-107442000D01*
X136525000Y-107442000D02*
X136525000Y-94488000D01*
X136525000Y-94488000D02*
X132588000Y-94488000D01*
X129794000Y-107442000D02*
X132588000Y-107442000D01*
X132588000Y-107442000D02*
X132588000Y-94488000D01*
X132588000Y-94488000D02*
X129794000Y-94488000D01*
X126492000Y-94488000D02*
X125349000Y-94488000D01*
X125349000Y-107442000D02*
X125349000Y-94488000D01*
X125349000Y-107442000D02*
X129794000Y-107442000D01*
X129794000Y-94488000D02*
X128524000Y-94488000D01*
X126492000Y-94488000D02*
X128524000Y-94488000D01*
X132588000Y-93980000D02*
X136525000Y-93980000D01*
X136525000Y-93980000D02*
X136525000Y-81026000D01*
X136525000Y-81026000D02*
X132588000Y-81026000D01*
X129794000Y-93980000D02*
X132588000Y-93980000D01*
X132588000Y-93980000D02*
X132588000Y-81026000D01*
X132588000Y-81026000D02*
X129794000Y-81026000D01*
X126492000Y-81026000D02*
X125349000Y-81026000D01*
X125349000Y-93980000D02*
X125349000Y-81026000D01*
X125349000Y-93980000D02*
X129794000Y-93980000D01*
X129794000Y-81026000D02*
X128524000Y-81026000D01*
X126492000Y-81026000D02*
X128524000Y-81026000D01*
X132715000Y-80645000D02*
X136652000Y-80645000D01*
X136652000Y-80645000D02*
X136652000Y-67691000D01*
X136652000Y-67691000D02*
X132715000Y-67691000D01*
X129921000Y-80645000D02*
X132715000Y-80645000D01*
X132715000Y-80645000D02*
X132715000Y-67691000D01*
X132715000Y-67691000D02*
X129921000Y-67691000D01*
X126619000Y-67691000D02*
X125476000Y-67691000D01*
X125476000Y-80645000D02*
X125476000Y-67691000D01*
X125476000Y-80645000D02*
X129921000Y-80645000D01*
X129921000Y-67691000D02*
X128651000Y-67691000D01*
X126619000Y-67691000D02*
X128651000Y-67691000D01*
X132715000Y-67310000D02*
X136652000Y-67310000D01*
X136652000Y-67310000D02*
X136652000Y-54356000D01*
X136652000Y-54356000D02*
X132715000Y-54356000D01*
X129921000Y-67310000D02*
X132715000Y-67310000D01*
X132715000Y-67310000D02*
X132715000Y-54356000D01*
X132715000Y-54356000D02*
X129921000Y-54356000D01*
X126619000Y-54356000D02*
X125476000Y-54356000D01*
X125476000Y-67310000D02*
X125476000Y-54356000D01*
X125476000Y-67310000D02*
X129921000Y-67310000D01*
X129921000Y-54356000D02*
X128651000Y-54356000D01*
X126619000Y-54356000D02*
X128651000Y-54356000D01*
X115570000Y-160655000D02*
X115570000Y-164592000D01*
X115570000Y-164592000D02*
X132334000Y-164592000D01*
X132334000Y-164592000D02*
X132334000Y-160655000D01*
X115570000Y-153416000D02*
X132334000Y-153416000D01*
X115570000Y-153416000D02*
X115570000Y-160655000D01*
X115570000Y-160655000D02*
X116332000Y-160655000D01*
X132334000Y-155829000D02*
X132334000Y-160655000D01*
X132334000Y-160655000D02*
X116332000Y-160655000D01*
X132334000Y-153416000D02*
X132334000Y-155829000D01*
X98425000Y-160655000D02*
X98425000Y-164592000D01*
X98425000Y-164592000D02*
X115189000Y-164592000D01*
X115189000Y-164592000D02*
X115189000Y-160655000D01*
X98425000Y-153416000D02*
X115189000Y-153416000D01*
X98425000Y-153416000D02*
X98425000Y-160655000D01*
X98425000Y-160655000D02*
X99187000Y-160655000D01*
X115189000Y-155829000D02*
X115189000Y-160655000D01*
X115189000Y-160655000D02*
X99187000Y-160655000D01*
X115189000Y-153416000D02*
X115189000Y-155829000D01*
X81280000Y-160655000D02*
X81280000Y-164592000D01*
X81280000Y-164592000D02*
X98044000Y-164592000D01*
X98044000Y-164592000D02*
X98044000Y-160655000D01*
X81280000Y-153416000D02*
X98044000Y-153416000D01*
X81280000Y-153416000D02*
X81280000Y-160655000D01*
X81280000Y-160655000D02*
X82042000Y-160655000D01*
X98044000Y-155829000D02*
X98044000Y-160655000D01*
X98044000Y-160655000D02*
X82042000Y-160655000D01*
X98044000Y-153416000D02*
X98044000Y-155829000D01*
X64135000Y-160655000D02*
X64135000Y-164592000D01*
X64135000Y-164592000D02*
X80899000Y-164592000D01*
X80899000Y-164592000D02*
X80899000Y-160655000D01*
X64135000Y-153416000D02*
X80899000Y-153416000D01*
X64135000Y-153416000D02*
X64135000Y-160655000D01*
X64135000Y-160655000D02*
X64897000Y-160655000D01*
X80899000Y-155829000D02*
X80899000Y-160655000D01*
X80899000Y-160655000D02*
X64897000Y-160655000D01*
X80899000Y-153416000D02*
X80899000Y-155829000D01*
X46990000Y-160655000D02*
X46990000Y-164592000D01*
X46990000Y-164592000D02*
X63754000Y-164592000D01*
X63754000Y-164592000D02*
X63754000Y-160655000D01*
X46990000Y-153416000D02*
X63754000Y-153416000D01*
X46990000Y-153416000D02*
X46990000Y-160655000D01*
X46990000Y-160655000D02*
X47752000Y-160655000D01*
X63754000Y-155829000D02*
X63754000Y-160655000D01*
X63754000Y-160655000D02*
X47752000Y-160655000D01*
X63754000Y-153416000D02*
X63754000Y-155829000D01*
D15*
X47498000Y-167132000D02*
G75*
G03X47498000Y-167132000I-2286000J0D01*
G01*
X136652000Y-167132000D02*
G75*
G03X136652000Y-167132000I-2286000J0D01*
G01*
X47498000Y-32004000D02*
G75*
G03X47498000Y-32004000I-2286000J0D01*
G01*
X136652000Y-32004000D02*
G75*
G03X136652000Y-32004000I-2286000J0D01*
G01*
D14*
X124206000Y-42037000D02*
X130683000Y-42037000D01*
X130683000Y-42037000D02*
X130683000Y-29845000D01*
X130683000Y-29845000D02*
X124206000Y-29845000D01*
X115570000Y-42037000D02*
X115570000Y-29845000D01*
X123190000Y-42037000D02*
X124206000Y-42037000D01*
X124206000Y-42037000D02*
X124206000Y-29845000D01*
X124206000Y-29845000D02*
X123063000Y-29845000D01*
X117475000Y-29845000D02*
X123190000Y-29845000D01*
X117475000Y-29845000D02*
X115697000Y-29845000D01*
X115697000Y-29845000D02*
X115570000Y-29845000D01*
X119380000Y-42037000D02*
X115570000Y-42037000D01*
X123190000Y-42037000D02*
X119380000Y-42037000D01*
X102743000Y-35814000D02*
X102743000Y-29337000D01*
X102743000Y-29337000D02*
X90551000Y-29337000D01*
X90551000Y-29337000D02*
X90551000Y-35814000D01*
X102743000Y-44450000D02*
X90551000Y-44450000D01*
X102743000Y-36830000D02*
X102743000Y-35814000D01*
X102743000Y-35814000D02*
X90551000Y-35814000D01*
X90551000Y-35814000D02*
X90551000Y-36957000D01*
X90551000Y-42545000D02*
X90551000Y-36830000D01*
X90551000Y-42545000D02*
X90551000Y-44323000D01*
X90551000Y-44323000D02*
X90551000Y-44450000D01*
X102743000Y-40640000D02*
X102743000Y-44450000D01*
X102743000Y-36830000D02*
X102743000Y-40640000D01*
D15*
X123883000Y-138556538D02*
G75*
G03X129433000Y-140101830I2990000J-462D01*
G01*
X123883000Y-138557462D02*
G75*
G02X129433000Y-137012170I2990000J462D01*
G01*
X129373000Y-138557000D02*
G75*
G03X129373000Y-138557000I-2500000J0D01*
G01*
X129433000Y-140102000D02*
X129433000Y-137012000D01*
X117430000Y-135833000D02*
X113710000Y-135833000D01*
X113710000Y-135833000D02*
X113710000Y-145853000D01*
X113710000Y-145853000D02*
X117430000Y-145853000D01*
X117430000Y-145853000D02*
X117430000Y-135833000D01*
X115570000Y-134603000D02*
X115570000Y-135833000D01*
X115570000Y-147083000D02*
X115570000Y-145853000D01*
X123883000Y-145541538D02*
G75*
G03X129433000Y-147086830I2990000J-462D01*
G01*
X123883000Y-145542462D02*
G75*
G02X129433000Y-143997170I2990000J462D01*
G01*
X129373000Y-145542000D02*
G75*
G03X129373000Y-145542000I-2500000J0D01*
G01*
X129433000Y-147087000D02*
X129433000Y-143997000D01*
M02*
