M48
METRIC,TZ
T1C0.500
T2C0.762
T3C0.800
T4C0.900
T5C1.000
T6C1.200
T7C3.048
%
G90
G05
T1
X45.212Y-149.352
X49.657Y-44.323
X66.675Y-149.479
X75.057Y-149.479
X91.821Y-149.479
X102.997Y-149.479
X118.745Y-149.479
X121.031Y-89.916
X121.031Y-119.253
X121.158Y-64.008
X125.857Y-70.993
X125.984Y-95.377
X131.318Y-105.029
T2
X55.245Y-153.289
X57.518Y-67.945
X57.518Y-70.485
X57.518Y-73.025
X57.518Y-75.565
X57.518Y-78.105
X57.518Y-80.645
X57.518Y-83.185
X57.518Y-85.725
X57.518Y-90.805
X57.531Y-93.345
X57.531Y-95.885
X57.531Y-98.425
X57.531Y-100.965
X57.531Y-103.505
X57.531Y-106.045
X57.531Y-108.585
X57.531Y-113.665
X57.531Y-116.205
X57.531Y-118.745
X57.531Y-121.285
X57.531Y-123.825
X57.531Y-126.365
X57.531Y-128.905
X57.531Y-131.445
X59.055Y-153.289
X62.598Y-133.985
X62.598Y-136.525
X62.865Y-153.289
X64.389Y-122.555
X65.138Y-133.985
X65.138Y-136.525
X66.421Y-160.655
X66.675Y-153.289
X67.678Y-133.985
X67.678Y-136.525
X68.199Y-122.555
X70.218Y-133.985
X70.218Y-136.525
X70.231Y-160.655
X72.009Y-122.555
X72.758Y-133.985
X72.758Y-136.525
X74.041Y-160.655
X75.298Y-133.985
X75.298Y-136.525
X75.819Y-122.555
X77.838Y-133.985
X77.838Y-136.525
X77.851Y-160.655
X80.378Y-133.985
X80.378Y-136.525
X80.391Y-153.289
X82.918Y-133.985
X82.918Y-136.525
X83.947Y-122.555
X84.201Y-153.289
X85.458Y-133.985
X85.458Y-136.525
X87.757Y-122.555
X87.998Y-133.985
X87.998Y-136.525
X88.011Y-153.289
X90.538Y-133.985
X90.538Y-136.525
X91.567Y-122.555
X91.567Y-160.401
X91.821Y-153.289
X93.078Y-133.985
X93.078Y-136.525
X95.377Y-122.555
X95.377Y-160.401
X95.618Y-133.985
X95.618Y-136.525
X98.158Y-133.985
X98.158Y-136.525
X99.187Y-160.401
X100.698Y-133.985
X100.698Y-136.525
X102.997Y-160.401
X103.238Y-133.985
X103.238Y-136.525
X105.778Y-58.801
X105.778Y-61.341
X105.778Y-63.881
X105.778Y-66.421
X105.778Y-103.505
X105.778Y-123.825
X105.778Y-126.365
X105.778Y-133.985
X105.778Y-136.525
X105.791Y-68.961
X105.791Y-71.501
X105.791Y-74.041
X105.791Y-76.581
X105.791Y-79.121
X105.791Y-81.661
X105.791Y-85.725
X105.791Y-88.265
X105.791Y-90.805
X105.791Y-93.345
X105.791Y-95.885
X105.791Y-98.425
X105.791Y-100.965
X105.791Y-108.585
X105.791Y-111.125
X105.791Y-113.665
X105.791Y-116.205
X105.791Y-118.745
X105.791Y-121.285
X107.315Y-153.543
X111.125Y-153.543
X114.935Y-153.543
X118.745Y-153.543
T3
X72.009Y-49.911
X77.009Y-49.911
T4
X80.899Y-44.323
X83.439Y-44.323
T5
X45.085Y-56.134
X45.085Y-58.674
X45.085Y-61.214
X45.085Y-63.754
X45.085Y-66.294
X45.212Y-41.91
X45.212Y-44.45
X45.212Y-46.99
X45.212Y-49.53
X45.212Y-52.07
X52.197Y-67.945
X52.197Y-70.485
X52.197Y-73.025
X52.197Y-75.565
X52.197Y-78.105
X52.197Y-80.645
X52.197Y-83.185
X52.197Y-85.725
X52.197Y-90.805
X52.197Y-93.345
X52.197Y-95.885
X52.197Y-98.425
X52.197Y-100.965
X52.197Y-103.505
X52.197Y-106.045
X52.197Y-108.585
X52.197Y-113.665
X52.197Y-116.205
X52.197Y-118.745
X52.197Y-121.285
X52.197Y-123.825
X52.197Y-126.365
X52.197Y-128.905
X52.197Y-131.445
X62.611Y-130.429
X62.611Y-139.827
X62.84Y-67.945
X62.84Y-70.485
X62.84Y-73.025
X62.84Y-75.565
X62.84Y-78.105
X62.84Y-80.645
X62.84Y-83.185
X62.84Y-85.725
X62.865Y-90.805
X62.865Y-93.345
X62.865Y-95.885
X62.865Y-98.425
X62.865Y-100.965
X62.865Y-103.505
X65.151Y-130.429
X65.151Y-139.827
X67.691Y-130.429
X67.691Y-139.827
X70.231Y-130.429
X70.231Y-139.827
X72.771Y-130.429
X72.771Y-139.827
X75.311Y-130.429
X75.311Y-139.827
X77.851Y-130.429
X77.851Y-139.827
X80.391Y-130.429
X80.391Y-139.827
X82.931Y-130.429
X82.931Y-139.827
X85.471Y-130.429
X85.471Y-139.827
X88.011Y-130.429
X88.011Y-139.827
X90.551Y-130.429
X90.551Y-139.827
X93.091Y-130.429
X93.091Y-139.827
X95.631Y-130.429
X95.631Y-139.827
X98.171Y-130.429
X98.171Y-139.827
X100.711Y-130.429
X100.711Y-139.827
X101.981Y-35.433
X101.981Y-37.973
X101.981Y-40.513
X103.251Y-130.429
X103.251Y-139.827
X105.791Y-130.429
X105.791Y-139.827
X111.125Y-58.801
X111.125Y-61.341
X111.125Y-63.881
X111.125Y-66.421
X111.125Y-68.961
X111.125Y-71.501
X111.125Y-74.041
X111.125Y-76.581
X111.125Y-79.121
X111.125Y-81.661
X111.125Y-85.725
X111.125Y-88.265
X111.125Y-90.805
X111.125Y-93.345
X111.125Y-95.885
X111.125Y-98.425
X111.125Y-100.965
X111.125Y-103.505
X111.125Y-108.585
X111.125Y-111.125
X111.125Y-113.665
X111.125Y-116.205
X111.125Y-118.745
X111.125Y-121.285
X111.125Y-123.825
X111.125Y-126.365
X116.459Y-58.801
X116.459Y-61.341
X116.459Y-63.881
X116.459Y-66.421
X116.459Y-68.961
X116.459Y-71.501
X116.459Y-74.041
X116.459Y-76.581
X116.459Y-79.121
X116.459Y-81.661
X116.459Y-85.725
X116.459Y-88.265
X116.459Y-90.805
X116.459Y-93.345
X116.459Y-95.885
X116.459Y-98.425
X116.459Y-100.965
X116.459Y-103.505
X126.111Y-54.229
X126.111Y-58.039
X126.111Y-61.849
X126.111Y-76.835
X126.111Y-80.645
X126.111Y-84.455
X126.111Y-101.219
X126.111Y-105.029
X126.111Y-108.839
X131.699Y-64.389
X131.699Y-68.199
X131.699Y-72.009
X131.699Y-89.027
X131.699Y-92.837
X131.699Y-96.647
X131.699Y-111.633
X131.699Y-115.443
X131.699Y-119.253
T6
X52.451Y-37.719
X61.849Y-44.323
X77.089Y-44.323
X82.931Y-37.719
X90.551Y-37.846
X95.631Y-37.846
X111.125Y-35.433
X111.125Y-40.513
T7
X47.244Y-34.036
X47.244Y-165.1
X132.207Y-165.1
X132.334Y-34.036
T5
X118.109Y-39.434G85X118.109Y-41.434
G05
X123.809Y-37.434G85X121.809Y-37.434
G05
X123.809Y-43.434G85X121.809Y-43.434
G05
T0
M30
