G04 #@! TF.FileFunction,Copper,L2,Bot,Signal*
%FSLAX46Y46*%
G04 Gerber Fmt 4.6, Leading zero omitted, Abs format (unit mm)*
G04 Created by KiCad (PCBNEW 4.0.7) date 03/06/18 22:29:02*
%MOMM*%
%LPD*%
G01*
G04 APERTURE LIST*
%ADD10C,0.100000*%
%ADD11C,2.200000*%
%ADD12O,2.286000X1.574800*%
%ADD13C,1.524000*%
%ADD14R,1.800000X1.800000*%
%ADD15C,1.800000*%
%ADD16C,2.400000*%
%ADD17O,2.400000X2.400000*%
%ADD18R,3.500000X3.500000*%
%ADD19R,1.700000X1.700000*%
%ADD20O,1.700000X1.700000*%
%ADD21C,2.000000*%
%ADD22C,1.600000*%
%ADD23C,4.064000*%
%ADD24C,1.000000*%
%ADD25C,1.800000*%
%ADD26C,0.800000*%
%ADD27C,0.200000*%
G04 APERTURE END LIST*
D10*
D11*
X111125000Y-40513000D03*
X111125000Y-35433000D03*
D12*
X57518300Y-67945000D03*
X57518300Y-70485000D03*
X57518300Y-73025000D03*
X57518300Y-75565000D03*
X57518300Y-78105000D03*
X57518300Y-80645000D03*
X57518300Y-83185000D03*
X57518300Y-85725000D03*
X57518300Y-90805000D03*
D13*
X62598300Y-133985000D03*
X62598300Y-136525000D03*
X67678300Y-133985000D03*
X67678300Y-136525000D03*
X65138300Y-133985000D03*
X65138300Y-136525000D03*
X103238300Y-133985000D03*
X103238300Y-136525000D03*
X100698300Y-133985000D03*
X100698300Y-136525000D03*
X98158300Y-133985000D03*
X98158300Y-136525000D03*
X95618300Y-133985000D03*
X95618300Y-136525000D03*
X93078300Y-133985000D03*
X93078300Y-136525000D03*
X90538300Y-133985000D03*
X90538300Y-136525000D03*
X87998300Y-133985000D03*
X87998300Y-136525000D03*
X85458300Y-133985000D03*
X85458300Y-136525000D03*
X82918300Y-133985000D03*
X82918300Y-136525000D03*
X80378300Y-133985000D03*
X80378300Y-136525000D03*
X77838300Y-133985000D03*
X77838300Y-136525000D03*
X75298300Y-133985000D03*
X75298300Y-136525000D03*
X72758300Y-133985000D03*
X72758300Y-136525000D03*
X70218300Y-133985000D03*
X70218300Y-136525000D03*
X105778300Y-133985000D03*
X105778300Y-136525000D03*
D12*
X105778300Y-126365000D03*
X105778300Y-123825000D03*
X105778300Y-103505000D03*
X105778300Y-66421000D03*
X105778300Y-63881000D03*
X105778300Y-61341000D03*
X105778300Y-58801000D03*
X57531000Y-93345000D03*
X57531000Y-95885000D03*
X57531000Y-98425000D03*
X57531000Y-100965000D03*
X57531000Y-103505000D03*
X57531000Y-106045000D03*
X57531000Y-108585000D03*
X57531000Y-113665000D03*
X57531000Y-116205000D03*
X57531000Y-118745000D03*
X57531000Y-121285000D03*
X57531000Y-123825000D03*
X57531000Y-126365000D03*
X57531000Y-128905000D03*
X57531000Y-131445000D03*
X105791000Y-100965000D03*
X105791000Y-98425000D03*
X105791000Y-95885000D03*
X105791000Y-93345000D03*
X105791000Y-90805000D03*
X105791000Y-88265000D03*
X105791000Y-85725000D03*
X105791000Y-81661000D03*
X105791000Y-79121000D03*
X105791000Y-76581000D03*
X105791000Y-74041000D03*
X105791000Y-71501000D03*
X105791000Y-68961000D03*
X105791000Y-108585000D03*
X105791000Y-111125000D03*
X105791000Y-113665000D03*
X105791000Y-116205000D03*
X105791000Y-118745000D03*
X105791000Y-121285000D03*
D14*
X83439000Y-44323000D03*
D15*
X80899000Y-44323000D03*
D16*
X61849000Y-44323000D03*
D17*
X77089000Y-44323000D03*
D18*
X122809000Y-43434000D03*
X122809000Y-37434000D03*
X118109000Y-40434000D03*
D19*
X52197000Y-108585000D03*
D20*
X52197000Y-106045000D03*
X52197000Y-103505000D03*
X52197000Y-100965000D03*
X52197000Y-98425000D03*
X52197000Y-95885000D03*
X52197000Y-93345000D03*
X52197000Y-90805000D03*
D19*
X52197000Y-131445000D03*
D20*
X52197000Y-128905000D03*
X52197000Y-126365000D03*
X52197000Y-123825000D03*
X52197000Y-121285000D03*
X52197000Y-118745000D03*
X52197000Y-116205000D03*
X52197000Y-113665000D03*
D19*
X111125000Y-108585000D03*
D20*
X111125000Y-111125000D03*
X111125000Y-113665000D03*
X111125000Y-116205000D03*
X111125000Y-118745000D03*
X111125000Y-121285000D03*
X111125000Y-123825000D03*
X111125000Y-126365000D03*
D19*
X105791000Y-130429000D03*
D20*
X103251000Y-130429000D03*
X100711000Y-130429000D03*
X98171000Y-130429000D03*
X95631000Y-130429000D03*
X93091000Y-130429000D03*
X90551000Y-130429000D03*
X88011000Y-130429000D03*
X85471000Y-130429000D03*
X82931000Y-130429000D03*
X80391000Y-130429000D03*
X77851000Y-130429000D03*
X75311000Y-130429000D03*
X72771000Y-130429000D03*
X70231000Y-130429000D03*
X67691000Y-130429000D03*
X65151000Y-130429000D03*
X62611000Y-130429000D03*
D19*
X105791000Y-139827000D03*
D20*
X103251000Y-139827000D03*
X100711000Y-139827000D03*
X98171000Y-139827000D03*
X95631000Y-139827000D03*
X93091000Y-139827000D03*
X90551000Y-139827000D03*
X88011000Y-139827000D03*
X85471000Y-139827000D03*
X82931000Y-139827000D03*
X80391000Y-139827000D03*
X77851000Y-139827000D03*
X75311000Y-139827000D03*
X72771000Y-139827000D03*
X70231000Y-139827000D03*
X67691000Y-139827000D03*
X65151000Y-139827000D03*
X62611000Y-139827000D03*
D19*
X116459000Y-85725000D03*
D20*
X116459000Y-88265000D03*
X116459000Y-90805000D03*
X116459000Y-93345000D03*
X116459000Y-95885000D03*
X116459000Y-98425000D03*
X116459000Y-100965000D03*
X116459000Y-103505000D03*
D19*
X101981000Y-35433000D03*
D20*
X101981000Y-37973000D03*
X101981000Y-40513000D03*
D16*
X52451000Y-37719000D03*
D17*
X82931000Y-37719000D03*
D21*
X126111000Y-61849000D03*
X126111000Y-58039000D03*
X126111000Y-54229000D03*
X131699000Y-72009000D03*
X131699000Y-68199000D03*
X131699000Y-64389000D03*
X126111000Y-84455000D03*
X126111000Y-80645000D03*
X126111000Y-76835000D03*
X131699000Y-96647000D03*
X131699000Y-92837000D03*
X131699000Y-89027000D03*
X126111000Y-108839000D03*
X126111000Y-105029000D03*
X126111000Y-101219000D03*
X131699000Y-119253000D03*
X131699000Y-115443000D03*
X131699000Y-111633000D03*
D13*
X55245000Y-153289000D03*
X59055000Y-153289000D03*
X62865000Y-153289000D03*
X66675000Y-153289000D03*
X66421000Y-160655000D03*
X70231000Y-160655000D03*
X74041000Y-160655000D03*
X77851000Y-160655000D03*
X80391000Y-153289000D03*
X84201000Y-153289000D03*
X88011000Y-153289000D03*
X91821000Y-153289000D03*
X91567000Y-160401000D03*
X95377000Y-160401000D03*
X99187000Y-160401000D03*
X102997000Y-160401000D03*
X107315000Y-153543000D03*
X111125000Y-153543000D03*
X114935000Y-153543000D03*
X118745000Y-153543000D03*
X75819000Y-122555000D03*
X72009000Y-122555000D03*
X68199000Y-122555000D03*
X64389000Y-122555000D03*
X83947000Y-122555000D03*
X87757000Y-122555000D03*
X91567000Y-122555000D03*
X95377000Y-122555000D03*
D19*
X52197000Y-85725000D03*
D20*
X52197000Y-83185000D03*
X52197000Y-80645000D03*
X52197000Y-78105000D03*
X52197000Y-75565000D03*
X52197000Y-73025000D03*
X52197000Y-70485000D03*
X52197000Y-67945000D03*
D19*
X116459000Y-58801000D03*
D20*
X116459000Y-61341000D03*
X116459000Y-63881000D03*
X116459000Y-66421000D03*
X116459000Y-68961000D03*
X116459000Y-71501000D03*
X116459000Y-74041000D03*
X116459000Y-76581000D03*
X116459000Y-79121000D03*
X116459000Y-81661000D03*
D19*
X111125000Y-58801000D03*
D20*
X111125000Y-61341000D03*
X111125000Y-63881000D03*
X111125000Y-66421000D03*
X111125000Y-68961000D03*
X111125000Y-71501000D03*
X111125000Y-74041000D03*
X111125000Y-76581000D03*
X111125000Y-79121000D03*
X111125000Y-81661000D03*
D19*
X111125000Y-85725000D03*
D20*
X111125000Y-88265000D03*
X111125000Y-90805000D03*
X111125000Y-93345000D03*
X111125000Y-95885000D03*
X111125000Y-98425000D03*
X111125000Y-100965000D03*
X111125000Y-103505000D03*
D19*
X62839600Y-85725000D03*
D20*
X62839600Y-83185000D03*
X62839600Y-80645000D03*
X62839600Y-78105000D03*
X62839600Y-75565000D03*
X62839600Y-73025000D03*
X62839600Y-70485000D03*
X62839600Y-67945000D03*
D19*
X62865000Y-103505000D03*
D20*
X62865000Y-100965000D03*
X62865000Y-98425000D03*
X62865000Y-95885000D03*
X62865000Y-93345000D03*
X62865000Y-90805000D03*
D11*
X95631000Y-37846000D03*
X90551000Y-37846000D03*
D22*
X72009000Y-49911000D03*
X77009000Y-49911000D03*
D19*
X45085000Y-56134000D03*
D20*
X45085000Y-58674000D03*
X45085000Y-61214000D03*
X45085000Y-63754000D03*
X45085000Y-66294000D03*
D19*
X45212000Y-41910000D03*
D20*
X45212000Y-44450000D03*
X45212000Y-46990000D03*
X45212000Y-49530000D03*
X45212000Y-52070000D03*
D23*
X132207000Y-165100000D03*
X47244000Y-165100000D03*
X47244000Y-34036000D03*
X132334000Y-34036000D03*
D15*
X49657000Y-44323000D03*
X125857000Y-70993000D03*
X125984000Y-95377000D03*
X131318000Y-105029000D03*
X121031000Y-119253000D03*
X121031000Y-89916000D03*
X121158000Y-64008000D03*
D24*
X45212000Y-149352000D03*
X118745000Y-149479000D03*
X102997000Y-149479000D03*
X66675000Y-149479000D03*
X75057000Y-149479000D03*
X91821000Y-149479000D03*
D25*
X114554000Y-40434000D02*
X114554000Y-32131000D01*
X114554000Y-32131000D02*
X114554000Y-32893000D01*
X114554000Y-32893000D02*
X114554000Y-32131000D01*
X134747000Y-44323000D02*
X134747000Y-42037000D01*
X134747000Y-42037000D02*
X124841000Y-32131000D01*
X124841000Y-32131000D02*
X114554000Y-32131000D01*
X134747000Y-53975000D02*
X134747000Y-44323000D01*
X114554000Y-32131000D02*
X112268000Y-32131000D01*
X94107000Y-32131000D02*
X95377000Y-32131000D01*
X95377000Y-32131000D02*
X109093000Y-32131000D01*
X92964000Y-32131000D02*
X94107000Y-32131000D01*
X92964000Y-32258000D02*
X92964000Y-32131000D01*
X109093000Y-32131000D02*
X112268000Y-32131000D01*
X118109000Y-40434000D02*
X114554000Y-40434000D01*
X114554000Y-40434000D02*
X114554000Y-40513000D01*
X111125000Y-40513000D02*
X114554000Y-40513000D01*
X45212000Y-41910000D02*
X45212000Y-41275000D01*
X45212000Y-41275000D02*
X54229000Y-32258000D01*
X54229000Y-32258000D02*
X92964000Y-32258000D01*
X45212000Y-52070000D02*
X53086000Y-52070000D01*
X67183000Y-81661000D02*
X62839600Y-81661000D01*
X69342000Y-79502000D02*
X67183000Y-81661000D01*
X69342000Y-68326000D02*
X69342000Y-79502000D01*
X53086000Y-52070000D02*
X69342000Y-68326000D01*
X45212000Y-49530000D02*
X45212000Y-52070000D01*
X45212000Y-46990000D02*
X45212000Y-49530000D01*
X45212000Y-44450000D02*
X45212000Y-46990000D01*
X45212000Y-41910000D02*
X45212000Y-44450000D01*
X90932000Y-44323000D02*
X83439000Y-44323000D01*
X92964000Y-42291000D02*
X90932000Y-44323000D01*
X92964000Y-32258000D02*
X92964000Y-42291000D01*
X62839600Y-80645000D02*
X62839600Y-81661000D01*
X62839600Y-81661000D02*
X62839600Y-81788000D01*
X62839600Y-81915000D02*
X62839600Y-83185000D01*
X62839600Y-81788000D02*
X62839600Y-81915000D01*
X83439000Y-56261000D02*
X83439000Y-102235000D01*
X95377000Y-114173000D02*
X95377000Y-122555000D01*
X83439000Y-102235000D02*
X95377000Y-114173000D01*
X83439000Y-49784000D02*
X83439000Y-56261000D01*
X83439000Y-44323000D02*
X83439000Y-49784000D01*
X83439000Y-49784000D02*
X83312000Y-49911000D01*
X77009000Y-49911000D02*
X83312000Y-49911000D01*
X107315000Y-153543000D02*
X107315000Y-167513000D01*
X107315000Y-167513000D02*
X107442000Y-167513000D01*
X91567000Y-167513000D02*
X91567000Y-160401000D01*
X55626000Y-139827000D02*
X51816000Y-139827000D01*
X49657000Y-82042000D02*
X52197000Y-82042000D01*
X48006000Y-83693000D02*
X49657000Y-82042000D01*
X48006000Y-136017000D02*
X48006000Y-83693000D01*
X51816000Y-139827000D02*
X48006000Y-136017000D01*
X52197000Y-83185000D02*
X52197000Y-82042000D01*
X52197000Y-82042000D02*
X52197000Y-81915000D01*
X52197000Y-81915000D02*
X52197000Y-80645000D01*
X62611000Y-139827000D02*
X55626000Y-139827000D01*
X55626000Y-139827000D02*
X55499000Y-139827000D01*
X55499000Y-139827000D02*
X55245000Y-139827000D01*
X55245000Y-139827000D02*
X55245000Y-153289000D01*
X126111000Y-101219000D02*
X134747000Y-101219000D01*
X131699000Y-111633000D02*
X134747000Y-111633000D01*
X131699000Y-64389000D02*
X134747000Y-64389000D01*
X134747000Y-64389000D02*
X134493000Y-64389000D01*
X134493000Y-64389000D02*
X134747000Y-64389000D01*
X126111000Y-54229000D02*
X134747000Y-54229000D01*
X134747000Y-54229000D02*
X134747000Y-53975000D01*
X126111000Y-76835000D02*
X134747000Y-76835000D01*
X131699000Y-89027000D02*
X134747000Y-89027000D01*
X122809000Y-167513000D02*
X134747000Y-155575000D01*
X134747000Y-155575000D02*
X134747000Y-111633000D01*
X134747000Y-111633000D02*
X134747000Y-101219000D01*
X134747000Y-101219000D02*
X134747000Y-89027000D01*
X134747000Y-89027000D02*
X134747000Y-76835000D01*
X134747000Y-76835000D02*
X134747000Y-64389000D01*
X134747000Y-64389000D02*
X134747000Y-53975000D01*
X80391000Y-167513000D02*
X91567000Y-167513000D01*
X91567000Y-167513000D02*
X107442000Y-167513000D01*
X107442000Y-167513000D02*
X122809000Y-167513000D01*
X57518300Y-83185000D02*
X62839600Y-83185000D01*
X62839600Y-80645000D02*
X57518300Y-80645000D01*
X52197000Y-80645000D02*
X57518300Y-80645000D01*
X57518300Y-83185000D02*
X52197000Y-83185000D01*
X80391000Y-153289000D02*
X80391000Y-167513000D01*
X80391000Y-167513000D02*
X80899000Y-167513000D01*
X66421000Y-160655000D02*
X66421000Y-166497000D01*
X67437000Y-167513000D02*
X80899000Y-167513000D01*
X66421000Y-166497000D02*
X67437000Y-167513000D01*
X55245000Y-153289000D02*
X55245000Y-155321000D01*
X55245000Y-155321000D02*
X60579000Y-160655000D01*
X60579000Y-160655000D02*
X66421000Y-160655000D01*
X62611000Y-130429000D02*
X62611000Y-124333000D01*
X62611000Y-124333000D02*
X64389000Y-122555000D01*
X62611000Y-139827000D02*
X62611000Y-136537700D01*
X62611000Y-136537700D02*
X62598300Y-136525000D01*
X62598300Y-133985000D02*
X62598300Y-136525000D01*
X62611000Y-130429000D02*
X62611000Y-133972300D01*
X62611000Y-133972300D02*
X62598300Y-133985000D01*
D26*
X77089000Y-44323000D02*
X80899000Y-44323000D01*
D25*
X122809000Y-37434000D02*
X125953000Y-37434000D01*
X101981000Y-45593000D02*
X101981000Y-40513000D01*
X105410000Y-49022000D02*
X101981000Y-45593000D01*
X125222000Y-49022000D02*
X105410000Y-49022000D01*
X128778000Y-45466000D02*
X125222000Y-49022000D01*
X128778000Y-40259000D02*
X128778000Y-45466000D01*
X125953000Y-37434000D02*
X128778000Y-40259000D01*
X111125000Y-35433000D02*
X107569000Y-35433000D01*
X107569000Y-35433000D02*
X101981000Y-35433000D01*
D26*
X57531000Y-108585000D02*
X52197000Y-108585000D01*
X52197000Y-106045000D02*
X57531000Y-106045000D01*
X62865000Y-103505000D02*
X57531000Y-103505000D01*
X57531000Y-103505000D02*
X52197000Y-103505000D01*
X57531000Y-100965000D02*
X62865000Y-100965000D01*
X52197000Y-100965000D02*
X57531000Y-100965000D01*
X62865000Y-98425000D02*
X57531000Y-98425000D01*
X57531000Y-98425000D02*
X52197000Y-98425000D01*
X57531000Y-95885000D02*
X62865000Y-95885000D01*
X57531000Y-95885000D02*
X52197000Y-95885000D01*
X62865000Y-93345000D02*
X57531000Y-93345000D01*
X57531000Y-93345000D02*
X52197000Y-93345000D01*
X57518300Y-90805000D02*
X62865000Y-90805000D01*
X52197000Y-90805000D02*
X57518300Y-90805000D01*
X57531000Y-131445000D02*
X52197000Y-131445000D01*
X52197000Y-128905000D02*
X57531000Y-128905000D01*
X57531000Y-126365000D02*
X52197000Y-126365000D01*
X52197000Y-123825000D02*
X57531000Y-123825000D01*
X57531000Y-121285000D02*
X52197000Y-121285000D01*
X52197000Y-118745000D02*
X57531000Y-118745000D01*
X57531000Y-116205000D02*
X52197000Y-116205000D01*
X52197000Y-113665000D02*
X57531000Y-113665000D01*
X105791000Y-108585000D02*
X111125000Y-108585000D01*
X111125000Y-111125000D02*
X105791000Y-111125000D01*
X105791000Y-113665000D02*
X111125000Y-113665000D01*
X111125000Y-116205000D02*
X105791000Y-116205000D01*
X105791000Y-118745000D02*
X111125000Y-118745000D01*
X111125000Y-121285000D02*
X105791000Y-121285000D01*
X105778300Y-123825000D02*
X111125000Y-123825000D01*
X111125000Y-126365000D02*
X105778300Y-126365000D01*
X105778300Y-133985000D02*
X105778300Y-130441700D01*
X105778300Y-130441700D02*
X105791000Y-130429000D01*
X103238300Y-133985000D02*
X103238300Y-130441700D01*
X103238300Y-130441700D02*
X103251000Y-130429000D01*
X100711000Y-130429000D02*
X100711000Y-133972300D01*
X100711000Y-133972300D02*
X100698300Y-133985000D01*
X98158300Y-133985000D02*
X98158300Y-130441700D01*
X98158300Y-130441700D02*
X98171000Y-130429000D01*
X95631000Y-130429000D02*
X95631000Y-133972300D01*
X95631000Y-133972300D02*
X95618300Y-133985000D01*
X93078300Y-133985000D02*
X93078300Y-130441700D01*
X93078300Y-130441700D02*
X93091000Y-130429000D01*
X90551000Y-130429000D02*
X90551000Y-133972300D01*
X90551000Y-133972300D02*
X90538300Y-133985000D01*
X87998300Y-133985000D02*
X87998300Y-130441700D01*
X87998300Y-130441700D02*
X88011000Y-130429000D01*
X88011000Y-130429000D02*
X88011000Y-126111000D01*
X88011000Y-126111000D02*
X91567000Y-122555000D01*
X85471000Y-130429000D02*
X85471000Y-133972300D01*
X85471000Y-133972300D02*
X85458300Y-133985000D01*
X85471000Y-130429000D02*
X85471000Y-124841000D01*
X85471000Y-124841000D02*
X87757000Y-122555000D01*
X105778300Y-136525000D02*
X105778300Y-139814300D01*
X105778300Y-139814300D02*
X105791000Y-139827000D01*
X82931000Y-139827000D02*
X82931000Y-141859000D01*
X99187000Y-147701000D02*
X99187000Y-160401000D01*
X97155000Y-145669000D02*
X99187000Y-147701000D01*
X86741000Y-145669000D02*
X97155000Y-145669000D01*
X82931000Y-141859000D02*
X86741000Y-145669000D01*
X82931000Y-139827000D02*
X82931000Y-136537700D01*
X82931000Y-136537700D02*
X82918300Y-136525000D01*
X95377000Y-160401000D02*
X95377000Y-148439002D01*
X80391000Y-142621000D02*
X80391000Y-139827000D01*
X85217000Y-147447000D02*
X80391000Y-142621000D01*
X94384998Y-147447000D02*
X85217000Y-147447000D01*
X95377000Y-148439002D02*
X94384998Y-147447000D01*
X80378300Y-136525000D02*
X80378300Y-139814300D01*
X80378300Y-139814300D02*
X80391000Y-139827000D01*
X77851000Y-139827000D02*
X77851000Y-136537700D01*
X77851000Y-136537700D02*
X77838300Y-136525000D01*
X77851000Y-139827000D02*
X77851000Y-143129000D01*
X77851000Y-143129000D02*
X88011000Y-153289000D01*
X75311000Y-139827000D02*
X75311000Y-136537700D01*
X75311000Y-136537700D02*
X75298300Y-136525000D01*
X75311000Y-139827000D02*
X75311000Y-144399000D01*
X75311000Y-144399000D02*
X84201000Y-153289000D01*
X72758300Y-136525000D02*
X72758300Y-139814300D01*
X72758300Y-139814300D02*
X72771000Y-139827000D01*
X74041000Y-160655000D02*
X74041000Y-159893000D01*
X74041000Y-159893000D02*
X72771000Y-158623000D01*
X72771000Y-158623000D02*
X72771000Y-139827000D01*
X70218300Y-136525000D02*
X70218300Y-139814300D01*
X70218300Y-139814300D02*
X70231000Y-139827000D01*
X70231000Y-160655000D02*
X70231000Y-139827000D01*
X67691000Y-139827000D02*
X67691000Y-136537700D01*
X67691000Y-136537700D02*
X67678300Y-136525000D01*
X62865000Y-153289000D02*
X62865000Y-147701000D01*
X67691000Y-142875000D02*
X67691000Y-139827000D01*
X62865000Y-147701000D02*
X67691000Y-142875000D01*
X65138300Y-136525000D02*
X65138300Y-139814300D01*
X65138300Y-139814300D02*
X65151000Y-139827000D01*
X59055000Y-153289000D02*
X59055000Y-148463000D01*
X65151000Y-142367000D02*
X65151000Y-139827000D01*
X59055000Y-148463000D02*
X65151000Y-142367000D01*
X111125000Y-58801000D02*
X116459000Y-58801000D01*
X105778300Y-58801000D02*
X111125000Y-58801000D01*
X111125000Y-61341000D02*
X105778300Y-61341000D01*
X116459000Y-61341000D02*
X111125000Y-61341000D01*
X111125000Y-63881000D02*
X116459000Y-63881000D01*
X105778300Y-63881000D02*
X111125000Y-63881000D01*
X111125000Y-66421000D02*
X116459000Y-66421000D01*
X105778300Y-66421000D02*
X111125000Y-66421000D01*
X111125000Y-68961000D02*
X105791000Y-68961000D01*
X116459000Y-68961000D02*
X111125000Y-68961000D01*
X111125000Y-71501000D02*
X116459000Y-71501000D01*
X105791000Y-71501000D02*
X111125000Y-71501000D01*
X111125000Y-74041000D02*
X105791000Y-74041000D01*
X116459000Y-74041000D02*
X111125000Y-74041000D01*
X116459000Y-95885000D02*
X111125000Y-95885000D01*
X111125000Y-95885000D02*
X105791000Y-95885000D01*
X116459000Y-100965000D02*
X111125000Y-100965000D01*
X111125000Y-100965000D02*
X105791000Y-100965000D01*
X105778300Y-103505000D02*
X111125000Y-103505000D01*
X111125000Y-103505000D02*
X116459000Y-103505000D01*
D25*
X52451000Y-44323000D02*
X49657000Y-44323000D01*
X52451000Y-44323000D02*
X52451000Y-45974000D01*
X75819000Y-69342000D02*
X75819000Y-87503000D01*
X52451000Y-45974000D02*
X75819000Y-69342000D01*
X131699000Y-72009000D02*
X126873000Y-72009000D01*
X126873000Y-72009000D02*
X125857000Y-70993000D01*
X131699000Y-96647000D02*
X127254000Y-96647000D01*
X127254000Y-96647000D02*
X125984000Y-95377000D01*
X127508000Y-108839000D02*
X126111000Y-108839000D01*
X131318000Y-105029000D02*
X127508000Y-108839000D01*
X121031000Y-119253000D02*
X131699000Y-119253000D01*
X126111000Y-84455000D02*
X126111000Y-87503000D01*
X123698000Y-89916000D02*
X121031000Y-89916000D01*
X126111000Y-87503000D02*
X123698000Y-89916000D01*
X123317000Y-61849000D02*
X126111000Y-61849000D01*
X121158000Y-64008000D02*
X123317000Y-61849000D01*
X61849000Y-49911000D02*
X72009000Y-49911000D01*
X61849000Y-44323000D02*
X61849000Y-49911000D01*
X61849000Y-44323000D02*
X52451000Y-44323000D01*
X52451000Y-44323000D02*
X52705000Y-44323000D01*
X52705000Y-44323000D02*
X52451000Y-44323000D01*
X52451000Y-37719000D02*
X52451000Y-44323000D01*
X83947000Y-122555000D02*
X75819000Y-122555000D01*
X62839600Y-85725000D02*
X75311000Y-85725000D01*
X75819000Y-87503000D02*
X75819000Y-86233000D01*
X75311000Y-85725000D02*
X75819000Y-86233000D01*
X75819000Y-122555000D02*
X75819000Y-87503000D01*
X57518300Y-85725000D02*
X62839600Y-85725000D01*
X52197000Y-85725000D02*
X57518300Y-85725000D01*
X90551000Y-37846000D02*
X83058000Y-37846000D01*
X83058000Y-37846000D02*
X82931000Y-37719000D01*
D26*
X126111000Y-58039000D02*
X121412000Y-58039000D01*
X121412000Y-58039000D02*
X118999000Y-60452000D01*
X118999000Y-60452000D02*
X118999000Y-75819000D01*
X118999000Y-75819000D02*
X118237000Y-76581000D01*
X118237000Y-76581000D02*
X116459000Y-76581000D01*
X126111000Y-58039000D02*
X126111000Y-58293000D01*
X105791000Y-76581000D02*
X111125000Y-76581000D01*
X111125000Y-76581000D02*
X116459000Y-76581000D01*
X131699000Y-68199000D02*
X122174000Y-68199000D01*
X122174000Y-68199000D02*
X120523000Y-69850000D01*
X120523000Y-69850000D02*
X120523000Y-78232000D01*
X120523000Y-78232000D02*
X118745000Y-80010000D01*
X118745000Y-80010000D02*
X118745000Y-84963000D01*
X118745000Y-84963000D02*
X117983000Y-85725000D01*
X117983000Y-85725000D02*
X116459000Y-85725000D01*
X116459000Y-85725000D02*
X111125000Y-85725000D01*
X111125000Y-85725000D02*
X105791000Y-85725000D01*
X126111000Y-80645000D02*
X121285000Y-80645000D01*
X121285000Y-80645000D02*
X120523000Y-81407000D01*
X120523000Y-81407000D02*
X120523000Y-86487000D01*
X120523000Y-86487000D02*
X118745000Y-88265000D01*
X118745000Y-88265000D02*
X116459000Y-88265000D01*
X111125000Y-88265000D02*
X116459000Y-88265000D01*
X105791000Y-88265000D02*
X111125000Y-88265000D01*
X131699000Y-92837000D02*
X120523000Y-92837000D01*
X120523000Y-92837000D02*
X118491000Y-90805000D01*
X118491000Y-90805000D02*
X116459000Y-90805000D01*
X116459000Y-90805000D02*
X111125000Y-90805000D01*
X111125000Y-90805000D02*
X105791000Y-90805000D01*
X126111000Y-105029000D02*
X124841000Y-105029000D01*
X124841000Y-105029000D02*
X122301000Y-102489000D01*
X122301000Y-102489000D02*
X122301000Y-97663000D01*
X122301000Y-97663000D02*
X117983000Y-93345000D01*
X117983000Y-93345000D02*
X116459000Y-93345000D01*
X126111000Y-105029000D02*
X125603000Y-105029000D01*
X105791000Y-93345000D02*
X111125000Y-93345000D01*
X111125000Y-93345000D02*
X116459000Y-93345000D01*
X131699000Y-115443000D02*
X123063000Y-115443000D01*
X123063000Y-115443000D02*
X119380000Y-111760000D01*
X119380000Y-111760000D02*
X119380000Y-99187000D01*
X119380000Y-99187000D02*
X118618000Y-98425000D01*
X118618000Y-98425000D02*
X116459000Y-98425000D01*
X105791000Y-98425000D02*
X111125000Y-98425000D01*
X111125000Y-98425000D02*
X116459000Y-98425000D01*
X65151000Y-130429000D02*
X65151000Y-133972300D01*
X65151000Y-133972300D02*
X65138300Y-133985000D01*
X65151000Y-130429000D02*
X65151000Y-125603000D01*
X65151000Y-125603000D02*
X68199000Y-122555000D01*
X67678300Y-133985000D02*
X67678300Y-130441700D01*
X67678300Y-130441700D02*
X67691000Y-130429000D01*
X67691000Y-130429000D02*
X67691000Y-126873000D01*
X67691000Y-126873000D02*
X72009000Y-122555000D01*
X45085000Y-58674000D02*
X45085000Y-56134000D01*
X45085000Y-61214000D02*
X45085000Y-58674000D01*
X45085000Y-63754000D02*
X45085000Y-61214000D01*
X45085000Y-66294000D02*
X45085000Y-63754000D01*
X45212000Y-78105000D02*
X45212000Y-66421000D01*
X45212000Y-66421000D02*
X45085000Y-66294000D01*
X45212000Y-78105000D02*
X45212000Y-149352000D01*
X52197000Y-78105000D02*
X45212000Y-78105000D01*
X118745000Y-149479000D02*
X118745000Y-153543000D01*
X102997000Y-149479000D02*
X102997000Y-160401000D01*
X66675000Y-149479000D02*
X66675000Y-153289000D01*
X77851000Y-152273000D02*
X77851000Y-160655000D01*
X75057000Y-149479000D02*
X77851000Y-152273000D01*
X91821000Y-149479000D02*
X91821000Y-153289000D01*
X62839600Y-78105000D02*
X57518300Y-78105000D01*
X52197000Y-78105000D02*
X57518300Y-78105000D01*
X70231000Y-130429000D02*
X70231000Y-133972300D01*
X70231000Y-133972300D02*
X70218300Y-133985000D01*
X72771000Y-130429000D02*
X72771000Y-133972300D01*
X72771000Y-133972300D02*
X72758300Y-133985000D01*
X75298300Y-133985000D02*
X75298300Y-130441700D01*
X75298300Y-130441700D02*
X75311000Y-130429000D01*
X77851000Y-130429000D02*
X77851000Y-133972300D01*
X77851000Y-133972300D02*
X77838300Y-133985000D01*
X80378300Y-133985000D02*
X80378300Y-130441700D01*
X80378300Y-130441700D02*
X80391000Y-130429000D01*
X82931000Y-130429000D02*
X82931000Y-133972300D01*
X82931000Y-133972300D02*
X82918300Y-133985000D01*
X52197000Y-75565000D02*
X57518300Y-75565000D01*
X62839600Y-75565000D02*
X57518300Y-75565000D01*
X57518300Y-73025000D02*
X62839600Y-73025000D01*
X52197000Y-73025000D02*
X57518300Y-73025000D01*
X52197000Y-70485000D02*
X57518300Y-70485000D01*
X62839600Y-70485000D02*
X57518300Y-70485000D01*
X103251000Y-139827000D02*
X103251000Y-136537700D01*
X103251000Y-136537700D02*
X103238300Y-136525000D01*
X100698300Y-136525000D02*
X100698300Y-139814300D01*
X100698300Y-139814300D02*
X100711000Y-139827000D01*
X98171000Y-139827000D02*
X98171000Y-136537700D01*
X98171000Y-136537700D02*
X98158300Y-136525000D01*
X95618300Y-136525000D02*
X95618300Y-139814300D01*
X95618300Y-139814300D02*
X95631000Y-139827000D01*
X93091000Y-139827000D02*
X93091000Y-136537700D01*
X93091000Y-136537700D02*
X93078300Y-136525000D01*
X90538300Y-136525000D02*
X90538300Y-139814300D01*
X90538300Y-139814300D02*
X90551000Y-139827000D01*
X88011000Y-139827000D02*
X88011000Y-140843000D01*
X114935000Y-149733000D02*
X114935000Y-153543000D01*
X107569000Y-142367000D02*
X114935000Y-149733000D01*
X89535000Y-142367000D02*
X107569000Y-142367000D01*
X88011000Y-140843000D02*
X89535000Y-142367000D01*
X88011000Y-139827000D02*
X88011000Y-136537700D01*
X88011000Y-136537700D02*
X87998300Y-136525000D01*
X114935000Y-153543000D02*
X114427000Y-153543000D01*
X111125000Y-153543000D02*
X111125000Y-148717000D01*
X85471000Y-141605000D02*
X85471000Y-139827000D01*
X87757000Y-143891000D02*
X85471000Y-141605000D01*
X106299000Y-143891000D02*
X87757000Y-143891000D01*
X111125000Y-148717000D02*
X106299000Y-143891000D01*
X85458300Y-136525000D02*
X85458300Y-139814300D01*
X85458300Y-139814300D02*
X85471000Y-139827000D01*
X116459000Y-79121000D02*
X111125000Y-79121000D01*
X111125000Y-79121000D02*
X105791000Y-79121000D01*
X116459000Y-81661000D02*
X111125000Y-81661000D01*
X105791000Y-81661000D02*
X111125000Y-81661000D01*
D25*
X95631000Y-37846000D02*
X101854000Y-37846000D01*
X101854000Y-37846000D02*
X101981000Y-37973000D01*
D27*
G36*
X137187090Y-170080000D02*
X42264000Y-170080000D01*
X42264000Y-165720260D01*
X44111457Y-165720260D01*
X44587271Y-166871818D01*
X45467548Y-167753633D01*
X46618273Y-168231456D01*
X47864260Y-168232543D01*
X49015818Y-167756729D01*
X49897633Y-166876452D01*
X50375456Y-165725727D01*
X50375460Y-165720260D01*
X129074457Y-165720260D01*
X129550271Y-166871818D01*
X130430548Y-167753633D01*
X131581273Y-168231456D01*
X132827260Y-168232543D01*
X133978818Y-167756729D01*
X134860633Y-166876452D01*
X135338456Y-165725727D01*
X135339543Y-164479740D01*
X134863729Y-163328182D01*
X133983452Y-162446367D01*
X132832727Y-161968544D01*
X131586740Y-161967457D01*
X130435182Y-162443271D01*
X129553367Y-163323548D01*
X129075544Y-164474273D01*
X129074457Y-165720260D01*
X50375460Y-165720260D01*
X50376543Y-164479740D01*
X49900729Y-163328182D01*
X49020452Y-162446367D01*
X47869727Y-161968544D01*
X46623740Y-161967457D01*
X45472182Y-162443271D01*
X44590367Y-163323548D01*
X44112544Y-164474273D01*
X44111457Y-165720260D01*
X42264000Y-165720260D01*
X42264000Y-161637368D01*
X65656421Y-161637368D01*
X65729551Y-161868698D01*
X66246647Y-162040917D01*
X66790287Y-162002142D01*
X67112449Y-161868698D01*
X67185579Y-161637368D01*
X66421000Y-160872789D01*
X65656421Y-161637368D01*
X42264000Y-161637368D01*
X42264000Y-160480647D01*
X65035083Y-160480647D01*
X65073858Y-161024287D01*
X65207302Y-161346449D01*
X65438632Y-161419579D01*
X66203211Y-160655000D01*
X66638789Y-160655000D01*
X67403368Y-161419579D01*
X67634698Y-161346449D01*
X67806917Y-160829353D01*
X67768142Y-160285713D01*
X67634698Y-159963551D01*
X67403368Y-159890421D01*
X66638789Y-160655000D01*
X66203211Y-160655000D01*
X65438632Y-159890421D01*
X65207302Y-159963551D01*
X65035083Y-160480647D01*
X42264000Y-160480647D01*
X42264000Y-159672632D01*
X65656421Y-159672632D01*
X66421000Y-160437211D01*
X67185579Y-159672632D01*
X67112449Y-159441302D01*
X66595353Y-159269083D01*
X66051713Y-159307858D01*
X65729551Y-159441302D01*
X65656421Y-159672632D01*
X42264000Y-159672632D01*
X42264000Y-154271368D01*
X54480421Y-154271368D01*
X54553551Y-154502698D01*
X55070647Y-154674917D01*
X55614287Y-154636142D01*
X55936449Y-154502698D01*
X56009579Y-154271368D01*
X55245000Y-153506789D01*
X54480421Y-154271368D01*
X42264000Y-154271368D01*
X42264000Y-153114647D01*
X53859083Y-153114647D01*
X53897858Y-153658287D01*
X54031302Y-153980449D01*
X54262632Y-154053579D01*
X55027211Y-153289000D01*
X55462789Y-153289000D01*
X56227368Y-154053579D01*
X56458698Y-153980449D01*
X56630917Y-153463353D01*
X56592142Y-152919713D01*
X56458698Y-152597551D01*
X56227368Y-152524421D01*
X55462789Y-153289000D01*
X55027211Y-153289000D01*
X54262632Y-152524421D01*
X54031302Y-152597551D01*
X53859083Y-153114647D01*
X42264000Y-153114647D01*
X42264000Y-152306632D01*
X54480421Y-152306632D01*
X55245000Y-153071211D01*
X56009579Y-152306632D01*
X55936449Y-152075302D01*
X55419353Y-151903083D01*
X54875713Y-151941858D01*
X54553551Y-152075302D01*
X54480421Y-152306632D01*
X42264000Y-152306632D01*
X42264000Y-58674000D01*
X43096797Y-58674000D01*
X43245232Y-59420233D01*
X43585000Y-59928731D01*
X43585000Y-59959269D01*
X43245232Y-60467767D01*
X43096797Y-61214000D01*
X43245232Y-61960233D01*
X43585000Y-62468731D01*
X43585000Y-62499269D01*
X43245232Y-63007767D01*
X43096797Y-63754000D01*
X43245232Y-64500233D01*
X43585000Y-65008731D01*
X43585000Y-65039269D01*
X43245232Y-65547767D01*
X43096797Y-66294000D01*
X43245232Y-67040233D01*
X43667939Y-67672858D01*
X43712000Y-67702299D01*
X43712000Y-148792187D01*
X43612278Y-149032344D01*
X43611723Y-149668863D01*
X43854795Y-150257143D01*
X44304489Y-150707623D01*
X44892344Y-150951722D01*
X45528863Y-150952277D01*
X46117143Y-150709205D01*
X46567623Y-150259511D01*
X46811722Y-149671656D01*
X46812277Y-149035137D01*
X46712000Y-148792448D01*
X46712000Y-140205911D01*
X61203085Y-140205911D01*
X61455259Y-140715854D01*
X61883384Y-141090477D01*
X62232090Y-141234903D01*
X62457000Y-141123889D01*
X62457000Y-139981000D01*
X61313144Y-139981000D01*
X61203085Y-140205911D01*
X46712000Y-140205911D01*
X46712000Y-139448089D01*
X61203085Y-139448089D01*
X61313144Y-139673000D01*
X62457000Y-139673000D01*
X62457000Y-138530111D01*
X62232090Y-138419097D01*
X61883384Y-138563523D01*
X61455259Y-138938146D01*
X61203085Y-139448089D01*
X46712000Y-139448089D01*
X46712000Y-136350647D01*
X61212383Y-136350647D01*
X61251158Y-136894287D01*
X61384602Y-137216449D01*
X61615932Y-137289579D01*
X62380511Y-136525000D01*
X61615932Y-135760421D01*
X61384602Y-135833551D01*
X61212383Y-136350647D01*
X46712000Y-136350647D01*
X46712000Y-133810647D01*
X61212383Y-133810647D01*
X61251158Y-134354287D01*
X61384602Y-134676449D01*
X61615932Y-134749579D01*
X62380511Y-133985000D01*
X61615932Y-133220421D01*
X61384602Y-133293551D01*
X61212383Y-133810647D01*
X46712000Y-133810647D01*
X46712000Y-113665000D01*
X50208797Y-113665000D01*
X50357232Y-114411233D01*
X50707202Y-114935000D01*
X50357232Y-115458767D01*
X50208797Y-116205000D01*
X50357232Y-116951233D01*
X50707202Y-117475000D01*
X50357232Y-117998767D01*
X50208797Y-118745000D01*
X50357232Y-119491233D01*
X50707202Y-120015000D01*
X50357232Y-120538767D01*
X50208797Y-121285000D01*
X50357232Y-122031233D01*
X50707202Y-122555000D01*
X50357232Y-123078767D01*
X50208797Y-123825000D01*
X50357232Y-124571233D01*
X50707202Y-125095000D01*
X50357232Y-125618767D01*
X50208797Y-126365000D01*
X50357232Y-127111233D01*
X50707202Y-127635000D01*
X50357232Y-128158767D01*
X50208797Y-128905000D01*
X50357232Y-129651233D01*
X50507182Y-129875648D01*
X50313812Y-130158654D01*
X50225450Y-130595000D01*
X50225450Y-132295000D01*
X50302152Y-132702636D01*
X50543064Y-133077024D01*
X50910654Y-133328188D01*
X51347000Y-133416550D01*
X53047000Y-133416550D01*
X53454636Y-133339848D01*
X53829024Y-133098936D01*
X53934204Y-132945000D01*
X56044413Y-132945000D01*
X56409180Y-133188730D01*
X57131457Y-133332400D01*
X57930543Y-133332400D01*
X58652820Y-133188730D01*
X59265136Y-132779593D01*
X59674273Y-132167277D01*
X59817943Y-131445000D01*
X59691218Y-130807911D01*
X61203085Y-130807911D01*
X61455259Y-131317854D01*
X61883384Y-131692477D01*
X62232090Y-131836903D01*
X62457000Y-131725889D01*
X62457000Y-130583000D01*
X61313144Y-130583000D01*
X61203085Y-130807911D01*
X59691218Y-130807911D01*
X59674273Y-130722723D01*
X59308296Y-130175000D01*
X59391758Y-130050089D01*
X61203085Y-130050089D01*
X61313144Y-130275000D01*
X62457000Y-130275000D01*
X62457000Y-129132111D01*
X62232090Y-129021097D01*
X61883384Y-129165523D01*
X61455259Y-129540146D01*
X61203085Y-130050089D01*
X59391758Y-130050089D01*
X59674273Y-129627277D01*
X59817943Y-128905000D01*
X59674273Y-128182723D01*
X59308296Y-127635000D01*
X59674273Y-127087277D01*
X59817943Y-126365000D01*
X59674273Y-125642723D01*
X59308296Y-125095000D01*
X59674273Y-124547277D01*
X59817943Y-123825000D01*
X59674273Y-123102723D01*
X59308296Y-122555000D01*
X59424795Y-122380647D01*
X63003083Y-122380647D01*
X63041858Y-122924287D01*
X63175302Y-123246449D01*
X63406632Y-123319579D01*
X64171211Y-122555000D01*
X63406632Y-121790421D01*
X63175302Y-121863551D01*
X63003083Y-122380647D01*
X59424795Y-122380647D01*
X59674273Y-122007277D01*
X59760729Y-121572632D01*
X63624421Y-121572632D01*
X64389000Y-122337211D01*
X65153579Y-121572632D01*
X65080449Y-121341302D01*
X64563353Y-121169083D01*
X64019713Y-121207858D01*
X63697551Y-121341302D01*
X63624421Y-121572632D01*
X59760729Y-121572632D01*
X59817943Y-121285000D01*
X59674273Y-120562723D01*
X59308296Y-120015000D01*
X59674273Y-119467277D01*
X59817943Y-118745000D01*
X59674273Y-118022723D01*
X59308296Y-117475000D01*
X59674273Y-116927277D01*
X59817943Y-116205000D01*
X59674273Y-115482723D01*
X59308296Y-114935000D01*
X59674273Y-114387277D01*
X59817943Y-113665000D01*
X59674273Y-112942723D01*
X59265136Y-112330407D01*
X58652820Y-111921270D01*
X57930543Y-111777600D01*
X57131457Y-111777600D01*
X56409180Y-111921270D01*
X56044413Y-112165000D01*
X53432759Y-112165000D01*
X52981436Y-111863435D01*
X52235203Y-111715000D01*
X52158797Y-111715000D01*
X51412564Y-111863435D01*
X50779939Y-112286142D01*
X50357232Y-112918767D01*
X50208797Y-113665000D01*
X46712000Y-113665000D01*
X46712000Y-90805000D01*
X50208797Y-90805000D01*
X50357232Y-91551233D01*
X50707202Y-92075000D01*
X50357232Y-92598767D01*
X50208797Y-93345000D01*
X50357232Y-94091233D01*
X50707202Y-94615000D01*
X50357232Y-95138767D01*
X50208797Y-95885000D01*
X50357232Y-96631233D01*
X50707202Y-97155000D01*
X50357232Y-97678767D01*
X50208797Y-98425000D01*
X50357232Y-99171233D01*
X50707202Y-99695000D01*
X50357232Y-100218767D01*
X50208797Y-100965000D01*
X50357232Y-101711233D01*
X50707202Y-102235000D01*
X50357232Y-102758767D01*
X50208797Y-103505000D01*
X50357232Y-104251233D01*
X50707202Y-104775000D01*
X50357232Y-105298767D01*
X50208797Y-106045000D01*
X50357232Y-106791233D01*
X50507182Y-107015648D01*
X50313812Y-107298654D01*
X50225450Y-107735000D01*
X50225450Y-109435000D01*
X50302152Y-109842636D01*
X50543064Y-110217024D01*
X50910654Y-110468188D01*
X51347000Y-110556550D01*
X53047000Y-110556550D01*
X53454636Y-110479848D01*
X53829024Y-110238936D01*
X53934204Y-110085000D01*
X56044413Y-110085000D01*
X56409180Y-110328730D01*
X57131457Y-110472400D01*
X57930543Y-110472400D01*
X58652820Y-110328730D01*
X59265136Y-109919593D01*
X59674273Y-109307277D01*
X59817943Y-108585000D01*
X59674273Y-107862723D01*
X59308296Y-107315000D01*
X59674273Y-106767277D01*
X59817943Y-106045000D01*
X59674273Y-105322723D01*
X59461977Y-105005000D01*
X61126109Y-105005000D01*
X61211064Y-105137024D01*
X61578654Y-105388188D01*
X62015000Y-105476550D01*
X63715000Y-105476550D01*
X64122636Y-105399848D01*
X64497024Y-105158936D01*
X64748188Y-104791346D01*
X64836550Y-104355000D01*
X64836550Y-102655000D01*
X64759848Y-102247364D01*
X64557083Y-101932259D01*
X64704768Y-101711233D01*
X64853203Y-100965000D01*
X64704768Y-100218767D01*
X64354798Y-99695000D01*
X64704768Y-99171233D01*
X64853203Y-98425000D01*
X64704768Y-97678767D01*
X64354798Y-97155000D01*
X64704768Y-96631233D01*
X64853203Y-95885000D01*
X64704768Y-95138767D01*
X64354798Y-94615000D01*
X64704768Y-94091233D01*
X64853203Y-93345000D01*
X64704768Y-92598767D01*
X64354798Y-92075000D01*
X64704768Y-91551233D01*
X64853203Y-90805000D01*
X64704768Y-90058767D01*
X64282061Y-89426142D01*
X63649436Y-89003435D01*
X62903203Y-88855000D01*
X62826797Y-88855000D01*
X62080564Y-89003435D01*
X61629241Y-89305000D01*
X59004887Y-89305000D01*
X58640120Y-89061270D01*
X57917843Y-88917600D01*
X57118757Y-88917600D01*
X56396480Y-89061270D01*
X56031713Y-89305000D01*
X53432759Y-89305000D01*
X52981436Y-89003435D01*
X52235203Y-88855000D01*
X52158797Y-88855000D01*
X51412564Y-89003435D01*
X50779939Y-89426142D01*
X50357232Y-90058767D01*
X50208797Y-90805000D01*
X46712000Y-90805000D01*
X46712000Y-81023910D01*
X50789097Y-81023910D01*
X50933523Y-81372616D01*
X51308146Y-81800741D01*
X51539199Y-81915000D01*
X51308146Y-82029259D01*
X50933523Y-82457384D01*
X50789097Y-82806090D01*
X50900111Y-83031000D01*
X52043000Y-83031000D01*
X52043000Y-80799000D01*
X52351000Y-80799000D01*
X52351000Y-83031000D01*
X53493889Y-83031000D01*
X53604903Y-82806090D01*
X53460477Y-82457384D01*
X53085854Y-82029259D01*
X52854801Y-81915000D01*
X53085854Y-81800741D01*
X53460477Y-81372616D01*
X53604903Y-81023910D01*
X53600041Y-81014059D01*
X55816990Y-81014059D01*
X56067109Y-81522802D01*
X56486426Y-81875248D01*
X56612137Y-81915000D01*
X56486426Y-81954752D01*
X56067109Y-82307198D01*
X55816990Y-82815941D01*
X55928874Y-83031000D01*
X57364300Y-83031000D01*
X57364300Y-80799000D01*
X57672300Y-80799000D01*
X57672300Y-83031000D01*
X59107726Y-83031000D01*
X59219610Y-82815941D01*
X58969491Y-82307198D01*
X58550174Y-81954752D01*
X58424463Y-81915000D01*
X58550174Y-81875248D01*
X58969491Y-81522802D01*
X59214766Y-81023910D01*
X61431697Y-81023910D01*
X61576123Y-81372616D01*
X61950746Y-81800741D01*
X62181799Y-81915000D01*
X61950746Y-82029259D01*
X61576123Y-82457384D01*
X61431697Y-82806090D01*
X61542711Y-83031000D01*
X62685600Y-83031000D01*
X62685600Y-80799000D01*
X62993600Y-80799000D01*
X62993600Y-83031000D01*
X64136489Y-83031000D01*
X64247503Y-82806090D01*
X64103077Y-82457384D01*
X63728454Y-82029259D01*
X63497401Y-81915000D01*
X63728454Y-81800741D01*
X64103077Y-81372616D01*
X64247503Y-81023910D01*
X64136489Y-80799000D01*
X62993600Y-80799000D01*
X62685600Y-80799000D01*
X61542711Y-80799000D01*
X61431697Y-81023910D01*
X59214766Y-81023910D01*
X59219610Y-81014059D01*
X59107726Y-80799000D01*
X57672300Y-80799000D01*
X57364300Y-80799000D01*
X55928874Y-80799000D01*
X55816990Y-81014059D01*
X53600041Y-81014059D01*
X53493889Y-80799000D01*
X52351000Y-80799000D01*
X52043000Y-80799000D01*
X50900111Y-80799000D01*
X50789097Y-81023910D01*
X46712000Y-81023910D01*
X46712000Y-79605000D01*
X50961241Y-79605000D01*
X51116243Y-79708569D01*
X50933523Y-79917384D01*
X50789097Y-80266090D01*
X50900111Y-80491000D01*
X52043000Y-80491000D01*
X52043000Y-80471000D01*
X52351000Y-80471000D01*
X52351000Y-80491000D01*
X53493889Y-80491000D01*
X53604903Y-80266090D01*
X53460477Y-79917384D01*
X53277757Y-79708569D01*
X53432759Y-79605000D01*
X56031713Y-79605000D01*
X56158941Y-79690011D01*
X56067109Y-79767198D01*
X55816990Y-80275941D01*
X55928874Y-80491000D01*
X57364300Y-80491000D01*
X57364300Y-80471000D01*
X57672300Y-80471000D01*
X57672300Y-80491000D01*
X59107726Y-80491000D01*
X59219610Y-80275941D01*
X58969491Y-79767198D01*
X58877659Y-79690011D01*
X59004887Y-79605000D01*
X61603841Y-79605000D01*
X61758843Y-79708569D01*
X61576123Y-79917384D01*
X61431697Y-80266090D01*
X61542711Y-80491000D01*
X62685600Y-80491000D01*
X62685600Y-80471000D01*
X62993600Y-80471000D01*
X62993600Y-80491000D01*
X64136489Y-80491000D01*
X64247503Y-80266090D01*
X64103077Y-79917384D01*
X63920357Y-79708569D01*
X64256661Y-79483858D01*
X64679368Y-78851233D01*
X64827803Y-78105000D01*
X64679368Y-77358767D01*
X64329398Y-76835000D01*
X64679368Y-76311233D01*
X64827803Y-75565000D01*
X64679368Y-74818767D01*
X64329398Y-74295000D01*
X64679368Y-73771233D01*
X64827803Y-73025000D01*
X64679368Y-72278767D01*
X64329398Y-71755000D01*
X64679368Y-71231233D01*
X64827803Y-70485000D01*
X64679368Y-69738767D01*
X64329398Y-69215000D01*
X64679368Y-68691233D01*
X64827803Y-67945000D01*
X64679368Y-67198767D01*
X64256661Y-66566142D01*
X63624036Y-66143435D01*
X62877803Y-65995000D01*
X62801397Y-65995000D01*
X62055164Y-66143435D01*
X61422539Y-66566142D01*
X60999832Y-67198767D01*
X60851397Y-67945000D01*
X60999832Y-68691233D01*
X61196121Y-68985000D01*
X59449277Y-68985000D01*
X59661573Y-68667277D01*
X59805243Y-67945000D01*
X59661573Y-67222723D01*
X59252436Y-66610407D01*
X58640120Y-66201270D01*
X57917843Y-66057600D01*
X57118757Y-66057600D01*
X56396480Y-66201270D01*
X55784164Y-66610407D01*
X55375027Y-67222723D01*
X55231357Y-67945000D01*
X55375027Y-68667277D01*
X55587323Y-68985000D01*
X53840479Y-68985000D01*
X54036768Y-68691233D01*
X54185203Y-67945000D01*
X54036768Y-67198767D01*
X53614061Y-66566142D01*
X52981436Y-66143435D01*
X52235203Y-65995000D01*
X52158797Y-65995000D01*
X51412564Y-66143435D01*
X50779939Y-66566142D01*
X50357232Y-67198767D01*
X50208797Y-67945000D01*
X50357232Y-68691233D01*
X50707202Y-69215000D01*
X50357232Y-69738767D01*
X50208797Y-70485000D01*
X50357232Y-71231233D01*
X50707202Y-71755000D01*
X50357232Y-72278767D01*
X50208797Y-73025000D01*
X50357232Y-73771233D01*
X50707202Y-74295000D01*
X50357232Y-74818767D01*
X50208797Y-75565000D01*
X50357232Y-76311233D01*
X50553521Y-76605000D01*
X46712000Y-76605000D01*
X46712000Y-67358662D01*
X46924768Y-67040233D01*
X47073203Y-66294000D01*
X46924768Y-65547767D01*
X46585000Y-65039269D01*
X46585000Y-65008731D01*
X46924768Y-64500233D01*
X47073203Y-63754000D01*
X46924768Y-63007767D01*
X46585000Y-62499269D01*
X46585000Y-62468731D01*
X46924768Y-61960233D01*
X47073203Y-61214000D01*
X46924768Y-60467767D01*
X46585000Y-59959269D01*
X46585000Y-59928731D01*
X46924768Y-59420233D01*
X47073203Y-58674000D01*
X46924768Y-57927767D01*
X46774818Y-57703352D01*
X46968188Y-57420346D01*
X47056550Y-56984000D01*
X47056550Y-55284000D01*
X46979848Y-54876364D01*
X46738936Y-54501976D01*
X46371346Y-54250812D01*
X45935000Y-54162450D01*
X44235000Y-54162450D01*
X43827364Y-54239152D01*
X43452976Y-54480064D01*
X43201812Y-54847654D01*
X43113450Y-55284000D01*
X43113450Y-56984000D01*
X43190152Y-57391636D01*
X43392917Y-57706741D01*
X43245232Y-57927767D01*
X43096797Y-58674000D01*
X42264000Y-58674000D01*
X42264000Y-52448910D01*
X43804097Y-52448910D01*
X43948523Y-52797616D01*
X44323146Y-53225741D01*
X44833089Y-53477915D01*
X45058000Y-53367856D01*
X45058000Y-52224000D01*
X45366000Y-52224000D01*
X45366000Y-53367856D01*
X45590911Y-53477915D01*
X46100854Y-53225741D01*
X46475477Y-52797616D01*
X46619903Y-52448910D01*
X46508889Y-52224000D01*
X45366000Y-52224000D01*
X45058000Y-52224000D01*
X43915111Y-52224000D01*
X43804097Y-52448910D01*
X42264000Y-52448910D01*
X42264000Y-49908910D01*
X43804097Y-49908910D01*
X43948523Y-50257616D01*
X44323146Y-50685741D01*
X44554199Y-50800000D01*
X44323146Y-50914259D01*
X43948523Y-51342384D01*
X43804097Y-51691090D01*
X43915111Y-51916000D01*
X45058000Y-51916000D01*
X45058000Y-49684000D01*
X45366000Y-49684000D01*
X45366000Y-51916000D01*
X46508889Y-51916000D01*
X46619903Y-51691090D01*
X46475477Y-51342384D01*
X46100854Y-50914259D01*
X45869801Y-50800000D01*
X46100854Y-50685741D01*
X46475477Y-50257616D01*
X46619903Y-49908910D01*
X46508889Y-49684000D01*
X45366000Y-49684000D01*
X45058000Y-49684000D01*
X43915111Y-49684000D01*
X43804097Y-49908910D01*
X42264000Y-49908910D01*
X42264000Y-47368910D01*
X43804097Y-47368910D01*
X43948523Y-47717616D01*
X44323146Y-48145741D01*
X44554199Y-48260000D01*
X44323146Y-48374259D01*
X43948523Y-48802384D01*
X43804097Y-49151090D01*
X43915111Y-49376000D01*
X45058000Y-49376000D01*
X45058000Y-47144000D01*
X45366000Y-47144000D01*
X45366000Y-49376000D01*
X46508889Y-49376000D01*
X46619903Y-49151090D01*
X46475477Y-48802384D01*
X46100854Y-48374259D01*
X45869801Y-48260000D01*
X46100854Y-48145741D01*
X46475477Y-47717616D01*
X46619903Y-47368910D01*
X46508889Y-47144000D01*
X45366000Y-47144000D01*
X45058000Y-47144000D01*
X43915111Y-47144000D01*
X43804097Y-47368910D01*
X42264000Y-47368910D01*
X42264000Y-44828910D01*
X43804097Y-44828910D01*
X43948523Y-45177616D01*
X44323146Y-45605741D01*
X44554199Y-45720000D01*
X44323146Y-45834259D01*
X43948523Y-46262384D01*
X43804097Y-46611090D01*
X43915111Y-46836000D01*
X45058000Y-46836000D01*
X45058000Y-44604000D01*
X45366000Y-44604000D01*
X45366000Y-46836000D01*
X46508889Y-46836000D01*
X46619903Y-46611090D01*
X46475477Y-46262384D01*
X46100854Y-45834259D01*
X45869801Y-45720000D01*
X46100854Y-45605741D01*
X46475477Y-45177616D01*
X46619903Y-44828910D01*
X46565692Y-44719079D01*
X47656654Y-44719079D01*
X47960494Y-45454429D01*
X48522612Y-46017529D01*
X49257430Y-46322652D01*
X50053079Y-46323346D01*
X50053916Y-46323000D01*
X50520420Y-46323000D01*
X50603241Y-46739367D01*
X51036786Y-47388214D01*
X73819000Y-70170427D01*
X73819000Y-83725000D01*
X64180783Y-83725000D01*
X64247503Y-83563910D01*
X64136489Y-83339000D01*
X62993600Y-83339000D01*
X62993600Y-83359000D01*
X62685600Y-83359000D01*
X62685600Y-83339000D01*
X61542711Y-83339000D01*
X61431697Y-83563910D01*
X61498417Y-83725000D01*
X59135568Y-83725000D01*
X59219610Y-83554059D01*
X59107726Y-83339000D01*
X57672300Y-83339000D01*
X57672300Y-83359000D01*
X57364300Y-83359000D01*
X57364300Y-83339000D01*
X55928874Y-83339000D01*
X55816990Y-83554059D01*
X55901032Y-83725000D01*
X53538183Y-83725000D01*
X53604903Y-83563910D01*
X53493889Y-83339000D01*
X52351000Y-83339000D01*
X52351000Y-83359000D01*
X52043000Y-83359000D01*
X52043000Y-83339000D01*
X50900111Y-83339000D01*
X50789097Y-83563910D01*
X50907785Y-83850473D01*
X50564976Y-84071064D01*
X50313812Y-84438654D01*
X50225450Y-84875000D01*
X50225450Y-85581972D01*
X50197000Y-85725000D01*
X50225450Y-85868028D01*
X50225450Y-86575000D01*
X50302152Y-86982636D01*
X50543064Y-87357024D01*
X50910654Y-87608188D01*
X51347000Y-87696550D01*
X52053972Y-87696550D01*
X52197000Y-87725000D01*
X73819000Y-87725000D01*
X73819000Y-122059619D01*
X73588447Y-121501640D01*
X73065116Y-120977393D01*
X72381000Y-120693324D01*
X71640250Y-120692677D01*
X70955640Y-120975553D01*
X70431393Y-121498884D01*
X70147324Y-122183000D01*
X70147226Y-122295454D01*
X70061152Y-122381528D01*
X70061323Y-122186250D01*
X69778447Y-121501640D01*
X69255116Y-120977393D01*
X68571000Y-120693324D01*
X67830250Y-120692677D01*
X67145640Y-120975553D01*
X66621393Y-121498884D01*
X66337324Y-122183000D01*
X66337226Y-122295454D01*
X65710794Y-122921886D01*
X65774917Y-122729353D01*
X65736142Y-122185713D01*
X65602698Y-121863551D01*
X65371368Y-121790421D01*
X64606789Y-122555000D01*
X64620931Y-122569142D01*
X64403142Y-122786931D01*
X64389000Y-122772789D01*
X63624421Y-123537368D01*
X63697551Y-123768698D01*
X64214647Y-123940917D01*
X64728407Y-123904273D01*
X64090340Y-124542340D01*
X63765181Y-125028975D01*
X63651000Y-125603000D01*
X63651000Y-129193241D01*
X63547431Y-129348243D01*
X63338616Y-129165523D01*
X62989910Y-129021097D01*
X62765000Y-129132111D01*
X62765000Y-130275000D01*
X62785000Y-130275000D01*
X62785000Y-130583000D01*
X62765000Y-130583000D01*
X62765000Y-131725889D01*
X62989910Y-131836903D01*
X63338616Y-131692477D01*
X63547431Y-131509757D01*
X63651000Y-131664759D01*
X63651000Y-132838735D01*
X63560693Y-132928884D01*
X63547241Y-132961281D01*
X63475734Y-132889774D01*
X63362878Y-133002630D01*
X63289749Y-132771302D01*
X62772653Y-132599083D01*
X62229013Y-132637858D01*
X61906851Y-132771302D01*
X61833721Y-133002632D01*
X62598300Y-133767211D01*
X62612442Y-133753069D01*
X62830231Y-133970858D01*
X62816089Y-133985000D01*
X62830231Y-133999142D01*
X62612442Y-134216931D01*
X62598300Y-134202789D01*
X61833721Y-134967368D01*
X61906851Y-135198698D01*
X62057539Y-135248885D01*
X61906851Y-135311302D01*
X61833721Y-135542632D01*
X62598300Y-136307211D01*
X62612442Y-136293069D01*
X62830231Y-136510858D01*
X62816089Y-136525000D01*
X62830231Y-136539142D01*
X62612442Y-136756931D01*
X62598300Y-136742789D01*
X61833721Y-137507368D01*
X61906851Y-137738698D01*
X62423947Y-137910917D01*
X62967587Y-137872142D01*
X63289749Y-137738698D01*
X63362878Y-137507370D01*
X63475734Y-137620226D01*
X63546791Y-137549169D01*
X63558853Y-137578360D01*
X63638300Y-137657946D01*
X63638300Y-138610247D01*
X63547431Y-138746243D01*
X63338616Y-138563523D01*
X62989910Y-138419097D01*
X62765000Y-138530111D01*
X62765000Y-139673000D01*
X62785000Y-139673000D01*
X62785000Y-139981000D01*
X62765000Y-139981000D01*
X62765000Y-141123889D01*
X62989910Y-141234903D01*
X63338616Y-141090477D01*
X63547431Y-140907757D01*
X63651000Y-141062759D01*
X63651000Y-141745680D01*
X57994340Y-147402340D01*
X57669181Y-147888975D01*
X57555000Y-148463000D01*
X57555000Y-152155413D01*
X57477393Y-152232884D01*
X57193324Y-152917000D01*
X57192677Y-153657750D01*
X57475553Y-154342360D01*
X57998884Y-154866607D01*
X58683000Y-155150676D01*
X59423750Y-155151323D01*
X60108360Y-154868447D01*
X60632607Y-154345116D01*
X60916676Y-153661000D01*
X60917323Y-152920250D01*
X60634447Y-152235640D01*
X60555000Y-152156054D01*
X60555000Y-149084320D01*
X61365000Y-148274320D01*
X61365000Y-152155413D01*
X61287393Y-152232884D01*
X61003324Y-152917000D01*
X61002677Y-153657750D01*
X61285553Y-154342360D01*
X61808884Y-154866607D01*
X62493000Y-155150676D01*
X63233750Y-155151323D01*
X63918360Y-154868447D01*
X64442607Y-154345116D01*
X64726676Y-153661000D01*
X64726678Y-153657750D01*
X64812677Y-153657750D01*
X65095553Y-154342360D01*
X65618884Y-154866607D01*
X66303000Y-155150676D01*
X67043750Y-155151323D01*
X67728360Y-154868447D01*
X68252607Y-154345116D01*
X68536676Y-153661000D01*
X68537323Y-152920250D01*
X68254447Y-152235640D01*
X68175000Y-152156054D01*
X68175000Y-150038813D01*
X68274722Y-149798656D01*
X68275277Y-149162137D01*
X68032205Y-148573857D01*
X67582511Y-148123377D01*
X66994656Y-147879278D01*
X66358137Y-147878723D01*
X65769857Y-148121795D01*
X65319377Y-148571489D01*
X65075278Y-149159344D01*
X65074723Y-149795863D01*
X65175000Y-150038552D01*
X65175000Y-152155413D01*
X65097393Y-152232884D01*
X64813324Y-152917000D01*
X64812677Y-153657750D01*
X64726678Y-153657750D01*
X64727323Y-152920250D01*
X64444447Y-152235640D01*
X64365000Y-152156054D01*
X64365000Y-148322320D01*
X68731000Y-143956320D01*
X68731000Y-159521413D01*
X68653393Y-159598884D01*
X68369324Y-160283000D01*
X68368677Y-161023750D01*
X68651553Y-161708360D01*
X69174884Y-162232607D01*
X69859000Y-162516676D01*
X70599750Y-162517323D01*
X71284360Y-162234447D01*
X71808607Y-161711116D01*
X72092676Y-161027000D01*
X72093323Y-160286250D01*
X71938689Y-159912009D01*
X72217571Y-160190891D01*
X72179324Y-160283000D01*
X72178677Y-161023750D01*
X72461553Y-161708360D01*
X72984884Y-162232607D01*
X73669000Y-162516676D01*
X74409750Y-162517323D01*
X75094360Y-162234447D01*
X75618607Y-161711116D01*
X75902676Y-161027000D01*
X75903323Y-160286250D01*
X75620447Y-159601640D01*
X75448853Y-159429745D01*
X75426819Y-159318975D01*
X75101660Y-158832340D01*
X74271000Y-158001680D01*
X74271000Y-150885079D01*
X74392004Y-150935324D01*
X76351000Y-152894320D01*
X76351000Y-159521413D01*
X76273393Y-159598884D01*
X75989324Y-160283000D01*
X75988677Y-161023750D01*
X76271553Y-161708360D01*
X76794884Y-162232607D01*
X77479000Y-162516676D01*
X78219750Y-162517323D01*
X78904360Y-162234447D01*
X79428607Y-161711116D01*
X79564699Y-161383368D01*
X90802421Y-161383368D01*
X90875551Y-161614698D01*
X91392647Y-161786917D01*
X91936287Y-161748142D01*
X92258449Y-161614698D01*
X92331579Y-161383368D01*
X91567000Y-160618789D01*
X90802421Y-161383368D01*
X79564699Y-161383368D01*
X79712676Y-161027000D01*
X79713323Y-160286250D01*
X79688696Y-160226647D01*
X90181083Y-160226647D01*
X90219858Y-160770287D01*
X90353302Y-161092449D01*
X90584632Y-161165579D01*
X91349211Y-160401000D01*
X91784789Y-160401000D01*
X92549368Y-161165579D01*
X92780698Y-161092449D01*
X92952917Y-160575353D01*
X92914142Y-160031713D01*
X92780698Y-159709551D01*
X92549368Y-159636421D01*
X91784789Y-160401000D01*
X91349211Y-160401000D01*
X90584632Y-159636421D01*
X90353302Y-159709551D01*
X90181083Y-160226647D01*
X79688696Y-160226647D01*
X79430447Y-159601640D01*
X79351000Y-159522054D01*
X79351000Y-159418632D01*
X90802421Y-159418632D01*
X91567000Y-160183211D01*
X92331579Y-159418632D01*
X92258449Y-159187302D01*
X91741353Y-159015083D01*
X91197713Y-159053858D01*
X90875551Y-159187302D01*
X90802421Y-159418632D01*
X79351000Y-159418632D01*
X79351000Y-154271368D01*
X79626421Y-154271368D01*
X79699551Y-154502698D01*
X80216647Y-154674917D01*
X80760287Y-154636142D01*
X81082449Y-154502698D01*
X81155579Y-154271368D01*
X80391000Y-153506789D01*
X79626421Y-154271368D01*
X79351000Y-154271368D01*
X79351000Y-154035360D01*
X79408632Y-154053579D01*
X80173211Y-153289000D01*
X79408632Y-152524421D01*
X79351000Y-152542640D01*
X79351000Y-152273000D01*
X79236819Y-151698975D01*
X78911660Y-151212340D01*
X76513507Y-148814187D01*
X76414205Y-148573857D01*
X75964511Y-148123377D01*
X75376656Y-147879278D01*
X74740137Y-147878723D01*
X74271000Y-148072566D01*
X74271000Y-145480320D01*
X80757886Y-151967206D01*
X80565353Y-151903083D01*
X80021713Y-151941858D01*
X79699551Y-152075302D01*
X79626421Y-152306632D01*
X80391000Y-153071211D01*
X80405142Y-153057069D01*
X80622931Y-153274858D01*
X80608789Y-153289000D01*
X81373368Y-154053579D01*
X81604698Y-153980449D01*
X81776917Y-153463353D01*
X81740273Y-152949593D01*
X82338773Y-153548093D01*
X82338677Y-153657750D01*
X82621553Y-154342360D01*
X83144884Y-154866607D01*
X83829000Y-155150676D01*
X84569750Y-155151323D01*
X85254360Y-154868447D01*
X85778607Y-154345116D01*
X86062676Y-153661000D01*
X86062850Y-153462170D01*
X86148773Y-153548093D01*
X86148677Y-153657750D01*
X86431553Y-154342360D01*
X86954884Y-154866607D01*
X87639000Y-155150676D01*
X88379750Y-155151323D01*
X89064360Y-154868447D01*
X89588607Y-154345116D01*
X89872676Y-153661000D01*
X89873323Y-152920250D01*
X89590447Y-152235640D01*
X89067116Y-151711393D01*
X88383000Y-151427324D01*
X88270546Y-151427226D01*
X85790320Y-148947000D01*
X90309451Y-148947000D01*
X90221278Y-149159344D01*
X90220723Y-149795863D01*
X90321000Y-150038552D01*
X90321000Y-152155413D01*
X90243393Y-152232884D01*
X89959324Y-152917000D01*
X89958677Y-153657750D01*
X90241553Y-154342360D01*
X90764884Y-154866607D01*
X91449000Y-155150676D01*
X92189750Y-155151323D01*
X92874360Y-154868447D01*
X93398607Y-154345116D01*
X93682676Y-153661000D01*
X93683323Y-152920250D01*
X93400447Y-152235640D01*
X93321000Y-152156054D01*
X93321000Y-150038813D01*
X93420722Y-149798656D01*
X93421277Y-149162137D01*
X93332384Y-148947000D01*
X93763678Y-148947000D01*
X93877000Y-149060322D01*
X93877000Y-159267413D01*
X93799393Y-159344884D01*
X93515324Y-160029000D01*
X93514677Y-160769750D01*
X93797553Y-161454360D01*
X94320884Y-161978607D01*
X95005000Y-162262676D01*
X95745750Y-162263323D01*
X96430360Y-161980447D01*
X96954607Y-161457116D01*
X97238676Y-160773000D01*
X97239323Y-160032250D01*
X96956447Y-159347640D01*
X96877000Y-159268054D01*
X96877000Y-148439002D01*
X96762819Y-147864977D01*
X96437660Y-147378342D01*
X96228318Y-147169000D01*
X96533680Y-147169000D01*
X97687000Y-148322320D01*
X97687000Y-159267413D01*
X97609393Y-159344884D01*
X97325324Y-160029000D01*
X97324677Y-160769750D01*
X97607553Y-161454360D01*
X98130884Y-161978607D01*
X98815000Y-162262676D01*
X99555750Y-162263323D01*
X100240360Y-161980447D01*
X100764607Y-161457116D01*
X101048676Y-160773000D01*
X101048678Y-160769750D01*
X101134677Y-160769750D01*
X101417553Y-161454360D01*
X101940884Y-161978607D01*
X102625000Y-162262676D01*
X103365750Y-162263323D01*
X104050360Y-161980447D01*
X104574607Y-161457116D01*
X104858676Y-160773000D01*
X104859323Y-160032250D01*
X104576447Y-159347640D01*
X104497000Y-159268054D01*
X104497000Y-154525368D01*
X106550421Y-154525368D01*
X106623551Y-154756698D01*
X107140647Y-154928917D01*
X107684287Y-154890142D01*
X108006449Y-154756698D01*
X108079579Y-154525368D01*
X107315000Y-153760789D01*
X106550421Y-154525368D01*
X104497000Y-154525368D01*
X104497000Y-153368647D01*
X105929083Y-153368647D01*
X105967858Y-153912287D01*
X106101302Y-154234449D01*
X106332632Y-154307579D01*
X107097211Y-153543000D01*
X107532789Y-153543000D01*
X108297368Y-154307579D01*
X108528698Y-154234449D01*
X108700917Y-153717353D01*
X108662142Y-153173713D01*
X108528698Y-152851551D01*
X108297368Y-152778421D01*
X107532789Y-153543000D01*
X107097211Y-153543000D01*
X106332632Y-152778421D01*
X106101302Y-152851551D01*
X105929083Y-153368647D01*
X104497000Y-153368647D01*
X104497000Y-152560632D01*
X106550421Y-152560632D01*
X107315000Y-153325211D01*
X108079579Y-152560632D01*
X108006449Y-152329302D01*
X107489353Y-152157083D01*
X106945713Y-152195858D01*
X106623551Y-152329302D01*
X106550421Y-152560632D01*
X104497000Y-152560632D01*
X104497000Y-150038813D01*
X104596722Y-149798656D01*
X104597277Y-149162137D01*
X104354205Y-148573857D01*
X103904511Y-148123377D01*
X103316656Y-147879278D01*
X102680137Y-147878723D01*
X102091857Y-148121795D01*
X101641377Y-148571489D01*
X101397278Y-149159344D01*
X101396723Y-149795863D01*
X101497000Y-150038552D01*
X101497000Y-159267413D01*
X101419393Y-159344884D01*
X101135324Y-160029000D01*
X101134677Y-160769750D01*
X101048678Y-160769750D01*
X101049323Y-160032250D01*
X100766447Y-159347640D01*
X100687000Y-159268054D01*
X100687000Y-147701000D01*
X100572819Y-147126975D01*
X100247660Y-146640340D01*
X98998320Y-145391000D01*
X105677680Y-145391000D01*
X109625000Y-149338320D01*
X109625000Y-152409413D01*
X109547393Y-152486884D01*
X109263324Y-153171000D01*
X109262677Y-153911750D01*
X109545553Y-154596360D01*
X110068884Y-155120607D01*
X110753000Y-155404676D01*
X111493750Y-155405323D01*
X112178360Y-155122447D01*
X112702607Y-154599116D01*
X112986676Y-153915000D01*
X112986739Y-153843325D01*
X113041181Y-154117025D01*
X113345977Y-154573185D01*
X113355553Y-154596360D01*
X113878884Y-155120607D01*
X114563000Y-155404676D01*
X115303750Y-155405323D01*
X115988360Y-155122447D01*
X116512607Y-154599116D01*
X116796676Y-153915000D01*
X116796678Y-153911750D01*
X116882677Y-153911750D01*
X117165553Y-154596360D01*
X117688884Y-155120607D01*
X118373000Y-155404676D01*
X119113750Y-155405323D01*
X119798360Y-155122447D01*
X120322607Y-154599116D01*
X120606676Y-153915000D01*
X120607323Y-153174250D01*
X120324447Y-152489640D01*
X120245000Y-152410054D01*
X120245000Y-150038813D01*
X120344722Y-149798656D01*
X120345277Y-149162137D01*
X120102205Y-148573857D01*
X119652511Y-148123377D01*
X119064656Y-147879278D01*
X118428137Y-147878723D01*
X117839857Y-148121795D01*
X117389377Y-148571489D01*
X117145278Y-149159344D01*
X117144723Y-149795863D01*
X117245000Y-150038552D01*
X117245000Y-152409413D01*
X117167393Y-152486884D01*
X116883324Y-153171000D01*
X116882677Y-153911750D01*
X116796678Y-153911750D01*
X116797323Y-153174250D01*
X116514447Y-152489640D01*
X116435000Y-152410054D01*
X116435000Y-149733000D01*
X116320819Y-149158975D01*
X115995660Y-148672340D01*
X108629660Y-141306340D01*
X108143025Y-140981181D01*
X107718070Y-140896652D01*
X107762550Y-140677000D01*
X107762550Y-138977000D01*
X107685848Y-138569364D01*
X107444936Y-138194976D01*
X107278300Y-138081118D01*
X107278300Y-137658587D01*
X107355907Y-137581116D01*
X107639976Y-136897000D01*
X107640623Y-136156250D01*
X107357747Y-135471640D01*
X107141567Y-135255082D01*
X107355907Y-135041116D01*
X107639976Y-134357000D01*
X107640623Y-133616250D01*
X107357747Y-132931640D01*
X107278300Y-132852054D01*
X107278300Y-132176063D01*
X107423024Y-132082936D01*
X107674188Y-131715346D01*
X107762550Y-131279000D01*
X107762550Y-129579000D01*
X107685848Y-129171364D01*
X107444936Y-128796976D01*
X107077346Y-128545812D01*
X106641000Y-128457450D01*
X104941000Y-128457450D01*
X104533364Y-128534152D01*
X104218259Y-128736917D01*
X103997233Y-128589232D01*
X103251000Y-128440797D01*
X102504767Y-128589232D01*
X101981000Y-128939202D01*
X101457233Y-128589232D01*
X100711000Y-128440797D01*
X99964767Y-128589232D01*
X99441000Y-128939202D01*
X98917233Y-128589232D01*
X98171000Y-128440797D01*
X97424767Y-128589232D01*
X96901000Y-128939202D01*
X96377233Y-128589232D01*
X95631000Y-128440797D01*
X94884767Y-128589232D01*
X94361000Y-128939202D01*
X93837233Y-128589232D01*
X93091000Y-128440797D01*
X92344767Y-128589232D01*
X91821000Y-128939202D01*
X91297233Y-128589232D01*
X90551000Y-128440797D01*
X89804767Y-128589232D01*
X89511000Y-128785521D01*
X89511000Y-126732320D01*
X91826093Y-124417227D01*
X91935750Y-124417323D01*
X92620360Y-124134447D01*
X93144607Y-123611116D01*
X93175229Y-123537368D01*
X94612421Y-123537368D01*
X94685551Y-123768698D01*
X95202647Y-123940917D01*
X95746287Y-123902142D01*
X95932524Y-123825000D01*
X103491357Y-123825000D01*
X103635027Y-124547277D01*
X104001004Y-125095000D01*
X103635027Y-125642723D01*
X103491357Y-126365000D01*
X103635027Y-127087277D01*
X104044164Y-127699593D01*
X104656480Y-128108730D01*
X105378757Y-128252400D01*
X106177843Y-128252400D01*
X106900120Y-128108730D01*
X107264887Y-127865000D01*
X109889241Y-127865000D01*
X110340564Y-128166565D01*
X111086797Y-128315000D01*
X111163203Y-128315000D01*
X111909436Y-128166565D01*
X112542061Y-127743858D01*
X112964768Y-127111233D01*
X113113203Y-126365000D01*
X112964768Y-125618767D01*
X112614798Y-125095000D01*
X112964768Y-124571233D01*
X113113203Y-123825000D01*
X112964768Y-123078767D01*
X112614798Y-122555000D01*
X112964768Y-122031233D01*
X113113203Y-121285000D01*
X112964768Y-120538767D01*
X112614798Y-120015000D01*
X112964768Y-119491233D01*
X113113203Y-118745000D01*
X112964768Y-117998767D01*
X112614798Y-117475000D01*
X112964768Y-116951233D01*
X113113203Y-116205000D01*
X112964768Y-115458767D01*
X112614798Y-114935000D01*
X112964768Y-114411233D01*
X113113203Y-113665000D01*
X112964768Y-112918767D01*
X112614798Y-112395000D01*
X112964768Y-111871233D01*
X113113203Y-111125000D01*
X112964768Y-110378767D01*
X112814818Y-110154352D01*
X113008188Y-109871346D01*
X113096550Y-109435000D01*
X113096550Y-107735000D01*
X113019848Y-107327364D01*
X112778936Y-106952976D01*
X112411346Y-106701812D01*
X111975000Y-106613450D01*
X110275000Y-106613450D01*
X109867364Y-106690152D01*
X109492976Y-106931064D01*
X109387796Y-107085000D01*
X107277587Y-107085000D01*
X106912820Y-106841270D01*
X106190543Y-106697600D01*
X105391457Y-106697600D01*
X104669180Y-106841270D01*
X104056864Y-107250407D01*
X103647727Y-107862723D01*
X103504057Y-108585000D01*
X103647727Y-109307277D01*
X104013704Y-109855000D01*
X103647727Y-110402723D01*
X103504057Y-111125000D01*
X103647727Y-111847277D01*
X104013704Y-112395000D01*
X103647727Y-112942723D01*
X103504057Y-113665000D01*
X103647727Y-114387277D01*
X104013704Y-114935000D01*
X103647727Y-115482723D01*
X103504057Y-116205000D01*
X103647727Y-116927277D01*
X104013704Y-117475000D01*
X103647727Y-118022723D01*
X103504057Y-118745000D01*
X103647727Y-119467277D01*
X104013704Y-120015000D01*
X103647727Y-120562723D01*
X103504057Y-121285000D01*
X103647727Y-122007277D01*
X104007354Y-122545497D01*
X103635027Y-123102723D01*
X103491357Y-123825000D01*
X95932524Y-123825000D01*
X96068449Y-123768698D01*
X96141579Y-123537368D01*
X95377000Y-122772789D01*
X94612421Y-123537368D01*
X93175229Y-123537368D01*
X93428676Y-122927000D01*
X93429153Y-122380647D01*
X93991083Y-122380647D01*
X94029858Y-122924287D01*
X94163302Y-123246449D01*
X94394632Y-123319579D01*
X95159211Y-122555000D01*
X95594789Y-122555000D01*
X96359368Y-123319579D01*
X96590698Y-123246449D01*
X96762917Y-122729353D01*
X96724142Y-122185713D01*
X96590698Y-121863551D01*
X96359368Y-121790421D01*
X95594789Y-122555000D01*
X95159211Y-122555000D01*
X94394632Y-121790421D01*
X94163302Y-121863551D01*
X93991083Y-122380647D01*
X93429153Y-122380647D01*
X93429323Y-122186250D01*
X93175781Y-121572632D01*
X94612421Y-121572632D01*
X95377000Y-122337211D01*
X96141579Y-121572632D01*
X96068449Y-121341302D01*
X95551353Y-121169083D01*
X95007713Y-121207858D01*
X94685551Y-121341302D01*
X94612421Y-121572632D01*
X93175781Y-121572632D01*
X93146447Y-121501640D01*
X92623116Y-120977393D01*
X91939000Y-120693324D01*
X91198250Y-120692677D01*
X90513640Y-120975553D01*
X89989393Y-121498884D01*
X89705324Y-122183000D01*
X89705226Y-122295454D01*
X89619152Y-122381528D01*
X89619323Y-122186250D01*
X89336447Y-121501640D01*
X88813116Y-120977393D01*
X88129000Y-120693324D01*
X87388250Y-120692677D01*
X86703640Y-120975553D01*
X86179393Y-121498884D01*
X85895324Y-122183000D01*
X85895226Y-122294717D01*
X85794759Y-121789633D01*
X85361214Y-121140786D01*
X84712367Y-120707241D01*
X83947000Y-120555000D01*
X77819000Y-120555000D01*
X77819000Y-69342005D01*
X77819001Y-69342000D01*
X77674367Y-68614883D01*
X77666759Y-68576633D01*
X77233214Y-67927786D01*
X77233211Y-67927784D01*
X68106427Y-58801000D01*
X103491357Y-58801000D01*
X103635027Y-59523277D01*
X104001004Y-60071000D01*
X103635027Y-60618723D01*
X103491357Y-61341000D01*
X103635027Y-62063277D01*
X104001004Y-62611000D01*
X103635027Y-63158723D01*
X103491357Y-63881000D01*
X103635027Y-64603277D01*
X104001004Y-65151000D01*
X103635027Y-65698723D01*
X103491357Y-66421000D01*
X103635027Y-67143277D01*
X104007354Y-67700503D01*
X103647727Y-68238723D01*
X103504057Y-68961000D01*
X103647727Y-69683277D01*
X104013704Y-70231000D01*
X103647727Y-70778723D01*
X103504057Y-71501000D01*
X103647727Y-72223277D01*
X104013704Y-72771000D01*
X103647727Y-73318723D01*
X103504057Y-74041000D01*
X103647727Y-74763277D01*
X104013704Y-75311000D01*
X103647727Y-75858723D01*
X103504057Y-76581000D01*
X103647727Y-77303277D01*
X104013704Y-77851000D01*
X103647727Y-78398723D01*
X103504057Y-79121000D01*
X103647727Y-79843277D01*
X104013704Y-80391000D01*
X103647727Y-80938723D01*
X103504057Y-81661000D01*
X103647727Y-82383277D01*
X104056864Y-82995593D01*
X104669180Y-83404730D01*
X105391457Y-83548400D01*
X106190543Y-83548400D01*
X106912820Y-83404730D01*
X107277587Y-83161000D01*
X109889241Y-83161000D01*
X110340564Y-83462565D01*
X111086797Y-83611000D01*
X111163203Y-83611000D01*
X111909436Y-83462565D01*
X112360759Y-83161000D01*
X115223241Y-83161000D01*
X115674564Y-83462565D01*
X116420797Y-83611000D01*
X116497203Y-83611000D01*
X117243436Y-83462565D01*
X117245000Y-83461520D01*
X117245000Y-83753450D01*
X115609000Y-83753450D01*
X115201364Y-83830152D01*
X114826976Y-84071064D01*
X114721796Y-84225000D01*
X112863891Y-84225000D01*
X112778936Y-84092976D01*
X112411346Y-83841812D01*
X111975000Y-83753450D01*
X110275000Y-83753450D01*
X109867364Y-83830152D01*
X109492976Y-84071064D01*
X109387796Y-84225000D01*
X107277587Y-84225000D01*
X106912820Y-83981270D01*
X106190543Y-83837600D01*
X105391457Y-83837600D01*
X104669180Y-83981270D01*
X104056864Y-84390407D01*
X103647727Y-85002723D01*
X103504057Y-85725000D01*
X103647727Y-86447277D01*
X104013704Y-86995000D01*
X103647727Y-87542723D01*
X103504057Y-88265000D01*
X103647727Y-88987277D01*
X104013704Y-89535000D01*
X103647727Y-90082723D01*
X103504057Y-90805000D01*
X103647727Y-91527277D01*
X104013704Y-92075000D01*
X103647727Y-92622723D01*
X103504057Y-93345000D01*
X103647727Y-94067277D01*
X104013704Y-94615000D01*
X103647727Y-95162723D01*
X103504057Y-95885000D01*
X103647727Y-96607277D01*
X104013704Y-97155000D01*
X103647727Y-97702723D01*
X103504057Y-98425000D01*
X103647727Y-99147277D01*
X104013704Y-99695000D01*
X103647727Y-100242723D01*
X103504057Y-100965000D01*
X103647727Y-101687277D01*
X104007354Y-102225497D01*
X103635027Y-102782723D01*
X103491357Y-103505000D01*
X103635027Y-104227277D01*
X104044164Y-104839593D01*
X104656480Y-105248730D01*
X105378757Y-105392400D01*
X106177843Y-105392400D01*
X106900120Y-105248730D01*
X107264887Y-105005000D01*
X109889241Y-105005000D01*
X110340564Y-105306565D01*
X111086797Y-105455000D01*
X111163203Y-105455000D01*
X111909436Y-105306565D01*
X112360759Y-105005000D01*
X115223241Y-105005000D01*
X115674564Y-105306565D01*
X116420797Y-105455000D01*
X116497203Y-105455000D01*
X117243436Y-105306565D01*
X117876061Y-104883858D01*
X117880000Y-104877963D01*
X117880000Y-111760000D01*
X117994181Y-112334025D01*
X118319340Y-112820660D01*
X122002340Y-116503660D01*
X122488975Y-116828819D01*
X123063000Y-116943000D01*
X130229125Y-116943000D01*
X130507893Y-117222255D01*
X130581935Y-117253000D01*
X121031599Y-117253000D01*
X120634921Y-117252654D01*
X119899571Y-117556494D01*
X119336471Y-118118612D01*
X119031348Y-118853430D01*
X119030654Y-119649079D01*
X119334494Y-120384429D01*
X119896612Y-120947529D01*
X120631430Y-121252652D01*
X121427079Y-121253346D01*
X121427916Y-121253000D01*
X131039506Y-121253000D01*
X131279452Y-121352634D01*
X132114883Y-121353363D01*
X132887000Y-121034331D01*
X133478255Y-120444107D01*
X133798634Y-119672548D01*
X133799363Y-118837117D01*
X133480331Y-118065000D01*
X132890107Y-117473745D01*
X132587488Y-117348087D01*
X132887000Y-117224331D01*
X133478255Y-116634107D01*
X133798634Y-115862548D01*
X133799363Y-115027117D01*
X133480331Y-114255000D01*
X132890107Y-113663745D01*
X132118548Y-113343366D01*
X131283117Y-113342637D01*
X130511000Y-113661669D01*
X130229178Y-113943000D01*
X123684320Y-113943000D01*
X122529386Y-112788066D01*
X130761723Y-112788066D01*
X130864174Y-113044040D01*
X131467703Y-113256105D01*
X132106445Y-113221067D01*
X132533826Y-113044040D01*
X132636277Y-112788066D01*
X131699000Y-111850789D01*
X130761723Y-112788066D01*
X122529386Y-112788066D01*
X121143023Y-111401703D01*
X130075895Y-111401703D01*
X130110933Y-112040445D01*
X130287960Y-112467826D01*
X130543934Y-112570277D01*
X131481211Y-111633000D01*
X131916789Y-111633000D01*
X132854066Y-112570277D01*
X133110040Y-112467826D01*
X133322105Y-111864297D01*
X133287067Y-111225555D01*
X133110040Y-110798174D01*
X132854066Y-110695723D01*
X131916789Y-111633000D01*
X131481211Y-111633000D01*
X130543934Y-110695723D01*
X130287960Y-110798174D01*
X130075895Y-111401703D01*
X121143023Y-111401703D01*
X120880000Y-111138680D01*
X120880000Y-102886159D01*
X120915181Y-103063025D01*
X121240340Y-103549660D01*
X123780340Y-106089660D01*
X124266975Y-106414819D01*
X124591603Y-106479392D01*
X124919893Y-106808255D01*
X125222512Y-106933913D01*
X124923000Y-107057669D01*
X124331745Y-107647893D01*
X124011366Y-108419452D01*
X124010637Y-109254883D01*
X124329669Y-110027000D01*
X124919893Y-110618255D01*
X125691452Y-110938634D01*
X126526883Y-110939363D01*
X126769780Y-110839000D01*
X127507995Y-110839000D01*
X127508000Y-110839001D01*
X128273367Y-110686759D01*
X128585896Y-110477934D01*
X130761723Y-110477934D01*
X131699000Y-111415211D01*
X132636277Y-110477934D01*
X132533826Y-110221960D01*
X131930297Y-110009895D01*
X131291555Y-110044933D01*
X130864174Y-110221960D01*
X130761723Y-110477934D01*
X128585896Y-110477934D01*
X128922214Y-110253214D01*
X132731553Y-106443874D01*
X133012529Y-106163388D01*
X133317652Y-105428570D01*
X133318346Y-104632921D01*
X133014506Y-103897571D01*
X132452388Y-103334471D01*
X131717570Y-103029348D01*
X131318002Y-103028999D01*
X131317998Y-103028999D01*
X130921921Y-103028654D01*
X130186571Y-103332494D01*
X129623471Y-103894612D01*
X129623123Y-103895450D01*
X128210757Y-105307816D01*
X128211363Y-104613117D01*
X127892331Y-103841000D01*
X127302107Y-103249745D01*
X126530548Y-102929366D01*
X125695117Y-102928637D01*
X125105558Y-103172238D01*
X124307386Y-102374066D01*
X125173723Y-102374066D01*
X125276174Y-102630040D01*
X125879703Y-102842105D01*
X126518445Y-102807067D01*
X126945826Y-102630040D01*
X127048277Y-102374066D01*
X126111000Y-101436789D01*
X125173723Y-102374066D01*
X124307386Y-102374066D01*
X123801000Y-101867680D01*
X123801000Y-100987703D01*
X124487895Y-100987703D01*
X124522933Y-101626445D01*
X124699960Y-102053826D01*
X124955934Y-102156277D01*
X125893211Y-101219000D01*
X126328789Y-101219000D01*
X127266066Y-102156277D01*
X127522040Y-102053826D01*
X127734105Y-101450297D01*
X127699067Y-100811555D01*
X127522040Y-100384174D01*
X127266066Y-100281723D01*
X126328789Y-101219000D01*
X125893211Y-101219000D01*
X124955934Y-100281723D01*
X124699960Y-100384174D01*
X124487895Y-100987703D01*
X123801000Y-100987703D01*
X123801000Y-100063934D01*
X125173723Y-100063934D01*
X126111000Y-101001211D01*
X127048277Y-100063934D01*
X126945826Y-99807960D01*
X126342297Y-99595895D01*
X125703555Y-99630933D01*
X125276174Y-99807960D01*
X125173723Y-100063934D01*
X123801000Y-100063934D01*
X123801000Y-97663000D01*
X123686819Y-97088975D01*
X123361660Y-96602340D01*
X121096320Y-94337000D01*
X124250278Y-94337000D01*
X123984348Y-94977430D01*
X123983654Y-95773079D01*
X124287494Y-96508429D01*
X124849612Y-97071529D01*
X124850449Y-97071876D01*
X125839784Y-98061211D01*
X125839786Y-98061214D01*
X126488633Y-98494759D01*
X127254000Y-98647000D01*
X131039506Y-98647000D01*
X131279452Y-98746634D01*
X132114883Y-98747363D01*
X132887000Y-98428331D01*
X133478255Y-97838107D01*
X133798634Y-97066548D01*
X133799363Y-96231117D01*
X133480331Y-95459000D01*
X132890107Y-94867745D01*
X132587488Y-94742087D01*
X132887000Y-94618331D01*
X133478255Y-94028107D01*
X133798634Y-93256548D01*
X133799363Y-92421117D01*
X133480331Y-91649000D01*
X132890107Y-91057745D01*
X132118548Y-90737366D01*
X131283117Y-90736637D01*
X130511000Y-91055669D01*
X130229178Y-91337000D01*
X125102058Y-91337000D01*
X125112214Y-91330214D01*
X126260361Y-90182066D01*
X130761723Y-90182066D01*
X130864174Y-90438040D01*
X131467703Y-90650105D01*
X132106445Y-90615067D01*
X132533826Y-90438040D01*
X132636277Y-90182066D01*
X131699000Y-89244789D01*
X130761723Y-90182066D01*
X126260361Y-90182066D01*
X127525211Y-88917216D01*
X127525214Y-88917214D01*
X127606404Y-88795703D01*
X130075895Y-88795703D01*
X130110933Y-89434445D01*
X130287960Y-89861826D01*
X130543934Y-89964277D01*
X131481211Y-89027000D01*
X131916789Y-89027000D01*
X132854066Y-89964277D01*
X133110040Y-89861826D01*
X133322105Y-89258297D01*
X133287067Y-88619555D01*
X133110040Y-88192174D01*
X132854066Y-88089723D01*
X131916789Y-89027000D01*
X131481211Y-89027000D01*
X130543934Y-88089723D01*
X130287960Y-88192174D01*
X130075895Y-88795703D01*
X127606404Y-88795703D01*
X127958759Y-88268367D01*
X128037614Y-87871934D01*
X130761723Y-87871934D01*
X131699000Y-88809211D01*
X132636277Y-87871934D01*
X132533826Y-87615960D01*
X131930297Y-87403895D01*
X131291555Y-87438933D01*
X130864174Y-87615960D01*
X130761723Y-87871934D01*
X128037614Y-87871934D01*
X128111000Y-87503000D01*
X128111000Y-85114494D01*
X128210634Y-84874548D01*
X128211363Y-84039117D01*
X127892331Y-83267000D01*
X127302107Y-82675745D01*
X126999488Y-82550087D01*
X127299000Y-82426331D01*
X127890255Y-81836107D01*
X128210634Y-81064548D01*
X128211363Y-80229117D01*
X127892331Y-79457000D01*
X127302107Y-78865745D01*
X126530548Y-78545366D01*
X125695117Y-78544637D01*
X124923000Y-78863669D01*
X124641178Y-79145000D01*
X121682323Y-79145000D01*
X121908819Y-78806025D01*
X122023000Y-78232000D01*
X122023000Y-77990066D01*
X125173723Y-77990066D01*
X125276174Y-78246040D01*
X125879703Y-78458105D01*
X126518445Y-78423067D01*
X126945826Y-78246040D01*
X127048277Y-77990066D01*
X126111000Y-77052789D01*
X125173723Y-77990066D01*
X122023000Y-77990066D01*
X122023000Y-76603703D01*
X124487895Y-76603703D01*
X124522933Y-77242445D01*
X124699960Y-77669826D01*
X124955934Y-77772277D01*
X125893211Y-76835000D01*
X126328789Y-76835000D01*
X127266066Y-77772277D01*
X127522040Y-77669826D01*
X127734105Y-77066297D01*
X127699067Y-76427555D01*
X127522040Y-76000174D01*
X127266066Y-75897723D01*
X126328789Y-76835000D01*
X125893211Y-76835000D01*
X124955934Y-75897723D01*
X124699960Y-76000174D01*
X124487895Y-76603703D01*
X122023000Y-76603703D01*
X122023000Y-75679934D01*
X125173723Y-75679934D01*
X126111000Y-76617211D01*
X127048277Y-75679934D01*
X126945826Y-75423960D01*
X126342297Y-75211895D01*
X125703555Y-75246933D01*
X125276174Y-75423960D01*
X125173723Y-75679934D01*
X122023000Y-75679934D01*
X122023000Y-70471320D01*
X122795320Y-69699000D01*
X124322362Y-69699000D01*
X124162471Y-69858612D01*
X123857348Y-70593430D01*
X123856654Y-71389079D01*
X124160494Y-72124429D01*
X124722612Y-72687529D01*
X124723448Y-72687876D01*
X125458786Y-73423214D01*
X126107633Y-73856759D01*
X126873000Y-74009001D01*
X126873005Y-74009000D01*
X131039506Y-74009000D01*
X131279452Y-74108634D01*
X132114883Y-74109363D01*
X132887000Y-73790331D01*
X133478255Y-73200107D01*
X133798634Y-72428548D01*
X133799363Y-71593117D01*
X133480331Y-70821000D01*
X132890107Y-70229745D01*
X132587488Y-70104087D01*
X132887000Y-69980331D01*
X133478255Y-69390107D01*
X133798634Y-68618548D01*
X133799363Y-67783117D01*
X133480331Y-67011000D01*
X132890107Y-66419745D01*
X132118548Y-66099366D01*
X131283117Y-66098637D01*
X130511000Y-66417669D01*
X130229178Y-66699000D01*
X122174000Y-66699000D01*
X121599975Y-66813181D01*
X121113340Y-67138340D01*
X120499000Y-67752680D01*
X120499000Y-65899927D01*
X120758430Y-66007652D01*
X121157998Y-66008001D01*
X121158002Y-66008001D01*
X121554079Y-66008346D01*
X122289429Y-65704506D01*
X122450149Y-65544066D01*
X130761723Y-65544066D01*
X130864174Y-65800040D01*
X131467703Y-66012105D01*
X132106445Y-65977067D01*
X132533826Y-65800040D01*
X132636277Y-65544066D01*
X131699000Y-64606789D01*
X130761723Y-65544066D01*
X122450149Y-65544066D01*
X122852529Y-65142388D01*
X122852876Y-65141552D01*
X123836725Y-64157703D01*
X130075895Y-64157703D01*
X130110933Y-64796445D01*
X130287960Y-65223826D01*
X130543934Y-65326277D01*
X131481211Y-64389000D01*
X131916789Y-64389000D01*
X132854066Y-65326277D01*
X133110040Y-65223826D01*
X133322105Y-64620297D01*
X133287067Y-63981555D01*
X133110040Y-63554174D01*
X132854066Y-63451723D01*
X131916789Y-64389000D01*
X131481211Y-64389000D01*
X130543934Y-63451723D01*
X130287960Y-63554174D01*
X130075895Y-64157703D01*
X123836725Y-64157703D01*
X124145428Y-63849000D01*
X125451506Y-63849000D01*
X125691452Y-63948634D01*
X126526883Y-63949363D01*
X127299000Y-63630331D01*
X127696089Y-63233934D01*
X130761723Y-63233934D01*
X131699000Y-64171211D01*
X132636277Y-63233934D01*
X132533826Y-62977960D01*
X131930297Y-62765895D01*
X131291555Y-62800933D01*
X130864174Y-62977960D01*
X130761723Y-63233934D01*
X127696089Y-63233934D01*
X127890255Y-63040107D01*
X128210634Y-62268548D01*
X128211363Y-61433117D01*
X127892331Y-60661000D01*
X127302107Y-60069745D01*
X126999488Y-59944087D01*
X127299000Y-59820331D01*
X127890255Y-59230107D01*
X128210634Y-58458548D01*
X128211363Y-57623117D01*
X127892331Y-56851000D01*
X127302107Y-56259745D01*
X126530548Y-55939366D01*
X125695117Y-55938637D01*
X124923000Y-56257669D01*
X124641178Y-56539000D01*
X121412000Y-56539000D01*
X120837975Y-56653181D01*
X120351340Y-56978340D01*
X118430550Y-58899130D01*
X118430550Y-57951000D01*
X118353848Y-57543364D01*
X118112936Y-57168976D01*
X117745346Y-56917812D01*
X117309000Y-56829450D01*
X115609000Y-56829450D01*
X115201364Y-56906152D01*
X114826976Y-57147064D01*
X114721796Y-57301000D01*
X112863891Y-57301000D01*
X112778936Y-57168976D01*
X112411346Y-56917812D01*
X111975000Y-56829450D01*
X110275000Y-56829450D01*
X109867364Y-56906152D01*
X109492976Y-57147064D01*
X109387796Y-57301000D01*
X107264887Y-57301000D01*
X106900120Y-57057270D01*
X106177843Y-56913600D01*
X105378757Y-56913600D01*
X104656480Y-57057270D01*
X104044164Y-57466407D01*
X103635027Y-58078723D01*
X103491357Y-58801000D01*
X68106427Y-58801000D01*
X64689493Y-55384066D01*
X125173723Y-55384066D01*
X125276174Y-55640040D01*
X125879703Y-55852105D01*
X126518445Y-55817067D01*
X126945826Y-55640040D01*
X127048277Y-55384066D01*
X126111000Y-54446789D01*
X125173723Y-55384066D01*
X64689493Y-55384066D01*
X63303130Y-53997703D01*
X124487895Y-53997703D01*
X124522933Y-54636445D01*
X124699960Y-55063826D01*
X124955934Y-55166277D01*
X125893211Y-54229000D01*
X126328789Y-54229000D01*
X127266066Y-55166277D01*
X127522040Y-55063826D01*
X127734105Y-54460297D01*
X127699067Y-53821555D01*
X127522040Y-53394174D01*
X127266066Y-53291723D01*
X126328789Y-54229000D01*
X125893211Y-54229000D01*
X124955934Y-53291723D01*
X124699960Y-53394174D01*
X124487895Y-53997703D01*
X63303130Y-53997703D01*
X62379361Y-53073934D01*
X125173723Y-53073934D01*
X126111000Y-54011211D01*
X127048277Y-53073934D01*
X126945826Y-52817960D01*
X126342297Y-52605895D01*
X125703555Y-52640933D01*
X125276174Y-52817960D01*
X125173723Y-53073934D01*
X62379361Y-53073934D01*
X61025028Y-51719601D01*
X61083633Y-51758759D01*
X61849000Y-51911000D01*
X72009000Y-51911000D01*
X72774367Y-51758759D01*
X73423214Y-51325214D01*
X73693321Y-50920969D01*
X76216820Y-50920969D01*
X76294643Y-51156229D01*
X76825548Y-51334815D01*
X77384382Y-51296637D01*
X77723357Y-51156229D01*
X77801180Y-50920969D01*
X77009000Y-50128789D01*
X76216820Y-50920969D01*
X73693321Y-50920969D01*
X73856759Y-50676367D01*
X74009000Y-49911000D01*
X73972510Y-49727548D01*
X75585185Y-49727548D01*
X75623363Y-50286382D01*
X75763771Y-50625357D01*
X75999031Y-50703180D01*
X76791211Y-49911000D01*
X77226789Y-49911000D01*
X78018969Y-50703180D01*
X78254229Y-50625357D01*
X78432815Y-50094452D01*
X78394637Y-49535618D01*
X78254229Y-49196643D01*
X78018969Y-49118820D01*
X77226789Y-49911000D01*
X76791211Y-49911000D01*
X75999031Y-49118820D01*
X75763771Y-49196643D01*
X75585185Y-49727548D01*
X73972510Y-49727548D01*
X73856759Y-49145633D01*
X73693322Y-48901031D01*
X76216820Y-48901031D01*
X77009000Y-49693211D01*
X77801180Y-48901031D01*
X77723357Y-48665771D01*
X77192452Y-48487185D01*
X76633618Y-48525363D01*
X76294643Y-48665771D01*
X76216820Y-48901031D01*
X73693322Y-48901031D01*
X73423214Y-48496786D01*
X72774367Y-48063241D01*
X72009000Y-47911000D01*
X63849000Y-47911000D01*
X63849000Y-45504022D01*
X64148600Y-44782505D01*
X64149001Y-44323000D01*
X74743940Y-44323000D01*
X74919017Y-45203172D01*
X75417594Y-45949346D01*
X76163768Y-46447923D01*
X77043940Y-46623000D01*
X77134060Y-46623000D01*
X78014232Y-46447923D01*
X78760406Y-45949346D01*
X78844828Y-45823000D01*
X79570422Y-45823000D01*
X79764612Y-46017529D01*
X80499430Y-46322652D01*
X81295079Y-46323346D01*
X82030429Y-46019506D01*
X82277563Y-45772803D01*
X82418061Y-45831000D01*
X83133000Y-45831000D01*
X83285000Y-45679000D01*
X83285000Y-44477000D01*
X83593000Y-44477000D01*
X83593000Y-45679000D01*
X83745000Y-45831000D01*
X84459939Y-45831000D01*
X84683405Y-45738437D01*
X84854438Y-45567404D01*
X84947000Y-45343938D01*
X84947000Y-44629000D01*
X84795000Y-44477000D01*
X83593000Y-44477000D01*
X83285000Y-44477000D01*
X83265000Y-44477000D01*
X83265000Y-44169000D01*
X83285000Y-44169000D01*
X83285000Y-42967000D01*
X83593000Y-42967000D01*
X83593000Y-44169000D01*
X84795000Y-44169000D01*
X84947000Y-44017000D01*
X84947000Y-43302062D01*
X84854438Y-43078596D01*
X84683405Y-42907563D01*
X84459939Y-42815000D01*
X83745000Y-42815000D01*
X83593000Y-42967000D01*
X83285000Y-42967000D01*
X83133000Y-42815000D01*
X82418061Y-42815000D01*
X82277650Y-42873160D01*
X82033388Y-42628471D01*
X81298570Y-42323348D01*
X80502921Y-42322654D01*
X79767571Y-42626494D01*
X79570722Y-42823000D01*
X78844828Y-42823000D01*
X78760406Y-42696654D01*
X78014232Y-42198077D01*
X77134060Y-42023000D01*
X77043940Y-42023000D01*
X76163768Y-42198077D01*
X75417594Y-42696654D01*
X74919017Y-43442828D01*
X74743940Y-44323000D01*
X64149001Y-44323000D01*
X64149399Y-43867509D01*
X63799982Y-43021857D01*
X63153547Y-42374292D01*
X62308505Y-42023400D01*
X61393509Y-42022601D01*
X60666489Y-42323000D01*
X54451000Y-42323000D01*
X54451000Y-38900022D01*
X54750600Y-38178505D01*
X54751001Y-37719000D01*
X80585940Y-37719000D01*
X80761017Y-38599172D01*
X81259594Y-39345346D01*
X82005768Y-39843923D01*
X82885940Y-40019000D01*
X82976060Y-40019000D01*
X83845790Y-39846000D01*
X89630740Y-39846000D01*
X90111473Y-40045618D01*
X90986687Y-40046381D01*
X91795572Y-39712157D01*
X92414982Y-39093827D01*
X92750618Y-38285527D01*
X92750621Y-38281687D01*
X93430619Y-38281687D01*
X93764843Y-39090572D01*
X94383173Y-39709982D01*
X95191473Y-40045618D01*
X96066687Y-40046381D01*
X96551647Y-39846000D01*
X100113675Y-39846000D01*
X99981000Y-40513000D01*
X99981000Y-45592995D01*
X99980999Y-45593000D01*
X100133241Y-46358367D01*
X100566786Y-47007214D01*
X103995784Y-50436211D01*
X103995786Y-50436214D01*
X104644633Y-50869759D01*
X105410000Y-51022000D01*
X125221995Y-51022000D01*
X125222000Y-51022001D01*
X125987367Y-50869759D01*
X126636214Y-50436214D01*
X130192211Y-46880216D01*
X130192214Y-46880214D01*
X130625759Y-46231367D01*
X130778000Y-45466000D01*
X130778000Y-40259000D01*
X130625759Y-39493633D01*
X130192214Y-38844786D01*
X130192211Y-38844784D01*
X127367214Y-36019786D01*
X126718367Y-35586241D01*
X125953000Y-35433999D01*
X125952995Y-35434000D01*
X125633509Y-35434000D01*
X125603848Y-35276364D01*
X125362936Y-34901976D01*
X125003320Y-34656260D01*
X129201457Y-34656260D01*
X129677271Y-35807818D01*
X130557548Y-36689633D01*
X131708273Y-37167456D01*
X132954260Y-37168543D01*
X134105818Y-36692729D01*
X134987633Y-35812452D01*
X135465456Y-34661727D01*
X135466543Y-33415740D01*
X134990729Y-32264182D01*
X134110452Y-31382367D01*
X132959727Y-30904544D01*
X131713740Y-30903457D01*
X130562182Y-31379271D01*
X129680367Y-32259548D01*
X129202544Y-33410273D01*
X129201457Y-34656260D01*
X125003320Y-34656260D01*
X124995346Y-34650812D01*
X124559000Y-34562450D01*
X121059000Y-34562450D01*
X120651364Y-34639152D01*
X120276976Y-34880064D01*
X120025812Y-35247654D01*
X119937450Y-35684000D01*
X119937450Y-38076000D01*
X118415000Y-38076000D01*
X118263000Y-38228000D01*
X118263000Y-40280000D01*
X120315000Y-40280000D01*
X120467000Y-40128000D01*
X120467000Y-40110834D01*
X120622654Y-40217188D01*
X121059000Y-40305550D01*
X124559000Y-40305550D01*
X124966636Y-40228848D01*
X125341024Y-39987936D01*
X125478015Y-39787443D01*
X126778000Y-41087427D01*
X126778000Y-44637573D01*
X124393572Y-47022000D01*
X106238427Y-47022000D01*
X103981000Y-44764572D01*
X103981000Y-41740526D01*
X110115263Y-41740526D01*
X110229993Y-42006871D01*
X110869802Y-42235661D01*
X111548462Y-42202191D01*
X112020007Y-42006871D01*
X112134737Y-41740526D01*
X111125000Y-40730789D01*
X110115263Y-41740526D01*
X103981000Y-41740526D01*
X103981000Y-40513000D01*
X103930238Y-40257802D01*
X109402339Y-40257802D01*
X109435809Y-40936462D01*
X109631129Y-41408007D01*
X109897474Y-41522737D01*
X110907211Y-40513000D01*
X111342789Y-40513000D01*
X112352526Y-41522737D01*
X112618871Y-41408007D01*
X112847661Y-40768198D01*
X112846271Y-40740000D01*
X115751000Y-40740000D01*
X115751000Y-42304939D01*
X115843563Y-42528405D01*
X116014596Y-42699438D01*
X116238062Y-42792000D01*
X117803000Y-42792000D01*
X117955000Y-42640000D01*
X117955000Y-40588000D01*
X118263000Y-40588000D01*
X118263000Y-42640000D01*
X118415000Y-42792000D01*
X119937450Y-42792000D01*
X119937450Y-45184000D01*
X120014152Y-45591636D01*
X120255064Y-45966024D01*
X120622654Y-46217188D01*
X121059000Y-46305550D01*
X124559000Y-46305550D01*
X124966636Y-46228848D01*
X125341024Y-45987936D01*
X125592188Y-45620346D01*
X125680550Y-45184000D01*
X125680550Y-41684000D01*
X125603848Y-41276364D01*
X125362936Y-40901976D01*
X124995346Y-40650812D01*
X124559000Y-40562450D01*
X121059000Y-40562450D01*
X120651364Y-40639152D01*
X120467000Y-40757787D01*
X120467000Y-40740000D01*
X120315000Y-40588000D01*
X118263000Y-40588000D01*
X117955000Y-40588000D01*
X115903000Y-40588000D01*
X115751000Y-40740000D01*
X112846271Y-40740000D01*
X112814191Y-40089538D01*
X112618871Y-39617993D01*
X112352526Y-39503263D01*
X111342789Y-40513000D01*
X110907211Y-40513000D01*
X109897474Y-39503263D01*
X109631129Y-39617993D01*
X109402339Y-40257802D01*
X103930238Y-40257802D01*
X103828759Y-39747633D01*
X103519955Y-39285474D01*
X110115263Y-39285474D01*
X111125000Y-40295211D01*
X112134737Y-39285474D01*
X112020007Y-39019129D01*
X111380198Y-38790339D01*
X110701538Y-38823809D01*
X110229993Y-39019129D01*
X110115263Y-39285474D01*
X103519955Y-39285474D01*
X103491574Y-39242999D01*
X103828759Y-38738367D01*
X103863629Y-38563061D01*
X115751000Y-38563061D01*
X115751000Y-40128000D01*
X115903000Y-40280000D01*
X117955000Y-40280000D01*
X117955000Y-38228000D01*
X117803000Y-38076000D01*
X116238062Y-38076000D01*
X116014596Y-38168562D01*
X115843563Y-38339595D01*
X115751000Y-38563061D01*
X103863629Y-38563061D01*
X103981001Y-37973000D01*
X103873588Y-37433000D01*
X110204740Y-37433000D01*
X110685473Y-37632618D01*
X111560687Y-37633381D01*
X112369572Y-37299157D01*
X112988982Y-36680827D01*
X113324618Y-35872527D01*
X113325381Y-34997313D01*
X112991157Y-34188428D01*
X112372827Y-33569018D01*
X111564527Y-33233382D01*
X110689313Y-33232619D01*
X110204353Y-33433000D01*
X101981000Y-33433000D01*
X101837972Y-33461450D01*
X101131000Y-33461450D01*
X100723364Y-33538152D01*
X100348976Y-33779064D01*
X100097812Y-34146654D01*
X100009450Y-34583000D01*
X100009450Y-35289972D01*
X99981000Y-35433000D01*
X100009450Y-35576028D01*
X100009450Y-35846000D01*
X96551260Y-35846000D01*
X96070527Y-35646382D01*
X95195313Y-35645619D01*
X94386428Y-35979843D01*
X93767018Y-36598173D01*
X93431382Y-37406473D01*
X93430619Y-38281687D01*
X92750621Y-38281687D01*
X92751381Y-37410313D01*
X92417157Y-36601428D01*
X91798827Y-35982018D01*
X90990527Y-35646382D01*
X90115313Y-35645619D01*
X89630353Y-35846000D01*
X84233262Y-35846000D01*
X83856232Y-35594077D01*
X82976060Y-35419000D01*
X82885940Y-35419000D01*
X82005768Y-35594077D01*
X81259594Y-36092654D01*
X80761017Y-36838828D01*
X80585940Y-37719000D01*
X54751001Y-37719000D01*
X54751399Y-37263509D01*
X54401982Y-36417857D01*
X53755547Y-35770292D01*
X52910505Y-35419400D01*
X51995509Y-35418601D01*
X51149857Y-35768018D01*
X50502292Y-36414453D01*
X50151400Y-37259495D01*
X50150601Y-38174491D01*
X50451000Y-38901511D01*
X50451000Y-42323000D01*
X49657599Y-42323000D01*
X49260921Y-42322654D01*
X48525571Y-42626494D01*
X47962471Y-43188612D01*
X47657348Y-43923430D01*
X47656654Y-44719079D01*
X46565692Y-44719079D01*
X46508889Y-44604000D01*
X45366000Y-44604000D01*
X45058000Y-44604000D01*
X43915111Y-44604000D01*
X43804097Y-44828910D01*
X42264000Y-44828910D01*
X42264000Y-42216000D01*
X43754000Y-42216000D01*
X43754000Y-42880938D01*
X43846562Y-43104404D01*
X44017595Y-43275437D01*
X44241061Y-43368000D01*
X44258620Y-43368000D01*
X43948523Y-43722384D01*
X43804097Y-44071090D01*
X43915111Y-44296000D01*
X45058000Y-44296000D01*
X45058000Y-42064000D01*
X45366000Y-42064000D01*
X45366000Y-44296000D01*
X46508889Y-44296000D01*
X46619903Y-44071090D01*
X46475477Y-43722384D01*
X46165380Y-43368000D01*
X46182939Y-43368000D01*
X46406405Y-43275437D01*
X46577438Y-43104404D01*
X46670000Y-42880938D01*
X46670000Y-42216000D01*
X46518000Y-42064000D01*
X45366000Y-42064000D01*
X45058000Y-42064000D01*
X43906000Y-42064000D01*
X43754000Y-42216000D01*
X42264000Y-42216000D01*
X42264000Y-40939062D01*
X43754000Y-40939062D01*
X43754000Y-41604000D01*
X43906000Y-41756000D01*
X45058000Y-41756000D01*
X45058000Y-40604000D01*
X45366000Y-40604000D01*
X45366000Y-41756000D01*
X46518000Y-41756000D01*
X46670000Y-41604000D01*
X46670000Y-40939062D01*
X46577438Y-40715596D01*
X46406405Y-40544563D01*
X46182939Y-40452000D01*
X45518000Y-40452000D01*
X45366000Y-40604000D01*
X45058000Y-40604000D01*
X44906000Y-40452000D01*
X44241061Y-40452000D01*
X44017595Y-40544563D01*
X43846562Y-40715596D01*
X43754000Y-40939062D01*
X42264000Y-40939062D01*
X42264000Y-34656260D01*
X44111457Y-34656260D01*
X44587271Y-35807818D01*
X45467548Y-36689633D01*
X46618273Y-37167456D01*
X47864260Y-37168543D01*
X49015818Y-36692729D01*
X49897633Y-35812452D01*
X50375456Y-34661727D01*
X50376543Y-33415740D01*
X49900729Y-32264182D01*
X49020452Y-31382367D01*
X47869727Y-30904544D01*
X46623740Y-30903457D01*
X45472182Y-31379271D01*
X44590367Y-32259548D01*
X44112544Y-33410273D01*
X44111457Y-34656260D01*
X42264000Y-34656260D01*
X42264000Y-29056000D01*
X137313910Y-29056000D01*
X137187090Y-170080000D01*
X137187090Y-170080000D01*
G37*
X137187090Y-170080000D02*
X42264000Y-170080000D01*
X42264000Y-165720260D01*
X44111457Y-165720260D01*
X44587271Y-166871818D01*
X45467548Y-167753633D01*
X46618273Y-168231456D01*
X47864260Y-168232543D01*
X49015818Y-167756729D01*
X49897633Y-166876452D01*
X50375456Y-165725727D01*
X50375460Y-165720260D01*
X129074457Y-165720260D01*
X129550271Y-166871818D01*
X130430548Y-167753633D01*
X131581273Y-168231456D01*
X132827260Y-168232543D01*
X133978818Y-167756729D01*
X134860633Y-166876452D01*
X135338456Y-165725727D01*
X135339543Y-164479740D01*
X134863729Y-163328182D01*
X133983452Y-162446367D01*
X132832727Y-161968544D01*
X131586740Y-161967457D01*
X130435182Y-162443271D01*
X129553367Y-163323548D01*
X129075544Y-164474273D01*
X129074457Y-165720260D01*
X50375460Y-165720260D01*
X50376543Y-164479740D01*
X49900729Y-163328182D01*
X49020452Y-162446367D01*
X47869727Y-161968544D01*
X46623740Y-161967457D01*
X45472182Y-162443271D01*
X44590367Y-163323548D01*
X44112544Y-164474273D01*
X44111457Y-165720260D01*
X42264000Y-165720260D01*
X42264000Y-161637368D01*
X65656421Y-161637368D01*
X65729551Y-161868698D01*
X66246647Y-162040917D01*
X66790287Y-162002142D01*
X67112449Y-161868698D01*
X67185579Y-161637368D01*
X66421000Y-160872789D01*
X65656421Y-161637368D01*
X42264000Y-161637368D01*
X42264000Y-160480647D01*
X65035083Y-160480647D01*
X65073858Y-161024287D01*
X65207302Y-161346449D01*
X65438632Y-161419579D01*
X66203211Y-160655000D01*
X66638789Y-160655000D01*
X67403368Y-161419579D01*
X67634698Y-161346449D01*
X67806917Y-160829353D01*
X67768142Y-160285713D01*
X67634698Y-159963551D01*
X67403368Y-159890421D01*
X66638789Y-160655000D01*
X66203211Y-160655000D01*
X65438632Y-159890421D01*
X65207302Y-159963551D01*
X65035083Y-160480647D01*
X42264000Y-160480647D01*
X42264000Y-159672632D01*
X65656421Y-159672632D01*
X66421000Y-160437211D01*
X67185579Y-159672632D01*
X67112449Y-159441302D01*
X66595353Y-159269083D01*
X66051713Y-159307858D01*
X65729551Y-159441302D01*
X65656421Y-159672632D01*
X42264000Y-159672632D01*
X42264000Y-154271368D01*
X54480421Y-154271368D01*
X54553551Y-154502698D01*
X55070647Y-154674917D01*
X55614287Y-154636142D01*
X55936449Y-154502698D01*
X56009579Y-154271368D01*
X55245000Y-153506789D01*
X54480421Y-154271368D01*
X42264000Y-154271368D01*
X42264000Y-153114647D01*
X53859083Y-153114647D01*
X53897858Y-153658287D01*
X54031302Y-153980449D01*
X54262632Y-154053579D01*
X55027211Y-153289000D01*
X55462789Y-153289000D01*
X56227368Y-154053579D01*
X56458698Y-153980449D01*
X56630917Y-153463353D01*
X56592142Y-152919713D01*
X56458698Y-152597551D01*
X56227368Y-152524421D01*
X55462789Y-153289000D01*
X55027211Y-153289000D01*
X54262632Y-152524421D01*
X54031302Y-152597551D01*
X53859083Y-153114647D01*
X42264000Y-153114647D01*
X42264000Y-152306632D01*
X54480421Y-152306632D01*
X55245000Y-153071211D01*
X56009579Y-152306632D01*
X55936449Y-152075302D01*
X55419353Y-151903083D01*
X54875713Y-151941858D01*
X54553551Y-152075302D01*
X54480421Y-152306632D01*
X42264000Y-152306632D01*
X42264000Y-58674000D01*
X43096797Y-58674000D01*
X43245232Y-59420233D01*
X43585000Y-59928731D01*
X43585000Y-59959269D01*
X43245232Y-60467767D01*
X43096797Y-61214000D01*
X43245232Y-61960233D01*
X43585000Y-62468731D01*
X43585000Y-62499269D01*
X43245232Y-63007767D01*
X43096797Y-63754000D01*
X43245232Y-64500233D01*
X43585000Y-65008731D01*
X43585000Y-65039269D01*
X43245232Y-65547767D01*
X43096797Y-66294000D01*
X43245232Y-67040233D01*
X43667939Y-67672858D01*
X43712000Y-67702299D01*
X43712000Y-148792187D01*
X43612278Y-149032344D01*
X43611723Y-149668863D01*
X43854795Y-150257143D01*
X44304489Y-150707623D01*
X44892344Y-150951722D01*
X45528863Y-150952277D01*
X46117143Y-150709205D01*
X46567623Y-150259511D01*
X46811722Y-149671656D01*
X46812277Y-149035137D01*
X46712000Y-148792448D01*
X46712000Y-140205911D01*
X61203085Y-140205911D01*
X61455259Y-140715854D01*
X61883384Y-141090477D01*
X62232090Y-141234903D01*
X62457000Y-141123889D01*
X62457000Y-139981000D01*
X61313144Y-139981000D01*
X61203085Y-140205911D01*
X46712000Y-140205911D01*
X46712000Y-139448089D01*
X61203085Y-139448089D01*
X61313144Y-139673000D01*
X62457000Y-139673000D01*
X62457000Y-138530111D01*
X62232090Y-138419097D01*
X61883384Y-138563523D01*
X61455259Y-138938146D01*
X61203085Y-139448089D01*
X46712000Y-139448089D01*
X46712000Y-136350647D01*
X61212383Y-136350647D01*
X61251158Y-136894287D01*
X61384602Y-137216449D01*
X61615932Y-137289579D01*
X62380511Y-136525000D01*
X61615932Y-135760421D01*
X61384602Y-135833551D01*
X61212383Y-136350647D01*
X46712000Y-136350647D01*
X46712000Y-133810647D01*
X61212383Y-133810647D01*
X61251158Y-134354287D01*
X61384602Y-134676449D01*
X61615932Y-134749579D01*
X62380511Y-133985000D01*
X61615932Y-133220421D01*
X61384602Y-133293551D01*
X61212383Y-133810647D01*
X46712000Y-133810647D01*
X46712000Y-113665000D01*
X50208797Y-113665000D01*
X50357232Y-114411233D01*
X50707202Y-114935000D01*
X50357232Y-115458767D01*
X50208797Y-116205000D01*
X50357232Y-116951233D01*
X50707202Y-117475000D01*
X50357232Y-117998767D01*
X50208797Y-118745000D01*
X50357232Y-119491233D01*
X50707202Y-120015000D01*
X50357232Y-120538767D01*
X50208797Y-121285000D01*
X50357232Y-122031233D01*
X50707202Y-122555000D01*
X50357232Y-123078767D01*
X50208797Y-123825000D01*
X50357232Y-124571233D01*
X50707202Y-125095000D01*
X50357232Y-125618767D01*
X50208797Y-126365000D01*
X50357232Y-127111233D01*
X50707202Y-127635000D01*
X50357232Y-128158767D01*
X50208797Y-128905000D01*
X50357232Y-129651233D01*
X50507182Y-129875648D01*
X50313812Y-130158654D01*
X50225450Y-130595000D01*
X50225450Y-132295000D01*
X50302152Y-132702636D01*
X50543064Y-133077024D01*
X50910654Y-133328188D01*
X51347000Y-133416550D01*
X53047000Y-133416550D01*
X53454636Y-133339848D01*
X53829024Y-133098936D01*
X53934204Y-132945000D01*
X56044413Y-132945000D01*
X56409180Y-133188730D01*
X57131457Y-133332400D01*
X57930543Y-133332400D01*
X58652820Y-133188730D01*
X59265136Y-132779593D01*
X59674273Y-132167277D01*
X59817943Y-131445000D01*
X59691218Y-130807911D01*
X61203085Y-130807911D01*
X61455259Y-131317854D01*
X61883384Y-131692477D01*
X62232090Y-131836903D01*
X62457000Y-131725889D01*
X62457000Y-130583000D01*
X61313144Y-130583000D01*
X61203085Y-130807911D01*
X59691218Y-130807911D01*
X59674273Y-130722723D01*
X59308296Y-130175000D01*
X59391758Y-130050089D01*
X61203085Y-130050089D01*
X61313144Y-130275000D01*
X62457000Y-130275000D01*
X62457000Y-129132111D01*
X62232090Y-129021097D01*
X61883384Y-129165523D01*
X61455259Y-129540146D01*
X61203085Y-130050089D01*
X59391758Y-130050089D01*
X59674273Y-129627277D01*
X59817943Y-128905000D01*
X59674273Y-128182723D01*
X59308296Y-127635000D01*
X59674273Y-127087277D01*
X59817943Y-126365000D01*
X59674273Y-125642723D01*
X59308296Y-125095000D01*
X59674273Y-124547277D01*
X59817943Y-123825000D01*
X59674273Y-123102723D01*
X59308296Y-122555000D01*
X59424795Y-122380647D01*
X63003083Y-122380647D01*
X63041858Y-122924287D01*
X63175302Y-123246449D01*
X63406632Y-123319579D01*
X64171211Y-122555000D01*
X63406632Y-121790421D01*
X63175302Y-121863551D01*
X63003083Y-122380647D01*
X59424795Y-122380647D01*
X59674273Y-122007277D01*
X59760729Y-121572632D01*
X63624421Y-121572632D01*
X64389000Y-122337211D01*
X65153579Y-121572632D01*
X65080449Y-121341302D01*
X64563353Y-121169083D01*
X64019713Y-121207858D01*
X63697551Y-121341302D01*
X63624421Y-121572632D01*
X59760729Y-121572632D01*
X59817943Y-121285000D01*
X59674273Y-120562723D01*
X59308296Y-120015000D01*
X59674273Y-119467277D01*
X59817943Y-118745000D01*
X59674273Y-118022723D01*
X59308296Y-117475000D01*
X59674273Y-116927277D01*
X59817943Y-116205000D01*
X59674273Y-115482723D01*
X59308296Y-114935000D01*
X59674273Y-114387277D01*
X59817943Y-113665000D01*
X59674273Y-112942723D01*
X59265136Y-112330407D01*
X58652820Y-111921270D01*
X57930543Y-111777600D01*
X57131457Y-111777600D01*
X56409180Y-111921270D01*
X56044413Y-112165000D01*
X53432759Y-112165000D01*
X52981436Y-111863435D01*
X52235203Y-111715000D01*
X52158797Y-111715000D01*
X51412564Y-111863435D01*
X50779939Y-112286142D01*
X50357232Y-112918767D01*
X50208797Y-113665000D01*
X46712000Y-113665000D01*
X46712000Y-90805000D01*
X50208797Y-90805000D01*
X50357232Y-91551233D01*
X50707202Y-92075000D01*
X50357232Y-92598767D01*
X50208797Y-93345000D01*
X50357232Y-94091233D01*
X50707202Y-94615000D01*
X50357232Y-95138767D01*
X50208797Y-95885000D01*
X50357232Y-96631233D01*
X50707202Y-97155000D01*
X50357232Y-97678767D01*
X50208797Y-98425000D01*
X50357232Y-99171233D01*
X50707202Y-99695000D01*
X50357232Y-100218767D01*
X50208797Y-100965000D01*
X50357232Y-101711233D01*
X50707202Y-102235000D01*
X50357232Y-102758767D01*
X50208797Y-103505000D01*
X50357232Y-104251233D01*
X50707202Y-104775000D01*
X50357232Y-105298767D01*
X50208797Y-106045000D01*
X50357232Y-106791233D01*
X50507182Y-107015648D01*
X50313812Y-107298654D01*
X50225450Y-107735000D01*
X50225450Y-109435000D01*
X50302152Y-109842636D01*
X50543064Y-110217024D01*
X50910654Y-110468188D01*
X51347000Y-110556550D01*
X53047000Y-110556550D01*
X53454636Y-110479848D01*
X53829024Y-110238936D01*
X53934204Y-110085000D01*
X56044413Y-110085000D01*
X56409180Y-110328730D01*
X57131457Y-110472400D01*
X57930543Y-110472400D01*
X58652820Y-110328730D01*
X59265136Y-109919593D01*
X59674273Y-109307277D01*
X59817943Y-108585000D01*
X59674273Y-107862723D01*
X59308296Y-107315000D01*
X59674273Y-106767277D01*
X59817943Y-106045000D01*
X59674273Y-105322723D01*
X59461977Y-105005000D01*
X61126109Y-105005000D01*
X61211064Y-105137024D01*
X61578654Y-105388188D01*
X62015000Y-105476550D01*
X63715000Y-105476550D01*
X64122636Y-105399848D01*
X64497024Y-105158936D01*
X64748188Y-104791346D01*
X64836550Y-104355000D01*
X64836550Y-102655000D01*
X64759848Y-102247364D01*
X64557083Y-101932259D01*
X64704768Y-101711233D01*
X64853203Y-100965000D01*
X64704768Y-100218767D01*
X64354798Y-99695000D01*
X64704768Y-99171233D01*
X64853203Y-98425000D01*
X64704768Y-97678767D01*
X64354798Y-97155000D01*
X64704768Y-96631233D01*
X64853203Y-95885000D01*
X64704768Y-95138767D01*
X64354798Y-94615000D01*
X64704768Y-94091233D01*
X64853203Y-93345000D01*
X64704768Y-92598767D01*
X64354798Y-92075000D01*
X64704768Y-91551233D01*
X64853203Y-90805000D01*
X64704768Y-90058767D01*
X64282061Y-89426142D01*
X63649436Y-89003435D01*
X62903203Y-88855000D01*
X62826797Y-88855000D01*
X62080564Y-89003435D01*
X61629241Y-89305000D01*
X59004887Y-89305000D01*
X58640120Y-89061270D01*
X57917843Y-88917600D01*
X57118757Y-88917600D01*
X56396480Y-89061270D01*
X56031713Y-89305000D01*
X53432759Y-89305000D01*
X52981436Y-89003435D01*
X52235203Y-88855000D01*
X52158797Y-88855000D01*
X51412564Y-89003435D01*
X50779939Y-89426142D01*
X50357232Y-90058767D01*
X50208797Y-90805000D01*
X46712000Y-90805000D01*
X46712000Y-81023910D01*
X50789097Y-81023910D01*
X50933523Y-81372616D01*
X51308146Y-81800741D01*
X51539199Y-81915000D01*
X51308146Y-82029259D01*
X50933523Y-82457384D01*
X50789097Y-82806090D01*
X50900111Y-83031000D01*
X52043000Y-83031000D01*
X52043000Y-80799000D01*
X52351000Y-80799000D01*
X52351000Y-83031000D01*
X53493889Y-83031000D01*
X53604903Y-82806090D01*
X53460477Y-82457384D01*
X53085854Y-82029259D01*
X52854801Y-81915000D01*
X53085854Y-81800741D01*
X53460477Y-81372616D01*
X53604903Y-81023910D01*
X53600041Y-81014059D01*
X55816990Y-81014059D01*
X56067109Y-81522802D01*
X56486426Y-81875248D01*
X56612137Y-81915000D01*
X56486426Y-81954752D01*
X56067109Y-82307198D01*
X55816990Y-82815941D01*
X55928874Y-83031000D01*
X57364300Y-83031000D01*
X57364300Y-80799000D01*
X57672300Y-80799000D01*
X57672300Y-83031000D01*
X59107726Y-83031000D01*
X59219610Y-82815941D01*
X58969491Y-82307198D01*
X58550174Y-81954752D01*
X58424463Y-81915000D01*
X58550174Y-81875248D01*
X58969491Y-81522802D01*
X59214766Y-81023910D01*
X61431697Y-81023910D01*
X61576123Y-81372616D01*
X61950746Y-81800741D01*
X62181799Y-81915000D01*
X61950746Y-82029259D01*
X61576123Y-82457384D01*
X61431697Y-82806090D01*
X61542711Y-83031000D01*
X62685600Y-83031000D01*
X62685600Y-80799000D01*
X62993600Y-80799000D01*
X62993600Y-83031000D01*
X64136489Y-83031000D01*
X64247503Y-82806090D01*
X64103077Y-82457384D01*
X63728454Y-82029259D01*
X63497401Y-81915000D01*
X63728454Y-81800741D01*
X64103077Y-81372616D01*
X64247503Y-81023910D01*
X64136489Y-80799000D01*
X62993600Y-80799000D01*
X62685600Y-80799000D01*
X61542711Y-80799000D01*
X61431697Y-81023910D01*
X59214766Y-81023910D01*
X59219610Y-81014059D01*
X59107726Y-80799000D01*
X57672300Y-80799000D01*
X57364300Y-80799000D01*
X55928874Y-80799000D01*
X55816990Y-81014059D01*
X53600041Y-81014059D01*
X53493889Y-80799000D01*
X52351000Y-80799000D01*
X52043000Y-80799000D01*
X50900111Y-80799000D01*
X50789097Y-81023910D01*
X46712000Y-81023910D01*
X46712000Y-79605000D01*
X50961241Y-79605000D01*
X51116243Y-79708569D01*
X50933523Y-79917384D01*
X50789097Y-80266090D01*
X50900111Y-80491000D01*
X52043000Y-80491000D01*
X52043000Y-80471000D01*
X52351000Y-80471000D01*
X52351000Y-80491000D01*
X53493889Y-80491000D01*
X53604903Y-80266090D01*
X53460477Y-79917384D01*
X53277757Y-79708569D01*
X53432759Y-79605000D01*
X56031713Y-79605000D01*
X56158941Y-79690011D01*
X56067109Y-79767198D01*
X55816990Y-80275941D01*
X55928874Y-80491000D01*
X57364300Y-80491000D01*
X57364300Y-80471000D01*
X57672300Y-80471000D01*
X57672300Y-80491000D01*
X59107726Y-80491000D01*
X59219610Y-80275941D01*
X58969491Y-79767198D01*
X58877659Y-79690011D01*
X59004887Y-79605000D01*
X61603841Y-79605000D01*
X61758843Y-79708569D01*
X61576123Y-79917384D01*
X61431697Y-80266090D01*
X61542711Y-80491000D01*
X62685600Y-80491000D01*
X62685600Y-80471000D01*
X62993600Y-80471000D01*
X62993600Y-80491000D01*
X64136489Y-80491000D01*
X64247503Y-80266090D01*
X64103077Y-79917384D01*
X63920357Y-79708569D01*
X64256661Y-79483858D01*
X64679368Y-78851233D01*
X64827803Y-78105000D01*
X64679368Y-77358767D01*
X64329398Y-76835000D01*
X64679368Y-76311233D01*
X64827803Y-75565000D01*
X64679368Y-74818767D01*
X64329398Y-74295000D01*
X64679368Y-73771233D01*
X64827803Y-73025000D01*
X64679368Y-72278767D01*
X64329398Y-71755000D01*
X64679368Y-71231233D01*
X64827803Y-70485000D01*
X64679368Y-69738767D01*
X64329398Y-69215000D01*
X64679368Y-68691233D01*
X64827803Y-67945000D01*
X64679368Y-67198767D01*
X64256661Y-66566142D01*
X63624036Y-66143435D01*
X62877803Y-65995000D01*
X62801397Y-65995000D01*
X62055164Y-66143435D01*
X61422539Y-66566142D01*
X60999832Y-67198767D01*
X60851397Y-67945000D01*
X60999832Y-68691233D01*
X61196121Y-68985000D01*
X59449277Y-68985000D01*
X59661573Y-68667277D01*
X59805243Y-67945000D01*
X59661573Y-67222723D01*
X59252436Y-66610407D01*
X58640120Y-66201270D01*
X57917843Y-66057600D01*
X57118757Y-66057600D01*
X56396480Y-66201270D01*
X55784164Y-66610407D01*
X55375027Y-67222723D01*
X55231357Y-67945000D01*
X55375027Y-68667277D01*
X55587323Y-68985000D01*
X53840479Y-68985000D01*
X54036768Y-68691233D01*
X54185203Y-67945000D01*
X54036768Y-67198767D01*
X53614061Y-66566142D01*
X52981436Y-66143435D01*
X52235203Y-65995000D01*
X52158797Y-65995000D01*
X51412564Y-66143435D01*
X50779939Y-66566142D01*
X50357232Y-67198767D01*
X50208797Y-67945000D01*
X50357232Y-68691233D01*
X50707202Y-69215000D01*
X50357232Y-69738767D01*
X50208797Y-70485000D01*
X50357232Y-71231233D01*
X50707202Y-71755000D01*
X50357232Y-72278767D01*
X50208797Y-73025000D01*
X50357232Y-73771233D01*
X50707202Y-74295000D01*
X50357232Y-74818767D01*
X50208797Y-75565000D01*
X50357232Y-76311233D01*
X50553521Y-76605000D01*
X46712000Y-76605000D01*
X46712000Y-67358662D01*
X46924768Y-67040233D01*
X47073203Y-66294000D01*
X46924768Y-65547767D01*
X46585000Y-65039269D01*
X46585000Y-65008731D01*
X46924768Y-64500233D01*
X47073203Y-63754000D01*
X46924768Y-63007767D01*
X46585000Y-62499269D01*
X46585000Y-62468731D01*
X46924768Y-61960233D01*
X47073203Y-61214000D01*
X46924768Y-60467767D01*
X46585000Y-59959269D01*
X46585000Y-59928731D01*
X46924768Y-59420233D01*
X47073203Y-58674000D01*
X46924768Y-57927767D01*
X46774818Y-57703352D01*
X46968188Y-57420346D01*
X47056550Y-56984000D01*
X47056550Y-55284000D01*
X46979848Y-54876364D01*
X46738936Y-54501976D01*
X46371346Y-54250812D01*
X45935000Y-54162450D01*
X44235000Y-54162450D01*
X43827364Y-54239152D01*
X43452976Y-54480064D01*
X43201812Y-54847654D01*
X43113450Y-55284000D01*
X43113450Y-56984000D01*
X43190152Y-57391636D01*
X43392917Y-57706741D01*
X43245232Y-57927767D01*
X43096797Y-58674000D01*
X42264000Y-58674000D01*
X42264000Y-52448910D01*
X43804097Y-52448910D01*
X43948523Y-52797616D01*
X44323146Y-53225741D01*
X44833089Y-53477915D01*
X45058000Y-53367856D01*
X45058000Y-52224000D01*
X45366000Y-52224000D01*
X45366000Y-53367856D01*
X45590911Y-53477915D01*
X46100854Y-53225741D01*
X46475477Y-52797616D01*
X46619903Y-52448910D01*
X46508889Y-52224000D01*
X45366000Y-52224000D01*
X45058000Y-52224000D01*
X43915111Y-52224000D01*
X43804097Y-52448910D01*
X42264000Y-52448910D01*
X42264000Y-49908910D01*
X43804097Y-49908910D01*
X43948523Y-50257616D01*
X44323146Y-50685741D01*
X44554199Y-50800000D01*
X44323146Y-50914259D01*
X43948523Y-51342384D01*
X43804097Y-51691090D01*
X43915111Y-51916000D01*
X45058000Y-51916000D01*
X45058000Y-49684000D01*
X45366000Y-49684000D01*
X45366000Y-51916000D01*
X46508889Y-51916000D01*
X46619903Y-51691090D01*
X46475477Y-51342384D01*
X46100854Y-50914259D01*
X45869801Y-50800000D01*
X46100854Y-50685741D01*
X46475477Y-50257616D01*
X46619903Y-49908910D01*
X46508889Y-49684000D01*
X45366000Y-49684000D01*
X45058000Y-49684000D01*
X43915111Y-49684000D01*
X43804097Y-49908910D01*
X42264000Y-49908910D01*
X42264000Y-47368910D01*
X43804097Y-47368910D01*
X43948523Y-47717616D01*
X44323146Y-48145741D01*
X44554199Y-48260000D01*
X44323146Y-48374259D01*
X43948523Y-48802384D01*
X43804097Y-49151090D01*
X43915111Y-49376000D01*
X45058000Y-49376000D01*
X45058000Y-47144000D01*
X45366000Y-47144000D01*
X45366000Y-49376000D01*
X46508889Y-49376000D01*
X46619903Y-49151090D01*
X46475477Y-48802384D01*
X46100854Y-48374259D01*
X45869801Y-48260000D01*
X46100854Y-48145741D01*
X46475477Y-47717616D01*
X46619903Y-47368910D01*
X46508889Y-47144000D01*
X45366000Y-47144000D01*
X45058000Y-47144000D01*
X43915111Y-47144000D01*
X43804097Y-47368910D01*
X42264000Y-47368910D01*
X42264000Y-44828910D01*
X43804097Y-44828910D01*
X43948523Y-45177616D01*
X44323146Y-45605741D01*
X44554199Y-45720000D01*
X44323146Y-45834259D01*
X43948523Y-46262384D01*
X43804097Y-46611090D01*
X43915111Y-46836000D01*
X45058000Y-46836000D01*
X45058000Y-44604000D01*
X45366000Y-44604000D01*
X45366000Y-46836000D01*
X46508889Y-46836000D01*
X46619903Y-46611090D01*
X46475477Y-46262384D01*
X46100854Y-45834259D01*
X45869801Y-45720000D01*
X46100854Y-45605741D01*
X46475477Y-45177616D01*
X46619903Y-44828910D01*
X46565692Y-44719079D01*
X47656654Y-44719079D01*
X47960494Y-45454429D01*
X48522612Y-46017529D01*
X49257430Y-46322652D01*
X50053079Y-46323346D01*
X50053916Y-46323000D01*
X50520420Y-46323000D01*
X50603241Y-46739367D01*
X51036786Y-47388214D01*
X73819000Y-70170427D01*
X73819000Y-83725000D01*
X64180783Y-83725000D01*
X64247503Y-83563910D01*
X64136489Y-83339000D01*
X62993600Y-83339000D01*
X62993600Y-83359000D01*
X62685600Y-83359000D01*
X62685600Y-83339000D01*
X61542711Y-83339000D01*
X61431697Y-83563910D01*
X61498417Y-83725000D01*
X59135568Y-83725000D01*
X59219610Y-83554059D01*
X59107726Y-83339000D01*
X57672300Y-83339000D01*
X57672300Y-83359000D01*
X57364300Y-83359000D01*
X57364300Y-83339000D01*
X55928874Y-83339000D01*
X55816990Y-83554059D01*
X55901032Y-83725000D01*
X53538183Y-83725000D01*
X53604903Y-83563910D01*
X53493889Y-83339000D01*
X52351000Y-83339000D01*
X52351000Y-83359000D01*
X52043000Y-83359000D01*
X52043000Y-83339000D01*
X50900111Y-83339000D01*
X50789097Y-83563910D01*
X50907785Y-83850473D01*
X50564976Y-84071064D01*
X50313812Y-84438654D01*
X50225450Y-84875000D01*
X50225450Y-85581972D01*
X50197000Y-85725000D01*
X50225450Y-85868028D01*
X50225450Y-86575000D01*
X50302152Y-86982636D01*
X50543064Y-87357024D01*
X50910654Y-87608188D01*
X51347000Y-87696550D01*
X52053972Y-87696550D01*
X52197000Y-87725000D01*
X73819000Y-87725000D01*
X73819000Y-122059619D01*
X73588447Y-121501640D01*
X73065116Y-120977393D01*
X72381000Y-120693324D01*
X71640250Y-120692677D01*
X70955640Y-120975553D01*
X70431393Y-121498884D01*
X70147324Y-122183000D01*
X70147226Y-122295454D01*
X70061152Y-122381528D01*
X70061323Y-122186250D01*
X69778447Y-121501640D01*
X69255116Y-120977393D01*
X68571000Y-120693324D01*
X67830250Y-120692677D01*
X67145640Y-120975553D01*
X66621393Y-121498884D01*
X66337324Y-122183000D01*
X66337226Y-122295454D01*
X65710794Y-122921886D01*
X65774917Y-122729353D01*
X65736142Y-122185713D01*
X65602698Y-121863551D01*
X65371368Y-121790421D01*
X64606789Y-122555000D01*
X64620931Y-122569142D01*
X64403142Y-122786931D01*
X64389000Y-122772789D01*
X63624421Y-123537368D01*
X63697551Y-123768698D01*
X64214647Y-123940917D01*
X64728407Y-123904273D01*
X64090340Y-124542340D01*
X63765181Y-125028975D01*
X63651000Y-125603000D01*
X63651000Y-129193241D01*
X63547431Y-129348243D01*
X63338616Y-129165523D01*
X62989910Y-129021097D01*
X62765000Y-129132111D01*
X62765000Y-130275000D01*
X62785000Y-130275000D01*
X62785000Y-130583000D01*
X62765000Y-130583000D01*
X62765000Y-131725889D01*
X62989910Y-131836903D01*
X63338616Y-131692477D01*
X63547431Y-131509757D01*
X63651000Y-131664759D01*
X63651000Y-132838735D01*
X63560693Y-132928884D01*
X63547241Y-132961281D01*
X63475734Y-132889774D01*
X63362878Y-133002630D01*
X63289749Y-132771302D01*
X62772653Y-132599083D01*
X62229013Y-132637858D01*
X61906851Y-132771302D01*
X61833721Y-133002632D01*
X62598300Y-133767211D01*
X62612442Y-133753069D01*
X62830231Y-133970858D01*
X62816089Y-133985000D01*
X62830231Y-133999142D01*
X62612442Y-134216931D01*
X62598300Y-134202789D01*
X61833721Y-134967368D01*
X61906851Y-135198698D01*
X62057539Y-135248885D01*
X61906851Y-135311302D01*
X61833721Y-135542632D01*
X62598300Y-136307211D01*
X62612442Y-136293069D01*
X62830231Y-136510858D01*
X62816089Y-136525000D01*
X62830231Y-136539142D01*
X62612442Y-136756931D01*
X62598300Y-136742789D01*
X61833721Y-137507368D01*
X61906851Y-137738698D01*
X62423947Y-137910917D01*
X62967587Y-137872142D01*
X63289749Y-137738698D01*
X63362878Y-137507370D01*
X63475734Y-137620226D01*
X63546791Y-137549169D01*
X63558853Y-137578360D01*
X63638300Y-137657946D01*
X63638300Y-138610247D01*
X63547431Y-138746243D01*
X63338616Y-138563523D01*
X62989910Y-138419097D01*
X62765000Y-138530111D01*
X62765000Y-139673000D01*
X62785000Y-139673000D01*
X62785000Y-139981000D01*
X62765000Y-139981000D01*
X62765000Y-141123889D01*
X62989910Y-141234903D01*
X63338616Y-141090477D01*
X63547431Y-140907757D01*
X63651000Y-141062759D01*
X63651000Y-141745680D01*
X57994340Y-147402340D01*
X57669181Y-147888975D01*
X57555000Y-148463000D01*
X57555000Y-152155413D01*
X57477393Y-152232884D01*
X57193324Y-152917000D01*
X57192677Y-153657750D01*
X57475553Y-154342360D01*
X57998884Y-154866607D01*
X58683000Y-155150676D01*
X59423750Y-155151323D01*
X60108360Y-154868447D01*
X60632607Y-154345116D01*
X60916676Y-153661000D01*
X60917323Y-152920250D01*
X60634447Y-152235640D01*
X60555000Y-152156054D01*
X60555000Y-149084320D01*
X61365000Y-148274320D01*
X61365000Y-152155413D01*
X61287393Y-152232884D01*
X61003324Y-152917000D01*
X61002677Y-153657750D01*
X61285553Y-154342360D01*
X61808884Y-154866607D01*
X62493000Y-155150676D01*
X63233750Y-155151323D01*
X63918360Y-154868447D01*
X64442607Y-154345116D01*
X64726676Y-153661000D01*
X64726678Y-153657750D01*
X64812677Y-153657750D01*
X65095553Y-154342360D01*
X65618884Y-154866607D01*
X66303000Y-155150676D01*
X67043750Y-155151323D01*
X67728360Y-154868447D01*
X68252607Y-154345116D01*
X68536676Y-153661000D01*
X68537323Y-152920250D01*
X68254447Y-152235640D01*
X68175000Y-152156054D01*
X68175000Y-150038813D01*
X68274722Y-149798656D01*
X68275277Y-149162137D01*
X68032205Y-148573857D01*
X67582511Y-148123377D01*
X66994656Y-147879278D01*
X66358137Y-147878723D01*
X65769857Y-148121795D01*
X65319377Y-148571489D01*
X65075278Y-149159344D01*
X65074723Y-149795863D01*
X65175000Y-150038552D01*
X65175000Y-152155413D01*
X65097393Y-152232884D01*
X64813324Y-152917000D01*
X64812677Y-153657750D01*
X64726678Y-153657750D01*
X64727323Y-152920250D01*
X64444447Y-152235640D01*
X64365000Y-152156054D01*
X64365000Y-148322320D01*
X68731000Y-143956320D01*
X68731000Y-159521413D01*
X68653393Y-159598884D01*
X68369324Y-160283000D01*
X68368677Y-161023750D01*
X68651553Y-161708360D01*
X69174884Y-162232607D01*
X69859000Y-162516676D01*
X70599750Y-162517323D01*
X71284360Y-162234447D01*
X71808607Y-161711116D01*
X72092676Y-161027000D01*
X72093323Y-160286250D01*
X71938689Y-159912009D01*
X72217571Y-160190891D01*
X72179324Y-160283000D01*
X72178677Y-161023750D01*
X72461553Y-161708360D01*
X72984884Y-162232607D01*
X73669000Y-162516676D01*
X74409750Y-162517323D01*
X75094360Y-162234447D01*
X75618607Y-161711116D01*
X75902676Y-161027000D01*
X75903323Y-160286250D01*
X75620447Y-159601640D01*
X75448853Y-159429745D01*
X75426819Y-159318975D01*
X75101660Y-158832340D01*
X74271000Y-158001680D01*
X74271000Y-150885079D01*
X74392004Y-150935324D01*
X76351000Y-152894320D01*
X76351000Y-159521413D01*
X76273393Y-159598884D01*
X75989324Y-160283000D01*
X75988677Y-161023750D01*
X76271553Y-161708360D01*
X76794884Y-162232607D01*
X77479000Y-162516676D01*
X78219750Y-162517323D01*
X78904360Y-162234447D01*
X79428607Y-161711116D01*
X79564699Y-161383368D01*
X90802421Y-161383368D01*
X90875551Y-161614698D01*
X91392647Y-161786917D01*
X91936287Y-161748142D01*
X92258449Y-161614698D01*
X92331579Y-161383368D01*
X91567000Y-160618789D01*
X90802421Y-161383368D01*
X79564699Y-161383368D01*
X79712676Y-161027000D01*
X79713323Y-160286250D01*
X79688696Y-160226647D01*
X90181083Y-160226647D01*
X90219858Y-160770287D01*
X90353302Y-161092449D01*
X90584632Y-161165579D01*
X91349211Y-160401000D01*
X91784789Y-160401000D01*
X92549368Y-161165579D01*
X92780698Y-161092449D01*
X92952917Y-160575353D01*
X92914142Y-160031713D01*
X92780698Y-159709551D01*
X92549368Y-159636421D01*
X91784789Y-160401000D01*
X91349211Y-160401000D01*
X90584632Y-159636421D01*
X90353302Y-159709551D01*
X90181083Y-160226647D01*
X79688696Y-160226647D01*
X79430447Y-159601640D01*
X79351000Y-159522054D01*
X79351000Y-159418632D01*
X90802421Y-159418632D01*
X91567000Y-160183211D01*
X92331579Y-159418632D01*
X92258449Y-159187302D01*
X91741353Y-159015083D01*
X91197713Y-159053858D01*
X90875551Y-159187302D01*
X90802421Y-159418632D01*
X79351000Y-159418632D01*
X79351000Y-154271368D01*
X79626421Y-154271368D01*
X79699551Y-154502698D01*
X80216647Y-154674917D01*
X80760287Y-154636142D01*
X81082449Y-154502698D01*
X81155579Y-154271368D01*
X80391000Y-153506789D01*
X79626421Y-154271368D01*
X79351000Y-154271368D01*
X79351000Y-154035360D01*
X79408632Y-154053579D01*
X80173211Y-153289000D01*
X79408632Y-152524421D01*
X79351000Y-152542640D01*
X79351000Y-152273000D01*
X79236819Y-151698975D01*
X78911660Y-151212340D01*
X76513507Y-148814187D01*
X76414205Y-148573857D01*
X75964511Y-148123377D01*
X75376656Y-147879278D01*
X74740137Y-147878723D01*
X74271000Y-148072566D01*
X74271000Y-145480320D01*
X80757886Y-151967206D01*
X80565353Y-151903083D01*
X80021713Y-151941858D01*
X79699551Y-152075302D01*
X79626421Y-152306632D01*
X80391000Y-153071211D01*
X80405142Y-153057069D01*
X80622931Y-153274858D01*
X80608789Y-153289000D01*
X81373368Y-154053579D01*
X81604698Y-153980449D01*
X81776917Y-153463353D01*
X81740273Y-152949593D01*
X82338773Y-153548093D01*
X82338677Y-153657750D01*
X82621553Y-154342360D01*
X83144884Y-154866607D01*
X83829000Y-155150676D01*
X84569750Y-155151323D01*
X85254360Y-154868447D01*
X85778607Y-154345116D01*
X86062676Y-153661000D01*
X86062850Y-153462170D01*
X86148773Y-153548093D01*
X86148677Y-153657750D01*
X86431553Y-154342360D01*
X86954884Y-154866607D01*
X87639000Y-155150676D01*
X88379750Y-155151323D01*
X89064360Y-154868447D01*
X89588607Y-154345116D01*
X89872676Y-153661000D01*
X89873323Y-152920250D01*
X89590447Y-152235640D01*
X89067116Y-151711393D01*
X88383000Y-151427324D01*
X88270546Y-151427226D01*
X85790320Y-148947000D01*
X90309451Y-148947000D01*
X90221278Y-149159344D01*
X90220723Y-149795863D01*
X90321000Y-150038552D01*
X90321000Y-152155413D01*
X90243393Y-152232884D01*
X89959324Y-152917000D01*
X89958677Y-153657750D01*
X90241553Y-154342360D01*
X90764884Y-154866607D01*
X91449000Y-155150676D01*
X92189750Y-155151323D01*
X92874360Y-154868447D01*
X93398607Y-154345116D01*
X93682676Y-153661000D01*
X93683323Y-152920250D01*
X93400447Y-152235640D01*
X93321000Y-152156054D01*
X93321000Y-150038813D01*
X93420722Y-149798656D01*
X93421277Y-149162137D01*
X93332384Y-148947000D01*
X93763678Y-148947000D01*
X93877000Y-149060322D01*
X93877000Y-159267413D01*
X93799393Y-159344884D01*
X93515324Y-160029000D01*
X93514677Y-160769750D01*
X93797553Y-161454360D01*
X94320884Y-161978607D01*
X95005000Y-162262676D01*
X95745750Y-162263323D01*
X96430360Y-161980447D01*
X96954607Y-161457116D01*
X97238676Y-160773000D01*
X97239323Y-160032250D01*
X96956447Y-159347640D01*
X96877000Y-159268054D01*
X96877000Y-148439002D01*
X96762819Y-147864977D01*
X96437660Y-147378342D01*
X96228318Y-147169000D01*
X96533680Y-147169000D01*
X97687000Y-148322320D01*
X97687000Y-159267413D01*
X97609393Y-159344884D01*
X97325324Y-160029000D01*
X97324677Y-160769750D01*
X97607553Y-161454360D01*
X98130884Y-161978607D01*
X98815000Y-162262676D01*
X99555750Y-162263323D01*
X100240360Y-161980447D01*
X100764607Y-161457116D01*
X101048676Y-160773000D01*
X101048678Y-160769750D01*
X101134677Y-160769750D01*
X101417553Y-161454360D01*
X101940884Y-161978607D01*
X102625000Y-162262676D01*
X103365750Y-162263323D01*
X104050360Y-161980447D01*
X104574607Y-161457116D01*
X104858676Y-160773000D01*
X104859323Y-160032250D01*
X104576447Y-159347640D01*
X104497000Y-159268054D01*
X104497000Y-154525368D01*
X106550421Y-154525368D01*
X106623551Y-154756698D01*
X107140647Y-154928917D01*
X107684287Y-154890142D01*
X108006449Y-154756698D01*
X108079579Y-154525368D01*
X107315000Y-153760789D01*
X106550421Y-154525368D01*
X104497000Y-154525368D01*
X104497000Y-153368647D01*
X105929083Y-153368647D01*
X105967858Y-153912287D01*
X106101302Y-154234449D01*
X106332632Y-154307579D01*
X107097211Y-153543000D01*
X107532789Y-153543000D01*
X108297368Y-154307579D01*
X108528698Y-154234449D01*
X108700917Y-153717353D01*
X108662142Y-153173713D01*
X108528698Y-152851551D01*
X108297368Y-152778421D01*
X107532789Y-153543000D01*
X107097211Y-153543000D01*
X106332632Y-152778421D01*
X106101302Y-152851551D01*
X105929083Y-153368647D01*
X104497000Y-153368647D01*
X104497000Y-152560632D01*
X106550421Y-152560632D01*
X107315000Y-153325211D01*
X108079579Y-152560632D01*
X108006449Y-152329302D01*
X107489353Y-152157083D01*
X106945713Y-152195858D01*
X106623551Y-152329302D01*
X106550421Y-152560632D01*
X104497000Y-152560632D01*
X104497000Y-150038813D01*
X104596722Y-149798656D01*
X104597277Y-149162137D01*
X104354205Y-148573857D01*
X103904511Y-148123377D01*
X103316656Y-147879278D01*
X102680137Y-147878723D01*
X102091857Y-148121795D01*
X101641377Y-148571489D01*
X101397278Y-149159344D01*
X101396723Y-149795863D01*
X101497000Y-150038552D01*
X101497000Y-159267413D01*
X101419393Y-159344884D01*
X101135324Y-160029000D01*
X101134677Y-160769750D01*
X101048678Y-160769750D01*
X101049323Y-160032250D01*
X100766447Y-159347640D01*
X100687000Y-159268054D01*
X100687000Y-147701000D01*
X100572819Y-147126975D01*
X100247660Y-146640340D01*
X98998320Y-145391000D01*
X105677680Y-145391000D01*
X109625000Y-149338320D01*
X109625000Y-152409413D01*
X109547393Y-152486884D01*
X109263324Y-153171000D01*
X109262677Y-153911750D01*
X109545553Y-154596360D01*
X110068884Y-155120607D01*
X110753000Y-155404676D01*
X111493750Y-155405323D01*
X112178360Y-155122447D01*
X112702607Y-154599116D01*
X112986676Y-153915000D01*
X112986739Y-153843325D01*
X113041181Y-154117025D01*
X113345977Y-154573185D01*
X113355553Y-154596360D01*
X113878884Y-155120607D01*
X114563000Y-155404676D01*
X115303750Y-155405323D01*
X115988360Y-155122447D01*
X116512607Y-154599116D01*
X116796676Y-153915000D01*
X116796678Y-153911750D01*
X116882677Y-153911750D01*
X117165553Y-154596360D01*
X117688884Y-155120607D01*
X118373000Y-155404676D01*
X119113750Y-155405323D01*
X119798360Y-155122447D01*
X120322607Y-154599116D01*
X120606676Y-153915000D01*
X120607323Y-153174250D01*
X120324447Y-152489640D01*
X120245000Y-152410054D01*
X120245000Y-150038813D01*
X120344722Y-149798656D01*
X120345277Y-149162137D01*
X120102205Y-148573857D01*
X119652511Y-148123377D01*
X119064656Y-147879278D01*
X118428137Y-147878723D01*
X117839857Y-148121795D01*
X117389377Y-148571489D01*
X117145278Y-149159344D01*
X117144723Y-149795863D01*
X117245000Y-150038552D01*
X117245000Y-152409413D01*
X117167393Y-152486884D01*
X116883324Y-153171000D01*
X116882677Y-153911750D01*
X116796678Y-153911750D01*
X116797323Y-153174250D01*
X116514447Y-152489640D01*
X116435000Y-152410054D01*
X116435000Y-149733000D01*
X116320819Y-149158975D01*
X115995660Y-148672340D01*
X108629660Y-141306340D01*
X108143025Y-140981181D01*
X107718070Y-140896652D01*
X107762550Y-140677000D01*
X107762550Y-138977000D01*
X107685848Y-138569364D01*
X107444936Y-138194976D01*
X107278300Y-138081118D01*
X107278300Y-137658587D01*
X107355907Y-137581116D01*
X107639976Y-136897000D01*
X107640623Y-136156250D01*
X107357747Y-135471640D01*
X107141567Y-135255082D01*
X107355907Y-135041116D01*
X107639976Y-134357000D01*
X107640623Y-133616250D01*
X107357747Y-132931640D01*
X107278300Y-132852054D01*
X107278300Y-132176063D01*
X107423024Y-132082936D01*
X107674188Y-131715346D01*
X107762550Y-131279000D01*
X107762550Y-129579000D01*
X107685848Y-129171364D01*
X107444936Y-128796976D01*
X107077346Y-128545812D01*
X106641000Y-128457450D01*
X104941000Y-128457450D01*
X104533364Y-128534152D01*
X104218259Y-128736917D01*
X103997233Y-128589232D01*
X103251000Y-128440797D01*
X102504767Y-128589232D01*
X101981000Y-128939202D01*
X101457233Y-128589232D01*
X100711000Y-128440797D01*
X99964767Y-128589232D01*
X99441000Y-128939202D01*
X98917233Y-128589232D01*
X98171000Y-128440797D01*
X97424767Y-128589232D01*
X96901000Y-128939202D01*
X96377233Y-128589232D01*
X95631000Y-128440797D01*
X94884767Y-128589232D01*
X94361000Y-128939202D01*
X93837233Y-128589232D01*
X93091000Y-128440797D01*
X92344767Y-128589232D01*
X91821000Y-128939202D01*
X91297233Y-128589232D01*
X90551000Y-128440797D01*
X89804767Y-128589232D01*
X89511000Y-128785521D01*
X89511000Y-126732320D01*
X91826093Y-124417227D01*
X91935750Y-124417323D01*
X92620360Y-124134447D01*
X93144607Y-123611116D01*
X93175229Y-123537368D01*
X94612421Y-123537368D01*
X94685551Y-123768698D01*
X95202647Y-123940917D01*
X95746287Y-123902142D01*
X95932524Y-123825000D01*
X103491357Y-123825000D01*
X103635027Y-124547277D01*
X104001004Y-125095000D01*
X103635027Y-125642723D01*
X103491357Y-126365000D01*
X103635027Y-127087277D01*
X104044164Y-127699593D01*
X104656480Y-128108730D01*
X105378757Y-128252400D01*
X106177843Y-128252400D01*
X106900120Y-128108730D01*
X107264887Y-127865000D01*
X109889241Y-127865000D01*
X110340564Y-128166565D01*
X111086797Y-128315000D01*
X111163203Y-128315000D01*
X111909436Y-128166565D01*
X112542061Y-127743858D01*
X112964768Y-127111233D01*
X113113203Y-126365000D01*
X112964768Y-125618767D01*
X112614798Y-125095000D01*
X112964768Y-124571233D01*
X113113203Y-123825000D01*
X112964768Y-123078767D01*
X112614798Y-122555000D01*
X112964768Y-122031233D01*
X113113203Y-121285000D01*
X112964768Y-120538767D01*
X112614798Y-120015000D01*
X112964768Y-119491233D01*
X113113203Y-118745000D01*
X112964768Y-117998767D01*
X112614798Y-117475000D01*
X112964768Y-116951233D01*
X113113203Y-116205000D01*
X112964768Y-115458767D01*
X112614798Y-114935000D01*
X112964768Y-114411233D01*
X113113203Y-113665000D01*
X112964768Y-112918767D01*
X112614798Y-112395000D01*
X112964768Y-111871233D01*
X113113203Y-111125000D01*
X112964768Y-110378767D01*
X112814818Y-110154352D01*
X113008188Y-109871346D01*
X113096550Y-109435000D01*
X113096550Y-107735000D01*
X113019848Y-107327364D01*
X112778936Y-106952976D01*
X112411346Y-106701812D01*
X111975000Y-106613450D01*
X110275000Y-106613450D01*
X109867364Y-106690152D01*
X109492976Y-106931064D01*
X109387796Y-107085000D01*
X107277587Y-107085000D01*
X106912820Y-106841270D01*
X106190543Y-106697600D01*
X105391457Y-106697600D01*
X104669180Y-106841270D01*
X104056864Y-107250407D01*
X103647727Y-107862723D01*
X103504057Y-108585000D01*
X103647727Y-109307277D01*
X104013704Y-109855000D01*
X103647727Y-110402723D01*
X103504057Y-111125000D01*
X103647727Y-111847277D01*
X104013704Y-112395000D01*
X103647727Y-112942723D01*
X103504057Y-113665000D01*
X103647727Y-114387277D01*
X104013704Y-114935000D01*
X103647727Y-115482723D01*
X103504057Y-116205000D01*
X103647727Y-116927277D01*
X104013704Y-117475000D01*
X103647727Y-118022723D01*
X103504057Y-118745000D01*
X103647727Y-119467277D01*
X104013704Y-120015000D01*
X103647727Y-120562723D01*
X103504057Y-121285000D01*
X103647727Y-122007277D01*
X104007354Y-122545497D01*
X103635027Y-123102723D01*
X103491357Y-123825000D01*
X95932524Y-123825000D01*
X96068449Y-123768698D01*
X96141579Y-123537368D01*
X95377000Y-122772789D01*
X94612421Y-123537368D01*
X93175229Y-123537368D01*
X93428676Y-122927000D01*
X93429153Y-122380647D01*
X93991083Y-122380647D01*
X94029858Y-122924287D01*
X94163302Y-123246449D01*
X94394632Y-123319579D01*
X95159211Y-122555000D01*
X95594789Y-122555000D01*
X96359368Y-123319579D01*
X96590698Y-123246449D01*
X96762917Y-122729353D01*
X96724142Y-122185713D01*
X96590698Y-121863551D01*
X96359368Y-121790421D01*
X95594789Y-122555000D01*
X95159211Y-122555000D01*
X94394632Y-121790421D01*
X94163302Y-121863551D01*
X93991083Y-122380647D01*
X93429153Y-122380647D01*
X93429323Y-122186250D01*
X93175781Y-121572632D01*
X94612421Y-121572632D01*
X95377000Y-122337211D01*
X96141579Y-121572632D01*
X96068449Y-121341302D01*
X95551353Y-121169083D01*
X95007713Y-121207858D01*
X94685551Y-121341302D01*
X94612421Y-121572632D01*
X93175781Y-121572632D01*
X93146447Y-121501640D01*
X92623116Y-120977393D01*
X91939000Y-120693324D01*
X91198250Y-120692677D01*
X90513640Y-120975553D01*
X89989393Y-121498884D01*
X89705324Y-122183000D01*
X89705226Y-122295454D01*
X89619152Y-122381528D01*
X89619323Y-122186250D01*
X89336447Y-121501640D01*
X88813116Y-120977393D01*
X88129000Y-120693324D01*
X87388250Y-120692677D01*
X86703640Y-120975553D01*
X86179393Y-121498884D01*
X85895324Y-122183000D01*
X85895226Y-122294717D01*
X85794759Y-121789633D01*
X85361214Y-121140786D01*
X84712367Y-120707241D01*
X83947000Y-120555000D01*
X77819000Y-120555000D01*
X77819000Y-69342005D01*
X77819001Y-69342000D01*
X77674367Y-68614883D01*
X77666759Y-68576633D01*
X77233214Y-67927786D01*
X77233211Y-67927784D01*
X68106427Y-58801000D01*
X103491357Y-58801000D01*
X103635027Y-59523277D01*
X104001004Y-60071000D01*
X103635027Y-60618723D01*
X103491357Y-61341000D01*
X103635027Y-62063277D01*
X104001004Y-62611000D01*
X103635027Y-63158723D01*
X103491357Y-63881000D01*
X103635027Y-64603277D01*
X104001004Y-65151000D01*
X103635027Y-65698723D01*
X103491357Y-66421000D01*
X103635027Y-67143277D01*
X104007354Y-67700503D01*
X103647727Y-68238723D01*
X103504057Y-68961000D01*
X103647727Y-69683277D01*
X104013704Y-70231000D01*
X103647727Y-70778723D01*
X103504057Y-71501000D01*
X103647727Y-72223277D01*
X104013704Y-72771000D01*
X103647727Y-73318723D01*
X103504057Y-74041000D01*
X103647727Y-74763277D01*
X104013704Y-75311000D01*
X103647727Y-75858723D01*
X103504057Y-76581000D01*
X103647727Y-77303277D01*
X104013704Y-77851000D01*
X103647727Y-78398723D01*
X103504057Y-79121000D01*
X103647727Y-79843277D01*
X104013704Y-80391000D01*
X103647727Y-80938723D01*
X103504057Y-81661000D01*
X103647727Y-82383277D01*
X104056864Y-82995593D01*
X104669180Y-83404730D01*
X105391457Y-83548400D01*
X106190543Y-83548400D01*
X106912820Y-83404730D01*
X107277587Y-83161000D01*
X109889241Y-83161000D01*
X110340564Y-83462565D01*
X111086797Y-83611000D01*
X111163203Y-83611000D01*
X111909436Y-83462565D01*
X112360759Y-83161000D01*
X115223241Y-83161000D01*
X115674564Y-83462565D01*
X116420797Y-83611000D01*
X116497203Y-83611000D01*
X117243436Y-83462565D01*
X117245000Y-83461520D01*
X117245000Y-83753450D01*
X115609000Y-83753450D01*
X115201364Y-83830152D01*
X114826976Y-84071064D01*
X114721796Y-84225000D01*
X112863891Y-84225000D01*
X112778936Y-84092976D01*
X112411346Y-83841812D01*
X111975000Y-83753450D01*
X110275000Y-83753450D01*
X109867364Y-83830152D01*
X109492976Y-84071064D01*
X109387796Y-84225000D01*
X107277587Y-84225000D01*
X106912820Y-83981270D01*
X106190543Y-83837600D01*
X105391457Y-83837600D01*
X104669180Y-83981270D01*
X104056864Y-84390407D01*
X103647727Y-85002723D01*
X103504057Y-85725000D01*
X103647727Y-86447277D01*
X104013704Y-86995000D01*
X103647727Y-87542723D01*
X103504057Y-88265000D01*
X103647727Y-88987277D01*
X104013704Y-89535000D01*
X103647727Y-90082723D01*
X103504057Y-90805000D01*
X103647727Y-91527277D01*
X104013704Y-92075000D01*
X103647727Y-92622723D01*
X103504057Y-93345000D01*
X103647727Y-94067277D01*
X104013704Y-94615000D01*
X103647727Y-95162723D01*
X103504057Y-95885000D01*
X103647727Y-96607277D01*
X104013704Y-97155000D01*
X103647727Y-97702723D01*
X103504057Y-98425000D01*
X103647727Y-99147277D01*
X104013704Y-99695000D01*
X103647727Y-100242723D01*
X103504057Y-100965000D01*
X103647727Y-101687277D01*
X104007354Y-102225497D01*
X103635027Y-102782723D01*
X103491357Y-103505000D01*
X103635027Y-104227277D01*
X104044164Y-104839593D01*
X104656480Y-105248730D01*
X105378757Y-105392400D01*
X106177843Y-105392400D01*
X106900120Y-105248730D01*
X107264887Y-105005000D01*
X109889241Y-105005000D01*
X110340564Y-105306565D01*
X111086797Y-105455000D01*
X111163203Y-105455000D01*
X111909436Y-105306565D01*
X112360759Y-105005000D01*
X115223241Y-105005000D01*
X115674564Y-105306565D01*
X116420797Y-105455000D01*
X116497203Y-105455000D01*
X117243436Y-105306565D01*
X117876061Y-104883858D01*
X117880000Y-104877963D01*
X117880000Y-111760000D01*
X117994181Y-112334025D01*
X118319340Y-112820660D01*
X122002340Y-116503660D01*
X122488975Y-116828819D01*
X123063000Y-116943000D01*
X130229125Y-116943000D01*
X130507893Y-117222255D01*
X130581935Y-117253000D01*
X121031599Y-117253000D01*
X120634921Y-117252654D01*
X119899571Y-117556494D01*
X119336471Y-118118612D01*
X119031348Y-118853430D01*
X119030654Y-119649079D01*
X119334494Y-120384429D01*
X119896612Y-120947529D01*
X120631430Y-121252652D01*
X121427079Y-121253346D01*
X121427916Y-121253000D01*
X131039506Y-121253000D01*
X131279452Y-121352634D01*
X132114883Y-121353363D01*
X132887000Y-121034331D01*
X133478255Y-120444107D01*
X133798634Y-119672548D01*
X133799363Y-118837117D01*
X133480331Y-118065000D01*
X132890107Y-117473745D01*
X132587488Y-117348087D01*
X132887000Y-117224331D01*
X133478255Y-116634107D01*
X133798634Y-115862548D01*
X133799363Y-115027117D01*
X133480331Y-114255000D01*
X132890107Y-113663745D01*
X132118548Y-113343366D01*
X131283117Y-113342637D01*
X130511000Y-113661669D01*
X130229178Y-113943000D01*
X123684320Y-113943000D01*
X122529386Y-112788066D01*
X130761723Y-112788066D01*
X130864174Y-113044040D01*
X131467703Y-113256105D01*
X132106445Y-113221067D01*
X132533826Y-113044040D01*
X132636277Y-112788066D01*
X131699000Y-111850789D01*
X130761723Y-112788066D01*
X122529386Y-112788066D01*
X121143023Y-111401703D01*
X130075895Y-111401703D01*
X130110933Y-112040445D01*
X130287960Y-112467826D01*
X130543934Y-112570277D01*
X131481211Y-111633000D01*
X131916789Y-111633000D01*
X132854066Y-112570277D01*
X133110040Y-112467826D01*
X133322105Y-111864297D01*
X133287067Y-111225555D01*
X133110040Y-110798174D01*
X132854066Y-110695723D01*
X131916789Y-111633000D01*
X131481211Y-111633000D01*
X130543934Y-110695723D01*
X130287960Y-110798174D01*
X130075895Y-111401703D01*
X121143023Y-111401703D01*
X120880000Y-111138680D01*
X120880000Y-102886159D01*
X120915181Y-103063025D01*
X121240340Y-103549660D01*
X123780340Y-106089660D01*
X124266975Y-106414819D01*
X124591603Y-106479392D01*
X124919893Y-106808255D01*
X125222512Y-106933913D01*
X124923000Y-107057669D01*
X124331745Y-107647893D01*
X124011366Y-108419452D01*
X124010637Y-109254883D01*
X124329669Y-110027000D01*
X124919893Y-110618255D01*
X125691452Y-110938634D01*
X126526883Y-110939363D01*
X126769780Y-110839000D01*
X127507995Y-110839000D01*
X127508000Y-110839001D01*
X128273367Y-110686759D01*
X128585896Y-110477934D01*
X130761723Y-110477934D01*
X131699000Y-111415211D01*
X132636277Y-110477934D01*
X132533826Y-110221960D01*
X131930297Y-110009895D01*
X131291555Y-110044933D01*
X130864174Y-110221960D01*
X130761723Y-110477934D01*
X128585896Y-110477934D01*
X128922214Y-110253214D01*
X132731553Y-106443874D01*
X133012529Y-106163388D01*
X133317652Y-105428570D01*
X133318346Y-104632921D01*
X133014506Y-103897571D01*
X132452388Y-103334471D01*
X131717570Y-103029348D01*
X131318002Y-103028999D01*
X131317998Y-103028999D01*
X130921921Y-103028654D01*
X130186571Y-103332494D01*
X129623471Y-103894612D01*
X129623123Y-103895450D01*
X128210757Y-105307816D01*
X128211363Y-104613117D01*
X127892331Y-103841000D01*
X127302107Y-103249745D01*
X126530548Y-102929366D01*
X125695117Y-102928637D01*
X125105558Y-103172238D01*
X124307386Y-102374066D01*
X125173723Y-102374066D01*
X125276174Y-102630040D01*
X125879703Y-102842105D01*
X126518445Y-102807067D01*
X126945826Y-102630040D01*
X127048277Y-102374066D01*
X126111000Y-101436789D01*
X125173723Y-102374066D01*
X124307386Y-102374066D01*
X123801000Y-101867680D01*
X123801000Y-100987703D01*
X124487895Y-100987703D01*
X124522933Y-101626445D01*
X124699960Y-102053826D01*
X124955934Y-102156277D01*
X125893211Y-101219000D01*
X126328789Y-101219000D01*
X127266066Y-102156277D01*
X127522040Y-102053826D01*
X127734105Y-101450297D01*
X127699067Y-100811555D01*
X127522040Y-100384174D01*
X127266066Y-100281723D01*
X126328789Y-101219000D01*
X125893211Y-101219000D01*
X124955934Y-100281723D01*
X124699960Y-100384174D01*
X124487895Y-100987703D01*
X123801000Y-100987703D01*
X123801000Y-100063934D01*
X125173723Y-100063934D01*
X126111000Y-101001211D01*
X127048277Y-100063934D01*
X126945826Y-99807960D01*
X126342297Y-99595895D01*
X125703555Y-99630933D01*
X125276174Y-99807960D01*
X125173723Y-100063934D01*
X123801000Y-100063934D01*
X123801000Y-97663000D01*
X123686819Y-97088975D01*
X123361660Y-96602340D01*
X121096320Y-94337000D01*
X124250278Y-94337000D01*
X123984348Y-94977430D01*
X123983654Y-95773079D01*
X124287494Y-96508429D01*
X124849612Y-97071529D01*
X124850449Y-97071876D01*
X125839784Y-98061211D01*
X125839786Y-98061214D01*
X126488633Y-98494759D01*
X127254000Y-98647000D01*
X131039506Y-98647000D01*
X131279452Y-98746634D01*
X132114883Y-98747363D01*
X132887000Y-98428331D01*
X133478255Y-97838107D01*
X133798634Y-97066548D01*
X133799363Y-96231117D01*
X133480331Y-95459000D01*
X132890107Y-94867745D01*
X132587488Y-94742087D01*
X132887000Y-94618331D01*
X133478255Y-94028107D01*
X133798634Y-93256548D01*
X133799363Y-92421117D01*
X133480331Y-91649000D01*
X132890107Y-91057745D01*
X132118548Y-90737366D01*
X131283117Y-90736637D01*
X130511000Y-91055669D01*
X130229178Y-91337000D01*
X125102058Y-91337000D01*
X125112214Y-91330214D01*
X126260361Y-90182066D01*
X130761723Y-90182066D01*
X130864174Y-90438040D01*
X131467703Y-90650105D01*
X132106445Y-90615067D01*
X132533826Y-90438040D01*
X132636277Y-90182066D01*
X131699000Y-89244789D01*
X130761723Y-90182066D01*
X126260361Y-90182066D01*
X127525211Y-88917216D01*
X127525214Y-88917214D01*
X127606404Y-88795703D01*
X130075895Y-88795703D01*
X130110933Y-89434445D01*
X130287960Y-89861826D01*
X130543934Y-89964277D01*
X131481211Y-89027000D01*
X131916789Y-89027000D01*
X132854066Y-89964277D01*
X133110040Y-89861826D01*
X133322105Y-89258297D01*
X133287067Y-88619555D01*
X133110040Y-88192174D01*
X132854066Y-88089723D01*
X131916789Y-89027000D01*
X131481211Y-89027000D01*
X130543934Y-88089723D01*
X130287960Y-88192174D01*
X130075895Y-88795703D01*
X127606404Y-88795703D01*
X127958759Y-88268367D01*
X128037614Y-87871934D01*
X130761723Y-87871934D01*
X131699000Y-88809211D01*
X132636277Y-87871934D01*
X132533826Y-87615960D01*
X131930297Y-87403895D01*
X131291555Y-87438933D01*
X130864174Y-87615960D01*
X130761723Y-87871934D01*
X128037614Y-87871934D01*
X128111000Y-87503000D01*
X128111000Y-85114494D01*
X128210634Y-84874548D01*
X128211363Y-84039117D01*
X127892331Y-83267000D01*
X127302107Y-82675745D01*
X126999488Y-82550087D01*
X127299000Y-82426331D01*
X127890255Y-81836107D01*
X128210634Y-81064548D01*
X128211363Y-80229117D01*
X127892331Y-79457000D01*
X127302107Y-78865745D01*
X126530548Y-78545366D01*
X125695117Y-78544637D01*
X124923000Y-78863669D01*
X124641178Y-79145000D01*
X121682323Y-79145000D01*
X121908819Y-78806025D01*
X122023000Y-78232000D01*
X122023000Y-77990066D01*
X125173723Y-77990066D01*
X125276174Y-78246040D01*
X125879703Y-78458105D01*
X126518445Y-78423067D01*
X126945826Y-78246040D01*
X127048277Y-77990066D01*
X126111000Y-77052789D01*
X125173723Y-77990066D01*
X122023000Y-77990066D01*
X122023000Y-76603703D01*
X124487895Y-76603703D01*
X124522933Y-77242445D01*
X124699960Y-77669826D01*
X124955934Y-77772277D01*
X125893211Y-76835000D01*
X126328789Y-76835000D01*
X127266066Y-77772277D01*
X127522040Y-77669826D01*
X127734105Y-77066297D01*
X127699067Y-76427555D01*
X127522040Y-76000174D01*
X127266066Y-75897723D01*
X126328789Y-76835000D01*
X125893211Y-76835000D01*
X124955934Y-75897723D01*
X124699960Y-76000174D01*
X124487895Y-76603703D01*
X122023000Y-76603703D01*
X122023000Y-75679934D01*
X125173723Y-75679934D01*
X126111000Y-76617211D01*
X127048277Y-75679934D01*
X126945826Y-75423960D01*
X126342297Y-75211895D01*
X125703555Y-75246933D01*
X125276174Y-75423960D01*
X125173723Y-75679934D01*
X122023000Y-75679934D01*
X122023000Y-70471320D01*
X122795320Y-69699000D01*
X124322362Y-69699000D01*
X124162471Y-69858612D01*
X123857348Y-70593430D01*
X123856654Y-71389079D01*
X124160494Y-72124429D01*
X124722612Y-72687529D01*
X124723448Y-72687876D01*
X125458786Y-73423214D01*
X126107633Y-73856759D01*
X126873000Y-74009001D01*
X126873005Y-74009000D01*
X131039506Y-74009000D01*
X131279452Y-74108634D01*
X132114883Y-74109363D01*
X132887000Y-73790331D01*
X133478255Y-73200107D01*
X133798634Y-72428548D01*
X133799363Y-71593117D01*
X133480331Y-70821000D01*
X132890107Y-70229745D01*
X132587488Y-70104087D01*
X132887000Y-69980331D01*
X133478255Y-69390107D01*
X133798634Y-68618548D01*
X133799363Y-67783117D01*
X133480331Y-67011000D01*
X132890107Y-66419745D01*
X132118548Y-66099366D01*
X131283117Y-66098637D01*
X130511000Y-66417669D01*
X130229178Y-66699000D01*
X122174000Y-66699000D01*
X121599975Y-66813181D01*
X121113340Y-67138340D01*
X120499000Y-67752680D01*
X120499000Y-65899927D01*
X120758430Y-66007652D01*
X121157998Y-66008001D01*
X121158002Y-66008001D01*
X121554079Y-66008346D01*
X122289429Y-65704506D01*
X122450149Y-65544066D01*
X130761723Y-65544066D01*
X130864174Y-65800040D01*
X131467703Y-66012105D01*
X132106445Y-65977067D01*
X132533826Y-65800040D01*
X132636277Y-65544066D01*
X131699000Y-64606789D01*
X130761723Y-65544066D01*
X122450149Y-65544066D01*
X122852529Y-65142388D01*
X122852876Y-65141552D01*
X123836725Y-64157703D01*
X130075895Y-64157703D01*
X130110933Y-64796445D01*
X130287960Y-65223826D01*
X130543934Y-65326277D01*
X131481211Y-64389000D01*
X131916789Y-64389000D01*
X132854066Y-65326277D01*
X133110040Y-65223826D01*
X133322105Y-64620297D01*
X133287067Y-63981555D01*
X133110040Y-63554174D01*
X132854066Y-63451723D01*
X131916789Y-64389000D01*
X131481211Y-64389000D01*
X130543934Y-63451723D01*
X130287960Y-63554174D01*
X130075895Y-64157703D01*
X123836725Y-64157703D01*
X124145428Y-63849000D01*
X125451506Y-63849000D01*
X125691452Y-63948634D01*
X126526883Y-63949363D01*
X127299000Y-63630331D01*
X127696089Y-63233934D01*
X130761723Y-63233934D01*
X131699000Y-64171211D01*
X132636277Y-63233934D01*
X132533826Y-62977960D01*
X131930297Y-62765895D01*
X131291555Y-62800933D01*
X130864174Y-62977960D01*
X130761723Y-63233934D01*
X127696089Y-63233934D01*
X127890255Y-63040107D01*
X128210634Y-62268548D01*
X128211363Y-61433117D01*
X127892331Y-60661000D01*
X127302107Y-60069745D01*
X126999488Y-59944087D01*
X127299000Y-59820331D01*
X127890255Y-59230107D01*
X128210634Y-58458548D01*
X128211363Y-57623117D01*
X127892331Y-56851000D01*
X127302107Y-56259745D01*
X126530548Y-55939366D01*
X125695117Y-55938637D01*
X124923000Y-56257669D01*
X124641178Y-56539000D01*
X121412000Y-56539000D01*
X120837975Y-56653181D01*
X120351340Y-56978340D01*
X118430550Y-58899130D01*
X118430550Y-57951000D01*
X118353848Y-57543364D01*
X118112936Y-57168976D01*
X117745346Y-56917812D01*
X117309000Y-56829450D01*
X115609000Y-56829450D01*
X115201364Y-56906152D01*
X114826976Y-57147064D01*
X114721796Y-57301000D01*
X112863891Y-57301000D01*
X112778936Y-57168976D01*
X112411346Y-56917812D01*
X111975000Y-56829450D01*
X110275000Y-56829450D01*
X109867364Y-56906152D01*
X109492976Y-57147064D01*
X109387796Y-57301000D01*
X107264887Y-57301000D01*
X106900120Y-57057270D01*
X106177843Y-56913600D01*
X105378757Y-56913600D01*
X104656480Y-57057270D01*
X104044164Y-57466407D01*
X103635027Y-58078723D01*
X103491357Y-58801000D01*
X68106427Y-58801000D01*
X64689493Y-55384066D01*
X125173723Y-55384066D01*
X125276174Y-55640040D01*
X125879703Y-55852105D01*
X126518445Y-55817067D01*
X126945826Y-55640040D01*
X127048277Y-55384066D01*
X126111000Y-54446789D01*
X125173723Y-55384066D01*
X64689493Y-55384066D01*
X63303130Y-53997703D01*
X124487895Y-53997703D01*
X124522933Y-54636445D01*
X124699960Y-55063826D01*
X124955934Y-55166277D01*
X125893211Y-54229000D01*
X126328789Y-54229000D01*
X127266066Y-55166277D01*
X127522040Y-55063826D01*
X127734105Y-54460297D01*
X127699067Y-53821555D01*
X127522040Y-53394174D01*
X127266066Y-53291723D01*
X126328789Y-54229000D01*
X125893211Y-54229000D01*
X124955934Y-53291723D01*
X124699960Y-53394174D01*
X124487895Y-53997703D01*
X63303130Y-53997703D01*
X62379361Y-53073934D01*
X125173723Y-53073934D01*
X126111000Y-54011211D01*
X127048277Y-53073934D01*
X126945826Y-52817960D01*
X126342297Y-52605895D01*
X125703555Y-52640933D01*
X125276174Y-52817960D01*
X125173723Y-53073934D01*
X62379361Y-53073934D01*
X61025028Y-51719601D01*
X61083633Y-51758759D01*
X61849000Y-51911000D01*
X72009000Y-51911000D01*
X72774367Y-51758759D01*
X73423214Y-51325214D01*
X73693321Y-50920969D01*
X76216820Y-50920969D01*
X76294643Y-51156229D01*
X76825548Y-51334815D01*
X77384382Y-51296637D01*
X77723357Y-51156229D01*
X77801180Y-50920969D01*
X77009000Y-50128789D01*
X76216820Y-50920969D01*
X73693321Y-50920969D01*
X73856759Y-50676367D01*
X74009000Y-49911000D01*
X73972510Y-49727548D01*
X75585185Y-49727548D01*
X75623363Y-50286382D01*
X75763771Y-50625357D01*
X75999031Y-50703180D01*
X76791211Y-49911000D01*
X77226789Y-49911000D01*
X78018969Y-50703180D01*
X78254229Y-50625357D01*
X78432815Y-50094452D01*
X78394637Y-49535618D01*
X78254229Y-49196643D01*
X78018969Y-49118820D01*
X77226789Y-49911000D01*
X76791211Y-49911000D01*
X75999031Y-49118820D01*
X75763771Y-49196643D01*
X75585185Y-49727548D01*
X73972510Y-49727548D01*
X73856759Y-49145633D01*
X73693322Y-48901031D01*
X76216820Y-48901031D01*
X77009000Y-49693211D01*
X77801180Y-48901031D01*
X77723357Y-48665771D01*
X77192452Y-48487185D01*
X76633618Y-48525363D01*
X76294643Y-48665771D01*
X76216820Y-48901031D01*
X73693322Y-48901031D01*
X73423214Y-48496786D01*
X72774367Y-48063241D01*
X72009000Y-47911000D01*
X63849000Y-47911000D01*
X63849000Y-45504022D01*
X64148600Y-44782505D01*
X64149001Y-44323000D01*
X74743940Y-44323000D01*
X74919017Y-45203172D01*
X75417594Y-45949346D01*
X76163768Y-46447923D01*
X77043940Y-46623000D01*
X77134060Y-46623000D01*
X78014232Y-46447923D01*
X78760406Y-45949346D01*
X78844828Y-45823000D01*
X79570422Y-45823000D01*
X79764612Y-46017529D01*
X80499430Y-46322652D01*
X81295079Y-46323346D01*
X82030429Y-46019506D01*
X82277563Y-45772803D01*
X82418061Y-45831000D01*
X83133000Y-45831000D01*
X83285000Y-45679000D01*
X83285000Y-44477000D01*
X83593000Y-44477000D01*
X83593000Y-45679000D01*
X83745000Y-45831000D01*
X84459939Y-45831000D01*
X84683405Y-45738437D01*
X84854438Y-45567404D01*
X84947000Y-45343938D01*
X84947000Y-44629000D01*
X84795000Y-44477000D01*
X83593000Y-44477000D01*
X83285000Y-44477000D01*
X83265000Y-44477000D01*
X83265000Y-44169000D01*
X83285000Y-44169000D01*
X83285000Y-42967000D01*
X83593000Y-42967000D01*
X83593000Y-44169000D01*
X84795000Y-44169000D01*
X84947000Y-44017000D01*
X84947000Y-43302062D01*
X84854438Y-43078596D01*
X84683405Y-42907563D01*
X84459939Y-42815000D01*
X83745000Y-42815000D01*
X83593000Y-42967000D01*
X83285000Y-42967000D01*
X83133000Y-42815000D01*
X82418061Y-42815000D01*
X82277650Y-42873160D01*
X82033388Y-42628471D01*
X81298570Y-42323348D01*
X80502921Y-42322654D01*
X79767571Y-42626494D01*
X79570722Y-42823000D01*
X78844828Y-42823000D01*
X78760406Y-42696654D01*
X78014232Y-42198077D01*
X77134060Y-42023000D01*
X77043940Y-42023000D01*
X76163768Y-42198077D01*
X75417594Y-42696654D01*
X74919017Y-43442828D01*
X74743940Y-44323000D01*
X64149001Y-44323000D01*
X64149399Y-43867509D01*
X63799982Y-43021857D01*
X63153547Y-42374292D01*
X62308505Y-42023400D01*
X61393509Y-42022601D01*
X60666489Y-42323000D01*
X54451000Y-42323000D01*
X54451000Y-38900022D01*
X54750600Y-38178505D01*
X54751001Y-37719000D01*
X80585940Y-37719000D01*
X80761017Y-38599172D01*
X81259594Y-39345346D01*
X82005768Y-39843923D01*
X82885940Y-40019000D01*
X82976060Y-40019000D01*
X83845790Y-39846000D01*
X89630740Y-39846000D01*
X90111473Y-40045618D01*
X90986687Y-40046381D01*
X91795572Y-39712157D01*
X92414982Y-39093827D01*
X92750618Y-38285527D01*
X92750621Y-38281687D01*
X93430619Y-38281687D01*
X93764843Y-39090572D01*
X94383173Y-39709982D01*
X95191473Y-40045618D01*
X96066687Y-40046381D01*
X96551647Y-39846000D01*
X100113675Y-39846000D01*
X99981000Y-40513000D01*
X99981000Y-45592995D01*
X99980999Y-45593000D01*
X100133241Y-46358367D01*
X100566786Y-47007214D01*
X103995784Y-50436211D01*
X103995786Y-50436214D01*
X104644633Y-50869759D01*
X105410000Y-51022000D01*
X125221995Y-51022000D01*
X125222000Y-51022001D01*
X125987367Y-50869759D01*
X126636214Y-50436214D01*
X130192211Y-46880216D01*
X130192214Y-46880214D01*
X130625759Y-46231367D01*
X130778000Y-45466000D01*
X130778000Y-40259000D01*
X130625759Y-39493633D01*
X130192214Y-38844786D01*
X130192211Y-38844784D01*
X127367214Y-36019786D01*
X126718367Y-35586241D01*
X125953000Y-35433999D01*
X125952995Y-35434000D01*
X125633509Y-35434000D01*
X125603848Y-35276364D01*
X125362936Y-34901976D01*
X125003320Y-34656260D01*
X129201457Y-34656260D01*
X129677271Y-35807818D01*
X130557548Y-36689633D01*
X131708273Y-37167456D01*
X132954260Y-37168543D01*
X134105818Y-36692729D01*
X134987633Y-35812452D01*
X135465456Y-34661727D01*
X135466543Y-33415740D01*
X134990729Y-32264182D01*
X134110452Y-31382367D01*
X132959727Y-30904544D01*
X131713740Y-30903457D01*
X130562182Y-31379271D01*
X129680367Y-32259548D01*
X129202544Y-33410273D01*
X129201457Y-34656260D01*
X125003320Y-34656260D01*
X124995346Y-34650812D01*
X124559000Y-34562450D01*
X121059000Y-34562450D01*
X120651364Y-34639152D01*
X120276976Y-34880064D01*
X120025812Y-35247654D01*
X119937450Y-35684000D01*
X119937450Y-38076000D01*
X118415000Y-38076000D01*
X118263000Y-38228000D01*
X118263000Y-40280000D01*
X120315000Y-40280000D01*
X120467000Y-40128000D01*
X120467000Y-40110834D01*
X120622654Y-40217188D01*
X121059000Y-40305550D01*
X124559000Y-40305550D01*
X124966636Y-40228848D01*
X125341024Y-39987936D01*
X125478015Y-39787443D01*
X126778000Y-41087427D01*
X126778000Y-44637573D01*
X124393572Y-47022000D01*
X106238427Y-47022000D01*
X103981000Y-44764572D01*
X103981000Y-41740526D01*
X110115263Y-41740526D01*
X110229993Y-42006871D01*
X110869802Y-42235661D01*
X111548462Y-42202191D01*
X112020007Y-42006871D01*
X112134737Y-41740526D01*
X111125000Y-40730789D01*
X110115263Y-41740526D01*
X103981000Y-41740526D01*
X103981000Y-40513000D01*
X103930238Y-40257802D01*
X109402339Y-40257802D01*
X109435809Y-40936462D01*
X109631129Y-41408007D01*
X109897474Y-41522737D01*
X110907211Y-40513000D01*
X111342789Y-40513000D01*
X112352526Y-41522737D01*
X112618871Y-41408007D01*
X112847661Y-40768198D01*
X112846271Y-40740000D01*
X115751000Y-40740000D01*
X115751000Y-42304939D01*
X115843563Y-42528405D01*
X116014596Y-42699438D01*
X116238062Y-42792000D01*
X117803000Y-42792000D01*
X117955000Y-42640000D01*
X117955000Y-40588000D01*
X118263000Y-40588000D01*
X118263000Y-42640000D01*
X118415000Y-42792000D01*
X119937450Y-42792000D01*
X119937450Y-45184000D01*
X120014152Y-45591636D01*
X120255064Y-45966024D01*
X120622654Y-46217188D01*
X121059000Y-46305550D01*
X124559000Y-46305550D01*
X124966636Y-46228848D01*
X125341024Y-45987936D01*
X125592188Y-45620346D01*
X125680550Y-45184000D01*
X125680550Y-41684000D01*
X125603848Y-41276364D01*
X125362936Y-40901976D01*
X124995346Y-40650812D01*
X124559000Y-40562450D01*
X121059000Y-40562450D01*
X120651364Y-40639152D01*
X120467000Y-40757787D01*
X120467000Y-40740000D01*
X120315000Y-40588000D01*
X118263000Y-40588000D01*
X117955000Y-40588000D01*
X115903000Y-40588000D01*
X115751000Y-40740000D01*
X112846271Y-40740000D01*
X112814191Y-40089538D01*
X112618871Y-39617993D01*
X112352526Y-39503263D01*
X111342789Y-40513000D01*
X110907211Y-40513000D01*
X109897474Y-39503263D01*
X109631129Y-39617993D01*
X109402339Y-40257802D01*
X103930238Y-40257802D01*
X103828759Y-39747633D01*
X103519955Y-39285474D01*
X110115263Y-39285474D01*
X111125000Y-40295211D01*
X112134737Y-39285474D01*
X112020007Y-39019129D01*
X111380198Y-38790339D01*
X110701538Y-38823809D01*
X110229993Y-39019129D01*
X110115263Y-39285474D01*
X103519955Y-39285474D01*
X103491574Y-39242999D01*
X103828759Y-38738367D01*
X103863629Y-38563061D01*
X115751000Y-38563061D01*
X115751000Y-40128000D01*
X115903000Y-40280000D01*
X117955000Y-40280000D01*
X117955000Y-38228000D01*
X117803000Y-38076000D01*
X116238062Y-38076000D01*
X116014596Y-38168562D01*
X115843563Y-38339595D01*
X115751000Y-38563061D01*
X103863629Y-38563061D01*
X103981001Y-37973000D01*
X103873588Y-37433000D01*
X110204740Y-37433000D01*
X110685473Y-37632618D01*
X111560687Y-37633381D01*
X112369572Y-37299157D01*
X112988982Y-36680827D01*
X113324618Y-35872527D01*
X113325381Y-34997313D01*
X112991157Y-34188428D01*
X112372827Y-33569018D01*
X111564527Y-33233382D01*
X110689313Y-33232619D01*
X110204353Y-33433000D01*
X101981000Y-33433000D01*
X101837972Y-33461450D01*
X101131000Y-33461450D01*
X100723364Y-33538152D01*
X100348976Y-33779064D01*
X100097812Y-34146654D01*
X100009450Y-34583000D01*
X100009450Y-35289972D01*
X99981000Y-35433000D01*
X100009450Y-35576028D01*
X100009450Y-35846000D01*
X96551260Y-35846000D01*
X96070527Y-35646382D01*
X95195313Y-35645619D01*
X94386428Y-35979843D01*
X93767018Y-36598173D01*
X93431382Y-37406473D01*
X93430619Y-38281687D01*
X92750621Y-38281687D01*
X92751381Y-37410313D01*
X92417157Y-36601428D01*
X91798827Y-35982018D01*
X90990527Y-35646382D01*
X90115313Y-35645619D01*
X89630353Y-35846000D01*
X84233262Y-35846000D01*
X83856232Y-35594077D01*
X82976060Y-35419000D01*
X82885940Y-35419000D01*
X82005768Y-35594077D01*
X81259594Y-36092654D01*
X80761017Y-36838828D01*
X80585940Y-37719000D01*
X54751001Y-37719000D01*
X54751399Y-37263509D01*
X54401982Y-36417857D01*
X53755547Y-35770292D01*
X52910505Y-35419400D01*
X51995509Y-35418601D01*
X51149857Y-35768018D01*
X50502292Y-36414453D01*
X50151400Y-37259495D01*
X50150601Y-38174491D01*
X50451000Y-38901511D01*
X50451000Y-42323000D01*
X49657599Y-42323000D01*
X49260921Y-42322654D01*
X48525571Y-42626494D01*
X47962471Y-43188612D01*
X47657348Y-43923430D01*
X47656654Y-44719079D01*
X46565692Y-44719079D01*
X46508889Y-44604000D01*
X45366000Y-44604000D01*
X45058000Y-44604000D01*
X43915111Y-44604000D01*
X43804097Y-44828910D01*
X42264000Y-44828910D01*
X42264000Y-42216000D01*
X43754000Y-42216000D01*
X43754000Y-42880938D01*
X43846562Y-43104404D01*
X44017595Y-43275437D01*
X44241061Y-43368000D01*
X44258620Y-43368000D01*
X43948523Y-43722384D01*
X43804097Y-44071090D01*
X43915111Y-44296000D01*
X45058000Y-44296000D01*
X45058000Y-42064000D01*
X45366000Y-42064000D01*
X45366000Y-44296000D01*
X46508889Y-44296000D01*
X46619903Y-44071090D01*
X46475477Y-43722384D01*
X46165380Y-43368000D01*
X46182939Y-43368000D01*
X46406405Y-43275437D01*
X46577438Y-43104404D01*
X46670000Y-42880938D01*
X46670000Y-42216000D01*
X46518000Y-42064000D01*
X45366000Y-42064000D01*
X45058000Y-42064000D01*
X43906000Y-42064000D01*
X43754000Y-42216000D01*
X42264000Y-42216000D01*
X42264000Y-40939062D01*
X43754000Y-40939062D01*
X43754000Y-41604000D01*
X43906000Y-41756000D01*
X45058000Y-41756000D01*
X45058000Y-40604000D01*
X45366000Y-40604000D01*
X45366000Y-41756000D01*
X46518000Y-41756000D01*
X46670000Y-41604000D01*
X46670000Y-40939062D01*
X46577438Y-40715596D01*
X46406405Y-40544563D01*
X46182939Y-40452000D01*
X45518000Y-40452000D01*
X45366000Y-40604000D01*
X45058000Y-40604000D01*
X44906000Y-40452000D01*
X44241061Y-40452000D01*
X44017595Y-40544563D01*
X43846562Y-40715596D01*
X43754000Y-40939062D01*
X42264000Y-40939062D01*
X42264000Y-34656260D01*
X44111457Y-34656260D01*
X44587271Y-35807818D01*
X45467548Y-36689633D01*
X46618273Y-37167456D01*
X47864260Y-37168543D01*
X49015818Y-36692729D01*
X49897633Y-35812452D01*
X50375456Y-34661727D01*
X50376543Y-33415740D01*
X49900729Y-32264182D01*
X49020452Y-31382367D01*
X47869727Y-30904544D01*
X46623740Y-30903457D01*
X45472182Y-31379271D01*
X44590367Y-32259548D01*
X44112544Y-33410273D01*
X44111457Y-34656260D01*
X42264000Y-34656260D01*
X42264000Y-29056000D01*
X137313910Y-29056000D01*
X137187090Y-170080000D01*
M02*
