M48
METRIC,TZ
T1C0.500
T2C0.762
T3C0.800
T4C0.900
T5C1.000
T6C1.200
T7C3.048
%
G90
G05
T1
X44.577Y-60.833
X44.958Y-160.274
X52.07Y-60.96
X61.087Y-165.989
X78.232Y-165.989
X95.377Y-165.989
X112.522Y-165.989
X115.062Y-54.102
X122.809Y-73.406
X122.936Y-83.693
X122.936Y-93.218
X123.063Y-104.775
X123.19Y-118.237
X123.19Y-127.889
X125.222Y-165.989
T2
X49.657Y-157.607
X53.467Y-157.607
X57.264Y-72.644
X57.264Y-75.184
X57.264Y-77.724
X57.264Y-80.264
X57.264Y-82.804
X57.264Y-85.344
X57.264Y-87.884
X57.264Y-90.424
X57.264Y-95.504
X57.277Y-98.044
X57.277Y-100.584
X57.277Y-103.124
X57.277Y-105.664
X57.277Y-108.204
X57.277Y-110.744
X57.277Y-113.284
X57.277Y-118.364
X57.277Y-120.904
X57.277Y-123.444
X57.277Y-125.984
X57.277Y-128.524
X57.277Y-131.064
X57.277Y-133.604
X57.277Y-136.144
X57.277Y-157.607
X61.087Y-157.607
X62.344Y-138.684
X62.344Y-141.224
X64.884Y-138.684
X64.884Y-141.224
X66.802Y-157.607
X67.424Y-138.684
X67.424Y-141.224
X69.964Y-138.684
X69.964Y-141.224
X70.612Y-157.607
X72.504Y-138.684
X72.504Y-141.224
X74.422Y-157.607
X75.044Y-138.684
X75.044Y-141.224
X77.584Y-138.684
X77.584Y-141.224
X78.232Y-157.607
X80.124Y-138.684
X80.124Y-141.224
X82.664Y-138.684
X82.664Y-141.224
X83.947Y-157.607
X85.204Y-138.684
X85.204Y-141.224
X87.744Y-138.684
X87.744Y-141.224
X87.757Y-157.607
X90.284Y-138.684
X90.284Y-141.224
X91.567Y-157.607
X92.824Y-138.684
X92.824Y-141.224
X95.364Y-138.684
X95.364Y-141.224
X95.377Y-157.607
X97.904Y-138.684
X97.904Y-141.224
X100.444Y-138.684
X100.444Y-141.224
X101.092Y-157.607
X102.984Y-138.684
X102.984Y-141.224
X104.902Y-157.607
X105.524Y-63.5
X105.524Y-66.04
X105.524Y-68.58
X105.524Y-71.12
X105.524Y-108.204
X105.524Y-128.524
X105.524Y-131.064
X105.524Y-138.684
X105.524Y-141.224
X105.537Y-73.66
X105.537Y-76.2
X105.537Y-78.74
X105.537Y-81.28
X105.537Y-83.82
X105.537Y-86.36
X105.537Y-90.424
X105.537Y-92.964
X105.537Y-95.504
X105.537Y-98.044
X105.537Y-100.584
X105.537Y-103.124
X105.537Y-105.664
X105.537Y-113.284
X105.537Y-115.824
X105.537Y-118.364
X105.537Y-120.904
X105.537Y-123.444
X105.537Y-125.984
X108.712Y-157.607
X112.522Y-157.607
X118.237Y-157.607
X122.047Y-157.607
X125.857Y-157.607
X129.667Y-157.607
T3
X64.897Y-127.508
X66.897Y-127.508
X68.897Y-127.508
X70.897Y-127.508
X72.897Y-127.508
X74.897Y-127.508
X84.836Y-38.227
X84.836Y-43.227
X90.838Y-127.508
X92.838Y-127.508
X94.838Y-127.508
X96.838Y-127.508
X98.838Y-127.508
X100.838Y-127.508
T4
X125.603Y-138.557
X125.603Y-145.542
X128.143Y-138.557
X128.143Y-145.542
T5
X43.942Y-40.513
X43.942Y-43.053
X43.942Y-45.593
X43.942Y-48.133
X43.942Y-50.673
X44.577Y-132.207
X44.577Y-134.747
X44.577Y-137.287
X44.577Y-139.827
X44.577Y-142.367
X51.943Y-72.644
X51.943Y-75.184
X51.943Y-77.724
X51.943Y-80.264
X51.943Y-82.804
X51.943Y-85.344
X51.943Y-87.884
X51.943Y-90.424
X51.943Y-95.504
X51.943Y-98.044
X51.943Y-100.584
X51.943Y-103.124
X51.943Y-105.664
X51.943Y-108.204
X51.943Y-110.744
X51.943Y-113.284
X51.943Y-118.364
X51.943Y-120.904
X51.943Y-123.444
X51.943Y-125.984
X51.943Y-128.524
X51.943Y-131.064
X51.943Y-133.604
X51.943Y-136.144
X56.134Y-38.1
X58.674Y-38.1
X61.595Y-38.1
X62.357Y-135.128
X62.357Y-144.526
X62.586Y-72.644
X62.586Y-75.184
X62.586Y-77.724
X62.586Y-80.264
X62.586Y-82.804
X62.586Y-85.344
X62.586Y-87.884
X62.586Y-90.424
X62.611Y-95.504
X62.611Y-98.044
X62.611Y-100.584
X62.611Y-103.124
X62.611Y-105.664
X62.611Y-108.204
X64.135Y-38.1
X64.897Y-135.128
X64.897Y-144.526
X67.437Y-135.128
X67.437Y-144.526
X69.977Y-135.128
X69.977Y-144.526
X72.517Y-135.128
X72.517Y-144.526
X75.057Y-135.128
X75.057Y-144.526
X77.597Y-135.128
X77.597Y-144.526
X80.137Y-135.128
X80.137Y-144.526
X82.677Y-135.128
X82.677Y-144.526
X85.217Y-135.128
X85.217Y-144.526
X87.757Y-135.128
X87.757Y-144.526
X90.297Y-135.128
X90.297Y-144.526
X92.837Y-135.128
X92.837Y-144.526
X95.377Y-135.128
X95.377Y-144.526
X97.917Y-135.128
X97.917Y-144.526
X100.457Y-135.128
X100.457Y-144.526
X102.997Y-135.128
X102.997Y-144.526
X105.537Y-135.128
X105.537Y-144.526
X107.442Y-32.131
X107.442Y-35.941
X107.442Y-39.751
X110.871Y-63.5
X110.871Y-66.04
X110.871Y-68.58
X110.871Y-71.12
X110.871Y-73.66
X110.871Y-76.2
X110.871Y-78.74
X110.871Y-81.28
X110.871Y-83.82
X110.871Y-86.36
X110.871Y-90.424
X110.871Y-92.964
X110.871Y-95.504
X110.871Y-98.044
X110.871Y-100.584
X110.871Y-103.124
X110.871Y-105.664
X110.871Y-108.204
X110.871Y-113.284
X110.871Y-115.824
X110.871Y-118.364
X110.871Y-120.904
X110.871Y-123.444
X110.871Y-125.984
X110.871Y-128.524
X110.871Y-131.064
X116.205Y-63.5
X116.205Y-66.04
X116.205Y-68.58
X116.205Y-71.12
X116.205Y-73.66
X116.205Y-76.2
X116.205Y-78.74
X116.205Y-81.28
X116.205Y-83.82
X116.205Y-86.36
X116.205Y-90.424
X116.205Y-92.964
X116.205Y-95.504
X116.205Y-98.044
X116.205Y-100.584
X116.205Y-103.124
X116.205Y-105.664
X116.205Y-108.204
X129.54Y-83.693
X129.54Y-87.503
X129.54Y-91.313
X129.54Y-97.155
X129.54Y-100.965
X129.54Y-104.775
X129.54Y-110.617
X129.54Y-114.427
X129.54Y-118.237
X129.54Y-124.206
X129.54Y-128.016
X129.54Y-131.826
X129.667Y-57.023
X129.667Y-60.833
X129.667Y-64.643
X129.667Y-70.358
X129.667Y-74.168
X129.667Y-77.978
T6
X58.674Y-33.147
X89.154Y-33.147
X94.107Y-39.624
X99.187Y-39.624
X115.57Y-133.223
X115.57Y-148.463
X120.142Y-133.223
X120.142Y-148.463
X120.396Y-33.401
X120.396Y-38.481
T7
X45.212Y-32.004
X45.212Y-167.132
X134.366Y-32.004
X134.366Y-167.132
T5
X122.555Y-50.276G85X122.555Y-48.276
G05
X126.555Y-44.576G85X124.555Y-44.576
G05
X128.555Y-50.276G85X128.555Y-48.276
G05
T0
M30
